<?xml version="1.0" encoding="utf-8" ?>
<svg baseProfile="full" height="78mm" version="1.1" viewBox="0,0,200,78" width="200mm" xmlns="http://www.w3.org/2000/svg" xmlns:ev="http://www.w3.org/2001/xml-events" xmlns:xlink="http://www.w3.org/1999/xlink"><defs /><rect fill="#222222" height="78" width="200" x="0" y="0" /><text fill="#FFFFFF" style="font-size:12px; font-family:Arial; font-weight:bold;" x="10" y="20">Joey GitHub</text><text alignment-baseline="hanging" fill="#FFFFFF" style="font-size:10.0px; font-family:Arial;" x="10" y="30">2016</text><text alignment-baseline="hanging" fill="#FFFFFF" style="font-size:4.125px; font-family:Arial;" x="175" y="35">432 cons</text><text fill="#FFFFFF" style="font-size:2.5px; font-family:Arial" x="10.0" y="44">Jan</text><text fill="#FFFFFF" style="font-size:2.5px; font-family:Arial" x="25.5" y="44">Feb</text><text fill="#FFFFFF" style="font-size:2.5px; font-family:Arial" x="41.0" y="44">Mar</text><text fill="#FFFFFF" style="font-size:2.5px; font-family:Arial" x="56.5" y="44">Apr</text><text fill="#FFFFFF" style="font-size:2.5px; font-family:Arial" x="72.0" y="44">May</text><text fill="#FFFFFF" style="font-size:2.5px; font-family:Arial" x="87.5" y="44">Jun</text><text fill="#FFFFFF" style="font-size:2.5px; font-family:Arial" x="103.0" y="44">Jul</text><text fill="#FFFFFF" style="font-size:2.5px; font-family:Arial" x="118.5" y="44">Aug</text><text fill="#FFFFFF" style="font-size:2.5px; font-family:Arial" x="134.0" y="44">Sep</text><text fill="#FFFFFF" style="font-size:2.5px; font-family:Arial" x="149.5" y="44">Oct</text><text fill="#FFFFFF" style="font-size:2.5px; font-family:Arial" x="165.0" y="44">Nov</text><text fill="#FFFFFF" style="font-size:2.5px; font-family:Arial" x="180.5" y="44">Dec</text><rect fill="#444444" height="2.6" width="2.6" x="10.0" y="45.5"><title>2015-12-28</title></rect><rect fill="#444444" height="2.6" width="2.6" x="10.0" y="49.0"><title>2015-12-29</title></rect><rect fill="#444444" height="2.6" width="2.6" x="10.0" y="52.5"><title>2015-12-30</title></rect><rect fill="#444444" height="2.6" width="2.6" x="10.0" y="56.0"><title>2015-12-31</title></rect><rect fill="#444444" height="2.6" width="2.6" x="10.0" y="59.5"><title>2016-01-01</title></rect><rect fill="#444444" height="2.6" width="2.6" x="10.0" y="63.0"><title>2016-01-02</title></rect><rect fill="#444444" height="2.6" width="2.6" x="10.0" y="66.5"><title>2016-01-03</title></rect><rect fill="#444444" height="2.6" width="2.6" x="13.5" y="45.5"><title>2016-01-04</title></rect><rect fill="#4dd2ff" height="2.6" width="2.6" x="13.5" y="49.0"><title>2016-01-05 1 cons</title></rect><rect fill="#4dd2ff" height="2.6" width="2.6" x="13.5" y="52.5"><title>2016-01-06 1 cons</title></rect><rect fill="#444444" height="2.6" width="2.6" x="13.5" y="56.0"><title>2016-01-07</title></rect><rect fill="#444444" height="2.6" width="2.6" x="13.5" y="59.5"><title>2016-01-08</title></rect><rect fill="#444444" height="2.6" width="2.6" x="13.5" y="63.0"><title>2016-01-09</title></rect><rect fill="#444444" height="2.6" width="2.6" x="13.5" y="66.5"><title>2016-01-10</title></rect><rect fill="#444444" height="2.6" width="2.6" x="17.0" y="45.5"><title>2016-01-11</title></rect><rect fill="#444444" height="2.6" width="2.6" x="17.0" y="49.0"><title>2016-01-12</title></rect><rect fill="#4dd2ff" height="2.6" width="2.6" x="17.0" y="52.5"><title>2016-01-13 1 cons</title></rect><rect fill="#444444" height="2.6" width="2.6" x="17.0" y="56.0"><title>2016-01-14</title></rect><rect fill="#444444" height="2.6" width="2.6" x="17.0" y="59.5"><title>2016-01-15</title></rect><rect fill="#444444" height="2.6" width="2.6" x="17.0" y="63.0"><title>2016-01-16</title></rect><rect fill="#444444" height="2.6" width="2.6" x="17.0" y="66.5"><title>2016-01-17</title></rect><rect fill="#48f6ff" height="2.6" width="2.6" x="20.5" y="45.5"><title>2016-01-18 2 cons</title></rect><rect fill="#444444" height="2.6" width="2.6" x="20.5" y="49.0"><title>2016-01-19</title></rect><rect fill="#444444" height="2.6" width="2.6" x="20.5" y="52.5"><title>2016-01-20</title></rect><rect fill="#444444" height="2.6" width="2.6" x="20.5" y="56.0"><title>2016-01-21</title></rect><rect fill="#444444" height="2.6" width="2.6" x="20.5" y="59.5"><title>2016-01-22</title></rect><rect fill="#444444" height="2.6" width="2.6" x="20.5" y="63.0"><title>2016-01-23</title></rect><rect fill="#444444" height="2.6" width="2.6" x="20.5" y="66.5"><title>2016-01-24</title></rect><rect fill="#444444" height="2.6" width="2.6" x="24.0" y="45.5"><title>2016-01-25</title></rect><rect fill="#444444" height="2.6" width="2.6" x="24.0" y="49.0"><title>2016-01-26</title></rect><rect fill="#444444" height="2.6" width="2.6" x="24.0" y="52.5"><title>2016-01-27</title></rect><rect fill="#444444" height="2.6" width="2.6" x="24.0" y="56.0"><title>2016-01-28</title></rect><rect fill="#444444" height="2.6" width="2.6" x="24.0" y="59.5"><title>2016-01-29</title></rect><rect fill="#444444" height="2.6" width="2.6" x="24.0" y="63.0"><title>2016-01-30</title></rect><rect fill="#4dd2ff" height="2.6" width="2.6" x="24.0" y="66.5"><title>2016-01-31 1 cons</title></rect><rect fill="#444444" height="2.6" width="2.6" x="27.5" y="45.5"><title>2016-02-01</title></rect><rect fill="#444444" height="2.6" width="2.6" x="27.5" y="49.0"><title>2016-02-02</title></rect><rect fill="#444444" height="2.6" width="2.6" x="27.5" y="52.5"><title>2016-02-03</title></rect><rect fill="#4dd2ff" height="2.6" width="2.6" x="27.5" y="56.0"><title>2016-02-04 1 cons</title></rect><rect fill="#444444" height="2.6" width="2.6" x="27.5" y="59.5"><title>2016-02-05</title></rect><rect fill="#444444" height="2.6" width="2.6" x="27.5" y="63.0"><title>2016-02-06</title></rect><rect fill="#444444" height="2.6" width="2.6" x="27.5" y="66.5"><title>2016-02-07</title></rect><rect fill="#444444" height="2.6" width="2.6" x="31.0" y="45.5"><title>2016-02-08</title></rect><rect fill="#444444" height="2.6" width="2.6" x="31.0" y="49.0"><title>2016-02-09</title></rect><rect fill="#444444" height="2.6" width="2.6" x="31.0" y="52.5"><title>2016-02-10</title></rect><rect fill="#444444" height="2.6" width="2.6" x="31.0" y="56.0"><title>2016-02-11</title></rect><rect fill="#444444" height="2.6" width="2.6" x="31.0" y="59.5"><title>2016-02-12</title></rect><rect fill="#444444" height="2.6" width="2.6" x="31.0" y="63.0"><title>2016-02-13</title></rect><rect fill="#444444" height="2.6" width="2.6" x="31.0" y="66.5"><title>2016-02-14</title></rect><rect fill="#444444" height="2.6" width="2.6" x="34.5" y="45.5"><title>2016-02-15</title></rect><rect fill="#444444" height="2.6" width="2.6" x="34.5" y="49.0"><title>2016-02-16</title></rect><rect fill="#444444" height="2.6" width="2.6" x="34.5" y="52.5"><title>2016-02-17</title></rect><rect fill="#4dd2ff" height="2.6" width="2.6" x="34.5" y="56.0"><title>2016-02-18 1 cons</title></rect><rect fill="#444444" height="2.6" width="2.6" x="34.5" y="59.5"><title>2016-02-19</title></rect><rect fill="#444444" height="2.6" width="2.6" x="34.5" y="63.0"><title>2016-02-20</title></rect><rect fill="#43ffe2" height="2.6" width="2.6" x="34.5" y="66.5"><title>2016-02-21 3 cons</title></rect><rect fill="#444444" height="2.6" width="2.6" x="38.0" y="45.5"><title>2016-02-22</title></rect><rect fill="#30ff37" height="2.6" width="2.6" x="38.0" y="49.0"><title>2016-02-23 7 cons</title></rect><rect fill="#30ff37" height="2.6" width="2.6" x="38.0" y="52.5"><title>2016-02-24 7 cons</title></rect><rect fill="#3fffba" height="2.6" width="2.6" x="38.0" y="56.0"><title>2016-02-25 4 cons</title></rect><rect fill="#444444" height="2.6" width="2.6" x="38.0" y="59.5"><title>2016-02-26</title></rect><rect fill="#444444" height="2.6" width="2.6" x="38.0" y="63.0"><title>2016-02-27</title></rect><rect fill="#48f6ff" height="2.6" width="2.6" x="38.0" y="66.5"><title>2016-02-28 2 cons</title></rect><rect fill="#30ff37" height="2.6" width="2.6" x="41.5" y="45.5"><title>2016-02-29 7 cons</title></rect><rect fill="#30ff37" height="2.6" width="2.6" x="41.5" y="49.0"><title>2016-03-01 7 cons</title></rect><rect fill="#444444" height="2.6" width="2.6" x="41.5" y="52.5"><title>2016-03-02</title></rect><rect fill="#48f6ff" height="2.6" width="2.6" x="41.5" y="56.0"><title>2016-03-03 2 cons</title></rect><rect fill="#444444" height="2.6" width="2.6" x="41.5" y="59.5"><title>2016-03-04</title></rect><rect fill="#43ffe2" height="2.6" width="2.6" x="41.5" y="63.0"><title>2016-03-05 3 cons</title></rect><rect fill="#444444" height="2.6" width="2.6" x="41.5" y="66.5"><title>2016-03-06</title></rect><rect fill="#3aff90" height="2.6" width="2.6" x="45.0" y="45.5"><title>2016-03-07 5 cons</title></rect><rect fill="#3aff90" height="2.6" width="2.6" x="45.0" y="49.0"><title>2016-03-08 5 cons</title></rect><rect fill="#4dd2ff" height="2.6" width="2.6" x="45.0" y="52.5"><title>2016-03-09 1 cons</title></rect><rect fill="#4dd2ff" height="2.6" width="2.6" x="45.0" y="56.0"><title>2016-03-10 1 cons</title></rect><rect fill="#48f6ff" height="2.6" width="2.6" x="45.0" y="59.5"><title>2016-03-11 2 cons</title></rect><rect fill="#35ff65" height="2.6" width="2.6" x="45.0" y="63.0"><title>2016-03-12 6 cons</title></rect><rect fill="#ff6000" height="2.6" width="2.6" x="45.0" y="66.5"><title>2016-03-13 11 cons</title></rect><rect fill="#4dd2ff" height="2.6" width="2.6" x="48.5" y="45.5"><title>2016-03-14 1 cons</title></rect><rect fill="#444444" height="2.6" width="2.6" x="48.5" y="49.0"><title>2016-03-15</title></rect><rect fill="#35ff65" height="2.6" width="2.6" x="48.5" y="52.5"><title>2016-03-16 6 cons</title></rect><rect fill="#444444" height="2.6" width="2.6" x="48.5" y="56.0"><title>2016-03-17</title></rect><rect fill="#444444" height="2.6" width="2.6" x="48.5" y="59.5"><title>2016-03-18</title></rect><rect fill="#444444" height="2.6" width="2.6" x="48.5" y="63.0"><title>2016-03-19</title></rect><rect fill="#3fffba" height="2.6" width="2.6" x="48.5" y="66.5"><title>2016-03-20 4 cons</title></rect><rect fill="#444444" height="2.6" width="2.6" x="52.0" y="45.5"><title>2016-03-21</title></rect><rect fill="#3aff90" height="2.6" width="2.6" x="52.0" y="49.0"><title>2016-03-22 5 cons</title></rect><rect fill="#444444" height="2.6" width="2.6" x="52.0" y="52.5"><title>2016-03-23</title></rect><rect fill="#444444" height="2.6" width="2.6" x="52.0" y="56.0"><title>2016-03-24</title></rect><rect fill="#444444" height="2.6" width="2.6" x="52.0" y="59.5"><title>2016-03-25</title></rect><rect fill="#444444" height="2.6" width="2.6" x="52.0" y="63.0"><title>2016-03-26</title></rect><rect fill="#444444" height="2.6" width="2.6" x="52.0" y="66.5"><title>2016-03-27</title></rect><rect fill="#444444" height="2.6" width="2.6" x="55.5" y="45.5"><title>2016-03-28</title></rect><rect fill="#444444" height="2.6" width="2.6" x="55.5" y="49.0"><title>2016-03-29</title></rect><rect fill="#444444" height="2.6" width="2.6" x="55.5" y="52.5"><title>2016-03-30</title></rect><rect fill="#444444" height="2.6" width="2.6" x="55.5" y="56.0"><title>2016-03-31</title></rect><rect fill="#444444" height="2.6" width="2.6" x="55.5" y="59.5"><title>2016-04-01</title></rect><rect fill="#444444" height="2.6" width="2.6" x="55.5" y="63.0"><title>2016-04-02</title></rect><rect fill="#444444" height="2.6" width="2.6" x="55.5" y="66.5"><title>2016-04-03</title></rect><rect fill="#444444" height="2.6" width="2.6" x="59.0" y="45.5"><title>2016-04-04</title></rect><rect fill="#444444" height="2.6" width="2.6" x="59.0" y="49.0"><title>2016-04-05</title></rect><rect fill="#444444" height="2.6" width="2.6" x="59.0" y="52.5"><title>2016-04-06</title></rect><rect fill="#444444" height="2.6" width="2.6" x="59.0" y="56.0"><title>2016-04-07</title></rect><rect fill="#4dd2ff" height="2.6" width="2.6" x="59.0" y="59.5"><title>2016-04-08 1 cons</title></rect><rect fill="#444444" height="2.6" width="2.6" x="59.0" y="63.0"><title>2016-04-09</title></rect><rect fill="#444444" height="2.6" width="2.6" x="59.0" y="66.5"><title>2016-04-10</title></rect><rect fill="#4dd2ff" height="2.6" width="2.6" x="62.5" y="45.5"><title>2016-04-11 1 cons</title></rect><rect fill="#444444" height="2.6" width="2.6" x="62.5" y="49.0"><title>2016-04-12</title></rect><rect fill="#444444" height="2.6" width="2.6" x="62.5" y="52.5"><title>2016-04-13</title></rect><rect fill="#444444" height="2.6" width="2.6" x="62.5" y="56.0"><title>2016-04-14</title></rect><rect fill="#444444" height="2.6" width="2.6" x="62.5" y="59.5"><title>2016-04-15</title></rect><rect fill="#444444" height="2.6" width="2.6" x="62.5" y="63.0"><title>2016-04-16</title></rect><rect fill="#444444" height="2.6" width="2.6" x="62.5" y="66.5"><title>2016-04-17</title></rect><rect fill="#3fffba" height="2.6" width="2.6" x="66.0" y="45.5"><title>2016-04-18 4 cons</title></rect><rect fill="red" height="2.6" width="2.6" x="66.0" y="49.0"><title>2016-04-19 12 cons</title></rect><rect fill="#3fffba" height="2.6" width="2.6" x="66.0" y="52.5"><title>2016-04-20 4 cons</title></rect><rect fill="#3aff90" height="2.6" width="2.6" x="66.0" y="56.0"><title>2016-04-21 5 cons</title></rect><rect fill="#444444" height="2.6" width="2.6" x="66.0" y="59.5"><title>2016-04-22</title></rect><rect fill="#48f6ff" height="2.6" width="2.6" x="66.0" y="63.0"><title>2016-04-23 2 cons</title></rect><rect fill="#48f6ff" height="2.6" width="2.6" x="66.0" y="66.5"><title>2016-04-24 2 cons</title></rect><rect fill="#43ffe2" height="2.6" width="2.6" x="69.5" y="45.5"><title>2016-04-25 3 cons</title></rect><rect fill="#444444" height="2.6" width="2.6" x="69.5" y="49.0"><title>2016-04-26</title></rect><rect fill="#4dd2ff" height="2.6" width="2.6" x="69.5" y="52.5"><title>2016-04-27 1 cons</title></rect><rect fill="#43ffe2" height="2.6" width="2.6" x="69.5" y="56.0"><title>2016-04-28 3 cons</title></rect><rect fill="#444444" height="2.6" width="2.6" x="69.5" y="59.5"><title>2016-04-29</title></rect><rect fill="#444444" height="2.6" width="2.6" x="69.5" y="63.0"><title>2016-04-30</title></rect><rect fill="#444444" height="2.6" width="2.6" x="69.5" y="66.5"><title>2016-05-01</title></rect><rect fill="#4dd2ff" height="2.6" width="2.6" x="73.0" y="45.5"><title>2016-05-02 1 cons</title></rect><rect fill="#43ffe2" height="2.6" width="2.6" x="73.0" y="49.0"><title>2016-05-03 3 cons</title></rect><rect fill="#4dd2ff" height="2.6" width="2.6" x="73.0" y="52.5"><title>2016-05-04 1 cons</title></rect><rect fill="#444444" height="2.6" width="2.6" x="73.0" y="56.0"><title>2016-05-05</title></rect><rect fill="#4dd2ff" height="2.6" width="2.6" x="73.0" y="59.5"><title>2016-05-06 1 cons</title></rect><rect fill="#48f6ff" height="2.6" width="2.6" x="73.0" y="63.0"><title>2016-05-07 2 cons</title></rect><rect fill="#444444" height="2.6" width="2.6" x="73.0" y="66.5"><title>2016-05-08</title></rect><rect fill="#4dd2ff" height="2.6" width="2.6" x="76.5" y="45.5"><title>2016-05-09 1 cons</title></rect><rect fill="red" height="2.6" width="2.6" x="76.5" y="49.0"><title>2016-05-10 17 cons</title></rect><rect fill="#43ffe2" height="2.6" width="2.6" x="76.5" y="52.5"><title>2016-05-11 3 cons</title></rect><rect fill="#48f6ff" height="2.6" width="2.6" x="76.5" y="56.0"><title>2016-05-12 2 cons</title></rect><rect fill="#444444" height="2.6" width="2.6" x="76.5" y="59.5"><title>2016-05-13</title></rect><rect fill="#444444" height="2.6" width="2.6" x="76.5" y="63.0"><title>2016-05-14</title></rect><rect fill="#444444" height="2.6" width="2.6" x="76.5" y="66.5"><title>2016-05-15</title></rect><rect fill="#444444" height="2.6" width="2.6" x="80.0" y="45.5"><title>2016-05-16</title></rect><rect fill="#444444" height="2.6" width="2.6" x="80.0" y="49.0"><title>2016-05-17</title></rect><rect fill="#444444" height="2.6" width="2.6" x="80.0" y="52.5"><title>2016-05-18</title></rect><rect fill="#444444" height="2.6" width="2.6" x="80.0" y="56.0"><title>2016-05-19</title></rect><rect fill="#444444" height="2.6" width="2.6" x="80.0" y="59.5"><title>2016-05-20</title></rect><rect fill="#444444" height="2.6" width="2.6" x="80.0" y="63.0"><title>2016-05-21</title></rect><rect fill="#444444" height="2.6" width="2.6" x="80.0" y="66.5"><title>2016-05-22</title></rect><rect fill="#444444" height="2.6" width="2.6" x="83.5" y="45.5"><title>2016-05-23</title></rect><rect fill="#444444" height="2.6" width="2.6" x="83.5" y="49.0"><title>2016-05-24</title></rect><rect fill="#444444" height="2.6" width="2.6" x="83.5" y="52.5"><title>2016-05-25</title></rect><rect fill="#444444" height="2.6" width="2.6" x="83.5" y="56.0"><title>2016-05-26</title></rect><rect fill="#444444" height="2.6" width="2.6" x="83.5" y="59.5"><title>2016-05-27</title></rect><rect fill="#444444" height="2.6" width="2.6" x="83.5" y="63.0"><title>2016-05-28</title></rect><rect fill="#444444" height="2.6" width="2.6" x="83.5" y="66.5"><title>2016-05-29</title></rect><rect fill="#444444" height="2.6" width="2.6" x="87.0" y="45.5"><title>2016-05-30</title></rect><rect fill="#444444" height="2.6" width="2.6" x="87.0" y="49.0"><title>2016-05-31</title></rect><rect fill="#4dd2ff" height="2.6" width="2.6" x="87.0" y="52.5"><title>2016-06-01 1 cons</title></rect><rect fill="#444444" height="2.6" width="2.6" x="87.0" y="56.0"><title>2016-06-02</title></rect><rect fill="#444444" height="2.6" width="2.6" x="87.0" y="59.5"><title>2016-06-03</title></rect><rect fill="#444444" height="2.6" width="2.6" x="87.0" y="63.0"><title>2016-06-04</title></rect><rect fill="#444444" height="2.6" width="2.6" x="87.0" y="66.5"><title>2016-06-05</title></rect><rect fill="#444444" height="2.6" width="2.6" x="90.5" y="45.5"><title>2016-06-06</title></rect><rect fill="#444444" height="2.6" width="2.6" x="90.5" y="49.0"><title>2016-06-07</title></rect><rect fill="#444444" height="2.6" width="2.6" x="90.5" y="52.5"><title>2016-06-08</title></rect><rect fill="#444444" height="2.6" width="2.6" x="90.5" y="56.0"><title>2016-06-09</title></rect><rect fill="#444444" height="2.6" width="2.6" x="90.5" y="59.5"><title>2016-06-10</title></rect><rect fill="#444444" height="2.6" width="2.6" x="90.5" y="63.0"><title>2016-06-11</title></rect><rect fill="#4dd2ff" height="2.6" width="2.6" x="90.5" y="66.5"><title>2016-06-12 1 cons</title></rect><rect fill="#30ff37" height="2.6" width="2.6" x="94.0" y="45.5"><title>2016-06-13 7 cons</title></rect><rect fill="#ff6000" height="2.6" width="2.6" x="94.0" y="49.0"><title>2016-06-14 11 cons</title></rect><rect fill="#43ffe2" height="2.6" width="2.6" x="94.0" y="52.5"><title>2016-06-15 3 cons</title></rect><rect fill="#43ffe2" height="2.6" width="2.6" x="94.0" y="56.0"><title>2016-06-16 3 cons</title></rect><rect fill="#3fffba" height="2.6" width="2.6" x="94.0" y="59.5"><title>2016-06-17 4 cons</title></rect><rect fill="#4dd2ff" height="2.6" width="2.6" x="94.0" y="63.0"><title>2016-06-18 1 cons</title></rect><rect fill="#444444" height="2.6" width="2.6" x="94.0" y="66.5"><title>2016-06-19</title></rect><rect fill="#48f6ff" height="2.6" width="2.6" x="97.5" y="45.5"><title>2016-06-20 2 cons</title></rect><rect fill="#35ff65" height="2.6" width="2.6" x="97.5" y="49.0"><title>2016-06-21 6 cons</title></rect><rect fill="#35ff65" height="2.6" width="2.6" x="97.5" y="52.5"><title>2016-06-22 6 cons</title></rect><rect fill="#3aff90" height="2.6" width="2.6" x="97.5" y="56.0"><title>2016-06-23 5 cons</title></rect><rect fill="#3fffba" height="2.6" width="2.6" x="97.5" y="59.5"><title>2016-06-24 4 cons</title></rect><rect fill="#444444" height="2.6" width="2.6" x="97.5" y="63.0"><title>2016-06-25</title></rect><rect fill="#444444" height="2.6" width="2.6" x="97.5" y="66.5"><title>2016-06-26</title></rect><rect fill="#48f6ff" height="2.6" width="2.6" x="101.0" y="45.5"><title>2016-06-27 2 cons</title></rect><rect fill="#444444" height="2.6" width="2.6" x="101.0" y="49.0"><title>2016-06-28</title></rect><rect fill="#444444" height="2.6" width="2.6" x="101.0" y="52.5"><title>2016-06-29</title></rect><rect fill="#444444" height="2.6" width="2.6" x="101.0" y="56.0"><title>2016-06-30</title></rect><rect fill="#4dd2ff" height="2.6" width="2.6" x="101.0" y="59.5"><title>2016-07-01 1 cons</title></rect><rect fill="#444444" height="2.6" width="2.6" x="101.0" y="63.0"><title>2016-07-02</title></rect><rect fill="#444444" height="2.6" width="2.6" x="101.0" y="66.5"><title>2016-07-03</title></rect><rect fill="#444444" height="2.6" width="2.6" x="104.5" y="45.5"><title>2016-07-04</title></rect><rect fill="#4dd2ff" height="2.6" width="2.6" x="104.5" y="49.0"><title>2016-07-05 1 cons</title></rect><rect fill="#48f6ff" height="2.6" width="2.6" x="104.5" y="52.5"><title>2016-07-06 2 cons</title></rect><rect fill="#3fffba" height="2.6" width="2.6" x="104.5" y="56.0"><title>2016-07-07 4 cons</title></rect><rect fill="#35ff65" height="2.6" width="2.6" x="104.5" y="59.5"><title>2016-07-08 6 cons</title></rect><rect fill="#3fffba" height="2.6" width="2.6" x="104.5" y="63.0"><title>2016-07-09 4 cons</title></rect><rect fill="#4dd2ff" height="2.6" width="2.6" x="104.5" y="66.5"><title>2016-07-10 1 cons</title></rect><rect fill="#ff7f00" height="2.6" width="2.6" x="108.0" y="45.5"><title>2016-07-11 9 cons</title></rect><rect fill="#3fffba" height="2.6" width="2.6" x="108.0" y="49.0"><title>2016-07-12 4 cons</title></rect><rect fill="#3fffba" height="2.6" width="2.6" x="108.0" y="52.5"><title>2016-07-13 4 cons</title></rect><rect fill="#ff8f00" height="2.6" width="2.6" x="108.0" y="56.0"><title>2016-07-14 8 cons</title></rect><rect fill="#ff8f00" height="2.6" width="2.6" x="108.0" y="59.5"><title>2016-07-15 8 cons</title></rect><rect fill="#444444" height="2.6" width="2.6" x="108.0" y="63.0"><title>2016-07-16</title></rect><rect fill="#444444" height="2.6" width="2.6" x="108.0" y="66.5"><title>2016-07-17</title></rect><rect fill="#48f6ff" height="2.6" width="2.6" x="111.5" y="45.5"><title>2016-07-18 2 cons</title></rect><rect fill="#30ff37" height="2.6" width="2.6" x="111.5" y="49.0"><title>2016-07-19 7 cons</title></rect><rect fill="#48f6ff" height="2.6" width="2.6" x="111.5" y="52.5"><title>2016-07-20 2 cons</title></rect><rect fill="#4dd2ff" height="2.6" width="2.6" x="111.5" y="56.0"><title>2016-07-21 1 cons</title></rect><rect fill="#48f6ff" height="2.6" width="2.6" x="111.5" y="59.5"><title>2016-07-22 2 cons</title></rect><rect fill="#444444" height="2.6" width="2.6" x="111.5" y="63.0"><title>2016-07-23</title></rect><rect fill="#444444" height="2.6" width="2.6" x="111.5" y="66.5"><title>2016-07-24</title></rect><rect fill="#444444" height="2.6" width="2.6" x="115.0" y="45.5"><title>2016-07-25</title></rect><rect fill="#444444" height="2.6" width="2.6" x="115.0" y="49.0"><title>2016-07-26</title></rect><rect fill="#444444" height="2.6" width="2.6" x="115.0" y="52.5"><title>2016-07-27</title></rect><rect fill="#48f6ff" height="2.6" width="2.6" x="115.0" y="56.0"><title>2016-07-28 2 cons</title></rect><rect fill="#3fffba" height="2.6" width="2.6" x="115.0" y="59.5"><title>2016-07-29 4 cons</title></rect><rect fill="#444444" height="2.6" width="2.6" x="115.0" y="63.0"><title>2016-07-30</title></rect><rect fill="#444444" height="2.6" width="2.6" x="115.0" y="66.5"><title>2016-07-31</title></rect><rect fill="#4dd2ff" height="2.6" width="2.6" x="118.5" y="45.5"><title>2016-08-01 1 cons</title></rect><rect fill="#43ffe2" height="2.6" width="2.6" x="118.5" y="49.0"><title>2016-08-02 3 cons</title></rect><rect fill="#444444" height="2.6" width="2.6" x="118.5" y="52.5"><title>2016-08-03</title></rect><rect fill="#48f6ff" height="2.6" width="2.6" x="118.5" y="56.0"><title>2016-08-04 2 cons</title></rect><rect fill="#4dd2ff" height="2.6" width="2.6" x="118.5" y="59.5"><title>2016-08-05 1 cons</title></rect><rect fill="#444444" height="2.6" width="2.6" x="118.5" y="63.0"><title>2016-08-06</title></rect><rect fill="#444444" height="2.6" width="2.6" x="118.5" y="66.5"><title>2016-08-07</title></rect><rect fill="#35ff65" height="2.6" width="2.6" x="122.0" y="45.5"><title>2016-08-08 6 cons</title></rect><rect fill="#30ff37" height="2.6" width="2.6" x="122.0" y="49.0"><title>2016-08-09 7 cons</title></rect><rect fill="#444444" height="2.6" width="2.6" x="122.0" y="52.5"><title>2016-08-10</title></rect><rect fill="#3aff90" height="2.6" width="2.6" x="122.0" y="56.0"><title>2016-08-11 5 cons</title></rect><rect fill="#4dd2ff" height="2.6" width="2.6" x="122.0" y="59.5"><title>2016-08-12 1 cons</title></rect><rect fill="#444444" height="2.6" width="2.6" x="122.0" y="63.0"><title>2016-08-13</title></rect><rect fill="#4dd2ff" height="2.6" width="2.6" x="122.0" y="66.5"><title>2016-08-14 1 cons</title></rect><rect fill="#444444" height="2.6" width="2.6" x="125.5" y="45.5"><title>2016-08-15</title></rect><rect fill="#43ffe2" height="2.6" width="2.6" x="125.5" y="49.0"><title>2016-08-16 3 cons</title></rect><rect fill="#444444" height="2.6" width="2.6" x="125.5" y="52.5"><title>2016-08-17</title></rect><rect fill="#444444" height="2.6" width="2.6" x="125.5" y="56.0"><title>2016-08-18</title></rect><rect fill="#3fffba" height="2.6" width="2.6" x="125.5" y="59.5"><title>2016-08-19 4 cons</title></rect><rect fill="#444444" height="2.6" width="2.6" x="125.5" y="63.0"><title>2016-08-20</title></rect><rect fill="#444444" height="2.6" width="2.6" x="125.5" y="66.5"><title>2016-08-21</title></rect><rect fill="#444444" height="2.6" width="2.6" x="129.0" y="45.5"><title>2016-08-22</title></rect><rect fill="#48f6ff" height="2.6" width="2.6" x="129.0" y="49.0"><title>2016-08-23 2 cons</title></rect><rect fill="#3aff90" height="2.6" width="2.6" x="129.0" y="52.5"><title>2016-08-24 5 cons</title></rect><rect fill="#444444" height="2.6" width="2.6" x="129.0" y="56.0"><title>2016-08-25</title></rect><rect fill="#444444" height="2.6" width="2.6" x="129.0" y="59.5"><title>2016-08-26</title></rect><rect fill="#4dd2ff" height="2.6" width="2.6" x="129.0" y="63.0"><title>2016-08-27 1 cons</title></rect><rect fill="#444444" height="2.6" width="2.6" x="129.0" y="66.5"><title>2016-08-28</title></rect><rect fill="#48f6ff" height="2.6" width="2.6" x="132.5" y="45.5"><title>2016-08-29 2 cons</title></rect><rect fill="#48f6ff" height="2.6" width="2.6" x="132.5" y="49.0"><title>2016-08-30 2 cons</title></rect><rect fill="#444444" height="2.6" width="2.6" x="132.5" y="52.5"><title>2016-08-31</title></rect><rect fill="#444444" height="2.6" width="2.6" x="132.5" y="56.0"><title>2016-09-01</title></rect><rect fill="#444444" height="2.6" width="2.6" x="132.5" y="59.5"><title>2016-09-02</title></rect><rect fill="#4dd2ff" height="2.6" width="2.6" x="132.5" y="63.0"><title>2016-09-03 1 cons</title></rect><rect fill="#444444" height="2.6" width="2.6" x="132.5" y="66.5"><title>2016-09-04</title></rect><rect fill="#4dd2ff" height="2.6" width="2.6" x="136.0" y="45.5"><title>2016-09-05 1 cons</title></rect><rect fill="#444444" height="2.6" width="2.6" x="136.0" y="49.0"><title>2016-09-06</title></rect><rect fill="#4dd2ff" height="2.6" width="2.6" x="136.0" y="52.5"><title>2016-09-07 1 cons</title></rect><rect fill="#444444" height="2.6" width="2.6" x="136.0" y="56.0"><title>2016-09-08</title></rect><rect fill="#444444" height="2.6" width="2.6" x="136.0" y="59.5"><title>2016-09-09</title></rect><rect fill="#444444" height="2.6" width="2.6" x="136.0" y="63.0"><title>2016-09-10</title></rect><rect fill="#444444" height="2.6" width="2.6" x="136.0" y="66.5"><title>2016-09-11</title></rect><rect fill="#444444" height="2.6" width="2.6" x="139.5" y="45.5"><title>2016-09-12</title></rect><rect fill="#444444" height="2.6" width="2.6" x="139.5" y="49.0"><title>2016-09-13</title></rect><rect fill="#48f6ff" height="2.6" width="2.6" x="139.5" y="52.5"><title>2016-09-14 2 cons</title></rect><rect fill="#3aff90" height="2.6" width="2.6" x="139.5" y="56.0"><title>2016-09-15 5 cons</title></rect><rect fill="#444444" height="2.6" width="2.6" x="139.5" y="59.5"><title>2016-09-16</title></rect><rect fill="#444444" height="2.6" width="2.6" x="139.5" y="63.0"><title>2016-09-17</title></rect><rect fill="#4dd2ff" height="2.6" width="2.6" x="139.5" y="66.5"><title>2016-09-18 1 cons</title></rect><rect fill="#444444" height="2.6" width="2.6" x="143.0" y="45.5"><title>2016-09-19</title></rect><rect fill="#3aff90" height="2.6" width="2.6" x="143.0" y="49.0"><title>2016-09-20 5 cons</title></rect><rect fill="#43ffe2" height="2.6" width="2.6" x="143.0" y="52.5"><title>2016-09-21 3 cons</title></rect><rect fill="#444444" height="2.6" width="2.6" x="143.0" y="56.0"><title>2016-09-22</title></rect><rect fill="#444444" height="2.6" width="2.6" x="143.0" y="59.5"><title>2016-09-23</title></rect><rect fill="#43ffe2" height="2.6" width="2.6" x="143.0" y="63.0"><title>2016-09-24 3 cons</title></rect><rect fill="#444444" height="2.6" width="2.6" x="143.0" y="66.5"><title>2016-09-25</title></rect><rect fill="#48f6ff" height="2.6" width="2.6" x="146.5" y="45.5"><title>2016-09-26 2 cons</title></rect><rect fill="#48f6ff" height="2.6" width="2.6" x="146.5" y="49.0"><title>2016-09-27 2 cons</title></rect><rect fill="#444444" height="2.6" width="2.6" x="146.5" y="52.5"><title>2016-09-28</title></rect><rect fill="#444444" height="2.6" width="2.6" x="146.5" y="56.0"><title>2016-09-29</title></rect><rect fill="#48f6ff" height="2.6" width="2.6" x="146.5" y="59.5"><title>2016-09-30 2 cons</title></rect><rect fill="#444444" height="2.6" width="2.6" x="146.5" y="63.0"><title>2016-10-01</title></rect><rect fill="#48f6ff" height="2.6" width="2.6" x="146.5" y="66.5"><title>2016-10-02 2 cons</title></rect><rect fill="#444444" height="2.6" width="2.6" x="150.0" y="45.5"><title>2016-10-03</title></rect><rect fill="#48f6ff" height="2.6" width="2.6" x="150.0" y="49.0"><title>2016-10-04 2 cons</title></rect><rect fill="#3fffba" height="2.6" width="2.6" x="150.0" y="52.5"><title>2016-10-05 4 cons</title></rect><rect fill="#444444" height="2.6" width="2.6" x="150.0" y="56.0"><title>2016-10-06</title></rect><rect fill="#48f6ff" height="2.6" width="2.6" x="150.0" y="59.5"><title>2016-10-07 2 cons</title></rect><rect fill="#48f6ff" height="2.6" width="2.6" x="150.0" y="63.0"><title>2016-10-08 2 cons</title></rect><rect fill="#48f6ff" height="2.6" width="2.6" x="150.0" y="66.5"><title>2016-10-09 2 cons</title></rect><rect fill="#444444" height="2.6" width="2.6" x="153.5" y="45.5"><title>2016-10-10</title></rect><rect fill="#444444" height="2.6" width="2.6" x="153.5" y="49.0"><title>2016-10-11</title></rect><rect fill="#48f6ff" height="2.6" width="2.6" x="153.5" y="52.5"><title>2016-10-12 2 cons</title></rect><rect fill="#30ff37" height="2.6" width="2.6" x="153.5" y="56.0"><title>2016-10-13 7 cons</title></rect><rect fill="#48f6ff" height="2.6" width="2.6" x="153.5" y="59.5"><title>2016-10-14 2 cons</title></rect><rect fill="#48f6ff" height="2.6" width="2.6" x="153.5" y="63.0"><title>2016-10-15 2 cons</title></rect><rect fill="#48f6ff" height="2.6" width="2.6" x="153.5" y="66.5"><title>2016-10-16 2 cons</title></rect><rect fill="#3fffba" height="2.6" width="2.6" x="157.0" y="45.5"><title>2016-10-17 4 cons</title></rect><rect fill="#48f6ff" height="2.6" width="2.6" x="157.0" y="49.0"><title>2016-10-18 2 cons</title></rect><rect fill="#444444" height="2.6" width="2.6" x="157.0" y="52.5"><title>2016-10-19</title></rect><rect fill="#48f6ff" height="2.6" width="2.6" x="157.0" y="56.0"><title>2016-10-20 2 cons</title></rect><rect fill="#444444" height="2.6" width="2.6" x="157.0" y="59.5"><title>2016-10-21</title></rect><rect fill="#444444" height="2.6" width="2.6" x="157.0" y="63.0"><title>2016-10-22</title></rect><rect fill="#444444" height="2.6" width="2.6" x="157.0" y="66.5"><title>2016-10-23</title></rect><rect fill="#48f6ff" height="2.6" width="2.6" x="160.5" y="45.5"><title>2016-10-24 2 cons</title></rect><rect fill="#4dd2ff" height="2.6" width="2.6" x="160.5" y="49.0"><title>2016-10-25 1 cons</title></rect><rect fill="#444444" height="2.6" width="2.6" x="160.5" y="52.5"><title>2016-10-26</title></rect><rect fill="#444444" height="2.6" width="2.6" x="160.5" y="56.0"><title>2016-10-27</title></rect><rect fill="#444444" height="2.6" width="2.6" x="160.5" y="59.5"><title>2016-10-28</title></rect><rect fill="#4dd2ff" height="2.6" width="2.6" x="160.5" y="63.0"><title>2016-10-29 1 cons</title></rect><rect fill="#48f6ff" height="2.6" width="2.6" x="160.5" y="66.5"><title>2016-10-30 2 cons</title></rect><rect fill="#4dd2ff" height="2.6" width="2.6" x="164.0" y="45.5"><title>2016-10-31 1 cons</title></rect><rect fill="#444444" height="2.6" width="2.6" x="164.0" y="49.0"><title>2016-11-01</title></rect><rect fill="#444444" height="2.6" width="2.6" x="164.0" y="52.5"><title>2016-11-02</title></rect><rect fill="#48f6ff" height="2.6" width="2.6" x="164.0" y="56.0"><title>2016-11-03 2 cons</title></rect><rect fill="#444444" height="2.6" width="2.6" x="164.0" y="59.5"><title>2016-11-04</title></rect><rect fill="#444444" height="2.6" width="2.6" x="164.0" y="63.0"><title>2016-11-05</title></rect><rect fill="#444444" height="2.6" width="2.6" x="164.0" y="66.5"><title>2016-11-06</title></rect><rect fill="#48f6ff" height="2.6" width="2.6" x="167.5" y="45.5"><title>2016-11-07 2 cons</title></rect><rect fill="#444444" height="2.6" width="2.6" x="167.5" y="49.0"><title>2016-11-08</title></rect><rect fill="#444444" height="2.6" width="2.6" x="167.5" y="52.5"><title>2016-11-09</title></rect><rect fill="#444444" height="2.6" width="2.6" x="167.5" y="56.0"><title>2016-11-10</title></rect><rect fill="#444444" height="2.6" width="2.6" x="167.5" y="59.5"><title>2016-11-11</title></rect><rect fill="#444444" height="2.6" width="2.6" x="167.5" y="63.0"><title>2016-11-12</title></rect><rect fill="#444444" height="2.6" width="2.6" x="167.5" y="66.5"><title>2016-11-13</title></rect><rect fill="#444444" height="2.6" width="2.6" x="171.0" y="45.5"><title>2016-11-14</title></rect><rect fill="#444444" height="2.6" width="2.6" x="171.0" y="49.0"><title>2016-11-15</title></rect><rect fill="#48f6ff" height="2.6" width="2.6" x="171.0" y="52.5"><title>2016-11-16 2 cons</title></rect><rect fill="#444444" height="2.6" width="2.6" x="171.0" y="56.0"><title>2016-11-17</title></rect><rect fill="#444444" height="2.6" width="2.6" x="171.0" y="59.5"><title>2016-11-18</title></rect><rect fill="#444444" height="2.6" width="2.6" x="171.0" y="63.0"><title>2016-11-19</title></rect><rect fill="#444444" height="2.6" width="2.6" x="171.0" y="66.5"><title>2016-11-20</title></rect><rect fill="#444444" height="2.6" width="2.6" x="174.5" y="45.5"><title>2016-11-21</title></rect><rect fill="#4dd2ff" height="2.6" width="2.6" x="174.5" y="49.0"><title>2016-11-22 1 cons</title></rect><rect fill="#444444" height="2.6" width="2.6" x="174.5" y="52.5"><title>2016-11-23</title></rect><rect fill="#444444" height="2.6" width="2.6" x="174.5" y="56.0"><title>2016-11-24</title></rect><rect fill="#444444" height="2.6" width="2.6" x="174.5" y="59.5"><title>2016-11-25</title></rect><rect fill="#444444" height="2.6" width="2.6" x="174.5" y="63.0"><title>2016-11-26</title></rect><rect fill="#444444" height="2.6" width="2.6" x="174.5" y="66.5"><title>2016-11-27</title></rect><rect fill="#444444" height="2.6" width="2.6" x="178.0" y="45.5"><title>2016-11-28</title></rect><rect fill="#444444" height="2.6" width="2.6" x="178.0" y="49.0"><title>2016-11-29</title></rect><rect fill="#48f6ff" height="2.6" width="2.6" x="178.0" y="52.5"><title>2016-11-30 2 cons</title></rect><rect fill="#444444" height="2.6" width="2.6" x="178.0" y="56.0"><title>2016-12-01</title></rect><rect fill="#4dd2ff" height="2.6" width="2.6" x="178.0" y="59.5"><title>2016-12-02 1 cons</title></rect><rect fill="#4dd2ff" height="2.6" width="2.6" x="178.0" y="63.0"><title>2016-12-03 1 cons</title></rect><rect fill="#444444" height="2.6" width="2.6" x="178.0" y="66.5"><title>2016-12-04</title></rect><rect fill="#4dd2ff" height="2.6" width="2.6" x="181.5" y="45.5"><title>2016-12-05 1 cons</title></rect><rect fill="#48f6ff" height="2.6" width="2.6" x="181.5" y="49.0"><title>2016-12-06 2 cons</title></rect><rect fill="#444444" height="2.6" width="2.6" x="181.5" y="52.5"><title>2016-12-07</title></rect><rect fill="#444444" height="2.6" width="2.6" x="181.5" y="56.0"><title>2016-12-08</title></rect><rect fill="#3fffba" height="2.6" width="2.6" x="181.5" y="59.5"><title>2016-12-09 4 cons</title></rect><rect fill="#444444" height="2.6" width="2.6" x="181.5" y="63.0"><title>2016-12-10</title></rect><rect fill="#444444" height="2.6" width="2.6" x="181.5" y="66.5"><title>2016-12-11</title></rect><rect fill="#444444" height="2.6" width="2.6" x="185.0" y="45.5"><title>2016-12-12</title></rect><rect fill="#444444" height="2.6" width="2.6" x="185.0" y="49.0"><title>2016-12-13</title></rect><rect fill="#4dd2ff" height="2.6" width="2.6" x="185.0" y="52.5"><title>2016-12-14 1 cons</title></rect><rect fill="#444444" height="2.6" width="2.6" x="185.0" y="56.0"><title>2016-12-15</title></rect><rect fill="#444444" height="2.6" width="2.6" x="185.0" y="59.5"><title>2016-12-16</title></rect><rect fill="#444444" height="2.6" width="2.6" x="185.0" y="63.0"><title>2016-12-17</title></rect><rect fill="#4dd2ff" height="2.6" width="2.6" x="185.0" y="66.5"><title>2016-12-18 1 cons</title></rect><rect fill="#444444" height="2.6" width="2.6" x="188.5" y="45.5"><title>2016-12-19</title></rect><rect fill="#444444" height="2.6" width="2.6" x="188.5" y="49.0"><title>2016-12-20</title></rect><rect fill="#444444" height="2.6" width="2.6" x="188.5" y="52.5"><title>2016-12-21</title></rect><rect fill="#444444" height="2.6" width="2.6" x="188.5" y="56.0"><title>2016-12-22</title></rect><rect fill="#444444" height="2.6" width="2.6" x="188.5" y="59.5"><title>2016-12-23</title></rect><rect fill="#444444" height="2.6" width="2.6" x="188.5" y="63.0"><title>2016-12-24</title></rect><rect fill="#444444" height="2.6" width="2.6" x="188.5" y="66.5"><title>2016-12-25</title></rect><rect fill="#444444" height="2.6" width="2.6" x="192.0" y="45.5"><title>2016-12-26</title></rect><rect fill="#444444" height="2.6" width="2.6" x="192.0" y="49.0"><title>2016-12-27</title></rect><rect fill="#444444" height="2.6" width="2.6" x="192.0" y="52.5"><title>2016-12-28</title></rect><rect fill="#444444" height="2.6" width="2.6" x="192.0" y="56.0"><title>2016-12-29</title></rect><rect fill="#444444" height="2.6" width="2.6" x="192.0" y="59.5"><title>2016-12-30</title></rect><rect fill="#444444" height="2.6" width="2.6" x="192.0" y="63.0"><title>2016-12-31</title></rect></svg>