<?xml version="1.0" encoding="utf-8" ?>
<svg baseProfile="full" height="78mm" version="1.1" viewBox="0,0,200,78" width="200mm" xmlns="http://www.w3.org/2000/svg" xmlns:ev="http://www.w3.org/2001/xml-events" xmlns:xlink="http://www.w3.org/1999/xlink"><defs /><rect fill="#222222" height="78" width="200" x="0" y="0" /><text fill="#FFFFFF" style="font-size:12px; font-family:Arial; font-weight:bold;" x="10" y="20">rip-tyang apple_health</text><text dominant-baseline="hanging" fill="#FFFFFF" style="font-size:10.0px; font-family:Arial;" x="10" y="30">2023</text><text dominant-baseline="hanging" fill="#FFFFFF" style="font-size:4.125px; font-family:Arial;" x="175" y="35">106811 kCal</text><text fill="#FFFFFF" style="font-size:2.5px; font-family:Arial" x="10.0" y="44">Jan</text><text fill="#FFFFFF" style="font-size:2.5px; font-family:Arial" x="25.5" y="44">Feb</text><text fill="#FFFFFF" style="font-size:2.5px; font-family:Arial" x="41.0" y="44">Mar</text><text fill="#FFFFFF" style="font-size:2.5px; font-family:Arial" x="56.5" y="44">Apr</text><text fill="#FFFFFF" style="font-size:2.5px; font-family:Arial" x="72.0" y="44">May</text><text fill="#FFFFFF" style="font-size:2.5px; font-family:Arial" x="87.5" y="44">Jun</text><text fill="#FFFFFF" style="font-size:2.5px; font-family:Arial" x="103.0" y="44">Jul</text><text fill="#FFFFFF" style="font-size:2.5px; font-family:Arial" x="118.5" y="44">Aug</text><text fill="#FFFFFF" style="font-size:2.5px; font-family:Arial" x="134.0" y="44">Sep</text><text fill="#FFFFFF" style="font-size:2.5px; font-family:Arial" x="149.5" y="44">Oct</text><text fill="#FFFFFF" style="font-size:2.5px; font-family:Arial" x="165.0" y="44">Nov</text><text fill="#FFFFFF" style="font-size:2.5px; font-family:Arial" x="180.5" y="44">Dec</text><rect fill="#fff000" height="2.6" width="2.6" x="10.0" y="45.5"><title>2022-12-26 695.0260000000011 kCal</title></rect><rect fill="#ffee00" height="2.6" width="2.6" x="10.0" y="49.0"><title>2022-12-27 753.5179999999964 kCal</title></rect><rect fill="red" height="2.6" width="2.6" x="10.0" y="52.5"><title>2022-12-28 1762.3760000000132 kCal</title></rect><rect fill="red" height="2.6" width="2.6" x="10.0" y="56.0"><title>2022-12-29 1481.8450000000098 kCal</title></rect><rect fill="red" height="2.6" width="2.6" x="10.0" y="59.5"><title>2022-12-30 1359.842000000003 kCal</title></rect><rect fill="#49edff" height="2.6" width="2.6" x="10.0" y="63.0"><title>2022-12-31 550.2559999999986 kCal</title></rect><rect fill="red" height="2.6" width="2.6" x="10.0" y="66.5"><title>2023-01-01 4148.22500000002 kCal</title></rect><rect fill="#ffef00" height="2.6" width="2.6" x="13.5" y="45.5"><title>2023-01-02 703.258999999994 kCal</title></rect><rect fill="red" height="2.6" width="2.6" x="13.5" y="49.0"><title>2023-01-03 1176.2169999999905 kCal</title></rect><rect fill="#49eeff" height="2.6" width="2.6" x="13.5" y="52.5"><title>2023-01-04 563.8989999999994 kCal</title></rect><rect fill="#fff200" height="2.6" width="2.6" x="13.5" y="56.0"><title>2023-01-05 576.9079999999942 kCal</title></rect><rect fill="#fff100" height="2.6" width="2.6" x="13.5" y="59.5"><title>2023-01-06 628.0779999999886 kCal</title></rect><rect fill="red" height="2.6" width="2.6" x="13.5" y="63.0"><title>2023-01-07 1221.317000000001 kCal</title></rect><rect fill="#4aecff" height="2.6" width="2.6" x="13.5" y="66.5"><title>2023-01-08 517.7650000000002 kCal</title></rect><rect fill="red" height="2.6" width="2.6" x="17.0" y="45.5"><title>2023-01-09 1038.2630000000008 kCal</title></rect><rect fill="#fff000" height="2.6" width="2.6" x="17.0" y="49.0"><title>2023-01-10 698.785999999989 kCal</title></rect><rect fill="#4ae6ff" height="2.6" width="2.6" x="17.0" y="52.5"><title>2023-01-11 397.88100000000026 kCal</title></rect><rect fill="#4ae6ff" height="2.6" width="2.6" x="17.0" y="56.0"><title>2023-01-12 405.60699999999986 kCal</title></rect><rect fill="#4be2ff" height="2.6" width="2.6" x="17.0" y="59.5"><title>2023-01-13 319.6309999999997 kCal</title></rect><rect fill="red" height="2.6" width="2.6" x="17.0" y="63.0"><title>2023-01-14 2388.070000000045 kCal</title></rect><rect fill="#ffee00" height="2.6" width="2.6" x="17.0" y="66.5"><title>2023-01-15 781.1140000000006 kCal</title></rect><rect fill="#ffef00" height="2.6" width="2.6" x="20.5" y="45.5"><title>2023-01-16 724.672999999993 kCal</title></rect><rect fill="#4be4ff" height="2.6" width="2.6" x="20.5" y="49.0"><title>2023-01-17 366.7669999999999 kCal</title></rect><rect fill="#49eeff" height="2.6" width="2.6" x="20.5" y="52.5"><title>2023-01-18 557.0999999999999 kCal</title></rect><rect fill="#4ae7ff" height="2.6" width="2.6" x="20.5" y="56.0"><title>2023-01-19 425.9829999999997 kCal</title></rect><rect fill="#49eeff" height="2.6" width="2.6" x="20.5" y="59.5"><title>2023-01-20 561.4210000000007 kCal</title></rect><rect fill="red" height="2.6" width="2.6" x="20.5" y="63.0"><title>2023-01-21 838.3359999999935 kCal</title></rect><rect fill="red" height="2.6" width="2.6" x="20.5" y="66.5"><title>2023-01-22 1195.7639999999947 kCal</title></rect><rect fill="red" height="2.6" width="2.6" x="24.0" y="45.5"><title>2023-01-23 1574.9200000000035 kCal</title></rect><rect fill="red" height="2.6" width="2.6" x="24.0" y="49.0"><title>2023-01-24 1786.772 kCal</title></rect><rect fill="red" height="2.6" width="2.6" x="24.0" y="52.5"><title>2023-01-25 2375.8959999999997 kCal</title></rect><rect fill="red" height="2.6" width="2.6" x="24.0" y="56.0"><title>2023-01-26 1202.4409999999855 kCal</title></rect><rect fill="red" height="2.6" width="2.6" x="24.0" y="59.5"><title>2023-01-27 1698.5770000000127 kCal</title></rect><rect fill="red" height="2.6" width="2.6" x="24.0" y="63.0"><title>2023-01-28 2244.8920000000358 kCal</title></rect><rect fill="#fff200" height="2.6" width="2.6" x="24.0" y="66.5"><title>2023-01-29 576.1209999999999 kCal</title></rect><rect fill="red" height="2.6" width="2.6" x="27.5" y="45.5"><title>2023-01-30 1034.3589999999938 kCal</title></rect><rect fill="#fff200" height="2.6" width="2.6" x="27.5" y="49.0"><title>2023-01-31 575.1900000000003 kCal</title></rect><rect fill="red" height="2.6" width="2.6" x="27.5" y="52.5"><title>2023-02-01 1175.241999999992 kCal</title></rect><rect fill="red" height="2.6" width="2.6" x="27.5" y="56.0"><title>2023-02-02 1529.4889999999991 kCal</title></rect><rect fill="red" height="2.6" width="2.6" x="27.5" y="59.5"><title>2023-02-03 1718.373999999994 kCal</title></rect><rect fill="red" height="2.6" width="2.6" x="27.5" y="63.0"><title>2023-02-04 1590.1999999999884 kCal</title></rect><rect fill="red" height="2.6" width="2.6" x="27.5" y="66.5"><title>2023-02-05 1582.935000000001 kCal</title></rect><rect fill="red" height="2.6" width="2.6" x="31.0" y="45.5"><title>2023-02-06 1930.8380000000018 kCal</title></rect><rect fill="#ffee00" height="2.6" width="2.6" x="31.0" y="49.0"><title>2023-02-07 750.734000000027 kCal</title></rect><rect fill="red" height="2.6" width="2.6" x="31.0" y="52.5"><title>2023-02-08 1233.5399999999906 kCal</title></rect><rect fill="red" height="2.6" width="2.6" x="31.0" y="56.0"><title>2023-02-09 808.9749999999995 kCal</title></rect><rect fill="red" height="2.6" width="2.6" x="31.0" y="59.5"><title>2023-02-10 2014.739999999993 kCal</title></rect><rect fill="red" height="2.6" width="2.6" x="31.0" y="63.0"><title>2023-02-11 1214.8910000000012 kCal</title></rect><rect fill="#4aeaff" height="2.6" width="2.6" x="31.0" y="66.5"><title>2023-02-12 490.03800000000183 kCal</title></rect><rect fill="red" height="2.6" width="2.6" x="34.5" y="45.5"><title>2023-02-13 3474.3719999999876 kCal</title></rect><rect fill="#4be4ff" height="2.6" width="2.6" x="34.5" y="49.0"><title>2023-02-14 370.87799999999953 kCal</title></rect><rect fill="red" height="2.6" width="2.6" x="34.5" y="52.5"><title>2023-02-15 2455.9169999999935 kCal</title></rect><rect fill="red" height="2.6" width="2.6" x="34.5" y="56.0"><title>2023-02-16 1924.7470000000308 kCal</title></rect><rect fill="red" height="2.6" width="2.6" x="34.5" y="59.5"><title>2023-02-17 882.2140000000081 kCal</title></rect><rect fill="red" height="2.6" width="2.6" x="34.5" y="63.0"><title>2023-02-18 2748.789000000033 kCal</title></rect><rect fill="red" height="2.6" width="2.6" x="34.5" y="66.5"><title>2023-02-19 1451.0120000000286 kCal</title></rect><rect fill="red" height="2.6" width="2.6" x="38.0" y="45.5"><title>2023-02-20 2811.3530000000064 kCal</title></rect><rect fill="#ffee00" height="2.6" width="2.6" x="38.0" y="49.0"><title>2023-02-21 747.1539999999994 kCal</title></rect><rect fill="red" height="2.6" width="2.6" x="38.0" y="52.5"><title>2023-02-22 1686.8130000000172 kCal</title></rect><rect fill="#ffef00" height="2.6" width="2.6" x="38.0" y="56.0"><title>2023-02-23 727.8640000000051 kCal</title></rect><rect fill="#4aecff" height="2.6" width="2.6" x="38.0" y="59.5"><title>2023-02-24 520.3779999999992 kCal</title></rect><rect fill="red" height="2.6" width="2.6" x="38.0" y="63.0"><title>2023-02-25 2400.359000000114 kCal</title></rect><rect fill="red" height="2.6" width="2.6" x="38.0" y="66.5"><title>2023-02-26 2635.659000000072 kCal</title></rect><rect fill="red" height="2.6" width="2.6" x="41.5" y="45.5"><title>2023-02-27 3055.5999999999867 kCal</title></rect><rect fill="#4ae4ff" height="2.6" width="2.6" x="41.5" y="49.0"><title>2023-02-28 375.2389999999997 kCal</title></rect><rect fill="red" height="2.6" width="2.6" x="41.5" y="52.5"><title>2023-03-01 816.6999999999969 kCal</title></rect><rect fill="red" height="2.6" width="2.6" x="41.5" y="56.0"><title>2023-03-02 1896.3350000000123 kCal</title></rect><rect fill="#fff100" height="2.6" width="2.6" x="41.5" y="59.5"><title>2023-03-03 653.3160000000026 kCal</title></rect><rect fill="red" height="2.6" width="2.6" x="41.5" y="63.0"><title>2023-03-04 3871.639999999855 kCal</title></rect><rect fill="#49ecff" height="2.6" width="2.6" x="41.5" y="66.5"><title>2023-03-05 525.9099999999988 kCal</title></rect><rect fill="red" height="2.6" width="2.6" x="45.0" y="45.5"><title>2023-03-06 2779.351999999989 kCal</title></rect><rect fill="#4aeaff" height="2.6" width="2.6" x="45.0" y="49.0"><title>2023-03-07 483.0420000000002 kCal</title></rect><rect fill="red" height="2.6" width="2.6" x="45.0" y="52.5"><title>2023-03-08 882.0350000000029 kCal</title></rect><rect fill="#4ae7ff" height="2.6" width="2.6" x="45.0" y="56.0"><title>2023-03-09 420.27399999999966 kCal</title></rect><rect fill="red" height="2.6" width="2.6" x="45.0" y="59.5"><title>2023-03-10 1016.1020000000019 kCal</title></rect><rect fill="#fff200" height="2.6" width="2.6" x="45.0" y="63.0"><title>2023-03-11 577.1299999999998 kCal</title></rect><rect fill="red" height="2.6" width="2.6" x="45.0" y="66.5"><title>2023-03-12 1688.1889999999992 kCal</title></rect><rect fill="red" height="2.6" width="2.6" x="48.5" y="45.5"><title>2023-03-13 2007.2359999999976 kCal</title></rect><rect fill="red" height="2.6" width="2.6" x="48.5" y="49.0"><title>2023-03-14 1652.0969999999863 kCal</title></rect><rect fill="red" height="2.6" width="2.6" x="48.5" y="52.5"><title>2023-03-15 1114.170000000004 kCal</title></rect><rect fill="#4ae8ff" height="2.6" width="2.6" x="48.5" y="56.0"><title>2023-03-16 443.5139999999998 kCal</title></rect><rect fill="red" height="2.6" width="2.6" x="48.5" y="59.5"><title>2023-03-17 1616.27499999999 kCal</title></rect><rect fill="red" height="2.6" width="2.6" x="48.5" y="63.0"><title>2023-03-18 2084.602999999975 kCal</title></rect><rect fill="#fff000" height="2.6" width="2.6" x="48.5" y="66.5"><title>2023-03-19 691.0139999999997 kCal</title></rect><rect fill="#4ae5ff" height="2.6" width="2.6" x="52.0" y="45.5"><title>2023-03-20 381.54899999999986 kCal</title></rect><rect fill="red" height="2.6" width="2.6" x="52.0" y="49.0"><title>2023-03-21 1684.510999999991 kCal</title></rect><rect fill="red" height="2.6" width="2.6" x="52.0" y="52.5"><title>2023-03-22 1680.9060000000018 kCal</title></rect><rect fill="#444444" height="2.6" width="2.6" x="52.0" y="56.0"><title>2023-03-23</title></rect><rect fill="#444444" height="2.6" width="2.6" x="52.0" y="59.5"><title>2023-03-24</title></rect><rect fill="#444444" height="2.6" width="2.6" x="52.0" y="63.0"><title>2023-03-25</title></rect><rect fill="#444444" height="2.6" width="2.6" x="52.0" y="66.5"><title>2023-03-26</title></rect><rect fill="#444444" height="2.6" width="2.6" x="55.5" y="45.5"><title>2023-03-27</title></rect><rect fill="#444444" height="2.6" width="2.6" x="55.5" y="49.0"><title>2023-03-28</title></rect><rect fill="#4bddff" height="2.6" width="2.6" x="55.5" y="52.5"><title>2023-03-29 233.0 kCal</title></rect><rect fill="#444444" height="2.6" width="2.6" x="55.5" y="56.0"><title>2023-03-30</title></rect><rect fill="#444444" height="2.6" width="2.6" x="55.5" y="59.5"><title>2023-03-31</title></rect><rect fill="#444444" height="2.6" width="2.6" x="55.5" y="63.0"><title>2023-04-01</title></rect><rect fill="#444444" height="2.6" width="2.6" x="55.5" y="66.5"><title>2023-04-02</title></rect><rect fill="#444444" height="2.6" width="2.6" x="59.0" y="45.5"><title>2023-04-03</title></rect><rect fill="#444444" height="2.6" width="2.6" x="59.0" y="49.0"><title>2023-04-04</title></rect><rect fill="#444444" height="2.6" width="2.6" x="59.0" y="52.5"><title>2023-04-05</title></rect><rect fill="#444444" height="2.6" width="2.6" x="59.0" y="56.0"><title>2023-04-06</title></rect><rect fill="#444444" height="2.6" width="2.6" x="59.0" y="59.5"><title>2023-04-07</title></rect><rect fill="#444444" height="2.6" width="2.6" x="59.0" y="63.0"><title>2023-04-08</title></rect><rect fill="#444444" height="2.6" width="2.6" x="59.0" y="66.5"><title>2023-04-09</title></rect><rect fill="#444444" height="2.6" width="2.6" x="62.5" y="45.5"><title>2023-04-10</title></rect><rect fill="#444444" height="2.6" width="2.6" x="62.5" y="49.0"><title>2023-04-11</title></rect><rect fill="#444444" height="2.6" width="2.6" x="62.5" y="52.5"><title>2023-04-12</title></rect><rect fill="#444444" height="2.6" width="2.6" x="62.5" y="56.0"><title>2023-04-13</title></rect><rect fill="#444444" height="2.6" width="2.6" x="62.5" y="59.5"><title>2023-04-14</title></rect><rect fill="#444444" height="2.6" width="2.6" x="62.5" y="63.0"><title>2023-04-15</title></rect><rect fill="#444444" height="2.6" width="2.6" x="62.5" y="66.5"><title>2023-04-16</title></rect><rect fill="#444444" height="2.6" width="2.6" x="66.0" y="45.5"><title>2023-04-17</title></rect><rect fill="#444444" height="2.6" width="2.6" x="66.0" y="49.0"><title>2023-04-18</title></rect><rect fill="#444444" height="2.6" width="2.6" x="66.0" y="52.5"><title>2023-04-19</title></rect><rect fill="#444444" height="2.6" width="2.6" x="66.0" y="56.0"><title>2023-04-20</title></rect><rect fill="#444444" height="2.6" width="2.6" x="66.0" y="59.5"><title>2023-04-21</title></rect><rect fill="#444444" height="2.6" width="2.6" x="66.0" y="63.0"><title>2023-04-22</title></rect><rect fill="#444444" height="2.6" width="2.6" x="66.0" y="66.5"><title>2023-04-23</title></rect><rect fill="#444444" height="2.6" width="2.6" x="69.5" y="45.5"><title>2023-04-24</title></rect><rect fill="#444444" height="2.6" width="2.6" x="69.5" y="49.0"><title>2023-04-25</title></rect><rect fill="#444444" height="2.6" width="2.6" x="69.5" y="52.5"><title>2023-04-26</title></rect><rect fill="#444444" height="2.6" width="2.6" x="69.5" y="56.0"><title>2023-04-27</title></rect><rect fill="#444444" height="2.6" width="2.6" x="69.5" y="59.5"><title>2023-04-28</title></rect><rect fill="#444444" height="2.6" width="2.6" x="69.5" y="63.0"><title>2023-04-29</title></rect><rect fill="#444444" height="2.6" width="2.6" x="69.5" y="66.5"><title>2023-04-30</title></rect><rect fill="#444444" height="2.6" width="2.6" x="73.0" y="45.5"><title>2023-05-01</title></rect><rect fill="#444444" height="2.6" width="2.6" x="73.0" y="49.0"><title>2023-05-02</title></rect><rect fill="#444444" height="2.6" width="2.6" x="73.0" y="52.5"><title>2023-05-03</title></rect><rect fill="#444444" height="2.6" width="2.6" x="73.0" y="56.0"><title>2023-05-04</title></rect><rect fill="#444444" height="2.6" width="2.6" x="73.0" y="59.5"><title>2023-05-05</title></rect><rect fill="#444444" height="2.6" width="2.6" x="73.0" y="63.0"><title>2023-05-06</title></rect><rect fill="#444444" height="2.6" width="2.6" x="73.0" y="66.5"><title>2023-05-07</title></rect><rect fill="#444444" height="2.6" width="2.6" x="76.5" y="45.5"><title>2023-05-08</title></rect><rect fill="#444444" height="2.6" width="2.6" x="76.5" y="49.0"><title>2023-05-09</title></rect><rect fill="#444444" height="2.6" width="2.6" x="76.5" y="52.5"><title>2023-05-10</title></rect><rect fill="#444444" height="2.6" width="2.6" x="76.5" y="56.0"><title>2023-05-11</title></rect><rect fill="#444444" height="2.6" width="2.6" x="76.5" y="59.5"><title>2023-05-12</title></rect><rect fill="#444444" height="2.6" width="2.6" x="76.5" y="63.0"><title>2023-05-13</title></rect><rect fill="#444444" height="2.6" width="2.6" x="76.5" y="66.5"><title>2023-05-14</title></rect><rect fill="#444444" height="2.6" width="2.6" x="80.0" y="45.5"><title>2023-05-15</title></rect><rect fill="#444444" height="2.6" width="2.6" x="80.0" y="49.0"><title>2023-05-16</title></rect><rect fill="#444444" height="2.6" width="2.6" x="80.0" y="52.5"><title>2023-05-17</title></rect><rect fill="#444444" height="2.6" width="2.6" x="80.0" y="56.0"><title>2023-05-18</title></rect><rect fill="#444444" height="2.6" width="2.6" x="80.0" y="59.5"><title>2023-05-19</title></rect><rect fill="#444444" height="2.6" width="2.6" x="80.0" y="63.0"><title>2023-05-20</title></rect><rect fill="#444444" height="2.6" width="2.6" x="80.0" y="66.5"><title>2023-05-21</title></rect><rect fill="#444444" height="2.6" width="2.6" x="83.5" y="45.5"><title>2023-05-22</title></rect><rect fill="#444444" height="2.6" width="2.6" x="83.5" y="49.0"><title>2023-05-23</title></rect><rect fill="#444444" height="2.6" width="2.6" x="83.5" y="52.5"><title>2023-05-24</title></rect><rect fill="#444444" height="2.6" width="2.6" x="83.5" y="56.0"><title>2023-05-25</title></rect><rect fill="#444444" height="2.6" width="2.6" x="83.5" y="59.5"><title>2023-05-26</title></rect><rect fill="#444444" height="2.6" width="2.6" x="83.5" y="63.0"><title>2023-05-27</title></rect><rect fill="#444444" height="2.6" width="2.6" x="83.5" y="66.5"><title>2023-05-28</title></rect><rect fill="#444444" height="2.6" width="2.6" x="87.0" y="45.5"><title>2023-05-29</title></rect><rect fill="#444444" height="2.6" width="2.6" x="87.0" y="49.0"><title>2023-05-30</title></rect><rect fill="#444444" height="2.6" width="2.6" x="87.0" y="52.5"><title>2023-05-31</title></rect><rect fill="#444444" height="2.6" width="2.6" x="87.0" y="56.0"><title>2023-06-01</title></rect><rect fill="#444444" height="2.6" width="2.6" x="87.0" y="59.5"><title>2023-06-02</title></rect><rect fill="#444444" height="2.6" width="2.6" x="87.0" y="63.0"><title>2023-06-03</title></rect><rect fill="#444444" height="2.6" width="2.6" x="87.0" y="66.5"><title>2023-06-04</title></rect><rect fill="#444444" height="2.6" width="2.6" x="90.5" y="45.5"><title>2023-06-05</title></rect><rect fill="#444444" height="2.6" width="2.6" x="90.5" y="49.0"><title>2023-06-06</title></rect><rect fill="#444444" height="2.6" width="2.6" x="90.5" y="52.5"><title>2023-06-07</title></rect><rect fill="#444444" height="2.6" width="2.6" x="90.5" y="56.0"><title>2023-06-08</title></rect><rect fill="#444444" height="2.6" width="2.6" x="90.5" y="59.5"><title>2023-06-09</title></rect><rect fill="#444444" height="2.6" width="2.6" x="90.5" y="63.0"><title>2023-06-10</title></rect><rect fill="#444444" height="2.6" width="2.6" x="90.5" y="66.5"><title>2023-06-11</title></rect><rect fill="#444444" height="2.6" width="2.6" x="94.0" y="45.5"><title>2023-06-12</title></rect><rect fill="#444444" height="2.6" width="2.6" x="94.0" y="49.0"><title>2023-06-13</title></rect><rect fill="#444444" height="2.6" width="2.6" x="94.0" y="52.5"><title>2023-06-14</title></rect><rect fill="#444444" height="2.6" width="2.6" x="94.0" y="56.0"><title>2023-06-15</title></rect><rect fill="#444444" height="2.6" width="2.6" x="94.0" y="59.5"><title>2023-06-16</title></rect><rect fill="#444444" height="2.6" width="2.6" x="94.0" y="63.0"><title>2023-06-17</title></rect><rect fill="#444444" height="2.6" width="2.6" x="94.0" y="66.5"><title>2023-06-18</title></rect><rect fill="#444444" height="2.6" width="2.6" x="97.5" y="45.5"><title>2023-06-19</title></rect><rect fill="#444444" height="2.6" width="2.6" x="97.5" y="49.0"><title>2023-06-20</title></rect><rect fill="#444444" height="2.6" width="2.6" x="97.5" y="52.5"><title>2023-06-21</title></rect><rect fill="#444444" height="2.6" width="2.6" x="97.5" y="56.0"><title>2023-06-22</title></rect><rect fill="#444444" height="2.6" width="2.6" x="97.5" y="59.5"><title>2023-06-23</title></rect><rect fill="#444444" height="2.6" width="2.6" x="97.5" y="63.0"><title>2023-06-24</title></rect><rect fill="#444444" height="2.6" width="2.6" x="97.5" y="66.5"><title>2023-06-25</title></rect><rect fill="#444444" height="2.6" width="2.6" x="101.0" y="45.5"><title>2023-06-26</title></rect><rect fill="#444444" height="2.6" width="2.6" x="101.0" y="49.0"><title>2023-06-27</title></rect><rect fill="#444444" height="2.6" width="2.6" x="101.0" y="52.5"><title>2023-06-28</title></rect><rect fill="#444444" height="2.6" width="2.6" x="101.0" y="56.0"><title>2023-06-29</title></rect><rect fill="#444444" height="2.6" width="2.6" x="101.0" y="59.5"><title>2023-06-30</title></rect><rect fill="#444444" height="2.6" width="2.6" x="101.0" y="63.0"><title>2023-07-01</title></rect><rect fill="#444444" height="2.6" width="2.6" x="101.0" y="66.5"><title>2023-07-02</title></rect><rect fill="#444444" height="2.6" width="2.6" x="104.5" y="45.5"><title>2023-07-03</title></rect><rect fill="#444444" height="2.6" width="2.6" x="104.5" y="49.0"><title>2023-07-04</title></rect><rect fill="#444444" height="2.6" width="2.6" x="104.5" y="52.5"><title>2023-07-05</title></rect><rect fill="#444444" height="2.6" width="2.6" x="104.5" y="56.0"><title>2023-07-06</title></rect><rect fill="#444444" height="2.6" width="2.6" x="104.5" y="59.5"><title>2023-07-07</title></rect><rect fill="#444444" height="2.6" width="2.6" x="104.5" y="63.0"><title>2023-07-08</title></rect><rect fill="#444444" height="2.6" width="2.6" x="104.5" y="66.5"><title>2023-07-09</title></rect><rect fill="#444444" height="2.6" width="2.6" x="108.0" y="45.5"><title>2023-07-10</title></rect><rect fill="#444444" height="2.6" width="2.6" x="108.0" y="49.0"><title>2023-07-11</title></rect><rect fill="#444444" height="2.6" width="2.6" x="108.0" y="52.5"><title>2023-07-12</title></rect><rect fill="#444444" height="2.6" width="2.6" x="108.0" y="56.0"><title>2023-07-13</title></rect><rect fill="#444444" height="2.6" width="2.6" x="108.0" y="59.5"><title>2023-07-14</title></rect><rect fill="#444444" height="2.6" width="2.6" x="108.0" y="63.0"><title>2023-07-15</title></rect><rect fill="#444444" height="2.6" width="2.6" x="108.0" y="66.5"><title>2023-07-16</title></rect><rect fill="#444444" height="2.6" width="2.6" x="111.5" y="45.5"><title>2023-07-17</title></rect><rect fill="#444444" height="2.6" width="2.6" x="111.5" y="49.0"><title>2023-07-18</title></rect><rect fill="#444444" height="2.6" width="2.6" x="111.5" y="52.5"><title>2023-07-19</title></rect><rect fill="#444444" height="2.6" width="2.6" x="111.5" y="56.0"><title>2023-07-20</title></rect><rect fill="#444444" height="2.6" width="2.6" x="111.5" y="59.5"><title>2023-07-21</title></rect><rect fill="#444444" height="2.6" width="2.6" x="111.5" y="63.0"><title>2023-07-22</title></rect><rect fill="#444444" height="2.6" width="2.6" x="111.5" y="66.5"><title>2023-07-23</title></rect><rect fill="#444444" height="2.6" width="2.6" x="115.0" y="45.5"><title>2023-07-24</title></rect><rect fill="#444444" height="2.6" width="2.6" x="115.0" y="49.0"><title>2023-07-25</title></rect><rect fill="#444444" height="2.6" width="2.6" x="115.0" y="52.5"><title>2023-07-26</title></rect><rect fill="#444444" height="2.6" width="2.6" x="115.0" y="56.0"><title>2023-07-27</title></rect><rect fill="#444444" height="2.6" width="2.6" x="115.0" y="59.5"><title>2023-07-28</title></rect><rect fill="#444444" height="2.6" width="2.6" x="115.0" y="63.0"><title>2023-07-29</title></rect><rect fill="#444444" height="2.6" width="2.6" x="115.0" y="66.5"><title>2023-07-30</title></rect><rect fill="#444444" height="2.6" width="2.6" x="118.5" y="45.5"><title>2023-07-31</title></rect><rect fill="#444444" height="2.6" width="2.6" x="118.5" y="49.0"><title>2023-08-01</title></rect><rect fill="#444444" height="2.6" width="2.6" x="118.5" y="52.5"><title>2023-08-02</title></rect><rect fill="#444444" height="2.6" width="2.6" x="118.5" y="56.0"><title>2023-08-03</title></rect><rect fill="#444444" height="2.6" width="2.6" x="118.5" y="59.5"><title>2023-08-04</title></rect><rect fill="#444444" height="2.6" width="2.6" x="118.5" y="63.0"><title>2023-08-05</title></rect><rect fill="#444444" height="2.6" width="2.6" x="118.5" y="66.5"><title>2023-08-06</title></rect><rect fill="#444444" height="2.6" width="2.6" x="122.0" y="45.5"><title>2023-08-07</title></rect><rect fill="#444444" height="2.6" width="2.6" x="122.0" y="49.0"><title>2023-08-08</title></rect><rect fill="#444444" height="2.6" width="2.6" x="122.0" y="52.5"><title>2023-08-09</title></rect><rect fill="#444444" height="2.6" width="2.6" x="122.0" y="56.0"><title>2023-08-10</title></rect><rect fill="#444444" height="2.6" width="2.6" x="122.0" y="59.5"><title>2023-08-11</title></rect><rect fill="#444444" height="2.6" width="2.6" x="122.0" y="63.0"><title>2023-08-12</title></rect><rect fill="#444444" height="2.6" width="2.6" x="122.0" y="66.5"><title>2023-08-13</title></rect><rect fill="#444444" height="2.6" width="2.6" x="125.5" y="45.5"><title>2023-08-14</title></rect><rect fill="#444444" height="2.6" width="2.6" x="125.5" y="49.0"><title>2023-08-15</title></rect><rect fill="#444444" height="2.6" width="2.6" x="125.5" y="52.5"><title>2023-08-16</title></rect><rect fill="#444444" height="2.6" width="2.6" x="125.5" y="56.0"><title>2023-08-17</title></rect><rect fill="#444444" height="2.6" width="2.6" x="125.5" y="59.5"><title>2023-08-18</title></rect><rect fill="#444444" height="2.6" width="2.6" x="125.5" y="63.0"><title>2023-08-19</title></rect><rect fill="#444444" height="2.6" width="2.6" x="125.5" y="66.5"><title>2023-08-20</title></rect><rect fill="#444444" height="2.6" width="2.6" x="129.0" y="45.5"><title>2023-08-21</title></rect><rect fill="#444444" height="2.6" width="2.6" x="129.0" y="49.0"><title>2023-08-22</title></rect><rect fill="#444444" height="2.6" width="2.6" x="129.0" y="52.5"><title>2023-08-23</title></rect><rect fill="#444444" height="2.6" width="2.6" x="129.0" y="56.0"><title>2023-08-24</title></rect><rect fill="#444444" height="2.6" width="2.6" x="129.0" y="59.5"><title>2023-08-25</title></rect><rect fill="#444444" height="2.6" width="2.6" x="129.0" y="63.0"><title>2023-08-26</title></rect><rect fill="#444444" height="2.6" width="2.6" x="129.0" y="66.5"><title>2023-08-27</title></rect><rect fill="#444444" height="2.6" width="2.6" x="132.5" y="45.5"><title>2023-08-28</title></rect><rect fill="#444444" height="2.6" width="2.6" x="132.5" y="49.0"><title>2023-08-29</title></rect><rect fill="#444444" height="2.6" width="2.6" x="132.5" y="52.5"><title>2023-08-30</title></rect><rect fill="#444444" height="2.6" width="2.6" x="132.5" y="56.0"><title>2023-08-31</title></rect><rect fill="#444444" height="2.6" width="2.6" x="132.5" y="59.5"><title>2023-09-01</title></rect><rect fill="#444444" height="2.6" width="2.6" x="132.5" y="63.0"><title>2023-09-02</title></rect><rect fill="#444444" height="2.6" width="2.6" x="132.5" y="66.5"><title>2023-09-03</title></rect><rect fill="#444444" height="2.6" width="2.6" x="136.0" y="45.5"><title>2023-09-04</title></rect><rect fill="#444444" height="2.6" width="2.6" x="136.0" y="49.0"><title>2023-09-05</title></rect><rect fill="#444444" height="2.6" width="2.6" x="136.0" y="52.5"><title>2023-09-06</title></rect><rect fill="#444444" height="2.6" width="2.6" x="136.0" y="56.0"><title>2023-09-07</title></rect><rect fill="#444444" height="2.6" width="2.6" x="136.0" y="59.5"><title>2023-09-08</title></rect><rect fill="#444444" height="2.6" width="2.6" x="136.0" y="63.0"><title>2023-09-09</title></rect><rect fill="#444444" height="2.6" width="2.6" x="136.0" y="66.5"><title>2023-09-10</title></rect><rect fill="#444444" height="2.6" width="2.6" x="139.5" y="45.5"><title>2023-09-11</title></rect><rect fill="#444444" height="2.6" width="2.6" x="139.5" y="49.0"><title>2023-09-12</title></rect><rect fill="#444444" height="2.6" width="2.6" x="139.5" y="52.5"><title>2023-09-13</title></rect><rect fill="#444444" height="2.6" width="2.6" x="139.5" y="56.0"><title>2023-09-14</title></rect><rect fill="#444444" height="2.6" width="2.6" x="139.5" y="59.5"><title>2023-09-15</title></rect><rect fill="#444444" height="2.6" width="2.6" x="139.5" y="63.0"><title>2023-09-16</title></rect><rect fill="#444444" height="2.6" width="2.6" x="139.5" y="66.5"><title>2023-09-17</title></rect><rect fill="#444444" height="2.6" width="2.6" x="143.0" y="45.5"><title>2023-09-18</title></rect><rect fill="#444444" height="2.6" width="2.6" x="143.0" y="49.0"><title>2023-09-19</title></rect><rect fill="#444444" height="2.6" width="2.6" x="143.0" y="52.5"><title>2023-09-20</title></rect><rect fill="#444444" height="2.6" width="2.6" x="143.0" y="56.0"><title>2023-09-21</title></rect><rect fill="#444444" height="2.6" width="2.6" x="143.0" y="59.5"><title>2023-09-22</title></rect><rect fill="#444444" height="2.6" width="2.6" x="143.0" y="63.0"><title>2023-09-23</title></rect><rect fill="#444444" height="2.6" width="2.6" x="143.0" y="66.5"><title>2023-09-24</title></rect><rect fill="#444444" height="2.6" width="2.6" x="146.5" y="45.5"><title>2023-09-25</title></rect><rect fill="#444444" height="2.6" width="2.6" x="146.5" y="49.0"><title>2023-09-26</title></rect><rect fill="#444444" height="2.6" width="2.6" x="146.5" y="52.5"><title>2023-09-27</title></rect><rect fill="#444444" height="2.6" width="2.6" x="146.5" y="56.0"><title>2023-09-28</title></rect><rect fill="#444444" height="2.6" width="2.6" x="146.5" y="59.5"><title>2023-09-29</title></rect><rect fill="#444444" height="2.6" width="2.6" x="146.5" y="63.0"><title>2023-09-30</title></rect><rect fill="#444444" height="2.6" width="2.6" x="146.5" y="66.5"><title>2023-10-01</title></rect><rect fill="#444444" height="2.6" width="2.6" x="150.0" y="45.5"><title>2023-10-02</title></rect><rect fill="#444444" height="2.6" width="2.6" x="150.0" y="49.0"><title>2023-10-03</title></rect><rect fill="#444444" height="2.6" width="2.6" x="150.0" y="52.5"><title>2023-10-04</title></rect><rect fill="#444444" height="2.6" width="2.6" x="150.0" y="56.0"><title>2023-10-05</title></rect><rect fill="#444444" height="2.6" width="2.6" x="150.0" y="59.5"><title>2023-10-06</title></rect><rect fill="#444444" height="2.6" width="2.6" x="150.0" y="63.0"><title>2023-10-07</title></rect><rect fill="#444444" height="2.6" width="2.6" x="150.0" y="66.5"><title>2023-10-08</title></rect><rect fill="#444444" height="2.6" width="2.6" x="153.5" y="45.5"><title>2023-10-09</title></rect><rect fill="#444444" height="2.6" width="2.6" x="153.5" y="49.0"><title>2023-10-10</title></rect><rect fill="#444444" height="2.6" width="2.6" x="153.5" y="52.5"><title>2023-10-11</title></rect><rect fill="#444444" height="2.6" width="2.6" x="153.5" y="56.0"><title>2023-10-12</title></rect><rect fill="#444444" height="2.6" width="2.6" x="153.5" y="59.5"><title>2023-10-13</title></rect><rect fill="#444444" height="2.6" width="2.6" x="153.5" y="63.0"><title>2023-10-14</title></rect><rect fill="#444444" height="2.6" width="2.6" x="153.5" y="66.5"><title>2023-10-15</title></rect><rect fill="#444444" height="2.6" width="2.6" x="157.0" y="45.5"><title>2023-10-16</title></rect><rect fill="#444444" height="2.6" width="2.6" x="157.0" y="49.0"><title>2023-10-17</title></rect><rect fill="#444444" height="2.6" width="2.6" x="157.0" y="52.5"><title>2023-10-18</title></rect><rect fill="#444444" height="2.6" width="2.6" x="157.0" y="56.0"><title>2023-10-19</title></rect><rect fill="#444444" height="2.6" width="2.6" x="157.0" y="59.5"><title>2023-10-20</title></rect><rect fill="#444444" height="2.6" width="2.6" x="157.0" y="63.0"><title>2023-10-21</title></rect><rect fill="#444444" height="2.6" width="2.6" x="157.0" y="66.5"><title>2023-10-22</title></rect><rect fill="#444444" height="2.6" width="2.6" x="160.5" y="45.5"><title>2023-10-23</title></rect><rect fill="#444444" height="2.6" width="2.6" x="160.5" y="49.0"><title>2023-10-24</title></rect><rect fill="#444444" height="2.6" width="2.6" x="160.5" y="52.5"><title>2023-10-25</title></rect><rect fill="#444444" height="2.6" width="2.6" x="160.5" y="56.0"><title>2023-10-26</title></rect><rect fill="#444444" height="2.6" width="2.6" x="160.5" y="59.5"><title>2023-10-27</title></rect><rect fill="#444444" height="2.6" width="2.6" x="160.5" y="63.0"><title>2023-10-28</title></rect><rect fill="#444444" height="2.6" width="2.6" x="160.5" y="66.5"><title>2023-10-29</title></rect><rect fill="#444444" height="2.6" width="2.6" x="164.0" y="45.5"><title>2023-10-30</title></rect><rect fill="#444444" height="2.6" width="2.6" x="164.0" y="49.0"><title>2023-10-31</title></rect><rect fill="#444444" height="2.6" width="2.6" x="164.0" y="52.5"><title>2023-11-01</title></rect><rect fill="#444444" height="2.6" width="2.6" x="164.0" y="56.0"><title>2023-11-02</title></rect><rect fill="#444444" height="2.6" width="2.6" x="164.0" y="59.5"><title>2023-11-03</title></rect><rect fill="#444444" height="2.6" width="2.6" x="164.0" y="63.0"><title>2023-11-04</title></rect><rect fill="#444444" height="2.6" width="2.6" x="164.0" y="66.5"><title>2023-11-05</title></rect><rect fill="#444444" height="2.6" width="2.6" x="167.5" y="45.5"><title>2023-11-06</title></rect><rect fill="#444444" height="2.6" width="2.6" x="167.5" y="49.0"><title>2023-11-07</title></rect><rect fill="#444444" height="2.6" width="2.6" x="167.5" y="52.5"><title>2023-11-08</title></rect><rect fill="#444444" height="2.6" width="2.6" x="167.5" y="56.0"><title>2023-11-09</title></rect><rect fill="#444444" height="2.6" width="2.6" x="167.5" y="59.5"><title>2023-11-10</title></rect><rect fill="#444444" height="2.6" width="2.6" x="167.5" y="63.0"><title>2023-11-11</title></rect><rect fill="#444444" height="2.6" width="2.6" x="167.5" y="66.5"><title>2023-11-12</title></rect><rect fill="#444444" height="2.6" width="2.6" x="171.0" y="45.5"><title>2023-11-13</title></rect><rect fill="#444444" height="2.6" width="2.6" x="171.0" y="49.0"><title>2023-11-14</title></rect><rect fill="#444444" height="2.6" width="2.6" x="171.0" y="52.5"><title>2023-11-15</title></rect><rect fill="#444444" height="2.6" width="2.6" x="171.0" y="56.0"><title>2023-11-16</title></rect><rect fill="#444444" height="2.6" width="2.6" x="171.0" y="59.5"><title>2023-11-17</title></rect><rect fill="#444444" height="2.6" width="2.6" x="171.0" y="63.0"><title>2023-11-18</title></rect><rect fill="#444444" height="2.6" width="2.6" x="171.0" y="66.5"><title>2023-11-19</title></rect><rect fill="#444444" height="2.6" width="2.6" x="174.5" y="45.5"><title>2023-11-20</title></rect><rect fill="#444444" height="2.6" width="2.6" x="174.5" y="49.0"><title>2023-11-21</title></rect><rect fill="#444444" height="2.6" width="2.6" x="174.5" y="52.5"><title>2023-11-22</title></rect><rect fill="#444444" height="2.6" width="2.6" x="174.5" y="56.0"><title>2023-11-23</title></rect><rect fill="#444444" height="2.6" width="2.6" x="174.5" y="59.5"><title>2023-11-24</title></rect><rect fill="#444444" height="2.6" width="2.6" x="174.5" y="63.0"><title>2023-11-25</title></rect><rect fill="#444444" height="2.6" width="2.6" x="174.5" y="66.5"><title>2023-11-26</title></rect><rect fill="#444444" height="2.6" width="2.6" x="178.0" y="45.5"><title>2023-11-27</title></rect><rect fill="#444444" height="2.6" width="2.6" x="178.0" y="49.0"><title>2023-11-28</title></rect><rect fill="#444444" height="2.6" width="2.6" x="178.0" y="52.5"><title>2023-11-29</title></rect><rect fill="#444444" height="2.6" width="2.6" x="178.0" y="56.0"><title>2023-11-30</title></rect><rect fill="#444444" height="2.6" width="2.6" x="178.0" y="59.5"><title>2023-12-01</title></rect><rect fill="#444444" height="2.6" width="2.6" x="178.0" y="63.0"><title>2023-12-02</title></rect><rect fill="#444444" height="2.6" width="2.6" x="178.0" y="66.5"><title>2023-12-03</title></rect><rect fill="#444444" height="2.6" width="2.6" x="181.5" y="45.5"><title>2023-12-04</title></rect><rect fill="#444444" height="2.6" width="2.6" x="181.5" y="49.0"><title>2023-12-05</title></rect><rect fill="#444444" height="2.6" width="2.6" x="181.5" y="52.5"><title>2023-12-06</title></rect><rect fill="#444444" height="2.6" width="2.6" x="181.5" y="56.0"><title>2023-12-07</title></rect><rect fill="#444444" height="2.6" width="2.6" x="181.5" y="59.5"><title>2023-12-08</title></rect><rect fill="#444444" height="2.6" width="2.6" x="181.5" y="63.0"><title>2023-12-09</title></rect><rect fill="#444444" height="2.6" width="2.6" x="181.5" y="66.5"><title>2023-12-10</title></rect><rect fill="#444444" height="2.6" width="2.6" x="185.0" y="45.5"><title>2023-12-11</title></rect><rect fill="#444444" height="2.6" width="2.6" x="185.0" y="49.0"><title>2023-12-12</title></rect><rect fill="#444444" height="2.6" width="2.6" x="185.0" y="52.5"><title>2023-12-13</title></rect><rect fill="#444444" height="2.6" width="2.6" x="185.0" y="56.0"><title>2023-12-14</title></rect><rect fill="#444444" height="2.6" width="2.6" x="185.0" y="59.5"><title>2023-12-15</title></rect><rect fill="#444444" height="2.6" width="2.6" x="185.0" y="63.0"><title>2023-12-16</title></rect><rect fill="#444444" height="2.6" width="2.6" x="185.0" y="66.5"><title>2023-12-17</title></rect><rect fill="#444444" height="2.6" width="2.6" x="188.5" y="45.5"><title>2023-12-18</title></rect><rect fill="#444444" height="2.6" width="2.6" x="188.5" y="49.0"><title>2023-12-19</title></rect><rect fill="#444444" height="2.6" width="2.6" x="188.5" y="52.5"><title>2023-12-20</title></rect><rect fill="#444444" height="2.6" width="2.6" x="188.5" y="56.0"><title>2023-12-21</title></rect><rect fill="#444444" height="2.6" width="2.6" x="188.5" y="59.5"><title>2023-12-22</title></rect><rect fill="#444444" height="2.6" width="2.6" x="188.5" y="63.0"><title>2023-12-23</title></rect><rect fill="#444444" height="2.6" width="2.6" x="188.5" y="66.5"><title>2023-12-24</title></rect><rect fill="#444444" height="2.6" width="2.6" x="192.0" y="45.5"><title>2023-12-25</title></rect><rect fill="#444444" height="2.6" width="2.6" x="192.0" y="49.0"><title>2023-12-26</title></rect><rect fill="#444444" height="2.6" width="2.6" x="192.0" y="52.5"><title>2023-12-27</title></rect><rect fill="#444444" height="2.6" width="2.6" x="192.0" y="56.0"><title>2023-12-28</title></rect><rect fill="#444444" height="2.6" width="2.6" x="192.0" y="59.5"><title>2023-12-29</title></rect><rect fill="#444444" height="2.6" width="2.6" x="192.0" y="63.0"><title>2023-12-30</title></rect><rect fill="#444444" height="2.6" width="2.6" x="192.0" y="66.5"><title>2023-12-31</title></rect></svg>