<?xml version="1.0" encoding="utf-8" ?>
<svg baseProfile="full" height="78mm" version="1.1" viewBox="0,0,200,78" width="200mm" xmlns="http://www.w3.org/2000/svg" xmlns:ev="http://www.w3.org/2001/xml-events" xmlns:xlink="http://www.w3.org/1999/xlink"><defs /><rect fill="#222222" height="78" width="200" x="0" y="0" /><text fill="#FFFFFF" style="font-size:12px; font-family:Arial; font-weight:bold;" x="10" y="20">rip-tyang apple_health</text><text dominant-baseline="hanging" fill="#FFFFFF" style="font-size:10.0px; font-family:Arial;" x="10" y="30">2016</text><text dominant-baseline="hanging" fill="#FFFFFF" style="font-size:4.125px; font-family:Arial;" x="175" y="35">366 hours</text><text fill="#FFFFFF" style="font-size:2.5px; font-family:Arial" x="10.0" y="44">Jan</text><text fill="#FFFFFF" style="font-size:2.5px; font-family:Arial" x="25.5" y="44">Feb</text><text fill="#FFFFFF" style="font-size:2.5px; font-family:Arial" x="41.0" y="44">Mar</text><text fill="#FFFFFF" style="font-size:2.5px; font-family:Arial" x="56.5" y="44">Apr</text><text fill="#FFFFFF" style="font-size:2.5px; font-family:Arial" x="72.0" y="44">May</text><text fill="#FFFFFF" style="font-size:2.5px; font-family:Arial" x="87.5" y="44">Jun</text><text fill="#FFFFFF" style="font-size:2.5px; font-family:Arial" x="103.0" y="44">Jul</text><text fill="#FFFFFF" style="font-size:2.5px; font-family:Arial" x="118.5" y="44">Aug</text><text fill="#FFFFFF" style="font-size:2.5px; font-family:Arial" x="134.0" y="44">Sep</text><text fill="#FFFFFF" style="font-size:2.5px; font-family:Arial" x="149.5" y="44">Oct</text><text fill="#FFFFFF" style="font-size:2.5px; font-family:Arial" x="165.0" y="44">Nov</text><text fill="#FFFFFF" style="font-size:2.5px; font-family:Arial" x="180.5" y="44">Dec</text><rect fill="#3fffbd" height="2.6" width="2.6" x="10.0" y="45.5"><title>2015-12-28 66 mins</title></rect><rect fill="#40ffc7" height="2.6" width="2.6" x="10.0" y="49.0"><title>2015-12-29 61 mins</title></rect><rect fill="#444444" height="2.6" width="2.6" x="10.0" y="52.5"><title>2015-12-30</title></rect><rect fill="#444444" height="2.6" width="2.6" x="10.0" y="56.0"><title>2015-12-31</title></rect><rect fill="#4cdaff" height="2.6" width="2.6" x="10.0" y="59.5"><title>2016-01-01 7 mins</title></rect><rect fill="#3effba" height="2.6" width="2.6" x="10.0" y="63.0"><title>2016-01-02 68 mins</title></rect><rect fill="red" height="2.6" width="2.6" x="10.0" y="66.5"><title>2016-01-03 126 mins</title></rect><rect fill="#40ffc7" height="2.6" width="2.6" x="13.5" y="45.5"><title>2016-01-04 61 mins</title></rect><rect fill="#ffba00" height="2.6" width="2.6" x="13.5" y="49.0"><title>2016-01-05 97 mins</title></rect><rect fill="#40ffc5" height="2.6" width="2.6" x="13.5" y="52.5"><title>2016-01-06 62 mins</title></rect><rect fill="red" height="2.6" width="2.6" x="13.5" y="56.0"><title>2016-01-07 131 mins</title></rect><rect fill="#46fff3" height="2.6" width="2.6" x="13.5" y="59.5"><title>2016-01-08 36 mins</title></rect><rect fill="#43ffdc" height="2.6" width="2.6" x="13.5" y="63.0"><title>2016-01-09 49 mins</title></rect><rect fill="#ffc300" height="2.6" width="2.6" x="13.5" y="66.5"><title>2016-01-10 85 mins</title></rect><rect fill="#46fff7" height="2.6" width="2.6" x="17.0" y="45.5"><title>2016-01-11 34 mins</title></rect><rect fill="#44ffe9" height="2.6" width="2.6" x="17.0" y="49.0"><title>2016-01-12 42 mins</title></rect><rect fill="#40ffc8" height="2.6" width="2.6" x="17.0" y="52.5"><title>2016-01-13 60 mins</title></rect><rect fill="#40ffc5" height="2.6" width="2.6" x="17.0" y="56.0"><title>2016-01-14 62 mins</title></rect><rect fill="#47ffff" height="2.6" width="2.6" x="17.0" y="59.5"><title>2016-01-15 29 mins</title></rect><rect fill="#4ae9ff" height="2.6" width="2.6" x="17.0" y="63.0"><title>2016-01-16 16 mins</title></rect><rect fill="#ffc000" height="2.6" width="2.6" x="17.0" y="66.5"><title>2016-01-17 89 mins</title></rect><rect fill="#48f4ff" height="2.6" width="2.6" x="20.5" y="45.5"><title>2016-01-18 23 mins</title></rect><rect fill="#ffc800" height="2.6" width="2.6" x="20.5" y="49.0"><title>2016-01-19 78 mins</title></rect><rect fill="#48faff" height="2.6" width="2.6" x="20.5" y="52.5"><title>2016-01-20 26 mins</title></rect><rect fill="#48f8ff" height="2.6" width="2.6" x="20.5" y="56.0"><title>2016-01-21 25 mins</title></rect><rect fill="#46fff3" height="2.6" width="2.6" x="20.5" y="59.5"><title>2016-01-22 36 mins</title></rect><rect fill="#4dd2ff" height="2.6" width="2.6" x="20.5" y="63.0"><title>2016-01-23 2 mins</title></rect><rect fill="#44ffe3" height="2.6" width="2.6" x="20.5" y="66.5"><title>2016-01-24 45 mins</title></rect><rect fill="#43ffde" height="2.6" width="2.6" x="24.0" y="45.5"><title>2016-01-25 48 mins</title></rect><rect fill="#45ffec" height="2.6" width="2.6" x="24.0" y="49.0"><title>2016-01-26 40 mins</title></rect><rect fill="#46fff8" height="2.6" width="2.6" x="24.0" y="52.5"><title>2016-01-27 33 mins</title></rect><rect fill="#4be4ff" height="2.6" width="2.6" x="24.0" y="56.0"><title>2016-01-28 13 mins</title></rect><rect fill="#40ffca" height="2.6" width="2.6" x="24.0" y="59.5"><title>2016-01-29 59 mins</title></rect><rect fill="#46fff8" height="2.6" width="2.6" x="24.0" y="63.0"><title>2016-01-30 33 mins</title></rect><rect fill="#3effba" height="2.6" width="2.6" x="24.0" y="66.5"><title>2016-01-31 68 mins</title></rect><rect fill="#48f8ff" height="2.6" width="2.6" x="27.5" y="45.5"><title>2016-02-01 25 mins</title></rect><rect fill="#43ffe2" height="2.6" width="2.6" x="27.5" y="49.0"><title>2016-02-02 46 mins</title></rect><rect fill="#ffbb00" height="2.6" width="2.6" x="27.5" y="52.5"><title>2016-02-03 96 mins</title></rect><rect fill="#43ffde" height="2.6" width="2.6" x="27.5" y="56.0"><title>2016-02-04 48 mins</title></rect><rect fill="#44ffe3" height="2.6" width="2.6" x="27.5" y="59.5"><title>2016-02-05 45 mins</title></rect><rect fill="#ffc800" height="2.6" width="2.6" x="27.5" y="63.0"><title>2016-02-06 77 mins</title></rect><rect fill="red" height="2.6" width="2.6" x="27.5" y="66.5"><title>2016-02-07 150 mins</title></rect><rect fill="#44ffe9" height="2.6" width="2.6" x="31.0" y="45.5"><title>2016-02-08 42 mins</title></rect><rect fill="#42ffd9" height="2.6" width="2.6" x="31.0" y="49.0"><title>2016-02-09 51 mins</title></rect><rect fill="#45ffee" height="2.6" width="2.6" x="31.0" y="52.5"><title>2016-02-10 39 mins</title></rect><rect fill="#ffc800" height="2.6" width="2.6" x="31.0" y="56.0"><title>2016-02-11 77 mins</title></rect><rect fill="#ffcb00" height="2.6" width="2.6" x="31.0" y="59.5"><title>2016-02-12 73 mins</title></rect><rect fill="#ffc800" height="2.6" width="2.6" x="31.0" y="63.0"><title>2016-02-13 77 mins</title></rect><rect fill="#45ffec" height="2.6" width="2.6" x="31.0" y="66.5"><title>2016-02-14 40 mins</title></rect><rect fill="#45ffee" height="2.6" width="2.6" x="34.5" y="45.5"><title>2016-02-15 39 mins</title></rect><rect fill="#ffcb00" height="2.6" width="2.6" x="34.5" y="49.0"><title>2016-02-16 73 mins</title></rect><rect fill="#47fdff" height="2.6" width="2.6" x="34.5" y="52.5"><title>2016-02-17 28 mins</title></rect><rect fill="#3fffc1" height="2.6" width="2.6" x="34.5" y="56.0"><title>2016-02-18 64 mins</title></rect><rect fill="#45ffec" height="2.6" width="2.6" x="34.5" y="59.5"><title>2016-02-19 40 mins</title></rect><rect fill="#ffc000" height="2.6" width="2.6" x="34.5" y="63.0"><title>2016-02-20 89 mins</title></rect><rect fill="#3fffbd" height="2.6" width="2.6" x="34.5" y="66.5"><title>2016-02-21 66 mins</title></rect><rect fill="#43ffdc" height="2.6" width="2.6" x="38.0" y="45.5"><title>2016-02-22 49 mins</title></rect><rect fill="#43ffdc" height="2.6" width="2.6" x="38.0" y="49.0"><title>2016-02-23 49 mins</title></rect><rect fill="#41ffce" height="2.6" width="2.6" x="38.0" y="52.5"><title>2016-02-24 57 mins</title></rect><rect fill="#3fffbf" height="2.6" width="2.6" x="38.0" y="56.0"><title>2016-02-25 65 mins</title></rect><rect fill="#40ffc5" height="2.6" width="2.6" x="38.0" y="59.5"><title>2016-02-26 62 mins</title></rect><rect fill="#ffc300" height="2.6" width="2.6" x="38.0" y="63.0"><title>2016-02-27 85 mins</title></rect><rect fill="#3effb2" height="2.6" width="2.6" x="38.0" y="66.5"><title>2016-02-28 72 mins</title></rect><rect fill="#45ffee" height="2.6" width="2.6" x="41.5" y="45.5"><title>2016-02-29 39 mins</title></rect><rect fill="#3fffbb" height="2.6" width="2.6" x="41.5" y="49.0"><title>2016-03-01 67 mins</title></rect><rect fill="#40ffc3" height="2.6" width="2.6" x="41.5" y="52.5"><title>2016-03-02 63 mins</title></rect><rect fill="#40ffc5" height="2.6" width="2.6" x="41.5" y="56.0"><title>2016-03-03 62 mins</title></rect><rect fill="#ffbc00" height="2.6" width="2.6" x="41.5" y="59.5"><title>2016-03-04 94 mins</title></rect><rect fill="#47ffff" height="2.6" width="2.6" x="41.5" y="63.0"><title>2016-03-05 29 mins</title></rect><rect fill="#43ffde" height="2.6" width="2.6" x="41.5" y="66.5"><title>2016-03-06 48 mins</title></rect><rect fill="#3effb8" height="2.6" width="2.6" x="45.0" y="45.5"><title>2016-03-07 69 mins</title></rect><rect fill="#43ffdc" height="2.6" width="2.6" x="45.0" y="49.0"><title>2016-03-08 49 mins</title></rect><rect fill="#43ffde" height="2.6" width="2.6" x="45.0" y="52.5"><title>2016-03-09 48 mins</title></rect><rect fill="#40ffc7" height="2.6" width="2.6" x="45.0" y="56.0"><title>2016-03-10 61 mins</title></rect><rect fill="#ffc800" height="2.6" width="2.6" x="45.0" y="59.5"><title>2016-03-11 78 mins</title></rect><rect fill="#ffc500" height="2.6" width="2.6" x="45.0" y="63.0"><title>2016-03-12 82 mins</title></rect><rect fill="#41ffce" height="2.6" width="2.6" x="45.0" y="66.5"><title>2016-03-13 57 mins</title></rect><rect fill="red" height="2.6" width="2.6" x="48.5" y="45.5"><title>2016-03-14 130 mins</title></rect><rect fill="#ffc900" height="2.6" width="2.6" x="48.5" y="49.0"><title>2016-03-15 76 mins</title></rect><rect fill="#3effb6" height="2.6" width="2.6" x="48.5" y="52.5"><title>2016-03-16 70 mins</title></rect><rect fill="#3effb6" height="2.6" width="2.6" x="48.5" y="56.0"><title>2016-03-17 70 mins</title></rect><rect fill="#3effb6" height="2.6" width="2.6" x="48.5" y="59.5"><title>2016-03-18 70 mins</title></rect><rect fill="#42ffd7" height="2.6" width="2.6" x="48.5" y="63.0"><title>2016-03-19 52 mins</title></rect><rect fill="#ffc800" height="2.6" width="2.6" x="48.5" y="66.5"><title>2016-03-20 78 mins</title></rect><rect fill="#3fffbd" height="2.6" width="2.6" x="52.0" y="45.5"><title>2016-03-21 66 mins</title></rect><rect fill="#40ffc5" height="2.6" width="2.6" x="52.0" y="49.0"><title>2016-03-22 62 mins</title></rect><rect fill="#ffc200" height="2.6" width="2.6" x="52.0" y="52.5"><title>2016-03-23 86 mins</title></rect><rect fill="#3fffbf" height="2.6" width="2.6" x="52.0" y="56.0"><title>2016-03-24 65 mins</title></rect><rect fill="#49efff" height="2.6" width="2.6" x="52.0" y="59.5"><title>2016-03-25 20 mins</title></rect><rect fill="#45fff0" height="2.6" width="2.6" x="52.0" y="63.0"><title>2016-03-26 38 mins</title></rect><rect fill="#3effb4" height="2.6" width="2.6" x="52.0" y="66.5"><title>2016-03-27 71 mins</title></rect><rect fill="#44ffe9" height="2.6" width="2.6" x="55.5" y="45.5"><title>2016-03-28 42 mins</title></rect><rect fill="#44ffeb" height="2.6" width="2.6" x="55.5" y="49.0"><title>2016-03-29 41 mins</title></rect><rect fill="#42ffd3" height="2.6" width="2.6" x="55.5" y="52.5"><title>2016-03-30 54 mins</title></rect><rect fill="#45fff2" height="2.6" width="2.6" x="55.5" y="56.0"><title>2016-03-31 37 mins</title></rect><rect fill="#47fdff" height="2.6" width="2.6" x="55.5" y="59.5"><title>2016-04-01 28 mins</title></rect><rect fill="#42ffdb" height="2.6" width="2.6" x="55.5" y="63.0"><title>2016-04-02 50 mins</title></rect><rect fill="#43ffe2" height="2.6" width="2.6" x="55.5" y="66.5"><title>2016-04-03 46 mins</title></rect><rect fill="red" height="2.6" width="2.6" x="59.0" y="45.5"><title>2016-04-04 140 mins</title></rect><rect fill="#ffc800" height="2.6" width="2.6" x="59.0" y="49.0"><title>2016-04-05 77 mins</title></rect><rect fill="#42ffdb" height="2.6" width="2.6" x="59.0" y="52.5"><title>2016-04-06 50 mins</title></rect><rect fill="#41ffce" height="2.6" width="2.6" x="59.0" y="56.0"><title>2016-04-07 57 mins</title></rect><rect fill="#43ffdc" height="2.6" width="2.6" x="59.0" y="59.5"><title>2016-04-08 49 mins</title></rect><rect fill="#ffb100" height="2.6" width="2.6" x="59.0" y="63.0"><title>2016-04-09 109 mins</title></rect><rect fill="#ffb300" height="2.6" width="2.6" x="59.0" y="66.5"><title>2016-04-10 106 mins</title></rect><rect fill="#44ffe5" height="2.6" width="2.6" x="62.5" y="45.5"><title>2016-04-11 44 mins</title></rect><rect fill="#ffc800" height="2.6" width="2.6" x="62.5" y="49.0"><title>2016-04-12 77 mins</title></rect><rect fill="#ffc500" height="2.6" width="2.6" x="62.5" y="52.5"><title>2016-04-13 82 mins</title></rect><rect fill="#ffad00" height="2.6" width="2.6" x="62.5" y="56.0"><title>2016-04-14 114 mins</title></rect><rect fill="red" height="2.6" width="2.6" x="62.5" y="59.5"><title>2016-04-15 125 mins</title></rect><rect fill="#ffaa00" height="2.6" width="2.6" x="62.5" y="63.0"><title>2016-04-16 118 mins</title></rect><rect fill="red" height="2.6" width="2.6" x="62.5" y="66.5"><title>2016-04-17 158 mins</title></rect><rect fill="#44ffe9" height="2.6" width="2.6" x="66.0" y="45.5"><title>2016-04-18 42 mins</title></rect><rect fill="#40ffca" height="2.6" width="2.6" x="66.0" y="49.0"><title>2016-04-19 59 mins</title></rect><rect fill="#ffc000" height="2.6" width="2.6" x="66.0" y="52.5"><title>2016-04-20 89 mins</title></rect><rect fill="#41ffd2" height="2.6" width="2.6" x="66.0" y="56.0"><title>2016-04-21 55 mins</title></rect><rect fill="#42ffd5" height="2.6" width="2.6" x="66.0" y="59.5"><title>2016-04-22 53 mins</title></rect><rect fill="red" height="2.6" width="2.6" x="66.0" y="63.0"><title>2016-04-23 150 mins</title></rect><rect fill="#45ffec" height="2.6" width="2.6" x="66.0" y="66.5"><title>2016-04-24 40 mins</title></rect><rect fill="#43ffdc" height="2.6" width="2.6" x="69.5" y="45.5"><title>2016-04-25 49 mins</title></rect><rect fill="#ffb800" height="2.6" width="2.6" x="69.5" y="49.0"><title>2016-04-26 99 mins</title></rect><rect fill="#45ffec" height="2.6" width="2.6" x="69.5" y="52.5"><title>2016-04-27 40 mins</title></rect><rect fill="#41ffd2" height="2.6" width="2.6" x="69.5" y="56.0"><title>2016-04-28 55 mins</title></rect><rect fill="#3effb6" height="2.6" width="2.6" x="69.5" y="59.5"><title>2016-04-29 70 mins</title></rect><rect fill="#40ffca" height="2.6" width="2.6" x="69.5" y="63.0"><title>2016-04-30 59 mins</title></rect><rect fill="#41ffcc" height="2.6" width="2.6" x="69.5" y="66.5"><title>2016-05-01 58 mins</title></rect><rect fill="#ffc300" height="2.6" width="2.6" x="73.0" y="45.5"><title>2016-05-02 85 mins</title></rect><rect fill="#ffcb00" height="2.6" width="2.6" x="73.0" y="49.0"><title>2016-05-03 73 mins</title></rect><rect fill="#ffbc00" height="2.6" width="2.6" x="73.0" y="52.5"><title>2016-05-04 94 mins</title></rect><rect fill="#43ffde" height="2.6" width="2.6" x="73.0" y="56.0"><title>2016-05-05 48 mins</title></rect><rect fill="#ffb500" height="2.6" width="2.6" x="73.0" y="59.5"><title>2016-05-06 104 mins</title></rect><rect fill="red" height="2.6" width="2.6" x="73.0" y="63.0"><title>2016-05-07 203 mins</title></rect><rect fill="#3fffc1" height="2.6" width="2.6" x="73.0" y="66.5"><title>2016-05-08 64 mins</title></rect><rect fill="#47ffff" height="2.6" width="2.6" x="76.5" y="45.5"><title>2016-05-09 29 mins</title></rect><rect fill="#46fffa" height="2.6" width="2.6" x="76.5" y="49.0"><title>2016-05-10 32 mins</title></rect><rect fill="#41ffcc" height="2.6" width="2.6" x="76.5" y="52.5"><title>2016-05-11 58 mins</title></rect><rect fill="#46fff3" height="2.6" width="2.6" x="76.5" y="56.0"><title>2016-05-12 36 mins</title></rect><rect fill="#44ffeb" height="2.6" width="2.6" x="76.5" y="59.5"><title>2016-05-13 41 mins</title></rect><rect fill="#40ffc8" height="2.6" width="2.6" x="76.5" y="63.0"><title>2016-05-14 60 mins</title></rect><rect fill="#ffc800" height="2.6" width="2.6" x="76.5" y="66.5"><title>2016-05-15 78 mins</title></rect><rect fill="#43ffdc" height="2.6" width="2.6" x="80.0" y="45.5"><title>2016-05-16 49 mins</title></rect><rect fill="#43ffde" height="2.6" width="2.6" x="80.0" y="49.0"><title>2016-05-17 48 mins</title></rect><rect fill="#44ffe9" height="2.6" width="2.6" x="80.0" y="52.5"><title>2016-05-18 42 mins</title></rect><rect fill="#4be4ff" height="2.6" width="2.6" x="80.0" y="56.0"><title>2016-05-19 13 mins</title></rect><rect fill="#444444" height="2.6" width="2.6" x="80.0" y="59.5"><title>2016-05-20</title></rect><rect fill="#4cdaff" height="2.6" width="2.6" x="80.0" y="63.0"><title>2016-05-21 7 mins</title></rect><rect fill="#44ffeb" height="2.6" width="2.6" x="80.0" y="66.5"><title>2016-05-22 41 mins</title></rect><rect fill="#46fffa" height="2.6" width="2.6" x="83.5" y="45.5"><title>2016-05-23 32 mins</title></rect><rect fill="#42ffd3" height="2.6" width="2.6" x="83.5" y="49.0"><title>2016-05-24 54 mins</title></rect><rect fill="#44ffe9" height="2.6" width="2.6" x="83.5" y="52.5"><title>2016-05-25 42 mins</title></rect><rect fill="#3fffc1" height="2.6" width="2.6" x="83.5" y="56.0"><title>2016-05-26 64 mins</title></rect><rect fill="#3fffbb" height="2.6" width="2.6" x="83.5" y="59.5"><title>2016-05-27 67 mins</title></rect><rect fill="#48f4ff" height="2.6" width="2.6" x="83.5" y="63.0"><title>2016-05-28 23 mins</title></rect><rect fill="#ffc300" height="2.6" width="2.6" x="83.5" y="66.5"><title>2016-05-29 84 mins</title></rect><rect fill="#ffbe00" height="2.6" width="2.6" x="87.0" y="45.5"><title>2016-05-30 91 mins</title></rect><rect fill="red" height="2.6" width="2.6" x="87.0" y="49.0"><title>2016-05-31 134 mins</title></rect><rect fill="#46fff7" height="2.6" width="2.6" x="87.0" y="52.5"><title>2016-06-01 34 mins</title></rect><rect fill="#44ffeb" height="2.6" width="2.6" x="87.0" y="56.0"><title>2016-06-02 41 mins</title></rect><rect fill="#45fff2" height="2.6" width="2.6" x="87.0" y="59.5"><title>2016-06-03 37 mins</title></rect><rect fill="#ffc000" height="2.6" width="2.6" x="87.0" y="63.0"><title>2016-06-04 89 mins</title></rect><rect fill="#47fbff" height="2.6" width="2.6" x="87.0" y="66.5"><title>2016-06-05 27 mins</title></rect><rect fill="#46fff7" height="2.6" width="2.6" x="90.5" y="45.5"><title>2016-06-06 34 mins</title></rect><rect fill="#ffb200" height="2.6" width="2.6" x="90.5" y="49.0"><title>2016-06-07 108 mins</title></rect><rect fill="red" height="2.6" width="2.6" x="90.5" y="52.5"><title>2016-06-08 124 mins</title></rect><rect fill="#43ffdc" height="2.6" width="2.6" x="90.5" y="56.0"><title>2016-06-09 49 mins</title></rect><rect fill="#48f8ff" height="2.6" width="2.6" x="90.5" y="59.5"><title>2016-06-10 25 mins</title></rect><rect fill="#42ffd9" height="2.6" width="2.6" x="90.5" y="63.0"><title>2016-06-11 51 mins</title></rect><rect fill="#47ffff" height="2.6" width="2.6" x="90.5" y="66.5"><title>2016-06-12 29 mins</title></rect><rect fill="#43ffe0" height="2.6" width="2.6" x="94.0" y="45.5"><title>2016-06-13 47 mins</title></rect><rect fill="red" height="2.6" width="2.6" x="94.0" y="49.0"><title>2016-06-14 143 mins</title></rect><rect fill="red" height="2.6" width="2.6" x="94.0" y="52.5"><title>2016-06-15 140 mins</title></rect><rect fill="#40ffc7" height="2.6" width="2.6" x="94.0" y="56.0"><title>2016-06-16 61 mins</title></rect><rect fill="#3fffbb" height="2.6" width="2.6" x="94.0" y="59.5"><title>2016-06-17 67 mins</title></rect><rect fill="#ffaa00" height="2.6" width="2.6" x="94.0" y="63.0"><title>2016-06-18 119 mins</title></rect><rect fill="#40ffc8" height="2.6" width="2.6" x="94.0" y="66.5"><title>2016-06-19 60 mins</title></rect><rect fill="#3effb4" height="2.6" width="2.6" x="97.5" y="45.5"><title>2016-06-20 71 mins</title></rect><rect fill="#41ffd2" height="2.6" width="2.6" x="97.5" y="49.0"><title>2016-06-21 55 mins</title></rect><rect fill="#45fff0" height="2.6" width="2.6" x="97.5" y="52.5"><title>2016-06-22 38 mins</title></rect><rect fill="#45ffee" height="2.6" width="2.6" x="97.5" y="56.0"><title>2016-06-23 39 mins</title></rect><rect fill="#46fff7" height="2.6" width="2.6" x="97.5" y="59.5"><title>2016-06-24 34 mins</title></rect><rect fill="#47ffff" height="2.6" width="2.6" x="97.5" y="63.0"><title>2016-06-25 29 mins</title></rect><rect fill="#3effba" height="2.6" width="2.6" x="97.5" y="66.5"><title>2016-06-26 68 mins</title></rect><rect fill="#41ffce" height="2.6" width="2.6" x="101.0" y="45.5"><title>2016-06-27 57 mins</title></rect><rect fill="#ffc500" height="2.6" width="2.6" x="101.0" y="49.0"><title>2016-06-28 81 mins</title></rect><rect fill="#43ffde" height="2.6" width="2.6" x="101.0" y="52.5"><title>2016-06-29 48 mins</title></rect><rect fill="#3effb8" height="2.6" width="2.6" x="101.0" y="56.0"><title>2016-06-30 69 mins</title></rect><rect fill="#3effb2" height="2.6" width="2.6" x="101.0" y="59.5"><title>2016-07-01 72 mins</title></rect><rect fill="#ffaa00" height="2.6" width="2.6" x="101.0" y="63.0"><title>2016-07-02 119 mins</title></rect><rect fill="red" height="2.6" width="2.6" x="101.0" y="66.5"><title>2016-07-03 352 mins</title></rect><rect fill="#444444" height="2.6" width="2.6" x="104.5" y="45.5"><title>2016-07-04</title></rect><rect fill="#40ffc8" height="2.6" width="2.6" x="104.5" y="49.0"><title>2016-07-05 60 mins</title></rect><rect fill="#3effb2" height="2.6" width="2.6" x="104.5" y="52.5"><title>2016-07-06 72 mins</title></rect><rect fill="#ffc500" height="2.6" width="2.6" x="104.5" y="56.0"><title>2016-07-07 81 mins</title></rect><rect fill="#ffc100" height="2.6" width="2.6" x="104.5" y="59.5"><title>2016-07-08 87 mins</title></rect><rect fill="#40ffca" height="2.6" width="2.6" x="104.5" y="63.0"><title>2016-07-09 59 mins</title></rect><rect fill="#3effb2" height="2.6" width="2.6" x="104.5" y="66.5"><title>2016-07-10 72 mins</title></rect><rect fill="#42ffd5" height="2.6" width="2.6" x="108.0" y="45.5"><title>2016-07-11 53 mins</title></rect><rect fill="#ffc300" height="2.6" width="2.6" x="108.0" y="49.0"><title>2016-07-12 84 mins</title></rect><rect fill="#45fff0" height="2.6" width="2.6" x="108.0" y="52.5"><title>2016-07-13 38 mins</title></rect><rect fill="#46fff7" height="2.6" width="2.6" x="108.0" y="56.0"><title>2016-07-14 34 mins</title></rect><rect fill="#42ffdb" height="2.6" width="2.6" x="108.0" y="59.5"><title>2016-07-15 50 mins</title></rect><rect fill="#44ffeb" height="2.6" width="2.6" x="108.0" y="63.0"><title>2016-07-16 41 mins</title></rect><rect fill="#47fffe" height="2.6" width="2.6" x="108.0" y="66.5"><title>2016-07-17 30 mins</title></rect><rect fill="#45ffec" height="2.6" width="2.6" x="111.5" y="45.5"><title>2016-07-18 40 mins</title></rect><rect fill="#43ffe2" height="2.6" width="2.6" x="111.5" y="49.0"><title>2016-07-19 46 mins</title></rect><rect fill="#47fffc" height="2.6" width="2.6" x="111.5" y="52.5"><title>2016-07-20 31 mins</title></rect><rect fill="#49f3ff" height="2.6" width="2.6" x="111.5" y="56.0"><title>2016-07-21 22 mins</title></rect><rect fill="#42ffdb" height="2.6" width="2.6" x="111.5" y="59.5"><title>2016-07-22 50 mins</title></rect><rect fill="#40ffc3" height="2.6" width="2.6" x="111.5" y="63.0"><title>2016-07-23 63 mins</title></rect><rect fill="#444444" height="2.6" width="2.6" x="111.5" y="66.5"><title>2016-07-24</title></rect><rect fill="#45ffee" height="2.6" width="2.6" x="115.0" y="45.5"><title>2016-07-25 39 mins</title></rect><rect fill="#41ffd2" height="2.6" width="2.6" x="115.0" y="49.0"><title>2016-07-26 55 mins</title></rect><rect fill="#42ffd7" height="2.6" width="2.6" x="115.0" y="52.5"><title>2016-07-27 52 mins</title></rect><rect fill="#45ffec" height="2.6" width="2.6" x="115.0" y="56.0"><title>2016-07-28 40 mins</title></rect><rect fill="#41ffce" height="2.6" width="2.6" x="115.0" y="59.5"><title>2016-07-29 57 mins</title></rect><rect fill="#46fff3" height="2.6" width="2.6" x="115.0" y="63.0"><title>2016-07-30 36 mins</title></rect><rect fill="#45fff0" height="2.6" width="2.6" x="115.0" y="66.5"><title>2016-07-31 38 mins</title></rect><rect fill="#48f8ff" height="2.6" width="2.6" x="118.5" y="45.5"><title>2016-08-01 25 mins</title></rect><rect fill="#42ffd7" height="2.6" width="2.6" x="118.5" y="49.0"><title>2016-08-02 52 mins</title></rect><rect fill="#4be1ff" height="2.6" width="2.6" x="118.5" y="52.5"><title>2016-08-03 11 mins</title></rect><rect fill="#444444" height="2.6" width="2.6" x="118.5" y="56.0"><title>2016-08-04</title></rect><rect fill="#444444" height="2.6" width="2.6" x="118.5" y="59.5"><title>2016-08-05</title></rect><rect fill="#444444" height="2.6" width="2.6" x="118.5" y="63.0"><title>2016-08-06</title></rect><rect fill="#444444" height="2.6" width="2.6" x="118.5" y="66.5"><title>2016-08-07</title></rect><rect fill="#49f3ff" height="2.6" width="2.6" x="122.0" y="45.5"><title>2016-08-08 22 mins</title></rect><rect fill="#49f1ff" height="2.6" width="2.6" x="122.0" y="49.0"><title>2016-08-09 21 mins</title></rect><rect fill="#46fffa" height="2.6" width="2.6" x="122.0" y="52.5"><title>2016-08-10 32 mins</title></rect><rect fill="#45ffee" height="2.6" width="2.6" x="122.0" y="56.0"><title>2016-08-11 39 mins</title></rect><rect fill="#47fffe" height="2.6" width="2.6" x="122.0" y="59.5"><title>2016-08-12 30 mins</title></rect><rect fill="#44ffe5" height="2.6" width="2.6" x="122.0" y="63.0"><title>2016-08-13 44 mins</title></rect><rect fill="#43ffde" height="2.6" width="2.6" x="122.0" y="66.5"><title>2016-08-14 48 mins</title></rect><rect fill="#ffc500" height="2.6" width="2.6" x="125.5" y="45.5"><title>2016-08-15 82 mins</title></rect><rect fill="#43ffde" height="2.6" width="2.6" x="125.5" y="49.0"><title>2016-08-16 48 mins</title></rect><rect fill="#47fbff" height="2.6" width="2.6" x="125.5" y="52.5"><title>2016-08-17 27 mins</title></rect><rect fill="#44ffe3" height="2.6" width="2.6" x="125.5" y="56.0"><title>2016-08-18 45 mins</title></rect><rect fill="#49efff" height="2.6" width="2.6" x="125.5" y="59.5"><title>2016-08-19 20 mins</title></rect><rect fill="#42ffd5" height="2.6" width="2.6" x="125.5" y="63.0"><title>2016-08-20 53 mins</title></rect><rect fill="#45ffee" height="2.6" width="2.6" x="125.5" y="66.5"><title>2016-08-21 39 mins</title></rect><rect fill="#4bddff" height="2.6" width="2.6" x="129.0" y="45.5"><title>2016-08-22 9 mins</title></rect><rect fill="#49ecff" height="2.6" width="2.6" x="129.0" y="49.0"><title>2016-08-23 18 mins</title></rect><rect fill="#49f3ff" height="2.6" width="2.6" x="129.0" y="52.5"><title>2016-08-24 22 mins</title></rect><rect fill="#47fffc" height="2.6" width="2.6" x="129.0" y="56.0"><title>2016-08-25 31 mins</title></rect><rect fill="#45fff2" height="2.6" width="2.6" x="129.0" y="59.5"><title>2016-08-26 37 mins</title></rect><rect fill="#4ae7ff" height="2.6" width="2.6" x="129.0" y="63.0"><title>2016-08-27 15 mins</title></rect><rect fill="#4cdaff" height="2.6" width="2.6" x="129.0" y="66.5"><title>2016-08-28 7 mins</title></rect><rect fill="#49f3ff" height="2.6" width="2.6" x="132.5" y="45.5"><title>2016-08-29 22 mins</title></rect><rect fill="#46fffa" height="2.6" width="2.6" x="132.5" y="49.0"><title>2016-08-30 32 mins</title></rect><rect fill="#44ffe7" height="2.6" width="2.6" x="132.5" y="52.5"><title>2016-08-31 43 mins</title></rect><rect fill="#48f6ff" height="2.6" width="2.6" x="132.5" y="56.0"><title>2016-09-01 24 mins</title></rect><rect fill="#49f3ff" height="2.6" width="2.6" x="132.5" y="59.5"><title>2016-09-02 22 mins</title></rect><rect fill="#44ffe7" height="2.6" width="2.6" x="132.5" y="63.0"><title>2016-09-03 43 mins</title></rect><rect fill="#4aeaff" height="2.6" width="2.6" x="132.5" y="66.5"><title>2016-09-04 17 mins</title></rect><rect fill="#4bddff" height="2.6" width="2.6" x="136.0" y="45.5"><title>2016-09-05 9 mins</title></rect><rect fill="red" height="2.6" width="2.6" x="136.0" y="49.0"><title>2016-09-06 128 mins</title></rect><rect fill="#41ffce" height="2.6" width="2.6" x="136.0" y="52.5"><title>2016-09-07 57 mins</title></rect><rect fill="#44ffe5" height="2.6" width="2.6" x="136.0" y="56.0"><title>2016-09-08 44 mins</title></rect><rect fill="#3effb8" height="2.6" width="2.6" x="136.0" y="59.5"><title>2016-09-09 69 mins</title></rect><rect fill="#43ffe2" height="2.6" width="2.6" x="136.0" y="63.0"><title>2016-09-10 46 mins</title></rect><rect fill="#3fffbb" height="2.6" width="2.6" x="136.0" y="66.5"><title>2016-09-11 67 mins</title></rect><rect fill="#40ffc3" height="2.6" width="2.6" x="139.5" y="45.5"><title>2016-09-12 63 mins</title></rect><rect fill="#3effb4" height="2.6" width="2.6" x="139.5" y="49.0"><title>2016-09-13 71 mins</title></rect><rect fill="#ffc200" height="2.6" width="2.6" x="139.5" y="52.5"><title>2016-09-14 86 mins</title></rect><rect fill="red" height="2.6" width="2.6" x="139.5" y="56.0"><title>2016-09-15 127 mins</title></rect><rect fill="#3fffc1" height="2.6" width="2.6" x="139.5" y="59.5"><title>2016-09-16 64 mins</title></rect><rect fill="#ffbe00" height="2.6" width="2.6" x="139.5" y="63.0"><title>2016-09-17 91 mins</title></rect><rect fill="#44ffe7" height="2.6" width="2.6" x="139.5" y="66.5"><title>2016-09-18 43 mins</title></rect><rect fill="red" height="2.6" width="2.6" x="143.0" y="45.5"><title>2016-09-19 137 mins</title></rect><rect fill="#4aeaff" height="2.6" width="2.6" x="143.0" y="49.0"><title>2016-09-20 17 mins</title></rect><rect fill="#3effba" height="2.6" width="2.6" x="143.0" y="52.5"><title>2016-09-21 68 mins</title></rect><rect fill="#46fff3" height="2.6" width="2.6" x="143.0" y="56.0"><title>2016-09-22 36 mins</title></rect><rect fill="#42ffd3" height="2.6" width="2.6" x="143.0" y="59.5"><title>2016-09-23 54 mins</title></rect><rect fill="#41ffd2" height="2.6" width="2.6" x="143.0" y="63.0"><title>2016-09-24 55 mins</title></rect><rect fill="#40ffc7" height="2.6" width="2.6" x="143.0" y="66.5"><title>2016-09-25 61 mins</title></rect><rect fill="#40ffc5" height="2.6" width="2.6" x="146.5" y="45.5"><title>2016-09-26 62 mins</title></rect><rect fill="#43ffe2" height="2.6" width="2.6" x="146.5" y="49.0"><title>2016-09-27 46 mins</title></rect><rect fill="#3fffbd" height="2.6" width="2.6" x="146.5" y="52.5"><title>2016-09-28 66 mins</title></rect><rect fill="#ffb800" height="2.6" width="2.6" x="146.5" y="56.0"><title>2016-09-29 100 mins</title></rect><rect fill="#ffc800" height="2.6" width="2.6" x="146.5" y="59.5"><title>2016-09-30 78 mins</title></rect><rect fill="#ffc500" height="2.6" width="2.6" x="146.5" y="63.0"><title>2016-10-01 82 mins</title></rect><rect fill="#40ffc7" height="2.6" width="2.6" x="146.5" y="66.5"><title>2016-10-02 61 mins</title></rect><rect fill="red" height="2.6" width="2.6" x="150.0" y="45.5"><title>2016-10-03 152 mins</title></rect><rect fill="#ffb800" height="2.6" width="2.6" x="150.0" y="49.0"><title>2016-10-04 99 mins</title></rect><rect fill="#ffc300" height="2.6" width="2.6" x="150.0" y="52.5"><title>2016-10-05 85 mins</title></rect><rect fill="#4be4ff" height="2.6" width="2.6" x="150.0" y="56.0"><title>2016-10-06 13 mins</title></rect><rect fill="#40ffc3" height="2.6" width="2.6" x="150.0" y="59.5"><title>2016-10-07 63 mins</title></rect><rect fill="#4cd8ff" height="2.6" width="2.6" x="150.0" y="63.0"><title>2016-10-08 6 mins</title></rect><rect fill="#47ffff" height="2.6" width="2.6" x="150.0" y="66.5"><title>2016-10-09 29 mins</title></rect><rect fill="#43ffdc" height="2.6" width="2.6" x="153.5" y="45.5"><title>2016-10-10 49 mins</title></rect><rect fill="#46fff7" height="2.6" width="2.6" x="153.5" y="49.0"><title>2016-10-11 34 mins</title></rect><rect fill="#3effba" height="2.6" width="2.6" x="153.5" y="52.5"><title>2016-10-12 68 mins</title></rect><rect fill="#41ffd0" height="2.6" width="2.6" x="153.5" y="56.0"><title>2016-10-13 56 mins</title></rect><rect fill="#48f4ff" height="2.6" width="2.6" x="153.5" y="59.5"><title>2016-10-14 23 mins</title></rect><rect fill="#3fffbb" height="2.6" width="2.6" x="153.5" y="63.0"><title>2016-10-15 67 mins</title></rect><rect fill="#44ffe5" height="2.6" width="2.6" x="153.5" y="66.5"><title>2016-10-16 44 mins</title></rect><rect fill="#ffb600" height="2.6" width="2.6" x="157.0" y="45.5"><title>2016-10-17 102 mins</title></rect><rect fill="#49eeff" height="2.6" width="2.6" x="157.0" y="49.0"><title>2016-10-18 19 mins</title></rect><rect fill="red" height="2.6" width="2.6" x="157.0" y="52.5"><title>2016-10-19 137 mins</title></rect><rect fill="#444444" height="2.6" width="2.6" x="157.0" y="56.0"><title>2016-10-20</title></rect><rect fill="#444444" height="2.6" width="2.6" x="157.0" y="59.5"><title>2016-10-21</title></rect><rect fill="#47ffff" height="2.6" width="2.6" x="157.0" y="63.0"><title>2016-10-22 29 mins</title></rect><rect fill="#40ffc8" height="2.6" width="2.6" x="157.0" y="66.5"><title>2016-10-23 60 mins</title></rect><rect fill="#ffca00" height="2.6" width="2.6" x="160.5" y="45.5"><title>2016-10-24 75 mins</title></rect><rect fill="#ffc500" height="2.6" width="2.6" x="160.5" y="49.0"><title>2016-10-25 81 mins</title></rect><rect fill="#44ffe3" height="2.6" width="2.6" x="160.5" y="52.5"><title>2016-10-26 45 mins</title></rect><rect fill="#41ffcc" height="2.6" width="2.6" x="160.5" y="56.0"><title>2016-10-27 58 mins</title></rect><rect fill="#46fff3" height="2.6" width="2.6" x="160.5" y="59.5"><title>2016-10-28 36 mins</title></rect><rect fill="#45fff2" height="2.6" width="2.6" x="160.5" y="63.0"><title>2016-10-29 37 mins</title></rect><rect fill="#42ffd7" height="2.6" width="2.6" x="160.5" y="66.5"><title>2016-10-30 52 mins</title></rect><rect fill="#3fffbf" height="2.6" width="2.6" x="164.0" y="45.5"><title>2016-10-31 65 mins</title></rect><rect fill="#44ffeb" height="2.6" width="2.6" x="164.0" y="49.0"><title>2016-11-01 41 mins</title></rect><rect fill="#ffc500" height="2.6" width="2.6" x="164.0" y="52.5"><title>2016-11-02 81 mins</title></rect><rect fill="#41ffcc" height="2.6" width="2.6" x="164.0" y="56.0"><title>2016-11-03 58 mins</title></rect><rect fill="#ffbf00" height="2.6" width="2.6" x="164.0" y="59.5"><title>2016-11-04 90 mins</title></rect><rect fill="#42ffd9" height="2.6" width="2.6" x="164.0" y="63.0"><title>2016-11-05 51 mins</title></rect><rect fill="#42ffd3" height="2.6" width="2.6" x="164.0" y="66.5"><title>2016-11-06 54 mins</title></rect><rect fill="#ffc000" height="2.6" width="2.6" x="167.5" y="45.5"><title>2016-11-07 88 mins</title></rect><rect fill="#41ffd2" height="2.6" width="2.6" x="167.5" y="49.0"><title>2016-11-08 55 mins</title></rect><rect fill="#46fff8" height="2.6" width="2.6" x="167.5" y="52.5"><title>2016-11-09 33 mins</title></rect><rect fill="#ffbe00" height="2.6" width="2.6" x="167.5" y="56.0"><title>2016-11-10 91 mins</title></rect><rect fill="#45ffee" height="2.6" width="2.6" x="167.5" y="59.5"><title>2016-11-11 39 mins</title></rect><rect fill="#44ffe3" height="2.6" width="2.6" x="167.5" y="63.0"><title>2016-11-12 45 mins</title></rect><rect fill="#46fff8" height="2.6" width="2.6" x="167.5" y="66.5"><title>2016-11-13 33 mins</title></rect><rect fill="#43ffdc" height="2.6" width="2.6" x="171.0" y="45.5"><title>2016-11-14 49 mins</title></rect><rect fill="#ffc900" height="2.6" width="2.6" x="171.0" y="49.0"><title>2016-11-15 76 mins</title></rect><rect fill="#ffbf00" height="2.6" width="2.6" x="171.0" y="52.5"><title>2016-11-16 90 mins</title></rect><rect fill="#40ffc3" height="2.6" width="2.6" x="171.0" y="56.0"><title>2016-11-17 63 mins</title></rect><rect fill="#ffb200" height="2.6" width="2.6" x="171.0" y="59.5"><title>2016-11-18 107 mins</title></rect><rect fill="#ffbb00" height="2.6" width="2.6" x="171.0" y="63.0"><title>2016-11-19 96 mins</title></rect><rect fill="red" height="2.6" width="2.6" x="171.0" y="66.5"><title>2016-11-20 184 mins</title></rect><rect fill="#40ffc8" height="2.6" width="2.6" x="174.5" y="45.5"><title>2016-11-21 60 mins</title></rect><rect fill="red" height="2.6" width="2.6" x="174.5" y="49.0"><title>2016-11-22 187 mins</title></rect><rect fill="#ffc600" height="2.6" width="2.6" x="174.5" y="52.5"><title>2016-11-23 80 mins</title></rect><rect fill="#44ffe9" height="2.6" width="2.6" x="174.5" y="56.0"><title>2016-11-24 42 mins</title></rect><rect fill="#45fff2" height="2.6" width="2.6" x="174.5" y="59.5"><title>2016-11-25 37 mins</title></rect><rect fill="#46fff7" height="2.6" width="2.6" x="174.5" y="63.0"><title>2016-11-26 34 mins</title></rect><rect fill="#ffc900" height="2.6" width="2.6" x="174.5" y="66.5"><title>2016-11-27 76 mins</title></rect><rect fill="#3fffbd" height="2.6" width="2.6" x="178.0" y="45.5"><title>2016-11-28 66 mins</title></rect><rect fill="#ffc000" height="2.6" width="2.6" x="178.0" y="49.0"><title>2016-11-29 88 mins</title></rect><rect fill="#41ffce" height="2.6" width="2.6" x="178.0" y="52.5"><title>2016-11-30 57 mins</title></rect><rect fill="#3effb2" height="2.6" width="2.6" x="178.0" y="56.0"><title>2016-12-01 72 mins</title></rect><rect fill="#41ffcc" height="2.6" width="2.6" x="178.0" y="59.5"><title>2016-12-02 58 mins</title></rect><rect fill="#ffca00" height="2.6" width="2.6" x="178.0" y="63.0"><title>2016-12-03 75 mins</title></rect><rect fill="#4ae5ff" height="2.6" width="2.6" x="178.0" y="66.5"><title>2016-12-04 14 mins</title></rect><rect fill="#44ffeb" height="2.6" width="2.6" x="181.5" y="45.5"><title>2016-12-05 41 mins</title></rect><rect fill="#3fffc1" height="2.6" width="2.6" x="181.5" y="49.0"><title>2016-12-06 64 mins</title></rect><rect fill="#ffae00" height="2.6" width="2.6" x="181.5" y="52.5"><title>2016-12-07 113 mins</title></rect><rect fill="#44ffe9" height="2.6" width="2.6" x="181.5" y="56.0"><title>2016-12-08 42 mins</title></rect><rect fill="#3fffc1" height="2.6" width="2.6" x="181.5" y="59.5"><title>2016-12-09 64 mins</title></rect><rect fill="#46fff5" height="2.6" width="2.6" x="181.5" y="63.0"><title>2016-12-10 35 mins</title></rect><rect fill="red" height="2.6" width="2.6" x="181.5" y="66.5"><title>2016-12-11 259 mins</title></rect><rect fill="#ffaa00" height="2.6" width="2.6" x="185.0" y="45.5"><title>2016-12-12 119 mins</title></rect><rect fill="#ffb700" height="2.6" width="2.6" x="185.0" y="49.0"><title>2016-12-13 101 mins</title></rect><rect fill="#45ffec" height="2.6" width="2.6" x="185.0" y="52.5"><title>2016-12-14 40 mins</title></rect><rect fill="#ffb100" height="2.6" width="2.6" x="185.0" y="56.0"><title>2016-12-15 109 mins</title></rect><rect fill="#3effb8" height="2.6" width="2.6" x="185.0" y="59.5"><title>2016-12-16 69 mins</title></rect><rect fill="#45fff2" height="2.6" width="2.6" x="185.0" y="63.0"><title>2016-12-17 37 mins</title></rect><rect fill="#41ffd2" height="2.6" width="2.6" x="185.0" y="66.5"><title>2016-12-18 55 mins</title></rect><rect fill="#42ffd7" height="2.6" width="2.6" x="188.5" y="45.5"><title>2016-12-19 52 mins</title></rect><rect fill="#48f4ff" height="2.6" width="2.6" x="188.5" y="49.0"><title>2016-12-20 23 mins</title></rect><rect fill="#ffc300" height="2.6" width="2.6" x="188.5" y="52.5"><title>2016-12-21 85 mins</title></rect><rect fill="#44ffe3" height="2.6" width="2.6" x="188.5" y="56.0"><title>2016-12-22 45 mins</title></rect><rect fill="#42ffd3" height="2.6" width="2.6" x="188.5" y="59.5"><title>2016-12-23 54 mins</title></rect><rect fill="#ffa900" height="2.6" width="2.6" x="188.5" y="63.0"><title>2016-12-24 120 mins</title></rect><rect fill="red" height="2.6" width="2.6" x="188.5" y="66.5"><title>2016-12-25 144 mins</title></rect><rect fill="#44ffe9" height="2.6" width="2.6" x="192.0" y="45.5"><title>2016-12-26 42 mins</title></rect><rect fill="#4ae7ff" height="2.6" width="2.6" x="192.0" y="49.0"><title>2016-12-27 15 mins</title></rect><rect fill="#ffb000" height="2.6" width="2.6" x="192.0" y="52.5"><title>2016-12-28 111 mins</title></rect><rect fill="#43ffde" height="2.6" width="2.6" x="192.0" y="56.0"><title>2016-12-29 48 mins</title></rect><rect fill="#44ffe7" height="2.6" width="2.6" x="192.0" y="59.5"><title>2016-12-30 43 mins</title></rect><rect fill="#ffbd00" height="2.6" width="2.6" x="192.0" y="63.0"><title>2016-12-31 92 mins</title></rect></svg>