<?xml version="1.0" encoding="utf-8" ?>
<svg baseProfile="full" height="78mm" version="1.1" viewBox="0,0,200,78" width="200mm" xmlns="http://www.w3.org/2000/svg" xmlns:ev="http://www.w3.org/2001/xml-events" xmlns:xlink="http://www.w3.org/1999/xlink"><defs /><rect fill="#222222" height="78" width="200" x="0" y="0" /><text fill="#FFFFFF" style="font-size:12px; font-family:Arial; font-weight:bold;" x="10" y="20">rip-tyang apple_health</text><text dominant-baseline="hanging" fill="#FFFFFF" style="font-size:10.0px; font-family:Arial;" x="10" y="30">2020</text><text dominant-baseline="hanging" fill="#FFFFFF" style="font-size:4.125px; font-family:Arial;" x="175" y="35">178 hours</text><text fill="#FFFFFF" style="font-size:2.5px; font-family:Arial" x="10.0" y="44">Jan</text><text fill="#FFFFFF" style="font-size:2.5px; font-family:Arial" x="25.5" y="44">Feb</text><text fill="#FFFFFF" style="font-size:2.5px; font-family:Arial" x="41.0" y="44">Mar</text><text fill="#FFFFFF" style="font-size:2.5px; font-family:Arial" x="56.5" y="44">Apr</text><text fill="#FFFFFF" style="font-size:2.5px; font-family:Arial" x="72.0" y="44">May</text><text fill="#FFFFFF" style="font-size:2.5px; font-family:Arial" x="87.5" y="44">Jun</text><text fill="#FFFFFF" style="font-size:2.5px; font-family:Arial" x="103.0" y="44">Jul</text><text fill="#FFFFFF" style="font-size:2.5px; font-family:Arial" x="118.5" y="44">Aug</text><text fill="#FFFFFF" style="font-size:2.5px; font-family:Arial" x="134.0" y="44">Sep</text><text fill="#FFFFFF" style="font-size:2.5px; font-family:Arial" x="149.5" y="44">Oct</text><text fill="#FFFFFF" style="font-size:2.5px; font-family:Arial" x="165.0" y="44">Nov</text><text fill="#FFFFFF" style="font-size:2.5px; font-family:Arial" x="180.5" y="44">Dec</text><rect fill="#49f2ff" height="2.6" width="2.6" x="10.0" y="45.5"><title>2019-12-30 47 mins</title></rect><rect fill="#4be2ff" height="2.6" width="2.6" x="10.0" y="49.0"><title>2019-12-31 24 mins</title></rect><rect fill="#4cdcff" height="2.6" width="2.6" x="10.0" y="52.5"><title>2020-01-01 16 mins</title></rect><rect fill="#49f0ff" height="2.6" width="2.6" x="10.0" y="56.0"><title>2020-01-02 44 mins</title></rect><rect fill="#48f8ff" height="2.6" width="2.6" x="10.0" y="59.5"><title>2020-01-03 55 mins</title></rect><rect fill="#48f8ff" height="2.6" width="2.6" x="10.0" y="63.0"><title>2020-01-04 55 mins</title></rect><rect fill="#49f3ff" height="2.6" width="2.6" x="10.0" y="66.5"><title>2020-01-05 49 mins</title></rect><rect fill="#ffe400" height="2.6" width="2.6" x="13.5" y="45.5"><title>2020-01-06 89 mins</title></rect><rect fill="#48fbff" height="2.6" width="2.6" x="13.5" y="49.0"><title>2020-01-07 59 mins</title></rect><rect fill="#48fbff" height="2.6" width="2.6" x="13.5" y="52.5"><title>2020-01-08 59 mins</title></rect><rect fill="#48f6ff" height="2.6" width="2.6" x="13.5" y="56.0"><title>2020-01-09 53 mins</title></rect><rect fill="#46fff6" height="2.6" width="2.6" x="13.5" y="59.5"><title>2020-01-10 78 mins</title></rect><rect fill="#49eeff" height="2.6" width="2.6" x="13.5" y="63.0"><title>2020-01-11 42 mins</title></rect><rect fill="#4ae8ff" height="2.6" width="2.6" x="13.5" y="66.5"><title>2020-01-12 33 mins</title></rect><rect fill="#46fffa" height="2.6" width="2.6" x="17.0" y="45.5"><title>2020-01-13 72 mins</title></rect><rect fill="#46fff6" height="2.6" width="2.6" x="17.0" y="49.0"><title>2020-01-14 78 mins</title></rect><rect fill="#47feff" height="2.6" width="2.6" x="17.0" y="52.5"><title>2020-01-15 64 mins</title></rect><rect fill="#48f4ff" height="2.6" width="2.6" x="17.0" y="56.0"><title>2020-01-16 50 mins</title></rect><rect fill="#48f8ff" height="2.6" width="2.6" x="17.0" y="59.5"><title>2020-01-17 55 mins</title></rect><rect fill="red" height="2.6" width="2.6" x="17.0" y="63.0"><title>2020-01-18 174 mins</title></rect><rect fill="#4cdcff" height="2.6" width="2.6" x="17.0" y="66.5"><title>2020-01-19 16 mins</title></rect><rect fill="#48f4ff" height="2.6" width="2.6" x="20.5" y="45.5"><title>2020-01-20 50 mins</title></rect><rect fill="#4ae9ff" height="2.6" width="2.6" x="20.5" y="49.0"><title>2020-01-21 35 mins</title></rect><rect fill="#49eeff" height="2.6" width="2.6" x="20.5" y="52.5"><title>2020-01-22 41 mins</title></rect><rect fill="#49f0ff" height="2.6" width="2.6" x="20.5" y="56.0"><title>2020-01-23 44 mins</title></rect><rect fill="#46fff8" height="2.6" width="2.6" x="20.5" y="59.5"><title>2020-01-24 75 mins</title></rect><rect fill="#4aecff" height="2.6" width="2.6" x="20.5" y="63.0"><title>2020-01-25 38 mins</title></rect><rect fill="#4cd6ff" height="2.6" width="2.6" x="20.5" y="66.5"><title>2020-01-26 7 mins</title></rect><rect fill="#4bdfff" height="2.6" width="2.6" x="24.0" y="45.5"><title>2020-01-27 20 mins</title></rect><rect fill="#49f1ff" height="2.6" width="2.6" x="24.0" y="49.0"><title>2020-01-28 46 mins</title></rect><rect fill="#46fff9" height="2.6" width="2.6" x="24.0" y="52.5"><title>2020-01-29 73 mins</title></rect><rect fill="#46fff5" height="2.6" width="2.6" x="24.0" y="56.0"><title>2020-01-30 79 mins</title></rect><rect fill="#49f3ff" height="2.6" width="2.6" x="24.0" y="59.5"><title>2020-01-31 49 mins</title></rect><rect fill="#48f4ff" height="2.6" width="2.6" x="24.0" y="63.0"><title>2020-02-01 50 mins</title></rect><rect fill="#47fffb" height="2.6" width="2.6" x="24.0" y="66.5"><title>2020-02-02 70 mins</title></rect><rect fill="#47fffe" height="2.6" width="2.6" x="27.5" y="45.5"><title>2020-02-03 66 mins</title></rect><rect fill="#47fffd" height="2.6" width="2.6" x="27.5" y="49.0"><title>2020-02-04 68 mins</title></rect><rect fill="#47fffc" height="2.6" width="2.6" x="27.5" y="52.5"><title>2020-02-05 69 mins</title></rect><rect fill="#49f1ff" height="2.6" width="2.6" x="27.5" y="56.0"><title>2020-02-06 45 mins</title></rect><rect fill="#ffe000" height="2.6" width="2.6" x="27.5" y="59.5"><title>2020-02-07 102 mins</title></rect><rect fill="#47fdff" height="2.6" width="2.6" x="27.5" y="63.0"><title>2020-02-08 63 mins</title></rect><rect fill="#ffe500" height="2.6" width="2.6" x="27.5" y="66.5"><title>2020-02-09 85 mins</title></rect><rect fill="#49edff" height="2.6" width="2.6" x="31.0" y="45.5"><title>2020-02-10 40 mins</title></rect><rect fill="#48f7ff" height="2.6" width="2.6" x="31.0" y="49.0"><title>2020-02-11 54 mins</title></rect><rect fill="#46fffb" height="2.6" width="2.6" x="31.0" y="52.5"><title>2020-02-12 71 mins</title></rect><rect fill="#46fff9" height="2.6" width="2.6" x="31.0" y="56.0"><title>2020-02-13 73 mins</title></rect><rect fill="#45fff1" height="2.6" width="2.6" x="31.0" y="59.5"><title>2020-02-14 84 mins</title></rect><rect fill="red" height="2.6" width="2.6" x="31.0" y="63.0"><title>2020-02-15 147 mins</title></rect><rect fill="#46fff5" height="2.6" width="2.6" x="31.0" y="66.5"><title>2020-02-16 79 mins</title></rect><rect fill="#46fffa" height="2.6" width="2.6" x="34.5" y="45.5"><title>2020-02-17 72 mins</title></rect><rect fill="#4be0ff" height="2.6" width="2.6" x="34.5" y="49.0"><title>2020-02-18 22 mins</title></rect><rect fill="#47fffb" height="2.6" width="2.6" x="34.5" y="52.5"><title>2020-02-19 70 mins</title></rect><rect fill="#4ae9ff" height="2.6" width="2.6" x="34.5" y="56.0"><title>2020-02-20 35 mins</title></rect><rect fill="#ffd700" height="2.6" width="2.6" x="34.5" y="59.5"><title>2020-02-21 131 mins</title></rect><rect fill="red" height="2.6" width="2.6" x="34.5" y="63.0"><title>2020-02-22 144 mins</title></rect><rect fill="red" height="2.6" width="2.6" x="34.5" y="66.5"><title>2020-02-23 158 mins</title></rect><rect fill="#ffdf00" height="2.6" width="2.6" x="38.0" y="45.5"><title>2020-02-24 105 mins</title></rect><rect fill="#49f3ff" height="2.6" width="2.6" x="38.0" y="49.0"><title>2020-02-25 48 mins</title></rect><rect fill="#4be0ff" height="2.6" width="2.6" x="38.0" y="52.5"><title>2020-02-26 22 mins</title></rect><rect fill="#49f0ff" height="2.6" width="2.6" x="38.0" y="56.0"><title>2020-02-27 44 mins</title></rect><rect fill="#48faff" height="2.6" width="2.6" x="38.0" y="59.5"><title>2020-02-28 58 mins</title></rect><rect fill="#4cd7ff" height="2.6" width="2.6" x="38.0" y="63.0"><title>2020-02-29 8 mins</title></rect><rect fill="#45fff1" height="2.6" width="2.6" x="38.0" y="66.5"><title>2020-03-01 84 mins</title></rect><rect fill="#49f1ff" height="2.6" width="2.6" x="41.5" y="45.5"><title>2020-03-02 45 mins</title></rect><rect fill="#47ffff" height="2.6" width="2.6" x="41.5" y="49.0"><title>2020-03-03 65 mins</title></rect><rect fill="#47ffff" height="2.6" width="2.6" x="41.5" y="52.5"><title>2020-03-04 65 mins</title></rect><rect fill="#49efff" height="2.6" width="2.6" x="41.5" y="56.0"><title>2020-03-05 43 mins</title></rect><rect fill="#48f7ff" height="2.6" width="2.6" x="41.5" y="59.5"><title>2020-03-06 54 mins</title></rect><rect fill="#4cdcff" height="2.6" width="2.6" x="41.5" y="63.0"><title>2020-03-07 16 mins</title></rect><rect fill="#4be4ff" height="2.6" width="2.6" x="41.5" y="66.5"><title>2020-03-08 27 mins</title></rect><rect fill="#4aeaff" height="2.6" width="2.6" x="45.0" y="45.5"><title>2020-03-09 36 mins</title></rect><rect fill="#4aeaff" height="2.6" width="2.6" x="45.0" y="49.0"><title>2020-03-10 36 mins</title></rect><rect fill="#4aecff" height="2.6" width="2.6" x="45.0" y="52.5"><title>2020-03-11 38 mins</title></rect><rect fill="#45fff3" height="2.6" width="2.6" x="45.0" y="56.0"><title>2020-03-12 82 mins</title></rect><rect fill="#47fffb" height="2.6" width="2.6" x="45.0" y="59.5"><title>2020-03-13 70 mins</title></rect><rect fill="#48f8ff" height="2.6" width="2.6" x="45.0" y="63.0"><title>2020-03-14 56 mins</title></rect><rect fill="#4be1ff" height="2.6" width="2.6" x="45.0" y="66.5"><title>2020-03-15 23 mins</title></rect><rect fill="#47fdff" height="2.6" width="2.6" x="48.5" y="45.5"><title>2020-03-16 62 mins</title></rect><rect fill="#4dd4ff" height="2.6" width="2.6" x="48.5" y="49.0"><title>2020-03-17 4 mins</title></rect><rect fill="#4dd2ff" height="2.6" width="2.6" x="48.5" y="52.5"><title>2020-03-18 1 mins</title></rect><rect fill="#4cd7ff" height="2.6" width="2.6" x="48.5" y="56.0"><title>2020-03-19 8 mins</title></rect><rect fill="#4cd8ff" height="2.6" width="2.6" x="48.5" y="59.5"><title>2020-03-20 10 mins</title></rect><rect fill="#4bdfff" height="2.6" width="2.6" x="48.5" y="63.0"><title>2020-03-21 20 mins</title></rect><rect fill="#4cd7ff" height="2.6" width="2.6" x="48.5" y="66.5"><title>2020-03-22 9 mins</title></rect><rect fill="#49eeff" height="2.6" width="2.6" x="52.0" y="45.5"><title>2020-03-23 42 mins</title></rect><rect fill="#4cd8ff" height="2.6" width="2.6" x="52.0" y="49.0"><title>2020-03-24 10 mins</title></rect><rect fill="#48faff" height="2.6" width="2.6" x="52.0" y="52.5"><title>2020-03-25 58 mins</title></rect><rect fill="#4ae5ff" height="2.6" width="2.6" x="52.0" y="56.0"><title>2020-03-26 29 mins</title></rect><rect fill="#4cd7ff" height="2.6" width="2.6" x="52.0" y="59.5"><title>2020-03-27 8 mins</title></rect><rect fill="#4be1ff" height="2.6" width="2.6" x="52.0" y="63.0"><title>2020-03-28 23 mins</title></rect><rect fill="#4dd5ff" height="2.6" width="2.6" x="52.0" y="66.5"><title>2020-03-29 6 mins</title></rect><rect fill="#4dd5ff" height="2.6" width="2.6" x="55.5" y="45.5"><title>2020-03-30 6 mins</title></rect><rect fill="#49edff" height="2.6" width="2.6" x="55.5" y="49.0"><title>2020-03-31 40 mins</title></rect><rect fill="#444444" height="2.6" width="2.6" x="55.5" y="52.5"><title>2020-04-01</title></rect><rect fill="#4cd9ff" height="2.6" width="2.6" x="55.5" y="56.0"><title>2020-04-02 11 mins</title></rect><rect fill="#4cd8ff" height="2.6" width="2.6" x="55.5" y="59.5"><title>2020-04-03 10 mins</title></rect><rect fill="#4dd3ff" height="2.6" width="2.6" x="55.5" y="63.0"><title>2020-04-04 3 mins</title></rect><rect fill="#4dd4ff" height="2.6" width="2.6" x="55.5" y="66.5"><title>2020-04-05 4 mins</title></rect><rect fill="#4cd7ff" height="2.6" width="2.6" x="59.0" y="45.5"><title>2020-04-06 8 mins</title></rect><rect fill="#4dd2ff" height="2.6" width="2.6" x="59.0" y="49.0"><title>2020-04-07 1 mins</title></rect><rect fill="#4dd4ff" height="2.6" width="2.6" x="59.0" y="52.5"><title>2020-04-08 4 mins</title></rect><rect fill="#4cd7ff" height="2.6" width="2.6" x="59.0" y="56.0"><title>2020-04-09 8 mins</title></rect><rect fill="#4dd3ff" height="2.6" width="2.6" x="59.0" y="59.5"><title>2020-04-10 2 mins</title></rect><rect fill="#49f0ff" height="2.6" width="2.6" x="59.0" y="63.0"><title>2020-04-11 44 mins</title></rect><rect fill="#4cd9ff" height="2.6" width="2.6" x="59.0" y="66.5"><title>2020-04-12 11 mins</title></rect><rect fill="#4dd4ff" height="2.6" width="2.6" x="62.5" y="45.5"><title>2020-04-13 4 mins</title></rect><rect fill="#4cd8ff" height="2.6" width="2.6" x="62.5" y="49.0"><title>2020-04-14 10 mins</title></rect><rect fill="#4dd3ff" height="2.6" width="2.6" x="62.5" y="52.5"><title>2020-04-15 2 mins</title></rect><rect fill="#4be0ff" height="2.6" width="2.6" x="62.5" y="56.0"><title>2020-04-16 22 mins</title></rect><rect fill="#4cd9ff" height="2.6" width="2.6" x="62.5" y="59.5"><title>2020-04-17 11 mins</title></rect><rect fill="#444444" height="2.6" width="2.6" x="62.5" y="63.0"><title>2020-04-18</title></rect><rect fill="#49ecff" height="2.6" width="2.6" x="62.5" y="66.5"><title>2020-04-19 39 mins</title></rect><rect fill="#4dd3ff" height="2.6" width="2.6" x="66.0" y="45.5"><title>2020-04-20 2 mins</title></rect><rect fill="#4ae5ff" height="2.6" width="2.6" x="66.0" y="49.0"><title>2020-04-21 28 mins</title></rect><rect fill="#4dd2ff" height="2.6" width="2.6" x="66.0" y="52.5"><title>2020-04-22 1 mins</title></rect><rect fill="#4cd7ff" height="2.6" width="2.6" x="66.0" y="56.0"><title>2020-04-23 8 mins</title></rect><rect fill="#4dd3ff" height="2.6" width="2.6" x="66.0" y="59.5"><title>2020-04-24 2 mins</title></rect><rect fill="#4aecff" height="2.6" width="2.6" x="66.0" y="63.0"><title>2020-04-25 38 mins</title></rect><rect fill="#4dd3ff" height="2.6" width="2.6" x="66.0" y="66.5"><title>2020-04-26 2 mins</title></rect><rect fill="#4dd5ff" height="2.6" width="2.6" x="69.5" y="45.5"><title>2020-04-27 6 mins</title></rect><rect fill="#4dd4ff" height="2.6" width="2.6" x="69.5" y="49.0"><title>2020-04-28 4 mins</title></rect><rect fill="#4cd6ff" height="2.6" width="2.6" x="69.5" y="52.5"><title>2020-04-29 7 mins</title></rect><rect fill="#4be1ff" height="2.6" width="2.6" x="69.5" y="56.0"><title>2020-04-30 23 mins</title></rect><rect fill="#4dd5ff" height="2.6" width="2.6" x="69.5" y="59.5"><title>2020-05-01 5 mins</title></rect><rect fill="#4dd3ff" height="2.6" width="2.6" x="69.5" y="63.0"><title>2020-05-02 2 mins</title></rect><rect fill="#49ecff" height="2.6" width="2.6" x="69.5" y="66.5"><title>2020-05-03 39 mins</title></rect><rect fill="#4dd2ff" height="2.6" width="2.6" x="73.0" y="45.5"><title>2020-05-04 1 mins</title></rect><rect fill="#4cddff" height="2.6" width="2.6" x="73.0" y="49.0"><title>2020-05-05 17 mins</title></rect><rect fill="#4cd7ff" height="2.6" width="2.6" x="73.0" y="52.5"><title>2020-05-06 8 mins</title></rect><rect fill="#4dd2ff" height="2.6" width="2.6" x="73.0" y="56.0"><title>2020-05-07 1 mins</title></rect><rect fill="#4dd5ff" height="2.6" width="2.6" x="73.0" y="59.5"><title>2020-05-08 5 mins</title></rect><rect fill="#4cd7ff" height="2.6" width="2.6" x="73.0" y="63.0"><title>2020-05-09 8 mins</title></rect><rect fill="#444444" height="2.6" width="2.6" x="73.0" y="66.5"><title>2020-05-10</title></rect><rect fill="#4dd3ff" height="2.6" width="2.6" x="76.5" y="45.5"><title>2020-05-11 3 mins</title></rect><rect fill="#4dd3ff" height="2.6" width="2.6" x="76.5" y="49.0"><title>2020-05-12 2 mins</title></rect><rect fill="#4dd3ff" height="2.6" width="2.6" x="76.5" y="52.5"><title>2020-05-13 3 mins</title></rect><rect fill="#4dd3ff" height="2.6" width="2.6" x="76.5" y="56.0"><title>2020-05-14 3 mins</title></rect><rect fill="#4dd2ff" height="2.6" width="2.6" x="76.5" y="59.5"><title>2020-05-15 1 mins</title></rect><rect fill="#4be2ff" height="2.6" width="2.6" x="76.5" y="63.0"><title>2020-05-16 24 mins</title></rect><rect fill="#444444" height="2.6" width="2.6" x="76.5" y="66.5"><title>2020-05-17</title></rect><rect fill="#47fdff" height="2.6" width="2.6" x="80.0" y="45.5"><title>2020-05-18 63 mins</title></rect><rect fill="#4dd4ff" height="2.6" width="2.6" x="80.0" y="49.0"><title>2020-05-19 4 mins</title></rect><rect fill="#4dd5ff" height="2.6" width="2.6" x="80.0" y="52.5"><title>2020-05-20 5 mins</title></rect><rect fill="#4dd5ff" height="2.6" width="2.6" x="80.0" y="56.0"><title>2020-05-21 6 mins</title></rect><rect fill="#4cd7ff" height="2.6" width="2.6" x="80.0" y="59.5"><title>2020-05-22 9 mins</title></rect><rect fill="#4cdaff" height="2.6" width="2.6" x="80.0" y="63.0"><title>2020-05-23 13 mins</title></rect><rect fill="#47fffc" height="2.6" width="2.6" x="80.0" y="66.5"><title>2020-05-24 69 mins</title></rect><rect fill="#4dd5ff" height="2.6" width="2.6" x="83.5" y="45.5"><title>2020-05-25 6 mins</title></rect><rect fill="#4cdaff" height="2.6" width="2.6" x="83.5" y="49.0"><title>2020-05-26 13 mins</title></rect><rect fill="#4cdaff" height="2.6" width="2.6" x="83.5" y="52.5"><title>2020-05-27 13 mins</title></rect><rect fill="#4dd4ff" height="2.6" width="2.6" x="83.5" y="56.0"><title>2020-05-28 4 mins</title></rect><rect fill="#4cdaff" height="2.6" width="2.6" x="83.5" y="59.5"><title>2020-05-29 12 mins</title></rect><rect fill="#4cdcff" height="2.6" width="2.6" x="83.5" y="63.0"><title>2020-05-30 16 mins</title></rect><rect fill="#4cd7ff" height="2.6" width="2.6" x="83.5" y="66.5"><title>2020-05-31 9 mins</title></rect><rect fill="#4bdfff" height="2.6" width="2.6" x="87.0" y="45.5"><title>2020-06-01 20 mins</title></rect><rect fill="#4cd9ff" height="2.6" width="2.6" x="87.0" y="49.0"><title>2020-06-02 11 mins</title></rect><rect fill="#4cd7ff" height="2.6" width="2.6" x="87.0" y="52.5"><title>2020-06-03 8 mins</title></rect><rect fill="#4cdcff" height="2.6" width="2.6" x="87.0" y="56.0"><title>2020-06-04 15 mins</title></rect><rect fill="#4cd6ff" height="2.6" width="2.6" x="87.0" y="59.5"><title>2020-06-05 7 mins</title></rect><rect fill="#4be0ff" height="2.6" width="2.6" x="87.0" y="63.0"><title>2020-06-06 21 mins</title></rect><rect fill="#49eeff" height="2.6" width="2.6" x="87.0" y="66.5"><title>2020-06-07 41 mins</title></rect><rect fill="#4bdeff" height="2.6" width="2.6" x="90.5" y="45.5"><title>2020-06-08 19 mins</title></rect><rect fill="#4dd5ff" height="2.6" width="2.6" x="90.5" y="49.0"><title>2020-06-09 5 mins</title></rect><rect fill="#4dd5ff" height="2.6" width="2.6" x="90.5" y="52.5"><title>2020-06-10 6 mins</title></rect><rect fill="#4dd5ff" height="2.6" width="2.6" x="90.5" y="56.0"><title>2020-06-11 6 mins</title></rect><rect fill="#4dd4ff" height="2.6" width="2.6" x="90.5" y="59.5"><title>2020-06-12 4 mins</title></rect><rect fill="#4cdbff" height="2.6" width="2.6" x="90.5" y="63.0"><title>2020-06-13 14 mins</title></rect><rect fill="#4bdeff" height="2.6" width="2.6" x="90.5" y="66.5"><title>2020-06-14 19 mins</title></rect><rect fill="#4cd8ff" height="2.6" width="2.6" x="94.0" y="45.5"><title>2020-06-15 10 mins</title></rect><rect fill="#4cd7ff" height="2.6" width="2.6" x="94.0" y="49.0"><title>2020-06-16 8 mins</title></rect><rect fill="#4be0ff" height="2.6" width="2.6" x="94.0" y="52.5"><title>2020-06-17 21 mins</title></rect><rect fill="#4cdcff" height="2.6" width="2.6" x="94.0" y="56.0"><title>2020-06-18 16 mins</title></rect><rect fill="#4bdeff" height="2.6" width="2.6" x="94.0" y="59.5"><title>2020-06-19 19 mins</title></rect><rect fill="#4be2ff" height="2.6" width="2.6" x="94.0" y="63.0"><title>2020-06-20 25 mins</title></rect><rect fill="#4dd4ff" height="2.6" width="2.6" x="94.0" y="66.5"><title>2020-06-21 4 mins</title></rect><rect fill="#4bdeff" height="2.6" width="2.6" x="97.5" y="45.5"><title>2020-06-22 18 mins</title></rect><rect fill="#4dd3ff" height="2.6" width="2.6" x="97.5" y="49.0"><title>2020-06-23 2 mins</title></rect><rect fill="#4dd3ff" height="2.6" width="2.6" x="97.5" y="52.5"><title>2020-06-24 3 mins</title></rect><rect fill="#4dd3ff" height="2.6" width="2.6" x="97.5" y="56.0"><title>2020-06-25 3 mins</title></rect><rect fill="#4dd3ff" height="2.6" width="2.6" x="97.5" y="59.5"><title>2020-06-26 3 mins</title></rect><rect fill="#4cdcff" height="2.6" width="2.6" x="97.5" y="63.0"><title>2020-06-27 16 mins</title></rect><rect fill="#4cd6ff" height="2.6" width="2.6" x="97.5" y="66.5"><title>2020-06-28 7 mins</title></rect><rect fill="#4be2ff" height="2.6" width="2.6" x="101.0" y="45.5"><title>2020-06-29 24 mins</title></rect><rect fill="#4be0ff" height="2.6" width="2.6" x="101.0" y="49.0"><title>2020-06-30 21 mins</title></rect><rect fill="#4dd2ff" height="2.6" width="2.6" x="101.0" y="52.5"><title>2020-07-01 1 mins</title></rect><rect fill="#4cdaff" height="2.6" width="2.6" x="101.0" y="56.0"><title>2020-07-02 12 mins</title></rect><rect fill="#4cd9ff" height="2.6" width="2.6" x="101.0" y="59.5"><title>2020-07-03 11 mins</title></rect><rect fill="#46fff3" height="2.6" width="2.6" x="101.0" y="63.0"><title>2020-07-04 81 mins</title></rect><rect fill="#4cd8ff" height="2.6" width="2.6" x="101.0" y="66.5"><title>2020-07-05 10 mins</title></rect><rect fill="#4dd4ff" height="2.6" width="2.6" x="104.5" y="45.5"><title>2020-07-06 4 mins</title></rect><rect fill="#444444" height="2.6" width="2.6" x="104.5" y="49.0"><title>2020-07-07</title></rect><rect fill="#4be3ff" height="2.6" width="2.6" x="104.5" y="52.5"><title>2020-07-08 26 mins</title></rect><rect fill="#4dd4ff" height="2.6" width="2.6" x="104.5" y="56.0"><title>2020-07-09 4 mins</title></rect><rect fill="#4dd3ff" height="2.6" width="2.6" x="104.5" y="59.5"><title>2020-07-10 3 mins</title></rect><rect fill="#4ae5ff" height="2.6" width="2.6" x="104.5" y="63.0"><title>2020-07-11 29 mins</title></rect><rect fill="#4dd5ff" height="2.6" width="2.6" x="104.5" y="66.5"><title>2020-07-12 6 mins</title></rect><rect fill="#49f2ff" height="2.6" width="2.6" x="108.0" y="45.5"><title>2020-07-13 47 mins</title></rect><rect fill="#4cd6ff" height="2.6" width="2.6" x="108.0" y="49.0"><title>2020-07-14 7 mins</title></rect><rect fill="#4be4ff" height="2.6" width="2.6" x="108.0" y="52.5"><title>2020-07-15 27 mins</title></rect><rect fill="#4cd7ff" height="2.6" width="2.6" x="108.0" y="56.0"><title>2020-07-16 8 mins</title></rect><rect fill="#4bdeff" height="2.6" width="2.6" x="108.0" y="59.5"><title>2020-07-17 18 mins</title></rect><rect fill="#4ae9ff" height="2.6" width="2.6" x="108.0" y="63.0"><title>2020-07-18 35 mins</title></rect><rect fill="#4dd3ff" height="2.6" width="2.6" x="108.0" y="66.5"><title>2020-07-19 2 mins</title></rect><rect fill="#4cddff" height="2.6" width="2.6" x="111.5" y="45.5"><title>2020-07-20 17 mins</title></rect><rect fill="#4dd4ff" height="2.6" width="2.6" x="111.5" y="49.0"><title>2020-07-21 4 mins</title></rect><rect fill="#4dd3ff" height="2.6" width="2.6" x="111.5" y="52.5"><title>2020-07-22 3 mins</title></rect><rect fill="#4cd8ff" height="2.6" width="2.6" x="111.5" y="56.0"><title>2020-07-23 10 mins</title></rect><rect fill="#4dd3ff" height="2.6" width="2.6" x="111.5" y="59.5"><title>2020-07-24 2 mins</title></rect><rect fill="#49eeff" height="2.6" width="2.6" x="111.5" y="63.0"><title>2020-07-25 42 mins</title></rect><rect fill="#4dd2ff" height="2.6" width="2.6" x="111.5" y="66.5"><title>2020-07-26 1 mins</title></rect><rect fill="#4dd2ff" height="2.6" width="2.6" x="115.0" y="45.5"><title>2020-07-27 1 mins</title></rect><rect fill="#4dd5ff" height="2.6" width="2.6" x="115.0" y="49.0"><title>2020-07-28 6 mins</title></rect><rect fill="#4cd7ff" height="2.6" width="2.6" x="115.0" y="52.5"><title>2020-07-29 9 mins</title></rect><rect fill="#4dd3ff" height="2.6" width="2.6" x="115.0" y="56.0"><title>2020-07-30 3 mins</title></rect><rect fill="#4be1ff" height="2.6" width="2.6" x="115.0" y="59.5"><title>2020-07-31 23 mins</title></rect><rect fill="#4be0ff" height="2.6" width="2.6" x="115.0" y="63.0"><title>2020-08-01 21 mins</title></rect><rect fill="#4dd5ff" height="2.6" width="2.6" x="115.0" y="66.5"><title>2020-08-02 6 mins</title></rect><rect fill="#4dd3ff" height="2.6" width="2.6" x="118.5" y="45.5"><title>2020-08-03 3 mins</title></rect><rect fill="#4dd5ff" height="2.6" width="2.6" x="118.5" y="49.0"><title>2020-08-04 6 mins</title></rect><rect fill="#4dd4ff" height="2.6" width="2.6" x="118.5" y="52.5"><title>2020-08-05 4 mins</title></rect><rect fill="#4bdfff" height="2.6" width="2.6" x="118.5" y="56.0"><title>2020-08-06 20 mins</title></rect><rect fill="#4cd6ff" height="2.6" width="2.6" x="118.5" y="59.5"><title>2020-08-07 7 mins</title></rect><rect fill="#4aeaff" height="2.6" width="2.6" x="118.5" y="63.0"><title>2020-08-08 36 mins</title></rect><rect fill="#4dd4ff" height="2.6" width="2.6" x="118.5" y="66.5"><title>2020-08-09 4 mins</title></rect><rect fill="#4cd6ff" height="2.6" width="2.6" x="122.0" y="45.5"><title>2020-08-10 7 mins</title></rect><rect fill="#4cdaff" height="2.6" width="2.6" x="122.0" y="49.0"><title>2020-08-11 12 mins</title></rect><rect fill="#4cd9ff" height="2.6" width="2.6" x="122.0" y="52.5"><title>2020-08-12 11 mins</title></rect><rect fill="#4dd3ff" height="2.6" width="2.6" x="122.0" y="56.0"><title>2020-08-13 3 mins</title></rect><rect fill="#4cdaff" height="2.6" width="2.6" x="122.0" y="59.5"><title>2020-08-14 13 mins</title></rect><rect fill="#4ae6ff" height="2.6" width="2.6" x="122.0" y="63.0"><title>2020-08-15 30 mins</title></rect><rect fill="#4be3ff" height="2.6" width="2.6" x="122.0" y="66.5"><title>2020-08-16 26 mins</title></rect><rect fill="#4dd5ff" height="2.6" width="2.6" x="125.5" y="45.5"><title>2020-08-17 5 mins</title></rect><rect fill="#444444" height="2.6" width="2.6" x="125.5" y="49.0"><title>2020-08-18</title></rect><rect fill="#4dd3ff" height="2.6" width="2.6" x="125.5" y="52.5"><title>2020-08-19 3 mins</title></rect><rect fill="#4cd6ff" height="2.6" width="2.6" x="125.5" y="56.0"><title>2020-08-20 7 mins</title></rect><rect fill="#49f0ff" height="2.6" width="2.6" x="125.5" y="59.5"><title>2020-08-21 44 mins</title></rect><rect fill="#4be1ff" height="2.6" width="2.6" x="125.5" y="63.0"><title>2020-08-22 23 mins</title></rect><rect fill="#4be0ff" height="2.6" width="2.6" x="125.5" y="66.5"><title>2020-08-23 21 mins</title></rect><rect fill="#4ae8ff" height="2.6" width="2.6" x="129.0" y="45.5"><title>2020-08-24 33 mins</title></rect><rect fill="#4cd7ff" height="2.6" width="2.6" x="129.0" y="49.0"><title>2020-08-25 9 mins</title></rect><rect fill="#4dd2ff" height="2.6" width="2.6" x="129.0" y="52.5"><title>2020-08-26 1 mins</title></rect><rect fill="#4dd5ff" height="2.6" width="2.6" x="129.0" y="56.0"><title>2020-08-27 5 mins</title></rect><rect fill="#4dd2ff" height="2.6" width="2.6" x="129.0" y="59.5"><title>2020-08-28 1 mins</title></rect><rect fill="#47fffd" height="2.6" width="2.6" x="129.0" y="63.0"><title>2020-08-29 68 mins</title></rect><rect fill="#ffdf00" height="2.6" width="2.6" x="129.0" y="66.5"><title>2020-08-30 106 mins</title></rect><rect fill="#4bdeff" height="2.6" width="2.6" x="132.5" y="45.5"><title>2020-08-31 19 mins</title></rect><rect fill="#4be4ff" height="2.6" width="2.6" x="132.5" y="49.0"><title>2020-09-01 27 mins</title></rect><rect fill="#4cdcff" height="2.6" width="2.6" x="132.5" y="52.5"><title>2020-09-02 15 mins</title></rect><rect fill="#4dd5ff" height="2.6" width="2.6" x="132.5" y="56.0"><title>2020-09-03 6 mins</title></rect><rect fill="#47fdff" height="2.6" width="2.6" x="132.5" y="59.5"><title>2020-09-04 63 mins</title></rect><rect fill="#4ae5ff" height="2.6" width="2.6" x="132.5" y="63.0"><title>2020-09-05 28 mins</title></rect><rect fill="#4cdbff" height="2.6" width="2.6" x="132.5" y="66.5"><title>2020-09-06 14 mins</title></rect><rect fill="#4cd7ff" height="2.6" width="2.6" x="136.0" y="45.5"><title>2020-09-07 9 mins</title></rect><rect fill="#4dd3ff" height="2.6" width="2.6" x="136.0" y="49.0"><title>2020-09-08 3 mins</title></rect><rect fill="#4dd5ff" height="2.6" width="2.6" x="136.0" y="52.5"><title>2020-09-09 5 mins</title></rect><rect fill="#4cdaff" height="2.6" width="2.6" x="136.0" y="56.0"><title>2020-09-10 12 mins</title></rect><rect fill="#49eeff" height="2.6" width="2.6" x="136.0" y="59.5"><title>2020-09-11 42 mins</title></rect><rect fill="#49efff" height="2.6" width="2.6" x="136.0" y="63.0"><title>2020-09-12 43 mins</title></rect><rect fill="#4dd4ff" height="2.6" width="2.6" x="136.0" y="66.5"><title>2020-09-13 4 mins</title></rect><rect fill="#4dd3ff" height="2.6" width="2.6" x="139.5" y="45.5"><title>2020-09-14 3 mins</title></rect><rect fill="#4bdeff" height="2.6" width="2.6" x="139.5" y="49.0"><title>2020-09-15 18 mins</title></rect><rect fill="#48f6ff" height="2.6" width="2.6" x="139.5" y="52.5"><title>2020-09-16 53 mins</title></rect><rect fill="#48faff" height="2.6" width="2.6" x="139.5" y="56.0"><title>2020-09-17 58 mins</title></rect><rect fill="#ffe400" height="2.6" width="2.6" x="139.5" y="59.5"><title>2020-09-18 89 mins</title></rect><rect fill="#4cddff" height="2.6" width="2.6" x="139.5" y="63.0"><title>2020-09-19 17 mins</title></rect><rect fill="#4be2ff" height="2.6" width="2.6" x="139.5" y="66.5"><title>2020-09-20 25 mins</title></rect><rect fill="#4bdfff" height="2.6" width="2.6" x="143.0" y="45.5"><title>2020-09-21 20 mins</title></rect><rect fill="#49eeff" height="2.6" width="2.6" x="143.0" y="49.0"><title>2020-09-22 41 mins</title></rect><rect fill="#4dd3ff" height="2.6" width="2.6" x="143.0" y="52.5"><title>2020-09-23 2 mins</title></rect><rect fill="#4cd6ff" height="2.6" width="2.6" x="143.0" y="56.0"><title>2020-09-24 7 mins</title></rect><rect fill="#4cdcff" height="2.6" width="2.6" x="143.0" y="59.5"><title>2020-09-25 15 mins</title></rect><rect fill="#47fffb" height="2.6" width="2.6" x="143.0" y="63.0"><title>2020-09-26 70 mins</title></rect><rect fill="#4cd7ff" height="2.6" width="2.6" x="143.0" y="66.5"><title>2020-09-27 9 mins</title></rect><rect fill="#49f3ff" height="2.6" width="2.6" x="146.5" y="45.5"><title>2020-09-28 49 mins</title></rect><rect fill="#4be0ff" height="2.6" width="2.6" x="146.5" y="49.0"><title>2020-09-29 21 mins</title></rect><rect fill="#47fcff" height="2.6" width="2.6" x="146.5" y="52.5"><title>2020-09-30 61 mins</title></rect><rect fill="#49edff" height="2.6" width="2.6" x="146.5" y="56.0"><title>2020-10-01 40 mins</title></rect><rect fill="#4ae5ff" height="2.6" width="2.6" x="146.5" y="59.5"><title>2020-10-02 29 mins</title></rect><rect fill="#48f4ff" height="2.6" width="2.6" x="146.5" y="63.0"><title>2020-10-03 50 mins</title></rect><rect fill="#4be0ff" height="2.6" width="2.6" x="146.5" y="66.5"><title>2020-10-04 22 mins</title></rect><rect fill="#4dd2ff" height="2.6" width="2.6" x="150.0" y="45.5"><title>2020-10-05 1 mins</title></rect><rect fill="#49f3ff" height="2.6" width="2.6" x="150.0" y="49.0"><title>2020-10-06 49 mins</title></rect><rect fill="#48f6ff" height="2.6" width="2.6" x="150.0" y="52.5"><title>2020-10-07 52 mins</title></rect><rect fill="#49eeff" height="2.6" width="2.6" x="150.0" y="56.0"><title>2020-10-08 41 mins</title></rect><rect fill="#48faff" height="2.6" width="2.6" x="150.0" y="59.5"><title>2020-10-09 58 mins</title></rect><rect fill="#49edff" height="2.6" width="2.6" x="150.0" y="63.0"><title>2020-10-10 40 mins</title></rect><rect fill="#4aecff" height="2.6" width="2.6" x="150.0" y="66.5"><title>2020-10-11 38 mins</title></rect><rect fill="#49ecff" height="2.6" width="2.6" x="153.5" y="45.5"><title>2020-10-12 39 mins</title></rect><rect fill="#4be4ff" height="2.6" width="2.6" x="153.5" y="49.0"><title>2020-10-13 27 mins</title></rect><rect fill="#47fffd" height="2.6" width="2.6" x="153.5" y="52.5"><title>2020-10-14 68 mins</title></rect><rect fill="#49f1ff" height="2.6" width="2.6" x="153.5" y="56.0"><title>2020-10-15 45 mins</title></rect><rect fill="#4cd6ff" height="2.6" width="2.6" x="153.5" y="59.5"><title>2020-10-16 7 mins</title></rect><rect fill="#4cdcff" height="2.6" width="2.6" x="153.5" y="63.0"><title>2020-10-17 16 mins</title></rect><rect fill="#4ae8ff" height="2.6" width="2.6" x="153.5" y="66.5"><title>2020-10-18 33 mins</title></rect><rect fill="#4ae8ff" height="2.6" width="2.6" x="157.0" y="45.5"><title>2020-10-19 33 mins</title></rect><rect fill="#47fdff" height="2.6" width="2.6" x="157.0" y="49.0"><title>2020-10-20 62 mins</title></rect><rect fill="#49edff" height="2.6" width="2.6" x="157.0" y="52.5"><title>2020-10-21 40 mins</title></rect><rect fill="#4ae5ff" height="2.6" width="2.6" x="157.0" y="56.0"><title>2020-10-22 29 mins</title></rect><rect fill="#4cdcff" height="2.6" width="2.6" x="157.0" y="59.5"><title>2020-10-23 15 mins</title></rect><rect fill="#47fffd" height="2.6" width="2.6" x="157.0" y="63.0"><title>2020-10-24 68 mins</title></rect><rect fill="#4cd7ff" height="2.6" width="2.6" x="157.0" y="66.5"><title>2020-10-25 9 mins</title></rect><rect fill="#4aebff" height="2.6" width="2.6" x="160.5" y="45.5"><title>2020-10-26 37 mins</title></rect><rect fill="#47ffff" height="2.6" width="2.6" x="160.5" y="49.0"><title>2020-10-27 65 mins</title></rect><rect fill="#49f1ff" height="2.6" width="2.6" x="160.5" y="52.5"><title>2020-10-28 45 mins</title></rect><rect fill="#49ecff" height="2.6" width="2.6" x="160.5" y="56.0"><title>2020-10-29 39 mins</title></rect><rect fill="#4cd7ff" height="2.6" width="2.6" x="160.5" y="59.5"><title>2020-10-30 8 mins</title></rect><rect fill="#ffd800" height="2.6" width="2.6" x="160.5" y="63.0"><title>2020-10-31 126 mins</title></rect><rect fill="#444444" height="2.6" width="2.6" x="160.5" y="66.5"><title>2020-11-01</title></rect><rect fill="#4ae6ff" height="2.6" width="2.6" x="164.0" y="45.5"><title>2020-11-02 30 mins</title></rect><rect fill="#4be0ff" height="2.6" width="2.6" x="164.0" y="49.0"><title>2020-11-03 22 mins</title></rect><rect fill="#4ae8ff" height="2.6" width="2.6" x="164.0" y="52.5"><title>2020-11-04 33 mins</title></rect><rect fill="#48f8ff" height="2.6" width="2.6" x="164.0" y="56.0"><title>2020-11-05 55 mins</title></rect><rect fill="#49f1ff" height="2.6" width="2.6" x="164.0" y="59.5"><title>2020-11-06 46 mins</title></rect><rect fill="#46fff6" height="2.6" width="2.6" x="164.0" y="63.0"><title>2020-11-07 78 mins</title></rect><rect fill="#4ae5ff" height="2.6" width="2.6" x="164.0" y="66.5"><title>2020-11-08 28 mins</title></rect><rect fill="#49ecff" height="2.6" width="2.6" x="167.5" y="45.5"><title>2020-11-09 39 mins</title></rect><rect fill="#4cd7ff" height="2.6" width="2.6" x="167.5" y="49.0"><title>2020-11-10 8 mins</title></rect><rect fill="#4be1ff" height="2.6" width="2.6" x="167.5" y="52.5"><title>2020-11-11 23 mins</title></rect><rect fill="#4cdcff" height="2.6" width="2.6" x="167.5" y="56.0"><title>2020-11-12 15 mins</title></rect><rect fill="#48fbff" height="2.6" width="2.6" x="167.5" y="59.5"><title>2020-11-13 59 mins</title></rect><rect fill="#4cd7ff" height="2.6" width="2.6" x="167.5" y="63.0"><title>2020-11-14 9 mins</title></rect><rect fill="#ffe100" height="2.6" width="2.6" x="167.5" y="66.5"><title>2020-11-15 99 mins</title></rect><rect fill="#4dd4ff" height="2.6" width="2.6" x="171.0" y="45.5"><title>2020-11-16 4 mins</title></rect><rect fill="#49f1ff" height="2.6" width="2.6" x="171.0" y="49.0"><title>2020-11-17 45 mins</title></rect><rect fill="#49ecff" height="2.6" width="2.6" x="171.0" y="52.5"><title>2020-11-18 39 mins</title></rect><rect fill="#4dd4ff" height="2.6" width="2.6" x="171.0" y="56.0"><title>2020-11-19 4 mins</title></rect><rect fill="#4be2ff" height="2.6" width="2.6" x="171.0" y="59.5"><title>2020-11-20 25 mins</title></rect><rect fill="#48f5ff" height="2.6" width="2.6" x="171.0" y="63.0"><title>2020-11-21 51 mins</title></rect><rect fill="#4aecff" height="2.6" width="2.6" x="171.0" y="66.5"><title>2020-11-22 38 mins</title></rect><rect fill="#4ae7ff" height="2.6" width="2.6" x="174.5" y="45.5"><title>2020-11-23 32 mins</title></rect><rect fill="#4ae9ff" height="2.6" width="2.6" x="174.5" y="49.0"><title>2020-11-24 34 mins</title></rect><rect fill="#4ae9ff" height="2.6" width="2.6" x="174.5" y="52.5"><title>2020-11-25 34 mins</title></rect><rect fill="#4ae5ff" height="2.6" width="2.6" x="174.5" y="56.0"><title>2020-11-26 29 mins</title></rect><rect fill="#4aeaff" height="2.6" width="2.6" x="174.5" y="59.5"><title>2020-11-27 36 mins</title></rect><rect fill="#46fff5" height="2.6" width="2.6" x="174.5" y="63.0"><title>2020-11-28 79 mins</title></rect><rect fill="#4dd2ff" height="2.6" width="2.6" x="174.5" y="66.5"><title>2020-11-29 1 mins</title></rect><rect fill="#48f5ff" height="2.6" width="2.6" x="178.0" y="45.5"><title>2020-11-30 51 mins</title></rect><rect fill="#4aebff" height="2.6" width="2.6" x="178.0" y="49.0"><title>2020-12-01 37 mins</title></rect><rect fill="#46fff5" height="2.6" width="2.6" x="178.0" y="52.5"><title>2020-12-02 79 mins</title></rect><rect fill="#49eeff" height="2.6" width="2.6" x="178.0" y="56.0"><title>2020-12-03 42 mins</title></rect><rect fill="#4be2ff" height="2.6" width="2.6" x="178.0" y="59.5"><title>2020-12-04 24 mins</title></rect><rect fill="#49f2ff" height="2.6" width="2.6" x="178.0" y="63.0"><title>2020-12-05 47 mins</title></rect><rect fill="#4dd5ff" height="2.6" width="2.6" x="178.0" y="66.5"><title>2020-12-06 5 mins</title></rect><rect fill="#4be0ff" height="2.6" width="2.6" x="181.5" y="45.5"><title>2020-12-07 22 mins</title></rect><rect fill="#4cdbff" height="2.6" width="2.6" x="181.5" y="49.0"><title>2020-12-08 14 mins</title></rect><rect fill="#4ae5ff" height="2.6" width="2.6" x="181.5" y="52.5"><title>2020-12-09 29 mins</title></rect><rect fill="#4dd3ff" height="2.6" width="2.6" x="181.5" y="56.0"><title>2020-12-10 2 mins</title></rect><rect fill="#4bdfff" height="2.6" width="2.6" x="181.5" y="59.5"><title>2020-12-11 20 mins</title></rect><rect fill="#4dd3ff" height="2.6" width="2.6" x="181.5" y="63.0"><title>2020-12-12 2 mins</title></rect><rect fill="#4cdcff" height="2.6" width="2.6" x="181.5" y="66.5"><title>2020-12-13 16 mins</title></rect><rect fill="#4ae7ff" height="2.6" width="2.6" x="185.0" y="45.5"><title>2020-12-14 31 mins</title></rect><rect fill="#4dd3ff" height="2.6" width="2.6" x="185.0" y="49.0"><title>2020-12-15 2 mins</title></rect><rect fill="#47fffd" height="2.6" width="2.6" x="185.0" y="52.5"><title>2020-12-16 68 mins</title></rect><rect fill="#4aebff" height="2.6" width="2.6" x="185.0" y="56.0"><title>2020-12-17 37 mins</title></rect><rect fill="#4ae9ff" height="2.6" width="2.6" x="185.0" y="59.5"><title>2020-12-18 34 mins</title></rect><rect fill="#49edff" height="2.6" width="2.6" x="185.0" y="63.0"><title>2020-12-19 40 mins</title></rect><rect fill="#49f1ff" height="2.6" width="2.6" x="185.0" y="66.5"><title>2020-12-20 46 mins</title></rect><rect fill="#46fffa" height="2.6" width="2.6" x="188.5" y="45.5"><title>2020-12-21 72 mins</title></rect><rect fill="#4dd5ff" height="2.6" width="2.6" x="188.5" y="49.0"><title>2020-12-22 5 mins</title></rect><rect fill="#444444" height="2.6" width="2.6" x="188.5" y="52.5"><title>2020-12-23</title></rect><rect fill="#444444" height="2.6" width="2.6" x="188.5" y="56.0"><title>2020-12-24</title></rect><rect fill="#444444" height="2.6" width="2.6" x="188.5" y="59.5"><title>2020-12-25</title></rect><rect fill="#444444" height="2.6" width="2.6" x="188.5" y="63.0"><title>2020-12-26</title></rect><rect fill="#444444" height="2.6" width="2.6" x="188.5" y="66.5"><title>2020-12-27</title></rect><rect fill="#444444" height="2.6" width="2.6" x="192.0" y="45.5"><title>2020-12-28</title></rect><rect fill="#444444" height="2.6" width="2.6" x="192.0" y="49.0"><title>2020-12-29</title></rect><rect fill="#444444" height="2.6" width="2.6" x="192.0" y="52.5"><title>2020-12-30</title></rect><rect fill="#444444" height="2.6" width="2.6" x="192.0" y="56.0"><title>2020-12-31</title></rect></svg>