<?xml version="1.0" encoding="utf-8" ?>
<svg baseProfile="full" height="78mm" version="1.1" viewBox="0,0,200,78" width="200mm" xmlns="http://www.w3.org/2000/svg" xmlns:ev="http://www.w3.org/2001/xml-events" xmlns:xlink="http://www.w3.org/1999/xlink"><defs /><rect fill="#222222" height="78" width="200" x="0" y="0" /><text fill="#FFFFFF" style="font-size:12px; font-family:Arial; font-weight:bold;" x="10" y="20">rip-tyang apple_health</text><text dominant-baseline="hanging" fill="#FFFFFF" style="font-size:10.0px; font-family:Arial;" x="10" y="30">2017</text><text dominant-baseline="hanging" fill="#FFFFFF" style="font-size:4.125px; font-family:Arial;" x="175" y="35">213861 kCal</text><text fill="#FFFFFF" style="font-size:2.5px; font-family:Arial" x="10.0" y="44">Jan</text><text fill="#FFFFFF" style="font-size:2.5px; font-family:Arial" x="25.5" y="44">Feb</text><text fill="#FFFFFF" style="font-size:2.5px; font-family:Arial" x="41.0" y="44">Mar</text><text fill="#FFFFFF" style="font-size:2.5px; font-family:Arial" x="56.5" y="44">Apr</text><text fill="#FFFFFF" style="font-size:2.5px; font-family:Arial" x="72.0" y="44">May</text><text fill="#FFFFFF" style="font-size:2.5px; font-family:Arial" x="87.5" y="44">Jun</text><text fill="#FFFFFF" style="font-size:2.5px; font-family:Arial" x="103.0" y="44">Jul</text><text fill="#FFFFFF" style="font-size:2.5px; font-family:Arial" x="118.5" y="44">Aug</text><text fill="#FFFFFF" style="font-size:2.5px; font-family:Arial" x="134.0" y="44">Sep</text><text fill="#FFFFFF" style="font-size:2.5px; font-family:Arial" x="149.5" y="44">Oct</text><text fill="#FFFFFF" style="font-size:2.5px; font-family:Arial" x="165.0" y="44">Nov</text><text fill="#FFFFFF" style="font-size:2.5px; font-family:Arial" x="180.5" y="44">Dec</text><rect fill="#45ffef" height="2.6" width="2.6" x="10.0" y="45.5"><title>2016-12-26 451.1259999999997 kCal</title></rect><rect fill="#47fffc" height="2.6" width="2.6" x="10.0" y="49.0"><title>2016-12-27 359.97600000000017 kCal</title></rect><rect fill="red" height="2.6" width="2.6" x="10.0" y="52.5"><title>2016-12-28 851.0830000000007 kCal</title></rect><rect fill="red" height="2.6" width="2.6" x="10.0" y="56.0"><title>2016-12-29 846.6059999999999 kCal</title></rect><rect fill="#45ffee" height="2.6" width="2.6" x="10.0" y="59.5"><title>2016-12-30 459.42300000000023 kCal</title></rect><rect fill="red" height="2.6" width="2.6" x="10.0" y="63.0"><title>2016-12-31 858.3689999999998 kCal</title></rect><rect fill="#ffdd00" height="2.6" width="2.6" x="10.0" y="66.5"><title>2017-01-01 581.6240000000004 kCal</title></rect><rect fill="#ffd800" height="2.6" width="2.6" x="13.5" y="45.5"><title>2017-01-02 663.1970000000003 kCal</title></rect><rect fill="red" height="2.6" width="2.6" x="13.5" y="49.0"><title>2017-01-03 934.863 kCal</title></rect><rect fill="red" height="2.6" width="2.6" x="13.5" y="52.5"><title>2017-01-04 875.8670000000003 kCal</title></rect><rect fill="red" height="2.6" width="2.6" x="13.5" y="56.0"><title>2017-01-05 979.6999999999989 kCal</title></rect><rect fill="red" height="2.6" width="2.6" x="13.5" y="59.5"><title>2017-01-06 1086.487000000002 kCal</title></rect><rect fill="red" height="2.6" width="2.6" x="13.5" y="63.0"><title>2017-01-07 746.3129999999987 kCal</title></rect><rect fill="#ffd700" height="2.6" width="2.6" x="13.5" y="66.5"><title>2017-01-08 680.6769999999998 kCal</title></rect><rect fill="#44ffe8" height="2.6" width="2.6" x="17.0" y="45.5"><title>2017-01-09 506.568 kCal</title></rect><rect fill="#ffdb00" height="2.6" width="2.6" x="17.0" y="49.0"><title>2017-01-10 608.5220000000003 kCal</title></rect><rect fill="red" height="2.6" width="2.6" x="17.0" y="52.5"><title>2017-01-11 806.6560000000007 kCal</title></rect><rect fill="#ffd900" height="2.6" width="2.6" x="17.0" y="56.0"><title>2017-01-12 654.9740000000004 kCal</title></rect><rect fill="#ffda00" height="2.6" width="2.6" x="17.0" y="59.5"><title>2017-01-13 629.3440000000004 kCal</title></rect><rect fill="red" height="2.6" width="2.6" x="17.0" y="63.0"><title>2017-01-14 773.9689999999999 kCal</title></rect><rect fill="#43ffe1" height="2.6" width="2.6" x="17.0" y="66.5"><title>2017-01-15 555.81 kCal</title></rect><rect fill="red" height="2.6" width="2.6" x="20.5" y="45.5"><title>2017-01-16 752.8529999999996 kCal</title></rect><rect fill="#43ffe2" height="2.6" width="2.6" x="20.5" y="49.0"><title>2017-01-17 546.1390000000006 kCal</title></rect><rect fill="#49ecff" height="2.6" width="2.6" x="20.5" y="52.5"><title>2017-01-18 201.436 kCal</title></rect><rect fill="#47fcff" height="2.6" width="2.6" x="20.5" y="56.0"><title>2017-01-19 315.75700000000006 kCal</title></rect><rect fill="#ffda00" height="2.6" width="2.6" x="20.5" y="59.5"><title>2017-01-20 631.604 kCal</title></rect><rect fill="#46fff7" height="2.6" width="2.6" x="20.5" y="63.0"><title>2017-01-21 395.40500000000026 kCal</title></rect><rect fill="red" height="2.6" width="2.6" x="20.5" y="66.5"><title>2017-01-22 1220.7140000000006 kCal</title></rect><rect fill="#45ffed" height="2.6" width="2.6" x="24.0" y="45.5"><title>2017-01-23 471.2160000000003 kCal</title></rect><rect fill="#45ffef" height="2.6" width="2.6" x="24.0" y="49.0"><title>2017-01-24 456.1409999999992 kCal</title></rect><rect fill="#44ffe7" height="2.6" width="2.6" x="24.0" y="52.5"><title>2017-01-25 512.5550000000004 kCal</title></rect><rect fill="#44ffeb" height="2.6" width="2.6" x="24.0" y="56.0"><title>2017-01-26 485.32300000000083 kCal</title></rect><rect fill="#43ffe3" height="2.6" width="2.6" x="24.0" y="59.5"><title>2017-01-27 542.0739999999993 kCal</title></rect><rect fill="#44ffe4" height="2.6" width="2.6" x="24.0" y="63.0"><title>2017-01-28 529.4979999999997 kCal</title></rect><rect fill="#43ffe0" height="2.6" width="2.6" x="24.0" y="66.5"><title>2017-01-29 558.2319999999999 kCal</title></rect><rect fill="#ffdc00" height="2.6" width="2.6" x="27.5" y="45.5"><title>2017-01-30 589.7429999999998 kCal</title></rect><rect fill="#43ffe1" height="2.6" width="2.6" x="27.5" y="49.0"><title>2017-01-31 553.112000000001 kCal</title></rect><rect fill="#ffdd00" height="2.6" width="2.6" x="27.5" y="52.5"><title>2017-02-01 576.1949999999997 kCal</title></rect><rect fill="#44ffe5" height="2.6" width="2.6" x="27.5" y="56.0"><title>2017-02-02 524.9250000000003 kCal</title></rect><rect fill="red" height="2.6" width="2.6" x="27.5" y="59.5"><title>2017-02-03 750.3109999999991 kCal</title></rect><rect fill="#43ffe1" height="2.6" width="2.6" x="27.5" y="63.0"><title>2017-02-04 555.1860000000008 kCal</title></rect><rect fill="#ffdc00" height="2.6" width="2.6" x="27.5" y="66.5"><title>2017-02-05 600.8839999999999 kCal</title></rect><rect fill="#44ffeb" height="2.6" width="2.6" x="31.0" y="45.5"><title>2017-02-06 485.7999999999998 kCal</title></rect><rect fill="#ffd900" height="2.6" width="2.6" x="31.0" y="49.0"><title>2017-02-07 648.0770000000003 kCal</title></rect><rect fill="#45ffeb" height="2.6" width="2.6" x="31.0" y="52.5"><title>2017-02-08 481.284 kCal</title></rect><rect fill="red" height="2.6" width="2.6" x="31.0" y="56.0"><title>2017-02-09 1152.5759999999973 kCal</title></rect><rect fill="#ffd800" height="2.6" width="2.6" x="31.0" y="59.5"><title>2017-02-10 664.4590000000012 kCal</title></rect><rect fill="red" height="2.6" width="2.6" x="31.0" y="63.0"><title>2017-02-11 865.0620000000001 kCal</title></rect><rect fill="#44ffe5" height="2.6" width="2.6" x="31.0" y="66.5"><title>2017-02-12 527.4430000000003 kCal</title></rect><rect fill="#44ffe7" height="2.6" width="2.6" x="34.5" y="45.5"><title>2017-02-13 510.73400000000026 kCal</title></rect><rect fill="#ffd500" height="2.6" width="2.6" x="34.5" y="49.0"><title>2017-02-14 713.2329999999997 kCal</title></rect><rect fill="red" height="2.6" width="2.6" x="34.5" y="52.5"><title>2017-02-15 1984.32167 kCal</title></rect><rect fill="#ffdc00" height="2.6" width="2.6" x="34.5" y="56.0"><title>2017-02-16 595.1000000000008 kCal</title></rect><rect fill="#45ffed" height="2.6" width="2.6" x="34.5" y="59.5"><title>2017-02-17 468.55799999999914 kCal</title></rect><rect fill="red" height="2.6" width="2.6" x="34.5" y="63.0"><title>2017-02-18 1550.3568000000014 kCal</title></rect><rect fill="red" height="2.6" width="2.6" x="34.5" y="66.5"><title>2017-02-19 1284.942500000002 kCal</title></rect><rect fill="red" height="2.6" width="2.6" x="38.0" y="45.5"><title>2017-02-20 726.7120000000001 kCal</title></rect><rect fill="#ffdc00" height="2.6" width="2.6" x="38.0" y="49.0"><title>2017-02-21 603.322999999999 kCal</title></rect><rect fill="red" height="2.6" width="2.6" x="38.0" y="52.5"><title>2017-02-22 1163.7690000000034 kCal</title></rect><rect fill="#ffd800" height="2.6" width="2.6" x="38.0" y="56.0"><title>2017-02-23 668.8460000000003 kCal</title></rect><rect fill="#ffdc00" height="2.6" width="2.6" x="38.0" y="59.5"><title>2017-02-24 589.9320000000001 kCal</title></rect><rect fill="#ffdb00" height="2.6" width="2.6" x="38.0" y="63.0"><title>2017-02-25 621.766 kCal</title></rect><rect fill="#ffd900" height="2.6" width="2.6" x="38.0" y="66.5"><title>2017-02-26 644.5330000000002 kCal</title></rect><rect fill="red" height="2.6" width="2.6" x="41.5" y="45.5"><title>2017-02-27 1020.0409999999996 kCal</title></rect><rect fill="#43ffe0" height="2.6" width="2.6" x="41.5" y="49.0"><title>2017-02-28 560.4069999999997 kCal</title></rect><rect fill="#ffdc00" height="2.6" width="2.6" x="41.5" y="52.5"><title>2017-03-01 590.0330000000006 kCal</title></rect><rect fill="#ffd800" height="2.6" width="2.6" x="41.5" y="56.0"><title>2017-03-02 660.5159999999988 kCal</title></rect><rect fill="#ffdb00" height="2.6" width="2.6" x="41.5" y="59.5"><title>2017-03-03 616.8800000000001 kCal</title></rect><rect fill="#45fff2" height="2.6" width="2.6" x="41.5" y="63.0"><title>2017-03-04 431.28700000000015 kCal</title></rect><rect fill="#ffdd00" height="2.6" width="2.6" x="41.5" y="66.5"><title>2017-03-05 579.773000000001 kCal</title></rect><rect fill="red" height="2.6" width="2.6" x="45.0" y="45.5"><title>2017-03-06 823.0570000000017 kCal</title></rect><rect fill="#ffd800" height="2.6" width="2.6" x="45.0" y="49.0"><title>2017-03-07 668.1449999999996 kCal</title></rect><rect fill="#ffd900" height="2.6" width="2.6" x="45.0" y="52.5"><title>2017-03-08 650.9020000000008 kCal</title></rect><rect fill="#ffdb00" height="2.6" width="2.6" x="45.0" y="56.0"><title>2017-03-09 621.4820000000004 kCal</title></rect><rect fill="red" height="2.6" width="2.6" x="45.0" y="59.5"><title>2017-03-10 839.2480000000002 kCal</title></rect><rect fill="red" height="2.6" width="2.6" x="45.0" y="63.0"><title>2017-03-11 772.2690000000002 kCal</title></rect><rect fill="red" height="2.6" width="2.6" x="45.0" y="66.5"><title>2017-03-12 852.967000000001 kCal</title></rect><rect fill="#ffda00" height="2.6" width="2.6" x="48.5" y="45.5"><title>2017-03-13 634.8050000000004 kCal</title></rect><rect fill="#47feff" height="2.6" width="2.6" x="48.5" y="49.0"><title>2017-03-14 332.47699999999975 kCal</title></rect><rect fill="#ffdc00" height="2.6" width="2.6" x="48.5" y="52.5"><title>2017-03-15 590.5380000000002 kCal</title></rect><rect fill="red" height="2.6" width="2.6" x="48.5" y="56.0"><title>2017-03-16 946.2459999999995 kCal</title></rect><rect fill="#ffdb00" height="2.6" width="2.6" x="48.5" y="59.5"><title>2017-03-17 622.1699999999993 kCal</title></rect><rect fill="#46fffa" height="2.6" width="2.6" x="48.5" y="63.0"><title>2017-03-18 373.7620000000001 kCal</title></rect><rect fill="#44ffe8" height="2.6" width="2.6" x="48.5" y="66.5"><title>2017-03-19 501.68200000000047 kCal</title></rect><rect fill="#ffd500" height="2.6" width="2.6" x="52.0" y="45.5"><title>2017-03-20 713.5909999999988 kCal</title></rect><rect fill="#ffda00" height="2.6" width="2.6" x="52.0" y="49.0"><title>2017-03-21 639.0099999999991 kCal</title></rect><rect fill="#ffd700" height="2.6" width="2.6" x="52.0" y="52.5"><title>2017-03-22 690.6850000000002 kCal</title></rect><rect fill="#43ffe1" height="2.6" width="2.6" x="52.0" y="56.0"><title>2017-03-23 553.4079999999999 kCal</title></rect><rect fill="#45fff0" height="2.6" width="2.6" x="52.0" y="59.5"><title>2017-03-24 449.31199999999984 kCal</title></rect><rect fill="#44ffe6" height="2.6" width="2.6" x="52.0" y="63.0"><title>2017-03-25 520.3450000000003 kCal</title></rect><rect fill="#44ffeb" height="2.6" width="2.6" x="52.0" y="66.5"><title>2017-03-26 485.0349999999999 kCal</title></rect><rect fill="#ffdd00" height="2.6" width="2.6" x="55.5" y="45.5"><title>2017-03-27 579.0920000000003 kCal</title></rect><rect fill="#ffd700" height="2.6" width="2.6" x="55.5" y="49.0"><title>2017-03-28 675.5560000000004 kCal</title></rect><rect fill="#44ffea" height="2.6" width="2.6" x="55.5" y="52.5"><title>2017-03-29 488.09699999999975 kCal</title></rect><rect fill="#44ffe8" height="2.6" width="2.6" x="55.5" y="56.0"><title>2017-03-30 501.2080000000002 kCal</title></rect><rect fill="red" height="2.6" width="2.6" x="55.5" y="59.5"><title>2017-03-31 1306.4339999999982 kCal</title></rect><rect fill="red" height="2.6" width="2.6" x="55.5" y="63.0"><title>2017-04-01 730.2600000000001 kCal</title></rect><rect fill="red" height="2.6" width="2.6" x="55.5" y="66.5"><title>2017-04-02 2425.16411 kCal</title></rect><rect fill="red" height="2.6" width="2.6" x="59.0" y="45.5"><title>2017-04-03 2312.0935300000006 kCal</title></rect><rect fill="#45ffed" height="2.6" width="2.6" x="59.0" y="49.0"><title>2017-04-04 471.2469999999993 kCal</title></rect><rect fill="#ffd700" height="2.6" width="2.6" x="59.0" y="52.5"><title>2017-04-05 688.3679999999998 kCal</title></rect><rect fill="#48f7ff" height="2.6" width="2.6" x="59.0" y="56.0"><title>2017-04-06 283.713 kCal</title></rect><rect fill="#ffd900" height="2.6" width="2.6" x="59.0" y="59.5"><title>2017-04-07 651.4200000000003 kCal</title></rect><rect fill="#ffd600" height="2.6" width="2.6" x="59.0" y="63.0"><title>2017-04-08 702.802999999999 kCal</title></rect><rect fill="red" height="2.6" width="2.6" x="59.0" y="66.5"><title>2017-04-09 784.8479999999985 kCal</title></rect><rect fill="red" height="2.6" width="2.6" x="62.5" y="45.5"><title>2017-04-10 974.515 kCal</title></rect><rect fill="#ffd900" height="2.6" width="2.6" x="62.5" y="49.0"><title>2017-04-11 648.1959999999999 kCal</title></rect><rect fill="red" height="2.6" width="2.6" x="62.5" y="52.5"><title>2017-04-12 1005.2219999999983 kCal</title></rect><rect fill="#ffda00" height="2.6" width="2.6" x="62.5" y="56.0"><title>2017-04-13 631.4490000000002 kCal</title></rect><rect fill="red" height="2.6" width="2.6" x="62.5" y="59.5"><title>2017-04-14 834.4829999999984 kCal</title></rect><rect fill="red" height="2.6" width="2.6" x="62.5" y="63.0"><title>2017-04-15 1015.0700000000045 kCal</title></rect><rect fill="red" height="2.6" width="2.6" x="62.5" y="66.5"><title>2017-04-16 1203.5090000000039 kCal</title></rect><rect fill="#44ffe9" height="2.6" width="2.6" x="66.0" y="45.5"><title>2017-04-17 499.04699999999997 kCal</title></rect><rect fill="#ffd800" height="2.6" width="2.6" x="66.0" y="49.0"><title>2017-04-18 661.2169999999987 kCal</title></rect><rect fill="#ffd800" height="2.6" width="2.6" x="66.0" y="52.5"><title>2017-04-19 671.1009999999998 kCal</title></rect><rect fill="red" height="2.6" width="2.6" x="66.0" y="56.0"><title>2017-04-20 1170.0700000000018 kCal</title></rect><rect fill="#45ffef" height="2.6" width="2.6" x="66.0" y="59.5"><title>2017-04-21 451.41799999999955 kCal</title></rect><rect fill="#ffda00" height="2.6" width="2.6" x="66.0" y="63.0"><title>2017-04-22 634.3109999999998 kCal</title></rect><rect fill="#45ffef" height="2.6" width="2.6" x="66.0" y="66.5"><title>2017-04-23 451.9759999999996 kCal</title></rect><rect fill="red" height="2.6" width="2.6" x="69.5" y="45.5"><title>2017-04-24 968.9509999999997 kCal</title></rect><rect fill="#48f6ff" height="2.6" width="2.6" x="69.5" y="49.0"><title>2017-04-25 275.77599999999995 kCal</title></rect><rect fill="#ffdc00" height="2.6" width="2.6" x="69.5" y="52.5"><title>2017-04-26 600.2519999999996 kCal</title></rect><rect fill="#ffdd00" height="2.6" width="2.6" x="69.5" y="56.0"><title>2017-04-27 582.7470000000001 kCal</title></rect><rect fill="#ffdd00" height="2.6" width="2.6" x="69.5" y="59.5"><title>2017-04-28 575.0069999999998 kCal</title></rect><rect fill="red" height="2.6" width="2.6" x="69.5" y="63.0"><title>2017-04-29 758.5609999999995 kCal</title></rect><rect fill="red" height="2.6" width="2.6" x="69.5" y="66.5"><title>2017-04-30 981.340999999999 kCal</title></rect><rect fill="#44ffe9" height="2.6" width="2.6" x="73.0" y="45.5"><title>2017-05-01 493.3149999999995 kCal</title></rect><rect fill="#ffdb00" height="2.6" width="2.6" x="73.0" y="49.0"><title>2017-05-02 623.4219999999993 kCal</title></rect><rect fill="red" height="2.6" width="2.6" x="73.0" y="52.5"><title>2017-05-03 790.0470000000003 kCal</title></rect><rect fill="#ffd700" height="2.6" width="2.6" x="73.0" y="56.0"><title>2017-05-04 685.2239999999995 kCal</title></rect><rect fill="red" height="2.6" width="2.6" x="73.0" y="59.5"><title>2017-05-05 758.5449999999994 kCal</title></rect><rect fill="red" height="2.6" width="2.6" x="73.0" y="63.0"><title>2017-05-06 943.5029999999995 kCal</title></rect><rect fill="red" height="2.6" width="2.6" x="73.0" y="66.5"><title>2017-05-07 782.6059999999997 kCal</title></rect><rect fill="#ffd700" height="2.6" width="2.6" x="76.5" y="45.5"><title>2017-05-08 685.6670000000001 kCal</title></rect><rect fill="red" height="2.6" width="2.6" x="76.5" y="49.0"><title>2017-05-09 1022.4339999999993 kCal</title></rect><rect fill="#44ffea" height="2.6" width="2.6" x="76.5" y="52.5"><title>2017-05-10 492.1090000000001 kCal</title></rect><rect fill="#46fff4" height="2.6" width="2.6" x="76.5" y="56.0"><title>2017-05-11 421.7759999999998 kCal</title></rect><rect fill="#46fffa" height="2.6" width="2.6" x="76.5" y="59.5"><title>2017-05-12 372.3350000000001 kCal</title></rect><rect fill="#46fff6" height="2.6" width="2.6" x="76.5" y="63.0"><title>2017-05-13 406.3619999999999 kCal</title></rect><rect fill="#45ffed" height="2.6" width="2.6" x="76.5" y="66.5"><title>2017-05-14 470.97599999999966 kCal</title></rect><rect fill="#ffd700" height="2.6" width="2.6" x="80.0" y="45.5"><title>2017-05-15 680.9569999999974 kCal</title></rect><rect fill="red" height="2.6" width="2.6" x="80.0" y="49.0"><title>2017-05-16 842.828000000001 kCal</title></rect><rect fill="#47fffb" height="2.6" width="2.6" x="80.0" y="52.5"><title>2017-05-17 367.4579999999997 kCal</title></rect><rect fill="#44ffe9" height="2.6" width="2.6" x="80.0" y="56.0"><title>2017-05-18 497.5829999999995 kCal</title></rect><rect fill="red" height="2.6" width="2.6" x="80.0" y="59.5"><title>2017-05-19 1013.9319999999992 kCal</title></rect><rect fill="red" height="2.6" width="2.6" x="80.0" y="63.0"><title>2017-05-20 931.6669999999989 kCal</title></rect><rect fill="#49edff" height="2.6" width="2.6" x="80.0" y="66.5"><title>2017-05-21 206.21599999999984 kCal</title></rect><rect fill="#ffdd00" height="2.6" width="2.6" x="83.5" y="45.5"><title>2017-05-22 581.3129999999992 kCal</title></rect><rect fill="#4aeaff" height="2.6" width="2.6" x="83.5" y="49.0"><title>2017-05-23 181.8830000000001 kCal</title></rect><rect fill="red" height="2.6" width="2.6" x="83.5" y="52.5"><title>2017-05-24 907.0439999999983 kCal</title></rect><rect fill="red" height="2.6" width="2.6" x="83.5" y="56.0"><title>2017-05-25 852.8269999999982 kCal</title></rect><rect fill="red" height="2.6" width="2.6" x="83.5" y="59.5"><title>2017-05-26 792.9389999999992 kCal</title></rect><rect fill="#44ffe6" height="2.6" width="2.6" x="83.5" y="63.0"><title>2017-05-27 516.8990000000001 kCal</title></rect><rect fill="red" height="2.6" width="2.6" x="83.5" y="66.5"><title>2017-05-28 862.2719999999998 kCal</title></rect><rect fill="red" height="2.6" width="2.6" x="87.0" y="45.5"><title>2017-05-29 731.3449999999993 kCal</title></rect><rect fill="#ffdc00" height="2.6" width="2.6" x="87.0" y="49.0"><title>2017-05-30 606.6799999999996 kCal</title></rect><rect fill="#ffdb00" height="2.6" width="2.6" x="87.0" y="52.5"><title>2017-05-31 623.236 kCal</title></rect><rect fill="red" height="2.6" width="2.6" x="87.0" y="56.0"><title>2017-06-01 963.3760000000004 kCal</title></rect><rect fill="#48f5ff" height="2.6" width="2.6" x="87.0" y="59.5"><title>2017-06-02 266.64499999999987 kCal</title></rect><rect fill="red" height="2.6" width="2.6" x="87.0" y="63.0"><title>2017-06-03 777.4370000000004 kCal</title></rect><rect fill="#ffdd00" height="2.6" width="2.6" x="87.0" y="66.5"><title>2017-06-04 588.2760000000002 kCal</title></rect><rect fill="#ffd800" height="2.6" width="2.6" x="90.5" y="45.5"><title>2017-06-05 665.8859999999994 kCal</title></rect><rect fill="#ffdd00" height="2.6" width="2.6" x="90.5" y="49.0"><title>2017-06-06 581.1069999999994 kCal</title></rect><rect fill="#45fff3" height="2.6" width="2.6" x="90.5" y="52.5"><title>2017-06-07 429.0889999999996 kCal</title></rect><rect fill="#46fff4" height="2.6" width="2.6" x="90.5" y="56.0"><title>2017-06-08 420.7969999999995 kCal</title></rect><rect fill="#49ecff" height="2.6" width="2.6" x="90.5" y="59.5"><title>2017-06-09 203.20100000000036 kCal</title></rect><rect fill="#46fff8" height="2.6" width="2.6" x="90.5" y="63.0"><title>2017-06-10 393.5879999999997 kCal</title></rect><rect fill="#ffda00" height="2.6" width="2.6" x="90.5" y="66.5"><title>2017-06-11 634.0279999999996 kCal</title></rect><rect fill="red" height="2.6" width="2.6" x="94.0" y="45.5"><title>2017-06-12 841.050999999999 kCal</title></rect><rect fill="#ffdb00" height="2.6" width="2.6" x="94.0" y="49.0"><title>2017-06-13 612.0520000000008 kCal</title></rect><rect fill="#45fff2" height="2.6" width="2.6" x="94.0" y="52.5"><title>2017-06-14 434.0969999999999 kCal</title></rect><rect fill="#4dd2ff" height="2.6" width="2.6" x="94.0" y="56.0"><title>2017-06-15 3.216 kCal</title></rect><rect fill="#444444" height="2.6" width="2.6" x="94.0" y="59.5"><title>2017-06-16</title></rect><rect fill="#ffdc00" height="2.6" width="2.6" x="94.0" y="63.0"><title>2017-06-17 605.5869999999996 kCal</title></rect><rect fill="#47fffd" height="2.6" width="2.6" x="94.0" y="66.5"><title>2017-06-18 355.0070000000002 kCal</title></rect><rect fill="#44ffea" height="2.6" width="2.6" x="97.5" y="45.5"><title>2017-06-19 492.5059999999995 kCal</title></rect><rect fill="#ffd700" height="2.6" width="2.6" x="97.5" y="49.0"><title>2017-06-20 690.3320000000011 kCal</title></rect><rect fill="#48f4ff" height="2.6" width="2.6" x="97.5" y="52.5"><title>2017-06-21 259.2289999999997 kCal</title></rect><rect fill="#48f7ff" height="2.6" width="2.6" x="97.5" y="56.0"><title>2017-06-22 277.8309999999999 kCal</title></rect><rect fill="red" height="2.6" width="2.6" x="97.5" y="59.5"><title>2017-06-23 805.273999999998 kCal</title></rect><rect fill="red" height="2.6" width="2.6" x="97.5" y="63.0"><title>2017-06-24 1569.808999999999 kCal</title></rect><rect fill="red" height="2.6" width="2.6" x="97.5" y="66.5"><title>2017-06-25 853.8109999999974 kCal</title></rect><rect fill="#47fffe" height="2.6" width="2.6" x="101.0" y="45.5"><title>2017-06-26 347.31099999999947 kCal</title></rect><rect fill="#45fff2" height="2.6" width="2.6" x="101.0" y="49.0"><title>2017-06-27 431.2439999999996 kCal</title></rect><rect fill="#4be1ff" height="2.6" width="2.6" x="101.0" y="52.5"><title>2017-06-28 113.50900000000009 kCal</title></rect><rect fill="#46fff7" height="2.6" width="2.6" x="101.0" y="56.0"><title>2017-06-29 396.17999999999984 kCal</title></rect><rect fill="red" height="2.6" width="2.6" x="101.0" y="59.5"><title>2017-06-30 1069.284999999999 kCal</title></rect><rect fill="red" height="2.6" width="2.6" x="101.0" y="63.0"><title>2017-07-01 842.3859999999984 kCal</title></rect><rect fill="#45ffee" height="2.6" width="2.6" x="101.0" y="66.5"><title>2017-07-02 459.76399999999984 kCal</title></rect><rect fill="red" height="2.6" width="2.6" x="104.5" y="45.5"><title>2017-07-03 1071.164 kCal</title></rect><rect fill="#ffdc00" height="2.6" width="2.6" x="104.5" y="49.0"><title>2017-07-04 591.8369999999998 kCal</title></rect><rect fill="#46fff4" height="2.6" width="2.6" x="104.5" y="52.5"><title>2017-07-05 420.2579999999997 kCal</title></rect><rect fill="red" height="2.6" width="2.6" x="104.5" y="56.0"><title>2017-07-06 760.728 kCal</title></rect><rect fill="red" height="2.6" width="2.6" x="104.5" y="59.5"><title>2017-07-07 747.5750000000006 kCal</title></rect><rect fill="#44ffe9" height="2.6" width="2.6" x="104.5" y="63.0"><title>2017-07-08 494.4279999999997 kCal</title></rect><rect fill="#46fff7" height="2.6" width="2.6" x="104.5" y="66.5"><title>2017-07-09 400.3959999999996 kCal</title></rect><rect fill="#45ffef" height="2.6" width="2.6" x="108.0" y="45.5"><title>2017-07-10 451.70499999999953 kCal</title></rect><rect fill="#45ffee" height="2.6" width="2.6" x="108.0" y="49.0"><title>2017-07-11 458.0319999999995 kCal</title></rect><rect fill="#ffd600" height="2.6" width="2.6" x="108.0" y="52.5"><title>2017-07-12 703.5879999999993 kCal</title></rect><rect fill="#ffdc00" height="2.6" width="2.6" x="108.0" y="56.0"><title>2017-07-13 597.3179999999995 kCal</title></rect><rect fill="#48f7ff" height="2.6" width="2.6" x="108.0" y="59.5"><title>2017-07-14 283.31099999999986 kCal</title></rect><rect fill="#ffd900" height="2.6" width="2.6" x="108.0" y="63.0"><title>2017-07-15 642.523999999999 kCal</title></rect><rect fill="#45fff1" height="2.6" width="2.6" x="108.0" y="66.5"><title>2017-07-16 443.6159999999995 kCal</title></rect><rect fill="red" height="2.6" width="2.6" x="111.5" y="45.5"><title>2017-07-17 1145.0969999999982 kCal</title></rect><rect fill="red" height="2.6" width="2.6" x="111.5" y="49.0"><title>2017-07-18 883.4209999999996 kCal</title></rect><rect fill="#44ffe4" height="2.6" width="2.6" x="111.5" y="52.5"><title>2017-07-19 535.4199999999994 kCal</title></rect><rect fill="#ffdb00" height="2.6" width="2.6" x="111.5" y="56.0"><title>2017-07-20 618.1770000000006 kCal</title></rect><rect fill="#ffdd00" height="2.6" width="2.6" x="111.5" y="59.5"><title>2017-07-21 587.5490000000002 kCal</title></rect><rect fill="#46fffb" height="2.6" width="2.6" x="111.5" y="63.0"><title>2017-07-22 371.18600000000004 kCal</title></rect><rect fill="#45ffec" height="2.6" width="2.6" x="111.5" y="66.5"><title>2017-07-23 477.4189999999997 kCal</title></rect><rect fill="#47fcff" height="2.6" width="2.6" x="115.0" y="45.5"><title>2017-07-24 321.2410000000002 kCal</title></rect><rect fill="#ffdd00" height="2.6" width="2.6" x="115.0" y="49.0"><title>2017-07-25 578.7329999999997 kCal</title></rect><rect fill="red" height="2.6" width="2.6" x="115.0" y="52.5"><title>2017-07-26 743.8750000000003 kCal</title></rect><rect fill="#47fffe" height="2.6" width="2.6" x="115.0" y="56.0"><title>2017-07-27 344.891 kCal</title></rect><rect fill="#49f2ff" height="2.6" width="2.6" x="115.0" y="59.5"><title>2017-07-28 247.9209999999998 kCal</title></rect><rect fill="#48faff" height="2.6" width="2.6" x="115.0" y="63.0"><title>2017-07-29 301.5329999999999 kCal</title></rect><rect fill="#46fff9" height="2.6" width="2.6" x="115.0" y="66.5"><title>2017-07-30 382.0749999999998 kCal</title></rect><rect fill="#48f8ff" height="2.6" width="2.6" x="118.5" y="45.5"><title>2017-07-31 286.78199999999975 kCal</title></rect><rect fill="#43ffe2" height="2.6" width="2.6" x="118.5" y="49.0"><title>2017-08-01 547.9850000000017 kCal</title></rect><rect fill="red" height="2.6" width="2.6" x="118.5" y="52.5"><title>2017-08-02 1222.422999999999 kCal</title></rect><rect fill="#ffde00" height="2.6" width="2.6" x="118.5" y="56.0"><title>2017-08-03 563.2690000000002 kCal</title></rect><rect fill="#45ffec" height="2.6" width="2.6" x="118.5" y="59.5"><title>2017-08-04 475.0549999999995 kCal</title></rect><rect fill="#44ffea" height="2.6" width="2.6" x="118.5" y="63.0"><title>2017-08-05 487.4759999999995 kCal</title></rect><rect fill="#45fff3" height="2.6" width="2.6" x="118.5" y="66.5"><title>2017-08-06 428.3449999999992 kCal</title></rect><rect fill="#ffd600" height="2.6" width="2.6" x="122.0" y="45.5"><title>2017-08-07 700.3739999999991 kCal</title></rect><rect fill="red" height="2.6" width="2.6" x="122.0" y="49.0"><title>2017-08-08 1099.5189999999982 kCal</title></rect><rect fill="#45ffec" height="2.6" width="2.6" x="122.0" y="52.5"><title>2017-08-09 476.36299999999994 kCal</title></rect><rect fill="#46fff6" height="2.6" width="2.6" x="122.0" y="56.0"><title>2017-08-10 404.5920000000002 kCal</title></rect><rect fill="#47fffd" height="2.6" width="2.6" x="122.0" y="59.5"><title>2017-08-11 351.575 kCal</title></rect><rect fill="#44ffe8" height="2.6" width="2.6" x="122.0" y="63.0"><title>2017-08-12 503.7429999999992 kCal</title></rect><rect fill="#4bdeff" height="2.6" width="2.6" x="122.0" y="66.5"><title>2017-08-13 93.505 kCal</title></rect><rect fill="#44ffeb" height="2.6" width="2.6" x="125.5" y="45.5"><title>2017-08-14 482.6009999999999 kCal</title></rect><rect fill="#ffdd00" height="2.6" width="2.6" x="125.5" y="49.0"><title>2017-08-15 588.1079999999993 kCal</title></rect><rect fill="#46fff5" height="2.6" width="2.6" x="125.5" y="52.5"><title>2017-08-16 413.58899999999977 kCal</title></rect><rect fill="#45fff0" height="2.6" width="2.6" x="125.5" y="56.0"><title>2017-08-17 444.03900000000027 kCal</title></rect><rect fill="#46fff4" height="2.6" width="2.6" x="125.5" y="59.5"><title>2017-08-18 419.82799999999986 kCal</title></rect><rect fill="#44ffea" height="2.6" width="2.6" x="125.5" y="63.0"><title>2017-08-19 491.0430000000005 kCal</title></rect><rect fill="#47fdff" height="2.6" width="2.6" x="125.5" y="66.5"><title>2017-08-20 326.2709999999998 kCal</title></rect><rect fill="#ffd600" height="2.6" width="2.6" x="129.0" y="45.5"><title>2017-08-21 701.0249999999997 kCal</title></rect><rect fill="red" height="2.6" width="2.6" x="129.0" y="49.0"><title>2017-08-22 822.6209999999998 kCal</title></rect><rect fill="#ffdd00" height="2.6" width="2.6" x="129.0" y="52.5"><title>2017-08-23 574.5799999999995 kCal</title></rect><rect fill="#ffde00" height="2.6" width="2.6" x="129.0" y="56.0"><title>2017-08-24 569.2299999999991 kCal</title></rect><rect fill="#46fff5" height="2.6" width="2.6" x="129.0" y="59.5"><title>2017-08-25 413.22599999999954 kCal</title></rect><rect fill="#45fff3" height="2.6" width="2.6" x="129.0" y="63.0"><title>2017-08-26 426.06099999999975 kCal</title></rect><rect fill="#44ffe8" height="2.6" width="2.6" x="129.0" y="66.5"><title>2017-08-27 504.89599999999984 kCal</title></rect><rect fill="#47fcff" height="2.6" width="2.6" x="132.5" y="45.5"><title>2017-08-28 320.7880000000001 kCal</title></rect><rect fill="#44ffea" height="2.6" width="2.6" x="132.5" y="49.0"><title>2017-08-29 487.3719999999998 kCal</title></rect><rect fill="red" height="2.6" width="2.6" x="132.5" y="52.5"><title>2017-08-30 836.3610000000006 kCal</title></rect><rect fill="#45ffef" height="2.6" width="2.6" x="132.5" y="56.0"><title>2017-08-31 453.1999999999996 kCal</title></rect><rect fill="#47fdff" height="2.6" width="2.6" x="132.5" y="59.5"><title>2017-09-01 325.197 kCal</title></rect><rect fill="#444444" height="2.6" width="2.6" x="132.5" y="63.0"><title>2017-09-02</title></rect><rect fill="#444444" height="2.6" width="2.6" x="132.5" y="66.5"><title>2017-09-03</title></rect><rect fill="#444444" height="2.6" width="2.6" x="136.0" y="45.5"><title>2017-09-04</title></rect><rect fill="#46fff9" height="2.6" width="2.6" x="136.0" y="49.0"><title>2017-09-05 380.9640000000001 kCal</title></rect><rect fill="#44ffe9" height="2.6" width="2.6" x="136.0" y="52.5"><title>2017-09-06 499.4929999999999 kCal</title></rect><rect fill="#47fdff" height="2.6" width="2.6" x="136.0" y="56.0"><title>2017-09-07 321.5589999999997 kCal</title></rect><rect fill="#45ffef" height="2.6" width="2.6" x="136.0" y="59.5"><title>2017-09-08 457.72000000000025 kCal</title></rect><rect fill="#4ae5ff" height="2.6" width="2.6" x="136.0" y="63.0"><title>2017-09-09 149.888 kCal</title></rect><rect fill="red" height="2.6" width="2.6" x="136.0" y="66.5"><title>2017-09-10 782.8579999999996 kCal</title></rect><rect fill="#47fffc" height="2.6" width="2.6" x="139.5" y="45.5"><title>2017-09-11 364.3290000000002 kCal</title></rect><rect fill="#ffd600" height="2.6" width="2.6" x="139.5" y="49.0"><title>2017-09-12 697.6610000000011 kCal</title></rect><rect fill="#44ffe9" height="2.6" width="2.6" x="139.5" y="52.5"><title>2017-09-13 497.72400000000033 kCal</title></rect><rect fill="#ffd800" height="2.6" width="2.6" x="139.5" y="56.0"><title>2017-09-14 665.1280000000005 kCal</title></rect><rect fill="#ffdb00" height="2.6" width="2.6" x="139.5" y="59.5"><title>2017-09-15 606.9169999999998 kCal</title></rect><rect fill="#46fff8" height="2.6" width="2.6" x="139.5" y="63.0"><title>2017-09-16 393.62999999999977 kCal</title></rect><rect fill="#48f6ff" height="2.6" width="2.6" x="139.5" y="66.5"><title>2017-09-17 272.71399999999977 kCal</title></rect><rect fill="#44ffe4" height="2.6" width="2.6" x="143.0" y="45.5"><title>2017-09-18 529.4909999999995 kCal</title></rect><rect fill="#ffd900" height="2.6" width="2.6" x="143.0" y="49.0"><title>2017-09-19 646.1320000000002 kCal</title></rect><rect fill="#43ffe1" height="2.6" width="2.6" x="143.0" y="52.5"><title>2017-09-20 553.2360000000001 kCal</title></rect><rect fill="#ffd900" height="2.6" width="2.6" x="143.0" y="56.0"><title>2017-09-21 656.18 kCal</title></rect><rect fill="#46fff9" height="2.6" width="2.6" x="143.0" y="59.5"><title>2017-09-22 385.43900000000014 kCal</title></rect><rect fill="#444444" height="2.6" width="2.6" x="143.0" y="63.0"><title>2017-09-23</title></rect><rect fill="#444444" height="2.6" width="2.6" x="143.0" y="66.5"><title>2017-09-24</title></rect><rect fill="#ffdc00" height="2.6" width="2.6" x="146.5" y="45.5"><title>2017-09-25 590.6419999999996 kCal</title></rect><rect fill="#ffde00" height="2.6" width="2.6" x="146.5" y="49.0"><title>2017-09-26 565.983 kCal</title></rect><rect fill="#ffdd00" height="2.6" width="2.6" x="146.5" y="52.5"><title>2017-09-27 588.5119999999995 kCal</title></rect><rect fill="#ffdb00" height="2.6" width="2.6" x="146.5" y="56.0"><title>2017-09-28 614.5099999999999 kCal</title></rect><rect fill="#ffd900" height="2.6" width="2.6" x="146.5" y="59.5"><title>2017-09-29 656.7359999999995 kCal</title></rect><rect fill="#46fffa" height="2.6" width="2.6" x="146.5" y="63.0"><title>2017-09-30 373.95399999999944 kCal</title></rect><rect fill="#47fffc" height="2.6" width="2.6" x="146.5" y="66.5"><title>2017-10-01 361.8589999999995 kCal</title></rect><rect fill="#4bdeff" height="2.6" width="2.6" x="150.0" y="45.5"><title>2017-10-02 91.12899999999995 kCal</title></rect><rect fill="#44ffe5" height="2.6" width="2.6" x="150.0" y="49.0"><title>2017-10-03 523.935 kCal</title></rect><rect fill="#ffdc00" height="2.6" width="2.6" x="150.0" y="52.5"><title>2017-10-04 596.3489999999998 kCal</title></rect><rect fill="#44ffe8" height="2.6" width="2.6" x="150.0" y="56.0"><title>2017-10-05 500.5460000000003 kCal</title></rect><rect fill="#4ae6ff" height="2.6" width="2.6" x="150.0" y="59.5"><title>2017-10-06 157.83399999999997 kCal</title></rect><rect fill="#ffd800" height="2.6" width="2.6" x="150.0" y="63.0"><title>2017-10-07 665.0109999999996 kCal</title></rect><rect fill="#4bdfff" height="2.6" width="2.6" x="150.0" y="66.5"><title>2017-10-08 105.29400000000003 kCal</title></rect><rect fill="#45fff1" height="2.6" width="2.6" x="153.5" y="45.5"><title>2017-10-09 440.70300000000015 kCal</title></rect><rect fill="#ffd800" height="2.6" width="2.6" x="153.5" y="49.0"><title>2017-10-10 672.0269999999995 kCal</title></rect><rect fill="red" height="2.6" width="2.6" x="153.5" y="52.5"><title>2017-10-11 992.3840000000015 kCal</title></rect><rect fill="#44ffe6" height="2.6" width="2.6" x="153.5" y="56.0"><title>2017-10-12 521.2299999999997 kCal</title></rect><rect fill="#44ffe7" height="2.6" width="2.6" x="153.5" y="59.5"><title>2017-10-13 508.01499999999993 kCal</title></rect><rect fill="#48f5ff" height="2.6" width="2.6" x="153.5" y="63.0"><title>2017-10-14 268.2310000000004 kCal</title></rect><rect fill="#4aebff" height="2.6" width="2.6" x="153.5" y="66.5"><title>2017-10-15 191.97699999999983 kCal</title></rect><rect fill="#ffd700" height="2.6" width="2.6" x="157.0" y="45.5"><title>2017-10-16 675.1110000000003 kCal</title></rect><rect fill="#44ffe9" height="2.6" width="2.6" x="157.0" y="49.0"><title>2017-10-17 494.3719999999998 kCal</title></rect><rect fill="#4cdbff" height="2.6" width="2.6" x="157.0" y="52.5"><title>2017-10-18 69.32900000000002 kCal</title></rect><rect fill="#45fff1" height="2.6" width="2.6" x="157.0" y="56.0"><title>2017-10-19 443.3470000000005 kCal</title></rect><rect fill="#45ffef" height="2.6" width="2.6" x="157.0" y="59.5"><title>2017-10-20 456.53599999999994 kCal</title></rect><rect fill="#ffd800" height="2.6" width="2.6" x="157.0" y="63.0"><title>2017-10-21 666.156 kCal</title></rect><rect fill="#ffd500" height="2.6" width="2.6" x="157.0" y="66.5"><title>2017-10-22 720.5219999999969 kCal</title></rect><rect fill="#48f5ff" height="2.6" width="2.6" x="160.5" y="45.5"><title>2017-10-23 268.8109999999998 kCal</title></rect><rect fill="#47fffe" height="2.6" width="2.6" x="160.5" y="49.0"><title>2017-10-24 345.608 kCal</title></rect><rect fill="red" height="2.6" width="2.6" x="160.5" y="52.5"><title>2017-10-25 917.4149999999934 kCal</title></rect><rect fill="#4bdfff" height="2.6" width="2.6" x="160.5" y="56.0"><title>2017-10-26 102.76000000000005 kCal</title></rect><rect fill="#46fff7" height="2.6" width="2.6" x="160.5" y="59.5"><title>2017-10-27 400.2259999999995 kCal</title></rect><rect fill="#43ffe2" height="2.6" width="2.6" x="160.5" y="63.0"><title>2017-10-28 547.267 kCal</title></rect><rect fill="#44ffe5" height="2.6" width="2.6" x="160.5" y="66.5"><title>2017-10-29 525.3360000000017 kCal</title></rect><rect fill="#44ffe9" height="2.6" width="2.6" x="164.0" y="45.5"><title>2017-10-30 494.90699999999987 kCal</title></rect><rect fill="#49f1ff" height="2.6" width="2.6" x="164.0" y="49.0"><title>2017-10-31 234.57499999999968 kCal</title></rect><rect fill="red" height="2.6" width="2.6" x="164.0" y="52.5"><title>2017-11-01 763.77 kCal</title></rect><rect fill="#45ffee" height="2.6" width="2.6" x="164.0" y="56.0"><title>2017-11-02 461.0900000000001 kCal</title></rect><rect fill="#4cdcff" height="2.6" width="2.6" x="164.0" y="59.5"><title>2017-11-03 82.28000000000002 kCal</title></rect><rect fill="#ffd800" height="2.6" width="2.6" x="164.0" y="63.0"><title>2017-11-04 659.3119999999998 kCal</title></rect><rect fill="#444444" height="2.6" width="2.6" x="164.0" y="66.5"><title>2017-11-05</title></rect><rect fill="#ffda00" height="2.6" width="2.6" x="167.5" y="45.5"><title>2017-11-06 625.6449999999999 kCal</title></rect><rect fill="#4be4ff" height="2.6" width="2.6" x="167.5" y="49.0"><title>2017-11-07 136.6020000000001 kCal</title></rect><rect fill="#46fff7" height="2.6" width="2.6" x="167.5" y="52.5"><title>2017-11-08 396.3779999999999 kCal</title></rect><rect fill="#44ffe3" height="2.6" width="2.6" x="167.5" y="56.0"><title>2017-11-09 536.578 kCal</title></rect><rect fill="#ffda00" height="2.6" width="2.6" x="167.5" y="59.5"><title>2017-11-10 625.0440000000011 kCal</title></rect><rect fill="red" height="2.6" width="2.6" x="167.5" y="63.0"><title>2017-11-11 1057.115999999999 kCal</title></rect><rect fill="#49f2ff" height="2.6" width="2.6" x="167.5" y="66.5"><title>2017-11-12 245.12999999999997 kCal</title></rect><rect fill="#444444" height="2.6" width="2.6" x="171.0" y="45.5"><title>2017-11-13</title></rect><rect fill="#45ffec" height="2.6" width="2.6" x="171.0" y="49.0"><title>2017-11-14 475.52899999999994 kCal</title></rect><rect fill="#44ffe4" height="2.6" width="2.6" x="171.0" y="52.5"><title>2017-11-15 529.6880000000001 kCal</title></rect><rect fill="#4bdeff" height="2.6" width="2.6" x="171.0" y="56.0"><title>2017-11-16 97.05900000000001 kCal</title></rect><rect fill="#43ffe1" height="2.6" width="2.6" x="171.0" y="59.5"><title>2017-11-17 555.9069999999996 kCal</title></rect><rect fill="#4be0ff" height="2.6" width="2.6" x="171.0" y="63.0"><title>2017-11-18 109.91700000000006 kCal</title></rect><rect fill="#444444" height="2.6" width="2.6" x="171.0" y="66.5"><title>2017-11-19</title></rect><rect fill="#43ffe1" height="2.6" width="2.6" x="174.5" y="45.5"><title>2017-11-20 550.8629999999991 kCal</title></rect><rect fill="#ffda00" height="2.6" width="2.6" x="174.5" y="49.0"><title>2017-11-21 631.7499999999998 kCal</title></rect><rect fill="red" height="2.6" width="2.6" x="174.5" y="52.5"><title>2017-11-22 850.9599999999984 kCal</title></rect><rect fill="red" height="2.6" width="2.6" x="174.5" y="56.0"><title>2017-11-23 1069.6929999999984 kCal</title></rect><rect fill="red" height="2.6" width="2.6" x="174.5" y="59.5"><title>2017-11-24 952.9865999999997 kCal</title></rect><rect fill="#ffdc00" height="2.6" width="2.6" x="174.5" y="63.0"><title>2017-11-25 602.4480000000001 kCal</title></rect><rect fill="red" height="2.6" width="2.6" x="174.5" y="66.5"><title>2017-11-26 1327.177099999999 kCal</title></rect><rect fill="#ffd700" height="2.6" width="2.6" x="178.0" y="45.5"><title>2017-11-27 686.8040000000008 kCal</title></rect><rect fill="red" height="2.6" width="2.6" x="178.0" y="49.0"><title>2017-11-28 900.545999999999 kCal</title></rect><rect fill="#43ffe1" height="2.6" width="2.6" x="178.0" y="52.5"><title>2017-11-29 551.4859999999999 kCal</title></rect><rect fill="#4cdbff" height="2.6" width="2.6" x="178.0" y="56.0"><title>2017-11-30 72.14099999999998 kCal</title></rect><rect fill="#ffdd00" height="2.6" width="2.6" x="178.0" y="59.5"><title>2017-12-01 589.455 kCal</title></rect><rect fill="#48faff" height="2.6" width="2.6" x="178.0" y="63.0"><title>2017-12-02 305.4919999999998 kCal</title></rect><rect fill="#47fcff" height="2.6" width="2.6" x="178.0" y="66.5"><title>2017-12-03 319.54900000000004 kCal</title></rect><rect fill="#ffd800" height="2.6" width="2.6" x="181.5" y="45.5"><title>2017-12-04 664.029999999999 kCal</title></rect><rect fill="red" height="2.6" width="2.6" x="181.5" y="49.0"><title>2017-12-05 869.6080000000034 kCal</title></rect><rect fill="#44ffe4" height="2.6" width="2.6" x="181.5" y="52.5"><title>2017-12-06 528.8030000000003 kCal</title></rect><rect fill="#46fff4" height="2.6" width="2.6" x="181.5" y="56.0"><title>2017-12-07 420.0870000000003 kCal</title></rect><rect fill="#ffd600" height="2.6" width="2.6" x="181.5" y="59.5"><title>2017-12-08 692.7899999999992 kCal</title></rect><rect fill="red" height="2.6" width="2.6" x="181.5" y="63.0"><title>2017-12-09 1444.785199999999 kCal</title></rect><rect fill="red" height="2.6" width="2.6" x="181.5" y="66.5"><title>2017-12-10 1041.8029999999992 kCal</title></rect><rect fill="#4bddff" height="2.6" width="2.6" x="185.0" y="45.5"><title>2017-12-11 87.116 kCal</title></rect><rect fill="#444444" height="2.6" width="2.6" x="185.0" y="49.0"><title>2017-12-12</title></rect><rect fill="red" height="2.6" width="2.6" x="185.0" y="52.5"><title>2017-12-13 962.5440000000002 kCal</title></rect><rect fill="#45ffee" height="2.6" width="2.6" x="185.0" y="56.0"><title>2017-12-14 464.8329999999998 kCal</title></rect><rect fill="#4be0ff" height="2.6" width="2.6" x="185.0" y="59.5"><title>2017-12-15 111.16700000000012 kCal</title></rect><rect fill="#444444" height="2.6" width="2.6" x="185.0" y="63.0"><title>2017-12-16</title></rect><rect fill="#47fdff" height="2.6" width="2.6" x="185.0" y="66.5"><title>2017-12-17 325.6649999999999 kCal</title></rect><rect fill="#ffdc00" height="2.6" width="2.6" x="188.5" y="45.5"><title>2017-12-18 593.0189999999994 kCal</title></rect><rect fill="#46fff7" height="2.6" width="2.6" x="188.5" y="49.0"><title>2017-12-19 399.64599999999996 kCal</title></rect><rect fill="#45fff1" height="2.6" width="2.6" x="188.5" y="52.5"><title>2017-12-20 442.0769999999997 kCal</title></rect><rect fill="#45fff1" height="2.6" width="2.6" x="188.5" y="56.0"><title>2017-12-21 438.13299999999987 kCal</title></rect><rect fill="#44ffe9" height="2.6" width="2.6" x="188.5" y="59.5"><title>2017-12-22 494.6950000000004 kCal</title></rect><rect fill="#45fff0" height="2.6" width="2.6" x="188.5" y="63.0"><title>2017-12-23 444.1879999999991 kCal</title></rect><rect fill="#46fff6" height="2.6" width="2.6" x="188.5" y="66.5"><title>2017-12-24 402.98000000000013 kCal</title></rect><rect fill="red" height="2.6" width="2.6" x="192.0" y="45.5"><title>2017-12-25 808.1170000000011 kCal</title></rect><rect fill="#45fff1" height="2.6" width="2.6" x="192.0" y="49.0"><title>2017-12-26 440.80099999999965 kCal</title></rect><rect fill="#43ffe0" height="2.6" width="2.6" x="192.0" y="52.5"><title>2017-12-27 558.6829999999998 kCal</title></rect><rect fill="#48f7ff" height="2.6" width="2.6" x="192.0" y="56.0"><title>2017-12-28 277.803 kCal</title></rect><rect fill="red" height="2.6" width="2.6" x="192.0" y="59.5"><title>2017-12-29 858.1920000000001 kCal</title></rect><rect fill="red" height="2.6" width="2.6" x="192.0" y="63.0"><title>2017-12-30 884.614 kCal</title></rect><rect fill="#4be1ff" height="2.6" width="2.6" x="192.0" y="66.5"><title>2017-12-31 113.15899999999999 kCal</title></rect></svg>