<?xml version="1.0" encoding="utf-8" ?>
<svg baseProfile="full" height="78mm" version="1.1" viewBox="0,0,200,78" width="200mm" xmlns="http://www.w3.org/2000/svg" xmlns:ev="http://www.w3.org/2001/xml-events" xmlns:xlink="http://www.w3.org/1999/xlink"><defs /><rect fill="#222222" height="78" width="200" x="0" y="0" /><text fill="#FFFFFF" style="font-size:12px; font-family:Arial; font-weight:bold;" x="10" y="20">rip-tyang apple_health</text><text dominant-baseline="hanging" fill="#FFFFFF" style="font-size:10.0px; font-family:Arial;" x="10" y="30">2019</text><text dominant-baseline="hanging" fill="#FFFFFF" style="font-size:4.125px; font-family:Arial;" x="175" y="35">285450 kCal</text><text fill="#FFFFFF" style="font-size:2.5px; font-family:Arial" x="10.0" y="44">Jan</text><text fill="#FFFFFF" style="font-size:2.5px; font-family:Arial" x="25.5" y="44">Feb</text><text fill="#FFFFFF" style="font-size:2.5px; font-family:Arial" x="41.0" y="44">Mar</text><text fill="#FFFFFF" style="font-size:2.5px; font-family:Arial" x="56.5" y="44">Apr</text><text fill="#FFFFFF" style="font-size:2.5px; font-family:Arial" x="72.0" y="44">May</text><text fill="#FFFFFF" style="font-size:2.5px; font-family:Arial" x="87.5" y="44">Jun</text><text fill="#FFFFFF" style="font-size:2.5px; font-family:Arial" x="103.0" y="44">Jul</text><text fill="#FFFFFF" style="font-size:2.5px; font-family:Arial" x="118.5" y="44">Aug</text><text fill="#FFFFFF" style="font-size:2.5px; font-family:Arial" x="134.0" y="44">Sep</text><text fill="#FFFFFF" style="font-size:2.5px; font-family:Arial" x="149.5" y="44">Oct</text><text fill="#FFFFFF" style="font-size:2.5px; font-family:Arial" x="165.0" y="44">Nov</text><text fill="#FFFFFF" style="font-size:2.5px; font-family:Arial" x="180.5" y="44">Dec</text><rect fill="#4ae6ff" height="2.6" width="2.6" x="10.0" y="45.5"><title>2018-12-31 395.51200000000046 kCal</title></rect><rect fill="#fff000" height="2.6" width="2.6" x="10.0" y="49.0"><title>2019-01-01 654.3680000000011 kCal</title></rect><rect fill="#4ae5ff" height="2.6" width="2.6" x="10.0" y="52.5"><title>2019-01-02 394.30799999999977 kCal</title></rect><rect fill="#ffef00" height="2.6" width="2.6" x="10.0" y="56.0"><title>2019-01-03 716.4470000000014 kCal</title></rect><rect fill="red" height="2.6" width="2.6" x="10.0" y="59.5"><title>2019-01-04 911.2620000000005 kCal</title></rect><rect fill="#fff000" height="2.6" width="2.6" x="10.0" y="63.0"><title>2019-01-05 672.3929999999996 kCal</title></rect><rect fill="#4aeaff" height="2.6" width="2.6" x="10.0" y="66.5"><title>2019-01-06 475.27399999999966 kCal</title></rect><rect fill="#ffee00" height="2.6" width="2.6" x="13.5" y="45.5"><title>2019-01-07 777.7400000000001 kCal</title></rect><rect fill="#fff000" height="2.6" width="2.6" x="13.5" y="49.0"><title>2019-01-08 676.619 kCal</title></rect><rect fill="#49edff" height="2.6" width="2.6" x="13.5" y="52.5"><title>2019-01-09 536.9660000000001 kCal</title></rect><rect fill="red" height="2.6" width="2.6" x="13.5" y="56.0"><title>2019-01-10 871.102 kCal</title></rect><rect fill="red" height="2.6" width="2.6" x="13.5" y="59.5"><title>2019-01-11 894.8999999999997 kCal</title></rect><rect fill="red" height="2.6" width="2.6" x="13.5" y="63.0"><title>2019-01-12 1187.1021000000005 kCal</title></rect><rect fill="#4cdcff" height="2.6" width="2.6" x="13.5" y="66.5"><title>2019-01-13 196.74900000000008 kCal</title></rect><rect fill="#ffee00" height="2.6" width="2.6" x="17.0" y="45.5"><title>2019-01-14 780.0469999999988 kCal</title></rect><rect fill="red" height="2.6" width="2.6" x="17.0" y="49.0"><title>2019-01-15 848.624000000001 kCal</title></rect><rect fill="#ffef00" height="2.6" width="2.6" x="17.0" y="52.5"><title>2019-01-16 739.1090000000002 kCal</title></rect><rect fill="red" height="2.6" width="2.6" x="17.0" y="56.0"><title>2019-01-17 803.8319999999999 kCal</title></rect><rect fill="red" height="2.6" width="2.6" x="17.0" y="59.5"><title>2019-01-18 808.0429999999994 kCal</title></rect><rect fill="#ffef00" height="2.6" width="2.6" x="17.0" y="63.0"><title>2019-01-19 722.7160000000013 kCal</title></rect><rect fill="red" height="2.6" width="2.6" x="17.0" y="66.5"><title>2019-01-20 1256.4280999999999 kCal</title></rect><rect fill="#4be4ff" height="2.6" width="2.6" x="20.5" y="45.5"><title>2019-01-21 366.76699999999994 kCal</title></rect><rect fill="#ffef00" height="2.6" width="2.6" x="20.5" y="49.0"><title>2019-01-22 709.2579999999996 kCal</title></rect><rect fill="#ffef00" height="2.6" width="2.6" x="20.5" y="52.5"><title>2019-01-23 706.9169999999993 kCal</title></rect><rect fill="#fff100" height="2.6" width="2.6" x="20.5" y="56.0"><title>2019-01-24 621.6459999999986 kCal</title></rect><rect fill="red" height="2.6" width="2.6" x="20.5" y="59.5"><title>2019-01-25 996.9130000000011 kCal</title></rect><rect fill="#ffef00" height="2.6" width="2.6" x="20.5" y="63.0"><title>2019-01-26 720.8550000000009 kCal</title></rect><rect fill="red" height="2.6" width="2.6" x="20.5" y="66.5"><title>2019-01-27 880.131999999999 kCal</title></rect><rect fill="#49eeff" height="2.6" width="2.6" x="24.0" y="45.5"><title>2019-01-28 564.0579999999992 kCal</title></rect><rect fill="#fff200" height="2.6" width="2.6" x="24.0" y="49.0"><title>2019-01-29 604.7039999999995 kCal</title></rect><rect fill="red" height="2.6" width="2.6" x="24.0" y="52.5"><title>2019-01-30 1236.2569999999992 kCal</title></rect><rect fill="#ffef00" height="2.6" width="2.6" x="24.0" y="56.0"><title>2019-01-31 707.3099999999998 kCal</title></rect><rect fill="#fff000" height="2.6" width="2.6" x="24.0" y="59.5"><title>2019-02-01 687.1240000000004 kCal</title></rect><rect fill="red" height="2.6" width="2.6" x="24.0" y="63.0"><title>2019-02-02 1109.5000000000023 kCal</title></rect><rect fill="#fff000" height="2.6" width="2.6" x="24.0" y="66.5"><title>2019-02-03 681.9840000000013 kCal</title></rect><rect fill="#fff100" height="2.6" width="2.6" x="27.5" y="45.5"><title>2019-02-04 629.5179999999996 kCal</title></rect><rect fill="#fff100" height="2.6" width="2.6" x="27.5" y="49.0"><title>2019-02-05 616.6049999999999 kCal</title></rect><rect fill="#fff000" height="2.6" width="2.6" x="27.5" y="52.5"><title>2019-02-06 667.4780000000002 kCal</title></rect><rect fill="#fff100" height="2.6" width="2.6" x="27.5" y="56.0"><title>2019-02-07 647.0749999999995 kCal</title></rect><rect fill="#ffef00" height="2.6" width="2.6" x="27.5" y="59.5"><title>2019-02-08 720.3319999999995 kCal</title></rect><rect fill="#4aebff" height="2.6" width="2.6" x="27.5" y="63.0"><title>2019-02-09 504.65399999999977 kCal</title></rect><rect fill="#4ae5ff" height="2.6" width="2.6" x="27.5" y="66.5"><title>2019-02-10 384.4929999999997 kCal</title></rect><rect fill="#ffef00" height="2.6" width="2.6" x="31.0" y="45.5"><title>2019-02-11 712.1320000000002 kCal</title></rect><rect fill="red" height="2.6" width="2.6" x="31.0" y="49.0"><title>2019-02-12 871.3850000000008 kCal</title></rect><rect fill="#fff000" height="2.6" width="2.6" x="31.0" y="52.5"><title>2019-02-13 659.8940000000002 kCal</title></rect><rect fill="red" height="2.6" width="2.6" x="31.0" y="56.0"><title>2019-02-14 829.9359999999994 kCal</title></rect><rect fill="#49efff" height="2.6" width="2.6" x="31.0" y="59.5"><title>2019-02-15 589.2790000000002 kCal</title></rect><rect fill="#4ae8ff" height="2.6" width="2.6" x="31.0" y="63.0"><title>2019-02-16 441.7589999999999 kCal</title></rect><rect fill="red" height="2.6" width="2.6" x="31.0" y="66.5"><title>2019-02-17 821.6520000000007 kCal</title></rect><rect fill="#4be4ff" height="2.6" width="2.6" x="34.5" y="45.5"><title>2019-02-18 372.2 kCal</title></rect><rect fill="#ffef00" height="2.6" width="2.6" x="34.5" y="49.0"><title>2019-02-19 717.9730000000011 kCal</title></rect><rect fill="#fff100" height="2.6" width="2.6" x="34.5" y="52.5"><title>2019-02-20 638.6530000000001 kCal</title></rect><rect fill="#fff000" height="2.6" width="2.6" x="34.5" y="56.0"><title>2019-02-21 658.2429999999997 kCal</title></rect><rect fill="#49eeff" height="2.6" width="2.6" x="34.5" y="59.5"><title>2019-02-22 563.0950000000006 kCal</title></rect><rect fill="red" height="2.6" width="2.6" x="34.5" y="63.0"><title>2019-02-23 1472.658709999998 kCal</title></rect><rect fill="red" height="2.6" width="2.6" x="34.5" y="66.5"><title>2019-02-24 1299.2449999999958 kCal</title></rect><rect fill="red" height="2.6" width="2.6" x="38.0" y="45.5"><title>2019-02-25 996.4070000000025 kCal</title></rect><rect fill="red" height="2.6" width="2.6" x="38.0" y="49.0"><title>2019-02-26 1082.2879999999998 kCal</title></rect><rect fill="#ffef00" height="2.6" width="2.6" x="38.0" y="52.5"><title>2019-02-27 706.429000000001 kCal</title></rect><rect fill="red" height="2.6" width="2.6" x="38.0" y="56.0"><title>2019-02-28 1055.1469999999993 kCal</title></rect><rect fill="#fff000" height="2.6" width="2.6" x="38.0" y="59.5"><title>2019-03-01 674.0049999999998 kCal</title></rect><rect fill="#49edff" height="2.6" width="2.6" x="38.0" y="63.0"><title>2019-03-02 547.0289999999998 kCal</title></rect><rect fill="#ffef00" height="2.6" width="2.6" x="38.0" y="66.5"><title>2019-03-03 722.6699999999987 kCal</title></rect><rect fill="red" height="2.6" width="2.6" x="41.5" y="45.5"><title>2019-03-04 1004.9580000000013 kCal</title></rect><rect fill="#fff000" height="2.6" width="2.6" x="41.5" y="49.0"><title>2019-03-05 668.9640000000002 kCal</title></rect><rect fill="red" height="2.6" width="2.6" x="41.5" y="52.5"><title>2019-03-06 939.4870000000034 kCal</title></rect><rect fill="#ffee00" height="2.6" width="2.6" x="41.5" y="56.0"><title>2019-03-07 788.0269999999941 kCal</title></rect><rect fill="red" height="2.6" width="2.6" x="41.5" y="59.5"><title>2019-03-08 1130.0960000000014 kCal</title></rect><rect fill="red" height="2.6" width="2.6" x="41.5" y="63.0"><title>2019-03-09 845.805000000001 kCal</title></rect><rect fill="#4aeaff" height="2.6" width="2.6" x="41.5" y="66.5"><title>2019-03-10 491.9499999999999 kCal</title></rect><rect fill="#fff200" height="2.6" width="2.6" x="45.0" y="45.5"><title>2019-03-11 600.9920000000001 kCal</title></rect><rect fill="#fff100" height="2.6" width="2.6" x="45.0" y="49.0"><title>2019-03-12 649.6229999999995 kCal</title></rect><rect fill="#fff200" height="2.6" width="2.6" x="45.0" y="52.5"><title>2019-03-13 603.0799999999999 kCal</title></rect><rect fill="#49efff" height="2.6" width="2.6" x="45.0" y="56.0"><title>2019-03-14 577.1629999999998 kCal</title></rect><rect fill="red" height="2.6" width="2.6" x="45.0" y="59.5"><title>2019-03-15 1497.493 kCal</title></rect><rect fill="#ffef00" height="2.6" width="2.6" x="45.0" y="63.0"><title>2019-03-16 735.9740000000005 kCal</title></rect><rect fill="#fff000" height="2.6" width="2.6" x="45.0" y="66.5"><title>2019-03-17 697.7570000000013 kCal</title></rect><rect fill="red" height="2.6" width="2.6" x="48.5" y="45.5"><title>2019-03-18 1018.8809999999985 kCal</title></rect><rect fill="#fff100" height="2.6" width="2.6" x="48.5" y="49.0"><title>2019-03-19 630.388999999999 kCal</title></rect><rect fill="#49efff" height="2.6" width="2.6" x="48.5" y="52.5"><title>2019-03-20 581.0760000000001 kCal</title></rect><rect fill="#fff100" height="2.6" width="2.6" x="48.5" y="56.0"><title>2019-03-21 638.1149999999991 kCal</title></rect><rect fill="red" height="2.6" width="2.6" x="48.5" y="59.5"><title>2019-03-22 844.2820000000348 kCal</title></rect><rect fill="#4aebff" height="2.6" width="2.6" x="48.5" y="63.0"><title>2019-03-23 508.73799999999983 kCal</title></rect><rect fill="#4aecff" height="2.6" width="2.6" x="48.5" y="66.5"><title>2019-03-24 521.2649999999993 kCal</title></rect><rect fill="#fff100" height="2.6" width="2.6" x="52.0" y="45.5"><title>2019-03-25 632.6269999999998 kCal</title></rect><rect fill="#fff100" height="2.6" width="2.6" x="52.0" y="49.0"><title>2019-03-26 637.0179999999996 kCal</title></rect><rect fill="#fff000" height="2.6" width="2.6" x="52.0" y="52.5"><title>2019-03-27 688.5879999999986 kCal</title></rect><rect fill="#fff200" height="2.6" width="2.6" x="52.0" y="56.0"><title>2019-03-28 596.9860000000004 kCal</title></rect><rect fill="#49efff" height="2.6" width="2.6" x="52.0" y="59.5"><title>2019-03-29 578.7699999999999 kCal</title></rect><rect fill="red" height="2.6" width="2.6" x="52.0" y="63.0"><title>2019-03-30 1957.9637999999954 kCal</title></rect><rect fill="red" height="2.6" width="2.6" x="52.0" y="66.5"><title>2019-03-31 1854.3178999999998 kCal</title></rect><rect fill="red" height="2.6" width="2.6" x="55.5" y="45.5"><title>2019-04-01 1752.5674700000009 kCal</title></rect><rect fill="#49ecff" height="2.6" width="2.6" x="55.5" y="49.0"><title>2019-04-02 532.6690000000003 kCal</title></rect><rect fill="#fff000" height="2.6" width="2.6" x="55.5" y="52.5"><title>2019-04-03 690.0179999999988 kCal</title></rect><rect fill="#ffef00" height="2.6" width="2.6" x="55.5" y="56.0"><title>2019-04-04 701.5469999999988 kCal</title></rect><rect fill="#fff100" height="2.6" width="2.6" x="55.5" y="59.5"><title>2019-04-05 651.5430000000008 kCal</title></rect><rect fill="red" height="2.6" width="2.6" x="55.5" y="63.0"><title>2019-04-06 893.1589999999991 kCal</title></rect><rect fill="#49efff" height="2.6" width="2.6" x="55.5" y="66.5"><title>2019-04-07 574.378 kCal</title></rect><rect fill="#fff100" height="2.6" width="2.6" x="59.0" y="45.5"><title>2019-04-08 641.825 kCal</title></rect><rect fill="red" height="2.6" width="2.6" x="59.0" y="49.0"><title>2019-04-09 839.6459999999996 kCal</title></rect><rect fill="#fff100" height="2.6" width="2.6" x="59.0" y="52.5"><title>2019-04-10 644.7189999999993 kCal</title></rect><rect fill="#fff100" height="2.6" width="2.6" x="59.0" y="56.0"><title>2019-04-11 635.6199999999999 kCal</title></rect><rect fill="#fff000" height="2.6" width="2.6" x="59.0" y="59.5"><title>2019-04-12 677.1360000000009 kCal</title></rect><rect fill="red" height="2.6" width="2.6" x="59.0" y="63.0"><title>2019-04-13 934.1530000000002 kCal</title></rect><rect fill="#fff000" height="2.6" width="2.6" x="59.0" y="66.5"><title>2019-04-14 660.9650000000004 kCal</title></rect><rect fill="#ffef00" height="2.6" width="2.6" x="62.5" y="45.5"><title>2019-04-15 731.7689999999993 kCal</title></rect><rect fill="#ffef00" height="2.6" width="2.6" x="62.5" y="49.0"><title>2019-04-16 732.0679999999995 kCal</title></rect><rect fill="#ffee00" height="2.6" width="2.6" x="62.5" y="52.5"><title>2019-04-17 788.5589999999992 kCal</title></rect><rect fill="red" height="2.6" width="2.6" x="62.5" y="56.0"><title>2019-04-18 896.8949999999986 kCal</title></rect><rect fill="red" height="2.6" width="2.6" x="62.5" y="59.5"><title>2019-04-19 989.8819999999998 kCal</title></rect><rect fill="#4be3ff" height="2.6" width="2.6" x="62.5" y="63.0"><title>2019-04-20 345.5979999999998 kCal</title></rect><rect fill="#4aebff" height="2.6" width="2.6" x="62.5" y="66.5"><title>2019-04-21 513.5249999999999 kCal</title></rect><rect fill="#49efff" height="2.6" width="2.6" x="66.0" y="45.5"><title>2019-04-22 582.3969999999996 kCal</title></rect><rect fill="#fff100" height="2.6" width="2.6" x="66.0" y="49.0"><title>2019-04-23 634.457000000001 kCal</title></rect><rect fill="#fff000" height="2.6" width="2.6" x="66.0" y="52.5"><title>2019-04-24 689.6479999999991 kCal</title></rect><rect fill="#ffef00" height="2.6" width="2.6" x="66.0" y="56.0"><title>2019-04-25 721.8919999999993 kCal</title></rect><rect fill="#ffef00" height="2.6" width="2.6" x="66.0" y="59.5"><title>2019-04-26 702.6560000000003 kCal</title></rect><rect fill="#4be0ff" height="2.6" width="2.6" x="66.0" y="63.0"><title>2019-04-27 284.0380000000001 kCal</title></rect><rect fill="#4be1ff" height="2.6" width="2.6" x="66.0" y="66.5"><title>2019-04-28 311.68 kCal</title></rect><rect fill="#fff100" height="2.6" width="2.6" x="69.5" y="45.5"><title>2019-04-29 610.0659999999997 kCal</title></rect><rect fill="red" height="2.6" width="2.6" x="69.5" y="49.0"><title>2019-04-30 817.9529999999993 kCal</title></rect><rect fill="#fff100" height="2.6" width="2.6" x="69.5" y="52.5"><title>2019-05-01 631.2270000000005 kCal</title></rect><rect fill="#49efff" height="2.6" width="2.6" x="69.5" y="56.0"><title>2019-05-02 574.5029999999992 kCal</title></rect><rect fill="#fff000" height="2.6" width="2.6" x="69.5" y="59.5"><title>2019-05-03 674.1370000000006 kCal</title></rect><rect fill="#49edff" height="2.6" width="2.6" x="69.5" y="63.0"><title>2019-05-04 539.044 kCal</title></rect><rect fill="#4be2ff" height="2.6" width="2.6" x="69.5" y="66.5"><title>2019-05-05 325.40199999999976 kCal</title></rect><rect fill="red" height="2.6" width="2.6" x="73.0" y="45.5"><title>2019-05-06 863.6780000000005 kCal</title></rect><rect fill="#ffef00" height="2.6" width="2.6" x="73.0" y="49.0"><title>2019-05-07 700.9589999999993 kCal</title></rect><rect fill="red" height="2.6" width="2.6" x="73.0" y="52.5"><title>2019-05-08 901.0670000000003 kCal</title></rect><rect fill="#fff000" height="2.6" width="2.6" x="73.0" y="56.0"><title>2019-05-09 691.2150000000028 kCal</title></rect><rect fill="#4ae7ff" height="2.6" width="2.6" x="73.0" y="59.5"><title>2019-05-10 434.77400000000057 kCal</title></rect><rect fill="#4aebff" height="2.6" width="2.6" x="73.0" y="63.0"><title>2019-05-11 505.1150000000001 kCal</title></rect><rect fill="#4ae5ff" height="2.6" width="2.6" x="73.0" y="66.5"><title>2019-05-12 385.8279999999999 kCal</title></rect><rect fill="#fff000" height="2.6" width="2.6" x="76.5" y="45.5"><title>2019-05-13 698.2950000000002 kCal</title></rect><rect fill="#49eeff" height="2.6" width="2.6" x="76.5" y="49.0"><title>2019-05-14 556.5580000000003 kCal</title></rect><rect fill="#49eeff" height="2.6" width="2.6" x="76.5" y="52.5"><title>2019-05-15 554.3060000000003 kCal</title></rect><rect fill="red" height="2.6" width="2.6" x="76.5" y="56.0"><title>2019-05-16 845.5339999999999 kCal</title></rect><rect fill="#fff100" height="2.6" width="2.6" x="76.5" y="59.5"><title>2019-05-17 624.6550000000012 kCal</title></rect><rect fill="#4aebff" height="2.6" width="2.6" x="76.5" y="63.0"><title>2019-05-18 498.06299999999953 kCal</title></rect><rect fill="#fff200" height="2.6" width="2.6" x="76.5" y="66.5"><title>2019-05-19 602.3280000000003 kCal</title></rect><rect fill="red" height="2.6" width="2.6" x="80.0" y="45.5"><title>2019-05-20 889.1200000000003 kCal</title></rect><rect fill="#fff100" height="2.6" width="2.6" x="80.0" y="49.0"><title>2019-05-21 624.1230000000012 kCal</title></rect><rect fill="#fff000" height="2.6" width="2.6" x="80.0" y="52.5"><title>2019-05-22 670.8660000000006 kCal</title></rect><rect fill="#fff100" height="2.6" width="2.6" x="80.0" y="56.0"><title>2019-05-23 617.7680000000007 kCal</title></rect><rect fill="red" height="2.6" width="2.6" x="80.0" y="59.5"><title>2019-05-24 942.1119999999987 kCal</title></rect><rect fill="red" height="2.6" width="2.6" x="80.0" y="63.0"><title>2019-05-25 850.6880000000007 kCal</title></rect><rect fill="#fff000" height="2.6" width="2.6" x="80.0" y="66.5"><title>2019-05-26 681.8250000000004 kCal</title></rect><rect fill="#4ae9ff" height="2.6" width="2.6" x="83.5" y="45.5"><title>2019-05-27 471.7949999999997 kCal</title></rect><rect fill="red" height="2.6" width="2.6" x="83.5" y="49.0"><title>2019-05-28 908.8230000000005 kCal</title></rect><rect fill="red" height="2.6" width="2.6" x="83.5" y="52.5"><title>2019-05-29 1699.738999999997 kCal</title></rect><rect fill="red" height="2.6" width="2.6" x="83.5" y="56.0"><title>2019-05-30 1184.9099999999996 kCal</title></rect><rect fill="#49efff" height="2.6" width="2.6" x="83.5" y="59.5"><title>2019-05-31 577.9399999999993 kCal</title></rect><rect fill="#4ae9ff" height="2.6" width="2.6" x="83.5" y="63.0"><title>2019-06-01 470.3879999999992 kCal</title></rect><rect fill="#fff000" height="2.6" width="2.6" x="83.5" y="66.5"><title>2019-06-02 675.5669999999996 kCal</title></rect><rect fill="#ffef00" height="2.6" width="2.6" x="87.0" y="45.5"><title>2019-06-03 712.2850000000005 kCal</title></rect><rect fill="red" height="2.6" width="2.6" x="87.0" y="49.0"><title>2019-06-04 913.5060000000002 kCal</title></rect><rect fill="#ffee00" height="2.6" width="2.6" x="87.0" y="52.5"><title>2019-06-05 745.2259999999992 kCal</title></rect><rect fill="#ffef00" height="2.6" width="2.6" x="87.0" y="56.0"><title>2019-06-06 718.6260000000008 kCal</title></rect><rect fill="red" height="2.6" width="2.6" x="87.0" y="59.5"><title>2019-06-07 986.6339999999999 kCal</title></rect><rect fill="#49efff" height="2.6" width="2.6" x="87.0" y="63.0"><title>2019-06-08 586.0159999999994 kCal</title></rect><rect fill="#4be3ff" height="2.6" width="2.6" x="87.0" y="66.5"><title>2019-06-09 349.0280000000001 kCal</title></rect><rect fill="red" height="2.6" width="2.6" x="90.5" y="45.5"><title>2019-06-10 1927.8650000000016 kCal</title></rect><rect fill="#fff100" height="2.6" width="2.6" x="90.5" y="49.0"><title>2019-06-11 609.0479999999993 kCal</title></rect><rect fill="#fff100" height="2.6" width="2.6" x="90.5" y="52.5"><title>2019-06-12 650.284999999999 kCal</title></rect><rect fill="#fff000" height="2.6" width="2.6" x="90.5" y="56.0"><title>2019-06-13 671.6079999999995 kCal</title></rect><rect fill="#ffef00" height="2.6" width="2.6" x="90.5" y="59.5"><title>2019-06-14 703.2940000000008 kCal</title></rect><rect fill="#ffef00" height="2.6" width="2.6" x="90.5" y="63.0"><title>2019-06-15 701.6020000000002 kCal</title></rect><rect fill="#49ecff" height="2.6" width="2.6" x="90.5" y="66.5"><title>2019-06-16 526.7649999999999 kCal</title></rect><rect fill="#fff100" height="2.6" width="2.6" x="94.0" y="45.5"><title>2019-06-17 616.5740000000006 kCal</title></rect><rect fill="#fff000" height="2.6" width="2.6" x="94.0" y="49.0"><title>2019-06-18 691.7779999999993 kCal</title></rect><rect fill="#fff100" height="2.6" width="2.6" x="94.0" y="52.5"><title>2019-06-19 644.0100000000008 kCal</title></rect><rect fill="#fff100" height="2.6" width="2.6" x="94.0" y="56.0"><title>2019-06-20 610.622 kCal</title></rect><rect fill="#fff100" height="2.6" width="2.6" x="94.0" y="59.5"><title>2019-06-21 612.7780000000005 kCal</title></rect><rect fill="#4aeaff" height="2.6" width="2.6" x="94.0" y="63.0"><title>2019-06-22 491.41100000000034 kCal</title></rect><rect fill="#49ecff" height="2.6" width="2.6" x="94.0" y="66.5"><title>2019-06-23 525.0420000000006 kCal</title></rect><rect fill="#fff000" height="2.6" width="2.6" x="97.5" y="45.5"><title>2019-06-24 687.7899999999998 kCal</title></rect><rect fill="#fff200" height="2.6" width="2.6" x="97.5" y="49.0"><title>2019-06-25 606.3420000000001 kCal</title></rect><rect fill="#49efff" height="2.6" width="2.6" x="97.5" y="52.5"><title>2019-06-26 583.2749999999997 kCal</title></rect><rect fill="#fff100" height="2.6" width="2.6" x="97.5" y="56.0"><title>2019-06-27 635.7940000000002 kCal</title></rect><rect fill="#fff100" height="2.6" width="2.6" x="97.5" y="59.5"><title>2019-06-28 634.1179999999994 kCal</title></rect><rect fill="#ffee00" height="2.6" width="2.6" x="97.5" y="63.0"><title>2019-06-29 750.2370000000001 kCal</title></rect><rect fill="#4be3ff" height="2.6" width="2.6" x="97.5" y="66.5"><title>2019-06-30 351.8899999999999 kCal</title></rect><rect fill="#fff000" height="2.6" width="2.6" x="101.0" y="45.5"><title>2019-07-01 655.5889999999998 kCal</title></rect><rect fill="#fff100" height="2.6" width="2.6" x="101.0" y="49.0"><title>2019-07-02 639.5639999999994 kCal</title></rect><rect fill="#49efff" height="2.6" width="2.6" x="101.0" y="52.5"><title>2019-07-03 575.2069999999995 kCal</title></rect><rect fill="#ffef00" height="2.6" width="2.6" x="101.0" y="56.0"><title>2019-07-04 714.117 kCal</title></rect><rect fill="#49eeff" height="2.6" width="2.6" x="101.0" y="59.5"><title>2019-07-05 564.5459999999997 kCal</title></rect><rect fill="red" height="2.6" width="2.6" x="101.0" y="63.0"><title>2019-07-06 953.3250000000003 kCal</title></rect><rect fill="#49eeff" height="2.6" width="2.6" x="101.0" y="66.5"><title>2019-07-07 562.8899999999996 kCal</title></rect><rect fill="#fff100" height="2.6" width="2.6" x="104.5" y="45.5"><title>2019-07-08 620.1430000000003 kCal</title></rect><rect fill="#49efff" height="2.6" width="2.6" x="104.5" y="49.0"><title>2019-07-09 579.7879999999996 kCal</title></rect><rect fill="#fff100" height="2.6" width="2.6" x="104.5" y="52.5"><title>2019-07-10 651.4049999999991 kCal</title></rect><rect fill="#fff200" height="2.6" width="2.6" x="104.5" y="56.0"><title>2019-07-11 595.9420000000008 kCal</title></rect><rect fill="#fff100" height="2.6" width="2.6" x="104.5" y="59.5"><title>2019-07-12 640.1079999999993 kCal</title></rect><rect fill="#fff200" height="2.6" width="2.6" x="104.5" y="63.0"><title>2019-07-13 594.5529999999993 kCal</title></rect><rect fill="#4aebff" height="2.6" width="2.6" x="104.5" y="66.5"><title>2019-07-14 511.02600000000035 kCal</title></rect><rect fill="#49efff" height="2.6" width="2.6" x="108.0" y="45.5"><title>2019-07-15 588.0409999999991 kCal</title></rect><rect fill="#49efff" height="2.6" width="2.6" x="108.0" y="49.0"><title>2019-07-16 591.4560000000006 kCal</title></rect><rect fill="#fff100" height="2.6" width="2.6" x="108.0" y="52.5"><title>2019-07-17 632.8210000000004 kCal</title></rect><rect fill="#fff200" height="2.6" width="2.6" x="108.0" y="56.0"><title>2019-07-18 595.5719999999994 kCal</title></rect><rect fill="#49eeff" height="2.6" width="2.6" x="108.0" y="59.5"><title>2019-07-19 566.579000000001 kCal</title></rect><rect fill="red" height="2.6" width="2.6" x="108.0" y="63.0"><title>2019-07-20 835.5789999999997 kCal</title></rect><rect fill="#4be0ff" height="2.6" width="2.6" x="108.0" y="66.5"><title>2019-07-21 282.9289999999997 kCal</title></rect><rect fill="#fff100" height="2.6" width="2.6" x="111.5" y="45.5"><title>2019-07-22 632.8269999999992 kCal</title></rect><rect fill="#fff200" height="2.6" width="2.6" x="111.5" y="49.0"><title>2019-07-23 601.9940000000001 kCal</title></rect><rect fill="#fff200" height="2.6" width="2.6" x="111.5" y="52.5"><title>2019-07-24 592.357 kCal</title></rect><rect fill="#fff100" height="2.6" width="2.6" x="111.5" y="56.0"><title>2019-07-25 644.1509999999996 kCal</title></rect><rect fill="#49eeff" height="2.6" width="2.6" x="111.5" y="59.5"><title>2019-07-26 556.475 kCal</title></rect><rect fill="#fff200" height="2.6" width="2.6" x="111.5" y="63.0"><title>2019-07-27 607.4490000000011 kCal</title></rect><rect fill="red" height="2.6" width="2.6" x="111.5" y="66.5"><title>2019-07-28 808.2439999999992 kCal</title></rect><rect fill="#fff200" height="2.6" width="2.6" x="115.0" y="45.5"><title>2019-07-29 594.5709999999993 kCal</title></rect><rect fill="#ffef00" height="2.6" width="2.6" x="115.0" y="49.0"><title>2019-07-30 719.5970000000004 kCal</title></rect><rect fill="#fff100" height="2.6" width="2.6" x="115.0" y="52.5"><title>2019-07-31 621.5900000000014 kCal</title></rect><rect fill="#fff100" height="2.6" width="2.6" x="115.0" y="56.0"><title>2019-08-01 625.2689999999997 kCal</title></rect><rect fill="#fff100" height="2.6" width="2.6" x="115.0" y="59.5"><title>2019-08-02 641.5029999999983 kCal</title></rect><rect fill="#4ae6ff" height="2.6" width="2.6" x="115.0" y="63.0"><title>2019-08-03 409.103 kCal</title></rect><rect fill="#ffee00" height="2.6" width="2.6" x="115.0" y="66.5"><title>2019-08-04 778.1430000000005 kCal</title></rect><rect fill="#fff100" height="2.6" width="2.6" x="118.5" y="45.5"><title>2019-08-05 617.5759999999995 kCal</title></rect><rect fill="red" height="2.6" width="2.6" x="118.5" y="49.0"><title>2019-08-06 797.9299999999993 kCal</title></rect><rect fill="#ffef00" height="2.6" width="2.6" x="118.5" y="52.5"><title>2019-08-07 715.2569999999996 kCal</title></rect><rect fill="#fff100" height="2.6" width="2.6" x="118.5" y="56.0"><title>2019-08-08 616.2979999999994 kCal</title></rect><rect fill="#ffef00" height="2.6" width="2.6" x="118.5" y="59.5"><title>2019-08-09 717.7560000000001 kCal</title></rect><rect fill="red" height="2.6" width="2.6" x="118.5" y="63.0"><title>2019-08-10 1454.8189999999963 kCal</title></rect><rect fill="#4aebff" height="2.6" width="2.6" x="118.5" y="66.5"><title>2019-08-11 503.41500000000076 kCal</title></rect><rect fill="#49eeff" height="2.6" width="2.6" x="122.0" y="45.5"><title>2019-08-12 567.4509999999996 kCal</title></rect><rect fill="#fff000" height="2.6" width="2.6" x="122.0" y="49.0"><title>2019-08-13 683.4250000000005 kCal</title></rect><rect fill="#fff200" height="2.6" width="2.6" x="122.0" y="52.5"><title>2019-08-14 602.2309999999995 kCal</title></rect><rect fill="#ffee00" height="2.6" width="2.6" x="122.0" y="56.0"><title>2019-08-15 757.5459999999993 kCal</title></rect><rect fill="#fff100" height="2.6" width="2.6" x="122.0" y="59.5"><title>2019-08-16 651.4740000000004 kCal</title></rect><rect fill="#ffef00" height="2.6" width="2.6" x="122.0" y="63.0"><title>2019-08-17 702.2079999999999 kCal</title></rect><rect fill="#4be1ff" height="2.6" width="2.6" x="122.0" y="66.5"><title>2019-08-18 307.7270000000003 kCal</title></rect><rect fill="#ffef00" height="2.6" width="2.6" x="125.5" y="45.5"><title>2019-08-19 699.644000000001 kCal</title></rect><rect fill="#fff000" height="2.6" width="2.6" x="125.5" y="49.0"><title>2019-08-20 681.0550000000003 kCal</title></rect><rect fill="#fff100" height="2.6" width="2.6" x="125.5" y="52.5"><title>2019-08-21 612.604 kCal</title></rect><rect fill="#ffee00" height="2.6" width="2.6" x="125.5" y="56.0"><title>2019-08-22 752.0890000000002 kCal</title></rect><rect fill="#ffee00" height="2.6" width="2.6" x="125.5" y="59.5"><title>2019-08-23 773.5389999999996 kCal</title></rect><rect fill="#4be4ff" height="2.6" width="2.6" x="125.5" y="63.0"><title>2019-08-24 355.79299999999984 kCal</title></rect><rect fill="#4ae7ff" height="2.6" width="2.6" x="125.5" y="66.5"><title>2019-08-25 433.5989999999997 kCal</title></rect><rect fill="#fff000" height="2.6" width="2.6" x="129.0" y="45.5"><title>2019-08-26 666.9910000000008 kCal</title></rect><rect fill="red" height="2.6" width="2.6" x="129.0" y="49.0"><title>2019-08-27 885.1070000000007 kCal</title></rect><rect fill="#ffef00" height="2.6" width="2.6" x="129.0" y="52.5"><title>2019-08-28 730.0829999999997 kCal</title></rect><rect fill="#ffef00" height="2.6" width="2.6" x="129.0" y="56.0"><title>2019-08-29 718.4290000000003 kCal</title></rect><rect fill="red" height="2.6" width="2.6" x="129.0" y="59.5"><title>2019-08-30 837.957000000001 kCal</title></rect><rect fill="#ffef00" height="2.6" width="2.6" x="129.0" y="63.0"><title>2019-08-31 732.548 kCal</title></rect><rect fill="red" height="2.6" width="2.6" x="129.0" y="66.5"><title>2019-09-01 811.7249999999998 kCal</title></rect><rect fill="#fff000" height="2.6" width="2.6" x="132.5" y="45.5"><title>2019-09-02 668.7559999999995 kCal</title></rect><rect fill="#49eeff" height="2.6" width="2.6" x="132.5" y="49.0"><title>2019-09-03 567.1529999999997 kCal</title></rect><rect fill="#ffef00" height="2.6" width="2.6" x="132.5" y="52.5"><title>2019-09-04 726.6800000000001 kCal</title></rect><rect fill="#fff100" height="2.6" width="2.6" x="132.5" y="56.0"><title>2019-09-05 635.3429999999998 kCal</title></rect><rect fill="#ffef00" height="2.6" width="2.6" x="132.5" y="59.5"><title>2019-09-06 739.5709999999991 kCal</title></rect><rect fill="#fff100" height="2.6" width="2.6" x="132.5" y="63.0"><title>2019-09-07 622.0749999999995 kCal</title></rect><rect fill="#fff100" height="2.6" width="2.6" x="132.5" y="66.5"><title>2019-09-08 634.9879999999995 kCal</title></rect><rect fill="#ffef00" height="2.6" width="2.6" x="136.0" y="45.5"><title>2019-09-09 713.7440000000008 kCal</title></rect><rect fill="#ffef00" height="2.6" width="2.6" x="136.0" y="49.0"><title>2019-09-10 724.7329999999992 kCal</title></rect><rect fill="#fff200" height="2.6" width="2.6" x="136.0" y="52.5"><title>2019-09-11 592.3340000000001 kCal</title></rect><rect fill="#fff000" height="2.6" width="2.6" x="136.0" y="56.0"><title>2019-09-12 683.3219999999998 kCal</title></rect><rect fill="#ffef00" height="2.6" width="2.6" x="136.0" y="59.5"><title>2019-09-13 738.4540000000014 kCal</title></rect><rect fill="red" height="2.6" width="2.6" x="136.0" y="63.0"><title>2019-09-14 1031.7579999999994 kCal</title></rect><rect fill="#49edff" height="2.6" width="2.6" x="136.0" y="66.5"><title>2019-09-15 546.4529999999999 kCal</title></rect><rect fill="#fff100" height="2.6" width="2.6" x="139.5" y="45.5"><title>2019-09-16 641.4149999999998 kCal</title></rect><rect fill="#ffee00" height="2.6" width="2.6" x="139.5" y="49.0"><title>2019-09-17 745.4000000000005 kCal</title></rect><rect fill="#fff100" height="2.6" width="2.6" x="139.5" y="52.5"><title>2019-09-18 642.0389999999991 kCal</title></rect><rect fill="#49efff" height="2.6" width="2.6" x="139.5" y="56.0"><title>2019-09-19 582.8350000000004 kCal</title></rect><rect fill="#ffef00" height="2.6" width="2.6" x="139.5" y="59.5"><title>2019-09-20 701.9879999999994 kCal</title></rect><rect fill="#49efff" height="2.6" width="2.6" x="139.5" y="63.0"><title>2019-09-21 583.8429999999996 kCal</title></rect><rect fill="red" height="2.6" width="2.6" x="139.5" y="66.5"><title>2019-09-22 955.1489999999991 kCal</title></rect><rect fill="red" height="2.6" width="2.6" x="143.0" y="45.5"><title>2019-09-23 828.0259999999986 kCal</title></rect><rect fill="red" height="2.6" width="2.6" x="143.0" y="49.0"><title>2019-09-24 8116.424000000002 kCal</title></rect><rect fill="red" height="2.6" width="2.6" x="143.0" y="52.5"><title>2019-09-25 11470.355000000005 kCal</title></rect><rect fill="red" height="2.6" width="2.6" x="143.0" y="56.0"><title>2019-09-26 893.3059999999999 kCal</title></rect><rect fill="red" height="2.6" width="2.6" x="143.0" y="59.5"><title>2019-09-27 952.2479999999994 kCal</title></rect><rect fill="red" height="2.6" width="2.6" x="143.0" y="63.0"><title>2019-09-28 1343.8409999999997 kCal</title></rect><rect fill="#4ae7ff" height="2.6" width="2.6" x="143.0" y="66.5"><title>2019-09-29 433.7190000000004 kCal</title></rect><rect fill="#fff100" height="2.6" width="2.6" x="146.5" y="45.5"><title>2019-09-30 645.7959999999994 kCal</title></rect><rect fill="#ffef00" height="2.6" width="2.6" x="146.5" y="49.0"><title>2019-10-01 708.6069999999987 kCal</title></rect><rect fill="#fff000" height="2.6" width="2.6" x="146.5" y="52.5"><title>2019-10-02 665.3109999999997 kCal</title></rect><rect fill="#ffee00" height="2.6" width="2.6" x="146.5" y="56.0"><title>2019-10-03 785.9850000000009 kCal</title></rect><rect fill="#ffee00" height="2.6" width="2.6" x="146.5" y="59.5"><title>2019-10-04 751.9010000000001 kCal</title></rect><rect fill="#ffee00" height="2.6" width="2.6" x="146.5" y="63.0"><title>2019-10-05 777.0960000000007 kCal</title></rect><rect fill="#49edff" height="2.6" width="2.6" x="146.5" y="66.5"><title>2019-10-06 541.625 kCal</title></rect><rect fill="#4ae6ff" height="2.6" width="2.6" x="150.0" y="45.5"><title>2019-10-07 408.2480000000002 kCal</title></rect><rect fill="red" height="2.6" width="2.6" x="150.0" y="49.0"><title>2019-10-08 955.0070000000004 kCal</title></rect><rect fill="red" height="2.6" width="2.6" x="150.0" y="52.5"><title>2019-10-09 816.3669999999992 kCal</title></rect><rect fill="#fff000" height="2.6" width="2.6" x="150.0" y="56.0"><title>2019-10-10 662.232 kCal</title></rect><rect fill="#ffee00" height="2.6" width="2.6" x="150.0" y="59.5"><title>2019-10-11 755.5110000000005 kCal</title></rect><rect fill="red" height="2.6" width="2.6" x="150.0" y="63.0"><title>2019-10-12 916.5690000000002 kCal</title></rect><rect fill="#4ae8ff" height="2.6" width="2.6" x="150.0" y="66.5"><title>2019-10-13 442.3270000000002 kCal</title></rect><rect fill="#fff100" height="2.6" width="2.6" x="153.5" y="45.5"><title>2019-10-14 638.9959999999995 kCal</title></rect><rect fill="red" height="2.6" width="2.6" x="153.5" y="49.0"><title>2019-10-15 829.4940000000001 kCal</title></rect><rect fill="#ffef00" height="2.6" width="2.6" x="153.5" y="52.5"><title>2019-10-16 721.7970000000015 kCal</title></rect><rect fill="red" height="2.6" width="2.6" x="153.5" y="56.0"><title>2019-10-17 961.8280000000005 kCal</title></rect><rect fill="#ffef00" height="2.6" width="2.6" x="153.5" y="59.5"><title>2019-10-18 705.0020000000005 kCal</title></rect><rect fill="#4ae9ff" height="2.6" width="2.6" x="153.5" y="63.0"><title>2019-10-19 458.442 kCal</title></rect><rect fill="#ffef00" height="2.6" width="2.6" x="153.5" y="66.5"><title>2019-10-20 741.8349999999998 kCal</title></rect><rect fill="red" height="2.6" width="2.6" x="157.0" y="45.5"><title>2019-10-21 814.7740000000002 kCal</title></rect><rect fill="red" height="2.6" width="2.6" x="157.0" y="49.0"><title>2019-10-22 1056.5000000000011 kCal</title></rect><rect fill="#fff100" height="2.6" width="2.6" x="157.0" y="52.5"><title>2019-10-23 615.5290000000005 kCal</title></rect><rect fill="#ffef00" height="2.6" width="2.6" x="157.0" y="56.0"><title>2019-10-24 725.4209999999998 kCal</title></rect><rect fill="red" height="2.6" width="2.6" x="157.0" y="59.5"><title>2019-10-25 935.22 kCal</title></rect><rect fill="red" height="2.6" width="2.6" x="157.0" y="63.0"><title>2019-10-26 1158.3880000000006 kCal</title></rect><rect fill="#4be2ff" height="2.6" width="2.6" x="157.0" y="66.5"><title>2019-10-27 318.52699999999953 kCal</title></rect><rect fill="#fff000" height="2.6" width="2.6" x="160.5" y="45.5"><title>2019-10-28 658.7059999999999 kCal</title></rect><rect fill="#fff000" height="2.6" width="2.6" x="160.5" y="49.0"><title>2019-10-29 680.835 kCal</title></rect><rect fill="#fff000" height="2.6" width="2.6" x="160.5" y="52.5"><title>2019-10-30 656.0869999999999 kCal</title></rect><rect fill="#ffee00" height="2.6" width="2.6" x="160.5" y="56.0"><title>2019-10-31 772.8509999999995 kCal</title></rect><rect fill="red" height="2.6" width="2.6" x="160.5" y="59.5"><title>2019-11-01 1029.973 kCal</title></rect><rect fill="red" height="2.6" width="2.6" x="160.5" y="63.0"><title>2019-11-02 864.535 kCal</title></rect><rect fill="#fff100" height="2.6" width="2.6" x="160.5" y="66.5"><title>2019-11-03 612.3689999999998 kCal</title></rect><rect fill="#ffef00" height="2.6" width="2.6" x="164.0" y="45.5"><title>2019-11-04 705.3729999999998 kCal</title></rect><rect fill="red" height="2.6" width="2.6" x="164.0" y="49.0"><title>2019-11-05 1071.9819999999997 kCal</title></rect><rect fill="red" height="2.6" width="2.6" x="164.0" y="52.5"><title>2019-11-06 826.9059999999992 kCal</title></rect><rect fill="red" height="2.6" width="2.6" x="164.0" y="56.0"><title>2019-11-07 898.5100000000009 kCal</title></rect><rect fill="red" height="2.6" width="2.6" x="164.0" y="59.5"><title>2019-11-08 962.0479999999998 kCal</title></rect><rect fill="#49ecff" height="2.6" width="2.6" x="164.0" y="63.0"><title>2019-11-09 529.3060000000007 kCal</title></rect><rect fill="#4aeaff" height="2.6" width="2.6" x="164.0" y="66.5"><title>2019-11-10 490.8890000000004 kCal</title></rect><rect fill="#4ae5ff" height="2.6" width="2.6" x="167.5" y="45.5"><title>2019-11-11 390.6450000000002 kCal</title></rect><rect fill="red" height="2.6" width="2.6" x="167.5" y="49.0"><title>2019-11-12 903.9030000000007 kCal</title></rect><rect fill="red" height="2.6" width="2.6" x="167.5" y="52.5"><title>2019-11-13 935.1890000000008 kCal</title></rect><rect fill="red" height="2.6" width="2.6" x="167.5" y="56.0"><title>2019-11-14 839.9989999999999 kCal</title></rect><rect fill="red" height="2.6" width="2.6" x="167.5" y="59.5"><title>2019-11-15 809.4459999999993 kCal</title></rect><rect fill="#4ae6ff" height="2.6" width="2.6" x="167.5" y="63.0"><title>2019-11-16 402.1689999999999 kCal</title></rect><rect fill="#fff100" height="2.6" width="2.6" x="167.5" y="66.5"><title>2019-11-17 631.0359999999995 kCal</title></rect><rect fill="#ffef00" height="2.6" width="2.6" x="171.0" y="45.5"><title>2019-11-18 729.4139999999993 kCal</title></rect><rect fill="#ffef00" height="2.6" width="2.6" x="171.0" y="49.0"><title>2019-11-19 723.3859999999997 kCal</title></rect><rect fill="#fff000" height="2.6" width="2.6" x="171.0" y="52.5"><title>2019-11-20 697.2819999999998 kCal</title></rect><rect fill="#fff100" height="2.6" width="2.6" x="171.0" y="56.0"><title>2019-11-21 650.062 kCal</title></rect><rect fill="red" height="2.6" width="2.6" x="171.0" y="59.5"><title>2019-11-22 885.9630000000002 kCal</title></rect><rect fill="#ffee00" height="2.6" width="2.6" x="171.0" y="63.0"><title>2019-11-23 779.460000000001 kCal</title></rect><rect fill="#4ae9ff" height="2.6" width="2.6" x="171.0" y="66.5"><title>2019-11-24 464.74299999999954 kCal</title></rect><rect fill="red" height="2.6" width="2.6" x="174.5" y="45.5"><title>2019-11-25 950.7330000000014 kCal</title></rect><rect fill="#ffee00" height="2.6" width="2.6" x="174.5" y="49.0"><title>2019-11-26 761.9770000000007 kCal</title></rect><rect fill="red" height="2.6" width="2.6" x="174.5" y="52.5"><title>2019-11-27 1080.7610000000004 kCal</title></rect><rect fill="#4aecff" height="2.6" width="2.6" x="174.5" y="56.0"><title>2019-11-28 520.9410000000006 kCal</title></rect><rect fill="red" height="2.6" width="2.6" x="174.5" y="59.5"><title>2019-11-29 804.9130000000001 kCal</title></rect><rect fill="#ffef00" height="2.6" width="2.6" x="174.5" y="63.0"><title>2019-11-30 725.2560000000003 kCal</title></rect><rect fill="#4ae7ff" height="2.6" width="2.6" x="174.5" y="66.5"><title>2019-12-01 417.9270000000004 kCal</title></rect><rect fill="#ffee00" height="2.6" width="2.6" x="178.0" y="45.5"><title>2019-12-02 773.5760000000005 kCal</title></rect><rect fill="red" height="2.6" width="2.6" x="178.0" y="49.0"><title>2019-12-03 854.581999999998 kCal</title></rect><rect fill="red" height="2.6" width="2.6" x="178.0" y="52.5"><title>2019-12-04 865.8179999999999 kCal</title></rect><rect fill="red" height="2.6" width="2.6" x="178.0" y="56.0"><title>2019-12-05 925.4730000000004 kCal</title></rect><rect fill="#ffee00" height="2.6" width="2.6" x="178.0" y="59.5"><title>2019-12-06 758.3200000000003 kCal</title></rect><rect fill="#4bdfff" height="2.6" width="2.6" x="178.0" y="63.0"><title>2019-12-07 265.4129999999997 kCal</title></rect><rect fill="red" height="2.6" width="2.6" x="178.0" y="66.5"><title>2019-12-08 820.3310000000002 kCal</title></rect><rect fill="#49efff" height="2.6" width="2.6" x="181.5" y="45.5"><title>2019-12-09 575.9139999999995 kCal</title></rect><rect fill="red" height="2.6" width="2.6" x="181.5" y="49.0"><title>2019-12-10 1319.0389999999989 kCal</title></rect><rect fill="red" height="2.6" width="2.6" x="181.5" y="52.5"><title>2019-12-11 1621.5769999999995 kCal</title></rect><rect fill="red" height="2.6" width="2.6" x="181.5" y="56.0"><title>2019-12-12 1111.3999999999976 kCal</title></rect><rect fill="red" height="2.6" width="2.6" x="181.5" y="59.5"><title>2019-12-13 1675.978 kCal</title></rect><rect fill="red" height="2.6" width="2.6" x="181.5" y="63.0"><title>2019-12-14 1404.2839999999994 kCal</title></rect><rect fill="#ffef00" height="2.6" width="2.6" x="181.5" y="66.5"><title>2019-12-15 725.123000000001 kCal</title></rect><rect fill="#4aebff" height="2.6" width="2.6" x="185.0" y="45.5"><title>2019-12-16 507.7709999999994 kCal</title></rect><rect fill="red" height="2.6" width="2.6" x="185.0" y="49.0"><title>2019-12-17 943.9119999999981 kCal</title></rect><rect fill="#4be4ff" height="2.6" width="2.6" x="185.0" y="52.5"><title>2019-12-18 360.29699999999946 kCal</title></rect><rect fill="#49efff" height="2.6" width="2.6" x="185.0" y="56.0"><title>2019-12-19 586.4969999999988 kCal</title></rect><rect fill="red" height="2.6" width="2.6" x="185.0" y="59.5"><title>2019-12-20 804.9849999999997 kCal</title></rect><rect fill="red" height="2.6" width="2.6" x="185.0" y="63.0"><title>2019-12-21 1546.0499999999997 kCal</title></rect><rect fill="red" height="2.6" width="2.6" x="185.0" y="66.5"><title>2019-12-22 934.620999999999 kCal</title></rect><rect fill="red" height="2.6" width="2.6" x="188.5" y="45.5"><title>2019-12-23 1443.0689999999993 kCal</title></rect><rect fill="#ffef00" height="2.6" width="2.6" x="188.5" y="49.0"><title>2019-12-24 739.5139999999992 kCal</title></rect><rect fill="red" height="2.6" width="2.6" x="188.5" y="52.5"><title>2019-12-25 1153.7439999999997 kCal</title></rect><rect fill="red" height="2.6" width="2.6" x="188.5" y="56.0"><title>2019-12-26 894.8799999999995 kCal</title></rect><rect fill="red" height="2.6" width="2.6" x="188.5" y="59.5"><title>2019-12-27 934.8129999999991 kCal</title></rect><rect fill="#49eeff" height="2.6" width="2.6" x="188.5" y="63.0"><title>2019-12-28 564.3440000000002 kCal</title></rect><rect fill="#fff100" height="2.6" width="2.6" x="188.5" y="66.5"><title>2019-12-29 652.3640000000001 kCal</title></rect><rect fill="red" height="2.6" width="2.6" x="192.0" y="45.5"><title>2019-12-30 896.4729999999993 kCal</title></rect><rect fill="#4ae5ff" height="2.6" width="2.6" x="192.0" y="49.0"><title>2019-12-31 384.5269999999996 kCal</title></rect></svg>