<?xml version="1.0" encoding="utf-8" ?>
<svg baseProfile="full" height="78mm" version="1.1" viewBox="0,0,200,78" width="200mm" xmlns="http://www.w3.org/2000/svg" xmlns:ev="http://www.w3.org/2001/xml-events" xmlns:xlink="http://www.w3.org/1999/xlink"><defs /><rect fill="#222222" height="78" width="200" x="0" y="0" /><text fill="#FFFFFF" style="font-size:12px; font-family:Arial; font-weight:bold;" x="10" y="20">rip-tyang apple_health</text><text dominant-baseline="hanging" fill="#FFFFFF" style="font-size:10.0px; font-family:Arial;" x="10" y="30">2015</text><text dominant-baseline="hanging" fill="#FFFFFF" style="font-size:4.125px; font-family:Arial;" x="175" y="35">3224 hours</text><text fill="#FFFFFF" style="font-size:2.5px; font-family:Arial" x="10.0" y="44">Jan</text><text fill="#FFFFFF" style="font-size:2.5px; font-family:Arial" x="25.5" y="44">Feb</text><text fill="#FFFFFF" style="font-size:2.5px; font-family:Arial" x="41.0" y="44">Mar</text><text fill="#FFFFFF" style="font-size:2.5px; font-family:Arial" x="56.5" y="44">Apr</text><text fill="#FFFFFF" style="font-size:2.5px; font-family:Arial" x="72.0" y="44">May</text><text fill="#FFFFFF" style="font-size:2.5px; font-family:Arial" x="87.5" y="44">Jun</text><text fill="#FFFFFF" style="font-size:2.5px; font-family:Arial" x="103.0" y="44">Jul</text><text fill="#FFFFFF" style="font-size:2.5px; font-family:Arial" x="118.5" y="44">Aug</text><text fill="#FFFFFF" style="font-size:2.5px; font-family:Arial" x="134.0" y="44">Sep</text><text fill="#FFFFFF" style="font-size:2.5px; font-family:Arial" x="149.5" y="44">Oct</text><text fill="#FFFFFF" style="font-size:2.5px; font-family:Arial" x="165.0" y="44">Nov</text><text fill="#FFFFFF" style="font-size:2.5px; font-family:Arial" x="180.5" y="44">Dec</text><rect fill="#444444" height="2.6" width="2.6" x="10.0" y="45.5"><title>2014-12-29</title></rect><rect fill="#444444" height="2.6" width="2.6" x="10.0" y="49.0"><title>2014-12-30</title></rect><rect fill="#444444" height="2.6" width="2.6" x="10.0" y="52.5"><title>2014-12-31</title></rect><rect fill="#444444" height="2.6" width="2.6" x="10.0" y="56.0"><title>2015-01-01</title></rect><rect fill="#444444" height="2.6" width="2.6" x="10.0" y="59.5"><title>2015-01-02</title></rect><rect fill="#444444" height="2.6" width="2.6" x="10.0" y="63.0"><title>2015-01-03</title></rect><rect fill="#444444" height="2.6" width="2.6" x="10.0" y="66.5"><title>2015-01-04</title></rect><rect fill="#444444" height="2.6" width="2.6" x="13.5" y="45.5"><title>2015-01-05</title></rect><rect fill="#444444" height="2.6" width="2.6" x="13.5" y="49.0"><title>2015-01-06</title></rect><rect fill="#444444" height="2.6" width="2.6" x="13.5" y="52.5"><title>2015-01-07</title></rect><rect fill="#444444" height="2.6" width="2.6" x="13.5" y="56.0"><title>2015-01-08</title></rect><rect fill="#444444" height="2.6" width="2.6" x="13.5" y="59.5"><title>2015-01-09</title></rect><rect fill="#444444" height="2.6" width="2.6" x="13.5" y="63.0"><title>2015-01-10</title></rect><rect fill="#444444" height="2.6" width="2.6" x="13.5" y="66.5"><title>2015-01-11</title></rect><rect fill="#444444" height="2.6" width="2.6" x="17.0" y="45.5"><title>2015-01-12</title></rect><rect fill="#444444" height="2.6" width="2.6" x="17.0" y="49.0"><title>2015-01-13</title></rect><rect fill="#444444" height="2.6" width="2.6" x="17.0" y="52.5"><title>2015-01-14</title></rect><rect fill="#444444" height="2.6" width="2.6" x="17.0" y="56.0"><title>2015-01-15</title></rect><rect fill="#444444" height="2.6" width="2.6" x="17.0" y="59.5"><title>2015-01-16</title></rect><rect fill="#444444" height="2.6" width="2.6" x="17.0" y="63.0"><title>2015-01-17</title></rect><rect fill="#444444" height="2.6" width="2.6" x="17.0" y="66.5"><title>2015-01-18</title></rect><rect fill="#444444" height="2.6" width="2.6" x="20.5" y="45.5"><title>2015-01-19</title></rect><rect fill="#444444" height="2.6" width="2.6" x="20.5" y="49.0"><title>2015-01-20</title></rect><rect fill="#444444" height="2.6" width="2.6" x="20.5" y="52.5"><title>2015-01-21</title></rect><rect fill="#444444" height="2.6" width="2.6" x="20.5" y="56.0"><title>2015-01-22</title></rect><rect fill="#444444" height="2.6" width="2.6" x="20.5" y="59.5"><title>2015-01-23</title></rect><rect fill="#444444" height="2.6" width="2.6" x="20.5" y="63.0"><title>2015-01-24</title></rect><rect fill="#444444" height="2.6" width="2.6" x="20.5" y="66.5"><title>2015-01-25</title></rect><rect fill="#444444" height="2.6" width="2.6" x="24.0" y="45.5"><title>2015-01-26</title></rect><rect fill="#444444" height="2.6" width="2.6" x="24.0" y="49.0"><title>2015-01-27</title></rect><rect fill="#444444" height="2.6" width="2.6" x="24.0" y="52.5"><title>2015-01-28</title></rect><rect fill="#444444" height="2.6" width="2.6" x="24.0" y="56.0"><title>2015-01-29</title></rect><rect fill="#444444" height="2.6" width="2.6" x="24.0" y="59.5"><title>2015-01-30</title></rect><rect fill="#444444" height="2.6" width="2.6" x="24.0" y="63.0"><title>2015-01-31</title></rect><rect fill="#444444" height="2.6" width="2.6" x="24.0" y="66.5"><title>2015-02-01</title></rect><rect fill="#444444" height="2.6" width="2.6" x="27.5" y="45.5"><title>2015-02-02</title></rect><rect fill="#444444" height="2.6" width="2.6" x="27.5" y="49.0"><title>2015-02-03</title></rect><rect fill="#444444" height="2.6" width="2.6" x="27.5" y="52.5"><title>2015-02-04</title></rect><rect fill="#444444" height="2.6" width="2.6" x="27.5" y="56.0"><title>2015-02-05</title></rect><rect fill="#444444" height="2.6" width="2.6" x="27.5" y="59.5"><title>2015-02-06</title></rect><rect fill="#444444" height="2.6" width="2.6" x="27.5" y="63.0"><title>2015-02-07</title></rect><rect fill="#444444" height="2.6" width="2.6" x="27.5" y="66.5"><title>2015-02-08</title></rect><rect fill="#444444" height="2.6" width="2.6" x="31.0" y="45.5"><title>2015-02-09</title></rect><rect fill="#444444" height="2.6" width="2.6" x="31.0" y="49.0"><title>2015-02-10</title></rect><rect fill="#444444" height="2.6" width="2.6" x="31.0" y="52.5"><title>2015-02-11</title></rect><rect fill="#444444" height="2.6" width="2.6" x="31.0" y="56.0"><title>2015-02-12</title></rect><rect fill="#444444" height="2.6" width="2.6" x="31.0" y="59.5"><title>2015-02-13</title></rect><rect fill="#444444" height="2.6" width="2.6" x="31.0" y="63.0"><title>2015-02-14</title></rect><rect fill="#444444" height="2.6" width="2.6" x="31.0" y="66.5"><title>2015-02-15</title></rect><rect fill="#444444" height="2.6" width="2.6" x="34.5" y="45.5"><title>2015-02-16</title></rect><rect fill="#444444" height="2.6" width="2.6" x="34.5" y="49.0"><title>2015-02-17</title></rect><rect fill="#444444" height="2.6" width="2.6" x="34.5" y="52.5"><title>2015-02-18</title></rect><rect fill="#444444" height="2.6" width="2.6" x="34.5" y="56.0"><title>2015-02-19</title></rect><rect fill="#444444" height="2.6" width="2.6" x="34.5" y="59.5"><title>2015-02-20</title></rect><rect fill="#444444" height="2.6" width="2.6" x="34.5" y="63.0"><title>2015-02-21</title></rect><rect fill="#444444" height="2.6" width="2.6" x="34.5" y="66.5"><title>2015-02-22</title></rect><rect fill="#444444" height="2.6" width="2.6" x="38.0" y="45.5"><title>2015-02-23</title></rect><rect fill="#444444" height="2.6" width="2.6" x="38.0" y="49.0"><title>2015-02-24</title></rect><rect fill="#444444" height="2.6" width="2.6" x="38.0" y="52.5"><title>2015-02-25</title></rect><rect fill="#444444" height="2.6" width="2.6" x="38.0" y="56.0"><title>2015-02-26</title></rect><rect fill="#444444" height="2.6" width="2.6" x="38.0" y="59.5"><title>2015-02-27</title></rect><rect fill="#444444" height="2.6" width="2.6" x="38.0" y="63.0"><title>2015-02-28</title></rect><rect fill="#444444" height="2.6" width="2.6" x="38.0" y="66.5"><title>2015-03-01</title></rect><rect fill="#444444" height="2.6" width="2.6" x="41.5" y="45.5"><title>2015-03-02</title></rect><rect fill="#444444" height="2.6" width="2.6" x="41.5" y="49.0"><title>2015-03-03</title></rect><rect fill="#444444" height="2.6" width="2.6" x="41.5" y="52.5"><title>2015-03-04</title></rect><rect fill="#444444" height="2.6" width="2.6" x="41.5" y="56.0"><title>2015-03-05</title></rect><rect fill="#444444" height="2.6" width="2.6" x="41.5" y="59.5"><title>2015-03-06</title></rect><rect fill="#444444" height="2.6" width="2.6" x="41.5" y="63.0"><title>2015-03-07</title></rect><rect fill="#444444" height="2.6" width="2.6" x="41.5" y="66.5"><title>2015-03-08</title></rect><rect fill="#444444" height="2.6" width="2.6" x="45.0" y="45.5"><title>2015-03-09</title></rect><rect fill="#444444" height="2.6" width="2.6" x="45.0" y="49.0"><title>2015-03-10</title></rect><rect fill="#444444" height="2.6" width="2.6" x="45.0" y="52.5"><title>2015-03-11</title></rect><rect fill="#444444" height="2.6" width="2.6" x="45.0" y="56.0"><title>2015-03-12</title></rect><rect fill="#444444" height="2.6" width="2.6" x="45.0" y="59.5"><title>2015-03-13</title></rect><rect fill="#444444" height="2.6" width="2.6" x="45.0" y="63.0"><title>2015-03-14</title></rect><rect fill="#444444" height="2.6" width="2.6" x="45.0" y="66.5"><title>2015-03-15</title></rect><rect fill="#444444" height="2.6" width="2.6" x="48.5" y="45.5"><title>2015-03-16</title></rect><rect fill="#444444" height="2.6" width="2.6" x="48.5" y="49.0"><title>2015-03-17</title></rect><rect fill="#444444" height="2.6" width="2.6" x="48.5" y="52.5"><title>2015-03-18</title></rect><rect fill="#444444" height="2.6" width="2.6" x="48.5" y="56.0"><title>2015-03-19</title></rect><rect fill="#444444" height="2.6" width="2.6" x="48.5" y="59.5"><title>2015-03-20</title></rect><rect fill="#444444" height="2.6" width="2.6" x="48.5" y="63.0"><title>2015-03-21</title></rect><rect fill="#444444" height="2.6" width="2.6" x="48.5" y="66.5"><title>2015-03-22</title></rect><rect fill="#444444" height="2.6" width="2.6" x="52.0" y="45.5"><title>2015-03-23</title></rect><rect fill="#444444" height="2.6" width="2.6" x="52.0" y="49.0"><title>2015-03-24</title></rect><rect fill="#444444" height="2.6" width="2.6" x="52.0" y="52.5"><title>2015-03-25</title></rect><rect fill="#444444" height="2.6" width="2.6" x="52.0" y="56.0"><title>2015-03-26</title></rect><rect fill="#444444" height="2.6" width="2.6" x="52.0" y="59.5"><title>2015-03-27</title></rect><rect fill="#444444" height="2.6" width="2.6" x="52.0" y="63.0"><title>2015-03-28</title></rect><rect fill="#444444" height="2.6" width="2.6" x="52.0" y="66.5"><title>2015-03-29</title></rect><rect fill="#444444" height="2.6" width="2.6" x="55.5" y="45.5"><title>2015-03-30</title></rect><rect fill="#444444" height="2.6" width="2.6" x="55.5" y="49.0"><title>2015-03-31</title></rect><rect fill="#444444" height="2.6" width="2.6" x="55.5" y="52.5"><title>2015-04-01</title></rect><rect fill="#444444" height="2.6" width="2.6" x="55.5" y="56.0"><title>2015-04-02</title></rect><rect fill="#444444" height="2.6" width="2.6" x="55.5" y="59.5"><title>2015-04-03</title></rect><rect fill="#444444" height="2.6" width="2.6" x="55.5" y="63.0"><title>2015-04-04</title></rect><rect fill="#444444" height="2.6" width="2.6" x="55.5" y="66.5"><title>2015-04-05</title></rect><rect fill="#444444" height="2.6" width="2.6" x="59.0" y="45.5"><title>2015-04-06</title></rect><rect fill="#444444" height="2.6" width="2.6" x="59.0" y="49.0"><title>2015-04-07</title></rect><rect fill="#444444" height="2.6" width="2.6" x="59.0" y="52.5"><title>2015-04-08</title></rect><rect fill="#444444" height="2.6" width="2.6" x="59.0" y="56.0"><title>2015-04-09</title></rect><rect fill="#444444" height="2.6" width="2.6" x="59.0" y="59.5"><title>2015-04-10</title></rect><rect fill="#444444" height="2.6" width="2.6" x="59.0" y="63.0"><title>2015-04-11</title></rect><rect fill="#444444" height="2.6" width="2.6" x="59.0" y="66.5"><title>2015-04-12</title></rect><rect fill="#444444" height="2.6" width="2.6" x="62.5" y="45.5"><title>2015-04-13</title></rect><rect fill="#444444" height="2.6" width="2.6" x="62.5" y="49.0"><title>2015-04-14</title></rect><rect fill="#444444" height="2.6" width="2.6" x="62.5" y="52.5"><title>2015-04-15</title></rect><rect fill="#444444" height="2.6" width="2.6" x="62.5" y="56.0"><title>2015-04-16</title></rect><rect fill="#444444" height="2.6" width="2.6" x="62.5" y="59.5"><title>2015-04-17</title></rect><rect fill="#444444" height="2.6" width="2.6" x="62.5" y="63.0"><title>2015-04-18</title></rect><rect fill="#444444" height="2.6" width="2.6" x="62.5" y="66.5"><title>2015-04-19</title></rect><rect fill="#444444" height="2.6" width="2.6" x="66.0" y="45.5"><title>2015-04-20</title></rect><rect fill="#444444" height="2.6" width="2.6" x="66.0" y="49.0"><title>2015-04-21</title></rect><rect fill="#444444" height="2.6" width="2.6" x="66.0" y="52.5"><title>2015-04-22</title></rect><rect fill="#444444" height="2.6" width="2.6" x="66.0" y="56.0"><title>2015-04-23</title></rect><rect fill="#444444" height="2.6" width="2.6" x="66.0" y="59.5"><title>2015-04-24</title></rect><rect fill="#444444" height="2.6" width="2.6" x="66.0" y="63.0"><title>2015-04-25</title></rect><rect fill="#444444" height="2.6" width="2.6" x="66.0" y="66.5"><title>2015-04-26</title></rect><rect fill="#444444" height="2.6" width="2.6" x="69.5" y="45.5"><title>2015-04-27</title></rect><rect fill="#444444" height="2.6" width="2.6" x="69.5" y="49.0"><title>2015-04-28</title></rect><rect fill="#444444" height="2.6" width="2.6" x="69.5" y="52.5"><title>2015-04-29</title></rect><rect fill="#444444" height="2.6" width="2.6" x="69.5" y="56.0"><title>2015-04-30</title></rect><rect fill="#444444" height="2.6" width="2.6" x="69.5" y="59.5"><title>2015-05-01</title></rect><rect fill="#444444" height="2.6" width="2.6" x="69.5" y="63.0"><title>2015-05-02</title></rect><rect fill="#444444" height="2.6" width="2.6" x="69.5" y="66.5"><title>2015-05-03</title></rect><rect fill="#444444" height="2.6" width="2.6" x="73.0" y="45.5"><title>2015-05-04</title></rect><rect fill="#444444" height="2.6" width="2.6" x="73.0" y="49.0"><title>2015-05-05</title></rect><rect fill="#444444" height="2.6" width="2.6" x="73.0" y="52.5"><title>2015-05-06</title></rect><rect fill="#444444" height="2.6" width="2.6" x="73.0" y="56.0"><title>2015-05-07</title></rect><rect fill="#444444" height="2.6" width="2.6" x="73.0" y="59.5"><title>2015-05-08</title></rect><rect fill="#444444" height="2.6" width="2.6" x="73.0" y="63.0"><title>2015-05-09</title></rect><rect fill="#444444" height="2.6" width="2.6" x="73.0" y="66.5"><title>2015-05-10</title></rect><rect fill="#444444" height="2.6" width="2.6" x="76.5" y="45.5"><title>2015-05-11</title></rect><rect fill="#444444" height="2.6" width="2.6" x="76.5" y="49.0"><title>2015-05-12</title></rect><rect fill="#444444" height="2.6" width="2.6" x="76.5" y="52.5"><title>2015-05-13</title></rect><rect fill="#444444" height="2.6" width="2.6" x="76.5" y="56.0"><title>2015-05-14</title></rect><rect fill="#444444" height="2.6" width="2.6" x="76.5" y="59.5"><title>2015-05-15</title></rect><rect fill="#444444" height="2.6" width="2.6" x="76.5" y="63.0"><title>2015-05-16</title></rect><rect fill="#444444" height="2.6" width="2.6" x="76.5" y="66.5"><title>2015-05-17</title></rect><rect fill="#444444" height="2.6" width="2.6" x="80.0" y="45.5"><title>2015-05-18</title></rect><rect fill="#444444" height="2.6" width="2.6" x="80.0" y="49.0"><title>2015-05-19</title></rect><rect fill="#444444" height="2.6" width="2.6" x="80.0" y="52.5"><title>2015-05-20</title></rect><rect fill="#444444" height="2.6" width="2.6" x="80.0" y="56.0"><title>2015-05-21</title></rect><rect fill="#444444" height="2.6" width="2.6" x="80.0" y="59.5"><title>2015-05-22</title></rect><rect fill="#444444" height="2.6" width="2.6" x="80.0" y="63.0"><title>2015-05-23</title></rect><rect fill="#444444" height="2.6" width="2.6" x="80.0" y="66.5"><title>2015-05-24</title></rect><rect fill="#444444" height="2.6" width="2.6" x="83.5" y="45.5"><title>2015-05-25</title></rect><rect fill="#444444" height="2.6" width="2.6" x="83.5" y="49.0"><title>2015-05-26</title></rect><rect fill="#444444" height="2.6" width="2.6" x="83.5" y="52.5"><title>2015-05-27</title></rect><rect fill="#444444" height="2.6" width="2.6" x="83.5" y="56.0"><title>2015-05-28</title></rect><rect fill="#444444" height="2.6" width="2.6" x="83.5" y="59.5"><title>2015-05-29</title></rect><rect fill="#444444" height="2.6" width="2.6" x="83.5" y="63.0"><title>2015-05-30</title></rect><rect fill="#444444" height="2.6" width="2.6" x="83.5" y="66.5"><title>2015-05-31</title></rect><rect fill="#444444" height="2.6" width="2.6" x="87.0" y="45.5"><title>2015-06-01</title></rect><rect fill="#444444" height="2.6" width="2.6" x="87.0" y="49.0"><title>2015-06-02</title></rect><rect fill="#444444" height="2.6" width="2.6" x="87.0" y="52.5"><title>2015-06-03</title></rect><rect fill="#444444" height="2.6" width="2.6" x="87.0" y="56.0"><title>2015-06-04</title></rect><rect fill="#444444" height="2.6" width="2.6" x="87.0" y="59.5"><title>2015-06-05</title></rect><rect fill="#4dd2ff" height="2.6" width="2.6" x="87.0" y="63.0"><title>2015-06-06 1 hours</title></rect><rect fill="#444444" height="2.6" width="2.6" x="87.0" y="66.5"><title>2015-06-07</title></rect><rect fill="#444444" height="2.6" width="2.6" x="90.5" y="45.5"><title>2015-06-08</title></rect><rect fill="#444444" height="2.6" width="2.6" x="90.5" y="49.0"><title>2015-06-09</title></rect><rect fill="#444444" height="2.6" width="2.6" x="90.5" y="52.5"><title>2015-06-10</title></rect><rect fill="#b0ff20" height="2.6" width="2.6" x="90.5" y="56.0"><title>2015-06-11 15 hours</title></rect><rect fill="#cdff1d" height="2.6" width="2.6" x="90.5" y="59.5"><title>2015-06-12 16 hours</title></rect><rect fill="#ecff1a" height="2.6" width="2.6" x="90.5" y="63.0"><title>2015-06-13 17 hours</title></rect><rect fill="#ecff1a" height="2.6" width="2.6" x="90.5" y="66.5"><title>2015-06-14 17 hours</title></rect><rect fill="#b0ff20" height="2.6" width="2.6" x="94.0" y="45.5"><title>2015-06-15 15 hours</title></rect><rect fill="#cdff1d" height="2.6" width="2.6" x="94.0" y="49.0"><title>2015-06-16 16 hours</title></rect><rect fill="#ecff1a" height="2.6" width="2.6" x="94.0" y="52.5"><title>2015-06-17 17 hours</title></rect><rect fill="#ecff1a" height="2.6" width="2.6" x="94.0" y="56.0"><title>2015-06-18 17 hours</title></rect><rect fill="#93ff23" height="2.6" width="2.6" x="94.0" y="59.5"><title>2015-06-19 14 hours</title></rect><rect fill="#cdff1d" height="2.6" width="2.6" x="94.0" y="63.0"><title>2015-06-20 16 hours</title></rect><rect fill="#ecff1a" height="2.6" width="2.6" x="94.0" y="66.5"><title>2015-06-21 17 hours</title></rect><rect fill="#b0ff20" height="2.6" width="2.6" x="97.5" y="45.5"><title>2015-06-22 15 hours</title></rect><rect fill="#93ff23" height="2.6" width="2.6" x="97.5" y="49.0"><title>2015-06-23 14 hours</title></rect><rect fill="#ecff1a" height="2.6" width="2.6" x="97.5" y="52.5"><title>2015-06-24 17 hours</title></rect><rect fill="#cdff1d" height="2.6" width="2.6" x="97.5" y="56.0"><title>2015-06-25 16 hours</title></rect><rect fill="#ff2000" height="2.6" width="2.6" x="97.5" y="59.5"><title>2015-06-26 22 hours</title></rect><rect fill="#93ff23" height="2.6" width="2.6" x="97.5" y="63.0"><title>2015-06-27 14 hours</title></rect><rect fill="#ecff1a" height="2.6" width="2.6" x="97.5" y="66.5"><title>2015-06-28 17 hours</title></rect><rect fill="#ecff1a" height="2.6" width="2.6" x="101.0" y="45.5"><title>2015-06-29 17 hours</title></rect><rect fill="#cdff1d" height="2.6" width="2.6" x="101.0" y="49.0"><title>2015-06-30 16 hours</title></rect><rect fill="#cdff1d" height="2.6" width="2.6" x="101.0" y="52.5"><title>2015-07-01 16 hours</title></rect><rect fill="#ecff1a" height="2.6" width="2.6" x="101.0" y="56.0"><title>2015-07-02 17 hours</title></rect><rect fill="#ff4a00" height="2.6" width="2.6" x="101.0" y="59.5"><title>2015-07-03 18 hours</title></rect><rect fill="#93ff23" height="2.6" width="2.6" x="101.0" y="63.0"><title>2015-07-04 14 hours</title></rect><rect fill="#cdff1d" height="2.6" width="2.6" x="101.0" y="66.5"><title>2015-07-05 16 hours</title></rect><rect fill="#cdff1d" height="2.6" width="2.6" x="104.5" y="45.5"><title>2015-07-06 16 hours</title></rect><rect fill="#ecff1a" height="2.6" width="2.6" x="104.5" y="49.0"><title>2015-07-07 17 hours</title></rect><rect fill="#ecff1a" height="2.6" width="2.6" x="104.5" y="52.5"><title>2015-07-08 17 hours</title></rect><rect fill="#b0ff20" height="2.6" width="2.6" x="104.5" y="56.0"><title>2015-07-09 15 hours</title></rect><rect fill="#ff4a00" height="2.6" width="2.6" x="104.5" y="59.5"><title>2015-07-10 18 hours</title></rect><rect fill="#93ff23" height="2.6" width="2.6" x="104.5" y="63.0"><title>2015-07-11 14 hours</title></rect><rect fill="#b0ff20" height="2.6" width="2.6" x="104.5" y="66.5"><title>2015-07-12 15 hours</title></rect><rect fill="#cdff1d" height="2.6" width="2.6" x="108.0" y="45.5"><title>2015-07-13 16 hours</title></rect><rect fill="#b0ff20" height="2.6" width="2.6" x="108.0" y="49.0"><title>2015-07-14 15 hours</title></rect><rect fill="red" height="2.6" width="2.6" x="108.0" y="52.5"><title>2015-07-15 23 hours</title></rect><rect fill="#b0ff20" height="2.6" width="2.6" x="108.0" y="56.0"><title>2015-07-16 15 hours</title></rect><rect fill="#ecff1a" height="2.6" width="2.6" x="108.0" y="59.5"><title>2015-07-17 17 hours</title></rect><rect fill="red" height="2.6" width="2.6" x="108.0" y="63.0"><title>2015-07-18 24 hours</title></rect><rect fill="#30ff37" height="2.6" width="2.6" x="108.0" y="66.5"><title>2015-07-19 10 hours</title></rect><rect fill="#cdff1d" height="2.6" width="2.6" x="111.5" y="45.5"><title>2015-07-20 16 hours</title></rect><rect fill="red" height="2.6" width="2.6" x="111.5" y="49.0"><title>2015-07-21 24 hours</title></rect><rect fill="#cdff1d" height="2.6" width="2.6" x="111.5" y="52.5"><title>2015-07-22 16 hours</title></rect><rect fill="#cdff1d" height="2.6" width="2.6" x="111.5" y="56.0"><title>2015-07-23 16 hours</title></rect><rect fill="red" height="2.6" width="2.6" x="111.5" y="59.5"><title>2015-07-24 24 hours</title></rect><rect fill="#ecff1a" height="2.6" width="2.6" x="111.5" y="63.0"><title>2015-07-25 17 hours</title></rect><rect fill="#cdff1d" height="2.6" width="2.6" x="111.5" y="66.5"><title>2015-07-26 16 hours</title></rect><rect fill="#b0ff20" height="2.6" width="2.6" x="115.0" y="45.5"><title>2015-07-27 15 hours</title></rect><rect fill="#ff4a00" height="2.6" width="2.6" x="115.0" y="49.0"><title>2015-07-28 18 hours</title></rect><rect fill="#b0ff20" height="2.6" width="2.6" x="115.0" y="52.5"><title>2015-07-29 15 hours</title></rect><rect fill="#ff4000" height="2.6" width="2.6" x="115.0" y="56.0"><title>2015-07-30 19 hours</title></rect><rect fill="#ff4a00" height="2.6" width="2.6" x="115.0" y="59.5"><title>2015-07-31 18 hours</title></rect><rect fill="#ff4000" height="2.6" width="2.6" x="115.0" y="63.0"><title>2015-08-01 19 hours</title></rect><rect fill="#93ff23" height="2.6" width="2.6" x="115.0" y="66.5"><title>2015-08-02 14 hours</title></rect><rect fill="#42ff2d" height="2.6" width="2.6" x="118.5" y="45.5"><title>2015-08-03 11 hours</title></rect><rect fill="#30ff37" height="2.6" width="2.6" x="118.5" y="49.0"><title>2015-08-04 10 hours</title></rect><rect fill="#77ff26" height="2.6" width="2.6" x="118.5" y="52.5"><title>2015-08-05 13 hours</title></rect><rect fill="#42ff2d" height="2.6" width="2.6" x="118.5" y="56.0"><title>2015-08-06 11 hours</title></rect><rect fill="#33ff56" height="2.6" width="2.6" x="118.5" y="59.5"><title>2015-08-07 9 hours</title></rect><rect fill="#b0ff20" height="2.6" width="2.6" x="118.5" y="63.0"><title>2015-08-08 15 hours</title></rect><rect fill="red" height="2.6" width="2.6" x="118.5" y="66.5"><title>2015-08-09 25 hours</title></rect><rect fill="#ff4000" height="2.6" width="2.6" x="122.0" y="45.5"><title>2015-08-10 19 hours</title></rect><rect fill="#33ff56" height="2.6" width="2.6" x="122.0" y="49.0"><title>2015-08-11 9 hours</title></rect><rect fill="#ff4a00" height="2.6" width="2.6" x="122.0" y="52.5"><title>2015-08-12 18 hours</title></rect><rect fill="#ff4000" height="2.6" width="2.6" x="122.0" y="56.0"><title>2015-08-13 19 hours</title></rect><rect fill="#cdff1d" height="2.6" width="2.6" x="122.0" y="59.5"><title>2015-08-14 16 hours</title></rect><rect fill="#ff2a00" height="2.6" width="2.6" x="122.0" y="63.0"><title>2015-08-15 21 hours</title></rect><rect fill="#93ff23" height="2.6" width="2.6" x="122.0" y="66.5"><title>2015-08-16 14 hours</title></rect><rect fill="#ecff1a" height="2.6" width="2.6" x="125.5" y="45.5"><title>2015-08-17 17 hours</title></rect><rect fill="#cdff1d" height="2.6" width="2.6" x="125.5" y="49.0"><title>2015-08-18 16 hours</title></rect><rect fill="#b0ff20" height="2.6" width="2.6" x="125.5" y="52.5"><title>2015-08-19 15 hours</title></rect><rect fill="#cdff1d" height="2.6" width="2.6" x="125.5" y="56.0"><title>2015-08-20 16 hours</title></rect><rect fill="red" height="2.6" width="2.6" x="125.5" y="59.5"><title>2015-08-21 24 hours</title></rect><rect fill="#77ff26" height="2.6" width="2.6" x="125.5" y="63.0"><title>2015-08-22 13 hours</title></rect><rect fill="red" height="2.6" width="2.6" x="125.5" y="66.5"><title>2015-08-23 23 hours</title></rect><rect fill="#b0ff20" height="2.6" width="2.6" x="129.0" y="45.5"><title>2015-08-24 15 hours</title></rect><rect fill="#cdff1d" height="2.6" width="2.6" x="129.0" y="49.0"><title>2015-08-25 16 hours</title></rect><rect fill="#b0ff20" height="2.6" width="2.6" x="129.0" y="52.5"><title>2015-08-26 15 hours</title></rect><rect fill="#cdff1d" height="2.6" width="2.6" x="129.0" y="56.0"><title>2015-08-27 16 hours</title></rect><rect fill="#77ff26" height="2.6" width="2.6" x="129.0" y="59.5"><title>2015-08-28 13 hours</title></rect><rect fill="#b0ff20" height="2.6" width="2.6" x="129.0" y="63.0"><title>2015-08-29 15 hours</title></rect><rect fill="#5cff2a" height="2.6" width="2.6" x="129.0" y="66.5"><title>2015-08-30 12 hours</title></rect><rect fill="#93ff23" height="2.6" width="2.6" x="132.5" y="45.5"><title>2015-08-31 14 hours</title></rect><rect fill="#93ff23" height="2.6" width="2.6" x="132.5" y="49.0"><title>2015-09-01 14 hours</title></rect><rect fill="#ecff1a" height="2.6" width="2.6" x="132.5" y="52.5"><title>2015-09-02 17 hours</title></rect><rect fill="#b0ff20" height="2.6" width="2.6" x="132.5" y="56.0"><title>2015-09-03 15 hours</title></rect><rect fill="#b0ff20" height="2.6" width="2.6" x="132.5" y="59.5"><title>2015-09-04 15 hours</title></rect><rect fill="#42ff2d" height="2.6" width="2.6" x="132.5" y="63.0"><title>2015-09-05 11 hours</title></rect><rect fill="#ff3500" height="2.6" width="2.6" x="132.5" y="66.5"><title>2015-09-06 20 hours</title></rect><rect fill="#cdff1d" height="2.6" width="2.6" x="136.0" y="45.5"><title>2015-09-07 16 hours</title></rect><rect fill="#cdff1d" height="2.6" width="2.6" x="136.0" y="49.0"><title>2015-09-08 16 hours</title></rect><rect fill="#b0ff20" height="2.6" width="2.6" x="136.0" y="52.5"><title>2015-09-09 15 hours</title></rect><rect fill="#cdff1d" height="2.6" width="2.6" x="136.0" y="56.0"><title>2015-09-10 16 hours</title></rect><rect fill="#b0ff20" height="2.6" width="2.6" x="136.0" y="59.5"><title>2015-09-11 15 hours</title></rect><rect fill="#b0ff20" height="2.6" width="2.6" x="136.0" y="63.0"><title>2015-09-12 15 hours</title></rect><rect fill="#b0ff20" height="2.6" width="2.6" x="136.0" y="66.5"><title>2015-09-13 15 hours</title></rect><rect fill="#b0ff20" height="2.6" width="2.6" x="139.5" y="45.5"><title>2015-09-14 15 hours</title></rect><rect fill="#cdff1d" height="2.6" width="2.6" x="139.5" y="49.0"><title>2015-09-15 16 hours</title></rect><rect fill="#ecff1a" height="2.6" width="2.6" x="139.5" y="52.5"><title>2015-09-16 17 hours</title></rect><rect fill="#93ff23" height="2.6" width="2.6" x="139.5" y="56.0"><title>2015-09-17 14 hours</title></rect><rect fill="#b0ff20" height="2.6" width="2.6" x="139.5" y="59.5"><title>2015-09-18 15 hours</title></rect><rect fill="#cdff1d" height="2.6" width="2.6" x="139.5" y="63.0"><title>2015-09-19 16 hours</title></rect><rect fill="#ff4000" height="2.6" width="2.6" x="139.5" y="66.5"><title>2015-09-20 19 hours</title></rect><rect fill="#cdff1d" height="2.6" width="2.6" x="143.0" y="45.5"><title>2015-09-21 16 hours</title></rect><rect fill="#b0ff20" height="2.6" width="2.6" x="143.0" y="49.0"><title>2015-09-22 15 hours</title></rect><rect fill="#cdff1d" height="2.6" width="2.6" x="143.0" y="52.5"><title>2015-09-23 16 hours</title></rect><rect fill="#cdff1d" height="2.6" width="2.6" x="143.0" y="56.0"><title>2015-09-24 16 hours</title></rect><rect fill="#cdff1d" height="2.6" width="2.6" x="143.0" y="59.5"><title>2015-09-25 16 hours</title></rect><rect fill="#cdff1d" height="2.6" width="2.6" x="143.0" y="63.0"><title>2015-09-26 16 hours</title></rect><rect fill="#77ff26" height="2.6" width="2.6" x="143.0" y="66.5"><title>2015-09-27 13 hours</title></rect><rect fill="#b0ff20" height="2.6" width="2.6" x="146.5" y="45.5"><title>2015-09-28 15 hours</title></rect><rect fill="#ff4a00" height="2.6" width="2.6" x="146.5" y="49.0"><title>2015-09-29 18 hours</title></rect><rect fill="#b0ff20" height="2.6" width="2.6" x="146.5" y="52.5"><title>2015-09-30 15 hours</title></rect><rect fill="#b0ff20" height="2.6" width="2.6" x="146.5" y="56.0"><title>2015-10-01 15 hours</title></rect><rect fill="#93ff23" height="2.6" width="2.6" x="146.5" y="59.5"><title>2015-10-02 14 hours</title></rect><rect fill="#93ff23" height="2.6" width="2.6" x="146.5" y="63.0"><title>2015-10-03 14 hours</title></rect><rect fill="#b0ff20" height="2.6" width="2.6" x="146.5" y="66.5"><title>2015-10-04 15 hours</title></rect><rect fill="#cdff1d" height="2.6" width="2.6" x="150.0" y="45.5"><title>2015-10-05 16 hours</title></rect><rect fill="#ecff1a" height="2.6" width="2.6" x="150.0" y="49.0"><title>2015-10-06 17 hours</title></rect><rect fill="#b0ff20" height="2.6" width="2.6" x="150.0" y="52.5"><title>2015-10-07 15 hours</title></rect><rect fill="#ecff1a" height="2.6" width="2.6" x="150.0" y="56.0"><title>2015-10-08 17 hours</title></rect><rect fill="#ff3500" height="2.6" width="2.6" x="150.0" y="59.5"><title>2015-10-09 20 hours</title></rect><rect fill="#ff4000" height="2.6" width="2.6" x="150.0" y="63.0"><title>2015-10-10 19 hours</title></rect><rect fill="#b0ff20" height="2.6" width="2.6" x="150.0" y="66.5"><title>2015-10-11 15 hours</title></rect><rect fill="#ecff1a" height="2.6" width="2.6" x="153.5" y="45.5"><title>2015-10-12 17 hours</title></rect><rect fill="#93ff23" height="2.6" width="2.6" x="153.5" y="49.0"><title>2015-10-13 14 hours</title></rect><rect fill="#cdff1d" height="2.6" width="2.6" x="153.5" y="52.5"><title>2015-10-14 16 hours</title></rect><rect fill="#b0ff20" height="2.6" width="2.6" x="153.5" y="56.0"><title>2015-10-15 15 hours</title></rect><rect fill="#ecff1a" height="2.6" width="2.6" x="153.5" y="59.5"><title>2015-10-16 17 hours</title></rect><rect fill="#cdff1d" height="2.6" width="2.6" x="153.5" y="63.0"><title>2015-10-17 16 hours</title></rect><rect fill="#cdff1d" height="2.6" width="2.6" x="153.5" y="66.5"><title>2015-10-18 16 hours</title></rect><rect fill="#cdff1d" height="2.6" width="2.6" x="157.0" y="45.5"><title>2015-10-19 16 hours</title></rect><rect fill="#ecff1a" height="2.6" width="2.6" x="157.0" y="49.0"><title>2015-10-20 17 hours</title></rect><rect fill="#ff4a00" height="2.6" width="2.6" x="157.0" y="52.5"><title>2015-10-21 18 hours</title></rect><rect fill="#cdff1d" height="2.6" width="2.6" x="157.0" y="56.0"><title>2015-10-22 16 hours</title></rect><rect fill="#cdff1d" height="2.6" width="2.6" x="157.0" y="59.5"><title>2015-10-23 16 hours</title></rect><rect fill="#cdff1d" height="2.6" width="2.6" x="157.0" y="63.0"><title>2015-10-24 16 hours</title></rect><rect fill="#cdff1d" height="2.6" width="2.6" x="157.0" y="66.5"><title>2015-10-25 16 hours</title></rect><rect fill="#ecff1a" height="2.6" width="2.6" x="160.5" y="45.5"><title>2015-10-26 17 hours</title></rect><rect fill="#cdff1d" height="2.6" width="2.6" x="160.5" y="49.0"><title>2015-10-27 16 hours</title></rect><rect fill="#ecff1a" height="2.6" width="2.6" x="160.5" y="52.5"><title>2015-10-28 17 hours</title></rect><rect fill="#b0ff20" height="2.6" width="2.6" x="160.5" y="56.0"><title>2015-10-29 15 hours</title></rect><rect fill="#93ff23" height="2.6" width="2.6" x="160.5" y="59.5"><title>2015-10-30 14 hours</title></rect><rect fill="#93ff23" height="2.6" width="2.6" x="160.5" y="63.0"><title>2015-10-31 14 hours</title></rect><rect fill="red" height="2.6" width="2.6" x="160.5" y="66.5"><title>2015-11-01 23 hours</title></rect><rect fill="#93ff23" height="2.6" width="2.6" x="164.0" y="45.5"><title>2015-11-02 14 hours</title></rect><rect fill="#ecff1a" height="2.6" width="2.6" x="164.0" y="49.0"><title>2015-11-03 17 hours</title></rect><rect fill="#cdff1d" height="2.6" width="2.6" x="164.0" y="52.5"><title>2015-11-04 16 hours</title></rect><rect fill="#cdff1d" height="2.6" width="2.6" x="164.0" y="56.0"><title>2015-11-05 16 hours</title></rect><rect fill="#ff4a00" height="2.6" width="2.6" x="164.0" y="59.5"><title>2015-11-06 18 hours</title></rect><rect fill="#ecff1a" height="2.6" width="2.6" x="164.0" y="63.0"><title>2015-11-07 17 hours</title></rect><rect fill="#93ff23" height="2.6" width="2.6" x="164.0" y="66.5"><title>2015-11-08 14 hours</title></rect><rect fill="#ff4a00" height="2.6" width="2.6" x="167.5" y="45.5"><title>2015-11-09 18 hours</title></rect><rect fill="#b0ff20" height="2.6" width="2.6" x="167.5" y="49.0"><title>2015-11-10 15 hours</title></rect><rect fill="#cdff1d" height="2.6" width="2.6" x="167.5" y="52.5"><title>2015-11-11 16 hours</title></rect><rect fill="#93ff23" height="2.6" width="2.6" x="167.5" y="56.0"><title>2015-11-12 14 hours</title></rect><rect fill="#b0ff20" height="2.6" width="2.6" x="167.5" y="59.5"><title>2015-11-13 15 hours</title></rect><rect fill="#77ff26" height="2.6" width="2.6" x="167.5" y="63.0"><title>2015-11-14 13 hours</title></rect><rect fill="#b0ff20" height="2.6" width="2.6" x="167.5" y="66.5"><title>2015-11-15 15 hours</title></rect><rect fill="#93ff23" height="2.6" width="2.6" x="171.0" y="45.5"><title>2015-11-16 14 hours</title></rect><rect fill="#ecff1a" height="2.6" width="2.6" x="171.0" y="49.0"><title>2015-11-17 17 hours</title></rect><rect fill="#cdff1d" height="2.6" width="2.6" x="171.0" y="52.5"><title>2015-11-18 16 hours</title></rect><rect fill="#b0ff20" height="2.6" width="2.6" x="171.0" y="56.0"><title>2015-11-19 15 hours</title></rect><rect fill="#ecff1a" height="2.6" width="2.6" x="171.0" y="59.5"><title>2015-11-20 17 hours</title></rect><rect fill="#cdff1d" height="2.6" width="2.6" x="171.0" y="63.0"><title>2015-11-21 16 hours</title></rect><rect fill="#b0ff20" height="2.6" width="2.6" x="171.0" y="66.5"><title>2015-11-22 15 hours</title></rect><rect fill="#b0ff20" height="2.6" width="2.6" x="174.5" y="45.5"><title>2015-11-23 15 hours</title></rect><rect fill="#b0ff20" height="2.6" width="2.6" x="174.5" y="49.0"><title>2015-11-24 15 hours</title></rect><rect fill="#cdff1d" height="2.6" width="2.6" x="174.5" y="52.5"><title>2015-11-25 16 hours</title></rect><rect fill="#42ff2d" height="2.6" width="2.6" x="174.5" y="56.0"><title>2015-11-26 11 hours</title></rect><rect fill="#93ff23" height="2.6" width="2.6" x="174.5" y="59.5"><title>2015-11-27 14 hours</title></rect><rect fill="#93ff23" height="2.6" width="2.6" x="174.5" y="63.0"><title>2015-11-28 14 hours</title></rect><rect fill="#b0ff20" height="2.6" width="2.6" x="174.5" y="66.5"><title>2015-11-29 15 hours</title></rect><rect fill="#b0ff20" height="2.6" width="2.6" x="178.0" y="45.5"><title>2015-11-30 15 hours</title></rect><rect fill="#b0ff20" height="2.6" width="2.6" x="178.0" y="49.0"><title>2015-12-01 15 hours</title></rect><rect fill="#b0ff20" height="2.6" width="2.6" x="178.0" y="52.5"><title>2015-12-02 15 hours</title></rect><rect fill="#ecff1a" height="2.6" width="2.6" x="178.0" y="56.0"><title>2015-12-03 17 hours</title></rect><rect fill="#cdff1d" height="2.6" width="2.6" x="178.0" y="59.5"><title>2015-12-04 16 hours</title></rect><rect fill="#cdff1d" height="2.6" width="2.6" x="178.0" y="63.0"><title>2015-12-05 16 hours</title></rect><rect fill="#cdff1d" height="2.6" width="2.6" x="178.0" y="66.5"><title>2015-12-06 16 hours</title></rect><rect fill="#cdff1d" height="2.6" width="2.6" x="181.5" y="45.5"><title>2015-12-07 16 hours</title></rect><rect fill="#37ff73" height="2.6" width="2.6" x="181.5" y="49.0"><title>2015-12-08 8 hours</title></rect><rect fill="red" height="2.6" width="2.6" x="181.5" y="52.5"><title>2015-12-09 24 hours</title></rect><rect fill="#b0ff20" height="2.6" width="2.6" x="181.5" y="56.0"><title>2015-12-10 15 hours</title></rect><rect fill="#77ff26" height="2.6" width="2.6" x="181.5" y="59.5"><title>2015-12-11 13 hours</title></rect><rect fill="#77ff26" height="2.6" width="2.6" x="181.5" y="63.0"><title>2015-12-12 13 hours</title></rect><rect fill="#b0ff20" height="2.6" width="2.6" x="181.5" y="66.5"><title>2015-12-13 15 hours</title></rect><rect fill="#cdff1d" height="2.6" width="2.6" x="185.0" y="45.5"><title>2015-12-14 16 hours</title></rect><rect fill="#93ff23" height="2.6" width="2.6" x="185.0" y="49.0"><title>2015-12-15 14 hours</title></rect><rect fill="#77ff26" height="2.6" width="2.6" x="185.0" y="52.5"><title>2015-12-16 13 hours</title></rect><rect fill="#ecff1a" height="2.6" width="2.6" x="185.0" y="56.0"><title>2015-12-17 17 hours</title></rect><rect fill="#ecff1a" height="2.6" width="2.6" x="185.0" y="59.5"><title>2015-12-18 17 hours</title></rect><rect fill="#ff2a00" height="2.6" width="2.6" x="185.0" y="63.0"><title>2015-12-19 21 hours</title></rect><rect fill="#ff4a00" height="2.6" width="2.6" x="185.0" y="66.5"><title>2015-12-20 18 hours</title></rect><rect fill="#ff4a00" height="2.6" width="2.6" x="188.5" y="45.5"><title>2015-12-21 18 hours</title></rect><rect fill="#b0ff20" height="2.6" width="2.6" x="188.5" y="49.0"><title>2015-12-22 15 hours</title></rect><rect fill="#cdff1d" height="2.6" width="2.6" x="188.5" y="52.5"><title>2015-12-23 16 hours</title></rect><rect fill="#93ff23" height="2.6" width="2.6" x="188.5" y="56.0"><title>2015-12-24 14 hours</title></rect><rect fill="#cdff1d" height="2.6" width="2.6" x="188.5" y="59.5"><title>2015-12-25 16 hours</title></rect><rect fill="#cdff1d" height="2.6" width="2.6" x="188.5" y="63.0"><title>2015-12-26 16 hours</title></rect><rect fill="#b0ff20" height="2.6" width="2.6" x="188.5" y="66.5"><title>2015-12-27 15 hours</title></rect><rect fill="#ecff1a" height="2.6" width="2.6" x="192.0" y="45.5"><title>2015-12-28 17 hours</title></rect><rect fill="#cdff1d" height="2.6" width="2.6" x="192.0" y="49.0"><title>2015-12-29 16 hours</title></rect><rect fill="#444444" height="2.6" width="2.6" x="192.0" y="52.5"><title>2015-12-30</title></rect><rect fill="#444444" height="2.6" width="2.6" x="192.0" y="56.0"><title>2015-12-31</title></rect></svg>