<?xml version="1.0" encoding="utf-8" ?>
<svg baseProfile="full" height="78mm" version="1.1" viewBox="0,0,200,78" width="200mm" xmlns="http://www.w3.org/2000/svg" xmlns:ev="http://www.w3.org/2001/xml-events" xmlns:xlink="http://www.w3.org/1999/xlink"><defs /><rect fill="#222222" height="78" width="200" x="0" y="0" /><text fill="#FFFFFF" style="font-size:12px; font-family:Arial; font-weight:bold;" x="10" y="20">rip-tyang apple_health</text><text dominant-baseline="hanging" fill="#FFFFFF" style="font-size:10.0px; font-family:Arial;" x="10" y="30">2019</text><text dominant-baseline="hanging" fill="#FFFFFF" style="font-size:4.125px; font-family:Arial;" x="175" y="35">285266 kCal</text><text fill="#FFFFFF" style="font-size:2.5px; font-family:Arial" x="10.0" y="44">Jan</text><text fill="#FFFFFF" style="font-size:2.5px; font-family:Arial" x="25.5" y="44">Feb</text><text fill="#FFFFFF" style="font-size:2.5px; font-family:Arial" x="41.0" y="44">Mar</text><text fill="#FFFFFF" style="font-size:2.5px; font-family:Arial" x="56.5" y="44">Apr</text><text fill="#FFFFFF" style="font-size:2.5px; font-family:Arial" x="72.0" y="44">May</text><text fill="#FFFFFF" style="font-size:2.5px; font-family:Arial" x="87.5" y="44">Jun</text><text fill="#FFFFFF" style="font-size:2.5px; font-family:Arial" x="103.0" y="44">Jul</text><text fill="#FFFFFF" style="font-size:2.5px; font-family:Arial" x="118.5" y="44">Aug</text><text fill="#FFFFFF" style="font-size:2.5px; font-family:Arial" x="134.0" y="44">Sep</text><text fill="#FFFFFF" style="font-size:2.5px; font-family:Arial" x="149.5" y="44">Oct</text><text fill="#FFFFFF" style="font-size:2.5px; font-family:Arial" x="165.0" y="44">Nov</text><text fill="#FFFFFF" style="font-size:2.5px; font-family:Arial" x="180.5" y="44">Dec</text><rect fill="#444444" height="2.6" width="2.6" x="10.0" y="45.5"><title>2018-12-31</title></rect><rect fill="#4ae9ff" height="2.6" width="2.6" x="10.0" y="49.0"><title>2019-01-01 654 kCal</title></rect><rect fill="#4cdcff" height="2.6" width="2.6" x="10.0" y="52.5"><title>2019-01-02 394 kCal</title></rect><rect fill="#fff300" height="2.6" width="2.6" x="10.0" y="56.0"><title>2019-01-03 716 kCal</title></rect><rect fill="red" height="2.6" width="2.6" x="10.0" y="59.5"><title>2019-01-04 911 kCal</title></rect><rect fill="#4aeaff" height="2.6" width="2.6" x="10.0" y="63.0"><title>2019-01-05 672 kCal</title></rect><rect fill="#4be0ff" height="2.6" width="2.6" x="10.0" y="66.5"><title>2019-01-06 475 kCal</title></rect><rect fill="#fff200" height="2.6" width="2.6" x="13.5" y="45.5"><title>2019-01-07 777 kCal</title></rect><rect fill="#4aeaff" height="2.6" width="2.6" x="13.5" y="49.0"><title>2019-01-08 676 kCal</title></rect><rect fill="#4be3ff" height="2.6" width="2.6" x="13.5" y="52.5"><title>2019-01-09 536 kCal</title></rect><rect fill="#fff000" height="2.6" width="2.6" x="13.5" y="56.0"><title>2019-01-10 871 kCal</title></rect><rect fill="#ffef00" height="2.6" width="2.6" x="13.5" y="59.5"><title>2019-01-11 894 kCal</title></rect><rect fill="red" height="2.6" width="2.6" x="13.5" y="63.0"><title>2019-01-12 1187 kCal</title></rect><rect fill="#4dd2ff" height="2.6" width="2.6" x="13.5" y="66.5"><title>2019-01-13 196 kCal</title></rect><rect fill="#fff200" height="2.6" width="2.6" x="17.0" y="45.5"><title>2019-01-14 780 kCal</title></rect><rect fill="#fff000" height="2.6" width="2.6" x="17.0" y="49.0"><title>2019-01-15 848 kCal</title></rect><rect fill="#fff300" height="2.6" width="2.6" x="17.0" y="52.5"><title>2019-01-16 739 kCal</title></rect><rect fill="#fff100" height="2.6" width="2.6" x="17.0" y="56.0"><title>2019-01-17 803 kCal</title></rect><rect fill="#fff100" height="2.6" width="2.6" x="17.0" y="59.5"><title>2019-01-18 808 kCal</title></rect><rect fill="#fff300" height="2.6" width="2.6" x="17.0" y="63.0"><title>2019-01-19 722 kCal</title></rect><rect fill="red" height="2.6" width="2.6" x="17.0" y="66.5"><title>2019-01-20 1256 kCal</title></rect><rect fill="#4cdaff" height="2.6" width="2.6" x="20.5" y="45.5"><title>2019-01-21 366 kCal</title></rect><rect fill="#fff300" height="2.6" width="2.6" x="20.5" y="49.0"><title>2019-01-22 709 kCal</title></rect><rect fill="#fff300" height="2.6" width="2.6" x="20.5" y="52.5"><title>2019-01-23 706 kCal</title></rect><rect fill="#4ae7ff" height="2.6" width="2.6" x="20.5" y="56.0"><title>2019-01-24 621 kCal</title></rect><rect fill="red" height="2.6" width="2.6" x="20.5" y="59.5"><title>2019-01-25 996 kCal</title></rect><rect fill="#fff300" height="2.6" width="2.6" x="20.5" y="63.0"><title>2019-01-26 720 kCal</title></rect><rect fill="#fff000" height="2.6" width="2.6" x="20.5" y="66.5"><title>2019-01-27 880 kCal</title></rect><rect fill="#4ae5ff" height="2.6" width="2.6" x="24.0" y="45.5"><title>2019-01-28 564 kCal</title></rect><rect fill="#4ae7ff" height="2.6" width="2.6" x="24.0" y="49.0"><title>2019-01-29 604 kCal</title></rect><rect fill="red" height="2.6" width="2.6" x="24.0" y="52.5"><title>2019-01-30 1236 kCal</title></rect><rect fill="#fff300" height="2.6" width="2.6" x="24.0" y="56.0"><title>2019-01-31 707 kCal</title></rect><rect fill="#4aebff" height="2.6" width="2.6" x="24.0" y="59.5"><title>2019-02-01 687 kCal</title></rect><rect fill="red" height="2.6" width="2.6" x="24.0" y="63.0"><title>2019-02-02 1109 kCal</title></rect><rect fill="#4aebff" height="2.6" width="2.6" x="24.0" y="66.5"><title>2019-02-03 681 kCal</title></rect><rect fill="#4ae8ff" height="2.6" width="2.6" x="27.5" y="45.5"><title>2019-02-04 629 kCal</title></rect><rect fill="#4ae7ff" height="2.6" width="2.6" x="27.5" y="49.0"><title>2019-02-05 616 kCal</title></rect><rect fill="#4aeaff" height="2.6" width="2.6" x="27.5" y="52.5"><title>2019-02-06 667 kCal</title></rect><rect fill="#4ae9ff" height="2.6" width="2.6" x="27.5" y="56.0"><title>2019-02-07 647 kCal</title></rect><rect fill="#fff300" height="2.6" width="2.6" x="27.5" y="59.5"><title>2019-02-08 720 kCal</title></rect><rect fill="#4be1ff" height="2.6" width="2.6" x="27.5" y="63.0"><title>2019-02-09 504 kCal</title></rect><rect fill="#4cdbff" height="2.6" width="2.6" x="27.5" y="66.5"><title>2019-02-10 384 kCal</title></rect><rect fill="#fff300" height="2.6" width="2.6" x="31.0" y="45.5"><title>2019-02-11 712 kCal</title></rect><rect fill="#fff000" height="2.6" width="2.6" x="31.0" y="49.0"><title>2019-02-12 871 kCal</title></rect><rect fill="#4ae9ff" height="2.6" width="2.6" x="31.0" y="52.5"><title>2019-02-13 659 kCal</title></rect><rect fill="#fff100" height="2.6" width="2.6" x="31.0" y="56.0"><title>2019-02-14 829 kCal</title></rect><rect fill="#4ae6ff" height="2.6" width="2.6" x="31.0" y="59.5"><title>2019-02-15 589 kCal</title></rect><rect fill="#4bdeff" height="2.6" width="2.6" x="31.0" y="63.0"><title>2019-02-16 441 kCal</title></rect><rect fill="#fff100" height="2.6" width="2.6" x="31.0" y="66.5"><title>2019-02-17 821 kCal</title></rect><rect fill="#4cdbff" height="2.6" width="2.6" x="34.5" y="45.5"><title>2019-02-18 372 kCal</title></rect><rect fill="#fff300" height="2.6" width="2.6" x="34.5" y="49.0"><title>2019-02-19 717 kCal</title></rect><rect fill="#4ae8ff" height="2.6" width="2.6" x="34.5" y="52.5"><title>2019-02-20 638 kCal</title></rect><rect fill="#4ae9ff" height="2.6" width="2.6" x="34.5" y="56.0"><title>2019-02-21 658 kCal</title></rect><rect fill="#4ae4ff" height="2.6" width="2.6" x="34.5" y="59.5"><title>2019-02-22 563 kCal</title></rect><rect fill="red" height="2.6" width="2.6" x="34.5" y="63.0"><title>2019-02-23 1472 kCal</title></rect><rect fill="red" height="2.6" width="2.6" x="34.5" y="66.5"><title>2019-02-24 1299 kCal</title></rect><rect fill="red" height="2.6" width="2.6" x="38.0" y="45.5"><title>2019-02-25 996 kCal</title></rect><rect fill="red" height="2.6" width="2.6" x="38.0" y="49.0"><title>2019-02-26 1082 kCal</title></rect><rect fill="#fff300" height="2.6" width="2.6" x="38.0" y="52.5"><title>2019-02-27 706 kCal</title></rect><rect fill="red" height="2.6" width="2.6" x="38.0" y="56.0"><title>2019-02-28 1055 kCal</title></rect><rect fill="#4aeaff" height="2.6" width="2.6" x="38.0" y="59.5"><title>2019-03-01 674 kCal</title></rect><rect fill="#4be4ff" height="2.6" width="2.6" x="38.0" y="63.0"><title>2019-03-02 547 kCal</title></rect><rect fill="#fff300" height="2.6" width="2.6" x="38.0" y="66.5"><title>2019-03-03 722 kCal</title></rect><rect fill="red" height="2.6" width="2.6" x="41.5" y="45.5"><title>2019-03-04 1004 kCal</title></rect><rect fill="#4aeaff" height="2.6" width="2.6" x="41.5" y="49.0"><title>2019-03-05 668 kCal</title></rect><rect fill="red" height="2.6" width="2.6" x="41.5" y="52.5"><title>2019-03-06 939 kCal</title></rect><rect fill="#fff200" height="2.6" width="2.6" x="41.5" y="56.0"><title>2019-03-07 788 kCal</title></rect><rect fill="red" height="2.6" width="2.6" x="41.5" y="59.5"><title>2019-03-08 1130 kCal</title></rect><rect fill="#fff000" height="2.6" width="2.6" x="41.5" y="63.0"><title>2019-03-09 845 kCal</title></rect><rect fill="#4be1ff" height="2.6" width="2.6" x="41.5" y="66.5"><title>2019-03-10 491 kCal</title></rect><rect fill="#4ae6ff" height="2.6" width="2.6" x="45.0" y="45.5"><title>2019-03-11 600 kCal</title></rect><rect fill="#4ae9ff" height="2.6" width="2.6" x="45.0" y="49.0"><title>2019-03-12 649 kCal</title></rect><rect fill="#4ae7ff" height="2.6" width="2.6" x="45.0" y="52.5"><title>2019-03-13 603 kCal</title></rect><rect fill="#4ae5ff" height="2.6" width="2.6" x="45.0" y="56.0"><title>2019-03-14 577 kCal</title></rect><rect fill="red" height="2.6" width="2.6" x="45.0" y="59.5"><title>2019-03-15 1497 kCal</title></rect><rect fill="#fff300" height="2.6" width="2.6" x="45.0" y="63.0"><title>2019-03-16 735 kCal</title></rect><rect fill="#4aebff" height="2.6" width="2.6" x="45.0" y="66.5"><title>2019-03-17 697 kCal</title></rect><rect fill="red" height="2.6" width="2.6" x="48.5" y="45.5"><title>2019-03-18 1018 kCal</title></rect><rect fill="#4ae8ff" height="2.6" width="2.6" x="48.5" y="49.0"><title>2019-03-19 630 kCal</title></rect><rect fill="#4ae5ff" height="2.6" width="2.6" x="48.5" y="52.5"><title>2019-03-20 581 kCal</title></rect><rect fill="#4ae8ff" height="2.6" width="2.6" x="48.5" y="56.0"><title>2019-03-21 638 kCal</title></rect><rect fill="#fff000" height="2.6" width="2.6" x="48.5" y="59.5"><title>2019-03-22 844 kCal</title></rect><rect fill="#4be2ff" height="2.6" width="2.6" x="48.5" y="63.0"><title>2019-03-23 508 kCal</title></rect><rect fill="#4be2ff" height="2.6" width="2.6" x="48.5" y="66.5"><title>2019-03-24 521 kCal</title></rect><rect fill="#4ae8ff" height="2.6" width="2.6" x="52.0" y="45.5"><title>2019-03-25 632 kCal</title></rect><rect fill="#4ae8ff" height="2.6" width="2.6" x="52.0" y="49.0"><title>2019-03-26 637 kCal</title></rect><rect fill="#4aebff" height="2.6" width="2.6" x="52.0" y="52.5"><title>2019-03-27 688 kCal</title></rect><rect fill="#4ae6ff" height="2.6" width="2.6" x="52.0" y="56.0"><title>2019-03-28 596 kCal</title></rect><rect fill="#4ae5ff" height="2.6" width="2.6" x="52.0" y="59.5"><title>2019-03-29 578 kCal</title></rect><rect fill="red" height="2.6" width="2.6" x="52.0" y="63.0"><title>2019-03-30 1957 kCal</title></rect><rect fill="red" height="2.6" width="2.6" x="52.0" y="66.5"><title>2019-03-31 1854 kCal</title></rect><rect fill="red" height="2.6" width="2.6" x="55.5" y="45.5"><title>2019-04-01 1752 kCal</title></rect><rect fill="#4be3ff" height="2.6" width="2.6" x="55.5" y="49.0"><title>2019-04-02 532 kCal</title></rect><rect fill="#4aebff" height="2.6" width="2.6" x="55.5" y="52.5"><title>2019-04-03 690 kCal</title></rect><rect fill="#fff400" height="2.6" width="2.6" x="55.5" y="56.0"><title>2019-04-04 701 kCal</title></rect><rect fill="#4ae9ff" height="2.6" width="2.6" x="55.5" y="59.5"><title>2019-04-05 651 kCal</title></rect><rect fill="#ffef00" height="2.6" width="2.6" x="55.5" y="63.0"><title>2019-04-06 893 kCal</title></rect><rect fill="#4ae5ff" height="2.6" width="2.6" x="55.5" y="66.5"><title>2019-04-07 574 kCal</title></rect><rect fill="#4ae8ff" height="2.6" width="2.6" x="59.0" y="45.5"><title>2019-04-08 641 kCal</title></rect><rect fill="#fff000" height="2.6" width="2.6" x="59.0" y="49.0"><title>2019-04-09 839 kCal</title></rect><rect fill="#4ae9ff" height="2.6" width="2.6" x="59.0" y="52.5"><title>2019-04-10 644 kCal</title></rect><rect fill="#4ae8ff" height="2.6" width="2.6" x="59.0" y="56.0"><title>2019-04-11 635 kCal</title></rect><rect fill="#4aeaff" height="2.6" width="2.6" x="59.0" y="59.5"><title>2019-04-12 677 kCal</title></rect><rect fill="red" height="2.6" width="2.6" x="59.0" y="63.0"><title>2019-04-13 934 kCal</title></rect><rect fill="#4ae9ff" height="2.6" width="2.6" x="59.0" y="66.5"><title>2019-04-14 660 kCal</title></rect><rect fill="#fff300" height="2.6" width="2.6" x="62.5" y="45.5"><title>2019-04-15 731 kCal</title></rect><rect fill="#fff300" height="2.6" width="2.6" x="62.5" y="49.0"><title>2019-04-16 732 kCal</title></rect><rect fill="#fff200" height="2.6" width="2.6" x="62.5" y="52.5"><title>2019-04-17 788 kCal</title></rect><rect fill="#ffef00" height="2.6" width="2.6" x="62.5" y="56.0"><title>2019-04-18 896 kCal</title></rect><rect fill="red" height="2.6" width="2.6" x="62.5" y="59.5"><title>2019-04-19 989 kCal</title></rect><rect fill="#4cd9ff" height="2.6" width="2.6" x="62.5" y="63.0"><title>2019-04-20 345 kCal</title></rect><rect fill="#4be2ff" height="2.6" width="2.6" x="62.5" y="66.5"><title>2019-04-21 513 kCal</title></rect><rect fill="#4ae5ff" height="2.6" width="2.6" x="66.0" y="45.5"><title>2019-04-22 582 kCal</title></rect><rect fill="#4ae8ff" height="2.6" width="2.6" x="66.0" y="49.0"><title>2019-04-23 634 kCal</title></rect><rect fill="#4aebff" height="2.6" width="2.6" x="66.0" y="52.5"><title>2019-04-24 689 kCal</title></rect><rect fill="#fff300" height="2.6" width="2.6" x="66.0" y="56.0"><title>2019-04-25 721 kCal</title></rect><rect fill="#fff400" height="2.6" width="2.6" x="66.0" y="59.5"><title>2019-04-26 702 kCal</title></rect><rect fill="#4cd6ff" height="2.6" width="2.6" x="66.0" y="63.0"><title>2019-04-27 284 kCal</title></rect><rect fill="#4cd8ff" height="2.6" width="2.6" x="66.0" y="66.5"><title>2019-04-28 311 kCal</title></rect><rect fill="#4ae7ff" height="2.6" width="2.6" x="69.5" y="45.5"><title>2019-04-29 610 kCal</title></rect><rect fill="#fff100" height="2.6" width="2.6" x="69.5" y="49.0"><title>2019-04-30 817 kCal</title></rect><rect fill="#4ae8ff" height="2.6" width="2.6" x="69.5" y="52.5"><title>2019-05-01 631 kCal</title></rect><rect fill="#4ae5ff" height="2.6" width="2.6" x="69.5" y="56.0"><title>2019-05-02 574 kCal</title></rect><rect fill="#4aeaff" height="2.6" width="2.6" x="69.5" y="59.5"><title>2019-05-03 674 kCal</title></rect><rect fill="#4be3ff" height="2.6" width="2.6" x="69.5" y="63.0"><title>2019-05-04 539 kCal</title></rect><rect fill="#4cd8ff" height="2.6" width="2.6" x="69.5" y="66.5"><title>2019-05-05 325 kCal</title></rect><rect fill="#fff000" height="2.6" width="2.6" x="73.0" y="45.5"><title>2019-05-06 863 kCal</title></rect><rect fill="#fff400" height="2.6" width="2.6" x="73.0" y="49.0"><title>2019-05-07 700 kCal</title></rect><rect fill="#ffef00" height="2.6" width="2.6" x="73.0" y="52.5"><title>2019-05-08 901 kCal</title></rect><rect fill="#4aebff" height="2.6" width="2.6" x="73.0" y="56.0"><title>2019-05-09 691 kCal</title></rect><rect fill="#4bdeff" height="2.6" width="2.6" x="73.0" y="59.5"><title>2019-05-10 434 kCal</title></rect><rect fill="#4be2ff" height="2.6" width="2.6" x="73.0" y="63.0"><title>2019-05-11 505 kCal</title></rect><rect fill="#4cdbff" height="2.6" width="2.6" x="73.0" y="66.5"><title>2019-05-12 385 kCal</title></rect><rect fill="#4aebff" height="2.6" width="2.6" x="76.5" y="45.5"><title>2019-05-13 698 kCal</title></rect><rect fill="#4be4ff" height="2.6" width="2.6" x="76.5" y="49.0"><title>2019-05-14 556 kCal</title></rect><rect fill="#4be4ff" height="2.6" width="2.6" x="76.5" y="52.5"><title>2019-05-15 554 kCal</title></rect><rect fill="#fff000" height="2.6" width="2.6" x="76.5" y="56.0"><title>2019-05-16 845 kCal</title></rect><rect fill="#4ae8ff" height="2.6" width="2.6" x="76.5" y="59.5"><title>2019-05-17 624 kCal</title></rect><rect fill="#4be1ff" height="2.6" width="2.6" x="76.5" y="63.0"><title>2019-05-18 498 kCal</title></rect><rect fill="#4ae6ff" height="2.6" width="2.6" x="76.5" y="66.5"><title>2019-05-19 602 kCal</title></rect><rect fill="#ffef00" height="2.6" width="2.6" x="80.0" y="45.5"><title>2019-05-20 889 kCal</title></rect><rect fill="#4ae8ff" height="2.6" width="2.6" x="80.0" y="49.0"><title>2019-05-21 624 kCal</title></rect><rect fill="#4aeaff" height="2.6" width="2.6" x="80.0" y="52.5"><title>2019-05-22 670 kCal</title></rect><rect fill="#4ae7ff" height="2.6" width="2.6" x="80.0" y="56.0"><title>2019-05-23 617 kCal</title></rect><rect fill="red" height="2.6" width="2.6" x="80.0" y="59.5"><title>2019-05-24 942 kCal</title></rect><rect fill="#fff000" height="2.6" width="2.6" x="80.0" y="63.0"><title>2019-05-25 850 kCal</title></rect><rect fill="#4aebff" height="2.6" width="2.6" x="80.0" y="66.5"><title>2019-05-26 681 kCal</title></rect><rect fill="#4be0ff" height="2.6" width="2.6" x="83.5" y="45.5"><title>2019-05-27 471 kCal</title></rect><rect fill="red" height="2.6" width="2.6" x="83.5" y="49.0"><title>2019-05-28 908 kCal</title></rect><rect fill="red" height="2.6" width="2.6" x="83.5" y="52.5"><title>2019-05-29 1699 kCal</title></rect><rect fill="red" height="2.6" width="2.6" x="83.5" y="56.0"><title>2019-05-30 1184 kCal</title></rect><rect fill="#4ae5ff" height="2.6" width="2.6" x="83.5" y="59.5"><title>2019-05-31 577 kCal</title></rect><rect fill="#4be0ff" height="2.6" width="2.6" x="83.5" y="63.0"><title>2019-06-01 470 kCal</title></rect><rect fill="#4aeaff" height="2.6" width="2.6" x="83.5" y="66.5"><title>2019-06-02 675 kCal</title></rect><rect fill="#fff300" height="2.6" width="2.6" x="87.0" y="45.5"><title>2019-06-03 712 kCal</title></rect><rect fill="red" height="2.6" width="2.6" x="87.0" y="49.0"><title>2019-06-04 913 kCal</title></rect><rect fill="#fff300" height="2.6" width="2.6" x="87.0" y="52.5"><title>2019-06-05 745 kCal</title></rect><rect fill="#fff300" height="2.6" width="2.6" x="87.0" y="56.0"><title>2019-06-06 718 kCal</title></rect><rect fill="red" height="2.6" width="2.6" x="87.0" y="59.5"><title>2019-06-07 986 kCal</title></rect><rect fill="#4ae6ff" height="2.6" width="2.6" x="87.0" y="63.0"><title>2019-06-08 586 kCal</title></rect><rect fill="#4cdaff" height="2.6" width="2.6" x="87.0" y="66.5"><title>2019-06-09 349 kCal</title></rect><rect fill="red" height="2.6" width="2.6" x="90.5" y="45.5"><title>2019-06-10 1927 kCal</title></rect><rect fill="#4ae7ff" height="2.6" width="2.6" x="90.5" y="49.0"><title>2019-06-11 609 kCal</title></rect><rect fill="#4ae9ff" height="2.6" width="2.6" x="90.5" y="52.5"><title>2019-06-12 650 kCal</title></rect><rect fill="#4aeaff" height="2.6" width="2.6" x="90.5" y="56.0"><title>2019-06-13 671 kCal</title></rect><rect fill="#fff400" height="2.6" width="2.6" x="90.5" y="59.5"><title>2019-06-14 703 kCal</title></rect><rect fill="#fff400" height="2.6" width="2.6" x="90.5" y="63.0"><title>2019-06-15 701 kCal</title></rect><rect fill="#4be3ff" height="2.6" width="2.6" x="90.5" y="66.5"><title>2019-06-16 526 kCal</title></rect><rect fill="#4ae7ff" height="2.6" width="2.6" x="94.0" y="45.5"><title>2019-06-17 616 kCal</title></rect><rect fill="#4aebff" height="2.6" width="2.6" x="94.0" y="49.0"><title>2019-06-18 691 kCal</title></rect><rect fill="#4ae9ff" height="2.6" width="2.6" x="94.0" y="52.5"><title>2019-06-19 644 kCal</title></rect><rect fill="#4ae7ff" height="2.6" width="2.6" x="94.0" y="56.0"><title>2019-06-20 610 kCal</title></rect><rect fill="#4ae7ff" height="2.6" width="2.6" x="94.0" y="59.5"><title>2019-06-21 612 kCal</title></rect><rect fill="#4be1ff" height="2.6" width="2.6" x="94.0" y="63.0"><title>2019-06-22 491 kCal</title></rect><rect fill="#4be3ff" height="2.6" width="2.6" x="94.0" y="66.5"><title>2019-06-23 525 kCal</title></rect><rect fill="#4aebff" height="2.6" width="2.6" x="97.5" y="45.5"><title>2019-06-24 687 kCal</title></rect><rect fill="#4ae7ff" height="2.6" width="2.6" x="97.5" y="49.0"><title>2019-06-25 606 kCal</title></rect><rect fill="#4ae6ff" height="2.6" width="2.6" x="97.5" y="52.5"><title>2019-06-26 583 kCal</title></rect><rect fill="#4ae8ff" height="2.6" width="2.6" x="97.5" y="56.0"><title>2019-06-27 635 kCal</title></rect><rect fill="#4ae8ff" height="2.6" width="2.6" x="97.5" y="59.5"><title>2019-06-28 634 kCal</title></rect><rect fill="#fff200" height="2.6" width="2.6" x="97.5" y="63.0"><title>2019-06-29 750 kCal</title></rect><rect fill="#4cdaff" height="2.6" width="2.6" x="97.5" y="66.5"><title>2019-06-30 351 kCal</title></rect><rect fill="#4ae9ff" height="2.6" width="2.6" x="101.0" y="45.5"><title>2019-07-01 655 kCal</title></rect><rect fill="#4ae8ff" height="2.6" width="2.6" x="101.0" y="49.0"><title>2019-07-02 639 kCal</title></rect><rect fill="#4ae5ff" height="2.6" width="2.6" x="101.0" y="52.5"><title>2019-07-03 575 kCal</title></rect><rect fill="#fff300" height="2.6" width="2.6" x="101.0" y="56.0"><title>2019-07-04 714 kCal</title></rect><rect fill="#4ae5ff" height="2.6" width="2.6" x="101.0" y="59.5"><title>2019-07-05 564 kCal</title></rect><rect fill="red" height="2.6" width="2.6" x="101.0" y="63.0"><title>2019-07-06 953 kCal</title></rect><rect fill="#4be4ff" height="2.6" width="2.6" x="101.0" y="66.5"><title>2019-07-07 562 kCal</title></rect><rect fill="#4ae7ff" height="2.6" width="2.6" x="104.5" y="45.5"><title>2019-07-08 620 kCal</title></rect><rect fill="#4ae5ff" height="2.6" width="2.6" x="104.5" y="49.0"><title>2019-07-09 579 kCal</title></rect><rect fill="#4ae9ff" height="2.6" width="2.6" x="104.5" y="52.5"><title>2019-07-10 651 kCal</title></rect><rect fill="#4ae6ff" height="2.6" width="2.6" x="104.5" y="56.0"><title>2019-07-11 595 kCal</title></rect><rect fill="#4ae8ff" height="2.6" width="2.6" x="104.5" y="59.5"><title>2019-07-12 640 kCal</title></rect><rect fill="#4ae6ff" height="2.6" width="2.6" x="104.5" y="63.0"><title>2019-07-13 594 kCal</title></rect><rect fill="#4be2ff" height="2.6" width="2.6" x="104.5" y="66.5"><title>2019-07-14 511 kCal</title></rect><rect fill="#4ae6ff" height="2.6" width="2.6" x="108.0" y="45.5"><title>2019-07-15 588 kCal</title></rect><rect fill="#4ae6ff" height="2.6" width="2.6" x="108.0" y="49.0"><title>2019-07-16 591 kCal</title></rect><rect fill="#4ae8ff" height="2.6" width="2.6" x="108.0" y="52.5"><title>2019-07-17 632 kCal</title></rect><rect fill="#4ae6ff" height="2.6" width="2.6" x="108.0" y="56.0"><title>2019-07-18 595 kCal</title></rect><rect fill="#4ae5ff" height="2.6" width="2.6" x="108.0" y="59.5"><title>2019-07-19 566 kCal</title></rect><rect fill="#fff100" height="2.6" width="2.6" x="108.0" y="63.0"><title>2019-07-20 835 kCal</title></rect><rect fill="#4cd6ff" height="2.6" width="2.6" x="108.0" y="66.5"><title>2019-07-21 282 kCal</title></rect><rect fill="#4ae8ff" height="2.6" width="2.6" x="111.5" y="45.5"><title>2019-07-22 632 kCal</title></rect><rect fill="#4ae6ff" height="2.6" width="2.6" x="111.5" y="49.0"><title>2019-07-23 601 kCal</title></rect><rect fill="#4ae6ff" height="2.6" width="2.6" x="111.5" y="52.5"><title>2019-07-24 592 kCal</title></rect><rect fill="#4ae9ff" height="2.6" width="2.6" x="111.5" y="56.0"><title>2019-07-25 644 kCal</title></rect><rect fill="#4be4ff" height="2.6" width="2.6" x="111.5" y="59.5"><title>2019-07-26 556 kCal</title></rect><rect fill="#4ae7ff" height="2.6" width="2.6" x="111.5" y="63.0"><title>2019-07-27 607 kCal</title></rect><rect fill="#fff100" height="2.6" width="2.6" x="111.5" y="66.5"><title>2019-07-28 808 kCal</title></rect><rect fill="#4ae6ff" height="2.6" width="2.6" x="115.0" y="45.5"><title>2019-07-29 594 kCal</title></rect><rect fill="#fff300" height="2.6" width="2.6" x="115.0" y="49.0"><title>2019-07-30 719 kCal</title></rect><rect fill="#4ae7ff" height="2.6" width="2.6" x="115.0" y="52.5"><title>2019-07-31 621 kCal</title></rect><rect fill="#4ae8ff" height="2.6" width="2.6" x="115.0" y="56.0"><title>2019-08-01 625 kCal</title></rect><rect fill="#4ae8ff" height="2.6" width="2.6" x="115.0" y="59.5"><title>2019-08-02 641 kCal</title></rect><rect fill="#4cddff" height="2.6" width="2.6" x="115.0" y="63.0"><title>2019-08-03 409 kCal</title></rect><rect fill="#fff200" height="2.6" width="2.6" x="115.0" y="66.5"><title>2019-08-04 778 kCal</title></rect><rect fill="#4ae7ff" height="2.6" width="2.6" x="118.5" y="45.5"><title>2019-08-05 617 kCal</title></rect><rect fill="#fff100" height="2.6" width="2.6" x="118.5" y="49.0"><title>2019-08-06 797 kCal</title></rect><rect fill="#fff300" height="2.6" width="2.6" x="118.5" y="52.5"><title>2019-08-07 715 kCal</title></rect><rect fill="#4ae7ff" height="2.6" width="2.6" x="118.5" y="56.0"><title>2019-08-08 616 kCal</title></rect><rect fill="#fff300" height="2.6" width="2.6" x="118.5" y="59.5"><title>2019-08-09 717 kCal</title></rect><rect fill="red" height="2.6" width="2.6" x="118.5" y="63.0"><title>2019-08-10 1454 kCal</title></rect><rect fill="#4be1ff" height="2.6" width="2.6" x="118.5" y="66.5"><title>2019-08-11 503 kCal</title></rect><rect fill="#4ae5ff" height="2.6" width="2.6" x="122.0" y="45.5"><title>2019-08-12 567 kCal</title></rect><rect fill="#4aebff" height="2.6" width="2.6" x="122.0" y="49.0"><title>2019-08-13 683 kCal</title></rect><rect fill="#4ae6ff" height="2.6" width="2.6" x="122.0" y="52.5"><title>2019-08-14 602 kCal</title></rect><rect fill="#fff200" height="2.6" width="2.6" x="122.0" y="56.0"><title>2019-08-15 757 kCal</title></rect><rect fill="#4ae9ff" height="2.6" width="2.6" x="122.0" y="59.5"><title>2019-08-16 651 kCal</title></rect><rect fill="#fff400" height="2.6" width="2.6" x="122.0" y="63.0"><title>2019-08-17 702 kCal</title></rect><rect fill="#4cd8ff" height="2.6" width="2.6" x="122.0" y="66.5"><title>2019-08-18 307 kCal</title></rect><rect fill="#fff400" height="2.6" width="2.6" x="125.5" y="45.5"><title>2019-08-19 699 kCal</title></rect><rect fill="#4aebff" height="2.6" width="2.6" x="125.5" y="49.0"><title>2019-08-20 681 kCal</title></rect><rect fill="#4ae7ff" height="2.6" width="2.6" x="125.5" y="52.5"><title>2019-08-21 612 kCal</title></rect><rect fill="#fff200" height="2.6" width="2.6" x="125.5" y="56.0"><title>2019-08-22 752 kCal</title></rect><rect fill="#fff200" height="2.6" width="2.6" x="125.5" y="59.5"><title>2019-08-23 773 kCal</title></rect><rect fill="#4cdaff" height="2.6" width="2.6" x="125.5" y="63.0"><title>2019-08-24 355 kCal</title></rect><rect fill="#4bdeff" height="2.6" width="2.6" x="125.5" y="66.5"><title>2019-08-25 433 kCal</title></rect><rect fill="#4aeaff" height="2.6" width="2.6" x="129.0" y="45.5"><title>2019-08-26 666 kCal</title></rect><rect fill="#ffef00" height="2.6" width="2.6" x="129.0" y="49.0"><title>2019-08-27 885 kCal</title></rect><rect fill="#fff300" height="2.6" width="2.6" x="129.0" y="52.5"><title>2019-08-28 730 kCal</title></rect><rect fill="#fff300" height="2.6" width="2.6" x="129.0" y="56.0"><title>2019-08-29 718 kCal</title></rect><rect fill="#fff100" height="2.6" width="2.6" x="129.0" y="59.5"><title>2019-08-30 837 kCal</title></rect><rect fill="#fff300" height="2.6" width="2.6" x="129.0" y="63.0"><title>2019-08-31 732 kCal</title></rect><rect fill="#fff100" height="2.6" width="2.6" x="129.0" y="66.5"><title>2019-09-01 811 kCal</title></rect><rect fill="#4aeaff" height="2.6" width="2.6" x="132.5" y="45.5"><title>2019-09-02 668 kCal</title></rect><rect fill="#4ae5ff" height="2.6" width="2.6" x="132.5" y="49.0"><title>2019-09-03 567 kCal</title></rect><rect fill="#fff300" height="2.6" width="2.6" x="132.5" y="52.5"><title>2019-09-04 726 kCal</title></rect><rect fill="#4ae8ff" height="2.6" width="2.6" x="132.5" y="56.0"><title>2019-09-05 635 kCal</title></rect><rect fill="#fff300" height="2.6" width="2.6" x="132.5" y="59.5"><title>2019-09-06 739 kCal</title></rect><rect fill="#4ae8ff" height="2.6" width="2.6" x="132.5" y="63.0"><title>2019-09-07 622 kCal</title></rect><rect fill="#4ae8ff" height="2.6" width="2.6" x="132.5" y="66.5"><title>2019-09-08 634 kCal</title></rect><rect fill="#fff300" height="2.6" width="2.6" x="136.0" y="45.5"><title>2019-09-09 713 kCal</title></rect><rect fill="#fff300" height="2.6" width="2.6" x="136.0" y="49.0"><title>2019-09-10 724 kCal</title></rect><rect fill="#4ae6ff" height="2.6" width="2.6" x="136.0" y="52.5"><title>2019-09-11 592 kCal</title></rect><rect fill="#4aebff" height="2.6" width="2.6" x="136.0" y="56.0"><title>2019-09-12 683 kCal</title></rect><rect fill="#fff300" height="2.6" width="2.6" x="136.0" y="59.5"><title>2019-09-13 738 kCal</title></rect><rect fill="red" height="2.6" width="2.6" x="136.0" y="63.0"><title>2019-09-14 1031 kCal</title></rect><rect fill="#4be4ff" height="2.6" width="2.6" x="136.0" y="66.5"><title>2019-09-15 546 kCal</title></rect><rect fill="#4ae8ff" height="2.6" width="2.6" x="139.5" y="45.5"><title>2019-09-16 641 kCal</title></rect><rect fill="#fff300" height="2.6" width="2.6" x="139.5" y="49.0"><title>2019-09-17 745 kCal</title></rect><rect fill="#4ae9ff" height="2.6" width="2.6" x="139.5" y="52.5"><title>2019-09-18 642 kCal</title></rect><rect fill="#4ae5ff" height="2.6" width="2.6" x="139.5" y="56.0"><title>2019-09-19 582 kCal</title></rect><rect fill="#fff400" height="2.6" width="2.6" x="139.5" y="59.5"><title>2019-09-20 701 kCal</title></rect><rect fill="#4ae6ff" height="2.6" width="2.6" x="139.5" y="63.0"><title>2019-09-21 583 kCal</title></rect><rect fill="red" height="2.6" width="2.6" x="139.5" y="66.5"><title>2019-09-22 955 kCal</title></rect><rect fill="#fff100" height="2.6" width="2.6" x="143.0" y="45.5"><title>2019-09-23 828 kCal</title></rect><rect fill="red" height="2.6" width="2.6" x="143.0" y="49.0"><title>2019-09-24 8116 kCal</title></rect><rect fill="red" height="2.6" width="2.6" x="143.0" y="52.5"><title>2019-09-25 11470 kCal</title></rect><rect fill="#ffef00" height="2.6" width="2.6" x="143.0" y="56.0"><title>2019-09-26 893 kCal</title></rect><rect fill="red" height="2.6" width="2.6" x="143.0" y="59.5"><title>2019-09-27 952 kCal</title></rect><rect fill="red" height="2.6" width="2.6" x="143.0" y="63.0"><title>2019-09-28 1343 kCal</title></rect><rect fill="#4bdeff" height="2.6" width="2.6" x="143.0" y="66.5"><title>2019-09-29 433 kCal</title></rect><rect fill="#4ae9ff" height="2.6" width="2.6" x="146.5" y="45.5"><title>2019-09-30 645 kCal</title></rect><rect fill="#fff300" height="2.6" width="2.6" x="146.5" y="49.0"><title>2019-10-01 708 kCal</title></rect><rect fill="#4aeaff" height="2.6" width="2.6" x="146.5" y="52.5"><title>2019-10-02 665 kCal</title></rect><rect fill="#fff200" height="2.6" width="2.6" x="146.5" y="56.0"><title>2019-10-03 785 kCal</title></rect><rect fill="#fff200" height="2.6" width="2.6" x="146.5" y="59.5"><title>2019-10-04 751 kCal</title></rect><rect fill="#fff200" height="2.6" width="2.6" x="146.5" y="63.0"><title>2019-10-05 777 kCal</title></rect><rect fill="#4be3ff" height="2.6" width="2.6" x="146.5" y="66.5"><title>2019-10-06 541 kCal</title></rect><rect fill="#4cddff" height="2.6" width="2.6" x="150.0" y="45.5"><title>2019-10-07 408 kCal</title></rect><rect fill="red" height="2.6" width="2.6" x="150.0" y="49.0"><title>2019-10-08 955 kCal</title></rect><rect fill="#fff100" height="2.6" width="2.6" x="150.0" y="52.5"><title>2019-10-09 816 kCal</title></rect><rect fill="#4aeaff" height="2.6" width="2.6" x="150.0" y="56.0"><title>2019-10-10 662 kCal</title></rect><rect fill="#fff200" height="2.6" width="2.6" x="150.0" y="59.5"><title>2019-10-11 755 kCal</title></rect><rect fill="red" height="2.6" width="2.6" x="150.0" y="63.0"><title>2019-10-12 916 kCal</title></rect><rect fill="#4bdeff" height="2.6" width="2.6" x="150.0" y="66.5"><title>2019-10-13 442 kCal</title></rect><rect fill="#4ae8ff" height="2.6" width="2.6" x="153.5" y="45.5"><title>2019-10-14 638 kCal</title></rect><rect fill="#fff100" height="2.6" width="2.6" x="153.5" y="49.0"><title>2019-10-15 829 kCal</title></rect><rect fill="#fff300" height="2.6" width="2.6" x="153.5" y="52.5"><title>2019-10-16 721 kCal</title></rect><rect fill="red" height="2.6" width="2.6" x="153.5" y="56.0"><title>2019-10-17 961 kCal</title></rect><rect fill="#fff300" height="2.6" width="2.6" x="153.5" y="59.5"><title>2019-10-18 705 kCal</title></rect><rect fill="#4bdfff" height="2.6" width="2.6" x="153.5" y="63.0"><title>2019-10-19 458 kCal</title></rect><rect fill="#fff300" height="2.6" width="2.6" x="153.5" y="66.5"><title>2019-10-20 741 kCal</title></rect><rect fill="#fff100" height="2.6" width="2.6" x="157.0" y="45.5"><title>2019-10-21 814 kCal</title></rect><rect fill="red" height="2.6" width="2.6" x="157.0" y="49.0"><title>2019-10-22 1056 kCal</title></rect><rect fill="#4ae7ff" height="2.6" width="2.6" x="157.0" y="52.5"><title>2019-10-23 615 kCal</title></rect><rect fill="#fff300" height="2.6" width="2.6" x="157.0" y="56.0"><title>2019-10-24 725 kCal</title></rect><rect fill="red" height="2.6" width="2.6" x="157.0" y="59.5"><title>2019-10-25 935 kCal</title></rect><rect fill="red" height="2.6" width="2.6" x="157.0" y="63.0"><title>2019-10-26 1158 kCal</title></rect><rect fill="#4cd8ff" height="2.6" width="2.6" x="157.0" y="66.5"><title>2019-10-27 318 kCal</title></rect><rect fill="#4ae9ff" height="2.6" width="2.6" x="160.5" y="45.5"><title>2019-10-28 658 kCal</title></rect><rect fill="#4aeaff" height="2.6" width="2.6" x="160.5" y="49.0"><title>2019-10-29 680 kCal</title></rect><rect fill="#4ae9ff" height="2.6" width="2.6" x="160.5" y="52.5"><title>2019-10-30 656 kCal</title></rect><rect fill="#fff200" height="2.6" width="2.6" x="160.5" y="56.0"><title>2019-10-31 772 kCal</title></rect><rect fill="red" height="2.6" width="2.6" x="160.5" y="59.5"><title>2019-11-01 1029 kCal</title></rect><rect fill="#fff000" height="2.6" width="2.6" x="160.5" y="63.0"><title>2019-11-02 864 kCal</title></rect><rect fill="#4ae7ff" height="2.6" width="2.6" x="160.5" y="66.5"><title>2019-11-03 612 kCal</title></rect><rect fill="#fff300" height="2.6" width="2.6" x="164.0" y="45.5"><title>2019-11-04 705 kCal</title></rect><rect fill="red" height="2.6" width="2.6" x="164.0" y="49.0"><title>2019-11-05 1071 kCal</title></rect><rect fill="#fff100" height="2.6" width="2.6" x="164.0" y="52.5"><title>2019-11-06 826 kCal</title></rect><rect fill="#ffef00" height="2.6" width="2.6" x="164.0" y="56.0"><title>2019-11-07 898 kCal</title></rect><rect fill="red" height="2.6" width="2.6" x="164.0" y="59.5"><title>2019-11-08 962 kCal</title></rect><rect fill="#4be3ff" height="2.6" width="2.6" x="164.0" y="63.0"><title>2019-11-09 529 kCal</title></rect><rect fill="#4be1ff" height="2.6" width="2.6" x="164.0" y="66.5"><title>2019-11-10 490 kCal</title></rect><rect fill="#4cdcff" height="2.6" width="2.6" x="167.5" y="45.5"><title>2019-11-11 390 kCal</title></rect><rect fill="red" height="2.6" width="2.6" x="167.5" y="49.0"><title>2019-11-12 903 kCal</title></rect><rect fill="red" height="2.6" width="2.6" x="167.5" y="52.5"><title>2019-11-13 935 kCal</title></rect><rect fill="#fff000" height="2.6" width="2.6" x="167.5" y="56.0"><title>2019-11-14 839 kCal</title></rect><rect fill="#fff100" height="2.6" width="2.6" x="167.5" y="59.5"><title>2019-11-15 809 kCal</title></rect><rect fill="#4cdcff" height="2.6" width="2.6" x="167.5" y="63.0"><title>2019-11-16 402 kCal</title></rect><rect fill="#4ae8ff" height="2.6" width="2.6" x="167.5" y="66.5"><title>2019-11-17 631 kCal</title></rect><rect fill="#fff300" height="2.6" width="2.6" x="171.0" y="45.5"><title>2019-11-18 729 kCal</title></rect><rect fill="#fff300" height="2.6" width="2.6" x="171.0" y="49.0"><title>2019-11-19 723 kCal</title></rect><rect fill="#4aebff" height="2.6" width="2.6" x="171.0" y="52.5"><title>2019-11-20 697 kCal</title></rect><rect fill="#4ae9ff" height="2.6" width="2.6" x="171.0" y="56.0"><title>2019-11-21 650 kCal</title></rect><rect fill="#ffef00" height="2.6" width="2.6" x="171.0" y="59.5"><title>2019-11-22 885 kCal</title></rect><rect fill="#fff200" height="2.6" width="2.6" x="171.0" y="63.0"><title>2019-11-23 779 kCal</title></rect><rect fill="#4bdfff" height="2.6" width="2.6" x="171.0" y="66.5"><title>2019-11-24 464 kCal</title></rect><rect fill="red" height="2.6" width="2.6" x="174.5" y="45.5"><title>2019-11-25 950 kCal</title></rect><rect fill="#fff200" height="2.6" width="2.6" x="174.5" y="49.0"><title>2019-11-26 761 kCal</title></rect><rect fill="red" height="2.6" width="2.6" x="174.5" y="52.5"><title>2019-11-27 1080 kCal</title></rect><rect fill="#4be2ff" height="2.6" width="2.6" x="174.5" y="56.0"><title>2019-11-28 520 kCal</title></rect><rect fill="#fff100" height="2.6" width="2.6" x="174.5" y="59.5"><title>2019-11-29 804 kCal</title></rect><rect fill="#fff300" height="2.6" width="2.6" x="174.5" y="63.0"><title>2019-11-30 725 kCal</title></rect><rect fill="#4bddff" height="2.6" width="2.6" x="174.5" y="66.5"><title>2019-12-01 417 kCal</title></rect><rect fill="#fff200" height="2.6" width="2.6" x="178.0" y="45.5"><title>2019-12-02 773 kCal</title></rect><rect fill="#fff000" height="2.6" width="2.6" x="178.0" y="49.0"><title>2019-12-03 854 kCal</title></rect><rect fill="#fff000" height="2.6" width="2.6" x="178.0" y="52.5"><title>2019-12-04 865 kCal</title></rect><rect fill="red" height="2.6" width="2.6" x="178.0" y="56.0"><title>2019-12-05 925 kCal</title></rect><rect fill="#fff200" height="2.6" width="2.6" x="178.0" y="59.5"><title>2019-12-06 758 kCal</title></rect><rect fill="#4dd5ff" height="2.6" width="2.6" x="178.0" y="63.0"><title>2019-12-07 265 kCal</title></rect><rect fill="#fff100" height="2.6" width="2.6" x="178.0" y="66.5"><title>2019-12-08 820 kCal</title></rect><rect fill="#4ae5ff" height="2.6" width="2.6" x="181.5" y="45.5"><title>2019-12-09 575 kCal</title></rect><rect fill="red" height="2.6" width="2.6" x="181.5" y="49.0"><title>2019-12-10 1319 kCal</title></rect><rect fill="red" height="2.6" width="2.6" x="181.5" y="52.5"><title>2019-12-11 1621 kCal</title></rect><rect fill="red" height="2.6" width="2.6" x="181.5" y="56.0"><title>2019-12-12 1111 kCal</title></rect><rect fill="red" height="2.6" width="2.6" x="181.5" y="59.5"><title>2019-12-13 1675 kCal</title></rect><rect fill="red" height="2.6" width="2.6" x="181.5" y="63.0"><title>2019-12-14 1404 kCal</title></rect><rect fill="#fff300" height="2.6" width="2.6" x="181.5" y="66.5"><title>2019-12-15 725 kCal</title></rect><rect fill="#4be2ff" height="2.6" width="2.6" x="185.0" y="45.5"><title>2019-12-16 507 kCal</title></rect><rect fill="red" height="2.6" width="2.6" x="185.0" y="49.0"><title>2019-12-17 943 kCal</title></rect><rect fill="#4cdaff" height="2.6" width="2.6" x="185.0" y="52.5"><title>2019-12-18 360 kCal</title></rect><rect fill="#4ae6ff" height="2.6" width="2.6" x="185.0" y="56.0"><title>2019-12-19 586 kCal</title></rect><rect fill="#fff100" height="2.6" width="2.6" x="185.0" y="59.5"><title>2019-12-20 804 kCal</title></rect><rect fill="red" height="2.6" width="2.6" x="185.0" y="63.0"><title>2019-12-21 1546 kCal</title></rect><rect fill="red" height="2.6" width="2.6" x="185.0" y="66.5"><title>2019-12-22 934 kCal</title></rect><rect fill="red" height="2.6" width="2.6" x="188.5" y="45.5"><title>2019-12-23 1443 kCal</title></rect><rect fill="#fff300" height="2.6" width="2.6" x="188.5" y="49.0"><title>2019-12-24 739 kCal</title></rect><rect fill="red" height="2.6" width="2.6" x="188.5" y="52.5"><title>2019-12-25 1153 kCal</title></rect><rect fill="#ffef00" height="2.6" width="2.6" x="188.5" y="56.0"><title>2019-12-26 894 kCal</title></rect><rect fill="red" height="2.6" width="2.6" x="188.5" y="59.5"><title>2019-12-27 934 kCal</title></rect><rect fill="#4ae5ff" height="2.6" width="2.6" x="188.5" y="63.0"><title>2019-12-28 564 kCal</title></rect><rect fill="#4ae9ff" height="2.6" width="2.6" x="188.5" y="66.5"><title>2019-12-29 652 kCal</title></rect><rect fill="#ffef00" height="2.6" width="2.6" x="192.0" y="45.5"><title>2019-12-30 896 kCal</title></rect><rect fill="#4cdbff" height="2.6" width="2.6" x="192.0" y="49.0"><title>2019-12-31 384 kCal</title></rect></svg>