<?xml version="1.0" encoding="utf-8" ?>
<svg baseProfile="full" height="78mm" version="1.1" viewBox="0,0,200,78" width="200mm" xmlns="http://www.w3.org/2000/svg" xmlns:ev="http://www.w3.org/2001/xml-events" xmlns:xlink="http://www.w3.org/1999/xlink"><defs /><rect fill="#222222" height="78" width="200" x="0" y="0" /><text fill="#FFFFFF" style="font-size:12px; font-family:Arial; font-weight:bold;" x="10" y="20">rip-tyang apple_health</text><text dominant-baseline="hanging" fill="#FFFFFF" style="font-size:10.0px; font-family:Arial;" x="10" y="30">2020</text><text dominant-baseline="hanging" fill="#FFFFFF" style="font-size:4.125px; font-family:Arial;" x="175" y="35">215230 kCal</text><text fill="#FFFFFF" style="font-size:2.5px; font-family:Arial" x="10.0" y="44">Jan</text><text fill="#FFFFFF" style="font-size:2.5px; font-family:Arial" x="25.5" y="44">Feb</text><text fill="#FFFFFF" style="font-size:2.5px; font-family:Arial" x="41.0" y="44">Mar</text><text fill="#FFFFFF" style="font-size:2.5px; font-family:Arial" x="56.5" y="44">Apr</text><text fill="#FFFFFF" style="font-size:2.5px; font-family:Arial" x="72.0" y="44">May</text><text fill="#FFFFFF" style="font-size:2.5px; font-family:Arial" x="87.5" y="44">Jun</text><text fill="#FFFFFF" style="font-size:2.5px; font-family:Arial" x="103.0" y="44">Jul</text><text fill="#FFFFFF" style="font-size:2.5px; font-family:Arial" x="118.5" y="44">Aug</text><text fill="#FFFFFF" style="font-size:2.5px; font-family:Arial" x="134.0" y="44">Sep</text><text fill="#FFFFFF" style="font-size:2.5px; font-family:Arial" x="149.5" y="44">Oct</text><text fill="#FFFFFF" style="font-size:2.5px; font-family:Arial" x="165.0" y="44">Nov</text><text fill="#FFFFFF" style="font-size:2.5px; font-family:Arial" x="180.5" y="44">Dec</text><rect fill="#444444" height="2.6" width="2.6" x="10.0" y="45.5"><title>2019-12-30</title></rect><rect fill="#444444" height="2.6" width="2.6" x="10.0" y="49.0"><title>2019-12-31</title></rect><rect fill="#ffa700" height="2.6" width="2.6" x="10.0" y="52.5"><title>2020-01-01 777 kCal</title></rect><rect fill="#ffb000" height="2.6" width="2.6" x="10.0" y="56.0"><title>2020-01-02 702 kCal</title></rect><rect fill="red" height="2.6" width="2.6" x="10.0" y="59.5"><title>2020-01-03 897 kCal</title></rect><rect fill="#ffc000" height="2.6" width="2.6" x="10.0" y="63.0"><title>2020-01-04 567 kCal</title></rect><rect fill="red" height="2.6" width="2.6" x="10.0" y="66.5"><title>2020-01-05 859 kCal</title></rect><rect fill="red" height="2.6" width="2.6" x="13.5" y="45.5"><title>2020-01-06 1117 kCal</title></rect><rect fill="red" height="2.6" width="2.6" x="13.5" y="49.0"><title>2020-01-07 1596 kCal</title></rect><rect fill="#ffa900" height="2.6" width="2.6" x="13.5" y="52.5"><title>2020-01-08 757 kCal</title></rect><rect fill="#ffa900" height="2.6" width="2.6" x="13.5" y="56.0"><title>2020-01-09 757 kCal</title></rect><rect fill="red" height="2.6" width="2.6" x="13.5" y="59.5"><title>2020-01-10 1073 kCal</title></rect><rect fill="#3cffa5" height="2.6" width="2.6" x="13.5" y="63.0"><title>2020-01-11 507 kCal</title></rect><rect fill="#ffbf00" height="2.6" width="2.6" x="13.5" y="66.5"><title>2020-01-12 575 kCal</title></rect><rect fill="red" height="2.6" width="2.6" x="17.0" y="45.5"><title>2020-01-13 827 kCal</title></rect><rect fill="red" height="2.6" width="2.6" x="17.0" y="49.0"><title>2020-01-14 955 kCal</title></rect><rect fill="#ffab00" height="2.6" width="2.6" x="17.0" y="52.5"><title>2020-01-15 743 kCal</title></rect><rect fill="red" height="2.6" width="2.6" x="17.0" y="56.0"><title>2020-01-16 1390 kCal</title></rect><rect fill="#ffa700" height="2.6" width="2.6" x="17.0" y="59.5"><title>2020-01-17 778 kCal</title></rect><rect fill="red" height="2.6" width="2.6" x="17.0" y="63.0"><title>2020-01-18 1995 kCal</title></rect><rect fill="#3cffa7" height="2.6" width="2.6" x="17.0" y="66.5"><title>2020-01-19 502 kCal</title></rect><rect fill="#ffab00" height="2.6" width="2.6" x="20.5" y="45.5"><title>2020-01-20 740 kCal</title></rect><rect fill="#ffb500" height="2.6" width="2.6" x="20.5" y="49.0"><title>2020-01-21 662 kCal</title></rect><rect fill="#ffae00" height="2.6" width="2.6" x="20.5" y="52.5"><title>2020-01-22 720 kCal</title></rect><rect fill="#ffb400" height="2.6" width="2.6" x="20.5" y="56.0"><title>2020-01-23 669 kCal</title></rect><rect fill="red" height="2.6" width="2.6" x="20.5" y="59.5"><title>2020-01-24 1209 kCal</title></rect><rect fill="#ffb300" height="2.6" width="2.6" x="20.5" y="63.0"><title>2020-01-25 679 kCal</title></rect><rect fill="#43ffdc" height="2.6" width="2.6" x="20.5" y="66.5"><title>2020-01-26 326 kCal</title></rect><rect fill="#41ffcb" height="2.6" width="2.6" x="24.0" y="45.5"><title>2020-01-27 385 kCal</title></rect><rect fill="red" height="2.6" width="2.6" x="24.0" y="49.0"><title>2020-01-28 899 kCal</title></rect><rect fill="red" height="2.6" width="2.6" x="24.0" y="52.5"><title>2020-01-29 930 kCal</title></rect><rect fill="red" height="2.6" width="2.6" x="24.0" y="56.0"><title>2020-01-30 830 kCal</title></rect><rect fill="#ffb300" height="2.6" width="2.6" x="24.0" y="59.5"><title>2020-01-31 677 kCal</title></rect><rect fill="#ffbc00" height="2.6" width="2.6" x="24.0" y="63.0"><title>2020-02-01 603 kCal</title></rect><rect fill="#ffa900" height="2.6" width="2.6" x="24.0" y="66.5"><title>2020-02-02 763 kCal</title></rect><rect fill="#ffa600" height="2.6" width="2.6" x="27.5" y="45.5"><title>2020-02-03 785 kCal</title></rect><rect fill="red" height="2.6" width="2.6" x="27.5" y="49.0"><title>2020-02-04 956 kCal</title></rect><rect fill="red" height="2.6" width="2.6" x="27.5" y="52.5"><title>2020-02-05 956 kCal</title></rect><rect fill="#ffab00" height="2.6" width="2.6" x="27.5" y="56.0"><title>2020-02-06 741 kCal</title></rect><rect fill="red" height="2.6" width="2.6" x="27.5" y="59.5"><title>2020-02-07 1015 kCal</title></rect><rect fill="red" height="2.6" width="2.6" x="27.5" y="63.0"><title>2020-02-08 989 kCal</title></rect><rect fill="red" height="2.6" width="2.6" x="27.5" y="66.5"><title>2020-02-09 1135 kCal</title></rect><rect fill="#ffac00" height="2.6" width="2.6" x="31.0" y="45.5"><title>2020-02-10 732 kCal</title></rect><rect fill="#ffaa00" height="2.6" width="2.6" x="31.0" y="49.0"><title>2020-02-11 754 kCal</title></rect><rect fill="red" height="2.6" width="2.6" x="31.0" y="52.5"><title>2020-02-12 934 kCal</title></rect><rect fill="red" height="2.6" width="2.6" x="31.0" y="56.0"><title>2020-02-13 1002 kCal</title></rect><rect fill="red" height="2.6" width="2.6" x="31.0" y="59.5"><title>2020-02-14 963 kCal</title></rect><rect fill="red" height="2.6" width="2.6" x="31.0" y="63.0"><title>2020-02-15 2036 kCal</title></rect><rect fill="red" height="2.6" width="2.6" x="31.0" y="66.5"><title>2020-02-16 1488 kCal</title></rect><rect fill="red" height="2.6" width="2.6" x="34.5" y="45.5"><title>2020-02-17 1057 kCal</title></rect><rect fill="#44ffe6" height="2.6" width="2.6" x="34.5" y="49.0"><title>2020-02-18 292 kCal</title></rect><rect fill="red" height="2.6" width="2.6" x="34.5" y="52.5"><title>2020-02-19 998 kCal</title></rect><rect fill="#ffb200" height="2.6" width="2.6" x="34.5" y="56.0"><title>2020-02-20 687 kCal</title></rect><rect fill="red" height="2.6" width="2.6" x="34.5" y="59.5"><title>2020-02-21 2172 kCal</title></rect><rect fill="red" height="2.6" width="2.6" x="34.5" y="63.0"><title>2020-02-22 1986 kCal</title></rect><rect fill="red" height="2.6" width="2.6" x="34.5" y="66.5"><title>2020-02-23 2059 kCal</title></rect><rect fill="red" height="2.6" width="2.6" x="38.0" y="45.5"><title>2020-02-24 1388 kCal</title></rect><rect fill="#ffaf00" height="2.6" width="2.6" x="38.0" y="49.0"><title>2020-02-25 710 kCal</title></rect><rect fill="#3effb6" height="2.6" width="2.6" x="38.0" y="52.5"><title>2020-02-26 453 kCal</title></rect><rect fill="#ffae00" height="2.6" width="2.6" x="38.0" y="56.0"><title>2020-02-27 719 kCal</title></rect><rect fill="#ffa600" height="2.6" width="2.6" x="38.0" y="59.5"><title>2020-02-28 782 kCal</title></rect><rect fill="#41ffcc" height="2.6" width="2.6" x="38.0" y="63.0"><title>2020-02-29 382 kCal</title></rect><rect fill="red" height="2.6" width="2.6" x="38.0" y="66.5"><title>2020-03-01 1068 kCal</title></rect><rect fill="#ffa700" height="2.6" width="2.6" x="41.5" y="45.5"><title>2020-03-02 776 kCal</title></rect><rect fill="red" height="2.6" width="2.6" x="41.5" y="49.0"><title>2020-03-03 836 kCal</title></rect><rect fill="red" height="2.6" width="2.6" x="41.5" y="52.5"><title>2020-03-04 892 kCal</title></rect><rect fill="#ffb400" height="2.6" width="2.6" x="41.5" y="56.0"><title>2020-03-05 667 kCal</title></rect><rect fill="red" height="2.6" width="2.6" x="41.5" y="59.5"><title>2020-03-06 802 kCal</title></rect><rect fill="#40ffc5" height="2.6" width="2.6" x="41.5" y="63.0"><title>2020-03-07 403 kCal</title></rect><rect fill="#40ffc3" height="2.6" width="2.6" x="41.5" y="66.5"><title>2020-03-08 411 kCal</title></rect><rect fill="#ffaf00" height="2.6" width="2.6" x="45.0" y="45.5"><title>2020-03-09 707 kCal</title></rect><rect fill="#ffac00" height="2.6" width="2.6" x="45.0" y="49.0"><title>2020-03-10 738 kCal</title></rect><rect fill="#ffbc00" height="2.6" width="2.6" x="45.0" y="52.5"><title>2020-03-11 603 kCal</title></rect><rect fill="#ffb300" height="2.6" width="2.6" x="45.0" y="56.0"><title>2020-03-12 678 kCal</title></rect><rect fill="red" height="2.6" width="2.6" x="45.0" y="59.5"><title>2020-03-13 878 kCal</title></rect><rect fill="#ffaf00" height="2.6" width="2.6" x="45.0" y="63.0"><title>2020-03-14 713 kCal</title></rect><rect fill="#ffba00" height="2.6" width="2.6" x="45.0" y="66.5"><title>2020-03-15 621 kCal</title></rect><rect fill="#ffaf00" height="2.6" width="2.6" x="48.5" y="45.5"><title>2020-03-16 713 kCal</title></rect><rect fill="#3effb6" height="2.6" width="2.6" x="48.5" y="49.0"><title>2020-03-17 454 kCal</title></rect><rect fill="#3fffc0" height="2.6" width="2.6" x="48.5" y="52.5"><title>2020-03-18 420 kCal</title></rect><rect fill="#44ffe8" height="2.6" width="2.6" x="48.5" y="56.0"><title>2020-03-19 286 kCal</title></rect><rect fill="#3effb5" height="2.6" width="2.6" x="48.5" y="59.5"><title>2020-03-20 456 kCal</title></rect><rect fill="#ffbb00" height="2.6" width="2.6" x="48.5" y="63.0"><title>2020-03-21 606 kCal</title></rect><rect fill="#47fcff" height="2.6" width="2.6" x="48.5" y="66.5"><title>2020-03-22 194 kCal</title></rect><rect fill="#ffa700" height="2.6" width="2.6" x="52.0" y="45.5"><title>2020-03-23 776 kCal</title></rect><rect fill="#3cffa4" height="2.6" width="2.6" x="52.0" y="49.0"><title>2020-03-24 512 kCal</title></rect><rect fill="red" height="2.6" width="2.6" x="52.0" y="52.5"><title>2020-03-25 1026 kCal</title></rect><rect fill="#3effb5" height="2.6" width="2.6" x="52.0" y="56.0"><title>2020-03-26 458 kCal</title></rect><rect fill="#3cffa3" height="2.6" width="2.6" x="52.0" y="59.5"><title>2020-03-27 516 kCal</title></rect><rect fill="#40ffc7" height="2.6" width="2.6" x="52.0" y="63.0"><title>2020-03-28 399 kCal</title></rect><rect fill="#40ffc5" height="2.6" width="2.6" x="52.0" y="66.5"><title>2020-03-29 405 kCal</title></rect><rect fill="#44ffea" height="2.6" width="2.6" x="55.5" y="45.5"><title>2020-03-30 278 kCal</title></rect><rect fill="#ffa700" height="2.6" width="2.6" x="55.5" y="49.0"><title>2020-03-31 778 kCal</title></rect><rect fill="#4dd2ff" height="2.6" width="2.6" x="55.5" y="52.5"><title>2020-04-01 40 kCal</title></rect><rect fill="#3effb3" height="2.6" width="2.6" x="55.5" y="56.0"><title>2020-04-02 463 kCal</title></rect><rect fill="#48faff" height="2.6" width="2.6" x="55.5" y="59.5"><title>2020-04-03 187 kCal</title></rect><rect fill="#41ffd1" height="2.6" width="2.6" x="55.5" y="63.0"><title>2020-04-04 364 kCal</title></rect><rect fill="#4be4ff" height="2.6" width="2.6" x="55.5" y="66.5"><title>2020-04-05 106 kCal</title></rect><rect fill="#3dffae" height="2.6" width="2.6" x="59.0" y="45.5"><title>2020-04-06 481 kCal</title></rect><rect fill="#49eeff" height="2.6" width="2.6" x="59.0" y="49.0"><title>2020-04-07 143 kCal</title></rect><rect fill="#41ffcd" height="2.6" width="2.6" x="59.0" y="52.5"><title>2020-04-08 377 kCal</title></rect><rect fill="#3cffa4" height="2.6" width="2.6" x="59.0" y="56.0"><title>2020-04-09 512 kCal</title></rect><rect fill="red" height="2.6" width="2.6" x="59.0" y="59.5"><title>2020-04-10 1505 kCal</title></rect><rect fill="#3effb3" height="2.6" width="2.6" x="59.0" y="63.0"><title>2020-04-11 465 kCal</title></rect><rect fill="#3fffbb" height="2.6" width="2.6" x="59.0" y="66.5"><title>2020-04-12 439 kCal</title></rect><rect fill="#4cdaff" height="2.6" width="2.6" x="62.5" y="45.5"><title>2020-04-13 70 kCal</title></rect><rect fill="#3dffb1" height="2.6" width="2.6" x="62.5" y="49.0"><title>2020-04-14 470 kCal</title></rect><rect fill="#4cd9ff" height="2.6" width="2.6" x="62.5" y="52.5"><title>2020-04-15 68 kCal</title></rect><rect fill="#3bff98" height="2.6" width="2.6" x="62.5" y="56.0"><title>2020-04-16 548 kCal</title></rect><rect fill="#3effb3" height="2.6" width="2.6" x="62.5" y="59.5"><title>2020-04-17 462 kCal</title></rect><rect fill="#444444" height="2.6" width="2.6" x="62.5" y="63.0"><title>2020-04-18</title></rect><rect fill="#ffb900" height="2.6" width="2.6" x="62.5" y="66.5"><title>2020-04-19 622 kCal</title></rect><rect fill="#49efff" height="2.6" width="2.6" x="66.0" y="45.5"><title>2020-04-20 148 kCal</title></rect><rect fill="#40ffc7" height="2.6" width="2.6" x="66.0" y="49.0"><title>2020-04-21 398 kCal</title></rect><rect fill="#4be4ff" height="2.6" width="2.6" x="66.0" y="52.5"><title>2020-04-22 106 kCal</title></rect><rect fill="red" height="2.6" width="2.6" x="66.0" y="56.0"><title>2020-04-23 1589 kCal</title></rect><rect fill="#49eeff" height="2.6" width="2.6" x="66.0" y="59.5"><title>2020-04-24 145 kCal</title></rect><rect fill="#ffba00" height="2.6" width="2.6" x="66.0" y="63.0"><title>2020-04-25 614 kCal</title></rect><rect fill="#4be3ff" height="2.6" width="2.6" x="66.0" y="66.5"><title>2020-04-26 105 kCal</title></rect><rect fill="#3effb4" height="2.6" width="2.6" x="69.5" y="45.5"><title>2020-04-27 461 kCal</title></rect><rect fill="#49efff" height="2.6" width="2.6" x="69.5" y="49.0"><title>2020-04-28 148 kCal</title></rect><rect fill="#40ffc6" height="2.6" width="2.6" x="69.5" y="52.5"><title>2020-04-29 400 kCal</title></rect><rect fill="#3dffad" height="2.6" width="2.6" x="69.5" y="56.0"><title>2020-04-30 483 kCal</title></rect><rect fill="#40ffc5" height="2.6" width="2.6" x="69.5" y="59.5"><title>2020-05-01 406 kCal</title></rect><rect fill="#43ffdd" height="2.6" width="2.6" x="69.5" y="63.0"><title>2020-05-02 325 kCal</title></rect><rect fill="#3fffc2" height="2.6" width="2.6" x="69.5" y="66.5"><title>2020-05-03 414 kCal</title></rect><rect fill="#4cdbff" height="2.6" width="2.6" x="73.0" y="45.5"><title>2020-05-04 75 kCal</title></rect><rect fill="#3dffaf" height="2.6" width="2.6" x="73.0" y="49.0"><title>2020-05-05 477 kCal</title></rect><rect fill="#3effb9" height="2.6" width="2.6" x="73.0" y="52.5"><title>2020-05-06 445 kCal</title></rect><rect fill="#42ffd4" height="2.6" width="2.6" x="73.0" y="56.0"><title>2020-05-07 354 kCal</title></rect><rect fill="#3fffbb" height="2.6" width="2.6" x="73.0" y="59.5"><title>2020-05-08 436 kCal</title></rect><rect fill="#44ffe4" height="2.6" width="2.6" x="73.0" y="63.0"><title>2020-05-09 301 kCal</title></rect><rect fill="#41ffd2" height="2.6" width="2.6" x="73.0" y="66.5"><title>2020-05-10 361 kCal</title></rect><rect fill="#40ffc9" height="2.6" width="2.6" x="76.5" y="45.5"><title>2020-05-11 391 kCal</title></rect><rect fill="#3cffa4" height="2.6" width="2.6" x="76.5" y="49.0"><title>2020-05-12 513 kCal</title></rect><rect fill="red" height="2.6" width="2.6" x="76.5" y="52.5"><title>2020-05-13 1777 kCal</title></rect><rect fill="#3bff9a" height="2.6" width="2.6" x="76.5" y="56.0"><title>2020-05-14 544 kCal</title></rect><rect fill="#45ffec" height="2.6" width="2.6" x="76.5" y="59.5"><title>2020-05-15 274 kCal</title></rect><rect fill="#3cffa2" height="2.6" width="2.6" x="76.5" y="63.0"><title>2020-05-16 517 kCal</title></rect><rect fill="#47fffe" height="2.6" width="2.6" x="76.5" y="66.5"><title>2020-05-17 211 kCal</title></rect><rect fill="red" height="2.6" width="2.6" x="80.0" y="45.5"><title>2020-05-18 961 kCal</title></rect><rect fill="#46fffa" height="2.6" width="2.6" x="80.0" y="49.0"><title>2020-05-19 223 kCal</title></rect><rect fill="#3cffa8" height="2.6" width="2.6" x="80.0" y="52.5"><title>2020-05-20 498 kCal</title></rect><rect fill="#3dffb0" height="2.6" width="2.6" x="80.0" y="56.0"><title>2020-05-21 473 kCal</title></rect><rect fill="#41ffcb" height="2.6" width="2.6" x="80.0" y="59.5"><title>2020-05-22 383 kCal</title></rect><rect fill="#3dffb1" height="2.6" width="2.6" x="80.0" y="63.0"><title>2020-05-23 470 kCal</title></rect><rect fill="red" height="2.6" width="2.6" x="80.0" y="66.5"><title>2020-05-24 1143 kCal</title></rect><rect fill="#41ffcb" height="2.6" width="2.6" x="83.5" y="45.5"><title>2020-05-25 385 kCal</title></rect><rect fill="#3cffa5" height="2.6" width="2.6" x="83.5" y="49.0"><title>2020-05-26 509 kCal</title></rect><rect fill="#41ffce" height="2.6" width="2.6" x="83.5" y="52.5"><title>2020-05-27 375 kCal</title></rect><rect fill="#41ffd1" height="2.6" width="2.6" x="83.5" y="56.0"><title>2020-05-28 365 kCal</title></rect><rect fill="#3dffaf" height="2.6" width="2.6" x="83.5" y="59.5"><title>2020-05-29 475 kCal</title></rect><rect fill="#3dffac" height="2.6" width="2.6" x="83.5" y="63.0"><title>2020-05-30 487 kCal</title></rect><rect fill="#40ffc9" height="2.6" width="2.6" x="83.5" y="66.5"><title>2020-05-31 392 kCal</title></rect><rect fill="#3bff9f" height="2.6" width="2.6" x="87.0" y="45.5"><title>2020-06-01 527 kCal</title></rect><rect fill="#3dffae" height="2.6" width="2.6" x="87.0" y="49.0"><title>2020-06-02 479 kCal</title></rect><rect fill="#40ffca" height="2.6" width="2.6" x="87.0" y="52.5"><title>2020-06-03 388 kCal</title></rect><rect fill="#3dffac" height="2.6" width="2.6" x="87.0" y="56.0"><title>2020-06-04 485 kCal</title></rect><rect fill="#3effb1" height="2.6" width="2.6" x="87.0" y="59.5"><title>2020-06-05 469 kCal</title></rect><rect fill="#ffbf00" height="2.6" width="2.6" x="87.0" y="63.0"><title>2020-06-06 576 kCal</title></rect><rect fill="#ffaa00" height="2.6" width="2.6" x="87.0" y="66.5"><title>2020-06-07 747 kCal</title></rect><rect fill="#3dffb0" height="2.6" width="2.6" x="90.5" y="45.5"><title>2020-06-08 473 kCal</title></rect><rect fill="#ffa500" height="2.6" width="2.6" x="90.5" y="49.0"><title>2020-06-09 793 kCal</title></rect><rect fill="#48f9ff" height="2.6" width="2.6" x="90.5" y="52.5"><title>2020-06-10 185 kCal</title></rect><rect fill="red" height="2.6" width="2.6" x="90.5" y="56.0"><title>2020-06-11 829 kCal</title></rect><rect fill="#40ffc3" height="2.6" width="2.6" x="90.5" y="59.5"><title>2020-06-12 412 kCal</title></rect><rect fill="#ffa700" height="2.6" width="2.6" x="90.5" y="63.0"><title>2020-06-13 779 kCal</title></rect><rect fill="#3dffae" height="2.6" width="2.6" x="90.5" y="66.5"><title>2020-06-14 481 kCal</title></rect><rect fill="#3effb5" height="2.6" width="2.6" x="94.0" y="45.5"><title>2020-06-15 458 kCal</title></rect><rect fill="#ffbc00" height="2.6" width="2.6" x="94.0" y="49.0"><title>2020-06-16 604 kCal</title></rect><rect fill="#3bff9d" height="2.6" width="2.6" x="94.0" y="52.5"><title>2020-06-17 535 kCal</title></rect><rect fill="#3fffc0" height="2.6" width="2.6" x="94.0" y="56.0"><title>2020-06-18 421 kCal</title></rect><rect fill="#3bff98" height="2.6" width="2.6" x="94.0" y="59.5"><title>2020-06-19 550 kCal</title></rect><rect fill="#45fff1" height="2.6" width="2.6" x="94.0" y="63.0"><title>2020-06-20 255 kCal</title></rect><rect fill="#41ffcf" height="2.6" width="2.6" x="94.0" y="66.5"><title>2020-06-21 371 kCal</title></rect><rect fill="#3aff96" height="2.6" width="2.6" x="97.5" y="45.5"><title>2020-06-22 555 kCal</title></rect><rect fill="#3dffb1" height="2.6" width="2.6" x="97.5" y="49.0"><title>2020-06-23 471 kCal</title></rect><rect fill="#43ffe2" height="2.6" width="2.6" x="97.5" y="52.5"><title>2020-06-24 306 kCal</title></rect><rect fill="#3dffad" height="2.6" width="2.6" x="97.5" y="56.0"><title>2020-06-25 482 kCal</title></rect><rect fill="#47fffd" height="2.6" width="2.6" x="97.5" y="59.5"><title>2020-06-26 212 kCal</title></rect><rect fill="#3effb2" height="2.6" width="2.6" x="97.5" y="63.0"><title>2020-06-27 466 kCal</title></rect><rect fill="#42ffd4" height="2.6" width="2.6" x="97.5" y="66.5"><title>2020-06-28 353 kCal</title></rect><rect fill="#3dffb0" height="2.6" width="2.6" x="101.0" y="45.5"><title>2020-06-29 474 kCal</title></rect><rect fill="#ffbf00" height="2.6" width="2.6" x="101.0" y="49.0"><title>2020-06-30 576 kCal</title></rect><rect fill="#43ffdc" height="2.6" width="2.6" x="101.0" y="52.5"><title>2020-07-01 329 kCal</title></rect><rect fill="#ffbf00" height="2.6" width="2.6" x="101.0" y="56.0"><title>2020-07-02 572 kCal</title></rect><rect fill="#3effb5" height="2.6" width="2.6" x="101.0" y="59.5"><title>2020-07-03 456 kCal</title></rect><rect fill="red" height="2.6" width="2.6" x="101.0" y="63.0"><title>2020-07-04 1203 kCal</title></rect><rect fill="#41ffcc" height="2.6" width="2.6" x="101.0" y="66.5"><title>2020-07-05 381 kCal</title></rect><rect fill="#3effb8" height="2.6" width="2.6" x="104.5" y="45.5"><title>2020-07-06 448 kCal</title></rect><rect fill="#47fffc" height="2.6" width="2.6" x="104.5" y="49.0"><title>2020-07-07 216 kCal</title></rect><rect fill="#ffbe00" height="2.6" width="2.6" x="104.5" y="52.5"><title>2020-07-08 586 kCal</title></rect><rect fill="#3effb5" height="2.6" width="2.6" x="104.5" y="56.0"><title>2020-07-09 456 kCal</title></rect><rect fill="#ffbf00" height="2.6" width="2.6" x="104.5" y="59.5"><title>2020-07-10 576 kCal</title></rect><rect fill="#ffba00" height="2.6" width="2.6" x="104.5" y="63.0"><title>2020-07-11 613 kCal</title></rect><rect fill="#49efff" height="2.6" width="2.6" x="104.5" y="66.5"><title>2020-07-12 147 kCal</title></rect><rect fill="#ffac00" height="2.6" width="2.6" x="108.0" y="45.5"><title>2020-07-13 735 kCal</title></rect><rect fill="#40ffc4" height="2.6" width="2.6" x="108.0" y="49.0"><title>2020-07-14 409 kCal</title></rect><rect fill="#ffb900" height="2.6" width="2.6" x="108.0" y="52.5"><title>2020-07-15 626 kCal</title></rect><rect fill="#42ffd5" height="2.6" width="2.6" x="108.0" y="56.0"><title>2020-07-16 352 kCal</title></rect><rect fill="#ffb800" height="2.6" width="2.6" x="108.0" y="59.5"><title>2020-07-17 637 kCal</title></rect><rect fill="#ffbc00" height="2.6" width="2.6" x="108.0" y="63.0"><title>2020-07-18 599 kCal</title></rect><rect fill="#46fff8" height="2.6" width="2.6" x="108.0" y="66.5"><title>2020-07-19 230 kCal</title></rect><rect fill="#41ffcf" height="2.6" width="2.6" x="111.5" y="45.5"><title>2020-07-20 371 kCal</title></rect><rect fill="#ffae00" height="2.6" width="2.6" x="111.5" y="49.0"><title>2020-07-21 715 kCal</title></rect><rect fill="#3effb6" height="2.6" width="2.6" x="111.5" y="52.5"><title>2020-07-22 455 kCal</title></rect><rect fill="#3fffbd" height="2.6" width="2.6" x="111.5" y="56.0"><title>2020-07-23 432 kCal</title></rect><rect fill="#3dffac" height="2.6" width="2.6" x="111.5" y="59.5"><title>2020-07-24 486 kCal</title></rect><rect fill="#ffc000" height="2.6" width="2.6" x="111.5" y="63.0"><title>2020-07-25 568 kCal</title></rect><rect fill="#42ffd5" height="2.6" width="2.6" x="111.5" y="66.5"><title>2020-07-26 352 kCal</title></rect><rect fill="#49f2ff" height="2.6" width="2.6" x="115.0" y="45.5"><title>2020-07-27 160 kCal</title></rect><rect fill="#3fffc1" height="2.6" width="2.6" x="115.0" y="49.0"><title>2020-07-28 417 kCal</title></rect><rect fill="#3dffab" height="2.6" width="2.6" x="115.0" y="52.5"><title>2020-07-29 490 kCal</title></rect><rect fill="#3effb9" height="2.6" width="2.6" x="115.0" y="56.0"><title>2020-07-30 443 kCal</title></rect><rect fill="#ffb900" height="2.6" width="2.6" x="115.0" y="59.5"><title>2020-07-31 628 kCal</title></rect><rect fill="#3bff9b" height="2.6" width="2.6" x="115.0" y="63.0"><title>2020-08-01 539 kCal</title></rect><rect fill="#ffbf00" height="2.6" width="2.6" x="115.0" y="66.5"><title>2020-08-02 575 kCal</title></rect><rect fill="#41ffcc" height="2.6" width="2.6" x="118.5" y="45.5"><title>2020-08-03 382 kCal</title></rect><rect fill="#42ffd7" height="2.6" width="2.6" x="118.5" y="49.0"><title>2020-08-04 343 kCal</title></rect><rect fill="#3effb6" height="2.6" width="2.6" x="118.5" y="52.5"><title>2020-08-05 455 kCal</title></rect><rect fill="#ffbf00" height="2.6" width="2.6" x="118.5" y="56.0"><title>2020-08-06 576 kCal</title></rect><rect fill="#3dffb1" height="2.6" width="2.6" x="118.5" y="59.5"><title>2020-08-07 470 kCal</title></rect><rect fill="#ffb100" height="2.6" width="2.6" x="118.5" y="63.0"><title>2020-08-08 696 kCal</title></rect><rect fill="#43ffdc" height="2.6" width="2.6" x="118.5" y="66.5"><title>2020-08-09 327 kCal</title></rect><rect fill="#3bff9f" height="2.6" width="2.6" x="122.0" y="45.5"><title>2020-08-10 528 kCal</title></rect><rect fill="#3bff9e" height="2.6" width="2.6" x="122.0" y="49.0"><title>2020-08-11 530 kCal</title></rect><rect fill="#ffc000" height="2.6" width="2.6" x="122.0" y="52.5"><title>2020-08-12 569 kCal</title></rect><rect fill="#42ffd9" height="2.6" width="2.6" x="122.0" y="56.0"><title>2020-08-13 339 kCal</title></rect><rect fill="#ffbf00" height="2.6" width="2.6" x="122.0" y="59.5"><title>2020-08-14 575 kCal</title></rect><rect fill="#3dffac" height="2.6" width="2.6" x="122.0" y="63.0"><title>2020-08-15 487 kCal</title></rect><rect fill="#ffbc00" height="2.6" width="2.6" x="122.0" y="66.5"><title>2020-08-16 599 kCal</title></rect><rect fill="#41ffcb" height="2.6" width="2.6" x="125.5" y="45.5"><title>2020-08-17 383 kCal</title></rect><rect fill="#3fffbe" height="2.6" width="2.6" x="125.5" y="49.0"><title>2020-08-18 426 kCal</title></rect><rect fill="#40ffc5" height="2.6" width="2.6" x="125.5" y="52.5"><title>2020-08-19 406 kCal</title></rect><rect fill="#41ffcd" height="2.6" width="2.6" x="125.5" y="56.0"><title>2020-08-20 379 kCal</title></rect><rect fill="red" height="2.6" width="2.6" x="125.5" y="59.5"><title>2020-08-21 816 kCal</title></rect><rect fill="#42ffd9" height="2.6" width="2.6" x="125.5" y="63.0"><title>2020-08-22 337 kCal</title></rect><rect fill="#3bff98" height="2.6" width="2.6" x="125.5" y="66.5"><title>2020-08-23 550 kCal</title></rect><rect fill="#ffbd00" height="2.6" width="2.6" x="129.0" y="45.5"><title>2020-08-24 588 kCal</title></rect><rect fill="#3bff9d" height="2.6" width="2.6" x="129.0" y="49.0"><title>2020-08-25 533 kCal</title></rect><rect fill="#4bdeff" height="2.6" width="2.6" x="129.0" y="52.5"><title>2020-08-26 84 kCal</title></rect><rect fill="#3cffa7" height="2.6" width="2.6" x="129.0" y="56.0"><title>2020-08-27 503 kCal</title></rect><rect fill="#41ffd2" height="2.6" width="2.6" x="129.0" y="59.5"><title>2020-08-28 360 kCal</title></rect><rect fill="red" height="2.6" width="2.6" x="129.0" y="63.0"><title>2020-08-29 939 kCal</title></rect><rect fill="red" height="2.6" width="2.6" x="129.0" y="66.5"><title>2020-08-30 1308 kCal</title></rect><rect fill="#42ffd9" height="2.6" width="2.6" x="132.5" y="45.5"><title>2020-08-31 338 kCal</title></rect><rect fill="#ffb300" height="2.6" width="2.6" x="132.5" y="49.0"><title>2020-09-01 675 kCal</title></rect><rect fill="#44ffe9" height="2.6" width="2.6" x="132.5" y="52.5"><title>2020-09-02 282 kCal</title></rect><rect fill="#3dffad" height="2.6" width="2.6" x="132.5" y="56.0"><title>2020-09-03 482 kCal</title></rect><rect fill="red" height="2.6" width="2.6" x="132.5" y="59.5"><title>2020-09-04 911 kCal</title></rect><rect fill="#ffb500" height="2.6" width="2.6" x="132.5" y="63.0"><title>2020-09-05 655 kCal</title></rect><rect fill="#3cffa2" height="2.6" width="2.6" x="132.5" y="66.5"><title>2020-09-06 517 kCal</title></rect><rect fill="#40ffc9" height="2.6" width="2.6" x="136.0" y="45.5"><title>2020-09-07 391 kCal</title></rect><rect fill="#49f0ff" height="2.6" width="2.6" x="136.0" y="49.0"><title>2020-09-08 150 kCal</title></rect><rect fill="#40ffc4" height="2.6" width="2.6" x="136.0" y="52.5"><title>2020-09-09 408 kCal</title></rect><rect fill="#40ffc8" height="2.6" width="2.6" x="136.0" y="56.0"><title>2020-09-10 394 kCal</title></rect><rect fill="#ffaf00" height="2.6" width="2.6" x="136.0" y="59.5"><title>2020-09-11 711 kCal</title></rect><rect fill="#ffb500" height="2.6" width="2.6" x="136.0" y="63.0"><title>2020-09-12 655 kCal</title></rect><rect fill="#47fffc" height="2.6" width="2.6" x="136.0" y="66.5"><title>2020-09-13 216 kCal</title></rect><rect fill="#3fffbc" height="2.6" width="2.6" x="139.5" y="45.5"><title>2020-09-14 433 kCal</title></rect><rect fill="#3fffc1" height="2.6" width="2.6" x="139.5" y="49.0"><title>2020-09-15 417 kCal</title></rect><rect fill="#ffa500" height="2.6" width="2.6" x="139.5" y="52.5"><title>2020-09-16 794 kCal</title></rect><rect fill="#ffaa00" height="2.6" width="2.6" x="139.5" y="56.0"><title>2020-09-17 754 kCal</title></rect><rect fill="red" height="2.6" width="2.6" x="139.5" y="59.5"><title>2020-09-18 1076 kCal</title></rect><rect fill="#40ffca" height="2.6" width="2.6" x="139.5" y="63.0"><title>2020-09-19 387 kCal</title></rect><rect fill="#ffc000" height="2.6" width="2.6" x="139.5" y="66.5"><title>2020-09-20 567 kCal</title></rect><rect fill="#3bff98" height="2.6" width="2.6" x="143.0" y="45.5"><title>2020-09-21 551 kCal</title></rect><rect fill="#ffab00" height="2.6" width="2.6" x="143.0" y="49.0"><title>2020-09-22 743 kCal</title></rect><rect fill="#44ffe5" height="2.6" width="2.6" x="143.0" y="52.5"><title>2020-09-23 295 kCal</title></rect><rect fill="#3dffb1" height="2.6" width="2.6" x="143.0" y="56.0"><title>2020-09-24 470 kCal</title></rect><rect fill="#3bff9f" height="2.6" width="2.6" x="143.0" y="59.5"><title>2020-09-25 528 kCal</title></rect><rect fill="#ffbb00" height="2.6" width="2.6" x="143.0" y="63.0"><title>2020-09-26 610 kCal</title></rect><rect fill="#3fffc2" height="2.6" width="2.6" x="143.0" y="66.5"><title>2020-09-27 414 kCal</title></rect><rect fill="red" height="2.6" width="2.6" x="146.5" y="45.5"><title>2020-09-28 817 kCal</title></rect><rect fill="#42ffd6" height="2.6" width="2.6" x="146.5" y="49.0"><title>2020-09-29 347 kCal</title></rect><rect fill="red" height="2.6" width="2.6" x="146.5" y="52.5"><title>2020-09-30 983 kCal</title></rect><rect fill="#ffb700" height="2.6" width="2.6" x="146.5" y="56.0"><title>2020-10-01 643 kCal</title></rect><rect fill="#42ffda" height="2.6" width="2.6" x="146.5" y="59.5"><title>2020-10-02 333 kCal</title></rect><rect fill="#ffaf00" height="2.6" width="2.6" x="146.5" y="63.0"><title>2020-10-03 710 kCal</title></rect><rect fill="#3dffae" height="2.6" width="2.6" x="146.5" y="66.5"><title>2020-10-04 479 kCal</title></rect><rect fill="#43ffdd" height="2.6" width="2.6" x="150.0" y="45.5"><title>2020-10-05 323 kCal</title></rect><rect fill="#ffb800" height="2.6" width="2.6" x="150.0" y="49.0"><title>2020-10-06 636 kCal</title></rect><rect fill="#ffb000" height="2.6" width="2.6" x="150.0" y="52.5"><title>2020-10-07 704 kCal</title></rect><rect fill="#ffb500" height="2.6" width="2.6" x="150.0" y="56.0"><title>2020-10-08 660 kCal</title></rect><rect fill="red" height="2.6" width="2.6" x="150.0" y="59.5"><title>2020-10-09 802 kCal</title></rect><rect fill="#ffad00" height="2.6" width="2.6" x="150.0" y="63.0"><title>2020-10-10 725 kCal</title></rect><rect fill="#ffbe00" height="2.6" width="2.6" x="150.0" y="66.5"><title>2020-10-11 581 kCal</title></rect><rect fill="#ffb100" height="2.6" width="2.6" x="153.5" y="45.5"><title>2020-10-12 693 kCal</title></rect><rect fill="#ffb900" height="2.6" width="2.6" x="153.5" y="49.0"><title>2020-10-13 624 kCal</title></rect><rect fill="#ffa400" height="2.6" width="2.6" x="153.5" y="52.5"><title>2020-10-14 799 kCal</title></rect><rect fill="#ffa400" height="2.6" width="2.6" x="153.5" y="56.0"><title>2020-10-15 799 kCal</title></rect><rect fill="#3fffbb" height="2.6" width="2.6" x="153.5" y="59.5"><title>2020-10-16 438 kCal</title></rect><rect fill="#3dffb0" height="2.6" width="2.6" x="153.5" y="63.0"><title>2020-10-17 472 kCal</title></rect><rect fill="#ffb300" height="2.6" width="2.6" x="153.5" y="66.5"><title>2020-10-18 675 kCal</title></rect><rect fill="#ffb500" height="2.6" width="2.6" x="157.0" y="45.5"><title>2020-10-19 661 kCal</title></rect><rect fill="#ffb900" height="2.6" width="2.6" x="157.0" y="49.0"><title>2020-10-20 623 kCal</title></rect><rect fill="#ffaa00" height="2.6" width="2.6" x="157.0" y="52.5"><title>2020-10-21 754 kCal</title></rect><rect fill="#ffaf00" height="2.6" width="2.6" x="157.0" y="56.0"><title>2020-10-22 709 kCal</title></rect><rect fill="#3dffab" height="2.6" width="2.6" x="157.0" y="59.5"><title>2020-10-23 488 kCal</title></rect><rect fill="red" height="2.6" width="2.6" x="157.0" y="63.0"><title>2020-10-24 875 kCal</title></rect><rect fill="#3fffc1" height="2.6" width="2.6" x="157.0" y="66.5"><title>2020-10-25 419 kCal</title></rect><rect fill="#ffb200" height="2.6" width="2.6" x="160.5" y="45.5"><title>2020-10-26 680 kCal</title></rect><rect fill="red" height="2.6" width="2.6" x="160.5" y="49.0"><title>2020-10-27 842 kCal</title></rect><rect fill="#ffa600" height="2.6" width="2.6" x="160.5" y="52.5"><title>2020-10-28 781 kCal</title></rect><rect fill="#ffa700" height="2.6" width="2.6" x="160.5" y="56.0"><title>2020-10-29 773 kCal</title></rect><rect fill="#3dffac" height="2.6" width="2.6" x="160.5" y="59.5"><title>2020-10-30 487 kCal</title></rect><rect fill="#3effb7" height="2.6" width="2.6" x="160.5" y="63.0"><title>2020-10-31 451 kCal</title></rect><rect fill="#46fff5" height="2.6" width="2.6" x="160.5" y="66.5"><title>2020-11-01 242 kCal</title></rect><rect fill="#ffac00" height="2.6" width="2.6" x="164.0" y="45.5"><title>2020-11-02 736 kCal</title></rect><rect fill="#ffb700" height="2.6" width="2.6" x="164.0" y="49.0"><title>2020-11-03 645 kCal</title></rect><rect fill="#ffb500" height="2.6" width="2.6" x="164.0" y="52.5"><title>2020-11-04 658 kCal</title></rect><rect fill="#ffb000" height="2.6" width="2.6" x="164.0" y="56.0"><title>2020-11-05 698 kCal</title></rect><rect fill="#3dffb0" height="2.6" width="2.6" x="164.0" y="59.5"><title>2020-11-06 473 kCal</title></rect><rect fill="red" height="2.6" width="2.6" x="164.0" y="63.0"><title>2020-11-07 1058 kCal</title></rect><rect fill="#ffc100" height="2.6" width="2.6" x="164.0" y="66.5"><title>2020-11-08 558 kCal</title></rect><rect fill="#3fffbc" height="2.6" width="2.6" x="167.5" y="45.5"><title>2020-11-09 434 kCal</title></rect><rect fill="#3cffa7" height="2.6" width="2.6" x="167.5" y="49.0"><title>2020-11-10 502 kCal</title></rect><rect fill="#3cffa3" height="2.6" width="2.6" x="167.5" y="52.5"><title>2020-11-11 516 kCal</title></rect><rect fill="#ffc000" height="2.6" width="2.6" x="167.5" y="56.0"><title>2020-11-12 566 kCal</title></rect><rect fill="red" height="2.6" width="2.6" x="167.5" y="59.5"><title>2020-11-13 845 kCal</title></rect><rect fill="#3fffbe" height="2.6" width="2.6" x="167.5" y="63.0"><title>2020-11-14 427 kCal</title></rect><rect fill="red" height="2.6" width="2.6" x="167.5" y="66.5"><title>2020-11-15 1228 kCal</title></rect><rect fill="#3effb6" height="2.6" width="2.6" x="171.0" y="45.5"><title>2020-11-16 455 kCal</title></rect><rect fill="#3dffb1" height="2.6" width="2.6" x="171.0" y="49.0"><title>2020-11-17 470 kCal</title></rect><rect fill="#ffa900" height="2.6" width="2.6" x="171.0" y="52.5"><title>2020-11-18 761 kCal</title></rect><rect fill="#3fffbb" height="2.6" width="2.6" x="171.0" y="56.0"><title>2020-11-19 437 kCal</title></rect><rect fill="#40ffc7" height="2.6" width="2.6" x="171.0" y="59.5"><title>2020-11-20 398 kCal</title></rect><rect fill="red" height="2.6" width="2.6" x="171.0" y="63.0"><title>2020-11-21 864 kCal</title></rect><rect fill="#42ffd9" height="2.6" width="2.6" x="171.0" y="66.5"><title>2020-11-22 338 kCal</title></rect><rect fill="#3bff99" height="2.6" width="2.6" x="174.5" y="45.5"><title>2020-11-23 546 kCal</title></rect><rect fill="#3aff96" height="2.6" width="2.6" x="174.5" y="49.0"><title>2020-11-24 556 kCal</title></rect><rect fill="#ffb500" height="2.6" width="2.6" x="174.5" y="52.5"><title>2020-11-25 659 kCal</title></rect><rect fill="#40ffc9" height="2.6" width="2.6" x="174.5" y="56.0"><title>2020-11-26 391 kCal</title></rect><rect fill="#ffa700" height="2.6" width="2.6" x="174.5" y="59.5"><title>2020-11-27 773 kCal</title></rect><rect fill="red" height="2.6" width="2.6" x="174.5" y="63.0"><title>2020-11-28 1143 kCal</title></rect><rect fill="#45ffed" height="2.6" width="2.6" x="174.5" y="66.5"><title>2020-11-29 269 kCal</title></rect><rect fill="#ffa600" height="2.6" width="2.6" x="178.0" y="45.5"><title>2020-11-30 784 kCal</title></rect><rect fill="red" height="2.6" width="2.6" x="178.0" y="49.0"><title>2020-12-01 815 kCal</title></rect><rect fill="red" height="2.6" width="2.6" x="178.0" y="52.5"><title>2020-12-02 1062 kCal</title></rect><rect fill="#42ffd4" height="2.6" width="2.6" x="178.0" y="56.0"><title>2020-12-03 355 kCal</title></rect><rect fill="#44ffe3" height="2.6" width="2.6" x="178.0" y="59.5"><title>2020-12-04 303 kCal</title></rect><rect fill="#ffa400" height="2.6" width="2.6" x="178.0" y="63.0"><title>2020-12-05 799 kCal</title></rect><rect fill="#44ffe8" height="2.6" width="2.6" x="178.0" y="66.5"><title>2020-12-06 285 kCal</title></rect><rect fill="#ffbd00" height="2.6" width="2.6" x="181.5" y="45.5"><title>2020-12-07 594 kCal</title></rect><rect fill="#ffbc00" height="2.6" width="2.6" x="181.5" y="49.0"><title>2020-12-08 603 kCal</title></rect><rect fill="#ffb600" height="2.6" width="2.6" x="181.5" y="52.5"><title>2020-12-09 654 kCal</title></rect><rect fill="#40ffc8" height="2.6" width="2.6" x="181.5" y="56.0"><title>2020-12-10 395 kCal</title></rect><rect fill="#3dffab" height="2.6" width="2.6" x="181.5" y="59.5"><title>2020-12-11 489 kCal</title></rect><rect fill="#40ffc8" height="2.6" width="2.6" x="181.5" y="63.0"><title>2020-12-12 394 kCal</title></rect><rect fill="#3effb6" height="2.6" width="2.6" x="181.5" y="66.5"><title>2020-12-13 455 kCal</title></rect><rect fill="#3effb5" height="2.6" width="2.6" x="185.0" y="45.5"><title>2020-12-14 456 kCal</title></rect><rect fill="#44ffe6" height="2.6" width="2.6" x="185.0" y="49.0"><title>2020-12-15 292 kCal</title></rect><rect fill="red" height="2.6" width="2.6" x="185.0" y="52.5"><title>2020-12-16 991 kCal</title></rect><rect fill="#ffad00" height="2.6" width="2.6" x="185.0" y="56.0"><title>2020-12-17 722 kCal</title></rect><rect fill="#ffb000" height="2.6" width="2.6" x="185.0" y="59.5"><title>2020-12-18 699 kCal</title></rect><rect fill="red" height="2.6" width="2.6" x="185.0" y="63.0"><title>2020-12-19 933 kCal</title></rect><rect fill="#ffa500" height="2.6" width="2.6" x="185.0" y="66.5"><title>2020-12-20 792 kCal</title></rect><rect fill="#ffa500" height="2.6" width="2.6" x="188.5" y="45.5"><title>2020-12-21 790 kCal</title></rect><rect fill="#4be0ff" height="2.6" width="2.6" x="188.5" y="49.0"><title>2020-12-22 94 kCal</title></rect><rect fill="#444444" height="2.6" width="2.6" x="188.5" y="52.5"><title>2020-12-23</title></rect><rect fill="#444444" height="2.6" width="2.6" x="188.5" y="56.0"><title>2020-12-24</title></rect><rect fill="#444444" height="2.6" width="2.6" x="188.5" y="59.5"><title>2020-12-25</title></rect><rect fill="#46fff8" height="2.6" width="2.6" x="188.5" y="63.0"><title>2020-12-26 230 kCal</title></rect><rect fill="#444444" height="2.6" width="2.6" x="188.5" y="66.5"><title>2020-12-27</title></rect><rect fill="#444444" height="2.6" width="2.6" x="192.0" y="45.5"><title>2020-12-28</title></rect><rect fill="#444444" height="2.6" width="2.6" x="192.0" y="49.0"><title>2020-12-29</title></rect><rect fill="#444444" height="2.6" width="2.6" x="192.0" y="52.5"><title>2020-12-30</title></rect><rect fill="#444444" height="2.6" width="2.6" x="192.0" y="56.0"><title>2020-12-31</title></rect></svg>