<?xml version="1.0" encoding="utf-8" ?>
<svg baseProfile="full" height="78mm" version="1.1" viewBox="0,0,200,78" width="200mm" xmlns="http://www.w3.org/2000/svg" xmlns:ev="http://www.w3.org/2001/xml-events" xmlns:xlink="http://www.w3.org/1999/xlink"><defs /><rect fill="#222222" height="78" width="200" x="0" y="0" /><text fill="#FFFFFF" style="font-size:12px; font-family:Arial; font-weight:bold;" x="10" y="20">rip-tyang apple_health</text><text dominant-baseline="hanging" fill="#FFFFFF" style="font-size:10.0px; font-family:Arial;" x="10" y="30">2018</text><text dominant-baseline="hanging" fill="#FFFFFF" style="font-size:4.125px; font-family:Arial;" x="175" y="35">240926 kCal</text><text fill="#FFFFFF" style="font-size:2.5px; font-family:Arial" x="10.0" y="44">Jan</text><text fill="#FFFFFF" style="font-size:2.5px; font-family:Arial" x="25.5" y="44">Feb</text><text fill="#FFFFFF" style="font-size:2.5px; font-family:Arial" x="41.0" y="44">Mar</text><text fill="#FFFFFF" style="font-size:2.5px; font-family:Arial" x="56.5" y="44">Apr</text><text fill="#FFFFFF" style="font-size:2.5px; font-family:Arial" x="72.0" y="44">May</text><text fill="#FFFFFF" style="font-size:2.5px; font-family:Arial" x="87.5" y="44">Jun</text><text fill="#FFFFFF" style="font-size:2.5px; font-family:Arial" x="103.0" y="44">Jul</text><text fill="#FFFFFF" style="font-size:2.5px; font-family:Arial" x="118.5" y="44">Aug</text><text fill="#FFFFFF" style="font-size:2.5px; font-family:Arial" x="134.0" y="44">Sep</text><text fill="#FFFFFF" style="font-size:2.5px; font-family:Arial" x="149.5" y="44">Oct</text><text fill="#FFFFFF" style="font-size:2.5px; font-family:Arial" x="165.0" y="44">Nov</text><text fill="#FFFFFF" style="font-size:2.5px; font-family:Arial" x="180.5" y="44">Dec</text><rect fill="#47fffb" height="2.6" width="2.6" x="10.0" y="45.5"><title>2018-01-01 364.9930000000001 kCal</title></rect><rect fill="#ffda00" height="2.6" width="2.6" x="10.0" y="49.0"><title>2018-01-02 632.418 kCal</title></rect><rect fill="#46fff3" height="2.6" width="2.6" x="10.0" y="52.5"><title>2018-01-03 422.54800000000006 kCal</title></rect><rect fill="#4be3ff" height="2.6" width="2.6" x="10.0" y="56.0"><title>2018-01-04 133.66899999999993 kCal</title></rect><rect fill="#ffde00" height="2.6" width="2.6" x="10.0" y="59.5"><title>2018-01-05 557.670999999999 kCal</title></rect><rect fill="#49f1ff" height="2.6" width="2.6" x="10.0" y="63.0"><title>2018-01-06 236.54399999999993 kCal</title></rect><rect fill="#4cdaff" height="2.6" width="2.6" x="10.0" y="66.5"><title>2018-01-07 64.57800000000002 kCal</title></rect><rect fill="#ffd600" height="2.6" width="2.6" x="13.5" y="45.5"><title>2018-01-08 699.9560000000015 kCal</title></rect><rect fill="#44ffe8" height="2.6" width="2.6" x="13.5" y="49.0"><title>2018-01-09 506.92299999999983 kCal</title></rect><rect fill="#4be2ff" height="2.6" width="2.6" x="13.5" y="52.5"><title>2018-01-10 121.94999999999999 kCal</title></rect><rect fill="#45fff2" height="2.6" width="2.6" x="13.5" y="56.0"><title>2018-01-11 432.26800000000026 kCal</title></rect><rect fill="#ffdd00" height="2.6" width="2.6" x="13.5" y="59.5"><title>2018-01-12 578.4299999999998 kCal</title></rect><rect fill="#4ae9ff" height="2.6" width="2.6" x="13.5" y="63.0"><title>2018-01-13 173.75100000000003 kCal</title></rect><rect fill="red" height="2.6" width="2.6" x="13.5" y="66.5"><title>2018-01-14 1133.7676000000001 kCal</title></rect><rect fill="#47feff" height="2.6" width="2.6" x="17.0" y="45.5"><title>2018-01-15 335.0969999999993 kCal</title></rect><rect fill="red" height="2.6" width="2.6" x="17.0" y="49.0"><title>2018-01-16 1388.4020000000085 kCal</title></rect><rect fill="#ffde00" height="2.6" width="2.6" x="17.0" y="52.5"><title>2018-01-17 564.7389999999996 kCal</title></rect><rect fill="red" height="2.6" width="2.6" x="17.0" y="56.0"><title>2018-01-18 1014.9540000000023 kCal</title></rect><rect fill="#45ffed" height="2.6" width="2.6" x="17.0" y="59.5"><title>2018-01-19 472.09800000000007 kCal</title></rect><rect fill="red" height="2.6" width="2.6" x="17.0" y="63.0"><title>2018-01-20 2069.9300000000007 kCal</title></rect><rect fill="#ffd600" height="2.6" width="2.6" x="17.0" y="66.5"><title>2018-01-21 697.1899999999988 kCal</title></rect><rect fill="#ffdc00" height="2.6" width="2.6" x="20.5" y="45.5"><title>2018-01-22 601.4009999999995 kCal</title></rect><rect fill="#ffdb00" height="2.6" width="2.6" x="20.5" y="49.0"><title>2018-01-23 608.5399999999996 kCal</title></rect><rect fill="#43ffe1" height="2.6" width="2.6" x="20.5" y="52.5"><title>2018-01-24 550.0079999999998 kCal</title></rect><rect fill="#ffde00" height="2.6" width="2.6" x="20.5" y="56.0"><title>2018-01-25 562.7319999999994 kCal</title></rect><rect fill="#ffd500" height="2.6" width="2.6" x="20.5" y="59.5"><title>2018-01-26 723.4220000000005 kCal</title></rect><rect fill="#44ffeb" height="2.6" width="2.6" x="20.5" y="63.0"><title>2018-01-27 481.9210000000008 kCal</title></rect><rect fill="#45ffef" height="2.6" width="2.6" x="20.5" y="66.5"><title>2018-01-28 452.03600000000006 kCal</title></rect><rect fill="#ffd900" height="2.6" width="2.6" x="24.0" y="45.5"><title>2018-01-29 642.6899999999997 kCal</title></rect><rect fill="red" height="2.6" width="2.6" x="24.0" y="49.0"><title>2018-01-30 883.8069999999998 kCal</title></rect><rect fill="#43ffe2" height="2.6" width="2.6" x="24.0" y="52.5"><title>2018-01-31 545.6840000000003 kCal</title></rect><rect fill="red" height="2.6" width="2.6" x="24.0" y="56.0"><title>2018-02-01 1112.2529999999974 kCal</title></rect><rect fill="#45ffed" height="2.6" width="2.6" x="24.0" y="59.5"><title>2018-02-02 466.25800000000044 kCal</title></rect><rect fill="red" height="2.6" width="2.6" x="24.0" y="63.0"><title>2018-02-03 1938.0456700000093 kCal</title></rect><rect fill="red" height="2.6" width="2.6" x="24.0" y="66.5"><title>2018-02-04 1636.4275000000007 kCal</title></rect><rect fill="#44ffe7" height="2.6" width="2.6" x="27.5" y="45.5"><title>2018-02-05 513.1509999999988 kCal</title></rect><rect fill="#ffd900" height="2.6" width="2.6" x="27.5" y="49.0"><title>2018-02-06 645.666000000002 kCal</title></rect><rect fill="#ffdb00" height="2.6" width="2.6" x="27.5" y="52.5"><title>2018-02-07 610.1349999999998 kCal</title></rect><rect fill="#45ffee" height="2.6" width="2.6" x="27.5" y="56.0"><title>2018-02-08 461.6300000000001 kCal</title></rect><rect fill="#46fff9" height="2.6" width="2.6" x="27.5" y="59.5"><title>2018-02-09 381.0959999999997 kCal</title></rect><rect fill="#47ffff" height="2.6" width="2.6" x="27.5" y="63.0"><title>2018-02-10 341.1320000000002 kCal</title></rect><rect fill="#48f8ff" height="2.6" width="2.6" x="27.5" y="66.5"><title>2018-02-11 285.30600000000027 kCal</title></rect><rect fill="#4aebff" height="2.6" width="2.6" x="31.0" y="45.5"><title>2018-02-12 193.65000000000003 kCal</title></rect><rect fill="red" height="2.6" width="2.6" x="31.0" y="49.0"><title>2018-02-13 907.0079999999996 kCal</title></rect><rect fill="#ffd800" height="2.6" width="2.6" x="31.0" y="52.5"><title>2018-02-14 673.4700000000005 kCal</title></rect><rect fill="#ffdd00" height="2.6" width="2.6" x="31.0" y="56.0"><title>2018-02-15 583.1520000000003 kCal</title></rect><rect fill="#ffd800" height="2.6" width="2.6" x="31.0" y="59.5"><title>2018-02-16 664.9160000000003 kCal</title></rect><rect fill="red" height="2.6" width="2.6" x="31.0" y="63.0"><title>2018-02-17 1327.0548000000001 kCal</title></rect><rect fill="red" height="2.6" width="2.6" x="31.0" y="66.5"><title>2018-02-18 1371.8410000000006 kCal</title></rect><rect fill="#ffdd00" height="2.6" width="2.6" x="34.5" y="45.5"><title>2018-02-19 578.3490000000005 kCal</title></rect><rect fill="#44ffe5" height="2.6" width="2.6" x="34.5" y="49.0"><title>2018-02-20 527.7939999999996 kCal</title></rect><rect fill="#ffdd00" height="2.6" width="2.6" x="34.5" y="52.5"><title>2018-02-21 580.7779999999998 kCal</title></rect><rect fill="red" height="2.6" width="2.6" x="34.5" y="56.0"><title>2018-02-22 2726.151999999998 kCal</title></rect><rect fill="#44ffe9" height="2.6" width="2.6" x="34.5" y="59.5"><title>2018-02-23 498.22200000000004 kCal</title></rect><rect fill="#45fff3" height="2.6" width="2.6" x="34.5" y="63.0"><title>2018-02-24 427.4730000000003 kCal</title></rect><rect fill="red" height="2.6" width="2.6" x="34.5" y="66.5"><title>2018-02-25 905.1319999999984 kCal</title></rect><rect fill="#44ffe5" height="2.6" width="2.6" x="38.0" y="45.5"><title>2018-02-26 524.7899999999995 kCal</title></rect><rect fill="#43ffe1" height="2.6" width="2.6" x="38.0" y="49.0"><title>2018-02-27 551.2210000000002 kCal</title></rect><rect fill="#45ffee" height="2.6" width="2.6" x="38.0" y="52.5"><title>2018-02-28 458.2910000000002 kCal</title></rect><rect fill="#45ffee" height="2.6" width="2.6" x="38.0" y="56.0"><title>2018-03-01 461.2700000000001 kCal</title></rect><rect fill="#4cd8ff" height="2.6" width="2.6" x="38.0" y="59.5"><title>2018-03-02 47.068999999999974 kCal</title></rect><rect fill="red" height="2.6" width="2.6" x="38.0" y="63.0"><title>2018-03-03 926.5740000000001 kCal</title></rect><rect fill="#47fffe" height="2.6" width="2.6" x="38.0" y="66.5"><title>2018-03-04 346.82199999999983 kCal</title></rect><rect fill="#ffd700" height="2.6" width="2.6" x="41.5" y="45.5"><title>2018-03-05 678.3849999999999 kCal</title></rect><rect fill="#ffdc00" height="2.6" width="2.6" x="41.5" y="49.0"><title>2018-03-06 592.1270000000001 kCal</title></rect><rect fill="#44ffe7" height="2.6" width="2.6" x="41.5" y="52.5"><title>2018-03-07 511.28400000000045 kCal</title></rect><rect fill="#45fff2" height="2.6" width="2.6" x="41.5" y="56.0"><title>2018-03-08 431.3860000000001 kCal</title></rect><rect fill="#43ffe2" height="2.6" width="2.6" x="41.5" y="59.5"><title>2018-03-09 549.2020000000003 kCal</title></rect><rect fill="red" height="2.6" width="2.6" x="41.5" y="63.0"><title>2018-03-10 1261.6192999999996 kCal</title></rect><rect fill="red" height="2.6" width="2.6" x="41.5" y="66.5"><title>2018-03-11 1150.9947000000004 kCal</title></rect><rect fill="#44ffe9" height="2.6" width="2.6" x="45.0" y="45.5"><title>2018-03-12 494.88700000000017 kCal</title></rect><rect fill="#45ffec" height="2.6" width="2.6" x="45.0" y="49.0"><title>2018-03-13 474.6880000000006 kCal</title></rect><rect fill="#45fff0" height="2.6" width="2.6" x="45.0" y="52.5"><title>2018-03-14 446.82299999999987 kCal</title></rect><rect fill="#45fff0" height="2.6" width="2.6" x="45.0" y="56.0"><title>2018-03-15 444.7779999999999 kCal</title></rect><rect fill="#ffdb00" height="2.6" width="2.6" x="45.0" y="59.5"><title>2018-03-16 622.0090000000004 kCal</title></rect><rect fill="#47fcff" height="2.6" width="2.6" x="45.0" y="63.0"><title>2018-03-17 317.9629999999997 kCal</title></rect><rect fill="#48fbff" height="2.6" width="2.6" x="45.0" y="66.5"><title>2018-03-18 307.82899999999984 kCal</title></rect><rect fill="#44ffe8" height="2.6" width="2.6" x="48.5" y="45.5"><title>2018-03-19 506.1590000000001 kCal</title></rect><rect fill="#ffd800" height="2.6" width="2.6" x="48.5" y="49.0"><title>2018-03-20 658.5100000000003 kCal</title></rect><rect fill="#44ffe4" height="2.6" width="2.6" x="48.5" y="52.5"><title>2018-03-21 534.8199999999998 kCal</title></rect><rect fill="#ffdd00" height="2.6" width="2.6" x="48.5" y="56.0"><title>2018-03-22 581.2560000000007 kCal</title></rect><rect fill="#ffdb00" height="2.6" width="2.6" x="48.5" y="59.5"><title>2018-03-23 614.811 kCal</title></rect><rect fill="red" height="2.6" width="2.6" x="48.5" y="63.0"><title>2018-03-24 1871.9042000000004 kCal</title></rect><rect fill="red" height="2.6" width="2.6" x="48.5" y="66.5"><title>2018-03-25 1028.4916 kCal</title></rect><rect fill="#ffdd00" height="2.6" width="2.6" x="52.0" y="45.5"><title>2018-03-26 583.0909999999999 kCal</title></rect><rect fill="#ffd900" height="2.6" width="2.6" x="52.0" y="49.0"><title>2018-03-27 655.8190000000005 kCal</title></rect><rect fill="#45ffeb" height="2.6" width="2.6" x="52.0" y="52.5"><title>2018-03-28 479.6499999999999 kCal</title></rect><rect fill="#44ffea" height="2.6" width="2.6" x="52.0" y="56.0"><title>2018-03-29 487.20300000000043 kCal</title></rect><rect fill="red" height="2.6" width="2.6" x="52.0" y="59.5"><title>2018-03-30 789.0489999999995 kCal</title></rect><rect fill="#ffdd00" height="2.6" width="2.6" x="52.0" y="63.0"><title>2018-03-31 574.3890000000002 kCal</title></rect><rect fill="red" height="2.6" width="2.6" x="52.0" y="66.5"><title>2018-04-01 757.3900000000004 kCal</title></rect><rect fill="red" height="2.6" width="2.6" x="55.5" y="45.5"><title>2018-04-02 1196.0820000000008 kCal</title></rect><rect fill="#44ffe7" height="2.6" width="2.6" x="55.5" y="49.0"><title>2018-04-03 507.5129999999999 kCal</title></rect><rect fill="#ffde00" height="2.6" width="2.6" x="55.5" y="52.5"><title>2018-04-04 567.9119999999995 kCal</title></rect><rect fill="#44ffea" height="2.6" width="2.6" x="55.5" y="56.0"><title>2018-04-05 493.0229999999999 kCal</title></rect><rect fill="#44ffea" height="2.6" width="2.6" x="55.5" y="59.5"><title>2018-04-06 486.44600000000077 kCal</title></rect><rect fill="red" height="2.6" width="2.6" x="55.5" y="63.0"><title>2018-04-07 932.1410000000003 kCal</title></rect><rect fill="#45ffec" height="2.6" width="2.6" x="55.5" y="66.5"><title>2018-04-08 475.80400000000094 kCal</title></rect><rect fill="#ffde00" height="2.6" width="2.6" x="59.0" y="45.5"><title>2018-04-09 559.2410000000004 kCal</title></rect><rect fill="#ffdb00" height="2.6" width="2.6" x="59.0" y="49.0"><title>2018-04-10 616.8190000000003 kCal</title></rect><rect fill="#44ffe5" height="2.6" width="2.6" x="59.0" y="52.5"><title>2018-04-11 524.8729999999997 kCal</title></rect><rect fill="red" height="2.6" width="2.6" x="59.0" y="56.0"><title>2018-04-12 760.8170000000044 kCal</title></rect><rect fill="#ffdb00" height="2.6" width="2.6" x="59.0" y="59.5"><title>2018-04-13 618.9190000000006 kCal</title></rect><rect fill="red" height="2.6" width="2.6" x="59.0" y="63.0"><title>2018-04-14 1583.9480000000008 kCal</title></rect><rect fill="red" height="2.6" width="2.6" x="59.0" y="66.5"><title>2018-04-15 1451.118440000001 kCal</title></rect><rect fill="#ffd600" height="2.6" width="2.6" x="62.5" y="45.5"><title>2018-04-16 696.0040000000007 kCal</title></rect><rect fill="red" height="2.6" width="2.6" x="62.5" y="49.0"><title>2018-04-17 982.2140000000003 kCal</title></rect><rect fill="#ffdd00" height="2.6" width="2.6" x="62.5" y="52.5"><title>2018-04-18 574.2440000000008 kCal</title></rect><rect fill="#44ffea" height="2.6" width="2.6" x="62.5" y="56.0"><title>2018-04-19 487.01700000000005 kCal</title></rect><rect fill="#43ffe2" height="2.6" width="2.6" x="62.5" y="59.5"><title>2018-04-20 545.1060000000003 kCal</title></rect><rect fill="#46fff6" height="2.6" width="2.6" x="62.5" y="63.0"><title>2018-04-21 404.85100000000006 kCal</title></rect><rect fill="#45fff2" height="2.6" width="2.6" x="62.5" y="66.5"><title>2018-04-22 435.41700000000037 kCal</title></rect><rect fill="#ffd900" height="2.6" width="2.6" x="66.0" y="45.5"><title>2018-04-23 656.8290000000006 kCal</title></rect><rect fill="#47fffc" height="2.6" width="2.6" x="66.0" y="49.0"><title>2018-04-24 358.8819999999994 kCal</title></rect><rect fill="red" height="2.6" width="2.6" x="66.0" y="52.5"><title>2018-04-25 922.9709999999992 kCal</title></rect><rect fill="#ffd800" height="2.6" width="2.6" x="66.0" y="56.0"><title>2018-04-26 666.5279999999996 kCal</title></rect><rect fill="red" height="2.6" width="2.6" x="66.0" y="59.5"><title>2018-04-27 827.3429999999995 kCal</title></rect><rect fill="red" height="2.6" width="2.6" x="66.0" y="63.0"><title>2018-04-28 929.8189999999992 kCal</title></rect><rect fill="#45fff0" height="2.6" width="2.6" x="66.0" y="66.5"><title>2018-04-29 447.3439999999998 kCal</title></rect><rect fill="#44ffe7" height="2.6" width="2.6" x="69.5" y="45.5"><title>2018-04-30 508.695 kCal</title></rect><rect fill="#44ffe4" height="2.6" width="2.6" x="69.5" y="49.0"><title>2018-05-01 529.438 kCal</title></rect><rect fill="#45fff3" height="2.6" width="2.6" x="69.5" y="52.5"><title>2018-05-02 428.9479999999996 kCal</title></rect><rect fill="#44ffe6" height="2.6" width="2.6" x="69.5" y="56.0"><title>2018-05-03 520.3469999999998 kCal</title></rect><rect fill="#44ffe4" height="2.6" width="2.6" x="69.5" y="59.5"><title>2018-05-04 534.1419999999999 kCal</title></rect><rect fill="#49f1ff" height="2.6" width="2.6" x="69.5" y="63.0"><title>2018-05-05 237.37300000000008 kCal</title></rect><rect fill="red" height="2.6" width="2.6" x="69.5" y="66.5"><title>2018-05-06 1066.067 kCal</title></rect><rect fill="#43ffe1" height="2.6" width="2.6" x="73.0" y="45.5"><title>2018-05-07 553.6900000000005 kCal</title></rect><rect fill="#44ffe7" height="2.6" width="2.6" x="73.0" y="49.0"><title>2018-05-08 508.0470000000003 kCal</title></rect><rect fill="#44ffe7" height="2.6" width="2.6" x="73.0" y="52.5"><title>2018-05-09 510.61799999999994 kCal</title></rect><rect fill="#ffde00" height="2.6" width="2.6" x="73.0" y="56.0"><title>2018-05-10 563.8749999999999 kCal</title></rect><rect fill="#44ffe5" height="2.6" width="2.6" x="73.0" y="59.5"><title>2018-05-11 524.4760000000007 kCal</title></rect><rect fill="#45ffec" height="2.6" width="2.6" x="73.0" y="63.0"><title>2018-05-12 476.38200000000097 kCal</title></rect><rect fill="#44ffe4" height="2.6" width="2.6" x="73.0" y="66.5"><title>2018-05-13 531.6339999999999 kCal</title></rect><rect fill="#ffd400" height="2.6" width="2.6" x="76.5" y="45.5"><title>2018-05-14 728.9500000000003 kCal</title></rect><rect fill="red" height="2.6" width="2.6" x="76.5" y="49.0"><title>2018-05-15 916.0789999999998 kCal</title></rect><rect fill="red" height="2.6" width="2.6" x="76.5" y="52.5"><title>2018-05-16 773.5160000000003 kCal</title></rect><rect fill="red" height="2.6" width="2.6" x="76.5" y="56.0"><title>2018-05-17 797.5040000000007 kCal</title></rect><rect fill="red" height="2.6" width="2.6" x="76.5" y="59.5"><title>2018-05-18 831.3150000000002 kCal</title></rect><rect fill="#48f4ff" height="2.6" width="2.6" x="76.5" y="63.0"><title>2018-05-19 256.5390000000001 kCal</title></rect><rect fill="#44ffe6" height="2.6" width="2.6" x="76.5" y="66.5"><title>2018-05-20 517.3509999999999 kCal</title></rect><rect fill="#44ffe3" height="2.6" width="2.6" x="80.0" y="45.5"><title>2018-05-21 536.205000000001 kCal</title></rect><rect fill="#ffdb00" height="2.6" width="2.6" x="80.0" y="49.0"><title>2018-05-22 609.0309999999994 kCal</title></rect><rect fill="#45fff0" height="2.6" width="2.6" x="80.0" y="52.5"><title>2018-05-23 449.5060000000001 kCal</title></rect><rect fill="#ffd900" height="2.6" width="2.6" x="80.0" y="56.0"><title>2018-05-24 654.1670000000003 kCal</title></rect><rect fill="#ffd400" height="2.6" width="2.6" x="80.0" y="59.5"><title>2018-05-25 732.4360000000005 kCal</title></rect><rect fill="#46fffa" height="2.6" width="2.6" x="80.0" y="63.0"><title>2018-05-26 373.99399999999974 kCal</title></rect><rect fill="#44ffe7" height="2.6" width="2.6" x="80.0" y="66.5"><title>2018-05-27 508.24699999999973 kCal</title></rect><rect fill="#49f3ff" height="2.6" width="2.6" x="83.5" y="45.5"><title>2018-05-28 251.99199999999985 kCal</title></rect><rect fill="#44ffea" height="2.6" width="2.6" x="83.5" y="49.0"><title>2018-05-29 492.9930000000002 kCal</title></rect><rect fill="#ffd900" height="2.6" width="2.6" x="83.5" y="52.5"><title>2018-05-30 656.0170000000006 kCal</title></rect><rect fill="#45ffec" height="2.6" width="2.6" x="83.5" y="56.0"><title>2018-05-31 476.8400000000001 kCal</title></rect><rect fill="red" height="2.6" width="2.6" x="83.5" y="59.5"><title>2018-06-01 946.8800000000011 kCal</title></rect><rect fill="#45ffef" height="2.6" width="2.6" x="83.5" y="63.0"><title>2018-06-02 452.2600000000004 kCal</title></rect><rect fill="#47fffc" height="2.6" width="2.6" x="83.5" y="66.5"><title>2018-06-03 360.48199999999946 kCal</title></rect><rect fill="#44ffe4" height="2.6" width="2.6" x="87.0" y="45.5"><title>2018-06-04 530.2360000000001 kCal</title></rect><rect fill="#ffd900" height="2.6" width="2.6" x="87.0" y="49.0"><title>2018-06-05 648.6470000000007 kCal</title></rect><rect fill="#4cd9ff" height="2.6" width="2.6" x="87.0" y="52.5"><title>2018-06-06 56.87399999999999 kCal</title></rect><rect fill="#ffd400" height="2.6" width="2.6" x="87.0" y="56.0"><title>2018-06-07 732.1570000000007 kCal</title></rect><rect fill="#48f9ff" height="2.6" width="2.6" x="87.0" y="59.5"><title>2018-06-08 292.5509999999997 kCal</title></rect><rect fill="#44ffea" height="2.6" width="2.6" x="87.0" y="63.0"><title>2018-06-09 487.129 kCal</title></rect><rect fill="#45ffed" height="2.6" width="2.6" x="87.0" y="66.5"><title>2018-06-10 470.3260000000001 kCal</title></rect><rect fill="#45ffeb" height="2.6" width="2.6" x="90.5" y="45.5"><title>2018-06-11 480.2550000000001 kCal</title></rect><rect fill="#ffdc00" height="2.6" width="2.6" x="90.5" y="49.0"><title>2018-06-12 595.3629999999988 kCal</title></rect><rect fill="#46fff8" height="2.6" width="2.6" x="90.5" y="52.5"><title>2018-06-13 392.15900000000005 kCal</title></rect><rect fill="#46fff4" height="2.6" width="2.6" x="90.5" y="56.0"><title>2018-06-14 418.2349999999998 kCal</title></rect><rect fill="#444444" height="2.6" width="2.6" x="90.5" y="59.5"><title>2018-06-15</title></rect><rect fill="#444444" height="2.6" width="2.6" x="90.5" y="63.0"><title>2018-06-16</title></rect><rect fill="#4be2ff" height="2.6" width="2.6" x="90.5" y="66.5"><title>2018-06-17 121.53700000000002 kCal</title></rect><rect fill="#45ffed" height="2.6" width="2.6" x="94.0" y="45.5"><title>2018-06-18 468.39500000000004 kCal</title></rect><rect fill="#44ffe5" height="2.6" width="2.6" x="94.0" y="49.0"><title>2018-06-19 526.196 kCal</title></rect><rect fill="#4dd5ff" height="2.6" width="2.6" x="94.0" y="52.5"><title>2018-06-20 28.092999999999993 kCal</title></rect><rect fill="#444444" height="2.6" width="2.6" x="94.0" y="56.0"><title>2018-06-21</title></rect><rect fill="#44ffe9" height="2.6" width="2.6" x="94.0" y="59.5"><title>2018-06-22 495.4409999999991 kCal</title></rect><rect fill="#47fcff" height="2.6" width="2.6" x="94.0" y="63.0"><title>2018-06-23 320.91099999999994 kCal</title></rect><rect fill="#4cd6ff" height="2.6" width="2.6" x="94.0" y="66.5"><title>2018-06-24 33.572 kCal</title></rect><rect fill="#45fff1" height="2.6" width="2.6" x="97.5" y="45.5"><title>2018-06-25 438.54200000000037 kCal</title></rect><rect fill="#46fff5" height="2.6" width="2.6" x="97.5" y="49.0"><title>2018-06-26 413.2609999999998 kCal</title></rect><rect fill="#444444" height="2.6" width="2.6" x="97.5" y="52.5"><title>2018-06-27</title></rect><rect fill="#45ffee" height="2.6" width="2.6" x="97.5" y="56.0"><title>2018-06-28 463.7899999999995 kCal</title></rect><rect fill="#46fffb" height="2.6" width="2.6" x="97.5" y="59.5"><title>2018-06-29 368.93800000000044 kCal</title></rect><rect fill="#4bdeff" height="2.6" width="2.6" x="97.5" y="63.0"><title>2018-06-30 90.89199999999995 kCal</title></rect><rect fill="#47ffff" height="2.6" width="2.6" x="97.5" y="66.5"><title>2018-07-01 337.3730000000001 kCal</title></rect><rect fill="#45ffee" height="2.6" width="2.6" x="101.0" y="45.5"><title>2018-07-02 462.6120000000001 kCal</title></rect><rect fill="#ffd900" height="2.6" width="2.6" x="101.0" y="49.0"><title>2018-07-03 648.5909999999986 kCal</title></rect><rect fill="#4be0ff" height="2.6" width="2.6" x="101.0" y="52.5"><title>2018-07-04 108.57400000000001 kCal</title></rect><rect fill="#4dd2ff" height="2.6" width="2.6" x="101.0" y="56.0"><title>2018-07-05 3.0290000000000004 kCal</title></rect><rect fill="#ffd800" height="2.6" width="2.6" x="101.0" y="59.5"><title>2018-07-06 660.1999999999997 kCal</title></rect><rect fill="#47fffc" height="2.6" width="2.6" x="101.0" y="63.0"><title>2018-07-07 359.61699999999973 kCal</title></rect><rect fill="#44ffe5" height="2.6" width="2.6" x="101.0" y="66.5"><title>2018-07-08 526.7100000000007 kCal</title></rect><rect fill="#44ffe6" height="2.6" width="2.6" x="104.5" y="45.5"><title>2018-07-09 517.8739999999996 kCal</title></rect><rect fill="#44ffe9" height="2.6" width="2.6" x="104.5" y="49.0"><title>2018-07-10 495.7240000000001 kCal</title></rect><rect fill="#4bdfff" height="2.6" width="2.6" x="104.5" y="52.5"><title>2018-07-11 104.68500000000009 kCal</title></rect><rect fill="#44ffe3" height="2.6" width="2.6" x="104.5" y="56.0"><title>2018-07-12 537.0229999999993 kCal</title></rect><rect fill="#44ffe4" height="2.6" width="2.6" x="104.5" y="59.5"><title>2018-07-13 531.3309999999994 kCal</title></rect><rect fill="#46fff5" height="2.6" width="2.6" x="104.5" y="63.0"><title>2018-07-14 414.74699999999984 kCal</title></rect><rect fill="#4bdeff" height="2.6" width="2.6" x="104.5" y="66.5"><title>2018-07-15 95.22199999999994 kCal</title></rect><rect fill="#45ffec" height="2.6" width="2.6" x="108.0" y="45.5"><title>2018-07-16 474.1019999999999 kCal</title></rect><rect fill="#45ffed" height="2.6" width="2.6" x="108.0" y="49.0"><title>2018-07-17 468.7859999999999 kCal</title></rect><rect fill="#44ffe5" height="2.6" width="2.6" x="108.0" y="52.5"><title>2018-07-18 522.1140000000003 kCal</title></rect><rect fill="#45ffed" height="2.6" width="2.6" x="108.0" y="56.0"><title>2018-07-19 469.71300000000014 kCal</title></rect><rect fill="#ffde00" height="2.6" width="2.6" x="108.0" y="59.5"><title>2018-07-20 558.8070000000006 kCal</title></rect><rect fill="#4bdeff" height="2.6" width="2.6" x="108.0" y="63.0"><title>2018-07-21 96.30899999999991 kCal</title></rect><rect fill="#444444" height="2.6" width="2.6" x="108.0" y="66.5"><title>2018-07-22</title></rect><rect fill="#44ffe5" height="2.6" width="2.6" x="111.5" y="45.5"><title>2018-07-23 524.0279999999995 kCal</title></rect><rect fill="#ffda00" height="2.6" width="2.6" x="111.5" y="49.0"><title>2018-07-24 627.8250000000007 kCal</title></rect><rect fill="#45fff3" height="2.6" width="2.6" x="111.5" y="52.5"><title>2018-07-25 428.0159999999991 kCal</title></rect><rect fill="#44ffe5" height="2.6" width="2.6" x="111.5" y="56.0"><title>2018-07-26 524.0529999999995 kCal</title></rect><rect fill="#4cdcff" height="2.6" width="2.6" x="111.5" y="59.5"><title>2018-07-27 77.44600000000001 kCal</title></rect><rect fill="#4cdcff" height="2.6" width="2.6" x="111.5" y="63.0"><title>2018-07-28 81.38999999999992 kCal</title></rect><rect fill="#46fff4" height="2.6" width="2.6" x="111.5" y="66.5"><title>2018-07-29 415.3749999999997 kCal</title></rect><rect fill="#45ffee" height="2.6" width="2.6" x="115.0" y="45.5"><title>2018-07-30 458.021 kCal</title></rect><rect fill="#44ffe9" height="2.6" width="2.6" x="115.0" y="49.0"><title>2018-07-31 493.62199999999945 kCal</title></rect><rect fill="#ffdd00" height="2.6" width="2.6" x="115.0" y="52.5"><title>2018-08-01 586.3370000000004 kCal</title></rect><rect fill="#46fff7" height="2.6" width="2.6" x="115.0" y="56.0"><title>2018-08-02 396.0219999999997 kCal</title></rect><rect fill="#4ae7ff" height="2.6" width="2.6" x="115.0" y="59.5"><title>2018-08-03 161.38700000000017 kCal</title></rect><rect fill="#47fffc" height="2.6" width="2.6" x="115.0" y="63.0"><title>2018-08-04 363.0809999999995 kCal</title></rect><rect fill="#44ffe5" height="2.6" width="2.6" x="115.0" y="66.5"><title>2018-08-05 524.6060000000001 kCal</title></rect><rect fill="#4ae8ff" height="2.6" width="2.6" x="118.5" y="45.5"><title>2018-08-06 169.5840000000002 kCal</title></rect><rect fill="#47fffd" height="2.6" width="2.6" x="118.5" y="49.0"><title>2018-08-07 354.6309999999999 kCal</title></rect><rect fill="#45ffeb" height="2.6" width="2.6" x="118.5" y="52.5"><title>2018-08-08 479.4119999999996 kCal</title></rect><rect fill="#ffda00" height="2.6" width="2.6" x="118.5" y="56.0"><title>2018-08-09 633.7210000000001 kCal</title></rect><rect fill="red" height="2.6" width="2.6" x="118.5" y="59.5"><title>2018-08-10 811.1710000000002 kCal</title></rect><rect fill="#4dd3ff" height="2.6" width="2.6" x="118.5" y="63.0"><title>2018-08-11 10.604999999999999 kCal</title></rect><rect fill="#48f6ff" height="2.6" width="2.6" x="118.5" y="66.5"><title>2018-08-12 276.78100000000035 kCal</title></rect><rect fill="#ffd300" height="2.6" width="2.6" x="122.0" y="45.5"><title>2018-08-13 747.9760000000007 kCal</title></rect><rect fill="#45ffef" height="2.6" width="2.6" x="122.0" y="49.0"><title>2018-08-14 454.30199999999985 kCal</title></rect><rect fill="#45fff2" height="2.6" width="2.6" x="122.0" y="52.5"><title>2018-08-15 433.11300000000034 kCal</title></rect><rect fill="#4cdaff" height="2.6" width="2.6" x="122.0" y="56.0"><title>2018-08-16 61.17699999999998 kCal</title></rect><rect fill="#46fff6" height="2.6" width="2.6" x="122.0" y="59.5"><title>2018-08-17 405.1290000000005 kCal</title></rect><rect fill="#44ffe8" height="2.6" width="2.6" x="122.0" y="63.0"><title>2018-08-18 504.53499999999997 kCal</title></rect><rect fill="#46fff6" height="2.6" width="2.6" x="122.0" y="66.5"><title>2018-08-19 405.5489999999999 kCal</title></rect><rect fill="#4cd6ff" height="2.6" width="2.6" x="125.5" y="45.5"><title>2018-08-20 33.721 kCal</title></rect><rect fill="#49f1ff" height="2.6" width="2.6" x="125.5" y="49.0"><title>2018-08-21 235.60399999999987 kCal</title></rect><rect fill="#44ffe3" height="2.6" width="2.6" x="125.5" y="52.5"><title>2018-08-22 535.671 kCal</title></rect><rect fill="#46fff7" height="2.6" width="2.6" x="125.5" y="56.0"><title>2018-08-23 397.5400000000001 kCal</title></rect><rect fill="#43ffe1" height="2.6" width="2.6" x="125.5" y="59.5"><title>2018-08-24 550.1149999999999 kCal</title></rect><rect fill="#48f9ff" height="2.6" width="2.6" x="125.5" y="63.0"><title>2018-08-25 293.736 kCal</title></rect><rect fill="#46fff4" height="2.6" width="2.6" x="125.5" y="66.5"><title>2018-08-26 417.1539999999999 kCal</title></rect><rect fill="#4bdfff" height="2.6" width="2.6" x="129.0" y="45.5"><title>2018-08-27 104.51900000000003 kCal</title></rect><rect fill="#444444" height="2.6" width="2.6" x="129.0" y="49.0"><title>2018-08-28</title></rect><rect fill="#47fffc" height="2.6" width="2.6" x="129.0" y="52.5"><title>2018-08-29 361.0320000000002 kCal</title></rect><rect fill="#45fff1" height="2.6" width="2.6" x="129.0" y="56.0"><title>2018-08-30 438.24300000000034 kCal</title></rect><rect fill="#45fff2" height="2.6" width="2.6" x="129.0" y="59.5"><title>2018-08-31 429.79200000000026 kCal</title></rect><rect fill="#48f4ff" height="2.6" width="2.6" x="129.0" y="63.0"><title>2018-09-01 259.2949999999997 kCal</title></rect><rect fill="#46fffa" height="2.6" width="2.6" x="129.0" y="66.5"><title>2018-09-02 376.018 kCal</title></rect><rect fill="#45fff0" height="2.6" width="2.6" x="132.5" y="45.5"><title>2018-09-03 447.78900000000044 kCal</title></rect><rect fill="#47fffe" height="2.6" width="2.6" x="132.5" y="49.0"><title>2018-09-04 343.5000000000003 kCal</title></rect><rect fill="#4bdfff" height="2.6" width="2.6" x="132.5" y="52.5"><title>2018-09-05 98.00100000000002 kCal</title></rect><rect fill="#45fff0" height="2.6" width="2.6" x="132.5" y="56.0"><title>2018-09-06 450.02400000000074 kCal</title></rect><rect fill="#44ffe8" height="2.6" width="2.6" x="132.5" y="59.5"><title>2018-09-07 506.2250000000001 kCal</title></rect><rect fill="#ffde00" height="2.6" width="2.6" x="132.5" y="63.0"><title>2018-09-08 559.8130000000002 kCal</title></rect><rect fill="#47fffc" height="2.6" width="2.6" x="132.5" y="66.5"><title>2018-09-09 361.78500000000025 kCal</title></rect><rect fill="red" height="2.6" width="2.6" x="136.0" y="45.5"><title>2018-09-10 851.2830000000006 kCal</title></rect><rect fill="#ffd300" height="2.6" width="2.6" x="136.0" y="49.0"><title>2018-09-11 745.980999999999 kCal</title></rect><rect fill="#46fff4" height="2.6" width="2.6" x="136.0" y="52.5"><title>2018-09-12 417.3679999999999 kCal</title></rect><rect fill="#44ffeb" height="2.6" width="2.6" x="136.0" y="56.0"><title>2018-09-13 482.51200000000046 kCal</title></rect><rect fill="#48f9ff" height="2.6" width="2.6" x="136.0" y="59.5"><title>2018-09-14 295.58199999999977 kCal</title></rect><rect fill="#44ffe4" height="2.6" width="2.6" x="136.0" y="63.0"><title>2018-09-15 535.1310000000003 kCal</title></rect><rect fill="#45ffed" height="2.6" width="2.6" x="136.0" y="66.5"><title>2018-09-16 465.9379999999993 kCal</title></rect><rect fill="#ffd800" height="2.6" width="2.6" x="139.5" y="45.5"><title>2018-09-17 669.855 kCal</title></rect><rect fill="#44ffe4" height="2.6" width="2.6" x="139.5" y="49.0"><title>2018-09-18 534.5029999999998 kCal</title></rect><rect fill="#4cd9ff" height="2.6" width="2.6" x="139.5" y="52.5"><title>2018-09-19 56.176999999999985 kCal</title></rect><rect fill="red" height="2.6" width="2.6" x="139.5" y="56.0"><title>2018-09-20 809.9440000000001 kCal</title></rect><rect fill="#46fff7" height="2.6" width="2.6" x="139.5" y="59.5"><title>2018-09-21 394.74799999999993 kCal</title></rect><rect fill="#46fff9" height="2.6" width="2.6" x="139.5" y="63.0"><title>2018-09-22 383.9270000000001 kCal</title></rect><rect fill="#ffdc00" height="2.6" width="2.6" x="139.5" y="66.5"><title>2018-09-23 600.9720000000001 kCal</title></rect><rect fill="#44ffeb" height="2.6" width="2.6" x="143.0" y="45.5"><title>2018-09-24 483.53000000000003 kCal</title></rect><rect fill="#444444" height="2.6" width="2.6" x="143.0" y="49.0"><title>2018-09-25</title></rect><rect fill="#ffdc00" height="2.6" width="2.6" x="143.0" y="52.5"><title>2018-09-26 603.448 kCal</title></rect><rect fill="#444444" height="2.6" width="2.6" x="143.0" y="56.0"><title>2018-09-27</title></rect><rect fill="#444444" height="2.6" width="2.6" x="143.0" y="59.5"><title>2018-09-28</title></rect><rect fill="#444444" height="2.6" width="2.6" x="143.0" y="63.0"><title>2018-09-29</title></rect><rect fill="#46fff9" height="2.6" width="2.6" x="143.0" y="66.5"><title>2018-09-30 382.34800000000047 kCal</title></rect><rect fill="red" height="2.6" width="2.6" x="146.5" y="45.5"><title>2018-10-01 801.1380000000001 kCal</title></rect><rect fill="#45fff1" height="2.6" width="2.6" x="146.5" y="49.0"><title>2018-10-02 442.6080000000001 kCal</title></rect><rect fill="#45ffef" height="2.6" width="2.6" x="146.5" y="52.5"><title>2018-10-03 453.91000000000014 kCal</title></rect><rect fill="#49f0ff" height="2.6" width="2.6" x="146.5" y="56.0"><title>2018-10-04 227.28900000000024 kCal</title></rect><rect fill="#48faff" height="2.6" width="2.6" x="146.5" y="59.5"><title>2018-10-05 304.931 kCal</title></rect><rect fill="#44ffeb" height="2.6" width="2.6" x="146.5" y="63.0"><title>2018-10-06 485.20000000000044 kCal</title></rect><rect fill="#45ffed" height="2.6" width="2.6" x="146.5" y="66.5"><title>2018-10-07 465.0370000000001 kCal</title></rect><rect fill="#ffd900" height="2.6" width="2.6" x="150.0" y="45.5"><title>2018-10-08 649.6679999999999 kCal</title></rect><rect fill="#ffda00" height="2.6" width="2.6" x="150.0" y="49.0"><title>2018-10-09 633.2660000000002 kCal</title></rect><rect fill="#ffd900" height="2.6" width="2.6" x="150.0" y="52.5"><title>2018-10-10 655.743 kCal</title></rect><rect fill="#ffda00" height="2.6" width="2.6" x="150.0" y="56.0"><title>2018-10-11 631.8539999999996 kCal</title></rect><rect fill="#45ffef" height="2.6" width="2.6" x="150.0" y="59.5"><title>2018-10-12 451.0420000000002 kCal</title></rect><rect fill="red" height="2.6" width="2.6" x="150.0" y="63.0"><title>2018-10-13 858.768 kCal</title></rect><rect fill="#ffd400" height="2.6" width="2.6" x="150.0" y="66.5"><title>2018-10-14 741.196000000001 kCal</title></rect><rect fill="#ffd500" height="2.6" width="2.6" x="153.5" y="45.5"><title>2018-10-15 712.2239999999997 kCal</title></rect><rect fill="red" height="2.6" width="2.6" x="153.5" y="49.0"><title>2018-10-16 1005.7300000000002 kCal</title></rect><rect fill="#44ffe8" height="2.6" width="2.6" x="153.5" y="52.5"><title>2018-10-17 505.6509999999995 kCal</title></rect><rect fill="red" height="2.6" width="2.6" x="153.5" y="56.0"><title>2018-10-18 2163.663000000003 kCal</title></rect><rect fill="red" height="2.6" width="2.6" x="153.5" y="59.5"><title>2018-10-19 1539.5919999999978 kCal</title></rect><rect fill="#44ffe5" height="2.6" width="2.6" x="153.5" y="63.0"><title>2018-10-20 525.08 kCal</title></rect><rect fill="red" height="2.6" width="2.6" x="153.5" y="66.5"><title>2018-10-21 1305.8139999999996 kCal</title></rect><rect fill="red" height="2.6" width="2.6" x="157.0" y="45.5"><title>2018-10-22 1031.964 kCal</title></rect><rect fill="red" height="2.6" width="2.6" x="157.0" y="49.0"><title>2018-10-23 2842.1980000000017 kCal</title></rect><rect fill="#47fffb" height="2.6" width="2.6" x="157.0" y="52.5"><title>2018-10-24 367.76799999999906 kCal</title></rect><rect fill="red" height="2.6" width="2.6" x="157.0" y="56.0"><title>2018-10-25 1685.1739999999995 kCal</title></rect><rect fill="red" height="2.6" width="2.6" x="157.0" y="59.5"><title>2018-10-26 1434.009000000001 kCal</title></rect><rect fill="red" height="2.6" width="2.6" x="157.0" y="63.0"><title>2018-10-27 1666.292999999998 kCal</title></rect><rect fill="red" height="2.6" width="2.6" x="157.0" y="66.5"><title>2018-10-28 1038.717 kCal</title></rect><rect fill="red" height="2.6" width="2.6" x="160.5" y="45.5"><title>2018-10-29 2576.8459999999977 kCal</title></rect><rect fill="red" height="2.6" width="2.6" x="160.5" y="49.0"><title>2018-10-30 1258.427999999999 kCal</title></rect><rect fill="red" height="2.6" width="2.6" x="160.5" y="52.5"><title>2018-10-31 1030.728 kCal</title></rect><rect fill="red" height="2.6" width="2.6" x="160.5" y="56.0"><title>2018-11-01 1772.2290000000012 kCal</title></rect><rect fill="red" height="2.6" width="2.6" x="160.5" y="59.5"><title>2018-11-02 1729.3239999999994 kCal</title></rect><rect fill="red" height="2.6" width="2.6" x="160.5" y="63.0"><title>2018-11-03 938.6689999999996 kCal</title></rect><rect fill="red" height="2.6" width="2.6" x="160.5" y="66.5"><title>2018-11-04 833.8399999999999 kCal</title></rect><rect fill="red" height="2.6" width="2.6" x="164.0" y="45.5"><title>2018-11-05 1040.2649999999996 kCal</title></rect><rect fill="red" height="2.6" width="2.6" x="164.0" y="49.0"><title>2018-11-06 1108.8929999999991 kCal</title></rect><rect fill="red" height="2.6" width="2.6" x="164.0" y="52.5"><title>2018-11-07 1174.2500000000011 kCal</title></rect><rect fill="red" height="2.6" width="2.6" x="164.0" y="56.0"><title>2018-11-08 1760.063000000001 kCal</title></rect><rect fill="#ffdd00" height="2.6" width="2.6" x="164.0" y="59.5"><title>2018-11-09 580.6650000000004 kCal</title></rect><rect fill="red" height="2.6" width="2.6" x="164.0" y="63.0"><title>2018-11-10 1636.8300000000015 kCal</title></rect><rect fill="#ffdd00" height="2.6" width="2.6" x="164.0" y="66.5"><title>2018-11-11 580.4280000000002 kCal</title></rect><rect fill="#ffd600" height="2.6" width="2.6" x="167.5" y="45.5"><title>2018-11-12 698.6910000000003 kCal</title></rect><rect fill="red" height="2.6" width="2.6" x="167.5" y="49.0"><title>2018-11-13 3286.921000000002 kCal</title></rect><rect fill="red" height="2.6" width="2.6" x="167.5" y="52.5"><title>2018-11-14 1160.4310000000005 kCal</title></rect><rect fill="#ffd900" height="2.6" width="2.6" x="167.5" y="56.0"><title>2018-11-15 644.8130000000002 kCal</title></rect><rect fill="red" height="2.6" width="2.6" x="167.5" y="59.5"><title>2018-11-16 1211.2920000000004 kCal</title></rect><rect fill="red" height="2.6" width="2.6" x="167.5" y="63.0"><title>2018-11-17 1140.6390000000001 kCal</title></rect><rect fill="red" height="2.6" width="2.6" x="167.5" y="66.5"><title>2018-11-18 884.529 kCal</title></rect><rect fill="#ffdc00" height="2.6" width="2.6" x="171.0" y="45.5"><title>2018-11-19 600.624 kCal</title></rect><rect fill="#47fcff" height="2.6" width="2.6" x="171.0" y="49.0"><title>2018-11-20 314.6450000000003 kCal</title></rect><rect fill="#47feff" height="2.6" width="2.6" x="171.0" y="52.5"><title>2018-11-21 332.68199999999985 kCal</title></rect><rect fill="red" height="2.6" width="2.6" x="171.0" y="56.0"><title>2018-11-22 870.4440000000025 kCal</title></rect><rect fill="red" height="2.6" width="2.6" x="171.0" y="59.5"><title>2018-11-23 2438.207900000001 kCal</title></rect><rect fill="red" height="2.6" width="2.6" x="171.0" y="63.0"><title>2018-11-24 1271.5756000000006 kCal</title></rect><rect fill="#44ffe4" height="2.6" width="2.6" x="171.0" y="66.5"><title>2018-11-25 528.722 kCal</title></rect><rect fill="red" height="2.6" width="2.6" x="174.5" y="45.5"><title>2018-11-26 1066.5990000000006 kCal</title></rect><rect fill="red" height="2.6" width="2.6" x="174.5" y="49.0"><title>2018-11-27 808.2950000000001 kCal</title></rect><rect fill="red" height="2.6" width="2.6" x="174.5" y="52.5"><title>2018-11-28 981.8720000000002 kCal</title></rect><rect fill="#ffd600" height="2.6" width="2.6" x="174.5" y="56.0"><title>2018-11-29 692.4580000000007 kCal</title></rect><rect fill="red" height="2.6" width="2.6" x="174.5" y="59.5"><title>2018-11-30 796.6630000000007 kCal</title></rect><rect fill="red" height="2.6" width="2.6" x="174.5" y="63.0"><title>2018-12-01 932.9210000000002 kCal</title></rect><rect fill="red" height="2.6" width="2.6" x="174.5" y="66.5"><title>2018-12-02 926.4100000000002 kCal</title></rect><rect fill="red" height="2.6" width="2.6" x="178.0" y="45.5"><title>2018-12-03 1860.3320000000006 kCal</title></rect><rect fill="red" height="2.6" width="2.6" x="178.0" y="49.0"><title>2018-12-04 1330.9569999999994 kCal</title></rect><rect fill="red" height="2.6" width="2.6" x="178.0" y="52.5"><title>2018-12-05 1318.5079999999994 kCal</title></rect><rect fill="#45ffed" height="2.6" width="2.6" x="178.0" y="56.0"><title>2018-12-06 469.3320000000002 kCal</title></rect><rect fill="#ffd900" height="2.6" width="2.6" x="178.0" y="59.5"><title>2018-12-07 653.9050000000003 kCal</title></rect><rect fill="#46fff5" height="2.6" width="2.6" x="178.0" y="63.0"><title>2018-12-08 410.19200000000006 kCal</title></rect><rect fill="red" height="2.6" width="2.6" x="178.0" y="66.5"><title>2018-12-09 1827.274 kCal</title></rect><rect fill="#43ffe2" height="2.6" width="2.6" x="181.5" y="45.5"><title>2018-12-10 545.004000000001 kCal</title></rect><rect fill="#44ffe5" height="2.6" width="2.6" x="181.5" y="49.0"><title>2018-12-11 524.2980000000007 kCal</title></rect><rect fill="#4bddff" height="2.6" width="2.6" x="181.5" y="52.5"><title>2018-12-12 87.43599999999996 kCal</title></rect><rect fill="#44ffea" height="2.6" width="2.6" x="181.5" y="56.0"><title>2018-12-13 486.98600000000005 kCal</title></rect><rect fill="#ffdb00" height="2.6" width="2.6" x="181.5" y="59.5"><title>2018-12-14 609.1390000000006 kCal</title></rect><rect fill="red" height="2.6" width="2.6" x="181.5" y="63.0"><title>2018-12-15 3148.254000000037 kCal</title></rect><rect fill="red" height="2.6" width="2.6" x="181.5" y="66.5"><title>2018-12-16 3142.300000000013 kCal</title></rect><rect fill="#43ffe1" height="2.6" width="2.6" x="185.0" y="45.5"><title>2018-12-17 551.4630000000002 kCal</title></rect><rect fill="#44ffe4" height="2.6" width="2.6" x="185.0" y="49.0"><title>2018-12-18 534.2160000000005 kCal</title></rect><rect fill="#ffd600" height="2.6" width="2.6" x="185.0" y="52.5"><title>2018-12-19 701.4070000000007 kCal</title></rect><rect fill="#ffd500" height="2.6" width="2.6" x="185.0" y="56.0"><title>2018-12-20 722.4839999999999 kCal</title></rect><rect fill="red" height="2.6" width="2.6" x="185.0" y="59.5"><title>2018-12-21 2047.4780000000342 kCal</title></rect><rect fill="red" height="2.6" width="2.6" x="185.0" y="63.0"><title>2018-12-22 2349.4307000000044 kCal</title></rect><rect fill="red" height="2.6" width="2.6" x="185.0" y="66.5"><title>2018-12-23 1643.2661000000007 kCal</title></rect><rect fill="red" height="2.6" width="2.6" x="188.5" y="45.5"><title>2018-12-24 1380.6143200000008 kCal</title></rect><rect fill="red" height="2.6" width="2.6" x="188.5" y="49.0"><title>2018-12-25 1282.7966200000017 kCal</title></rect><rect fill="#ffd500" height="2.6" width="2.6" x="188.5" y="52.5"><title>2018-12-26 711.1220000000003 kCal</title></rect><rect fill="#46fff4" height="2.6" width="2.6" x="188.5" y="56.0"><title>2018-12-27 419.4909999999999 kCal</title></rect><rect fill="#47fffc" height="2.6" width="2.6" x="188.5" y="59.5"><title>2018-12-28 364.17200000000025 kCal</title></rect><rect fill="#ffd300" height="2.6" width="2.6" x="188.5" y="63.0"><title>2018-12-29 755.9709999999999 kCal</title></rect><rect fill="#ffde00" height="2.6" width="2.6" x="188.5" y="66.5"><title>2018-12-30 570.5549999999998 kCal</title></rect><rect fill="#46fff7" height="2.6" width="2.6" x="192.0" y="45.5"><title>2018-12-31 395.51200000000046 kCal</title></rect></svg>