<?xml version="1.0" encoding="utf-8" ?>
<svg baseProfile="full" height="78mm" version="1.1" viewBox="0,0,200,78" width="200mm" xmlns="http://www.w3.org/2000/svg" xmlns:ev="http://www.w3.org/2001/xml-events" xmlns:xlink="http://www.w3.org/1999/xlink"><defs /><rect fill="#222222" height="78" width="200" x="0" y="0" /><text fill="#FFFFFF" style="font-size:12px; font-family:Arial; font-weight:bold;" x="10" y="20">rip-tyang apple_health</text><text dominant-baseline="hanging" fill="#FFFFFF" style="font-size:10.0px; font-family:Arial;" x="10" y="30">2015</text><text dominant-baseline="hanging" fill="#FFFFFF" style="font-size:4.125px; font-family:Arial;" x="175" y="35">128466 kCal</text><text fill="#FFFFFF" style="font-size:2.5px; font-family:Arial" x="10.0" y="44">Jan</text><text fill="#FFFFFF" style="font-size:2.5px; font-family:Arial" x="25.5" y="44">Feb</text><text fill="#FFFFFF" style="font-size:2.5px; font-family:Arial" x="41.0" y="44">Mar</text><text fill="#FFFFFF" style="font-size:2.5px; font-family:Arial" x="56.5" y="44">Apr</text><text fill="#FFFFFF" style="font-size:2.5px; font-family:Arial" x="72.0" y="44">May</text><text fill="#FFFFFF" style="font-size:2.5px; font-family:Arial" x="87.5" y="44">Jun</text><text fill="#FFFFFF" style="font-size:2.5px; font-family:Arial" x="103.0" y="44">Jul</text><text fill="#FFFFFF" style="font-size:2.5px; font-family:Arial" x="118.5" y="44">Aug</text><text fill="#FFFFFF" style="font-size:2.5px; font-family:Arial" x="134.0" y="44">Sep</text><text fill="#FFFFFF" style="font-size:2.5px; font-family:Arial" x="149.5" y="44">Oct</text><text fill="#FFFFFF" style="font-size:2.5px; font-family:Arial" x="165.0" y="44">Nov</text><text fill="#FFFFFF" style="font-size:2.5px; font-family:Arial" x="180.5" y="44">Dec</text><rect fill="#444444" height="2.6" width="2.6" x="10.0" y="45.5"><title>2014-12-29</title></rect><rect fill="#444444" height="2.6" width="2.6" x="10.0" y="49.0"><title>2014-12-30</title></rect><rect fill="#444444" height="2.6" width="2.6" x="10.0" y="52.5"><title>2014-12-31</title></rect><rect fill="#444444" height="2.6" width="2.6" x="10.0" y="56.0"><title>2015-01-01</title></rect><rect fill="#444444" height="2.6" width="2.6" x="10.0" y="59.5"><title>2015-01-02</title></rect><rect fill="#444444" height="2.6" width="2.6" x="10.0" y="63.0"><title>2015-01-03</title></rect><rect fill="#444444" height="2.6" width="2.6" x="10.0" y="66.5"><title>2015-01-04</title></rect><rect fill="#444444" height="2.6" width="2.6" x="13.5" y="45.5"><title>2015-01-05</title></rect><rect fill="#444444" height="2.6" width="2.6" x="13.5" y="49.0"><title>2015-01-06</title></rect><rect fill="#444444" height="2.6" width="2.6" x="13.5" y="52.5"><title>2015-01-07</title></rect><rect fill="#444444" height="2.6" width="2.6" x="13.5" y="56.0"><title>2015-01-08</title></rect><rect fill="#444444" height="2.6" width="2.6" x="13.5" y="59.5"><title>2015-01-09</title></rect><rect fill="#444444" height="2.6" width="2.6" x="13.5" y="63.0"><title>2015-01-10</title></rect><rect fill="#444444" height="2.6" width="2.6" x="13.5" y="66.5"><title>2015-01-11</title></rect><rect fill="#444444" height="2.6" width="2.6" x="17.0" y="45.5"><title>2015-01-12</title></rect><rect fill="#444444" height="2.6" width="2.6" x="17.0" y="49.0"><title>2015-01-13</title></rect><rect fill="#444444" height="2.6" width="2.6" x="17.0" y="52.5"><title>2015-01-14</title></rect><rect fill="#444444" height="2.6" width="2.6" x="17.0" y="56.0"><title>2015-01-15</title></rect><rect fill="#444444" height="2.6" width="2.6" x="17.0" y="59.5"><title>2015-01-16</title></rect><rect fill="#444444" height="2.6" width="2.6" x="17.0" y="63.0"><title>2015-01-17</title></rect><rect fill="#444444" height="2.6" width="2.6" x="17.0" y="66.5"><title>2015-01-18</title></rect><rect fill="#444444" height="2.6" width="2.6" x="20.5" y="45.5"><title>2015-01-19</title></rect><rect fill="#444444" height="2.6" width="2.6" x="20.5" y="49.0"><title>2015-01-20</title></rect><rect fill="#444444" height="2.6" width="2.6" x="20.5" y="52.5"><title>2015-01-21</title></rect><rect fill="#444444" height="2.6" width="2.6" x="20.5" y="56.0"><title>2015-01-22</title></rect><rect fill="#444444" height="2.6" width="2.6" x="20.5" y="59.5"><title>2015-01-23</title></rect><rect fill="#444444" height="2.6" width="2.6" x="20.5" y="63.0"><title>2015-01-24</title></rect><rect fill="#444444" height="2.6" width="2.6" x="20.5" y="66.5"><title>2015-01-25</title></rect><rect fill="#444444" height="2.6" width="2.6" x="24.0" y="45.5"><title>2015-01-26</title></rect><rect fill="#444444" height="2.6" width="2.6" x="24.0" y="49.0"><title>2015-01-27</title></rect><rect fill="#444444" height="2.6" width="2.6" x="24.0" y="52.5"><title>2015-01-28</title></rect><rect fill="#444444" height="2.6" width="2.6" x="24.0" y="56.0"><title>2015-01-29</title></rect><rect fill="#444444" height="2.6" width="2.6" x="24.0" y="59.5"><title>2015-01-30</title></rect><rect fill="#444444" height="2.6" width="2.6" x="24.0" y="63.0"><title>2015-01-31</title></rect><rect fill="#444444" height="2.6" width="2.6" x="24.0" y="66.5"><title>2015-02-01</title></rect><rect fill="#444444" height="2.6" width="2.6" x="27.5" y="45.5"><title>2015-02-02</title></rect><rect fill="#444444" height="2.6" width="2.6" x="27.5" y="49.0"><title>2015-02-03</title></rect><rect fill="#444444" height="2.6" width="2.6" x="27.5" y="52.5"><title>2015-02-04</title></rect><rect fill="#444444" height="2.6" width="2.6" x="27.5" y="56.0"><title>2015-02-05</title></rect><rect fill="#444444" height="2.6" width="2.6" x="27.5" y="59.5"><title>2015-02-06</title></rect><rect fill="#444444" height="2.6" width="2.6" x="27.5" y="63.0"><title>2015-02-07</title></rect><rect fill="#444444" height="2.6" width="2.6" x="27.5" y="66.5"><title>2015-02-08</title></rect><rect fill="#444444" height="2.6" width="2.6" x="31.0" y="45.5"><title>2015-02-09</title></rect><rect fill="#444444" height="2.6" width="2.6" x="31.0" y="49.0"><title>2015-02-10</title></rect><rect fill="#444444" height="2.6" width="2.6" x="31.0" y="52.5"><title>2015-02-11</title></rect><rect fill="#444444" height="2.6" width="2.6" x="31.0" y="56.0"><title>2015-02-12</title></rect><rect fill="#444444" height="2.6" width="2.6" x="31.0" y="59.5"><title>2015-02-13</title></rect><rect fill="#444444" height="2.6" width="2.6" x="31.0" y="63.0"><title>2015-02-14</title></rect><rect fill="#444444" height="2.6" width="2.6" x="31.0" y="66.5"><title>2015-02-15</title></rect><rect fill="#444444" height="2.6" width="2.6" x="34.5" y="45.5"><title>2015-02-16</title></rect><rect fill="#444444" height="2.6" width="2.6" x="34.5" y="49.0"><title>2015-02-17</title></rect><rect fill="#444444" height="2.6" width="2.6" x="34.5" y="52.5"><title>2015-02-18</title></rect><rect fill="#444444" height="2.6" width="2.6" x="34.5" y="56.0"><title>2015-02-19</title></rect><rect fill="#444444" height="2.6" width="2.6" x="34.5" y="59.5"><title>2015-02-20</title></rect><rect fill="#444444" height="2.6" width="2.6" x="34.5" y="63.0"><title>2015-02-21</title></rect><rect fill="#444444" height="2.6" width="2.6" x="34.5" y="66.5"><title>2015-02-22</title></rect><rect fill="#444444" height="2.6" width="2.6" x="38.0" y="45.5"><title>2015-02-23</title></rect><rect fill="#444444" height="2.6" width="2.6" x="38.0" y="49.0"><title>2015-02-24</title></rect><rect fill="#444444" height="2.6" width="2.6" x="38.0" y="52.5"><title>2015-02-25</title></rect><rect fill="#444444" height="2.6" width="2.6" x="38.0" y="56.0"><title>2015-02-26</title></rect><rect fill="#444444" height="2.6" width="2.6" x="38.0" y="59.5"><title>2015-02-27</title></rect><rect fill="#444444" height="2.6" width="2.6" x="38.0" y="63.0"><title>2015-02-28</title></rect><rect fill="#444444" height="2.6" width="2.6" x="38.0" y="66.5"><title>2015-03-01</title></rect><rect fill="#444444" height="2.6" width="2.6" x="41.5" y="45.5"><title>2015-03-02</title></rect><rect fill="#444444" height="2.6" width="2.6" x="41.5" y="49.0"><title>2015-03-03</title></rect><rect fill="#444444" height="2.6" width="2.6" x="41.5" y="52.5"><title>2015-03-04</title></rect><rect fill="#444444" height="2.6" width="2.6" x="41.5" y="56.0"><title>2015-03-05</title></rect><rect fill="#444444" height="2.6" width="2.6" x="41.5" y="59.5"><title>2015-03-06</title></rect><rect fill="#444444" height="2.6" width="2.6" x="41.5" y="63.0"><title>2015-03-07</title></rect><rect fill="#444444" height="2.6" width="2.6" x="41.5" y="66.5"><title>2015-03-08</title></rect><rect fill="#444444" height="2.6" width="2.6" x="45.0" y="45.5"><title>2015-03-09</title></rect><rect fill="#444444" height="2.6" width="2.6" x="45.0" y="49.0"><title>2015-03-10</title></rect><rect fill="#444444" height="2.6" width="2.6" x="45.0" y="52.5"><title>2015-03-11</title></rect><rect fill="#444444" height="2.6" width="2.6" x="45.0" y="56.0"><title>2015-03-12</title></rect><rect fill="#444444" height="2.6" width="2.6" x="45.0" y="59.5"><title>2015-03-13</title></rect><rect fill="#444444" height="2.6" width="2.6" x="45.0" y="63.0"><title>2015-03-14</title></rect><rect fill="#444444" height="2.6" width="2.6" x="45.0" y="66.5"><title>2015-03-15</title></rect><rect fill="#444444" height="2.6" width="2.6" x="48.5" y="45.5"><title>2015-03-16</title></rect><rect fill="#444444" height="2.6" width="2.6" x="48.5" y="49.0"><title>2015-03-17</title></rect><rect fill="#444444" height="2.6" width="2.6" x="48.5" y="52.5"><title>2015-03-18</title></rect><rect fill="#444444" height="2.6" width="2.6" x="48.5" y="56.0"><title>2015-03-19</title></rect><rect fill="#444444" height="2.6" width="2.6" x="48.5" y="59.5"><title>2015-03-20</title></rect><rect fill="#444444" height="2.6" width="2.6" x="48.5" y="63.0"><title>2015-03-21</title></rect><rect fill="#444444" height="2.6" width="2.6" x="48.5" y="66.5"><title>2015-03-22</title></rect><rect fill="#444444" height="2.6" width="2.6" x="52.0" y="45.5"><title>2015-03-23</title></rect><rect fill="#444444" height="2.6" width="2.6" x="52.0" y="49.0"><title>2015-03-24</title></rect><rect fill="#444444" height="2.6" width="2.6" x="52.0" y="52.5"><title>2015-03-25</title></rect><rect fill="#444444" height="2.6" width="2.6" x="52.0" y="56.0"><title>2015-03-26</title></rect><rect fill="#444444" height="2.6" width="2.6" x="52.0" y="59.5"><title>2015-03-27</title></rect><rect fill="#444444" height="2.6" width="2.6" x="52.0" y="63.0"><title>2015-03-28</title></rect><rect fill="#444444" height="2.6" width="2.6" x="52.0" y="66.5"><title>2015-03-29</title></rect><rect fill="#444444" height="2.6" width="2.6" x="55.5" y="45.5"><title>2015-03-30</title></rect><rect fill="#444444" height="2.6" width="2.6" x="55.5" y="49.0"><title>2015-03-31</title></rect><rect fill="#444444" height="2.6" width="2.6" x="55.5" y="52.5"><title>2015-04-01</title></rect><rect fill="#444444" height="2.6" width="2.6" x="55.5" y="56.0"><title>2015-04-02</title></rect><rect fill="#444444" height="2.6" width="2.6" x="55.5" y="59.5"><title>2015-04-03</title></rect><rect fill="#444444" height="2.6" width="2.6" x="55.5" y="63.0"><title>2015-04-04</title></rect><rect fill="#444444" height="2.6" width="2.6" x="55.5" y="66.5"><title>2015-04-05</title></rect><rect fill="#444444" height="2.6" width="2.6" x="59.0" y="45.5"><title>2015-04-06</title></rect><rect fill="#444444" height="2.6" width="2.6" x="59.0" y="49.0"><title>2015-04-07</title></rect><rect fill="#444444" height="2.6" width="2.6" x="59.0" y="52.5"><title>2015-04-08</title></rect><rect fill="#444444" height="2.6" width="2.6" x="59.0" y="56.0"><title>2015-04-09</title></rect><rect fill="#444444" height="2.6" width="2.6" x="59.0" y="59.5"><title>2015-04-10</title></rect><rect fill="#444444" height="2.6" width="2.6" x="59.0" y="63.0"><title>2015-04-11</title></rect><rect fill="#444444" height="2.6" width="2.6" x="59.0" y="66.5"><title>2015-04-12</title></rect><rect fill="#444444" height="2.6" width="2.6" x="62.5" y="45.5"><title>2015-04-13</title></rect><rect fill="#444444" height="2.6" width="2.6" x="62.5" y="49.0"><title>2015-04-14</title></rect><rect fill="#444444" height="2.6" width="2.6" x="62.5" y="52.5"><title>2015-04-15</title></rect><rect fill="#444444" height="2.6" width="2.6" x="62.5" y="56.0"><title>2015-04-16</title></rect><rect fill="#444444" height="2.6" width="2.6" x="62.5" y="59.5"><title>2015-04-17</title></rect><rect fill="#444444" height="2.6" width="2.6" x="62.5" y="63.0"><title>2015-04-18</title></rect><rect fill="#444444" height="2.6" width="2.6" x="62.5" y="66.5"><title>2015-04-19</title></rect><rect fill="#444444" height="2.6" width="2.6" x="66.0" y="45.5"><title>2015-04-20</title></rect><rect fill="#444444" height="2.6" width="2.6" x="66.0" y="49.0"><title>2015-04-21</title></rect><rect fill="#444444" height="2.6" width="2.6" x="66.0" y="52.5"><title>2015-04-22</title></rect><rect fill="#444444" height="2.6" width="2.6" x="66.0" y="56.0"><title>2015-04-23</title></rect><rect fill="#444444" height="2.6" width="2.6" x="66.0" y="59.5"><title>2015-04-24</title></rect><rect fill="#444444" height="2.6" width="2.6" x="66.0" y="63.0"><title>2015-04-25</title></rect><rect fill="#444444" height="2.6" width="2.6" x="66.0" y="66.5"><title>2015-04-26</title></rect><rect fill="#444444" height="2.6" width="2.6" x="69.5" y="45.5"><title>2015-04-27</title></rect><rect fill="#444444" height="2.6" width="2.6" x="69.5" y="49.0"><title>2015-04-28</title></rect><rect fill="#444444" height="2.6" width="2.6" x="69.5" y="52.5"><title>2015-04-29</title></rect><rect fill="#444444" height="2.6" width="2.6" x="69.5" y="56.0"><title>2015-04-30</title></rect><rect fill="#444444" height="2.6" width="2.6" x="69.5" y="59.5"><title>2015-05-01</title></rect><rect fill="#444444" height="2.6" width="2.6" x="69.5" y="63.0"><title>2015-05-02</title></rect><rect fill="#444444" height="2.6" width="2.6" x="69.5" y="66.5"><title>2015-05-03</title></rect><rect fill="#444444" height="2.6" width="2.6" x="73.0" y="45.5"><title>2015-05-04</title></rect><rect fill="#444444" height="2.6" width="2.6" x="73.0" y="49.0"><title>2015-05-05</title></rect><rect fill="#444444" height="2.6" width="2.6" x="73.0" y="52.5"><title>2015-05-06</title></rect><rect fill="#444444" height="2.6" width="2.6" x="73.0" y="56.0"><title>2015-05-07</title></rect><rect fill="#444444" height="2.6" width="2.6" x="73.0" y="59.5"><title>2015-05-08</title></rect><rect fill="#444444" height="2.6" width="2.6" x="73.0" y="63.0"><title>2015-05-09</title></rect><rect fill="#444444" height="2.6" width="2.6" x="73.0" y="66.5"><title>2015-05-10</title></rect><rect fill="#444444" height="2.6" width="2.6" x="76.5" y="45.5"><title>2015-05-11</title></rect><rect fill="#444444" height="2.6" width="2.6" x="76.5" y="49.0"><title>2015-05-12</title></rect><rect fill="#444444" height="2.6" width="2.6" x="76.5" y="52.5"><title>2015-05-13</title></rect><rect fill="#444444" height="2.6" width="2.6" x="76.5" y="56.0"><title>2015-05-14</title></rect><rect fill="#444444" height="2.6" width="2.6" x="76.5" y="59.5"><title>2015-05-15</title></rect><rect fill="#444444" height="2.6" width="2.6" x="76.5" y="63.0"><title>2015-05-16</title></rect><rect fill="#444444" height="2.6" width="2.6" x="76.5" y="66.5"><title>2015-05-17</title></rect><rect fill="#444444" height="2.6" width="2.6" x="80.0" y="45.5"><title>2015-05-18</title></rect><rect fill="#444444" height="2.6" width="2.6" x="80.0" y="49.0"><title>2015-05-19</title></rect><rect fill="#444444" height="2.6" width="2.6" x="80.0" y="52.5"><title>2015-05-20</title></rect><rect fill="#444444" height="2.6" width="2.6" x="80.0" y="56.0"><title>2015-05-21</title></rect><rect fill="#444444" height="2.6" width="2.6" x="80.0" y="59.5"><title>2015-05-22</title></rect><rect fill="#444444" height="2.6" width="2.6" x="80.0" y="63.0"><title>2015-05-23</title></rect><rect fill="#444444" height="2.6" width="2.6" x="80.0" y="66.5"><title>2015-05-24</title></rect><rect fill="#444444" height="2.6" width="2.6" x="83.5" y="45.5"><title>2015-05-25</title></rect><rect fill="#444444" height="2.6" width="2.6" x="83.5" y="49.0"><title>2015-05-26</title></rect><rect fill="#444444" height="2.6" width="2.6" x="83.5" y="52.5"><title>2015-05-27</title></rect><rect fill="#444444" height="2.6" width="2.6" x="83.5" y="56.0"><title>2015-05-28</title></rect><rect fill="#444444" height="2.6" width="2.6" x="83.5" y="59.5"><title>2015-05-29</title></rect><rect fill="#444444" height="2.6" width="2.6" x="83.5" y="63.0"><title>2015-05-30</title></rect><rect fill="#444444" height="2.6" width="2.6" x="83.5" y="66.5"><title>2015-05-31</title></rect><rect fill="#444444" height="2.6" width="2.6" x="87.0" y="45.5"><title>2015-06-01</title></rect><rect fill="#444444" height="2.6" width="2.6" x="87.0" y="49.0"><title>2015-06-02</title></rect><rect fill="#444444" height="2.6" width="2.6" x="87.0" y="52.5"><title>2015-06-03</title></rect><rect fill="#444444" height="2.6" width="2.6" x="87.0" y="56.0"><title>2015-06-04</title></rect><rect fill="#444444" height="2.6" width="2.6" x="87.0" y="59.5"><title>2015-06-05</title></rect><rect fill="#4dd2ff" height="2.6" width="2.6" x="87.0" y="63.0"><title>2015-06-06 1 kCal</title></rect><rect fill="#444444" height="2.6" width="2.6" x="87.0" y="66.5"><title>2015-06-07</title></rect><rect fill="#444444" height="2.6" width="2.6" x="90.5" y="45.5"><title>2015-06-08</title></rect><rect fill="#444444" height="2.6" width="2.6" x="90.5" y="49.0"><title>2015-06-09</title></rect><rect fill="#444444" height="2.6" width="2.6" x="90.5" y="52.5"><title>2015-06-10</title></rect><rect fill="#ffdd00" height="2.6" width="2.6" x="90.5" y="56.0"><title>2015-06-11 572 kCal</title></rect><rect fill="#ffd500" height="2.6" width="2.6" x="90.5" y="59.5"><title>2015-06-12 709 kCal</title></rect><rect fill="red" height="2.6" width="2.6" x="90.5" y="63.0"><title>2015-06-13 1111 kCal</title></rect><rect fill="red" height="2.6" width="2.6" x="90.5" y="66.5"><title>2015-06-14 1104 kCal</title></rect><rect fill="red" height="2.6" width="2.6" x="94.0" y="45.5"><title>2015-06-15 962 kCal</title></rect><rect fill="#ffd700" height="2.6" width="2.6" x="94.0" y="49.0"><title>2015-06-16 686 kCal</title></rect><rect fill="#ffd700" height="2.6" width="2.6" x="94.0" y="52.5"><title>2015-06-17 687 kCal</title></rect><rect fill="#44ffe5" height="2.6" width="2.6" x="94.0" y="56.0"><title>2015-06-18 522 kCal</title></rect><rect fill="#49f3ff" height="2.6" width="2.6" x="94.0" y="59.5"><title>2015-06-19 254 kCal</title></rect><rect fill="#ffd200" height="2.6" width="2.6" x="94.0" y="63.0"><title>2015-06-20 768 kCal</title></rect><rect fill="red" height="2.6" width="2.6" x="94.0" y="66.5"><title>2015-06-21 1415 kCal</title></rect><rect fill="#44ffe5" height="2.6" width="2.6" x="97.5" y="45.5"><title>2015-06-22 525 kCal</title></rect><rect fill="red" height="2.6" width="2.6" x="97.5" y="49.0"><title>2015-06-23 2127 kCal</title></rect><rect fill="#ffd900" height="2.6" width="2.6" x="97.5" y="52.5"><title>2015-06-24 653 kCal</title></rect><rect fill="#ffd300" height="2.6" width="2.6" x="97.5" y="56.0"><title>2015-06-25 759 kCal</title></rect><rect fill="#ffd200" height="2.6" width="2.6" x="97.5" y="59.5"><title>2015-06-26 760 kCal</title></rect><rect fill="#ffde00" height="2.6" width="2.6" x="97.5" y="63.0"><title>2015-06-27 568 kCal</title></rect><rect fill="#ffdd00" height="2.6" width="2.6" x="97.5" y="66.5"><title>2015-06-28 585 kCal</title></rect><rect fill="#ffd100" height="2.6" width="2.6" x="101.0" y="45.5"><title>2015-06-29 784 kCal</title></rect><rect fill="red" height="2.6" width="2.6" x="101.0" y="49.0"><title>2015-06-30 951 kCal</title></rect><rect fill="#ffdd00" height="2.6" width="2.6" x="101.0" y="52.5"><title>2015-07-01 578 kCal</title></rect><rect fill="red" height="2.6" width="2.6" x="101.0" y="56.0"><title>2015-07-02 4346 kCal</title></rect><rect fill="#ffd700" height="2.6" width="2.6" x="101.0" y="59.5"><title>2015-07-03 682 kCal</title></rect><rect fill="red" height="2.6" width="2.6" x="101.0" y="63.0"><title>2015-07-04 1240 kCal</title></rect><rect fill="red" height="2.6" width="2.6" x="101.0" y="66.5"><title>2015-07-05 1053 kCal</title></rect><rect fill="red" height="2.6" width="2.6" x="104.5" y="45.5"><title>2015-07-06 1346 kCal</title></rect><rect fill="#44ffea" height="2.6" width="2.6" x="104.5" y="49.0"><title>2015-07-07 488 kCal</title></rect><rect fill="red" height="2.6" width="2.6" x="104.5" y="52.5"><title>2015-07-08 1091 kCal</title></rect><rect fill="#47feff" height="2.6" width="2.6" x="104.5" y="56.0"><title>2015-07-09 332 kCal</title></rect><rect fill="red" height="2.6" width="2.6" x="104.5" y="59.5"><title>2015-07-10 1706 kCal</title></rect><rect fill="#45fff2" height="2.6" width="2.6" x="104.5" y="63.0"><title>2015-07-11 432 kCal</title></rect><rect fill="#44ffe6" height="2.6" width="2.6" x="104.5" y="66.5"><title>2015-07-12 516 kCal</title></rect><rect fill="red" height="2.6" width="2.6" x="108.0" y="45.5"><title>2015-07-13 823 kCal</title></rect><rect fill="red" height="2.6" width="2.6" x="108.0" y="49.0"><title>2015-07-14 3155 kCal</title></rect><rect fill="red" height="2.6" width="2.6" x="108.0" y="52.5"><title>2015-07-15 796 kCal</title></rect><rect fill="#ffd900" height="2.6" width="2.6" x="108.0" y="56.0"><title>2015-07-16 651 kCal</title></rect><rect fill="red" height="2.6" width="2.6" x="108.0" y="59.5"><title>2015-07-17 869 kCal</title></rect><rect fill="red" height="2.6" width="2.6" x="108.0" y="63.0"><title>2015-07-18 938 kCal</title></rect><rect fill="#45fff2" height="2.6" width="2.6" x="108.0" y="66.5"><title>2015-07-19 434 kCal</title></rect><rect fill="#ffda00" height="2.6" width="2.6" x="111.5" y="45.5"><title>2015-07-20 624 kCal</title></rect><rect fill="#44ffe3" height="2.6" width="2.6" x="111.5" y="49.0"><title>2015-07-21 535 kCal</title></rect><rect fill="red" height="2.6" width="2.6" x="111.5" y="52.5"><title>2015-07-22 875 kCal</title></rect><rect fill="#ffda00" height="2.6" width="2.6" x="111.5" y="56.0"><title>2015-07-23 623 kCal</title></rect><rect fill="#45ffed" height="2.6" width="2.6" x="111.5" y="59.5"><title>2015-07-24 470 kCal</title></rect><rect fill="red" height="2.6" width="2.6" x="111.5" y="63.0"><title>2015-07-25 908 kCal</title></rect><rect fill="red" height="2.6" width="2.6" x="111.5" y="66.5"><title>2015-07-26 969 kCal</title></rect><rect fill="red" height="2.6" width="2.6" x="115.0" y="45.5"><title>2015-07-27 1242 kCal</title></rect><rect fill="red" height="2.6" width="2.6" x="115.0" y="49.0"><title>2015-07-28 984 kCal</title></rect><rect fill="#ffd400" height="2.6" width="2.6" x="115.0" y="52.5"><title>2015-07-29 739 kCal</title></rect><rect fill="red" height="2.6" width="2.6" x="115.0" y="56.0"><title>2015-07-30 1311 kCal</title></rect><rect fill="red" height="2.6" width="2.6" x="115.0" y="59.5"><title>2015-07-31 1178 kCal</title></rect><rect fill="red" height="2.6" width="2.6" x="115.0" y="63.0"><title>2015-08-01 1091 kCal</title></rect><rect fill="red" height="2.6" width="2.6" x="115.0" y="66.5"><title>2015-08-02 1100 kCal</title></rect><rect fill="#ffda00" height="2.6" width="2.6" x="118.5" y="45.5"><title>2015-08-03 639 kCal</title></rect><rect fill="#ffd600" height="2.6" width="2.6" x="118.5" y="49.0"><title>2015-08-04 704 kCal</title></rect><rect fill="red" height="2.6" width="2.6" x="118.5" y="52.5"><title>2015-08-05 881 kCal</title></rect><rect fill="#ffda00" height="2.6" width="2.6" x="118.5" y="56.0"><title>2015-08-06 634 kCal</title></rect><rect fill="#ffdc00" height="2.6" width="2.6" x="118.5" y="59.5"><title>2015-08-07 602 kCal</title></rect><rect fill="#48f7ff" height="2.6" width="2.6" x="118.5" y="63.0"><title>2015-08-08 280 kCal</title></rect><rect fill="#ffd800" height="2.6" width="2.6" x="118.5" y="66.5"><title>2015-08-09 671 kCal</title></rect><rect fill="#48f5ff" height="2.6" width="2.6" x="122.0" y="45.5"><title>2015-08-10 267 kCal</title></rect><rect fill="#48f5ff" height="2.6" width="2.6" x="122.0" y="49.0"><title>2015-08-11 265 kCal</title></rect><rect fill="#44ffe5" height="2.6" width="2.6" x="122.0" y="52.5"><title>2015-08-12 522 kCal</title></rect><rect fill="#49f1ff" height="2.6" width="2.6" x="122.0" y="56.0"><title>2015-08-13 233 kCal</title></rect><rect fill="#ffd600" height="2.6" width="2.6" x="122.0" y="59.5"><title>2015-08-14 701 kCal</title></rect><rect fill="#ffd400" height="2.6" width="2.6" x="122.0" y="63.0"><title>2015-08-15 727 kCal</title></rect><rect fill="#45fff3" height="2.6" width="2.6" x="122.0" y="66.5"><title>2015-08-16 427 kCal</title></rect><rect fill="#44ffe3" height="2.6" width="2.6" x="125.5" y="45.5"><title>2015-08-17 535 kCal</title></rect><rect fill="red" height="2.6" width="2.6" x="125.5" y="49.0"><title>2015-08-18 919 kCal</title></rect><rect fill="#ffd800" height="2.6" width="2.6" x="125.5" y="52.5"><title>2015-08-19 673 kCal</title></rect><rect fill="#ffdf00" height="2.6" width="2.6" x="125.5" y="56.0"><title>2015-08-20 546 kCal</title></rect><rect fill="red" height="2.6" width="2.6" x="125.5" y="59.5"><title>2015-08-21 876 kCal</title></rect><rect fill="#45fff0" height="2.6" width="2.6" x="125.5" y="63.0"><title>2015-08-22 449 kCal</title></rect><rect fill="#ffdf00" height="2.6" width="2.6" x="125.5" y="66.5"><title>2015-08-23 551 kCal</title></rect><rect fill="#ffdf00" height="2.6" width="2.6" x="129.0" y="45.5"><title>2015-08-24 541 kCal</title></rect><rect fill="#45ffef" height="2.6" width="2.6" x="129.0" y="49.0"><title>2015-08-25 455 kCal</title></rect><rect fill="#44ffe8" height="2.6" width="2.6" x="129.0" y="52.5"><title>2015-08-26 506 kCal</title></rect><rect fill="#45ffec" height="2.6" width="2.6" x="129.0" y="56.0"><title>2015-08-27 472 kCal</title></rect><rect fill="#45fff2" height="2.6" width="2.6" x="129.0" y="59.5"><title>2015-08-28 429 kCal</title></rect><rect fill="#46fffa" height="2.6" width="2.6" x="129.0" y="63.0"><title>2015-08-29 378 kCal</title></rect><rect fill="#ffdf00" height="2.6" width="2.6" x="129.0" y="66.5"><title>2015-08-30 554 kCal</title></rect><rect fill="#45fff2" height="2.6" width="2.6" x="132.5" y="45.5"><title>2015-08-31 434 kCal</title></rect><rect fill="#46fff3" height="2.6" width="2.6" x="132.5" y="49.0"><title>2015-09-01 424 kCal</title></rect><rect fill="#45ffee" height="2.6" width="2.6" x="132.5" y="52.5"><title>2015-09-02 458 kCal</title></rect><rect fill="#ffde00" height="2.6" width="2.6" x="132.5" y="56.0"><title>2015-09-03 555 kCal</title></rect><rect fill="#ffdb00" height="2.6" width="2.6" x="132.5" y="59.5"><title>2015-09-04 609 kCal</title></rect><rect fill="#44ffe9" height="2.6" width="2.6" x="132.5" y="63.0"><title>2015-09-05 496 kCal</title></rect><rect fill="#45ffee" height="2.6" width="2.6" x="132.5" y="66.5"><title>2015-09-06 460 kCal</title></rect><rect fill="red" height="2.6" width="2.6" x="136.0" y="45.5"><title>2015-09-07 987 kCal</title></rect><rect fill="#44ffe5" height="2.6" width="2.6" x="136.0" y="49.0"><title>2015-09-08 524 kCal</title></rect><rect fill="#44ffe8" height="2.6" width="2.6" x="136.0" y="52.5"><title>2015-09-09 505 kCal</title></rect><rect fill="#46fff4" height="2.6" width="2.6" x="136.0" y="56.0"><title>2015-09-10 419 kCal</title></rect><rect fill="#44ffeb" height="2.6" width="2.6" x="136.0" y="59.5"><title>2015-09-11 481 kCal</title></rect><rect fill="#45ffec" height="2.6" width="2.6" x="136.0" y="63.0"><title>2015-09-12 476 kCal</title></rect><rect fill="#45fff1" height="2.6" width="2.6" x="136.0" y="66.5"><title>2015-09-13 439 kCal</title></rect><rect fill="#44ffe5" height="2.6" width="2.6" x="139.5" y="45.5"><title>2015-09-14 522 kCal</title></rect><rect fill="#ffd900" height="2.6" width="2.6" x="139.5" y="49.0"><title>2015-09-15 654 kCal</title></rect><rect fill="#44ffe5" height="2.6" width="2.6" x="139.5" y="52.5"><title>2015-09-16 527 kCal</title></rect><rect fill="#44ffe6" height="2.6" width="2.6" x="139.5" y="56.0"><title>2015-09-17 514 kCal</title></rect><rect fill="#ffd600" height="2.6" width="2.6" x="139.5" y="59.5"><title>2015-09-18 698 kCal</title></rect><rect fill="red" height="2.6" width="2.6" x="139.5" y="63.0"><title>2015-09-19 906 kCal</title></rect><rect fill="#ffde00" height="2.6" width="2.6" x="139.5" y="66.5"><title>2015-09-20 558 kCal</title></rect><rect fill="#46fff7" height="2.6" width="2.6" x="143.0" y="45.5"><title>2015-09-21 393 kCal</title></rect><rect fill="#45fff3" height="2.6" width="2.6" x="143.0" y="49.0"><title>2015-09-22 425 kCal</title></rect><rect fill="#ffdd00" height="2.6" width="2.6" x="143.0" y="52.5"><title>2015-09-23 573 kCal</title></rect><rect fill="#45ffed" height="2.6" width="2.6" x="143.0" y="56.0"><title>2015-09-24 470 kCal</title></rect><rect fill="#44ffe9" height="2.6" width="2.6" x="143.0" y="59.5"><title>2015-09-25 494 kCal</title></rect><rect fill="red" height="2.6" width="2.6" x="143.0" y="63.0"><title>2015-09-26 785 kCal</title></rect><rect fill="#45ffed" height="2.6" width="2.6" x="143.0" y="66.5"><title>2015-09-27 466 kCal</title></rect><rect fill="#44ffe6" height="2.6" width="2.6" x="146.5" y="45.5"><title>2015-09-28 514 kCal</title></rect><rect fill="#45fff3" height="2.6" width="2.6" x="146.5" y="49.0"><title>2015-09-29 427 kCal</title></rect><rect fill="#44ffea" height="2.6" width="2.6" x="146.5" y="52.5"><title>2015-09-30 489 kCal</title></rect><rect fill="#45fff3" height="2.6" width="2.6" x="146.5" y="56.0"><title>2015-10-01 425 kCal</title></rect><rect fill="#45ffed" height="2.6" width="2.6" x="146.5" y="59.5"><title>2015-10-02 468 kCal</title></rect><rect fill="#47fdff" height="2.6" width="2.6" x="146.5" y="63.0"><title>2015-10-03 322 kCal</title></rect><rect fill="#46fff6" height="2.6" width="2.6" x="146.5" y="66.5"><title>2015-10-04 403 kCal</title></rect><rect fill="#45ffec" height="2.6" width="2.6" x="150.0" y="45.5"><title>2015-10-05 474 kCal</title></rect><rect fill="#44ffe3" height="2.6" width="2.6" x="150.0" y="49.0"><title>2015-10-06 535 kCal</title></rect><rect fill="#44ffe8" height="2.6" width="2.6" x="150.0" y="52.5"><title>2015-10-07 503 kCal</title></rect><rect fill="#45ffef" height="2.6" width="2.6" x="150.0" y="56.0"><title>2015-10-08 452 kCal</title></rect><rect fill="#ffd200" height="2.6" width="2.6" x="150.0" y="59.5"><title>2015-10-09 776 kCal</title></rect><rect fill="#44ffe4" height="2.6" width="2.6" x="150.0" y="63.0"><title>2015-10-10 532 kCal</title></rect><rect fill="red" height="2.6" width="2.6" x="150.0" y="66.5"><title>2015-10-11 845 kCal</title></rect><rect fill="#43ffe3" height="2.6" width="2.6" x="153.5" y="45.5"><title>2015-10-12 540 kCal</title></rect><rect fill="#ffd300" height="2.6" width="2.6" x="153.5" y="49.0"><title>2015-10-13 757 kCal</title></rect><rect fill="#45fff2" height="2.6" width="2.6" x="153.5" y="52.5"><title>2015-10-14 430 kCal</title></rect><rect fill="#46fff4" height="2.6" width="2.6" x="153.5" y="56.0"><title>2015-10-15 419 kCal</title></rect><rect fill="#46fff8" height="2.6" width="2.6" x="153.5" y="59.5"><title>2015-10-16 392 kCal</title></rect><rect fill="#ffd700" height="2.6" width="2.6" x="153.5" y="63.0"><title>2015-10-17 683 kCal</title></rect><rect fill="#45ffec" height="2.6" width="2.6" x="153.5" y="66.5"><title>2015-10-18 474 kCal</title></rect><rect fill="#47fffd" height="2.6" width="2.6" x="157.0" y="45.5"><title>2015-10-19 354 kCal</title></rect><rect fill="#44ffeb" height="2.6" width="2.6" x="157.0" y="49.0"><title>2015-10-20 482 kCal</title></rect><rect fill="#ffde00" height="2.6" width="2.6" x="157.0" y="52.5"><title>2015-10-21 561 kCal</title></rect><rect fill="#44ffe9" height="2.6" width="2.6" x="157.0" y="56.0"><title>2015-10-22 497 kCal</title></rect><rect fill="#ffdd00" height="2.6" width="2.6" x="157.0" y="59.5"><title>2015-10-23 585 kCal</title></rect><rect fill="#ffd200" height="2.6" width="2.6" x="157.0" y="63.0"><title>2015-10-24 767 kCal</title></rect><rect fill="#44ffe4" height="2.6" width="2.6" x="157.0" y="66.5"><title>2015-10-25 529 kCal</title></rect><rect fill="#44ffe8" height="2.6" width="2.6" x="160.5" y="45.5"><title>2015-10-26 503 kCal</title></rect><rect fill="#44ffe7" height="2.6" width="2.6" x="160.5" y="49.0"><title>2015-10-27 509 kCal</title></rect><rect fill="#48fbff" height="2.6" width="2.6" x="160.5" y="52.5"><title>2015-10-28 307 kCal</title></rect><rect fill="#44ffe5" height="2.6" width="2.6" x="160.5" y="56.0"><title>2015-10-29 522 kCal</title></rect><rect fill="#44ffe9" height="2.6" width="2.6" x="160.5" y="59.5"><title>2015-10-30 498 kCal</title></rect><rect fill="#ffd600" height="2.6" width="2.6" x="160.5" y="63.0"><title>2015-10-31 707 kCal</title></rect><rect fill="#44ffe7" height="2.6" width="2.6" x="160.5" y="66.5"><title>2015-11-01 509 kCal</title></rect><rect fill="#46fff5" height="2.6" width="2.6" x="164.0" y="45.5"><title>2015-11-02 412 kCal</title></rect><rect fill="#44ffe6" height="2.6" width="2.6" x="164.0" y="49.0"><title>2015-11-03 520 kCal</title></rect><rect fill="#44ffe5" height="2.6" width="2.6" x="164.0" y="52.5"><title>2015-11-04 525 kCal</title></rect><rect fill="#46fff4" height="2.6" width="2.6" x="164.0" y="56.0"><title>2015-11-05 420 kCal</title></rect><rect fill="#45ffec" height="2.6" width="2.6" x="164.0" y="59.5"><title>2015-11-06 476 kCal</title></rect><rect fill="#44ffe7" height="2.6" width="2.6" x="164.0" y="63.0"><title>2015-11-07 508 kCal</title></rect><rect fill="#49f3ff" height="2.6" width="2.6" x="164.0" y="66.5"><title>2015-11-08 250 kCal</title></rect><rect fill="#46fff4" height="2.6" width="2.6" x="167.5" y="45.5"><title>2015-11-09 421 kCal</title></rect><rect fill="#46fff4" height="2.6" width="2.6" x="167.5" y="49.0"><title>2015-11-10 421 kCal</title></rect><rect fill="#45fff0" height="2.6" width="2.6" x="167.5" y="52.5"><title>2015-11-11 449 kCal</title></rect><rect fill="#45fff1" height="2.6" width="2.6" x="167.5" y="56.0"><title>2015-11-12 440 kCal</title></rect><rect fill="#ffd500" height="2.6" width="2.6" x="167.5" y="59.5"><title>2015-11-13 709 kCal</title></rect><rect fill="#48faff" height="2.6" width="2.6" x="167.5" y="63.0"><title>2015-11-14 299 kCal</title></rect><rect fill="#46fffb" height="2.6" width="2.6" x="167.5" y="66.5"><title>2015-11-15 368 kCal</title></rect><rect fill="#ffdd00" height="2.6" width="2.6" x="171.0" y="45.5"><title>2015-11-16 586 kCal</title></rect><rect fill="#46fff9" height="2.6" width="2.6" x="171.0" y="49.0"><title>2015-11-17 385 kCal</title></rect><rect fill="#45fff2" height="2.6" width="2.6" x="171.0" y="52.5"><title>2015-11-18 432 kCal</title></rect><rect fill="#43ffe3" height="2.6" width="2.6" x="171.0" y="56.0"><title>2015-11-19 539 kCal</title></rect><rect fill="#45fff0" height="2.6" width="2.6" x="171.0" y="59.5"><title>2015-11-20 446 kCal</title></rect><rect fill="#45ffec" height="2.6" width="2.6" x="171.0" y="63.0"><title>2015-11-21 472 kCal</title></rect><rect fill="#46fff6" height="2.6" width="2.6" x="171.0" y="66.5"><title>2015-11-22 403 kCal</title></rect><rect fill="#46fff8" height="2.6" width="2.6" x="174.5" y="45.5"><title>2015-11-23 389 kCal</title></rect><rect fill="#45ffee" height="2.6" width="2.6" x="174.5" y="49.0"><title>2015-11-24 464 kCal</title></rect><rect fill="red" height="2.6" width="2.6" x="174.5" y="52.5"><title>2015-11-25 989 kCal</title></rect><rect fill="#49efff" height="2.6" width="2.6" x="174.5" y="56.0"><title>2015-11-26 223 kCal</title></rect><rect fill="#44ffe9" height="2.6" width="2.6" x="174.5" y="59.5"><title>2015-11-27 496 kCal</title></rect><rect fill="#46fff7" height="2.6" width="2.6" x="174.5" y="63.0"><title>2015-11-28 399 kCal</title></rect><rect fill="#44ffe8" height="2.6" width="2.6" x="174.5" y="66.5"><title>2015-11-29 504 kCal</title></rect><rect fill="#46fff9" height="2.6" width="2.6" x="178.0" y="45.5"><title>2015-11-30 382 kCal</title></rect><rect fill="#44ffe6" height="2.6" width="2.6" x="178.0" y="49.0"><title>2015-12-01 519 kCal</title></rect><rect fill="#ffda00" height="2.6" width="2.6" x="178.0" y="52.5"><title>2015-12-02 629 kCal</title></rect><rect fill="#46fff7" height="2.6" width="2.6" x="178.0" y="56.0"><title>2015-12-03 394 kCal</title></rect><rect fill="#45ffeb" height="2.6" width="2.6" x="178.0" y="59.5"><title>2015-12-04 480 kCal</title></rect><rect fill="red" height="2.6" width="2.6" x="178.0" y="63.0"><title>2015-12-05 1084 kCal</title></rect><rect fill="#45fff3" height="2.6" width="2.6" x="178.0" y="66.5"><title>2015-12-06 426 kCal</title></rect><rect fill="#44ffe8" height="2.6" width="2.6" x="181.5" y="45.5"><title>2015-12-07 500 kCal</title></rect><rect fill="#49ecff" height="2.6" width="2.6" x="181.5" y="49.0"><title>2015-12-08 200 kCal</title></rect><rect fill="#ffdf00" height="2.6" width="2.6" x="181.5" y="52.5"><title>2015-12-09 547 kCal</title></rect><rect fill="#ffdc00" height="2.6" width="2.6" x="181.5" y="56.0"><title>2015-12-10 594 kCal</title></rect><rect fill="#44ffe7" height="2.6" width="2.6" x="181.5" y="59.5"><title>2015-12-11 507 kCal</title></rect><rect fill="#47fdff" height="2.6" width="2.6" x="181.5" y="63.0"><title>2015-12-12 323 kCal</title></rect><rect fill="#45fff0" height="2.6" width="2.6" x="181.5" y="66.5"><title>2015-12-13 448 kCal</title></rect><rect fill="#46fff4" height="2.6" width="2.6" x="185.0" y="45.5"><title>2015-12-14 415 kCal</title></rect><rect fill="#44ffe9" height="2.6" width="2.6" x="185.0" y="49.0"><title>2015-12-15 499 kCal</title></rect><rect fill="#ffd800" height="2.6" width="2.6" x="185.0" y="52.5"><title>2015-12-16 658 kCal</title></rect><rect fill="#45ffeb" height="2.6" width="2.6" x="185.0" y="56.0"><title>2015-12-17 479 kCal</title></rect><rect fill="#45fff1" height="2.6" width="2.6" x="185.0" y="59.5"><title>2015-12-18 439 kCal</title></rect><rect fill="red" height="2.6" width="2.6" x="185.0" y="63.0"><title>2015-12-19 879 kCal</title></rect><rect fill="#ffdb00" height="2.6" width="2.6" x="185.0" y="66.5"><title>2015-12-20 608 kCal</title></rect><rect fill="#47fffd" height="2.6" width="2.6" x="188.5" y="45.5"><title>2015-12-21 356 kCal</title></rect><rect fill="#ffd700" height="2.6" width="2.6" x="188.5" y="49.0"><title>2015-12-22 688 kCal</title></rect><rect fill="#44ffea" height="2.6" width="2.6" x="188.5" y="52.5"><title>2015-12-23 491 kCal</title></rect><rect fill="#ffdb00" height="2.6" width="2.6" x="188.5" y="56.0"><title>2015-12-24 622 kCal</title></rect><rect fill="#44ffeb" height="2.6" width="2.6" x="188.5" y="59.5"><title>2015-12-25 481 kCal</title></rect><rect fill="#ffd600" height="2.6" width="2.6" x="188.5" y="63.0"><title>2015-12-26 700 kCal</title></rect><rect fill="#46fff6" height="2.6" width="2.6" x="188.5" y="66.5"><title>2015-12-27 406 kCal</title></rect><rect fill="#ffd700" height="2.6" width="2.6" x="192.0" y="45.5"><title>2015-12-28 686 kCal</title></rect><rect fill="#ffdd00" height="2.6" width="2.6" x="192.0" y="49.0"><title>2015-12-29 574 kCal</title></rect><rect fill="#444444" height="2.6" width="2.6" x="192.0" y="52.5"><title>2015-12-30</title></rect><rect fill="#444444" height="2.6" width="2.6" x="192.0" y="56.0"><title>2015-12-31</title></rect></svg>