<?xml version="1.0" encoding="utf-8" ?>
<svg baseProfile="full" height="78mm" version="1.1" viewBox="0,0,200,78" width="200mm" xmlns="http://www.w3.org/2000/svg" xmlns:ev="http://www.w3.org/2001/xml-events" xmlns:xlink="http://www.w3.org/1999/xlink"><defs /><rect fill="#222222" height="78" width="200" x="0" y="0" /><text fill="#FFFFFF" style="font-size:12px; font-family:Arial; font-weight:bold;" x="10" y="20">rip-tyang apple_health</text><text dominant-baseline="hanging" fill="#FFFFFF" style="font-size:10.0px; font-family:Arial;" x="10" y="30">2022</text><text dominant-baseline="hanging" fill="#FFFFFF" style="font-size:4.125px; font-family:Arial;" x="175" y="35">240361 kCal</text><text fill="#FFFFFF" style="font-size:2.5px; font-family:Arial" x="10.0" y="44">Jan</text><text fill="#FFFFFF" style="font-size:2.5px; font-family:Arial" x="25.5" y="44">Feb</text><text fill="#FFFFFF" style="font-size:2.5px; font-family:Arial" x="41.0" y="44">Mar</text><text fill="#FFFFFF" style="font-size:2.5px; font-family:Arial" x="56.5" y="44">Apr</text><text fill="#FFFFFF" style="font-size:2.5px; font-family:Arial" x="72.0" y="44">May</text><text fill="#FFFFFF" style="font-size:2.5px; font-family:Arial" x="87.5" y="44">Jun</text><text fill="#FFFFFF" style="font-size:2.5px; font-family:Arial" x="103.0" y="44">Jul</text><text fill="#FFFFFF" style="font-size:2.5px; font-family:Arial" x="118.5" y="44">Aug</text><text fill="#FFFFFF" style="font-size:2.5px; font-family:Arial" x="134.0" y="44">Sep</text><text fill="#FFFFFF" style="font-size:2.5px; font-family:Arial" x="149.5" y="44">Oct</text><text fill="#FFFFFF" style="font-size:2.5px; font-family:Arial" x="165.0" y="44">Nov</text><text fill="#FFFFFF" style="font-size:2.5px; font-family:Arial" x="180.5" y="44">Dec</text><rect fill="#ffee00" height="2.6" width="2.6" x="10.0" y="45.5"><title>2021-12-27 753.525 kCal</title></rect><rect fill="#4be1ff" height="2.6" width="2.6" x="10.0" y="49.0"><title>2021-12-28 307.91300000000035 kCal</title></rect><rect fill="#4aeaff" height="2.6" width="2.6" x="10.0" y="52.5"><title>2021-12-29 479.1340000000002 kCal</title></rect><rect fill="#4ae7ff" height="2.6" width="2.6" x="10.0" y="56.0"><title>2021-12-30 425.648 kCal</title></rect><rect fill="#4ae8ff" height="2.6" width="2.6" x="10.0" y="59.5"><title>2021-12-31 445.8240000000004 kCal</title></rect><rect fill="#fff200" height="2.6" width="2.6" x="10.0" y="63.0"><title>2022-01-01 589.5169999999993 kCal</title></rect><rect fill="#ffef00" height="2.6" width="2.6" x="10.0" y="66.5"><title>2022-01-02 716.6720000000001 kCal</title></rect><rect fill="#4dd3ff" height="2.6" width="2.6" x="13.5" y="45.5"><title>2022-01-03 29.597999999999995 kCal</title></rect><rect fill="#4ae8ff" height="2.6" width="2.6" x="13.5" y="49.0"><title>2022-01-04 447.28000000000065 kCal</title></rect><rect fill="#4aeaff" height="2.6" width="2.6" x="13.5" y="52.5"><title>2022-01-05 477.96600000000024 kCal</title></rect><rect fill="#4be3ff" height="2.6" width="2.6" x="13.5" y="56.0"><title>2022-01-06 354.3409999999997 kCal</title></rect><rect fill="#4aebff" height="2.6" width="2.6" x="13.5" y="59.5"><title>2022-01-07 496.1240000000008 kCal</title></rect><rect fill="#fff200" height="2.6" width="2.6" x="13.5" y="63.0"><title>2022-01-08 566.6160000000002 kCal</title></rect><rect fill="#fff100" height="2.6" width="2.6" x="13.5" y="66.5"><title>2022-01-09 632.2879999999996 kCal</title></rect><rect fill="#4cdbff" height="2.6" width="2.6" x="17.0" y="45.5"><title>2022-01-10 184.14700000000002 kCal</title></rect><rect fill="#49eeff" height="2.6" width="2.6" x="17.0" y="49.0"><title>2022-01-11 556.3999999999995 kCal</title></rect><rect fill="#4ae6ff" height="2.6" width="2.6" x="17.0" y="52.5"><title>2022-01-12 410.7149999999996 kCal</title></rect><rect fill="#4be4ff" height="2.6" width="2.6" x="17.0" y="56.0"><title>2022-01-13 360.63700000000006 kCal</title></rect><rect fill="#4ae5ff" height="2.6" width="2.6" x="17.0" y="59.5"><title>2022-01-14 389.7049999999999 kCal</title></rect><rect fill="#ffee00" height="2.6" width="2.6" x="17.0" y="63.0"><title>2022-01-15 762.1240000000007 kCal</title></rect><rect fill="#49eeff" height="2.6" width="2.6" x="17.0" y="66.5"><title>2022-01-16 562.8510000000006 kCal</title></rect><rect fill="#4aeaff" height="2.6" width="2.6" x="20.5" y="45.5"><title>2022-01-17 484.12899999999996 kCal</title></rect><rect fill="#4ae6ff" height="2.6" width="2.6" x="20.5" y="49.0"><title>2022-01-18 405.3510000000004 kCal</title></rect><rect fill="#4be4ff" height="2.6" width="2.6" x="20.5" y="52.5"><title>2022-01-19 366.9169999999999 kCal</title></rect><rect fill="#4cd8ff" height="2.6" width="2.6" x="20.5" y="56.0"><title>2022-01-20 120.85800000000006 kCal</title></rect><rect fill="#4be3ff" height="2.6" width="2.6" x="20.5" y="59.5"><title>2022-01-21 336.2419999999997 kCal</title></rect><rect fill="#fff000" height="2.6" width="2.6" x="20.5" y="63.0"><title>2022-01-22 679.7500000000013 kCal</title></rect><rect fill="#49edff" height="2.6" width="2.6" x="20.5" y="66.5"><title>2022-01-23 546.9120000000004 kCal</title></rect><rect fill="#4aecff" height="2.6" width="2.6" x="24.0" y="45.5"><title>2022-01-24 517.5820000000003 kCal</title></rect><rect fill="#4be1ff" height="2.6" width="2.6" x="24.0" y="49.0"><title>2022-01-25 313.86099999999976 kCal</title></rect><rect fill="#4be3ff" height="2.6" width="2.6" x="24.0" y="52.5"><title>2022-01-26 336.8879999999996 kCal</title></rect><rect fill="#4be0ff" height="2.6" width="2.6" x="24.0" y="56.0"><title>2022-01-27 284.5440000000002 kCal</title></rect><rect fill="#4be4ff" height="2.6" width="2.6" x="24.0" y="59.5"><title>2022-01-28 373.70199999999954 kCal</title></rect><rect fill="#fff200" height="2.6" width="2.6" x="24.0" y="63.0"><title>2022-01-29 607.8860000000005 kCal</title></rect><rect fill="#4ae9ff" height="2.6" width="2.6" x="24.0" y="66.5"><title>2022-01-30 472.0350000000003 kCal</title></rect><rect fill="#49ecff" height="2.6" width="2.6" x="27.5" y="45.5"><title>2022-01-31 532.955000000001 kCal</title></rect><rect fill="#4ae6ff" height="2.6" width="2.6" x="27.5" y="49.0"><title>2022-02-01 396.8210000000002 kCal</title></rect><rect fill="#4ae5ff" height="2.6" width="2.6" x="27.5" y="52.5"><title>2022-02-02 387.2060000000002 kCal</title></rect><rect fill="#4ae8ff" height="2.6" width="2.6" x="27.5" y="56.0"><title>2022-02-03 442.88100000000026 kCal</title></rect><rect fill="#fff000" height="2.6" width="2.6" x="27.5" y="59.5"><title>2022-02-04 665.4270000000015 kCal</title></rect><rect fill="#444444" height="2.6" width="2.6" x="27.5" y="63.0"><title>2022-02-05</title></rect><rect fill="#4be4ff" height="2.6" width="2.6" x="27.5" y="66.5"><title>2022-02-06 371.5789999999999 kCal</title></rect><rect fill="#4cd9ff" height="2.6" width="2.6" x="31.0" y="45.5"><title>2022-02-07 135.63800000000003 kCal</title></rect><rect fill="#4aecff" height="2.6" width="2.6" x="31.0" y="49.0"><title>2022-02-08 521.9060000000004 kCal</title></rect><rect fill="#4be2ff" height="2.6" width="2.6" x="31.0" y="52.5"><title>2022-02-09 334.0320000000008 kCal</title></rect><rect fill="#4cd6ff" height="2.6" width="2.6" x="31.0" y="56.0"><title>2022-02-10 77.89499999999998 kCal</title></rect><rect fill="#4ae6ff" height="2.6" width="2.6" x="31.0" y="59.5"><title>2022-02-11 406.3520000000003 kCal</title></rect><rect fill="#4aeaff" height="2.6" width="2.6" x="31.0" y="63.0"><title>2022-02-12 491.331 kCal</title></rect><rect fill="#fff100" height="2.6" width="2.6" x="31.0" y="66.5"><title>2022-02-13 647.032000000001 kCal</title></rect><rect fill="#4ae6ff" height="2.6" width="2.6" x="34.5" y="45.5"><title>2022-02-14 411.3140000000005 kCal</title></rect><rect fill="#4dd5ff" height="2.6" width="2.6" x="34.5" y="49.0"><title>2022-02-15 54.90299999999999 kCal</title></rect><rect fill="#4ae6ff" height="2.6" width="2.6" x="34.5" y="52.5"><title>2022-02-16 401.4040000000002 kCal</title></rect><rect fill="red" height="2.6" width="2.6" x="34.5" y="56.0"><title>2022-02-17 960.3560000000004 kCal</title></rect><rect fill="#fff200" height="2.6" width="2.6" x="34.5" y="59.5"><title>2022-02-18 585.0590000000011 kCal</title></rect><rect fill="red" height="2.6" width="2.6" x="34.5" y="63.0"><title>2022-02-19 1526.7411899999975 kCal</title></rect><rect fill="red" height="2.6" width="2.6" x="34.5" y="66.5"><title>2022-02-20 1568.9159999999947 kCal</title></rect><rect fill="red" height="2.6" width="2.6" x="38.0" y="45.5"><title>2022-02-21 1157.3789999999995 kCal</title></rect><rect fill="#4aebff" height="2.6" width="2.6" x="38.0" y="49.0"><title>2022-02-22 495.99399999999974 kCal</title></rect><rect fill="#4be1ff" height="2.6" width="2.6" x="38.0" y="52.5"><title>2022-02-23 306.79400000000015 kCal</title></rect><rect fill="#fff200" height="2.6" width="2.6" x="38.0" y="56.0"><title>2022-02-24 574.251999999999 kCal</title></rect><rect fill="red" height="2.6" width="2.6" x="38.0" y="59.5"><title>2022-02-25 981.8379999999988 kCal</title></rect><rect fill="red" height="2.6" width="2.6" x="38.0" y="63.0"><title>2022-02-26 2869.8629000000014 kCal</title></rect><rect fill="red" height="2.6" width="2.6" x="38.0" y="66.5"><title>2022-02-27 2616.7946 kCal</title></rect><rect fill="red" height="2.6" width="2.6" x="41.5" y="45.5"><title>2022-02-28 4926.70459999999 kCal</title></rect><rect fill="red" height="2.6" width="2.6" x="41.5" y="49.0"><title>2022-03-01 4549.753600000005 kCal</title></rect><rect fill="#4aecff" height="2.6" width="2.6" x="41.5" y="52.5"><title>2022-03-02 519.8459999999997 kCal</title></rect><rect fill="#4be4ff" height="2.6" width="2.6" x="41.5" y="56.0"><title>2022-03-03 362.49900000000025 kCal</title></rect><rect fill="#4aeaff" height="2.6" width="2.6" x="41.5" y="59.5"><title>2022-03-04 475.71199999999953 kCal</title></rect><rect fill="#fff000" height="2.6" width="2.6" x="41.5" y="63.0"><title>2022-03-05 664.4579999999996 kCal</title></rect><rect fill="#4ae5ff" height="2.6" width="2.6" x="41.5" y="66.5"><title>2022-03-06 394.40500000000037 kCal</title></rect><rect fill="#4be0ff" height="2.6" width="2.6" x="45.0" y="45.5"><title>2022-03-07 288.93700000000047 kCal</title></rect><rect fill="#4cd8ff" height="2.6" width="2.6" x="45.0" y="49.0"><title>2022-03-08 126.276 kCal</title></rect><rect fill="#4be1ff" height="2.6" width="2.6" x="45.0" y="52.5"><title>2022-03-09 302.9770000000002 kCal</title></rect><rect fill="#4bddff" height="2.6" width="2.6" x="45.0" y="56.0"><title>2022-03-10 225.678 kCal</title></rect><rect fill="#fff200" height="2.6" width="2.6" x="45.0" y="59.5"><title>2022-03-11 589.3760000000002 kCal</title></rect><rect fill="red" height="2.6" width="2.6" x="45.0" y="63.0"><title>2022-03-12 1913.5606700000014 kCal</title></rect><rect fill="#ffef00" height="2.6" width="2.6" x="45.0" y="66.5"><title>2022-03-13 712.0430000000001 kCal</title></rect><rect fill="red" height="2.6" width="2.6" x="48.5" y="45.5"><title>2022-03-14 2054.227999999998 kCal</title></rect><rect fill="#fff200" height="2.6" width="2.6" x="48.5" y="49.0"><title>2022-03-15 580.9879999999993 kCal</title></rect><rect fill="#4ae8ff" height="2.6" width="2.6" x="48.5" y="52.5"><title>2022-03-16 449.55500000000063 kCal</title></rect><rect fill="red" height="2.6" width="2.6" x="48.5" y="56.0"><title>2022-03-17 1108.9229999999995 kCal</title></rect><rect fill="red" height="2.6" width="2.6" x="48.5" y="59.5"><title>2022-03-18 1393.6541999999972 kCal</title></rect><rect fill="#4aebff" height="2.6" width="2.6" x="48.5" y="63.0"><title>2022-03-19 508.4639999999997 kCal</title></rect><rect fill="#4be3ff" height="2.6" width="2.6" x="48.5" y="66.5"><title>2022-03-20 340.89800000000014 kCal</title></rect><rect fill="#4be2ff" height="2.6" width="2.6" x="52.0" y="45.5"><title>2022-03-21 327.293 kCal</title></rect><rect fill="#4cdbff" height="2.6" width="2.6" x="52.0" y="49.0"><title>2022-03-22 193.81299999999976 kCal</title></rect><rect fill="#4be4ff" height="2.6" width="2.6" x="52.0" y="52.5"><title>2022-03-23 360.33800000000025 kCal</title></rect><rect fill="#4cd7ff" height="2.6" width="2.6" x="52.0" y="56.0"><title>2022-03-24 96.208 kCal</title></rect><rect fill="#4be4ff" height="2.6" width="2.6" x="52.0" y="59.5"><title>2022-03-25 361.6560000000002 kCal</title></rect><rect fill="#4cdcff" height="2.6" width="2.6" x="52.0" y="63.0"><title>2022-03-26 204.87300000000016 kCal</title></rect><rect fill="#4ae7ff" height="2.6" width="2.6" x="52.0" y="66.5"><title>2022-03-27 421.76699999999977 kCal</title></rect><rect fill="#4ae9ff" height="2.6" width="2.6" x="55.5" y="45.5"><title>2022-03-28 473.851 kCal</title></rect><rect fill="#4be4ff" height="2.6" width="2.6" x="55.5" y="49.0"><title>2022-03-29 366.88899999999984 kCal</title></rect><rect fill="#4dd6ff" height="2.6" width="2.6" x="55.5" y="52.5"><title>2022-03-30 75.69000000000003 kCal</title></rect><rect fill="#fff200" height="2.6" width="2.6" x="55.5" y="56.0"><title>2022-03-31 582.9570000000001 kCal</title></rect><rect fill="#4ae5ff" height="2.6" width="2.6" x="55.5" y="59.5"><title>2022-04-01 380.71400000000045 kCal</title></rect><rect fill="red" height="2.6" width="2.6" x="55.5" y="63.0"><title>2022-04-02 800.7769999999997 kCal</title></rect><rect fill="red" height="2.6" width="2.6" x="55.5" y="66.5"><title>2022-04-03 1251.2460000000024 kCal</title></rect><rect fill="#4cd9ff" height="2.6" width="2.6" x="59.0" y="45.5"><title>2022-04-04 140.448 kCal</title></rect><rect fill="#4ae8ff" height="2.6" width="2.6" x="59.0" y="49.0"><title>2022-04-05 446.01499999999993 kCal</title></rect><rect fill="#4cdbff" height="2.6" width="2.6" x="59.0" y="52.5"><title>2022-04-06 189.4829999999999 kCal</title></rect><rect fill="#4be3ff" height="2.6" width="2.6" x="59.0" y="56.0"><title>2022-04-07 352.4369999999999 kCal</title></rect><rect fill="#4ae7ff" height="2.6" width="2.6" x="59.0" y="59.5"><title>2022-04-08 426.2469999999998 kCal</title></rect><rect fill="#4dd3ff" height="2.6" width="2.6" x="59.0" y="63.0"><title>2022-04-09 31.371000000000002 kCal</title></rect><rect fill="#ffee00" height="2.6" width="2.6" x="59.0" y="66.5"><title>2022-04-10 777.486 kCal</title></rect><rect fill="#4aeaff" height="2.6" width="2.6" x="62.5" y="45.5"><title>2022-04-11 487.7890000000005 kCal</title></rect><rect fill="#4ae7ff" height="2.6" width="2.6" x="62.5" y="49.0"><title>2022-04-12 431.089 kCal</title></rect><rect fill="red" height="2.6" width="2.6" x="62.5" y="52.5"><title>2022-04-13 984.3919999999982 kCal</title></rect><rect fill="#4be2ff" height="2.6" width="2.6" x="62.5" y="56.0"><title>2022-04-14 317.27699999999976 kCal</title></rect><rect fill="#4ae7ff" height="2.6" width="2.6" x="62.5" y="59.5"><title>2022-04-15 419.08 kCal</title></rect><rect fill="#4aebff" height="2.6" width="2.6" x="62.5" y="63.0"><title>2022-04-16 505.9939999999997 kCal</title></rect><rect fill="#ffef00" height="2.6" width="2.6" x="62.5" y="66.5"><title>2022-04-17 704.3460000000007 kCal</title></rect><rect fill="#4bdeff" height="2.6" width="2.6" x="66.0" y="45.5"><title>2022-04-18 252.252 kCal</title></rect><rect fill="#4be0ff" height="2.6" width="2.6" x="66.0" y="49.0"><title>2022-04-19 282.63400000000024 kCal</title></rect><rect fill="#4ae5ff" height="2.6" width="2.6" x="66.0" y="52.5"><title>2022-04-20 382.5260000000002 kCal</title></rect><rect fill="#4ae6ff" height="2.6" width="2.6" x="66.0" y="56.0"><title>2022-04-21 407.03400000000005 kCal</title></rect><rect fill="#4cdaff" height="2.6" width="2.6" x="66.0" y="59.5"><title>2022-04-22 160.27499999999998 kCal</title></rect><rect fill="red" height="2.6" width="2.6" x="66.0" y="63.0"><title>2022-04-23 915.2029999999996 kCal</title></rect><rect fill="#fff200" height="2.6" width="2.6" x="66.0" y="66.5"><title>2022-04-24 604.3729999999991 kCal</title></rect><rect fill="#4ae5ff" height="2.6" width="2.6" x="69.5" y="45.5"><title>2022-04-25 384.99099999999993 kCal</title></rect><rect fill="#4cd9ff" height="2.6" width="2.6" x="69.5" y="49.0"><title>2022-04-26 142.23000000000008 kCal</title></rect><rect fill="#4ae9ff" height="2.6" width="2.6" x="69.5" y="52.5"><title>2022-04-27 459.32699999999994 kCal</title></rect><rect fill="#4be0ff" height="2.6" width="2.6" x="69.5" y="56.0"><title>2022-04-28 283.95400000000006 kCal</title></rect><rect fill="#4ae9ff" height="2.6" width="2.6" x="69.5" y="59.5"><title>2022-04-29 466.80799999999994 kCal</title></rect><rect fill="red" height="2.6" width="2.6" x="69.5" y="63.0"><title>2022-04-30 1247.1780000000003 kCal</title></rect><rect fill="#4be3ff" height="2.6" width="2.6" x="69.5" y="66.5"><title>2022-05-01 343.75399999999985 kCal</title></rect><rect fill="#4ae7ff" height="2.6" width="2.6" x="73.0" y="45.5"><title>2022-05-02 416.79600000000045 kCal</title></rect><rect fill="red" height="2.6" width="2.6" x="73.0" y="49.0"><title>2022-05-03 1704.1850000000009 kCal</title></rect><rect fill="#4ae8ff" height="2.6" width="2.6" x="73.0" y="52.5"><title>2022-05-04 442.88799999999964 kCal</title></rect><rect fill="#4ae6ff" height="2.6" width="2.6" x="73.0" y="56.0"><title>2022-05-05 403.9320000000001 kCal</title></rect><rect fill="#4ae8ff" height="2.6" width="2.6" x="73.0" y="59.5"><title>2022-05-06 452.43399999999986 kCal</title></rect><rect fill="#4be3ff" height="2.6" width="2.6" x="73.0" y="63.0"><title>2022-05-07 344.09300000000013 kCal</title></rect><rect fill="#fff200" height="2.6" width="2.6" x="73.0" y="66.5"><title>2022-05-08 597.5139999999993 kCal</title></rect><rect fill="red" height="2.6" width="2.6" x="76.5" y="45.5"><title>2022-05-09 810.1399999999985 kCal</title></rect><rect fill="#4be1ff" height="2.6" width="2.6" x="76.5" y="49.0"><title>2022-05-10 308.151 kCal</title></rect><rect fill="#4ae9ff" height="2.6" width="2.6" x="76.5" y="52.5"><title>2022-05-11 462.1340000000001 kCal</title></rect><rect fill="#fff000" height="2.6" width="2.6" x="76.5" y="56.0"><title>2022-05-12 657.6889999999995 kCal</title></rect><rect fill="#4be0ff" height="2.6" width="2.6" x="76.5" y="59.5"><title>2022-05-13 293.043 kCal</title></rect><rect fill="#4aebff" height="2.6" width="2.6" x="76.5" y="63.0"><title>2022-05-14 497.0449999999998 kCal</title></rect><rect fill="#49ecff" height="2.6" width="2.6" x="76.5" y="66.5"><title>2022-05-15 525.4639999999996 kCal</title></rect><rect fill="#4ae6ff" height="2.6" width="2.6" x="80.0" y="45.5"><title>2022-05-16 404.66599999999994 kCal</title></rect><rect fill="#4cdcff" height="2.6" width="2.6" x="80.0" y="49.0"><title>2022-05-17 212.4350000000003 kCal</title></rect><rect fill="#4aeaff" height="2.6" width="2.6" x="80.0" y="52.5"><title>2022-05-18 477.0240000000003 kCal</title></rect><rect fill="#4bdeff" height="2.6" width="2.6" x="80.0" y="56.0"><title>2022-05-19 244.34900000000002 kCal</title></rect><rect fill="#4ae6ff" height="2.6" width="2.6" x="80.0" y="59.5"><title>2022-05-20 397.9450000000001 kCal</title></rect><rect fill="red" height="2.6" width="2.6" x="80.0" y="63.0"><title>2022-05-21 905.4719999999999 kCal</title></rect><rect fill="#4cd7ff" height="2.6" width="2.6" x="80.0" y="66.5"><title>2022-05-22 108.07700000000003 kCal</title></rect><rect fill="#4be3ff" height="2.6" width="2.6" x="83.5" y="45.5"><title>2022-05-23 349.49700000000036 kCal</title></rect><rect fill="#49edff" height="2.6" width="2.6" x="83.5" y="49.0"><title>2022-05-24 536.2969999999995 kCal</title></rect><rect fill="#4ae6ff" height="2.6" width="2.6" x="83.5" y="52.5"><title>2022-05-25 403.9100000000001 kCal</title></rect><rect fill="#4ae7ff" height="2.6" width="2.6" x="83.5" y="56.0"><title>2022-05-26 430.3200000000005 kCal</title></rect><rect fill="#4be0ff" height="2.6" width="2.6" x="83.5" y="59.5"><title>2022-05-27 277.4550000000003 kCal</title></rect><rect fill="#fff200" height="2.6" width="2.6" x="83.5" y="63.0"><title>2022-05-28 587.5719999999994 kCal</title></rect><rect fill="#4ae7ff" height="2.6" width="2.6" x="83.5" y="66.5"><title>2022-05-29 416.66699999999975 kCal</title></rect><rect fill="#49ecff" height="2.6" width="2.6" x="87.0" y="45.5"><title>2022-05-30 525.6070000000001 kCal</title></rect><rect fill="#4aebff" height="2.6" width="2.6" x="87.0" y="49.0"><title>2022-05-31 497.94500000000033 kCal</title></rect><rect fill="#4dd5ff" height="2.6" width="2.6" x="87.0" y="52.5"><title>2022-06-01 70.65400000000001 kCal</title></rect><rect fill="#4ae5ff" height="2.6" width="2.6" x="87.0" y="56.0"><title>2022-06-02 381.9000000000001 kCal</title></rect><rect fill="#ffef00" height="2.6" width="2.6" x="87.0" y="59.5"><title>2022-06-03 732.2729999999995 kCal</title></rect><rect fill="#4be3ff" height="2.6" width="2.6" x="87.0" y="63.0"><title>2022-06-04 348.5469999999998 kCal</title></rect><rect fill="#49eeff" height="2.6" width="2.6" x="87.0" y="66.5"><title>2022-06-05 561.3799999999999 kCal</title></rect><rect fill="#4aeaff" height="2.6" width="2.6" x="90.5" y="45.5"><title>2022-06-06 490.1820000000001 kCal</title></rect><rect fill="#4be3ff" height="2.6" width="2.6" x="90.5" y="49.0"><title>2022-06-07 337.95800000000065 kCal</title></rect><rect fill="#4be4ff" height="2.6" width="2.6" x="90.5" y="52.5"><title>2022-06-08 355.72100000000006 kCal</title></rect><rect fill="#fff000" height="2.6" width="2.6" x="90.5" y="56.0"><title>2022-06-09 697.1809999999994 kCal</title></rect><rect fill="#4cd7ff" height="2.6" width="2.6" x="90.5" y="59.5"><title>2022-06-10 110.457 kCal</title></rect><rect fill="#fff100" height="2.6" width="2.6" x="90.5" y="63.0"><title>2022-06-11 617.8580000000001 kCal</title></rect><rect fill="#fff100" height="2.6" width="2.6" x="90.5" y="66.5"><title>2022-06-12 634.3439999999999 kCal</title></rect><rect fill="red" height="2.6" width="2.6" x="94.0" y="45.5"><title>2022-06-13 950.2010000000005 kCal</title></rect><rect fill="#4aebff" height="2.6" width="2.6" x="94.0" y="49.0"><title>2022-06-14 505.6150000000003 kCal</title></rect><rect fill="#fff200" height="2.6" width="2.6" x="94.0" y="52.5"><title>2022-06-15 577.5489999999996 kCal</title></rect><rect fill="#ffee00" height="2.6" width="2.6" x="94.0" y="56.0"><title>2022-06-16 749.1529999999991 kCal</title></rect><rect fill="#4be4ff" height="2.6" width="2.6" x="94.0" y="59.5"><title>2022-06-17 364.7620000000005 kCal</title></rect><rect fill="#fff200" height="2.6" width="2.6" x="94.0" y="63.0"><title>2022-06-18 584.5190000000001 kCal</title></rect><rect fill="#4ae5ff" height="2.6" width="2.6" x="94.0" y="66.5"><title>2022-06-19 383.802 kCal</title></rect><rect fill="#4aeaff" height="2.6" width="2.6" x="97.5" y="45.5"><title>2022-06-20 490.3979999999999 kCal</title></rect><rect fill="#4bdeff" height="2.6" width="2.6" x="97.5" y="49.0"><title>2022-06-21 249.95200000000003 kCal</title></rect><rect fill="#4ae4ff" height="2.6" width="2.6" x="97.5" y="52.5"><title>2022-06-22 374.3380000000002 kCal</title></rect><rect fill="#fff100" height="2.6" width="2.6" x="97.5" y="56.0"><title>2022-06-23 651.2499999999998 kCal</title></rect><rect fill="#4ae4ff" height="2.6" width="2.6" x="97.5" y="59.5"><title>2022-06-24 375.527 kCal</title></rect><rect fill="#fff000" height="2.6" width="2.6" x="97.5" y="63.0"><title>2022-06-25 672.9669999999996 kCal</title></rect><rect fill="#fff000" height="2.6" width="2.6" x="97.5" y="66.5"><title>2022-06-26 666.3419999999988 kCal</title></rect><rect fill="#4cd8ff" height="2.6" width="2.6" x="101.0" y="45.5"><title>2022-06-27 125.17800000000008 kCal</title></rect><rect fill="#4ae9ff" height="2.6" width="2.6" x="101.0" y="49.0"><title>2022-06-28 470.52500000000015 kCal</title></rect><rect fill="#4be0ff" height="2.6" width="2.6" x="101.0" y="52.5"><title>2022-06-29 285.2920000000001 kCal</title></rect><rect fill="#fff200" height="2.6" width="2.6" x="101.0" y="56.0"><title>2022-06-30 568.2389999999994 kCal</title></rect><rect fill="#49edff" height="2.6" width="2.6" x="101.0" y="59.5"><title>2022-07-01 540.2539999999997 kCal</title></rect><rect fill="#fff200" height="2.6" width="2.6" x="101.0" y="63.0"><title>2022-07-02 580.1559999999987 kCal</title></rect><rect fill="red" height="2.6" width="2.6" x="101.0" y="66.5"><title>2022-07-03 996.0939999999999 kCal</title></rect><rect fill="#4be1ff" height="2.6" width="2.6" x="104.5" y="45.5"><title>2022-07-04 308.0060000000004 kCal</title></rect><rect fill="#4ae8ff" height="2.6" width="2.6" x="104.5" y="49.0"><title>2022-07-05 437.6770000000002 kCal</title></rect><rect fill="#4bddff" height="2.6" width="2.6" x="104.5" y="52.5"><title>2022-07-06 230.5039999999998 kCal</title></rect><rect fill="#4ae7ff" height="2.6" width="2.6" x="104.5" y="56.0"><title>2022-07-07 427.60099999999903 kCal</title></rect><rect fill="#4ae7ff" height="2.6" width="2.6" x="104.5" y="59.5"><title>2022-07-08 416.902 kCal</title></rect><rect fill="#4be1ff" height="2.6" width="2.6" x="104.5" y="63.0"><title>2022-07-09 307.3489999999999 kCal</title></rect><rect fill="#fff000" height="2.6" width="2.6" x="104.5" y="66.5"><title>2022-07-10 675.7529999999999 kCal</title></rect><rect fill="#4ae9ff" height="2.6" width="2.6" x="108.0" y="45.5"><title>2022-07-11 470.246 kCal</title></rect><rect fill="#49edff" height="2.6" width="2.6" x="108.0" y="49.0"><title>2022-07-12 537.7449999999994 kCal</title></rect><rect fill="#fff100" height="2.6" width="2.6" x="108.0" y="52.5"><title>2022-07-13 625.0089999999999 kCal</title></rect><rect fill="#49ecff" height="2.6" width="2.6" x="108.0" y="56.0"><title>2022-07-14 529.3439999999993 kCal</title></rect><rect fill="#49edff" height="2.6" width="2.6" x="108.0" y="59.5"><title>2022-07-15 537.7119999999994 kCal</title></rect><rect fill="#fff000" height="2.6" width="2.6" x="108.0" y="63.0"><title>2022-07-16 691.3179999999993 kCal</title></rect><rect fill="#fff200" height="2.6" width="2.6" x="108.0" y="66.5"><title>2022-07-17 592.0219999999995 kCal</title></rect><rect fill="#49ecff" height="2.6" width="2.6" x="111.5" y="45.5"><title>2022-07-18 532.8305000000003 kCal</title></rect><rect fill="#4ae7ff" height="2.6" width="2.6" x="111.5" y="49.0"><title>2022-07-19 420.9770000000001 kCal</title></rect><rect fill="#4ae5ff" height="2.6" width="2.6" x="111.5" y="52.5"><title>2022-07-20 394.01999999999987 kCal</title></rect><rect fill="#ffef00" height="2.6" width="2.6" x="111.5" y="56.0"><title>2022-07-21 738.3449999999998 kCal</title></rect><rect fill="#4be1ff" height="2.6" width="2.6" x="111.5" y="59.5"><title>2022-07-22 311.20399999999995 kCal</title></rect><rect fill="#4ae9ff" height="2.6" width="2.6" x="111.5" y="63.0"><title>2022-07-23 458.7809999999997 kCal</title></rect><rect fill="#4aecff" height="2.6" width="2.6" x="111.5" y="66.5"><title>2022-07-24 515.6500000000003 kCal</title></rect><rect fill="#4cd9ff" height="2.6" width="2.6" x="115.0" y="45.5"><title>2022-07-25 142.7320000000001 kCal</title></rect><rect fill="red" height="2.6" width="2.6" x="115.0" y="49.0"><title>2022-07-26 873.3269999999995 kCal</title></rect><rect fill="#4aecff" height="2.6" width="2.6" x="115.0" y="52.5"><title>2022-07-27 522.1529999999996 kCal</title></rect><rect fill="#4be0ff" height="2.6" width="2.6" x="115.0" y="56.0"><title>2022-07-28 278.26699999999954 kCal</title></rect><rect fill="#4aebff" height="2.6" width="2.6" x="115.0" y="59.5"><title>2022-07-29 508.0779999999993 kCal</title></rect><rect fill="#4ae7ff" height="2.6" width="2.6" x="115.0" y="63.0"><title>2022-07-30 424.2099999999998 kCal</title></rect><rect fill="#4ae8ff" height="2.6" width="2.6" x="115.0" y="66.5"><title>2022-07-31 454.3369999999997 kCal</title></rect><rect fill="#4ae7ff" height="2.6" width="2.6" x="118.5" y="45.5"><title>2022-08-01 428.01100000000037 kCal</title></rect><rect fill="red" height="2.6" width="2.6" x="118.5" y="49.0"><title>2022-08-02 797.6550000000001 kCal</title></rect><rect fill="#49edff" height="2.6" width="2.6" x="118.5" y="52.5"><title>2022-08-03 536.7220000000007 kCal</title></rect><rect fill="#4be4ff" height="2.6" width="2.6" x="118.5" y="56.0"><title>2022-08-04 355.87300000000005 kCal</title></rect><rect fill="#4ae8ff" height="2.6" width="2.6" x="118.5" y="59.5"><title>2022-08-05 454.7040000000002 kCal</title></rect><rect fill="#ffef00" height="2.6" width="2.6" x="118.5" y="63.0"><title>2022-08-06 723.3790000000005 kCal</title></rect><rect fill="#ffef00" height="2.6" width="2.6" x="118.5" y="66.5"><title>2022-08-07 733.3350000000002 kCal</title></rect><rect fill="#4be4ff" height="2.6" width="2.6" x="122.0" y="45.5"><title>2022-08-08 369.6149999999998 kCal</title></rect><rect fill="#4be3ff" height="2.6" width="2.6" x="122.0" y="49.0"><title>2022-08-09 342.101 kCal</title></rect><rect fill="#4ae7ff" height="2.6" width="2.6" x="122.0" y="52.5"><title>2022-08-10 418.80600000000027 kCal</title></rect><rect fill="#4cddff" height="2.6" width="2.6" x="122.0" y="56.0"><title>2022-08-11 216.28500000000005 kCal</title></rect><rect fill="#4ae7ff" height="2.6" width="2.6" x="122.0" y="59.5"><title>2022-08-12 433.1600000000005 kCal</title></rect><rect fill="#49edff" height="2.6" width="2.6" x="122.0" y="63.0"><title>2022-08-13 535.8489999999997 kCal</title></rect><rect fill="#4cd8ff" height="2.6" width="2.6" x="122.0" y="66.5"><title>2022-08-14 128.39599999999996 kCal</title></rect><rect fill="#4ae9ff" height="2.6" width="2.6" x="125.5" y="45.5"><title>2022-08-15 472.1680000000001 kCal</title></rect><rect fill="#4ae7ff" height="2.6" width="2.6" x="125.5" y="49.0"><title>2022-08-16 425.40900000000016 kCal</title></rect><rect fill="#fff100" height="2.6" width="2.6" x="125.5" y="52.5"><title>2022-08-17 627.5929999999998 kCal</title></rect><rect fill="#49eeff" height="2.6" width="2.6" x="125.5" y="56.0"><title>2022-08-18 553.674 kCal</title></rect><rect fill="#4dd3ff" height="2.6" width="2.6" x="125.5" y="59.5"><title>2022-08-19 24.691000000000003 kCal</title></rect><rect fill="#fff000" height="2.6" width="2.6" x="125.5" y="63.0"><title>2022-08-20 666.6259999999997 kCal</title></rect><rect fill="#4aecff" height="2.6" width="2.6" x="125.5" y="66.5"><title>2022-08-21 516.273 kCal</title></rect><rect fill="#4be3ff" height="2.6" width="2.6" x="129.0" y="45.5"><title>2022-08-22 347.0219999999997 kCal</title></rect><rect fill="red" height="2.6" width="2.6" x="129.0" y="49.0"><title>2022-08-23 1635.1920000000002 kCal</title></rect><rect fill="#4ae5ff" height="2.6" width="2.6" x="129.0" y="52.5"><title>2022-08-24 380.88499999999965 kCal</title></rect><rect fill="#4ae8ff" height="2.6" width="2.6" x="129.0" y="56.0"><title>2022-08-25 436.6559999999999 kCal</title></rect><rect fill="#4aeaff" height="2.6" width="2.6" x="129.0" y="59.5"><title>2022-08-26 486.92799999999966 kCal</title></rect><rect fill="red" height="2.6" width="2.6" x="129.0" y="63.0"><title>2022-08-27 848.8649999999986 kCal</title></rect><rect fill="#4bdeff" height="2.6" width="2.6" x="129.0" y="66.5"><title>2022-08-28 243.98199999999972 kCal</title></rect><rect fill="#fff200" height="2.6" width="2.6" x="132.5" y="45.5"><title>2022-08-29 586.9399999999987 kCal</title></rect><rect fill="#4bdfff" height="2.6" width="2.6" x="132.5" y="49.0"><title>2022-08-30 264.02199999999993 kCal</title></rect><rect fill="#4aeaff" height="2.6" width="2.6" x="132.5" y="52.5"><title>2022-08-31 478.47 kCal</title></rect><rect fill="#4aebff" height="2.6" width="2.6" x="132.5" y="56.0"><title>2022-09-01 502.16799999999984 kCal</title></rect><rect fill="#fff200" height="2.6" width="2.6" x="132.5" y="59.5"><title>2022-09-02 586.5240000000001 kCal</title></rect><rect fill="#4aebff" height="2.6" width="2.6" x="132.5" y="63.0"><title>2022-09-03 500.83300000000025 kCal</title></rect><rect fill="#ffee00" height="2.6" width="2.6" x="132.5" y="66.5"><title>2022-09-04 771.6480000000004 kCal</title></rect><rect fill="#4aeaff" height="2.6" width="2.6" x="136.0" y="45.5"><title>2022-09-05 479.3710000000009 kCal</title></rect><rect fill="#4be1ff" height="2.6" width="2.6" x="136.0" y="49.0"><title>2022-09-06 308.2849999999995 kCal</title></rect><rect fill="#fff200" height="2.6" width="2.6" x="136.0" y="52.5"><title>2022-09-07 581.8370000000002 kCal</title></rect><rect fill="#4bdeff" height="2.6" width="2.6" x="136.0" y="56.0"><title>2022-09-08 246.47399999999993 kCal</title></rect><rect fill="#4be0ff" height="2.6" width="2.6" x="136.0" y="59.5"><title>2022-09-09 280.55100000000004 kCal</title></rect><rect fill="#4bdfff" height="2.6" width="2.6" x="136.0" y="63.0"><title>2022-09-10 261.5469999999999 kCal</title></rect><rect fill="#4ae9ff" height="2.6" width="2.6" x="136.0" y="66.5"><title>2022-09-11 458.4490000000004 kCal</title></rect><rect fill="red" height="2.6" width="2.6" x="139.5" y="45.5"><title>2022-09-12 837.4029999999999 kCal</title></rect><rect fill="#4be2ff" height="2.6" width="2.6" x="139.5" y="49.0"><title>2022-09-13 331.12500000000006 kCal</title></rect><rect fill="#4aebff" height="2.6" width="2.6" x="139.5" y="52.5"><title>2022-09-14 496.63999999999993 kCal</title></rect><rect fill="#4ae6ff" height="2.6" width="2.6" x="139.5" y="56.0"><title>2022-09-15 404.91499999999985 kCal</title></rect><rect fill="#fff200" height="2.6" width="2.6" x="139.5" y="59.5"><title>2022-09-16 589.3549999999992 kCal</title></rect><rect fill="#49edff" height="2.6" width="2.6" x="139.5" y="63.0"><title>2022-09-17 534.3499999999988 kCal</title></rect><rect fill="#ffee00" height="2.6" width="2.6" x="139.5" y="66.5"><title>2022-09-18 763.4940000000015 kCal</title></rect><rect fill="#fff000" height="2.6" width="2.6" x="143.0" y="45.5"><title>2022-09-19 669.508 kCal</title></rect><rect fill="#4be2ff" height="2.6" width="2.6" x="143.0" y="49.0"><title>2022-09-20 328.5929999999994 kCal</title></rect><rect fill="red" height="2.6" width="2.6" x="143.0" y="52.5"><title>2022-09-21 1041.4679999999987 kCal</title></rect><rect fill="#4ae7ff" height="2.6" width="2.6" x="143.0" y="56.0"><title>2022-09-22 430.64899999999994 kCal</title></rect><rect fill="#49edff" height="2.6" width="2.6" x="143.0" y="59.5"><title>2022-09-23 547.791 kCal</title></rect><rect fill="#fff000" height="2.6" width="2.6" x="143.0" y="63.0"><title>2022-09-24 659.9410000000001 kCal</title></rect><rect fill="#49edff" height="2.6" width="2.6" x="143.0" y="66.5"><title>2022-09-25 537.7249999999997 kCal</title></rect><rect fill="#4ae7ff" height="2.6" width="2.6" x="146.5" y="45.5"><title>2022-09-26 433.71499999999935 kCal</title></rect><rect fill="#4ae5ff" height="2.6" width="2.6" x="146.5" y="49.0"><title>2022-09-27 392.86199999999974 kCal</title></rect><rect fill="#fff100" height="2.6" width="2.6" x="146.5" y="52.5"><title>2022-09-28 652.4059999999995 kCal</title></rect><rect fill="#49edff" height="2.6" width="2.6" x="146.5" y="56.0"><title>2022-09-29 552.917 kCal</title></rect><rect fill="#49ecff" height="2.6" width="2.6" x="146.5" y="59.5"><title>2022-09-30 529.3079999999998 kCal</title></rect><rect fill="#fff000" height="2.6" width="2.6" x="146.5" y="63.0"><title>2022-10-01 671.9609999999998 kCal</title></rect><rect fill="#fff000" height="2.6" width="2.6" x="146.5" y="66.5"><title>2022-10-02 675.718 kCal</title></rect><rect fill="#49eeff" height="2.6" width="2.6" x="150.0" y="45.5"><title>2022-10-03 560.0039999999996 kCal</title></rect><rect fill="#4aeaff" height="2.6" width="2.6" x="150.0" y="49.0"><title>2022-10-04 476.07000000000033 kCal</title></rect><rect fill="#4ae7ff" height="2.6" width="2.6" x="150.0" y="52.5"><title>2022-10-05 433.3299999999999 kCal</title></rect><rect fill="#fff200" height="2.6" width="2.6" x="150.0" y="56.0"><title>2022-10-06 607.656 kCal</title></rect><rect fill="#4be3ff" height="2.6" width="2.6" x="150.0" y="59.5"><title>2022-10-07 352.78000000000026 kCal</title></rect><rect fill="#fff100" height="2.6" width="2.6" x="150.0" y="63.0"><title>2022-10-08 637.3009999999992 kCal</title></rect><rect fill="red" height="2.6" width="2.6" x="150.0" y="66.5"><title>2022-10-09 2467.210000000001 kCal</title></rect><rect fill="#4be2ff" height="2.6" width="2.6" x="153.5" y="45.5"><title>2022-10-10 327.02299999999974 kCal</title></rect><rect fill="#4be4ff" height="2.6" width="2.6" x="153.5" y="49.0"><title>2022-10-11 369.0470000000002 kCal</title></rect><rect fill="#4be2ff" height="2.6" width="2.6" x="153.5" y="52.5"><title>2022-10-12 332.6660000000001 kCal</title></rect><rect fill="#49edff" height="2.6" width="2.6" x="153.5" y="56.0"><title>2022-10-13 551.5600000000003 kCal</title></rect><rect fill="#4be4ff" height="2.6" width="2.6" x="153.5" y="59.5"><title>2022-10-14 362.50299999999993 kCal</title></rect><rect fill="#fff100" height="2.6" width="2.6" x="153.5" y="63.0"><title>2022-10-15 634.0889999999997 kCal</title></rect><rect fill="#4ae5ff" height="2.6" width="2.6" x="153.5" y="66.5"><title>2022-10-16 386.0999999999997 kCal</title></rect><rect fill="#fff100" height="2.6" width="2.6" x="157.0" y="45.5"><title>2022-10-17 625.535 kCal</title></rect><rect fill="red" height="2.6" width="2.6" x="157.0" y="49.0"><title>2022-10-18 2224.9310000000023 kCal</title></rect><rect fill="#4ae7ff" height="2.6" width="2.6" x="157.0" y="52.5"><title>2022-10-19 425.12999999999954 kCal</title></rect><rect fill="#4ae7ff" height="2.6" width="2.6" x="157.0" y="56.0"><title>2022-10-20 433.7069999999998 kCal</title></rect><rect fill="#49eeff" height="2.6" width="2.6" x="157.0" y="59.5"><title>2022-10-21 558.6959999999991 kCal</title></rect><rect fill="#4ae7ff" height="2.6" width="2.6" x="157.0" y="63.0"><title>2022-10-22 418.7070000000001 kCal</title></rect><rect fill="#4ae7ff" height="2.6" width="2.6" x="157.0" y="66.5"><title>2022-10-23 420.0139999999992 kCal</title></rect><rect fill="#ffef00" height="2.6" width="2.6" x="160.5" y="45.5"><title>2022-10-24 706.5209999999989 kCal</title></rect><rect fill="#4be2ff" height="2.6" width="2.6" x="160.5" y="49.0"><title>2022-10-25 333.02700000000016 kCal</title></rect><rect fill="#49ecff" height="2.6" width="2.6" x="160.5" y="52.5"><title>2022-10-26 528.4729999999992 kCal</title></rect><rect fill="#4aebff" height="2.6" width="2.6" x="160.5" y="56.0"><title>2022-10-27 505.58299999999997 kCal</title></rect><rect fill="#4ae5ff" height="2.6" width="2.6" x="160.5" y="59.5"><title>2022-10-28 391.3200000000002 kCal</title></rect><rect fill="#fff100" height="2.6" width="2.6" x="160.5" y="63.0"><title>2022-10-29 636.9960000000003 kCal</title></rect><rect fill="red" height="2.6" width="2.6" x="160.5" y="66.5"><title>2022-10-30 987.798 kCal</title></rect><rect fill="#4be1ff" height="2.6" width="2.6" x="164.0" y="45.5"><title>2022-10-31 308.415 kCal</title></rect><rect fill="#fff200" height="2.6" width="2.6" x="164.0" y="49.0"><title>2022-11-01 608.327000000001 kCal</title></rect><rect fill="#4ae8ff" height="2.6" width="2.6" x="164.0" y="52.5"><title>2022-11-02 449.355 kCal</title></rect><rect fill="#4bdeff" height="2.6" width="2.6" x="164.0" y="56.0"><title>2022-11-03 248.6719999999998 kCal</title></rect><rect fill="#fff100" height="2.6" width="2.6" x="164.0" y="59.5"><title>2022-11-04 650.2660000000012 kCal</title></rect><rect fill="#49eeff" height="2.6" width="2.6" x="164.0" y="63.0"><title>2022-11-05 557.565 kCal</title></rect><rect fill="red" height="2.6" width="2.6" x="164.0" y="66.5"><title>2022-11-06 909.0310000000014 kCal</title></rect><rect fill="red" height="2.6" width="2.6" x="167.5" y="45.5"><title>2022-11-07 1867.149999999998 kCal</title></rect><rect fill="#4ae5ff" height="2.6" width="2.6" x="167.5" y="49.0"><title>2022-11-08 383.99600000000015 kCal</title></rect><rect fill="#4ae9ff" height="2.6" width="2.6" x="167.5" y="52.5"><title>2022-11-09 470.16699999999975 kCal</title></rect><rect fill="#4ae7ff" height="2.6" width="2.6" x="167.5" y="56.0"><title>2022-11-10 422.8219999999997 kCal</title></rect><rect fill="#4aebff" height="2.6" width="2.6" x="167.5" y="59.5"><title>2022-11-11 494.75199999999967 kCal</title></rect><rect fill="#4ae8ff" height="2.6" width="2.6" x="167.5" y="63.0"><title>2022-11-12 454.14399999999995 kCal</title></rect><rect fill="red" height="2.6" width="2.6" x="167.5" y="66.5"><title>2022-11-13 2346.7049999999963 kCal</title></rect><rect fill="#4be2ff" height="2.6" width="2.6" x="171.0" y="45.5"><title>2022-11-14 334.0919999999999 kCal</title></rect><rect fill="#49edff" height="2.6" width="2.6" x="171.0" y="49.0"><title>2022-11-15 542.7560000000004 kCal</title></rect><rect fill="#fff200" height="2.6" width="2.6" x="171.0" y="52.5"><title>2022-11-16 567.2850000000002 kCal</title></rect><rect fill="red" height="2.6" width="2.6" x="171.0" y="56.0"><title>2022-11-17 946.6610000000012 kCal</title></rect><rect fill="#fff200" height="2.6" width="2.6" x="171.0" y="59.5"><title>2022-11-18 597.559 kCal</title></rect><rect fill="red" height="2.6" width="2.6" x="171.0" y="63.0"><title>2022-11-19 884.6350000000008 kCal</title></rect><rect fill="red" height="2.6" width="2.6" x="171.0" y="66.5"><title>2022-11-20 1455.545 kCal</title></rect><rect fill="red" height="2.6" width="2.6" x="174.5" y="45.5"><title>2022-11-21 838.7090000000004 kCal</title></rect><rect fill="red" height="2.6" width="2.6" x="174.5" y="49.0"><title>2022-11-22 1008.150000000002 kCal</title></rect><rect fill="#fff000" height="2.6" width="2.6" x="174.5" y="52.5"><title>2022-11-23 689.3079999999993 kCal</title></rect><rect fill="#fff200" height="2.6" width="2.6" x="174.5" y="56.0"><title>2022-11-24 598.238000000001 kCal</title></rect><rect fill="red" height="2.6" width="2.6" x="174.5" y="59.5"><title>2022-11-25 1504.948000000006 kCal</title></rect><rect fill="red" height="2.6" width="2.6" x="174.5" y="63.0"><title>2022-11-26 2498.1280000000247 kCal</title></rect><rect fill="red" height="2.6" width="2.6" x="174.5" y="66.5"><title>2022-11-27 3011.846999999998 kCal</title></rect><rect fill="red" height="2.6" width="2.6" x="178.0" y="45.5"><title>2022-11-28 2021.5699999999922 kCal</title></rect><rect fill="red" height="2.6" width="2.6" x="178.0" y="49.0"><title>2022-11-29 1809.486999999994 kCal</title></rect><rect fill="red" height="2.6" width="2.6" x="178.0" y="52.5"><title>2022-11-30 1479.9870000000008 kCal</title></rect><rect fill="#fff100" height="2.6" width="2.6" x="178.0" y="56.0"><title>2022-12-01 622.3320000000007 kCal</title></rect><rect fill="red" height="2.6" width="2.6" x="178.0" y="59.5"><title>2022-12-02 1067.289000000009 kCal</title></rect><rect fill="red" height="2.6" width="2.6" x="178.0" y="63.0"><title>2022-12-03 2671.8729999999855 kCal</title></rect><rect fill="#4ae7ff" height="2.6" width="2.6" x="178.0" y="66.5"><title>2022-12-04 415.5969999999999 kCal</title></rect><rect fill="red" height="2.6" width="2.6" x="181.5" y="45.5"><title>2022-12-05 1688.0859999999982 kCal</title></rect><rect fill="#49ecff" height="2.6" width="2.6" x="181.5" y="49.0"><title>2022-12-06 526.4590000000003 kCal</title></rect><rect fill="#4ae7ff" height="2.6" width="2.6" x="181.5" y="52.5"><title>2022-12-07 435.0439999999998 kCal</title></rect><rect fill="red" height="2.6" width="2.6" x="181.5" y="56.0"><title>2022-12-08 1712.5390000000077 kCal</title></rect><rect fill="#49ecff" height="2.6" width="2.6" x="181.5" y="59.5"><title>2022-12-09 528.1290000000001 kCal</title></rect><rect fill="red" height="2.6" width="2.6" x="181.5" y="63.0"><title>2022-12-10 2364.8739999999816 kCal</title></rect><rect fill="#ffee00" height="2.6" width="2.6" x="181.5" y="66.5"><title>2022-12-11 769.0779999999992 kCal</title></rect><rect fill="red" height="2.6" width="2.6" x="185.0" y="45.5"><title>2022-12-12 3377.616999999986 kCal</title></rect><rect fill="red" height="2.6" width="2.6" x="185.0" y="49.0"><title>2022-12-13 988.173999999996 kCal</title></rect><rect fill="red" height="2.6" width="2.6" x="185.0" y="52.5"><title>2022-12-14 1364.179999999993 kCal</title></rect><rect fill="red" height="2.6" width="2.6" x="185.0" y="56.0"><title>2022-12-15 1328.171999999987 kCal</title></rect><rect fill="#4ae9ff" height="2.6" width="2.6" x="185.0" y="59.5"><title>2022-12-16 468.9989999999996 kCal</title></rect><rect fill="red" height="2.6" width="2.6" x="185.0" y="63.0"><title>2022-12-17 2306.9510000000164 kCal</title></rect><rect fill="#4aebff" height="2.6" width="2.6" x="185.0" y="66.5"><title>2022-12-18 508.4719999999988 kCal</title></rect><rect fill="red" height="2.6" width="2.6" x="188.5" y="45.5"><title>2022-12-19 2527.60200000002 kCal</title></rect><rect fill="red" height="2.6" width="2.6" x="188.5" y="49.0"><title>2022-12-20 2720.449999999989 kCal</title></rect><rect fill="red" height="2.6" width="2.6" x="188.5" y="52.5"><title>2022-12-21 858.5449999999998 kCal</title></rect><rect fill="red" height="2.6" width="2.6" x="188.5" y="56.0"><title>2022-12-22 1231.476000000001 kCal</title></rect><rect fill="red" height="2.6" width="2.6" x="188.5" y="59.5"><title>2022-12-23 837.5980000000006 kCal</title></rect><rect fill="#ffef00" height="2.6" width="2.6" x="188.5" y="63.0"><title>2022-12-24 718.3360000000006 kCal</title></rect><rect fill="red" height="2.6" width="2.6" x="188.5" y="66.5"><title>2022-12-25 1745.6460000000006 kCal</title></rect><rect fill="#fff000" height="2.6" width="2.6" x="192.0" y="45.5"><title>2022-12-26 695.0260000000011 kCal</title></rect><rect fill="#ffee00" height="2.6" width="2.6" x="192.0" y="49.0"><title>2022-12-27 753.5179999999964 kCal</title></rect><rect fill="red" height="2.6" width="2.6" x="192.0" y="52.5"><title>2022-12-28 1762.3760000000132 kCal</title></rect><rect fill="red" height="2.6" width="2.6" x="192.0" y="56.0"><title>2022-12-29 1481.8450000000098 kCal</title></rect><rect fill="red" height="2.6" width="2.6" x="192.0" y="59.5"><title>2022-12-30 1359.842000000003 kCal</title></rect><rect fill="#49edff" height="2.6" width="2.6" x="192.0" y="63.0"><title>2022-12-31 550.2559999999986 kCal</title></rect></svg>