<?xml version="1.0" encoding="utf-8" ?>
<svg baseProfile="full" height="78mm" version="1.1" viewBox="0,0,200,78" width="200mm" xmlns="http://www.w3.org/2000/svg" xmlns:ev="http://www.w3.org/2001/xml-events" xmlns:xlink="http://www.w3.org/1999/xlink"><defs /><rect fill="#222222" height="78" width="200" x="0" y="0" /><text fill="#FFFFFF" style="font-size:12px; font-family:Arial; font-weight:bold;" x="10" y="20">rip-tyang apple_health</text><text dominant-baseline="hanging" fill="#FFFFFF" style="font-size:10.0px; font-family:Arial;" x="10" y="30">2015</text><text dominant-baseline="hanging" fill="#FFFFFF" style="font-size:4.125px; font-family:Arial;" x="175" y="35">128567 kCal</text><text fill="#FFFFFF" style="font-size:2.5px; font-family:Arial" x="10.0" y="44">Jan</text><text fill="#FFFFFF" style="font-size:2.5px; font-family:Arial" x="25.5" y="44">Feb</text><text fill="#FFFFFF" style="font-size:2.5px; font-family:Arial" x="41.0" y="44">Mar</text><text fill="#FFFFFF" style="font-size:2.5px; font-family:Arial" x="56.5" y="44">Apr</text><text fill="#FFFFFF" style="font-size:2.5px; font-family:Arial" x="72.0" y="44">May</text><text fill="#FFFFFF" style="font-size:2.5px; font-family:Arial" x="87.5" y="44">Jun</text><text fill="#FFFFFF" style="font-size:2.5px; font-family:Arial" x="103.0" y="44">Jul</text><text fill="#FFFFFF" style="font-size:2.5px; font-family:Arial" x="118.5" y="44">Aug</text><text fill="#FFFFFF" style="font-size:2.5px; font-family:Arial" x="134.0" y="44">Sep</text><text fill="#FFFFFF" style="font-size:2.5px; font-family:Arial" x="149.5" y="44">Oct</text><text fill="#FFFFFF" style="font-size:2.5px; font-family:Arial" x="165.0" y="44">Nov</text><text fill="#FFFFFF" style="font-size:2.5px; font-family:Arial" x="180.5" y="44">Dec</text><rect fill="#444444" height="2.6" width="2.6" x="10.0" y="45.5"><title>2014-12-29</title></rect><rect fill="#444444" height="2.6" width="2.6" x="10.0" y="49.0"><title>2014-12-30</title></rect><rect fill="#444444" height="2.6" width="2.6" x="10.0" y="52.5"><title>2014-12-31</title></rect><rect fill="#444444" height="2.6" width="2.6" x="10.0" y="56.0"><title>2015-01-01</title></rect><rect fill="#444444" height="2.6" width="2.6" x="10.0" y="59.5"><title>2015-01-02</title></rect><rect fill="#444444" height="2.6" width="2.6" x="10.0" y="63.0"><title>2015-01-03</title></rect><rect fill="#444444" height="2.6" width="2.6" x="10.0" y="66.5"><title>2015-01-04</title></rect><rect fill="#444444" height="2.6" width="2.6" x="13.5" y="45.5"><title>2015-01-05</title></rect><rect fill="#444444" height="2.6" width="2.6" x="13.5" y="49.0"><title>2015-01-06</title></rect><rect fill="#444444" height="2.6" width="2.6" x="13.5" y="52.5"><title>2015-01-07</title></rect><rect fill="#444444" height="2.6" width="2.6" x="13.5" y="56.0"><title>2015-01-08</title></rect><rect fill="#444444" height="2.6" width="2.6" x="13.5" y="59.5"><title>2015-01-09</title></rect><rect fill="#444444" height="2.6" width="2.6" x="13.5" y="63.0"><title>2015-01-10</title></rect><rect fill="#444444" height="2.6" width="2.6" x="13.5" y="66.5"><title>2015-01-11</title></rect><rect fill="#444444" height="2.6" width="2.6" x="17.0" y="45.5"><title>2015-01-12</title></rect><rect fill="#444444" height="2.6" width="2.6" x="17.0" y="49.0"><title>2015-01-13</title></rect><rect fill="#444444" height="2.6" width="2.6" x="17.0" y="52.5"><title>2015-01-14</title></rect><rect fill="#444444" height="2.6" width="2.6" x="17.0" y="56.0"><title>2015-01-15</title></rect><rect fill="#444444" height="2.6" width="2.6" x="17.0" y="59.5"><title>2015-01-16</title></rect><rect fill="#444444" height="2.6" width="2.6" x="17.0" y="63.0"><title>2015-01-17</title></rect><rect fill="#444444" height="2.6" width="2.6" x="17.0" y="66.5"><title>2015-01-18</title></rect><rect fill="#444444" height="2.6" width="2.6" x="20.5" y="45.5"><title>2015-01-19</title></rect><rect fill="#444444" height="2.6" width="2.6" x="20.5" y="49.0"><title>2015-01-20</title></rect><rect fill="#444444" height="2.6" width="2.6" x="20.5" y="52.5"><title>2015-01-21</title></rect><rect fill="#444444" height="2.6" width="2.6" x="20.5" y="56.0"><title>2015-01-22</title></rect><rect fill="#444444" height="2.6" width="2.6" x="20.5" y="59.5"><title>2015-01-23</title></rect><rect fill="#444444" height="2.6" width="2.6" x="20.5" y="63.0"><title>2015-01-24</title></rect><rect fill="#444444" height="2.6" width="2.6" x="20.5" y="66.5"><title>2015-01-25</title></rect><rect fill="#444444" height="2.6" width="2.6" x="24.0" y="45.5"><title>2015-01-26</title></rect><rect fill="#444444" height="2.6" width="2.6" x="24.0" y="49.0"><title>2015-01-27</title></rect><rect fill="#444444" height="2.6" width="2.6" x="24.0" y="52.5"><title>2015-01-28</title></rect><rect fill="#444444" height="2.6" width="2.6" x="24.0" y="56.0"><title>2015-01-29</title></rect><rect fill="#444444" height="2.6" width="2.6" x="24.0" y="59.5"><title>2015-01-30</title></rect><rect fill="#444444" height="2.6" width="2.6" x="24.0" y="63.0"><title>2015-01-31</title></rect><rect fill="#444444" height="2.6" width="2.6" x="24.0" y="66.5"><title>2015-02-01</title></rect><rect fill="#444444" height="2.6" width="2.6" x="27.5" y="45.5"><title>2015-02-02</title></rect><rect fill="#444444" height="2.6" width="2.6" x="27.5" y="49.0"><title>2015-02-03</title></rect><rect fill="#444444" height="2.6" width="2.6" x="27.5" y="52.5"><title>2015-02-04</title></rect><rect fill="#444444" height="2.6" width="2.6" x="27.5" y="56.0"><title>2015-02-05</title></rect><rect fill="#444444" height="2.6" width="2.6" x="27.5" y="59.5"><title>2015-02-06</title></rect><rect fill="#444444" height="2.6" width="2.6" x="27.5" y="63.0"><title>2015-02-07</title></rect><rect fill="#444444" height="2.6" width="2.6" x="27.5" y="66.5"><title>2015-02-08</title></rect><rect fill="#444444" height="2.6" width="2.6" x="31.0" y="45.5"><title>2015-02-09</title></rect><rect fill="#444444" height="2.6" width="2.6" x="31.0" y="49.0"><title>2015-02-10</title></rect><rect fill="#444444" height="2.6" width="2.6" x="31.0" y="52.5"><title>2015-02-11</title></rect><rect fill="#444444" height="2.6" width="2.6" x="31.0" y="56.0"><title>2015-02-12</title></rect><rect fill="#444444" height="2.6" width="2.6" x="31.0" y="59.5"><title>2015-02-13</title></rect><rect fill="#444444" height="2.6" width="2.6" x="31.0" y="63.0"><title>2015-02-14</title></rect><rect fill="#444444" height="2.6" width="2.6" x="31.0" y="66.5"><title>2015-02-15</title></rect><rect fill="#444444" height="2.6" width="2.6" x="34.5" y="45.5"><title>2015-02-16</title></rect><rect fill="#444444" height="2.6" width="2.6" x="34.5" y="49.0"><title>2015-02-17</title></rect><rect fill="#444444" height="2.6" width="2.6" x="34.5" y="52.5"><title>2015-02-18</title></rect><rect fill="#444444" height="2.6" width="2.6" x="34.5" y="56.0"><title>2015-02-19</title></rect><rect fill="#444444" height="2.6" width="2.6" x="34.5" y="59.5"><title>2015-02-20</title></rect><rect fill="#444444" height="2.6" width="2.6" x="34.5" y="63.0"><title>2015-02-21</title></rect><rect fill="#444444" height="2.6" width="2.6" x="34.5" y="66.5"><title>2015-02-22</title></rect><rect fill="#444444" height="2.6" width="2.6" x="38.0" y="45.5"><title>2015-02-23</title></rect><rect fill="#444444" height="2.6" width="2.6" x="38.0" y="49.0"><title>2015-02-24</title></rect><rect fill="#444444" height="2.6" width="2.6" x="38.0" y="52.5"><title>2015-02-25</title></rect><rect fill="#444444" height="2.6" width="2.6" x="38.0" y="56.0"><title>2015-02-26</title></rect><rect fill="#444444" height="2.6" width="2.6" x="38.0" y="59.5"><title>2015-02-27</title></rect><rect fill="#444444" height="2.6" width="2.6" x="38.0" y="63.0"><title>2015-02-28</title></rect><rect fill="#444444" height="2.6" width="2.6" x="38.0" y="66.5"><title>2015-03-01</title></rect><rect fill="#444444" height="2.6" width="2.6" x="41.5" y="45.5"><title>2015-03-02</title></rect><rect fill="#444444" height="2.6" width="2.6" x="41.5" y="49.0"><title>2015-03-03</title></rect><rect fill="#444444" height="2.6" width="2.6" x="41.5" y="52.5"><title>2015-03-04</title></rect><rect fill="#444444" height="2.6" width="2.6" x="41.5" y="56.0"><title>2015-03-05</title></rect><rect fill="#444444" height="2.6" width="2.6" x="41.5" y="59.5"><title>2015-03-06</title></rect><rect fill="#444444" height="2.6" width="2.6" x="41.5" y="63.0"><title>2015-03-07</title></rect><rect fill="#444444" height="2.6" width="2.6" x="41.5" y="66.5"><title>2015-03-08</title></rect><rect fill="#444444" height="2.6" width="2.6" x="45.0" y="45.5"><title>2015-03-09</title></rect><rect fill="#444444" height="2.6" width="2.6" x="45.0" y="49.0"><title>2015-03-10</title></rect><rect fill="#444444" height="2.6" width="2.6" x="45.0" y="52.5"><title>2015-03-11</title></rect><rect fill="#444444" height="2.6" width="2.6" x="45.0" y="56.0"><title>2015-03-12</title></rect><rect fill="#444444" height="2.6" width="2.6" x="45.0" y="59.5"><title>2015-03-13</title></rect><rect fill="#444444" height="2.6" width="2.6" x="45.0" y="63.0"><title>2015-03-14</title></rect><rect fill="#444444" height="2.6" width="2.6" x="45.0" y="66.5"><title>2015-03-15</title></rect><rect fill="#444444" height="2.6" width="2.6" x="48.5" y="45.5"><title>2015-03-16</title></rect><rect fill="#444444" height="2.6" width="2.6" x="48.5" y="49.0"><title>2015-03-17</title></rect><rect fill="#444444" height="2.6" width="2.6" x="48.5" y="52.5"><title>2015-03-18</title></rect><rect fill="#444444" height="2.6" width="2.6" x="48.5" y="56.0"><title>2015-03-19</title></rect><rect fill="#444444" height="2.6" width="2.6" x="48.5" y="59.5"><title>2015-03-20</title></rect><rect fill="#444444" height="2.6" width="2.6" x="48.5" y="63.0"><title>2015-03-21</title></rect><rect fill="#444444" height="2.6" width="2.6" x="48.5" y="66.5"><title>2015-03-22</title></rect><rect fill="#444444" height="2.6" width="2.6" x="52.0" y="45.5"><title>2015-03-23</title></rect><rect fill="#444444" height="2.6" width="2.6" x="52.0" y="49.0"><title>2015-03-24</title></rect><rect fill="#444444" height="2.6" width="2.6" x="52.0" y="52.5"><title>2015-03-25</title></rect><rect fill="#444444" height="2.6" width="2.6" x="52.0" y="56.0"><title>2015-03-26</title></rect><rect fill="#444444" height="2.6" width="2.6" x="52.0" y="59.5"><title>2015-03-27</title></rect><rect fill="#444444" height="2.6" width="2.6" x="52.0" y="63.0"><title>2015-03-28</title></rect><rect fill="#444444" height="2.6" width="2.6" x="52.0" y="66.5"><title>2015-03-29</title></rect><rect fill="#444444" height="2.6" width="2.6" x="55.5" y="45.5"><title>2015-03-30</title></rect><rect fill="#444444" height="2.6" width="2.6" x="55.5" y="49.0"><title>2015-03-31</title></rect><rect fill="#444444" height="2.6" width="2.6" x="55.5" y="52.5"><title>2015-04-01</title></rect><rect fill="#444444" height="2.6" width="2.6" x="55.5" y="56.0"><title>2015-04-02</title></rect><rect fill="#444444" height="2.6" width="2.6" x="55.5" y="59.5"><title>2015-04-03</title></rect><rect fill="#444444" height="2.6" width="2.6" x="55.5" y="63.0"><title>2015-04-04</title></rect><rect fill="#444444" height="2.6" width="2.6" x="55.5" y="66.5"><title>2015-04-05</title></rect><rect fill="#444444" height="2.6" width="2.6" x="59.0" y="45.5"><title>2015-04-06</title></rect><rect fill="#444444" height="2.6" width="2.6" x="59.0" y="49.0"><title>2015-04-07</title></rect><rect fill="#444444" height="2.6" width="2.6" x="59.0" y="52.5"><title>2015-04-08</title></rect><rect fill="#444444" height="2.6" width="2.6" x="59.0" y="56.0"><title>2015-04-09</title></rect><rect fill="#444444" height="2.6" width="2.6" x="59.0" y="59.5"><title>2015-04-10</title></rect><rect fill="#444444" height="2.6" width="2.6" x="59.0" y="63.0"><title>2015-04-11</title></rect><rect fill="#444444" height="2.6" width="2.6" x="59.0" y="66.5"><title>2015-04-12</title></rect><rect fill="#444444" height="2.6" width="2.6" x="62.5" y="45.5"><title>2015-04-13</title></rect><rect fill="#444444" height="2.6" width="2.6" x="62.5" y="49.0"><title>2015-04-14</title></rect><rect fill="#444444" height="2.6" width="2.6" x="62.5" y="52.5"><title>2015-04-15</title></rect><rect fill="#444444" height="2.6" width="2.6" x="62.5" y="56.0"><title>2015-04-16</title></rect><rect fill="#444444" height="2.6" width="2.6" x="62.5" y="59.5"><title>2015-04-17</title></rect><rect fill="#444444" height="2.6" width="2.6" x="62.5" y="63.0"><title>2015-04-18</title></rect><rect fill="#444444" height="2.6" width="2.6" x="62.5" y="66.5"><title>2015-04-19</title></rect><rect fill="#444444" height="2.6" width="2.6" x="66.0" y="45.5"><title>2015-04-20</title></rect><rect fill="#444444" height="2.6" width="2.6" x="66.0" y="49.0"><title>2015-04-21</title></rect><rect fill="#444444" height="2.6" width="2.6" x="66.0" y="52.5"><title>2015-04-22</title></rect><rect fill="#444444" height="2.6" width="2.6" x="66.0" y="56.0"><title>2015-04-23</title></rect><rect fill="#444444" height="2.6" width="2.6" x="66.0" y="59.5"><title>2015-04-24</title></rect><rect fill="#444444" height="2.6" width="2.6" x="66.0" y="63.0"><title>2015-04-25</title></rect><rect fill="#444444" height="2.6" width="2.6" x="66.0" y="66.5"><title>2015-04-26</title></rect><rect fill="#444444" height="2.6" width="2.6" x="69.5" y="45.5"><title>2015-04-27</title></rect><rect fill="#444444" height="2.6" width="2.6" x="69.5" y="49.0"><title>2015-04-28</title></rect><rect fill="#444444" height="2.6" width="2.6" x="69.5" y="52.5"><title>2015-04-29</title></rect><rect fill="#444444" height="2.6" width="2.6" x="69.5" y="56.0"><title>2015-04-30</title></rect><rect fill="#444444" height="2.6" width="2.6" x="69.5" y="59.5"><title>2015-05-01</title></rect><rect fill="#444444" height="2.6" width="2.6" x="69.5" y="63.0"><title>2015-05-02</title></rect><rect fill="#444444" height="2.6" width="2.6" x="69.5" y="66.5"><title>2015-05-03</title></rect><rect fill="#444444" height="2.6" width="2.6" x="73.0" y="45.5"><title>2015-05-04</title></rect><rect fill="#444444" height="2.6" width="2.6" x="73.0" y="49.0"><title>2015-05-05</title></rect><rect fill="#444444" height="2.6" width="2.6" x="73.0" y="52.5"><title>2015-05-06</title></rect><rect fill="#444444" height="2.6" width="2.6" x="73.0" y="56.0"><title>2015-05-07</title></rect><rect fill="#444444" height="2.6" width="2.6" x="73.0" y="59.5"><title>2015-05-08</title></rect><rect fill="#444444" height="2.6" width="2.6" x="73.0" y="63.0"><title>2015-05-09</title></rect><rect fill="#444444" height="2.6" width="2.6" x="73.0" y="66.5"><title>2015-05-10</title></rect><rect fill="#444444" height="2.6" width="2.6" x="76.5" y="45.5"><title>2015-05-11</title></rect><rect fill="#444444" height="2.6" width="2.6" x="76.5" y="49.0"><title>2015-05-12</title></rect><rect fill="#444444" height="2.6" width="2.6" x="76.5" y="52.5"><title>2015-05-13</title></rect><rect fill="#444444" height="2.6" width="2.6" x="76.5" y="56.0"><title>2015-05-14</title></rect><rect fill="#444444" height="2.6" width="2.6" x="76.5" y="59.5"><title>2015-05-15</title></rect><rect fill="#444444" height="2.6" width="2.6" x="76.5" y="63.0"><title>2015-05-16</title></rect><rect fill="#444444" height="2.6" width="2.6" x="76.5" y="66.5"><title>2015-05-17</title></rect><rect fill="#444444" height="2.6" width="2.6" x="80.0" y="45.5"><title>2015-05-18</title></rect><rect fill="#444444" height="2.6" width="2.6" x="80.0" y="49.0"><title>2015-05-19</title></rect><rect fill="#444444" height="2.6" width="2.6" x="80.0" y="52.5"><title>2015-05-20</title></rect><rect fill="#444444" height="2.6" width="2.6" x="80.0" y="56.0"><title>2015-05-21</title></rect><rect fill="#444444" height="2.6" width="2.6" x="80.0" y="59.5"><title>2015-05-22</title></rect><rect fill="#444444" height="2.6" width="2.6" x="80.0" y="63.0"><title>2015-05-23</title></rect><rect fill="#444444" height="2.6" width="2.6" x="80.0" y="66.5"><title>2015-05-24</title></rect><rect fill="#444444" height="2.6" width="2.6" x="83.5" y="45.5"><title>2015-05-25</title></rect><rect fill="#444444" height="2.6" width="2.6" x="83.5" y="49.0"><title>2015-05-26</title></rect><rect fill="#444444" height="2.6" width="2.6" x="83.5" y="52.5"><title>2015-05-27</title></rect><rect fill="#444444" height="2.6" width="2.6" x="83.5" y="56.0"><title>2015-05-28</title></rect><rect fill="#444444" height="2.6" width="2.6" x="83.5" y="59.5"><title>2015-05-29</title></rect><rect fill="#444444" height="2.6" width="2.6" x="83.5" y="63.0"><title>2015-05-30</title></rect><rect fill="#444444" height="2.6" width="2.6" x="83.5" y="66.5"><title>2015-05-31</title></rect><rect fill="#444444" height="2.6" width="2.6" x="87.0" y="45.5"><title>2015-06-01</title></rect><rect fill="#444444" height="2.6" width="2.6" x="87.0" y="49.0"><title>2015-06-02</title></rect><rect fill="#444444" height="2.6" width="2.6" x="87.0" y="52.5"><title>2015-06-03</title></rect><rect fill="#444444" height="2.6" width="2.6" x="87.0" y="56.0"><title>2015-06-04</title></rect><rect fill="#444444" height="2.6" width="2.6" x="87.0" y="59.5"><title>2015-06-05</title></rect><rect fill="#4dd2ff" height="2.6" width="2.6" x="87.0" y="63.0"><title>2015-06-06 1.818 kCal</title></rect><rect fill="#444444" height="2.6" width="2.6" x="87.0" y="66.5"><title>2015-06-07</title></rect><rect fill="#444444" height="2.6" width="2.6" x="90.5" y="45.5"><title>2015-06-08</title></rect><rect fill="#444444" height="2.6" width="2.6" x="90.5" y="49.0"><title>2015-06-09</title></rect><rect fill="#444444" height="2.6" width="2.6" x="90.5" y="52.5"><title>2015-06-10</title></rect><rect fill="#ffdd00" height="2.6" width="2.6" x="90.5" y="56.0"><title>2015-06-11 572.8999999999993 kCal</title></rect><rect fill="#ffd500" height="2.6" width="2.6" x="90.5" y="59.5"><title>2015-06-12 709.5360000000002 kCal</title></rect><rect fill="red" height="2.6" width="2.6" x="90.5" y="63.0"><title>2015-06-13 1111.765 kCal</title></rect><rect fill="red" height="2.6" width="2.6" x="90.5" y="66.5"><title>2015-06-14 1104.4919999999968 kCal</title></rect><rect fill="red" height="2.6" width="2.6" x="94.0" y="45.5"><title>2015-06-15 962.4020000000007 kCal</title></rect><rect fill="#ffd700" height="2.6" width="2.6" x="94.0" y="49.0"><title>2015-06-16 686.4409999999995 kCal</title></rect><rect fill="#ffd700" height="2.6" width="2.6" x="94.0" y="52.5"><title>2015-06-17 687.3520000000002 kCal</title></rect><rect fill="#44ffe5" height="2.6" width="2.6" x="94.0" y="56.0"><title>2015-06-18 522.1200000000006 kCal</title></rect><rect fill="#49f3ff" height="2.6" width="2.6" x="94.0" y="59.5"><title>2015-06-19 254.81 kCal</title></rect><rect fill="red" height="2.6" width="2.6" x="94.0" y="63.0"><title>2015-06-20 768.9739999999987 kCal</title></rect><rect fill="red" height="2.6" width="2.6" x="94.0" y="66.5"><title>2015-06-21 1415.558 kCal</title></rect><rect fill="#ffe000" height="2.6" width="2.6" x="97.5" y="45.5"><title>2015-06-22 525.2569999999893 kCal</title></rect><rect fill="red" height="2.6" width="2.6" x="97.5" y="49.0"><title>2015-06-23 2127.2779999999952 kCal</title></rect><rect fill="#ffd900" height="2.6" width="2.6" x="97.5" y="52.5"><title>2015-06-24 653.1960000000006 kCal</title></rect><rect fill="#ffd300" height="2.6" width="2.6" x="97.5" y="56.0"><title>2015-06-25 759.0890000000002 kCal</title></rect><rect fill="#ffd200" height="2.6" width="2.6" x="97.5" y="59.5"><title>2015-06-26 760.6380000000005 kCal</title></rect><rect fill="#ffde00" height="2.6" width="2.6" x="97.5" y="63.0"><title>2015-06-27 568.67 kCal</title></rect><rect fill="#ffdd00" height="2.6" width="2.6" x="97.5" y="66.5"><title>2015-06-28 585.9330000000002 kCal</title></rect><rect fill="red" height="2.6" width="2.6" x="101.0" y="45.5"><title>2015-06-29 784.8960000000005 kCal</title></rect><rect fill="red" height="2.6" width="2.6" x="101.0" y="49.0"><title>2015-06-30 951.7190000000014 kCal</title></rect><rect fill="#ffdd00" height="2.6" width="2.6" x="101.0" y="52.5"><title>2015-07-01 578.1010000000006 kCal</title></rect><rect fill="red" height="2.6" width="2.6" x="101.0" y="56.0"><title>2015-07-02 4346.623099999988 kCal</title></rect><rect fill="#ffd700" height="2.6" width="2.6" x="101.0" y="59.5"><title>2015-07-03 682.8369999999991 kCal</title></rect><rect fill="red" height="2.6" width="2.6" x="101.0" y="63.0"><title>2015-07-04 1240.373699999999 kCal</title></rect><rect fill="red" height="2.6" width="2.6" x="101.0" y="66.5"><title>2015-07-05 1053.7102999999986 kCal</title></rect><rect fill="red" height="2.6" width="2.6" x="104.5" y="45.5"><title>2015-07-06 1346.856100000006 kCal</title></rect><rect fill="#44ffea" height="2.6" width="2.6" x="104.5" y="49.0"><title>2015-07-07 488.98 kCal</title></rect><rect fill="red" height="2.6" width="2.6" x="104.5" y="52.5"><title>2015-07-08 1091.6442999999979 kCal</title></rect><rect fill="#47feff" height="2.6" width="2.6" x="104.5" y="56.0"><title>2015-07-09 332.61699999999956 kCal</title></rect><rect fill="red" height="2.6" width="2.6" x="104.5" y="59.5"><title>2015-07-10 1706.3407999999977 kCal</title></rect><rect fill="#45fff2" height="2.6" width="2.6" x="104.5" y="63.0"><title>2015-07-11 432.1929999999999 kCal</title></rect><rect fill="#44ffe6" height="2.6" width="2.6" x="104.5" y="66.5"><title>2015-07-12 516.5409999999994 kCal</title></rect><rect fill="red" height="2.6" width="2.6" x="108.0" y="45.5"><title>2015-07-13 823.7319999999997 kCal</title></rect><rect fill="red" height="2.6" width="2.6" x="108.0" y="49.0"><title>2015-07-14 3155.6712999999886 kCal</title></rect><rect fill="red" height="2.6" width="2.6" x="108.0" y="52.5"><title>2015-07-15 796.2390000000007 kCal</title></rect><rect fill="#ffd900" height="2.6" width="2.6" x="108.0" y="56.0"><title>2015-07-16 651.8990000000005 kCal</title></rect><rect fill="red" height="2.6" width="2.6" x="108.0" y="59.5"><title>2015-07-17 869.9430000000015 kCal</title></rect><rect fill="red" height="2.6" width="2.6" x="108.0" y="63.0"><title>2015-07-18 938.9099999999994 kCal</title></rect><rect fill="#45fff2" height="2.6" width="2.6" x="108.0" y="66.5"><title>2015-07-19 434.86899999999997 kCal</title></rect><rect fill="#ffda00" height="2.6" width="2.6" x="111.5" y="45.5"><title>2015-07-20 624.5180000000009 kCal</title></rect><rect fill="#ffe000" height="2.6" width="2.6" x="111.5" y="49.0"><title>2015-07-21 535.7710000000002 kCal</title></rect><rect fill="red" height="2.6" width="2.6" x="111.5" y="52.5"><title>2015-07-22 875.7040000000011 kCal</title></rect><rect fill="#ffdb00" height="2.6" width="2.6" x="111.5" y="56.0"><title>2015-07-23 623.2990000000009 kCal</title></rect><rect fill="#45ffed" height="2.6" width="2.6" x="111.5" y="59.5"><title>2015-07-24 470.92099999999937 kCal</title></rect><rect fill="red" height="2.6" width="2.6" x="111.5" y="63.0"><title>2015-07-25 908.6530000000018 kCal</title></rect><rect fill="red" height="2.6" width="2.6" x="111.5" y="66.5"><title>2015-07-26 969.9880000000015 kCal</title></rect><rect fill="red" height="2.6" width="2.6" x="115.0" y="45.5"><title>2015-07-27 1242.0420000000022 kCal</title></rect><rect fill="red" height="2.6" width="2.6" x="115.0" y="49.0"><title>2015-07-28 984.1350000000035 kCal</title></rect><rect fill="#ffd400" height="2.6" width="2.6" x="115.0" y="52.5"><title>2015-07-29 739.3010000000014 kCal</title></rect><rect fill="red" height="2.6" width="2.6" x="115.0" y="56.0"><title>2015-07-30 1311.1739999999993 kCal</title></rect><rect fill="red" height="2.6" width="2.6" x="115.0" y="59.5"><title>2015-07-31 1178.5060000000005 kCal</title></rect><rect fill="red" height="2.6" width="2.6" x="115.0" y="63.0"><title>2015-08-01 1091.0240000000008 kCal</title></rect><rect fill="red" height="2.6" width="2.6" x="115.0" y="66.5"><title>2015-08-02 1100.674000000001 kCal</title></rect><rect fill="#ffda00" height="2.6" width="2.6" x="118.5" y="45.5"><title>2015-08-03 639.6680000000009 kCal</title></rect><rect fill="#ffd600" height="2.6" width="2.6" x="118.5" y="49.0"><title>2015-08-04 704.9390000000005 kCal</title></rect><rect fill="red" height="2.6" width="2.6" x="118.5" y="52.5"><title>2015-08-05 881.1610000000003 kCal</title></rect><rect fill="#ffda00" height="2.6" width="2.6" x="118.5" y="56.0"><title>2015-08-06 634.2150000000014 kCal</title></rect><rect fill="#ffdc00" height="2.6" width="2.6" x="118.5" y="59.5"><title>2015-08-07 602.6960000000004 kCal</title></rect><rect fill="#48f7ff" height="2.6" width="2.6" x="118.5" y="63.0"><title>2015-08-08 280.7450000000001 kCal</title></rect><rect fill="#ffd800" height="2.6" width="2.6" x="118.5" y="66.5"><title>2015-08-09 671.5190000000006 kCal</title></rect><rect fill="#48f5ff" height="2.6" width="2.6" x="122.0" y="45.5"><title>2015-08-10 267.5919999999997 kCal</title></rect><rect fill="#48f5ff" height="2.6" width="2.6" x="122.0" y="49.0"><title>2015-08-11 265.4029999999997 kCal</title></rect><rect fill="#44ffe5" height="2.6" width="2.6" x="122.0" y="52.5"><title>2015-08-12 522.8349999999997 kCal</title></rect><rect fill="#49f0ff" height="2.6" width="2.6" x="122.0" y="56.0"><title>2015-08-13 233.12699999999947 kCal</title></rect><rect fill="#ffd600" height="2.6" width="2.6" x="122.0" y="59.5"><title>2015-08-14 701.0530000000012 kCal</title></rect><rect fill="#ffd400" height="2.6" width="2.6" x="122.0" y="63.0"><title>2015-08-15 727.1830000000018 kCal</title></rect><rect fill="#45fff3" height="2.6" width="2.6" x="122.0" y="66.5"><title>2015-08-16 427.1939999999996 kCal</title></rect><rect fill="#ffe000" height="2.6" width="2.6" x="125.5" y="45.5"><title>2015-08-17 535.5990000000006 kCal</title></rect><rect fill="red" height="2.6" width="2.6" x="125.5" y="49.0"><title>2015-08-18 919.822000000001 kCal</title></rect><rect fill="#ffd800" height="2.6" width="2.6" x="125.5" y="52.5"><title>2015-08-19 673.0450000000004 kCal</title></rect><rect fill="#ffdf00" height="2.6" width="2.6" x="125.5" y="56.0"><title>2015-08-20 546.1170000000002 kCal</title></rect><rect fill="red" height="2.6" width="2.6" x="125.5" y="59.5"><title>2015-08-21 876.8610000000018 kCal</title></rect><rect fill="#45fff0" height="2.6" width="2.6" x="125.5" y="63.0"><title>2015-08-22 449.48999999999967 kCal</title></rect><rect fill="#ffdf00" height="2.6" width="2.6" x="125.5" y="66.5"><title>2015-08-23 551.8860000000002 kCal</title></rect><rect fill="#ffdf00" height="2.6" width="2.6" x="129.0" y="45.5"><title>2015-08-24 541.2719999999998 kCal</title></rect><rect fill="#45ffef" height="2.6" width="2.6" x="129.0" y="49.0"><title>2015-08-25 455.10499999999934 kCal</title></rect><rect fill="#44ffe8" height="2.6" width="2.6" x="129.0" y="52.5"><title>2015-08-26 506.0450000000001 kCal</title></rect><rect fill="#45ffec" height="2.6" width="2.6" x="129.0" y="56.0"><title>2015-08-27 472.2120000000002 kCal</title></rect><rect fill="#45fff2" height="2.6" width="2.6" x="129.0" y="59.5"><title>2015-08-28 429.9020000000001 kCal</title></rect><rect fill="#46fffa" height="2.6" width="2.6" x="129.0" y="63.0"><title>2015-08-29 378.2789999999997 kCal</title></rect><rect fill="#ffdf00" height="2.6" width="2.6" x="129.0" y="66.5"><title>2015-08-30 554.4859999999992 kCal</title></rect><rect fill="#45fff2" height="2.6" width="2.6" x="132.5" y="45.5"><title>2015-08-31 434.26899999999983 kCal</title></rect><rect fill="#46fff3" height="2.6" width="2.6" x="132.5" y="49.0"><title>2015-09-01 424.35199999999986 kCal</title></rect><rect fill="#45ffee" height="2.6" width="2.6" x="132.5" y="52.5"><title>2015-09-02 458.3559999999994 kCal</title></rect><rect fill="#ffdf00" height="2.6" width="2.6" x="132.5" y="56.0"><title>2015-09-03 555.0619999999999 kCal</title></rect><rect fill="#ffdb00" height="2.6" width="2.6" x="132.5" y="59.5"><title>2015-09-04 609.8219999999965 kCal</title></rect><rect fill="#44ffe9" height="2.6" width="2.6" x="132.5" y="63.0"><title>2015-09-05 496.7439999999965 kCal</title></rect><rect fill="#45ffee" height="2.6" width="2.6" x="132.5" y="66.5"><title>2015-09-06 460.4420000000001 kCal</title></rect><rect fill="red" height="2.6" width="2.6" x="136.0" y="45.5"><title>2015-09-07 987.7369999999993 kCal</title></rect><rect fill="#ffe000" height="2.6" width="2.6" x="136.0" y="49.0"><title>2015-09-08 524.4350000000002 kCal</title></rect><rect fill="#44ffe8" height="2.6" width="2.6" x="136.0" y="52.5"><title>2015-09-09 505.27900000000005 kCal</title></rect><rect fill="#46fff4" height="2.6" width="2.6" x="136.0" y="56.0"><title>2015-09-10 419.7659999999999 kCal</title></rect><rect fill="#44ffeb" height="2.6" width="2.6" x="136.0" y="59.5"><title>2015-09-11 481.75700000000046 kCal</title></rect><rect fill="#45ffec" height="2.6" width="2.6" x="136.0" y="63.0"><title>2015-09-12 476.8720000000006 kCal</title></rect><rect fill="#45fff1" height="2.6" width="2.6" x="136.0" y="66.5"><title>2015-09-13 439.8920000000003 kCal</title></rect><rect fill="#44ffe5" height="2.6" width="2.6" x="139.5" y="45.5"><title>2015-09-14 522.3559999999995 kCal</title></rect><rect fill="#ffd900" height="2.6" width="2.6" x="139.5" y="49.0"><title>2015-09-15 654.7900000000006 kCal</title></rect><rect fill="#ffe000" height="2.6" width="2.6" x="139.5" y="52.5"><title>2015-09-16 527.6119999999991 kCal</title></rect><rect fill="#44ffe6" height="2.6" width="2.6" x="139.5" y="56.0"><title>2015-09-17 514.5000000000007 kCal</title></rect><rect fill="#ffd600" height="2.6" width="2.6" x="139.5" y="59.5"><title>2015-09-18 698.6709999999997 kCal</title></rect><rect fill="red" height="2.6" width="2.6" x="139.5" y="63.0"><title>2015-09-19 906.214999999999 kCal</title></rect><rect fill="#ffde00" height="2.6" width="2.6" x="139.5" y="66.5"><title>2015-09-20 558.855 kCal</title></rect><rect fill="#46fff7" height="2.6" width="2.6" x="143.0" y="45.5"><title>2015-09-21 393.69999999999993 kCal</title></rect><rect fill="#45fff3" height="2.6" width="2.6" x="143.0" y="49.0"><title>2015-09-22 425.456 kCal</title></rect><rect fill="#ffdd00" height="2.6" width="2.6" x="143.0" y="52.5"><title>2015-09-23 573.4909999999992 kCal</title></rect><rect fill="#45ffed" height="2.6" width="2.6" x="143.0" y="56.0"><title>2015-09-24 470.0080000000003 kCal</title></rect><rect fill="#44ffe9" height="2.6" width="2.6" x="143.0" y="59.5"><title>2015-09-25 494.81099999999964 kCal</title></rect><rect fill="red" height="2.6" width="2.6" x="143.0" y="63.0"><title>2015-09-26 785.3499999999998 kCal</title></rect><rect fill="#45ffed" height="2.6" width="2.6" x="143.0" y="66.5"><title>2015-09-27 466.76999999999964 kCal</title></rect><rect fill="#44ffe6" height="2.6" width="2.6" x="146.5" y="45.5"><title>2015-09-28 514.8770000000001 kCal</title></rect><rect fill="#45fff3" height="2.6" width="2.6" x="146.5" y="49.0"><title>2015-09-29 427.1599999999998 kCal</title></rect><rect fill="#44ffea" height="2.6" width="2.6" x="146.5" y="52.5"><title>2015-09-30 489.27599999999927 kCal</title></rect><rect fill="#45fff3" height="2.6" width="2.6" x="146.5" y="56.0"><title>2015-10-01 425.3030000000002 kCal</title></rect><rect fill="#45ffed" height="2.6" width="2.6" x="146.5" y="59.5"><title>2015-10-02 468.4110000000003 kCal</title></rect><rect fill="#47fdff" height="2.6" width="2.6" x="146.5" y="63.0"><title>2015-10-03 322.97300000000007 kCal</title></rect><rect fill="#46fff6" height="2.6" width="2.6" x="146.5" y="66.5"><title>2015-10-04 403.58799999999974 kCal</title></rect><rect fill="#45ffec" height="2.6" width="2.6" x="150.0" y="45.5"><title>2015-10-05 474.7680000000002 kCal</title></rect><rect fill="#ffe000" height="2.6" width="2.6" x="150.0" y="49.0"><title>2015-10-06 535.5049999999997 kCal</title></rect><rect fill="#44ffe8" height="2.6" width="2.6" x="150.0" y="52.5"><title>2015-10-07 503.3269999999997 kCal</title></rect><rect fill="#45ffef" height="2.6" width="2.6" x="150.0" y="56.0"><title>2015-10-08 452.81499999999977 kCal</title></rect><rect fill="red" height="2.6" width="2.6" x="150.0" y="59.5"><title>2015-10-09 776.6329999999977 kCal</title></rect><rect fill="#ffe000" height="2.6" width="2.6" x="150.0" y="63.0"><title>2015-10-10 532.051000000002 kCal</title></rect><rect fill="red" height="2.6" width="2.6" x="150.0" y="66.5"><title>2015-10-11 845.1339999999999 kCal</title></rect><rect fill="#ffdf00" height="2.6" width="2.6" x="153.5" y="45.5"><title>2015-10-12 540.5830000000018 kCal</title></rect><rect fill="#ffd300" height="2.6" width="2.6" x="153.5" y="49.0"><title>2015-10-13 757.8219999999986 kCal</title></rect><rect fill="#45fff2" height="2.6" width="2.6" x="153.5" y="52.5"><title>2015-10-14 430.20999999999975 kCal</title></rect><rect fill="#46fff4" height="2.6" width="2.6" x="153.5" y="56.0"><title>2015-10-15 419.63200000000006 kCal</title></rect><rect fill="#46fff8" height="2.6" width="2.6" x="153.5" y="59.5"><title>2015-10-16 392.9010000000002 kCal</title></rect><rect fill="#ffd700" height="2.6" width="2.6" x="153.5" y="63.0"><title>2015-10-17 683.8720000000006 kCal</title></rect><rect fill="#45ffec" height="2.6" width="2.6" x="153.5" y="66.5"><title>2015-10-18 474.8680000000001 kCal</title></rect><rect fill="#47fffd" height="2.6" width="2.6" x="157.0" y="45.5"><title>2015-10-19 354.2470000000005 kCal</title></rect><rect fill="#44ffeb" height="2.6" width="2.6" x="157.0" y="49.0"><title>2015-10-20 482.22000000000014 kCal</title></rect><rect fill="#ffde00" height="2.6" width="2.6" x="157.0" y="52.5"><title>2015-10-21 561.4140000000002 kCal</title></rect><rect fill="#44ffe9" height="2.6" width="2.6" x="157.0" y="56.0"><title>2015-10-22 497.533 kCal</title></rect><rect fill="#ffdd00" height="2.6" width="2.6" x="157.0" y="59.5"><title>2015-10-23 585.2120000000006 kCal</title></rect><rect fill="red" height="2.6" width="2.6" x="157.0" y="63.0"><title>2015-10-24 767.168999999999 kCal</title></rect><rect fill="#ffe000" height="2.6" width="2.6" x="157.0" y="66.5"><title>2015-10-25 529.973 kCal</title></rect><rect fill="#44ffe8" height="2.6" width="2.6" x="160.5" y="45.5"><title>2015-10-26 503.189 kCal</title></rect><rect fill="#44ffe7" height="2.6" width="2.6" x="160.5" y="49.0"><title>2015-10-27 509.60699999999963 kCal</title></rect><rect fill="#48fbff" height="2.6" width="2.6" x="160.5" y="52.5"><title>2015-10-28 307.77400000000017 kCal</title></rect><rect fill="#44ffe5" height="2.6" width="2.6" x="160.5" y="56.0"><title>2015-10-29 522.7429999999996 kCal</title></rect><rect fill="#44ffe9" height="2.6" width="2.6" x="160.5" y="59.5"><title>2015-10-30 498.24199999999973 kCal</title></rect><rect fill="#ffd600" height="2.6" width="2.6" x="160.5" y="63.0"><title>2015-10-31 707.4750000000004 kCal</title></rect><rect fill="#44ffe7" height="2.6" width="2.6" x="160.5" y="66.5"><title>2015-11-01 509.42999999999967 kCal</title></rect><rect fill="#46fff5" height="2.6" width="2.6" x="164.0" y="45.5"><title>2015-11-02 412.90899999999965 kCal</title></rect><rect fill="#44ffe6" height="2.6" width="2.6" x="164.0" y="49.0"><title>2015-11-03 520.714 kCal</title></rect><rect fill="#ffe000" height="2.6" width="2.6" x="164.0" y="52.5"><title>2015-11-04 525.0420000000001 kCal</title></rect><rect fill="#46fff4" height="2.6" width="2.6" x="164.0" y="56.0"><title>2015-11-05 420.16999999999973 kCal</title></rect><rect fill="#45ffec" height="2.6" width="2.6" x="164.0" y="59.5"><title>2015-11-06 476.0039999999992 kCal</title></rect><rect fill="#44ffe7" height="2.6" width="2.6" x="164.0" y="63.0"><title>2015-11-07 508.5499999999998 kCal</title></rect><rect fill="#49f3ff" height="2.6" width="2.6" x="164.0" y="66.5"><title>2015-11-08 250.0939999999997 kCal</title></rect><rect fill="#46fff4" height="2.6" width="2.6" x="167.5" y="45.5"><title>2015-11-09 421.23600000000005 kCal</title></rect><rect fill="#46fff4" height="2.6" width="2.6" x="167.5" y="49.0"><title>2015-11-10 421.441 kCal</title></rect><rect fill="#45fff0" height="2.6" width="2.6" x="167.5" y="52.5"><title>2015-11-11 449.8689999999999 kCal</title></rect><rect fill="#45fff1" height="2.6" width="2.6" x="167.5" y="56.0"><title>2015-11-12 440.31099999999964 kCal</title></rect><rect fill="#ffd500" height="2.6" width="2.6" x="167.5" y="59.5"><title>2015-11-13 709.940000000001 kCal</title></rect><rect fill="#48faff" height="2.6" width="2.6" x="167.5" y="63.0"><title>2015-11-14 299.66700000000037 kCal</title></rect><rect fill="#46fffb" height="2.6" width="2.6" x="167.5" y="66.5"><title>2015-11-15 368.8399999999999 kCal</title></rect><rect fill="#ffdd00" height="2.6" width="2.6" x="171.0" y="45.5"><title>2015-11-16 586.3409999999994 kCal</title></rect><rect fill="#46fff9" height="2.6" width="2.6" x="171.0" y="49.0"><title>2015-11-17 385.1389999999999 kCal</title></rect><rect fill="#45fff2" height="2.6" width="2.6" x="171.0" y="52.5"><title>2015-11-18 432.4570000000004 kCal</title></rect><rect fill="#ffdf00" height="2.6" width="2.6" x="171.0" y="56.0"><title>2015-11-19 539.351 kCal</title></rect><rect fill="#45fff0" height="2.6" width="2.6" x="171.0" y="59.5"><title>2015-11-20 446.0079999999995 kCal</title></rect><rect fill="#45ffec" height="2.6" width="2.6" x="171.0" y="63.0"><title>2015-11-21 472.953 kCal</title></rect><rect fill="#46fff6" height="2.6" width="2.6" x="171.0" y="66.5"><title>2015-11-22 403.02299999999934 kCal</title></rect><rect fill="#46fff8" height="2.6" width="2.6" x="174.5" y="45.5"><title>2015-11-23 389.76899999999983 kCal</title></rect><rect fill="#45ffee" height="2.6" width="2.6" x="174.5" y="49.0"><title>2015-11-24 464.5779999999997 kCal</title></rect><rect fill="red" height="2.6" width="2.6" x="174.5" y="52.5"><title>2015-11-25 989.2269999999974 kCal</title></rect><rect fill="#49efff" height="2.6" width="2.6" x="174.5" y="56.0"><title>2015-11-26 223.86400000000012 kCal</title></rect><rect fill="#44ffe9" height="2.6" width="2.6" x="174.5" y="59.5"><title>2015-11-27 496.60199999999975 kCal</title></rect><rect fill="#46fff7" height="2.6" width="2.6" x="174.5" y="63.0"><title>2015-11-28 399.7389999999998 kCal</title></rect><rect fill="#44ffe8" height="2.6" width="2.6" x="174.5" y="66.5"><title>2015-11-29 504.92099999999994 kCal</title></rect><rect fill="#46fff9" height="2.6" width="2.6" x="178.0" y="45.5"><title>2015-11-30 382.7060000000003 kCal</title></rect><rect fill="#44ffe6" height="2.6" width="2.6" x="178.0" y="49.0"><title>2015-12-01 519.225 kCal</title></rect><rect fill="#ffda00" height="2.6" width="2.6" x="178.0" y="52.5"><title>2015-12-02 629.2589999999998 kCal</title></rect><rect fill="#46fff7" height="2.6" width="2.6" x="178.0" y="56.0"><title>2015-12-03 394.1530000000004 kCal</title></rect><rect fill="#45ffeb" height="2.6" width="2.6" x="178.0" y="59.5"><title>2015-12-04 480.1599999999999 kCal</title></rect><rect fill="red" height="2.6" width="2.6" x="178.0" y="63.0"><title>2015-12-05 1084.2450000000001 kCal</title></rect><rect fill="#45fff3" height="2.6" width="2.6" x="178.0" y="66.5"><title>2015-12-06 426.11600000000027 kCal</title></rect><rect fill="#44ffe8" height="2.6" width="2.6" x="181.5" y="45.5"><title>2015-12-07 500.57600000000014 kCal</title></rect><rect fill="#49ecff" height="2.6" width="2.6" x="181.5" y="49.0"><title>2015-12-08 200.85199999999998 kCal</title></rect><rect fill="#ffdf00" height="2.6" width="2.6" x="181.5" y="52.5"><title>2015-12-09 547.2739999999998 kCal</title></rect><rect fill="#ffdc00" height="2.6" width="2.6" x="181.5" y="56.0"><title>2015-12-10 594.7450000000002 kCal</title></rect><rect fill="#44ffe8" height="2.6" width="2.6" x="181.5" y="59.5"><title>2015-12-11 507.2160000000001 kCal</title></rect><rect fill="#47fdff" height="2.6" width="2.6" x="181.5" y="63.0"><title>2015-12-12 323.194 kCal</title></rect><rect fill="#45fff0" height="2.6" width="2.6" x="181.5" y="66.5"><title>2015-12-13 448.41499999999985 kCal</title></rect><rect fill="#46fff5" height="2.6" width="2.6" x="185.0" y="45.5"><title>2015-12-14 415.062 kCal</title></rect><rect fill="#44ffe9" height="2.6" width="2.6" x="185.0" y="49.0"><title>2015-12-15 499.4520000000001 kCal</title></rect><rect fill="#ffd800" height="2.6" width="2.6" x="185.0" y="52.5"><title>2015-12-16 658.5390000000006 kCal</title></rect><rect fill="#45ffec" height="2.6" width="2.6" x="185.0" y="56.0"><title>2015-12-17 479.06199999999956 kCal</title></rect><rect fill="#45fff1" height="2.6" width="2.6" x="185.0" y="59.5"><title>2015-12-18 439.31799999999976 kCal</title></rect><rect fill="red" height="2.6" width="2.6" x="185.0" y="63.0"><title>2015-12-19 879.9789999999995 kCal</title></rect><rect fill="#ffdb00" height="2.6" width="2.6" x="185.0" y="66.5"><title>2015-12-20 608.1709999999997 kCal</title></rect><rect fill="#47fffd" height="2.6" width="2.6" x="188.5" y="45.5"><title>2015-12-21 356.68899999999996 kCal</title></rect><rect fill="#ffd700" height="2.6" width="2.6" x="188.5" y="49.0"><title>2015-12-22 688.3070000000008 kCal</title></rect><rect fill="#44ffea" height="2.6" width="2.6" x="188.5" y="52.5"><title>2015-12-23 491.9230000000002 kCal</title></rect><rect fill="#ffdb00" height="2.6" width="2.6" x="188.5" y="56.0"><title>2015-12-24 622.3229999999995 kCal</title></rect><rect fill="#45ffeb" height="2.6" width="2.6" x="188.5" y="59.5"><title>2015-12-25 481.23099999999994 kCal</title></rect><rect fill="#ffd600" height="2.6" width="2.6" x="188.5" y="63.0"><title>2015-12-26 700.6889999999999 kCal</title></rect><rect fill="#46fff6" height="2.6" width="2.6" x="188.5" y="66.5"><title>2015-12-27 406.01500000000055 kCal</title></rect><rect fill="#ffd700" height="2.6" width="2.6" x="192.0" y="45.5"><title>2015-12-28 686.4429999999992 kCal</title></rect><rect fill="#ffdd00" height="2.6" width="2.6" x="192.0" y="49.0"><title>2015-12-29 574.4990000000008 kCal</title></rect><rect fill="#444444" height="2.6" width="2.6" x="192.0" y="52.5"><title>2015-12-30</title></rect><rect fill="#444444" height="2.6" width="2.6" x="192.0" y="56.0"><title>2015-12-31</title></rect></svg>