<?xml version="1.0" encoding="utf-8" ?>
<svg baseProfile="full" height="78mm" version="1.1" viewBox="0,0,200,78" width="200mm" xmlns="http://www.w3.org/2000/svg" xmlns:ev="http://www.w3.org/2001/xml-events" xmlns:xlink="http://www.w3.org/1999/xlink"><defs /><rect fill="#222222" height="78" width="200" x="0" y="0" /><text fill="#FFFFFF" style="font-size:12px; font-family:Arial; font-weight:bold;" x="10" y="20">rip-tyang apple_health</text><text dominant-baseline="hanging" fill="#FFFFFF" style="font-size:10.0px; font-family:Arial;" x="10" y="30">2016</text><text dominant-baseline="hanging" fill="#FFFFFF" style="font-size:4.125px; font-family:Arial;" x="175" y="35">209906 kCal</text><text fill="#FFFFFF" style="font-size:2.5px; font-family:Arial" x="10.0" y="44">Jan</text><text fill="#FFFFFF" style="font-size:2.5px; font-family:Arial" x="25.5" y="44">Feb</text><text fill="#FFFFFF" style="font-size:2.5px; font-family:Arial" x="41.0" y="44">Mar</text><text fill="#FFFFFF" style="font-size:2.5px; font-family:Arial" x="56.5" y="44">Apr</text><text fill="#FFFFFF" style="font-size:2.5px; font-family:Arial" x="72.0" y="44">May</text><text fill="#FFFFFF" style="font-size:2.5px; font-family:Arial" x="87.5" y="44">Jun</text><text fill="#FFFFFF" style="font-size:2.5px; font-family:Arial" x="103.0" y="44">Jul</text><text fill="#FFFFFF" style="font-size:2.5px; font-family:Arial" x="118.5" y="44">Aug</text><text fill="#FFFFFF" style="font-size:2.5px; font-family:Arial" x="134.0" y="44">Sep</text><text fill="#FFFFFF" style="font-size:2.5px; font-family:Arial" x="149.5" y="44">Oct</text><text fill="#FFFFFF" style="font-size:2.5px; font-family:Arial" x="165.0" y="44">Nov</text><text fill="#FFFFFF" style="font-size:2.5px; font-family:Arial" x="180.5" y="44">Dec</text><rect fill="#444444" height="2.6" width="2.6" x="10.0" y="45.5"><title>2015-12-28</title></rect><rect fill="#444444" height="2.6" width="2.6" x="10.0" y="49.0"><title>2015-12-29</title></rect><rect fill="#444444" height="2.6" width="2.6" x="10.0" y="52.5"><title>2015-12-30</title></rect><rect fill="#444444" height="2.6" width="2.6" x="10.0" y="56.0"><title>2015-12-31</title></rect><rect fill="#4cd9ff" height="2.6" width="2.6" x="10.0" y="59.5"><title>2016-01-01 41 kCal</title></rect><rect fill="#ffb800" height="2.6" width="2.6" x="10.0" y="63.0"><title>2016-01-02 663 kCal</title></rect><rect fill="red" height="2.6" width="2.6" x="10.0" y="66.5"><title>2016-01-03 896 kCal</title></rect><rect fill="#3dffac" height="2.6" width="2.6" x="13.5" y="45.5"><title>2016-01-04 499 kCal</title></rect><rect fill="red" height="2.6" width="2.6" x="13.5" y="49.0"><title>2016-01-05 808 kCal</title></rect><rect fill="#ffbe00" height="2.6" width="2.6" x="13.5" y="52.5"><title>2016-01-06 610 kCal</title></rect><rect fill="red" height="2.6" width="2.6" x="13.5" y="56.0"><title>2016-01-07 894 kCal</title></rect><rect fill="#41ffcb" height="2.6" width="2.6" x="13.5" y="59.5"><title>2016-01-08 389 kCal</title></rect><rect fill="#3bffa0" height="2.6" width="2.6" x="13.5" y="63.0"><title>2016-01-09 544 kCal</title></rect><rect fill="#ffbc00" height="2.6" width="2.6" x="13.5" y="66.5"><title>2016-01-10 622 kCal</title></rect><rect fill="#40ffc9" height="2.6" width="2.6" x="17.0" y="45.5"><title>2016-01-11 397 kCal</title></rect><rect fill="#42ffd3" height="2.6" width="2.6" x="17.0" y="49.0"><title>2016-01-12 360 kCal</title></rect><rect fill="#3cffa7" height="2.6" width="2.6" x="17.0" y="52.5"><title>2016-01-13 518 kCal</title></rect><rect fill="#3bff9e" height="2.6" width="2.6" x="17.0" y="56.0"><title>2016-01-14 548 kCal</title></rect><rect fill="#3effb8" height="2.6" width="2.6" x="17.0" y="59.5"><title>2016-01-15 458 kCal</title></rect><rect fill="#49f3ff" height="2.6" width="2.6" x="17.0" y="63.0"><title>2016-01-16 144 kCal</title></rect><rect fill="#3effb4" height="2.6" width="2.6" x="17.0" y="66.5"><title>2016-01-17 471 kCal</title></rect><rect fill="#46fff7" height="2.6" width="2.6" x="20.5" y="45.5"><title>2016-01-18 223 kCal</title></rect><rect fill="#42ffd8" height="2.6" width="2.6" x="20.5" y="49.0"><title>2016-01-19 343 kCal</title></rect><rect fill="#43ffe1" height="2.6" width="2.6" x="20.5" y="52.5"><title>2016-01-20 309 kCal</title></rect><rect fill="#44ffe5" height="2.6" width="2.6" x="20.5" y="56.0"><title>2016-01-21 294 kCal</title></rect><rect fill="#40ffca" height="2.6" width="2.6" x="20.5" y="59.5"><title>2016-01-22 393 kCal</title></rect><rect fill="#4cd8ff" height="2.6" width="2.6" x="20.5" y="63.0"><title>2016-01-23 36 kCal</title></rect><rect fill="#3cffa7" height="2.6" width="2.6" x="20.5" y="66.5"><title>2016-01-24 518 kCal</title></rect><rect fill="#ffc100" height="2.6" width="2.6" x="24.0" y="45.5"><title>2016-01-25 577 kCal</title></rect><rect fill="#3cffa2" height="2.6" width="2.6" x="24.0" y="49.0"><title>2016-01-26 536 kCal</title></rect><rect fill="#41ffd3" height="2.6" width="2.6" x="24.0" y="52.5"><title>2016-01-27 361 kCal</title></rect><rect fill="#46fff4" height="2.6" width="2.6" x="24.0" y="56.0"><title>2016-01-28 234 kCal</title></rect><rect fill="#ffbd00" height="2.6" width="2.6" x="24.0" y="59.5"><title>2016-01-29 619 kCal</title></rect><rect fill="#46fff5" height="2.6" width="2.6" x="24.0" y="63.0"><title>2016-01-30 230 kCal</title></rect><rect fill="#ffbb00" height="2.6" width="2.6" x="24.0" y="66.5"><title>2016-01-31 639 kCal</title></rect><rect fill="#42ffd4" height="2.6" width="2.6" x="27.5" y="45.5"><title>2016-02-01 356 kCal</title></rect><rect fill="#3effb3" height="2.6" width="2.6" x="27.5" y="49.0"><title>2016-02-02 476 kCal</title></rect><rect fill="#42ffd6" height="2.6" width="2.6" x="27.5" y="52.5"><title>2016-02-03 348 kCal</title></rect><rect fill="#3dffa9" height="2.6" width="2.6" x="27.5" y="56.0"><title>2016-02-04 511 kCal</title></rect><rect fill="#3cffa8" height="2.6" width="2.6" x="27.5" y="59.5"><title>2016-02-05 514 kCal</title></rect><rect fill="#ffba00" height="2.6" width="2.6" x="27.5" y="63.0"><title>2016-02-06 646 kCal</title></rect><rect fill="red" height="2.6" width="2.6" x="27.5" y="66.5"><title>2016-02-07 824 kCal</title></rect><rect fill="#3effb8" height="2.6" width="2.6" x="31.0" y="45.5"><title>2016-02-08 459 kCal</title></rect><rect fill="#ffbd00" height="2.6" width="2.6" x="31.0" y="49.0"><title>2016-02-09 619 kCal</title></rect><rect fill="#40ffc5" height="2.6" width="2.6" x="31.0" y="52.5"><title>2016-02-10 410 kCal</title></rect><rect fill="#ffb700" height="2.6" width="2.6" x="31.0" y="56.0"><title>2016-02-11 669 kCal</title></rect><rect fill="#ffba00" height="2.6" width="2.6" x="31.0" y="59.5"><title>2016-02-12 641 kCal</title></rect><rect fill="#42ffdb" height="2.6" width="2.6" x="31.0" y="63.0"><title>2016-02-13 331 kCal</title></rect><rect fill="#43ffdf" height="2.6" width="2.6" x="31.0" y="66.5"><title>2016-02-14 317 kCal</title></rect><rect fill="#41ffcb" height="2.6" width="2.6" x="34.5" y="45.5"><title>2016-02-15 391 kCal</title></rect><rect fill="#3bff9b" height="2.6" width="2.6" x="34.5" y="49.0"><title>2016-02-16 559 kCal</title></rect><rect fill="#41ffcc" height="2.6" width="2.6" x="34.5" y="52.5"><title>2016-02-17 387 kCal</title></rect><rect fill="#ffc000" height="2.6" width="2.6" x="34.5" y="56.0"><title>2016-02-18 587 kCal</title></rect><rect fill="#3effb9" height="2.6" width="2.6" x="34.5" y="59.5"><title>2016-02-19 456 kCal</title></rect><rect fill="red" height="2.6" width="2.6" x="34.5" y="63.0"><title>2016-02-20 841 kCal</title></rect><rect fill="#3dffa9" height="2.6" width="2.6" x="34.5" y="66.5"><title>2016-02-21 512 kCal</title></rect><rect fill="#3bff9f" height="2.6" width="2.6" x="38.0" y="45.5"><title>2016-02-22 546 kCal</title></rect><rect fill="#3fffbc" height="2.6" width="2.6" x="38.0" y="49.0"><title>2016-02-23 443 kCal</title></rect><rect fill="#3cffa8" height="2.6" width="2.6" x="38.0" y="52.5"><title>2016-02-24 516 kCal</title></rect><rect fill="#ffbc00" height="2.6" width="2.6" x="38.0" y="56.0"><title>2016-02-25 630 kCal</title></rect><rect fill="#3aff97" height="2.6" width="2.6" x="38.0" y="59.5"><title>2016-02-26 575 kCal</title></rect><rect fill="red" height="2.6" width="2.6" x="38.0" y="63.0"><title>2016-02-27 907 kCal</title></rect><rect fill="#ffbd00" height="2.6" width="2.6" x="38.0" y="66.5"><title>2016-02-28 614 kCal</title></rect><rect fill="#3fffbf" height="2.6" width="2.6" x="41.5" y="45.5"><title>2016-02-29 434 kCal</title></rect><rect fill="#ffc000" height="2.6" width="2.6" x="41.5" y="49.0"><title>2016-03-01 593 kCal</title></rect><rect fill="#3bff9e" height="2.6" width="2.6" x="41.5" y="52.5"><title>2016-03-02 548 kCal</title></rect><rect fill="#3bff9e" height="2.6" width="2.6" x="41.5" y="56.0"><title>2016-03-03 551 kCal</title></rect><rect fill="red" height="2.6" width="2.6" x="41.5" y="59.5"><title>2016-03-04 884 kCal</title></rect><rect fill="#41ffd1" height="2.6" width="2.6" x="41.5" y="63.0"><title>2016-03-05 368 kCal</title></rect><rect fill="#3fffbb" height="2.6" width="2.6" x="41.5" y="66.5"><title>2016-03-06 446 kCal</title></rect><rect fill="#ffbe00" height="2.6" width="2.6" x="45.0" y="45.5"><title>2016-03-07 610 kCal</title></rect><rect fill="#40ffc4" height="2.6" width="2.6" x="45.0" y="49.0"><title>2016-03-08 416 kCal</title></rect><rect fill="#3effb6" height="2.6" width="2.6" x="45.0" y="52.5"><title>2016-03-09 465 kCal</title></rect><rect fill="#3bff9b" height="2.6" width="2.6" x="45.0" y="56.0"><title>2016-03-10 560 kCal</title></rect><rect fill="#ffbd00" height="2.6" width="2.6" x="45.0" y="59.5"><title>2016-03-11 616 kCal</title></rect><rect fill="#ffb500" height="2.6" width="2.6" x="45.0" y="63.0"><title>2016-03-12 694 kCal</title></rect><rect fill="#3cffa7" height="2.6" width="2.6" x="45.0" y="66.5"><title>2016-03-13 518 kCal</title></rect><rect fill="red" height="2.6" width="2.6" x="48.5" y="45.5"><title>2016-03-14 905 kCal</title></rect><rect fill="#ffb800" height="2.6" width="2.6" x="48.5" y="49.0"><title>2016-03-15 664 kCal</title></rect><rect fill="#ffba00" height="2.6" width="2.6" x="48.5" y="52.5"><title>2016-03-16 649 kCal</title></rect><rect fill="#ffc000" height="2.6" width="2.6" x="48.5" y="56.0"><title>2016-03-17 585 kCal</title></rect><rect fill="#3cffa2" height="2.6" width="2.6" x="48.5" y="59.5"><title>2016-03-18 537 kCal</title></rect><rect fill="#3bff98" height="2.6" width="2.6" x="48.5" y="63.0"><title>2016-03-19 572 kCal</title></rect><rect fill="#ffbe00" height="2.6" width="2.6" x="48.5" y="66.5"><title>2016-03-20 605 kCal</title></rect><rect fill="#ffc000" height="2.6" width="2.6" x="52.0" y="45.5"><title>2016-03-21 588 kCal</title></rect><rect fill="#3bff9b" height="2.6" width="2.6" x="52.0" y="49.0"><title>2016-03-22 559 kCal</title></rect><rect fill="#ffb200" height="2.6" width="2.6" x="52.0" y="52.5"><title>2016-03-23 719 kCal</title></rect><rect fill="#ffbf00" height="2.6" width="2.6" x="52.0" y="56.0"><title>2016-03-24 597 kCal</title></rect><rect fill="#42ffd4" height="2.6" width="2.6" x="52.0" y="59.5"><title>2016-03-25 357 kCal</title></rect><rect fill="#ffbf00" height="2.6" width="2.6" x="52.0" y="63.0"><title>2016-03-26 601 kCal</title></rect><rect fill="red" height="2.6" width="2.6" x="52.0" y="66.5"><title>2016-03-27 726 kCal</title></rect><rect fill="#ffba00" height="2.6" width="2.6" x="55.5" y="45.5"><title>2016-03-28 644 kCal</title></rect><rect fill="#ffb900" height="2.6" width="2.6" x="55.5" y="49.0"><title>2016-03-29 658 kCal</title></rect><rect fill="#ffb600" height="2.6" width="2.6" x="55.5" y="52.5"><title>2016-03-30 680 kCal</title></rect><rect fill="#3effb8" height="2.6" width="2.6" x="55.5" y="56.0"><title>2016-03-31 457 kCal</title></rect><rect fill="#3dffa9" height="2.6" width="2.6" x="55.5" y="59.5"><title>2016-04-01 510 kCal</title></rect><rect fill="#ffb400" height="2.6" width="2.6" x="55.5" y="63.0"><title>2016-04-02 695 kCal</title></rect><rect fill="#3dffab" height="2.6" width="2.6" x="55.5" y="66.5"><title>2016-04-03 505 kCal</title></rect><rect fill="#41ffd2" height="2.6" width="2.6" x="59.0" y="45.5"><title>2016-04-04 365 kCal</title></rect><rect fill="#ffb900" height="2.6" width="2.6" x="59.0" y="49.0"><title>2016-04-05 658 kCal</title></rect><rect fill="#3dffab" height="2.6" width="2.6" x="59.0" y="52.5"><title>2016-04-06 503 kCal</title></rect><rect fill="#3bff99" height="2.6" width="2.6" x="59.0" y="56.0"><title>2016-04-07 566 kCal</title></rect><rect fill="#ffb200" height="2.6" width="2.6" x="59.0" y="59.5"><title>2016-04-08 714 kCal</title></rect><rect fill="#3effb9" height="2.6" width="2.6" x="59.0" y="63.0"><title>2016-04-09 453 kCal</title></rect><rect fill="red" height="2.6" width="2.6" x="59.0" y="66.5"><title>2016-04-10 994 kCal</title></rect><rect fill="#3dffab" height="2.6" width="2.6" x="62.5" y="45.5"><title>2016-04-11 505 kCal</title></rect><rect fill="#3dffb0" height="2.6" width="2.6" x="62.5" y="49.0"><title>2016-04-12 485 kCal</title></rect><rect fill="red" height="2.6" width="2.6" x="62.5" y="52.5"><title>2016-04-13 776 kCal</title></rect><rect fill="red" height="2.6" width="2.6" x="62.5" y="56.0"><title>2016-04-14 1011 kCal</title></rect><rect fill="red" height="2.6" width="2.6" x="62.5" y="59.5"><title>2016-04-15 950 kCal</title></rect><rect fill="#ffbb00" height="2.6" width="2.6" x="62.5" y="63.0"><title>2016-04-16 638 kCal</title></rect><rect fill="#3cffa4" height="2.6" width="2.6" x="62.5" y="66.5"><title>2016-04-17 529 kCal</title></rect><rect fill="#3effb6" height="2.6" width="2.6" x="66.0" y="45.5"><title>2016-04-18 466 kCal</title></rect><rect fill="#ffbe00" height="2.6" width="2.6" x="66.0" y="49.0"><title>2016-04-19 612 kCal</title></rect><rect fill="red" height="2.6" width="2.6" x="66.0" y="52.5"><title>2016-04-20 844 kCal</title></rect><rect fill="#ffb400" height="2.6" width="2.6" x="66.0" y="56.0"><title>2016-04-21 704 kCal</title></rect><rect fill="#3bff9a" height="2.6" width="2.6" x="66.0" y="59.5"><title>2016-04-22 565 kCal</title></rect><rect fill="#ffba00" height="2.6" width="2.6" x="66.0" y="63.0"><title>2016-04-23 647 kCal</title></rect><rect fill="#3bff9d" height="2.6" width="2.6" x="66.0" y="66.5"><title>2016-04-24 552 kCal</title></rect><rect fill="#ffbd00" height="2.6" width="2.6" x="69.5" y="45.5"><title>2016-04-25 618 kCal</title></rect><rect fill="red" height="2.6" width="2.6" x="69.5" y="49.0"><title>2016-04-26 721 kCal</title></rect><rect fill="#3cffa5" height="2.6" width="2.6" x="69.5" y="52.5"><title>2016-04-27 526 kCal</title></rect><rect fill="#ffb600" height="2.6" width="2.6" x="69.5" y="56.0"><title>2016-04-28 682 kCal</title></rect><rect fill="#ffc000" height="2.6" width="2.6" x="69.5" y="59.5"><title>2016-04-29 593 kCal</title></rect><rect fill="#ffb700" height="2.6" width="2.6" x="69.5" y="63.0"><title>2016-04-30 671 kCal</title></rect><rect fill="red" height="2.6" width="2.6" x="69.5" y="66.5"><title>2016-05-01 914 kCal</title></rect><rect fill="red" height="2.6" width="2.6" x="73.0" y="45.5"><title>2016-05-02 730 kCal</title></rect><rect fill="#ffbf00" height="2.6" width="2.6" x="73.0" y="49.0"><title>2016-05-03 595 kCal</title></rect><rect fill="#ffb600" height="2.6" width="2.6" x="73.0" y="52.5"><title>2016-05-04 680 kCal</title></rect><rect fill="#ffb600" height="2.6" width="2.6" x="73.0" y="56.0"><title>2016-05-05 685 kCal</title></rect><rect fill="#3fffbc" height="2.6" width="2.6" x="73.0" y="59.5"><title>2016-05-06 444 kCal</title></rect><rect fill="red" height="2.6" width="2.6" x="73.0" y="63.0"><title>2016-05-07 961 kCal</title></rect><rect fill="#ffb800" height="2.6" width="2.6" x="73.0" y="66.5"><title>2016-05-08 660 kCal</title></rect><rect fill="#ffbd00" height="2.6" width="2.6" x="76.5" y="45.5"><title>2016-05-09 617 kCal</title></rect><rect fill="#3bff98" height="2.6" width="2.6" x="76.5" y="49.0"><title>2016-05-10 569 kCal</title></rect><rect fill="#ffb800" height="2.6" width="2.6" x="76.5" y="52.5"><title>2016-05-11 663 kCal</title></rect><rect fill="#3dffab" height="2.6" width="2.6" x="76.5" y="56.0"><title>2016-05-12 505 kCal</title></rect><rect fill="#3dffab" height="2.6" width="2.6" x="76.5" y="59.5"><title>2016-05-13 504 kCal</title></rect><rect fill="#ffb700" height="2.6" width="2.6" x="76.5" y="63.0"><title>2016-05-14 675 kCal</title></rect><rect fill="#ffbf00" height="2.6" width="2.6" x="76.5" y="66.5"><title>2016-05-15 603 kCal</title></rect><rect fill="#3effb4" height="2.6" width="2.6" x="80.0" y="45.5"><title>2016-05-16 472 kCal</title></rect><rect fill="#ffb800" height="2.6" width="2.6" x="80.0" y="49.0"><title>2016-05-17 659 kCal</title></rect><rect fill="#ffbc00" height="2.6" width="2.6" x="80.0" y="52.5"><title>2016-05-18 626 kCal</title></rect><rect fill="#41ffcc" height="2.6" width="2.6" x="80.0" y="56.0"><title>2016-05-19 386 kCal</title></rect><rect fill="#4cd9ff" height="2.6" width="2.6" x="80.0" y="59.5"><title>2016-05-20 42 kCal</title></rect><rect fill="#ffb800" height="2.6" width="2.6" x="80.0" y="63.0"><title>2016-05-21 667 kCal</title></rect><rect fill="#ffb900" height="2.6" width="2.6" x="80.0" y="66.5"><title>2016-05-22 654 kCal</title></rect><rect fill="#ffb400" height="2.6" width="2.6" x="83.5" y="45.5"><title>2016-05-23 695 kCal</title></rect><rect fill="#ffb900" height="2.6" width="2.6" x="83.5" y="49.0"><title>2016-05-24 651 kCal</title></rect><rect fill="#ffbf00" height="2.6" width="2.6" x="83.5" y="52.5"><title>2016-05-25 595 kCal</title></rect><rect fill="red" height="2.6" width="2.6" x="83.5" y="56.0"><title>2016-05-26 764 kCal</title></rect><rect fill="#ffb600" height="2.6" width="2.6" x="83.5" y="59.5"><title>2016-05-27 681 kCal</title></rect><rect fill="#43ffe0" height="2.6" width="2.6" x="83.5" y="63.0"><title>2016-05-28 311 kCal</title></rect><rect fill="#3cffa8" height="2.6" width="2.6" x="83.5" y="66.5"><title>2016-05-29 516 kCal</title></rect><rect fill="#ffb800" height="2.6" width="2.6" x="87.0" y="45.5"><title>2016-05-30 662 kCal</title></rect><rect fill="#ffbf00" height="2.6" width="2.6" x="87.0" y="49.0"><title>2016-05-31 601 kCal</title></rect><rect fill="#3dffab" height="2.6" width="2.6" x="87.0" y="52.5"><title>2016-06-01 505 kCal</title></rect><rect fill="#3cffa5" height="2.6" width="2.6" x="87.0" y="56.0"><title>2016-06-02 526 kCal</title></rect><rect fill="#ffb300" height="2.6" width="2.6" x="87.0" y="59.5"><title>2016-06-03 712 kCal</title></rect><rect fill="#41ffd0" height="2.6" width="2.6" x="87.0" y="63.0"><title>2016-06-04 371 kCal</title></rect><rect fill="#3effba" height="2.6" width="2.6" x="87.0" y="66.5"><title>2016-06-05 452 kCal</title></rect><rect fill="#3aff97" height="2.6" width="2.6" x="90.5" y="45.5"><title>2016-06-06 575 kCal</title></rect><rect fill="red" height="2.6" width="2.6" x="90.5" y="49.0"><title>2016-06-07 743 kCal</title></rect><rect fill="#3effb9" height="2.6" width="2.6" x="90.5" y="52.5"><title>2016-06-08 456 kCal</title></rect><rect fill="#3dffb0" height="2.6" width="2.6" x="90.5" y="56.0"><title>2016-06-09 488 kCal</title></rect><rect fill="#ffbf00" height="2.6" width="2.6" x="90.5" y="59.5"><title>2016-06-10 598 kCal</title></rect><rect fill="#ffb500" height="2.6" width="2.6" x="90.5" y="63.0"><title>2016-06-11 688 kCal</title></rect><rect fill="red" height="2.6" width="2.6" x="90.5" y="66.5"><title>2016-06-12 763 kCal</title></rect><rect fill="#40ffc3" height="2.6" width="2.6" x="94.0" y="45.5"><title>2016-06-13 420 kCal</title></rect><rect fill="#3effb7" height="2.6" width="2.6" x="94.0" y="49.0"><title>2016-06-14 461 kCal</title></rect><rect fill="red" height="2.6" width="2.6" x="94.0" y="52.5"><title>2016-06-15 771 kCal</title></rect><rect fill="#ffba00" height="2.6" width="2.6" x="94.0" y="56.0"><title>2016-06-16 643 kCal</title></rect><rect fill="#3cffa4" height="2.6" width="2.6" x="94.0" y="59.5"><title>2016-06-17 528 kCal</title></rect><rect fill="#3dffac" height="2.6" width="2.6" x="94.0" y="63.0"><title>2016-06-18 501 kCal</title></rect><rect fill="#ffb900" height="2.6" width="2.6" x="94.0" y="66.5"><title>2016-06-19 651 kCal</title></rect><rect fill="#ffb500" height="2.6" width="2.6" x="97.5" y="45.5"><title>2016-06-20 688 kCal</title></rect><rect fill="#ffbc00" height="2.6" width="2.6" x="97.5" y="49.0"><title>2016-06-21 629 kCal</title></rect><rect fill="#3bff98" height="2.6" width="2.6" x="97.5" y="52.5"><title>2016-06-22 570 kCal</title></rect><rect fill="#3aff96" height="2.6" width="2.6" x="97.5" y="56.0"><title>2016-06-23 576 kCal</title></rect><rect fill="#3cffa6" height="2.6" width="2.6" x="97.5" y="59.5"><title>2016-06-24 522 kCal</title></rect><rect fill="#4cdcff" height="2.6" width="2.6" x="97.5" y="63.0"><title>2016-06-25 51 kCal</title></rect><rect fill="#ffc100" height="2.6" width="2.6" x="97.5" y="66.5"><title>2016-06-26 584 kCal</title></rect><rect fill="#ffba00" height="2.6" width="2.6" x="101.0" y="45.5"><title>2016-06-27 640 kCal</title></rect><rect fill="#3bff99" height="2.6" width="2.6" x="101.0" y="49.0"><title>2016-06-28 566 kCal</title></rect><rect fill="#ffb500" height="2.6" width="2.6" x="101.0" y="52.5"><title>2016-06-29 692 kCal</title></rect><rect fill="red" height="2.6" width="2.6" x="101.0" y="56.0"><title>2016-06-30 779 kCal</title></rect><rect fill="#3dffa9" height="2.6" width="2.6" x="101.0" y="59.5"><title>2016-07-01 511 kCal</title></rect><rect fill="red" height="2.6" width="2.6" x="101.0" y="63.0"><title>2016-07-02 782 kCal</title></rect><rect fill="#41ffcf" height="2.6" width="2.6" x="101.0" y="66.5"><title>2016-07-03 374 kCal</title></rect><rect fill="#4aebff" height="2.6" width="2.6" x="104.5" y="45.5"><title>2016-07-04 114 kCal</title></rect><rect fill="#ffc000" height="2.6" width="2.6" x="104.5" y="49.0"><title>2016-07-05 588 kCal</title></rect><rect fill="#3dffac" height="2.6" width="2.6" x="104.5" y="52.5"><title>2016-07-06 499 kCal</title></rect><rect fill="#ffb600" height="2.6" width="2.6" x="104.5" y="56.0"><title>2016-07-07 683 kCal</title></rect><rect fill="red" height="2.6" width="2.6" x="104.5" y="59.5"><title>2016-07-08 741 kCal</title></rect><rect fill="#3effb3" height="2.6" width="2.6" x="104.5" y="63.0"><title>2016-07-09 475 kCal</title></rect><rect fill="red" height="2.6" width="2.6" x="104.5" y="66.5"><title>2016-07-10 725 kCal</title></rect><rect fill="#ffc100" height="2.6" width="2.6" x="108.0" y="45.5"><title>2016-07-11 583 kCal</title></rect><rect fill="#3dffae" height="2.6" width="2.6" x="108.0" y="49.0"><title>2016-07-12 492 kCal</title></rect><rect fill="#ffb600" height="2.6" width="2.6" x="108.0" y="52.5"><title>2016-07-13 678 kCal</title></rect><rect fill="#ffbe00" height="2.6" width="2.6" x="108.0" y="56.0"><title>2016-07-14 611 kCal</title></rect><rect fill="#ffc100" height="2.6" width="2.6" x="108.0" y="59.5"><title>2016-07-15 584 kCal</title></rect><rect fill="#ffba00" height="2.6" width="2.6" x="108.0" y="63.0"><title>2016-07-16 641 kCal</title></rect><rect fill="#3fffbe" height="2.6" width="2.6" x="108.0" y="66.5"><title>2016-07-17 435 kCal</title></rect><rect fill="#ffb500" height="2.6" width="2.6" x="111.5" y="45.5"><title>2016-07-18 689 kCal</title></rect><rect fill="#ffc000" height="2.6" width="2.6" x="111.5" y="49.0"><title>2016-07-19 587 kCal</title></rect><rect fill="#3effb4" height="2.6" width="2.6" x="111.5" y="52.5"><title>2016-07-20 474 kCal</title></rect><rect fill="#3dffaf" height="2.6" width="2.6" x="111.5" y="56.0"><title>2016-07-21 490 kCal</title></rect><rect fill="#3cffa2" height="2.6" width="2.6" x="111.5" y="59.5"><title>2016-07-22 536 kCal</title></rect><rect fill="#ffb800" height="2.6" width="2.6" x="111.5" y="63.0"><title>2016-07-23 660 kCal</title></rect><rect fill="#4dd2ff" height="2.6" width="2.6" x="111.5" y="66.5"><title>2016-07-24 11 kCal</title></rect><rect fill="#46fff6" height="2.6" width="2.6" x="115.0" y="45.5"><title>2016-07-25 227 kCal</title></rect><rect fill="#ffb400" height="2.6" width="2.6" x="115.0" y="49.0"><title>2016-07-26 698 kCal</title></rect><rect fill="#ffbd00" height="2.6" width="2.6" x="115.0" y="52.5"><title>2016-07-27 615 kCal</title></rect><rect fill="#3bff9a" height="2.6" width="2.6" x="115.0" y="56.0"><title>2016-07-28 564 kCal</title></rect><rect fill="#ffb600" height="2.6" width="2.6" x="115.0" y="59.5"><title>2016-07-29 678 kCal</title></rect><rect fill="#43ffe1" height="2.6" width="2.6" x="115.0" y="63.0"><title>2016-07-30 308 kCal</title></rect><rect fill="#3dffb0" height="2.6" width="2.6" x="115.0" y="66.5"><title>2016-07-31 487 kCal</title></rect><rect fill="#3fffc1" height="2.6" width="2.6" x="118.5" y="45.5"><title>2016-08-01 424 kCal</title></rect><rect fill="#ffc000" height="2.6" width="2.6" x="118.5" y="49.0"><title>2016-08-02 585 kCal</title></rect><rect fill="#43ffe1" height="2.6" width="2.6" x="118.5" y="52.5"><title>2016-08-03 307 kCal</title></rect><rect fill="#444444" height="2.6" width="2.6" x="118.5" y="56.0"><title>2016-08-04</title></rect><rect fill="#444444" height="2.6" width="2.6" x="118.5" y="59.5"><title>2016-08-05</title></rect><rect fill="#444444" height="2.6" width="2.6" x="118.5" y="63.0"><title>2016-08-06</title></rect><rect fill="#444444" height="2.6" width="2.6" x="118.5" y="66.5"><title>2016-08-07</title></rect><rect fill="#ffb900" height="2.6" width="2.6" x="122.0" y="45.5"><title>2016-08-08 653 kCal</title></rect><rect fill="#3bff9f" height="2.6" width="2.6" x="122.0" y="49.0"><title>2016-08-09 545 kCal</title></rect><rect fill="#ffba00" height="2.6" width="2.6" x="122.0" y="52.5"><title>2016-08-10 644 kCal</title></rect><rect fill="#ffb400" height="2.6" width="2.6" x="122.0" y="56.0"><title>2016-08-11 697 kCal</title></rect><rect fill="red" height="2.6" width="2.6" x="122.0" y="59.5"><title>2016-08-12 722 kCal</title></rect><rect fill="#3bff9a" height="2.6" width="2.6" x="122.0" y="63.0"><title>2016-08-13 562 kCal</title></rect><rect fill="#41ffd0" height="2.6" width="2.6" x="122.0" y="66.5"><title>2016-08-14 371 kCal</title></rect><rect fill="red" height="2.6" width="2.6" x="125.5" y="45.5"><title>2016-08-15 952 kCal</title></rect><rect fill="#ffc000" height="2.6" width="2.6" x="125.5" y="49.0"><title>2016-08-16 593 kCal</title></rect><rect fill="#3effb2" height="2.6" width="2.6" x="125.5" y="52.5"><title>2016-08-17 481 kCal</title></rect><rect fill="#45fff1" height="2.6" width="2.6" x="125.5" y="56.0"><title>2016-08-18 246 kCal</title></rect><rect fill="#3cffa4" height="2.6" width="2.6" x="125.5" y="59.5"><title>2016-08-19 528 kCal</title></rect><rect fill="red" height="2.6" width="2.6" x="125.5" y="63.0"><title>2016-08-20 869 kCal</title></rect><rect fill="#ffba00" height="2.6" width="2.6" x="125.5" y="66.5"><title>2016-08-21 647 kCal</title></rect><rect fill="#40ffc8" height="2.6" width="2.6" x="129.0" y="45.5"><title>2016-08-22 402 kCal</title></rect><rect fill="#3cffa2" height="2.6" width="2.6" x="129.0" y="49.0"><title>2016-08-23 534 kCal</title></rect><rect fill="#3bff9a" height="2.6" width="2.6" x="129.0" y="52.5"><title>2016-08-24 563 kCal</title></rect><rect fill="#ffb400" height="2.6" width="2.6" x="129.0" y="56.0"><title>2016-08-25 697 kCal</title></rect><rect fill="#3cffa4" height="2.6" width="2.6" x="129.0" y="59.5"><title>2016-08-26 528 kCal</title></rect><rect fill="#47fdff" height="2.6" width="2.6" x="129.0" y="63.0"><title>2016-08-27 187 kCal</title></rect><rect fill="#43ffdd" height="2.6" width="2.6" x="129.0" y="66.5"><title>2016-08-28 323 kCal</title></rect><rect fill="#3effb9" height="2.6" width="2.6" x="132.5" y="45.5"><title>2016-08-29 454 kCal</title></rect><rect fill="#ffbd00" height="2.6" width="2.6" x="132.5" y="49.0"><title>2016-08-30 615 kCal</title></rect><rect fill="#ffbc00" height="2.6" width="2.6" x="132.5" y="52.5"><title>2016-08-31 628 kCal</title></rect><rect fill="#3dffaf" height="2.6" width="2.6" x="132.5" y="56.0"><title>2016-09-01 489 kCal</title></rect><rect fill="#3dffae" height="2.6" width="2.6" x="132.5" y="59.5"><title>2016-09-02 492 kCal</title></rect><rect fill="red" height="2.6" width="2.6" x="132.5" y="63.0"><title>2016-09-03 787 kCal</title></rect><rect fill="#45fff3" height="2.6" width="2.6" x="132.5" y="66.5"><title>2016-09-04 241 kCal</title></rect><rect fill="#45ffef" height="2.6" width="2.6" x="136.0" y="45.5"><title>2016-09-05 256 kCal</title></rect><rect fill="red" height="2.6" width="2.6" x="136.0" y="49.0"><title>2016-09-06 943 kCal</title></rect><rect fill="#ffb900" height="2.6" width="2.6" x="136.0" y="52.5"><title>2016-09-07 656 kCal</title></rect><rect fill="#3effb8" height="2.6" width="2.6" x="136.0" y="56.0"><title>2016-09-08 457 kCal</title></rect><rect fill="#3cffa4" height="2.6" width="2.6" x="136.0" y="59.5"><title>2016-09-09 530 kCal</title></rect><rect fill="#3bff9a" height="2.6" width="2.6" x="136.0" y="63.0"><title>2016-09-10 565 kCal</title></rect><rect fill="#ffb400" height="2.6" width="2.6" x="136.0" y="66.5"><title>2016-09-11 695 kCal</title></rect><rect fill="#ffc000" height="2.6" width="2.6" x="139.5" y="45.5"><title>2016-09-12 587 kCal</title></rect><rect fill="#3cffa1" height="2.6" width="2.6" x="139.5" y="49.0"><title>2016-09-13 539 kCal</title></rect><rect fill="#3bff9d" height="2.6" width="2.6" x="139.5" y="52.5"><title>2016-09-14 553 kCal</title></rect><rect fill="red" height="2.6" width="2.6" x="139.5" y="56.0"><title>2016-09-15 794 kCal</title></rect><rect fill="#3dffaa" height="2.6" width="2.6" x="139.5" y="59.5"><title>2016-09-16 507 kCal</title></rect><rect fill="#ffb300" height="2.6" width="2.6" x="139.5" y="63.0"><title>2016-09-17 708 kCal</title></rect><rect fill="#ffbd00" height="2.6" width="2.6" x="139.5" y="66.5"><title>2016-09-18 620 kCal</title></rect><rect fill="red" height="2.6" width="2.6" x="143.0" y="45.5"><title>2016-09-19 1276 kCal</title></rect><rect fill="#42ffd5" height="2.6" width="2.6" x="143.0" y="49.0"><title>2016-09-20 352 kCal</title></rect><rect fill="#ffb900" height="2.6" width="2.6" x="143.0" y="52.5"><title>2016-09-21 656 kCal</title></rect><rect fill="#3effb7" height="2.6" width="2.6" x="143.0" y="56.0"><title>2016-09-22 462 kCal</title></rect><rect fill="#ffbb00" height="2.6" width="2.6" x="143.0" y="59.5"><title>2016-09-23 634 kCal</title></rect><rect fill="#ffbe00" height="2.6" width="2.6" x="143.0" y="63.0"><title>2016-09-24 605 kCal</title></rect><rect fill="#3bff9b" height="2.6" width="2.6" x="143.0" y="66.5"><title>2016-09-25 561 kCal</title></rect><rect fill="#3cffa3" height="2.6" width="2.6" x="146.5" y="45.5"><title>2016-09-26 532 kCal</title></rect><rect fill="#3dffaa" height="2.6" width="2.6" x="146.5" y="49.0"><title>2016-09-27 509 kCal</title></rect><rect fill="#ffbb00" height="2.6" width="2.6" x="146.5" y="52.5"><title>2016-09-28 631 kCal</title></rect><rect fill="#3bff9c" height="2.6" width="2.6" x="146.5" y="56.0"><title>2016-09-29 557 kCal</title></rect><rect fill="#ffb900" height="2.6" width="2.6" x="146.5" y="59.5"><title>2016-09-30 655 kCal</title></rect><rect fill="red" height="2.6" width="2.6" x="146.5" y="63.0"><title>2016-10-01 729 kCal</title></rect><rect fill="#ffbf00" height="2.6" width="2.6" x="146.5" y="66.5"><title>2016-10-02 599 kCal</title></rect><rect fill="red" height="2.6" width="2.6" x="150.0" y="45.5"><title>2016-10-03 1197 kCal</title></rect><rect fill="red" height="2.6" width="2.6" x="150.0" y="49.0"><title>2016-10-04 1312 kCal</title></rect><rect fill="#ffb500" height="2.6" width="2.6" x="150.0" y="52.5"><title>2016-10-05 686 kCal</title></rect><rect fill="#43ffe2" height="2.6" width="2.6" x="150.0" y="56.0"><title>2016-10-06 304 kCal</title></rect><rect fill="#ffb300" height="2.6" width="2.6" x="150.0" y="59.5"><title>2016-10-07 706 kCal</title></rect><rect fill="#49f1ff" height="2.6" width="2.6" x="150.0" y="63.0"><title>2016-10-08 137 kCal</title></rect><rect fill="#3cffa3" height="2.6" width="2.6" x="150.0" y="66.5"><title>2016-10-09 532 kCal</title></rect><rect fill="#3bff9a" height="2.6" width="2.6" x="153.5" y="45.5"><title>2016-10-10 562 kCal</title></rect><rect fill="#3effb8" height="2.6" width="2.6" x="153.5" y="49.0"><title>2016-10-11 457 kCal</title></rect><rect fill="#ffbc00" height="2.6" width="2.6" x="153.5" y="52.5"><title>2016-10-12 624 kCal</title></rect><rect fill="#3bff9f" height="2.6" width="2.6" x="153.5" y="56.0"><title>2016-10-13 546 kCal</title></rect><rect fill="#42ffd6" height="2.6" width="2.6" x="153.5" y="59.5"><title>2016-10-14 349 kCal</title></rect><rect fill="#ffb500" height="2.6" width="2.6" x="153.5" y="63.0"><title>2016-10-15 687 kCal</title></rect><rect fill="#3fffbb" height="2.6" width="2.6" x="153.5" y="66.5"><title>2016-10-16 446 kCal</title></rect><rect fill="red" height="2.6" width="2.6" x="157.0" y="45.5"><title>2016-10-17 791 kCal</title></rect><rect fill="#44ffe4" height="2.6" width="2.6" x="157.0" y="49.0"><title>2016-10-18 297 kCal</title></rect><rect fill="red" height="2.6" width="2.6" x="157.0" y="52.5"><title>2016-10-19 1112 kCal</title></rect><rect fill="#444444" height="2.6" width="2.6" x="157.0" y="56.0"><title>2016-10-20</title></rect><rect fill="#444444" height="2.6" width="2.6" x="157.0" y="59.5"><title>2016-10-21</title></rect><rect fill="#40ffc8" height="2.6" width="2.6" x="157.0" y="63.0"><title>2016-10-22 402 kCal</title></rect><rect fill="#ffc000" height="2.6" width="2.6" x="157.0" y="66.5"><title>2016-10-23 585 kCal</title></rect><rect fill="#ffba00" height="2.6" width="2.6" x="160.5" y="45.5"><title>2016-10-24 644 kCal</title></rect><rect fill="#ffb900" height="2.6" width="2.6" x="160.5" y="49.0"><title>2016-10-25 658 kCal</title></rect><rect fill="#3dffab" height="2.6" width="2.6" x="160.5" y="52.5"><title>2016-10-26 503 kCal</title></rect><rect fill="#ffbd00" height="2.6" width="2.6" x="160.5" y="56.0"><title>2016-10-27 615 kCal</title></rect><rect fill="#3effb6" height="2.6" width="2.6" x="160.5" y="59.5"><title>2016-10-28 466 kCal</title></rect><rect fill="#41ffcd" height="2.6" width="2.6" x="160.5" y="63.0"><title>2016-10-29 381 kCal</title></rect><rect fill="#3effb3" height="2.6" width="2.6" x="160.5" y="66.5"><title>2016-10-30 477 kCal</title></rect><rect fill="#3cffa7" height="2.6" width="2.6" x="164.0" y="45.5"><title>2016-10-31 520 kCal</title></rect><rect fill="#44ffea" height="2.6" width="2.6" x="164.0" y="49.0"><title>2016-11-01 273 kCal</title></rect><rect fill="#ffb700" height="2.6" width="2.6" x="164.0" y="52.5"><title>2016-11-02 670 kCal</title></rect><rect fill="#3cffa6" height="2.6" width="2.6" x="164.0" y="56.0"><title>2016-11-03 523 kCal</title></rect><rect fill="red" height="2.6" width="2.6" x="164.0" y="59.5"><title>2016-11-04 942 kCal</title></rect><rect fill="#3cffa1" height="2.6" width="2.6" x="164.0" y="63.0"><title>2016-11-05 539 kCal</title></rect><rect fill="#3bff98" height="2.6" width="2.6" x="164.0" y="66.5"><title>2016-11-06 571 kCal</title></rect><rect fill="red" height="2.6" width="2.6" x="167.5" y="45.5"><title>2016-11-07 869 kCal</title></rect><rect fill="#3dffa9" height="2.6" width="2.6" x="167.5" y="49.0"><title>2016-11-08 510 kCal</title></rect><rect fill="#3fffbe" height="2.6" width="2.6" x="167.5" y="52.5"><title>2016-11-09 436 kCal</title></rect><rect fill="red" height="2.6" width="2.6" x="167.5" y="56.0"><title>2016-11-10 756 kCal</title></rect><rect fill="#3cffa6" height="2.6" width="2.6" x="167.5" y="59.5"><title>2016-11-11 521 kCal</title></rect><rect fill="#ffba00" height="2.6" width="2.6" x="167.5" y="63.0"><title>2016-11-12 644 kCal</title></rect><rect fill="#40ffc3" height="2.6" width="2.6" x="167.5" y="66.5"><title>2016-11-13 417 kCal</title></rect><rect fill="#3effb3" height="2.6" width="2.6" x="171.0" y="45.5"><title>2016-11-14 475 kCal</title></rect><rect fill="#3fffbd" height="2.6" width="2.6" x="171.0" y="49.0"><title>2016-11-15 439 kCal</title></rect><rect fill="#ffbb00" height="2.6" width="2.6" x="171.0" y="52.5"><title>2016-11-16 637 kCal</title></rect><rect fill="red" height="2.6" width="2.6" x="171.0" y="56.0"><title>2016-11-17 749 kCal</title></rect><rect fill="red" height="2.6" width="2.6" x="171.0" y="59.5"><title>2016-11-18 833 kCal</title></rect><rect fill="red" height="2.6" width="2.6" x="171.0" y="63.0"><title>2016-11-19 750 kCal</title></rect><rect fill="red" height="2.6" width="2.6" x="171.0" y="66.5"><title>2016-11-20 1185 kCal</title></rect><rect fill="#3cffa3" height="2.6" width="2.6" x="174.5" y="45.5"><title>2016-11-21 533 kCal</title></rect><rect fill="red" height="2.6" width="2.6" x="174.5" y="49.0"><title>2016-11-22 973 kCal</title></rect><rect fill="#ffb900" height="2.6" width="2.6" x="174.5" y="52.5"><title>2016-11-23 655 kCal</title></rect><rect fill="#3fffc1" height="2.6" width="2.6" x="174.5" y="56.0"><title>2016-11-24 424 kCal</title></rect><rect fill="#3effb3" height="2.6" width="2.6" x="174.5" y="59.5"><title>2016-11-25 477 kCal</title></rect><rect fill="#40ffc4" height="2.6" width="2.6" x="174.5" y="63.0"><title>2016-11-26 415 kCal</title></rect><rect fill="#ffb900" height="2.6" width="2.6" x="174.5" y="66.5"><title>2016-11-27 655 kCal</title></rect><rect fill="#ffbe00" height="2.6" width="2.6" x="178.0" y="45.5"><title>2016-11-28 612 kCal</title></rect><rect fill="red" height="2.6" width="2.6" x="178.0" y="49.0"><title>2016-11-29 721 kCal</title></rect><rect fill="#ffc100" height="2.6" width="2.6" x="178.0" y="52.5"><title>2016-11-30 583 kCal</title></rect><rect fill="#3cffa4" height="2.6" width="2.6" x="178.0" y="56.0"><title>2016-12-01 529 kCal</title></rect><rect fill="#ffc000" height="2.6" width="2.6" x="178.0" y="59.5"><title>2016-12-02 591 kCal</title></rect><rect fill="#ffbe00" height="2.6" width="2.6" x="178.0" y="63.0"><title>2016-12-03 604 kCal</title></rect><rect fill="#44ffe7" height="2.6" width="2.6" x="178.0" y="66.5"><title>2016-12-04 284 kCal</title></rect><rect fill="#ffb900" height="2.6" width="2.6" x="181.5" y="45.5"><title>2016-12-05 655 kCal</title></rect><rect fill="#3dffae" height="2.6" width="2.6" x="181.5" y="49.0"><title>2016-12-06 495 kCal</title></rect><rect fill="red" height="2.6" width="2.6" x="181.5" y="52.5"><title>2016-12-07 808 kCal</title></rect><rect fill="#3cffa4" height="2.6" width="2.6" x="181.5" y="56.0"><title>2016-12-08 530 kCal</title></rect><rect fill="#ffb300" height="2.6" width="2.6" x="181.5" y="59.5"><title>2016-12-09 712 kCal</title></rect><rect fill="#3cffa1" height="2.6" width="2.6" x="181.5" y="63.0"><title>2016-12-10 539 kCal</title></rect><rect fill="red" height="2.6" width="2.6" x="181.5" y="66.5"><title>2016-12-11 2352 kCal</title></rect><rect fill="red" height="2.6" width="2.6" x="185.0" y="45.5"><title>2016-12-12 1207 kCal</title></rect><rect fill="red" height="2.6" width="2.6" x="185.0" y="49.0"><title>2016-12-13 893 kCal</title></rect><rect fill="#41ffd3" height="2.6" width="2.6" x="185.0" y="52.5"><title>2016-12-14 361 kCal</title></rect><rect fill="red" height="2.6" width="2.6" x="185.0" y="56.0"><title>2016-12-15 1108 kCal</title></rect><rect fill="#3bff98" height="2.6" width="2.6" x="185.0" y="59.5"><title>2016-12-16 572 kCal</title></rect><rect fill="#40ffc6" height="2.6" width="2.6" x="185.0" y="63.0"><title>2016-12-17 408 kCal</title></rect><rect fill="red" height="2.6" width="2.6" x="185.0" y="66.5"><title>2016-12-18 948 kCal</title></rect><rect fill="#3cffa7" height="2.6" width="2.6" x="188.5" y="45.5"><title>2016-12-19 519 kCal</title></rect><rect fill="#42ffd4" height="2.6" width="2.6" x="188.5" y="49.0"><title>2016-12-20 356 kCal</title></rect><rect fill="#3effb4" height="2.6" width="2.6" x="188.5" y="52.5"><title>2016-12-21 474 kCal</title></rect><rect fill="#3dffaa" height="2.6" width="2.6" x="188.5" y="56.0"><title>2016-12-22 506 kCal</title></rect><rect fill="#ffc000" height="2.6" width="2.6" x="188.5" y="59.5"><title>2016-12-23 592 kCal</title></rect><rect fill="red" height="2.6" width="2.6" x="188.5" y="63.0"><title>2016-12-24 892 kCal</title></rect><rect fill="red" height="2.6" width="2.6" x="188.5" y="66.5"><title>2016-12-25 831 kCal</title></rect><rect fill="#3fffba" height="2.6" width="2.6" x="192.0" y="45.5"><title>2016-12-26 451 kCal</title></rect><rect fill="#42ffd3" height="2.6" width="2.6" x="192.0" y="49.0"><title>2016-12-27 359 kCal</title></rect><rect fill="red" height="2.6" width="2.6" x="192.0" y="52.5"><title>2016-12-28 851 kCal</title></rect><rect fill="red" height="2.6" width="2.6" x="192.0" y="56.0"><title>2016-12-29 846 kCal</title></rect><rect fill="#3effb8" height="2.6" width="2.6" x="192.0" y="59.5"><title>2016-12-30 459 kCal</title></rect><rect fill="red" height="2.6" width="2.6" x="192.0" y="63.0"><title>2016-12-31 858 kCal</title></rect></svg>