<?xml version="1.0" encoding="utf-8" ?>
<svg baseProfile="full" height="78mm" version="1.1" viewBox="0,0,200,78" width="200mm" xmlns="http://www.w3.org/2000/svg" xmlns:ev="http://www.w3.org/2001/xml-events" xmlns:xlink="http://www.w3.org/1999/xlink"><defs /><rect fill="#222222" height="78" width="200" x="0" y="0" /><text fill="#FFFFFF" style="font-size:12px; font-family:Arial; font-weight:bold;" x="10" y="20">rip-tyang apple_health</text><text dominant-baseline="hanging" fill="#FFFFFF" style="font-size:10.0px; font-family:Arial;" x="10" y="30">2017</text><text dominant-baseline="hanging" fill="#FFFFFF" style="font-size:4.125px; font-family:Arial;" x="175" y="35">6212 hours</text><text fill="#FFFFFF" style="font-size:2.5px; font-family:Arial" x="10.0" y="44">Jan</text><text fill="#FFFFFF" style="font-size:2.5px; font-family:Arial" x="25.5" y="44">Feb</text><text fill="#FFFFFF" style="font-size:2.5px; font-family:Arial" x="41.0" y="44">Mar</text><text fill="#FFFFFF" style="font-size:2.5px; font-family:Arial" x="56.5" y="44">Apr</text><text fill="#FFFFFF" style="font-size:2.5px; font-family:Arial" x="72.0" y="44">May</text><text fill="#FFFFFF" style="font-size:2.5px; font-family:Arial" x="87.5" y="44">Jun</text><text fill="#FFFFFF" style="font-size:2.5px; font-family:Arial" x="103.0" y="44">Jul</text><text fill="#FFFFFF" style="font-size:2.5px; font-family:Arial" x="118.5" y="44">Aug</text><text fill="#FFFFFF" style="font-size:2.5px; font-family:Arial" x="134.0" y="44">Sep</text><text fill="#FFFFFF" style="font-size:2.5px; font-family:Arial" x="149.5" y="44">Oct</text><text fill="#FFFFFF" style="font-size:2.5px; font-family:Arial" x="165.0" y="44">Nov</text><text fill="#FFFFFF" style="font-size:2.5px; font-family:Arial" x="180.5" y="44">Dec</text><rect fill="#444444" height="2.6" width="2.6" x="10.0" y="45.5"><title>2016-12-26</title></rect><rect fill="#444444" height="2.6" width="2.6" x="10.0" y="49.0"><title>2016-12-27</title></rect><rect fill="#444444" height="2.6" width="2.6" x="10.0" y="52.5"><title>2016-12-28</title></rect><rect fill="#444444" height="2.6" width="2.6" x="10.0" y="56.0"><title>2016-12-29</title></rect><rect fill="#444444" height="2.6" width="2.6" x="10.0" y="59.5"><title>2016-12-30</title></rect><rect fill="#444444" height="2.6" width="2.6" x="10.0" y="63.0"><title>2016-12-31</title></rect><rect fill="#51ff2b" height="2.6" width="2.6" x="10.0" y="66.5"><title>2017-01-01 13 hours</title></rect><rect fill="#a0ff22" height="2.6" width="2.6" x="13.5" y="45.5"><title>2017-01-02 16 hours</title></rect><rect fill="#ff5200" height="2.6" width="2.6" x="13.5" y="49.0"><title>2017-01-03 19 hours</title></rect><rect fill="#6aff28" height="2.6" width="2.6" x="13.5" y="52.5"><title>2017-01-04 14 hours</title></rect><rect fill="#ff5200" height="2.6" width="2.6" x="13.5" y="56.0"><title>2017-01-05 19 hours</title></rect><rect fill="#bbff1f" height="2.6" width="2.6" x="13.5" y="59.5"><title>2017-01-06 17 hours</title></rect><rect fill="#bbff1f" height="2.6" width="2.6" x="13.5" y="63.0"><title>2017-01-07 17 hours</title></rect><rect fill="#a0ff22" height="2.6" width="2.6" x="13.5" y="66.5"><title>2017-01-08 16 hours</title></rect><rect fill="#bbff1f" height="2.6" width="2.6" x="17.0" y="45.5"><title>2017-01-09 17 hours</title></rect><rect fill="#85ff25" height="2.6" width="2.6" x="17.0" y="49.0"><title>2017-01-10 15 hours</title></rect><rect fill="#ff5c00" height="2.6" width="2.6" x="17.0" y="52.5"><title>2017-01-11 18 hours</title></rect><rect fill="#ff3300" height="2.6" width="2.6" x="17.0" y="56.0"><title>2017-01-12 22 hours</title></rect><rect fill="#a0ff22" height="2.6" width="2.6" x="17.0" y="59.5"><title>2017-01-13 16 hours</title></rect><rect fill="#ff5c00" height="2.6" width="2.6" x="17.0" y="63.0"><title>2017-01-14 18 hours</title></rect><rect fill="#bbff1f" height="2.6" width="2.6" x="17.0" y="66.5"><title>2017-01-15 17 hours</title></rect><rect fill="#a0ff22" height="2.6" width="2.6" x="20.5" y="45.5"><title>2017-01-16 16 hours</title></rect><rect fill="#6aff28" height="2.6" width="2.6" x="20.5" y="49.0"><title>2017-01-17 14 hours</title></rect><rect fill="#51ff2b" height="2.6" width="2.6" x="20.5" y="52.5"><title>2017-01-18 13 hours</title></rect><rect fill="#bbff1f" height="2.6" width="2.6" x="20.5" y="56.0"><title>2017-01-19 17 hours</title></rect><rect fill="#a0ff22" height="2.6" width="2.6" x="20.5" y="59.5"><title>2017-01-20 16 hours</title></rect><rect fill="#6aff28" height="2.6" width="2.6" x="20.5" y="63.0"><title>2017-01-21 14 hours</title></rect><rect fill="#38ff2e" height="2.6" width="2.6" x="20.5" y="66.5"><title>2017-01-22 12 hours</title></rect><rect fill="red" height="2.6" width="2.6" x="24.0" y="45.5"><title>2017-01-23 25 hours</title></rect><rect fill="#a0ff22" height="2.6" width="2.6" x="24.0" y="49.0"><title>2017-01-24 16 hours</title></rect><rect fill="#6aff28" height="2.6" width="2.6" x="24.0" y="52.5"><title>2017-01-25 14 hours</title></rect><rect fill="#a0ff22" height="2.6" width="2.6" x="24.0" y="56.0"><title>2017-01-26 16 hours</title></rect><rect fill="#85ff25" height="2.6" width="2.6" x="24.0" y="59.5"><title>2017-01-27 15 hours</title></rect><rect fill="#85ff25" height="2.6" width="2.6" x="24.0" y="63.0"><title>2017-01-28 15 hours</title></rect><rect fill="#6aff28" height="2.6" width="2.6" x="24.0" y="66.5"><title>2017-01-29 14 hours</title></rect><rect fill="#ff5c00" height="2.6" width="2.6" x="27.5" y="45.5"><title>2017-01-30 18 hours</title></rect><rect fill="#ff3300" height="2.6" width="2.6" x="27.5" y="49.0"><title>2017-01-31 22 hours</title></rect><rect fill="#ff3300" height="2.6" width="2.6" x="27.5" y="52.5"><title>2017-02-01 22 hours</title></rect><rect fill="red" height="2.6" width="2.6" x="27.5" y="56.0"><title>2017-02-02 24 hours</title></rect><rect fill="#a0ff22" height="2.6" width="2.6" x="27.5" y="59.5"><title>2017-02-03 16 hours</title></rect><rect fill="#ff5c00" height="2.6" width="2.6" x="27.5" y="63.0"><title>2017-02-04 18 hours</title></rect><rect fill="red" height="2.6" width="2.6" x="27.5" y="66.5"><title>2017-02-05 24 hours</title></rect><rect fill="red" height="2.6" width="2.6" x="31.0" y="45.5"><title>2017-02-06 24 hours</title></rect><rect fill="#ff3300" height="2.6" width="2.6" x="31.0" y="49.0"><title>2017-02-07 22 hours</title></rect><rect fill="#ff2900" height="2.6" width="2.6" x="31.0" y="52.5"><title>2017-02-08 23 hours</title></rect><rect fill="#ff2900" height="2.6" width="2.6" x="31.0" y="56.0"><title>2017-02-09 23 hours</title></rect><rect fill="red" height="2.6" width="2.6" x="31.0" y="59.5"><title>2017-02-10 24 hours</title></rect><rect fill="#ff3300" height="2.6" width="2.6" x="31.0" y="63.0"><title>2017-02-11 22 hours</title></rect><rect fill="#ff2900" height="2.6" width="2.6" x="31.0" y="66.5"><title>2017-02-12 23 hours</title></rect><rect fill="#a0ff22" height="2.6" width="2.6" x="34.5" y="45.5"><title>2017-02-13 16 hours</title></rect><rect fill="#ff2900" height="2.6" width="2.6" x="34.5" y="49.0"><title>2017-02-14 23 hours</title></rect><rect fill="#85ff25" height="2.6" width="2.6" x="34.5" y="52.5"><title>2017-02-15 15 hours</title></rect><rect fill="#ff3300" height="2.6" width="2.6" x="34.5" y="56.0"><title>2017-02-16 22 hours</title></rect><rect fill="#85ff25" height="2.6" width="2.6" x="34.5" y="59.5"><title>2017-02-17 15 hours</title></rect><rect fill="#ff2900" height="2.6" width="2.6" x="34.5" y="63.0"><title>2017-02-18 23 hours</title></rect><rect fill="#ff5200" height="2.6" width="2.6" x="34.5" y="66.5"><title>2017-02-19 19 hours</title></rect><rect fill="red" height="2.6" width="2.6" x="38.0" y="45.5"><title>2017-02-20 24 hours</title></rect><rect fill="#a0ff22" height="2.6" width="2.6" x="38.0" y="49.0"><title>2017-02-21 16 hours</title></rect><rect fill="#85ff25" height="2.6" width="2.6" x="38.0" y="52.5"><title>2017-02-22 15 hours</title></rect><rect fill="#ff2900" height="2.6" width="2.6" x="38.0" y="56.0"><title>2017-02-23 23 hours</title></rect><rect fill="#ff2900" height="2.6" width="2.6" x="38.0" y="59.5"><title>2017-02-24 23 hours</title></rect><rect fill="#a0ff22" height="2.6" width="2.6" x="38.0" y="63.0"><title>2017-02-25 16 hours</title></rect><rect fill="#bbff1f" height="2.6" width="2.6" x="38.0" y="66.5"><title>2017-02-26 17 hours</title></rect><rect fill="#a0ff22" height="2.6" width="2.6" x="41.5" y="45.5"><title>2017-02-27 16 hours</title></rect><rect fill="red" height="2.6" width="2.6" x="41.5" y="49.0"><title>2017-02-28 24 hours</title></rect><rect fill="#ff5200" height="2.6" width="2.6" x="41.5" y="52.5"><title>2017-03-01 19 hours</title></rect><rect fill="#a0ff22" height="2.6" width="2.6" x="41.5" y="56.0"><title>2017-03-02 16 hours</title></rect><rect fill="#ff2900" height="2.6" width="2.6" x="41.5" y="59.5"><title>2017-03-03 23 hours</title></rect><rect fill="red" height="2.6" width="2.6" x="41.5" y="63.0"><title>2017-03-04 24 hours</title></rect><rect fill="#ff2900" height="2.6" width="2.6" x="41.5" y="66.5"><title>2017-03-05 23 hours</title></rect><rect fill="red" height="2.6" width="2.6" x="45.0" y="45.5"><title>2017-03-06 24 hours</title></rect><rect fill="red" height="2.6" width="2.6" x="45.0" y="49.0"><title>2017-03-07 24 hours</title></rect><rect fill="#ff3300" height="2.6" width="2.6" x="45.0" y="52.5"><title>2017-03-08 22 hours</title></rect><rect fill="#ff2900" height="2.6" width="2.6" x="45.0" y="56.0"><title>2017-03-09 23 hours</title></rect><rect fill="#ff2900" height="2.6" width="2.6" x="45.0" y="59.5"><title>2017-03-10 23 hours</title></rect><rect fill="red" height="2.6" width="2.6" x="45.0" y="63.0"><title>2017-03-11 24 hours</title></rect><rect fill="red" height="2.6" width="2.6" x="45.0" y="66.5"><title>2017-03-12 24 hours</title></rect><rect fill="#ff2900" height="2.6" width="2.6" x="48.5" y="45.5"><title>2017-03-13 23 hours</title></rect><rect fill="#ff2900" height="2.6" width="2.6" x="48.5" y="49.0"><title>2017-03-14 23 hours</title></rect><rect fill="red" height="2.6" width="2.6" x="48.5" y="52.5"><title>2017-03-15 24 hours</title></rect><rect fill="#a0ff22" height="2.6" width="2.6" x="48.5" y="56.0"><title>2017-03-16 16 hours</title></rect><rect fill="#a0ff22" height="2.6" width="2.6" x="48.5" y="59.5"><title>2017-03-17 16 hours</title></rect><rect fill="red" height="2.6" width="2.6" x="48.5" y="63.0"><title>2017-03-18 24 hours</title></rect><rect fill="red" height="2.6" width="2.6" x="48.5" y="66.5"><title>2017-03-19 26 hours</title></rect><rect fill="red" height="2.6" width="2.6" x="52.0" y="45.5"><title>2017-03-20 24 hours</title></rect><rect fill="#6aff28" height="2.6" width="2.6" x="52.0" y="49.0"><title>2017-03-21 14 hours</title></rect><rect fill="#ff5200" height="2.6" width="2.6" x="52.0" y="52.5"><title>2017-03-22 19 hours</title></rect><rect fill="red" height="2.6" width="2.6" x="52.0" y="56.0"><title>2017-03-23 24 hours</title></rect><rect fill="#51ff2b" height="2.6" width="2.6" x="52.0" y="59.5"><title>2017-03-24 13 hours</title></rect><rect fill="#ff3300" height="2.6" width="2.6" x="52.0" y="63.0"><title>2017-03-25 22 hours</title></rect><rect fill="#85ff25" height="2.6" width="2.6" x="52.0" y="66.5"><title>2017-03-26 15 hours</title></rect><rect fill="#a0ff22" height="2.6" width="2.6" x="55.5" y="45.5"><title>2017-03-27 16 hours</title></rect><rect fill="#bbff1f" height="2.6" width="2.6" x="55.5" y="49.0"><title>2017-03-28 17 hours</title></rect><rect fill="#ff4700" height="2.6" width="2.6" x="55.5" y="52.5"><title>2017-03-29 20 hours</title></rect><rect fill="#85ff25" height="2.6" width="2.6" x="55.5" y="56.0"><title>2017-03-30 15 hours</title></rect><rect fill="#ff3300" height="2.6" width="2.6" x="55.5" y="59.5"><title>2017-03-31 22 hours</title></rect><rect fill="#ff3300" height="2.6" width="2.6" x="55.5" y="63.0"><title>2017-04-01 22 hours</title></rect><rect fill="red" height="2.6" width="2.6" x="55.5" y="66.5"><title>2017-04-02 27 hours</title></rect><rect fill="#ff3300" height="2.6" width="2.6" x="59.0" y="45.5"><title>2017-04-03 22 hours</title></rect><rect fill="#a0ff22" height="2.6" width="2.6" x="59.0" y="49.0"><title>2017-04-04 16 hours</title></rect><rect fill="#85ff25" height="2.6" width="2.6" x="59.0" y="52.5"><title>2017-04-05 15 hours</title></rect><rect fill="#ff5c00" height="2.6" width="2.6" x="59.0" y="56.0"><title>2017-04-06 18 hours</title></rect><rect fill="red" height="2.6" width="2.6" x="59.0" y="59.5"><title>2017-04-07 25 hours</title></rect><rect fill="#ff3d00" height="2.6" width="2.6" x="59.0" y="63.0"><title>2017-04-08 21 hours</title></rect><rect fill="#ff3300" height="2.6" width="2.6" x="59.0" y="66.5"><title>2017-04-09 22 hours</title></rect><rect fill="red" height="2.6" width="2.6" x="62.5" y="45.5"><title>2017-04-10 24 hours</title></rect><rect fill="#ff2900" height="2.6" width="2.6" x="62.5" y="49.0"><title>2017-04-11 23 hours</title></rect><rect fill="#bbff1f" height="2.6" width="2.6" x="62.5" y="52.5"><title>2017-04-12 17 hours</title></rect><rect fill="#ff2900" height="2.6" width="2.6" x="62.5" y="56.0"><title>2017-04-13 23 hours</title></rect><rect fill="#bbff1f" height="2.6" width="2.6" x="62.5" y="59.5"><title>2017-04-14 17 hours</title></rect><rect fill="red" height="2.6" width="2.6" x="62.5" y="63.0"><title>2017-04-15 25 hours</title></rect><rect fill="#ff3300" height="2.6" width="2.6" x="62.5" y="66.5"><title>2017-04-16 22 hours</title></rect><rect fill="#ff3300" height="2.6" width="2.6" x="66.0" y="45.5"><title>2017-04-17 22 hours</title></rect><rect fill="red" height="2.6" width="2.6" x="66.0" y="49.0"><title>2017-04-18 24 hours</title></rect><rect fill="#bbff1f" height="2.6" width="2.6" x="66.0" y="52.5"><title>2017-04-19 17 hours</title></rect><rect fill="#51ff2b" height="2.6" width="2.6" x="66.0" y="56.0"><title>2017-04-20 13 hours</title></rect><rect fill="#ff2900" height="2.6" width="2.6" x="66.0" y="59.5"><title>2017-04-21 23 hours</title></rect><rect fill="#ff2900" height="2.6" width="2.6" x="66.0" y="63.0"><title>2017-04-22 23 hours</title></rect><rect fill="#ff2900" height="2.6" width="2.6" x="66.0" y="66.5"><title>2017-04-23 23 hours</title></rect><rect fill="#a0ff22" height="2.6" width="2.6" x="69.5" y="45.5"><title>2017-04-24 16 hours</title></rect><rect fill="#51ff2b" height="2.6" width="2.6" x="69.5" y="49.0"><title>2017-04-25 13 hours</title></rect><rect fill="red" height="2.6" width="2.6" x="69.5" y="52.5"><title>2017-04-26 24 hours</title></rect><rect fill="#ff3d00" height="2.6" width="2.6" x="69.5" y="56.0"><title>2017-04-27 21 hours</title></rect><rect fill="#85ff25" height="2.6" width="2.6" x="69.5" y="59.5"><title>2017-04-28 15 hours</title></rect><rect fill="#ff3300" height="2.6" width="2.6" x="69.5" y="63.0"><title>2017-04-29 22 hours</title></rect><rect fill="red" height="2.6" width="2.6" x="69.5" y="66.5"><title>2017-04-30 24 hours</title></rect><rect fill="#ff2900" height="2.6" width="2.6" x="73.0" y="45.5"><title>2017-05-01 23 hours</title></rect><rect fill="#ff2900" height="2.6" width="2.6" x="73.0" y="49.0"><title>2017-05-02 23 hours</title></rect><rect fill="#ff5200" height="2.6" width="2.6" x="73.0" y="52.5"><title>2017-05-03 19 hours</title></rect><rect fill="#ff5200" height="2.6" width="2.6" x="73.0" y="56.0"><title>2017-05-04 19 hours</title></rect><rect fill="#51ff2b" height="2.6" width="2.6" x="73.0" y="59.5"><title>2017-05-05 13 hours</title></rect><rect fill="red" height="2.6" width="2.6" x="73.0" y="63.0"><title>2017-05-06 25 hours</title></rect><rect fill="#ff2900" height="2.6" width="2.6" x="73.0" y="66.5"><title>2017-05-07 23 hours</title></rect><rect fill="#bbff1f" height="2.6" width="2.6" x="76.5" y="45.5"><title>2017-05-08 17 hours</title></rect><rect fill="#ff5200" height="2.6" width="2.6" x="76.5" y="49.0"><title>2017-05-09 19 hours</title></rect><rect fill="red" height="2.6" width="2.6" x="76.5" y="52.5"><title>2017-05-10 24 hours</title></rect><rect fill="#bbff1f" height="2.6" width="2.6" x="76.5" y="56.0"><title>2017-05-11 17 hours</title></rect><rect fill="#ff3300" height="2.6" width="2.6" x="76.5" y="59.5"><title>2017-05-12 22 hours</title></rect><rect fill="#ff2900" height="2.6" width="2.6" x="76.5" y="63.0"><title>2017-05-13 23 hours</title></rect><rect fill="#ff2900" height="2.6" width="2.6" x="76.5" y="66.5"><title>2017-05-14 23 hours</title></rect><rect fill="#ff5c00" height="2.6" width="2.6" x="80.0" y="45.5"><title>2017-05-15 18 hours</title></rect><rect fill="#ff2900" height="2.6" width="2.6" x="80.0" y="49.0"><title>2017-05-16 23 hours</title></rect><rect fill="#ff5c00" height="2.6" width="2.6" x="80.0" y="52.5"><title>2017-05-17 18 hours</title></rect><rect fill="red" height="2.6" width="2.6" x="80.0" y="56.0"><title>2017-05-18 24 hours</title></rect><rect fill="#ff2900" height="2.6" width="2.6" x="80.0" y="59.5"><title>2017-05-19 23 hours</title></rect><rect fill="#a0ff22" height="2.6" width="2.6" x="80.0" y="63.0"><title>2017-05-20 16 hours</title></rect><rect fill="#ff4700" height="2.6" width="2.6" x="80.0" y="66.5"><title>2017-05-21 20 hours</title></rect><rect fill="red" height="2.6" width="2.6" x="83.5" y="45.5"><title>2017-05-22 24 hours</title></rect><rect fill="#34ff5f" height="2.6" width="2.6" x="83.5" y="49.0"><title>2017-05-23 10 hours</title></rect><rect fill="#85ff25" height="2.6" width="2.6" x="83.5" y="52.5"><title>2017-05-24 15 hours</title></rect><rect fill="#bbff1f" height="2.6" width="2.6" x="83.5" y="56.0"><title>2017-05-25 17 hours</title></rect><rect fill="#ff3d00" height="2.6" width="2.6" x="83.5" y="59.5"><title>2017-05-26 21 hours</title></rect><rect fill="#51ff2b" height="2.6" width="2.6" x="83.5" y="63.0"><title>2017-05-27 13 hours</title></rect><rect fill="#6aff28" height="2.6" width="2.6" x="83.5" y="66.5"><title>2017-05-28 14 hours</title></rect><rect fill="red" height="2.6" width="2.6" x="87.0" y="45.5"><title>2017-05-29 25 hours</title></rect><rect fill="#bbff1f" height="2.6" width="2.6" x="87.0" y="49.0"><title>2017-05-30 17 hours</title></rect><rect fill="#bbff1f" height="2.6" width="2.6" x="87.0" y="52.5"><title>2017-05-31 17 hours</title></rect><rect fill="red" height="2.6" width="2.6" x="87.0" y="56.0"><title>2017-06-01 24 hours</title></rect><rect fill="#6aff28" height="2.6" width="2.6" x="87.0" y="59.5"><title>2017-06-02 14 hours</title></rect><rect fill="#ff2900" height="2.6" width="2.6" x="87.0" y="63.0"><title>2017-06-03 23 hours</title></rect><rect fill="#ff2900" height="2.6" width="2.6" x="87.0" y="66.5"><title>2017-06-04 23 hours</title></rect><rect fill="red" height="2.6" width="2.6" x="90.5" y="45.5"><title>2017-06-05 24 hours</title></rect><rect fill="#ff5c00" height="2.6" width="2.6" x="90.5" y="49.0"><title>2017-06-06 18 hours</title></rect><rect fill="#a0ff22" height="2.6" width="2.6" x="90.5" y="52.5"><title>2017-06-07 16 hours</title></rect><rect fill="#ff3d00" height="2.6" width="2.6" x="90.5" y="56.0"><title>2017-06-08 21 hours</title></rect><rect fill="#ff4700" height="2.6" width="2.6" x="90.5" y="59.5"><title>2017-06-09 20 hours</title></rect><rect fill="#85ff25" height="2.6" width="2.6" x="90.5" y="63.0"><title>2017-06-10 15 hours</title></rect><rect fill="red" height="2.6" width="2.6" x="90.5" y="66.5"><title>2017-06-11 24 hours</title></rect><rect fill="#ff4700" height="2.6" width="2.6" x="94.0" y="45.5"><title>2017-06-12 20 hours</title></rect><rect fill="#34ff5f" height="2.6" width="2.6" x="94.0" y="49.0"><title>2017-06-13 10 hours</title></rect><rect fill="#51ff2b" height="2.6" width="2.6" x="94.0" y="52.5"><title>2017-06-14 13 hours</title></rect><rect fill="#444444" height="2.6" width="2.6" x="94.0" y="56.0"><title>2017-06-15</title></rect><rect fill="#444444" height="2.6" width="2.6" x="94.0" y="59.5"><title>2017-06-16</title></rect><rect fill="#a0ff22" height="2.6" width="2.6" x="94.0" y="63.0"><title>2017-06-17 16 hours</title></rect><rect fill="#51ff2b" height="2.6" width="2.6" x="94.0" y="66.5"><title>2017-06-18 13 hours</title></rect><rect fill="#85ff25" height="2.6" width="2.6" x="97.5" y="45.5"><title>2017-06-19 15 hours</title></rect><rect fill="#bbff1f" height="2.6" width="2.6" x="97.5" y="49.0"><title>2017-06-20 17 hours</title></rect><rect fill="#6aff28" height="2.6" width="2.6" x="97.5" y="52.5"><title>2017-06-21 14 hours</title></rect><rect fill="#a0ff22" height="2.6" width="2.6" x="97.5" y="56.0"><title>2017-06-22 16 hours</title></rect><rect fill="#6aff28" height="2.6" width="2.6" x="97.5" y="59.5"><title>2017-06-23 14 hours</title></rect><rect fill="#a0ff22" height="2.6" width="2.6" x="97.5" y="63.0"><title>2017-06-24 16 hours</title></rect><rect fill="#bbff1f" height="2.6" width="2.6" x="97.5" y="66.5"><title>2017-06-25 17 hours</title></rect><rect fill="#ff4700" height="2.6" width="2.6" x="101.0" y="45.5"><title>2017-06-26 20 hours</title></rect><rect fill="#a0ff22" height="2.6" width="2.6" x="101.0" y="49.0"><title>2017-06-27 16 hours</title></rect><rect fill="#38ff2e" height="2.6" width="2.6" x="101.0" y="52.5"><title>2017-06-28 12 hours</title></rect><rect fill="#6aff28" height="2.6" width="2.6" x="101.0" y="56.0"><title>2017-06-29 14 hours</title></rect><rect fill="#ff5c00" height="2.6" width="2.6" x="101.0" y="59.5"><title>2017-06-30 18 hours</title></rect><rect fill="#ff3300" height="2.6" width="2.6" x="101.0" y="63.0"><title>2017-07-01 22 hours</title></rect><rect fill="#ff3d00" height="2.6" width="2.6" x="101.0" y="66.5"><title>2017-07-02 21 hours</title></rect><rect fill="red" height="2.6" width="2.6" x="104.5" y="45.5"><title>2017-07-03 25 hours</title></rect><rect fill="#34ff5f" height="2.6" width="2.6" x="104.5" y="49.0"><title>2017-07-04 10 hours</title></rect><rect fill="#51ff2b" height="2.6" width="2.6" x="104.5" y="52.5"><title>2017-07-05 13 hours</title></rect><rect fill="red" height="2.6" width="2.6" x="104.5" y="56.0"><title>2017-07-06 25 hours</title></rect><rect fill="#ff3d00" height="2.6" width="2.6" x="104.5" y="59.5"><title>2017-07-07 21 hours</title></rect><rect fill="#ff5200" height="2.6" width="2.6" x="104.5" y="63.0"><title>2017-07-08 19 hours</title></rect><rect fill="#bbff1f" height="2.6" width="2.6" x="104.5" y="66.5"><title>2017-07-09 17 hours</title></rect><rect fill="#85ff25" height="2.6" width="2.6" x="108.0" y="45.5"><title>2017-07-10 15 hours</title></rect><rect fill="#ff5c00" height="2.6" width="2.6" x="108.0" y="49.0"><title>2017-07-11 18 hours</title></rect><rect fill="#bbff1f" height="2.6" width="2.6" x="108.0" y="52.5"><title>2017-07-12 17 hours</title></rect><rect fill="#ff5c00" height="2.6" width="2.6" x="108.0" y="56.0"><title>2017-07-13 18 hours</title></rect><rect fill="#bbff1f" height="2.6" width="2.6" x="108.0" y="59.5"><title>2017-07-14 17 hours</title></rect><rect fill="#ff3d00" height="2.6" width="2.6" x="108.0" y="63.0"><title>2017-07-15 21 hours</title></rect><rect fill="#6aff28" height="2.6" width="2.6" x="108.0" y="66.5"><title>2017-07-16 14 hours</title></rect><rect fill="red" height="2.6" width="2.6" x="111.5" y="45.5"><title>2017-07-17 24 hours</title></rect><rect fill="#a0ff22" height="2.6" width="2.6" x="111.5" y="49.0"><title>2017-07-18 16 hours</title></rect><rect fill="#bbff1f" height="2.6" width="2.6" x="111.5" y="52.5"><title>2017-07-19 17 hours</title></rect><rect fill="#51ff2b" height="2.6" width="2.6" x="111.5" y="56.0"><title>2017-07-20 13 hours</title></rect><rect fill="red" height="2.6" width="2.6" x="111.5" y="59.5"><title>2017-07-21 24 hours</title></rect><rect fill="#38ff2e" height="2.6" width="2.6" x="111.5" y="63.0"><title>2017-07-22 12 hours</title></rect><rect fill="#ff5200" height="2.6" width="2.6" x="111.5" y="66.5"><title>2017-07-23 19 hours</title></rect><rect fill="#38ff2e" height="2.6" width="2.6" x="115.0" y="45.5"><title>2017-07-24 12 hours</title></rect><rect fill="#ff5200" height="2.6" width="2.6" x="115.0" y="49.0"><title>2017-07-25 19 hours</title></rect><rect fill="#ff3d00" height="2.6" width="2.6" x="115.0" y="52.5"><title>2017-07-26 21 hours</title></rect><rect fill="#38ff2e" height="2.6" width="2.6" x="115.0" y="56.0"><title>2017-07-27 12 hours</title></rect><rect fill="#85ff25" height="2.6" width="2.6" x="115.0" y="59.5"><title>2017-07-28 15 hours</title></rect><rect fill="#3effb2" height="2.6" width="2.6" x="115.0" y="63.0"><title>2017-07-29 7 hours</title></rect><rect fill="#ff3d00" height="2.6" width="2.6" x="115.0" y="66.5"><title>2017-07-30 21 hours</title></rect><rect fill="#ff4700" height="2.6" width="2.6" x="118.5" y="45.5"><title>2017-07-31 20 hours</title></rect><rect fill="#ff3d00" height="2.6" width="2.6" x="118.5" y="49.0"><title>2017-08-01 21 hours</title></rect><rect fill="red" height="2.6" width="2.6" x="118.5" y="52.5"><title>2017-08-02 24 hours</title></rect><rect fill="#85ff25" height="2.6" width="2.6" x="118.5" y="56.0"><title>2017-08-03 15 hours</title></rect><rect fill="red" height="2.6" width="2.6" x="118.5" y="59.5"><title>2017-08-04 24 hours</title></rect><rect fill="#6aff28" height="2.6" width="2.6" x="118.5" y="63.0"><title>2017-08-05 14 hours</title></rect><rect fill="#ff3d00" height="2.6" width="2.6" x="118.5" y="66.5"><title>2017-08-06 21 hours</title></rect><rect fill="#ff2900" height="2.6" width="2.6" x="122.0" y="45.5"><title>2017-08-07 23 hours</title></rect><rect fill="#a0ff22" height="2.6" width="2.6" x="122.0" y="49.0"><title>2017-08-08 16 hours</title></rect><rect fill="#85ff25" height="2.6" width="2.6" x="122.0" y="52.5"><title>2017-08-09 15 hours</title></rect><rect fill="#38ff2e" height="2.6" width="2.6" x="122.0" y="56.0"><title>2017-08-10 12 hours</title></rect><rect fill="#ff3d00" height="2.6" width="2.6" x="122.0" y="59.5"><title>2017-08-11 21 hours</title></rect><rect fill="#bbff1f" height="2.6" width="2.6" x="122.0" y="63.0"><title>2017-08-12 17 hours</title></rect><rect fill="#6aff28" height="2.6" width="2.6" x="122.0" y="66.5"><title>2017-08-13 14 hours</title></rect><rect fill="#38ff2e" height="2.6" width="2.6" x="125.5" y="45.5"><title>2017-08-14 12 hours</title></rect><rect fill="#85ff25" height="2.6" width="2.6" x="125.5" y="49.0"><title>2017-08-15 15 hours</title></rect><rect fill="#ff4700" height="2.6" width="2.6" x="125.5" y="52.5"><title>2017-08-16 20 hours</title></rect><rect fill="#31ff42" height="2.6" width="2.6" x="125.5" y="56.0"><title>2017-08-17 11 hours</title></rect><rect fill="#bbff1f" height="2.6" width="2.6" x="125.5" y="59.5"><title>2017-08-18 17 hours</title></rect><rect fill="#38ff2e" height="2.6" width="2.6" x="125.5" y="63.0"><title>2017-08-19 12 hours</title></rect><rect fill="#ff2900" height="2.6" width="2.6" x="125.5" y="66.5"><title>2017-08-20 23 hours</title></rect><rect fill="red" height="2.6" width="2.6" x="129.0" y="45.5"><title>2017-08-21 25 hours</title></rect><rect fill="#85ff25" height="2.6" width="2.6" x="129.0" y="49.0"><title>2017-08-22 15 hours</title></rect><rect fill="#a0ff22" height="2.6" width="2.6" x="129.0" y="52.5"><title>2017-08-23 16 hours</title></rect><rect fill="#ff3d00" height="2.6" width="2.6" x="129.0" y="56.0"><title>2017-08-24 21 hours</title></rect><rect fill="#51ff2b" height="2.6" width="2.6" x="129.0" y="59.5"><title>2017-08-25 13 hours</title></rect><rect fill="#ff3d00" height="2.6" width="2.6" x="129.0" y="63.0"><title>2017-08-26 21 hours</title></rect><rect fill="#ff5200" height="2.6" width="2.6" x="129.0" y="66.5"><title>2017-08-27 19 hours</title></rect><rect fill="#bbff1f" height="2.6" width="2.6" x="132.5" y="45.5"><title>2017-08-28 17 hours</title></rect><rect fill="#51ff2b" height="2.6" width="2.6" x="132.5" y="49.0"><title>2017-08-29 13 hours</title></rect><rect fill="#ff5c00" height="2.6" width="2.6" x="132.5" y="52.5"><title>2017-08-30 18 hours</title></rect><rect fill="#85ff25" height="2.6" width="2.6" x="132.5" y="56.0"><title>2017-08-31 15 hours</title></rect><rect fill="#bbff1f" height="2.6" width="2.6" x="132.5" y="59.5"><title>2017-09-01 17 hours</title></rect><rect fill="#444444" height="2.6" width="2.6" x="132.5" y="63.0"><title>2017-09-02</title></rect><rect fill="#444444" height="2.6" width="2.6" x="132.5" y="66.5"><title>2017-09-03</title></rect><rect fill="#444444" height="2.6" width="2.6" x="136.0" y="45.5"><title>2017-09-04</title></rect><rect fill="#51ff2b" height="2.6" width="2.6" x="136.0" y="49.0"><title>2017-09-05 13 hours</title></rect><rect fill="#6aff28" height="2.6" width="2.6" x="136.0" y="52.5"><title>2017-09-06 14 hours</title></rect><rect fill="#ff5200" height="2.6" width="2.6" x="136.0" y="56.0"><title>2017-09-07 19 hours</title></rect><rect fill="#51ff2b" height="2.6" width="2.6" x="136.0" y="59.5"><title>2017-09-08 13 hours</title></rect><rect fill="#a0ff22" height="2.6" width="2.6" x="136.0" y="63.0"><title>2017-09-09 16 hours</title></rect><rect fill="#31ff42" height="2.6" width="2.6" x="136.0" y="66.5"><title>2017-09-10 11 hours</title></rect><rect fill="#bbff1f" height="2.6" width="2.6" x="139.5" y="45.5"><title>2017-09-11 17 hours</title></rect><rect fill="#6aff28" height="2.6" width="2.6" x="139.5" y="49.0"><title>2017-09-12 14 hours</title></rect><rect fill="#a0ff22" height="2.6" width="2.6" x="139.5" y="52.5"><title>2017-09-13 16 hours</title></rect><rect fill="#85ff25" height="2.6" width="2.6" x="139.5" y="56.0"><title>2017-09-14 15 hours</title></rect><rect fill="#ff2900" height="2.6" width="2.6" x="139.5" y="59.5"><title>2017-09-15 23 hours</title></rect><rect fill="#51ff2b" height="2.6" width="2.6" x="139.5" y="63.0"><title>2017-09-16 13 hours</title></rect><rect fill="#ff5c00" height="2.6" width="2.6" x="139.5" y="66.5"><title>2017-09-17 18 hours</title></rect><rect fill="#6aff28" height="2.6" width="2.6" x="143.0" y="45.5"><title>2017-09-18 14 hours</title></rect><rect fill="#bbff1f" height="2.6" width="2.6" x="143.0" y="49.0"><title>2017-09-19 17 hours</title></rect><rect fill="#6aff28" height="2.6" width="2.6" x="143.0" y="52.5"><title>2017-09-20 14 hours</title></rect><rect fill="#a0ff22" height="2.6" width="2.6" x="143.0" y="56.0"><title>2017-09-21 16 hours</title></rect><rect fill="#ff5200" height="2.6" width="2.6" x="143.0" y="59.5"><title>2017-09-22 19 hours</title></rect><rect fill="#444444" height="2.6" width="2.6" x="143.0" y="63.0"><title>2017-09-23</title></rect><rect fill="#444444" height="2.6" width="2.6" x="143.0" y="66.5"><title>2017-09-24</title></rect><rect fill="#51ff2b" height="2.6" width="2.6" x="146.5" y="45.5"><title>2017-09-25 13 hours</title></rect><rect fill="#a0ff22" height="2.6" width="2.6" x="146.5" y="49.0"><title>2017-09-26 16 hours</title></rect><rect fill="#bbff1f" height="2.6" width="2.6" x="146.5" y="52.5"><title>2017-09-27 17 hours</title></rect><rect fill="#ff5200" height="2.6" width="2.6" x="146.5" y="56.0"><title>2017-09-28 19 hours</title></rect><rect fill="#ff3d00" height="2.6" width="2.6" x="146.5" y="59.5"><title>2017-09-29 21 hours</title></rect><rect fill="#31ff42" height="2.6" width="2.6" x="146.5" y="63.0"><title>2017-09-30 11 hours</title></rect><rect fill="red" height="2.6" width="2.6" x="146.5" y="66.5"><title>2017-10-01 24 hours</title></rect><rect fill="#37ff7c" height="2.6" width="2.6" x="150.0" y="45.5"><title>2017-10-02 9 hours</title></rect><rect fill="#51ff2b" height="2.6" width="2.6" x="150.0" y="49.0"><title>2017-10-03 13 hours</title></rect><rect fill="#34ff5f" height="2.6" width="2.6" x="150.0" y="52.5"><title>2017-10-04 10 hours</title></rect><rect fill="#51ff2b" height="2.6" width="2.6" x="150.0" y="56.0"><title>2017-10-05 13 hours</title></rect><rect fill="#51ff2b" height="2.6" width="2.6" x="150.0" y="59.5"><title>2017-10-06 13 hours</title></rect><rect fill="red" height="2.6" width="2.6" x="150.0" y="63.0"><title>2017-10-07 24 hours</title></rect><rect fill="#4dd2ff" height="2.6" width="2.6" x="150.0" y="66.5"><title>2017-10-08 2 hours</title></rect><rect fill="#6aff28" height="2.6" width="2.6" x="153.5" y="45.5"><title>2017-10-09 14 hours</title></rect><rect fill="#bbff1f" height="2.6" width="2.6" x="153.5" y="49.0"><title>2017-10-10 17 hours</title></rect><rect fill="#ff5c00" height="2.6" width="2.6" x="153.5" y="52.5"><title>2017-10-11 18 hours</title></rect><rect fill="#a0ff22" height="2.6" width="2.6" x="153.5" y="56.0"><title>2017-10-12 16 hours</title></rect><rect fill="#6aff28" height="2.6" width="2.6" x="153.5" y="59.5"><title>2017-10-13 14 hours</title></rect><rect fill="#6aff28" height="2.6" width="2.6" x="153.5" y="63.0"><title>2017-10-14 14 hours</title></rect><rect fill="#ff5200" height="2.6" width="2.6" x="153.5" y="66.5"><title>2017-10-15 19 hours</title></rect><rect fill="#85ff25" height="2.6" width="2.6" x="157.0" y="45.5"><title>2017-10-16 15 hours</title></rect><rect fill="#a0ff22" height="2.6" width="2.6" x="157.0" y="49.0"><title>2017-10-17 16 hours</title></rect><rect fill="#4dd2ff" height="2.6" width="2.6" x="157.0" y="52.5"><title>2017-10-18 2 hours</title></rect><rect fill="#51ff2b" height="2.6" width="2.6" x="157.0" y="56.0"><title>2017-10-19 13 hours</title></rect><rect fill="#85ff25" height="2.6" width="2.6" x="157.0" y="59.5"><title>2017-10-20 15 hours</title></rect><rect fill="#38ff2e" height="2.6" width="2.6" x="157.0" y="63.0"><title>2017-10-21 12 hours</title></rect><rect fill="#6aff28" height="2.6" width="2.6" x="157.0" y="66.5"><title>2017-10-22 14 hours</title></rect><rect fill="#ff5c00" height="2.6" width="2.6" x="160.5" y="45.5"><title>2017-10-23 18 hours</title></rect><rect fill="#38ff2e" height="2.6" width="2.6" x="160.5" y="49.0"><title>2017-10-24 12 hours</title></rect><rect fill="#bbff1f" height="2.6" width="2.6" x="160.5" y="52.5"><title>2017-10-25 17 hours</title></rect><rect fill="#38ff2e" height="2.6" width="2.6" x="160.5" y="56.0"><title>2017-10-26 12 hours</title></rect><rect fill="#38ff2e" height="2.6" width="2.6" x="160.5" y="59.5"><title>2017-10-27 12 hours</title></rect><rect fill="#3bff97" height="2.6" width="2.6" x="160.5" y="63.0"><title>2017-10-28 8 hours</title></rect><rect fill="red" height="2.6" width="2.6" x="160.5" y="66.5"><title>2017-10-29 25 hours</title></rect><rect fill="#a0ff22" height="2.6" width="2.6" x="164.0" y="45.5"><title>2017-10-30 16 hours</title></rect><rect fill="#bbff1f" height="2.6" width="2.6" x="164.0" y="49.0"><title>2017-10-31 17 hours</title></rect><rect fill="#ff5200" height="2.6" width="2.6" x="164.0" y="52.5"><title>2017-11-01 19 hours</title></rect><rect fill="#a0ff22" height="2.6" width="2.6" x="164.0" y="56.0"><title>2017-11-02 16 hours</title></rect><rect fill="#4ae9ff" height="2.6" width="2.6" x="164.0" y="59.5"><title>2017-11-03 3 hours</title></rect><rect fill="#ff3300" height="2.6" width="2.6" x="164.0" y="63.0"><title>2017-11-04 22 hours</title></rect><rect fill="#444444" height="2.6" width="2.6" x="164.0" y="66.5"><title>2017-11-05</title></rect><rect fill="#6aff28" height="2.6" width="2.6" x="167.5" y="45.5"><title>2017-11-06 14 hours</title></rect><rect fill="#34ff5f" height="2.6" width="2.6" x="167.5" y="49.0"><title>2017-11-07 10 hours</title></rect><rect fill="#51ff2b" height="2.6" width="2.6" x="167.5" y="52.5"><title>2017-11-08 13 hours</title></rect><rect fill="#85ff25" height="2.6" width="2.6" x="167.5" y="56.0"><title>2017-11-09 15 hours</title></rect><rect fill="#a0ff22" height="2.6" width="2.6" x="167.5" y="59.5"><title>2017-11-10 16 hours</title></rect><rect fill="#a0ff22" height="2.6" width="2.6" x="167.5" y="63.0"><title>2017-11-11 16 hours</title></rect><rect fill="#3bff97" height="2.6" width="2.6" x="167.5" y="66.5"><title>2017-11-12 8 hours</title></rect><rect fill="#444444" height="2.6" width="2.6" x="171.0" y="45.5"><title>2017-11-13</title></rect><rect fill="#38ff2e" height="2.6" width="2.6" x="171.0" y="49.0"><title>2017-11-14 12 hours</title></rect><rect fill="#ff2900" height="2.6" width="2.6" x="171.0" y="52.5"><title>2017-11-15 23 hours</title></rect><rect fill="#31ff42" height="2.6" width="2.6" x="171.0" y="56.0"><title>2017-11-16 11 hours</title></rect><rect fill="#31ff42" height="2.6" width="2.6" x="171.0" y="59.5"><title>2017-11-17 11 hours</title></rect><rect fill="#38ff2e" height="2.6" width="2.6" x="171.0" y="63.0"><title>2017-11-18 12 hours</title></rect><rect fill="#444444" height="2.6" width="2.6" x="171.0" y="66.5"><title>2017-11-19</title></rect><rect fill="#ff3300" height="2.6" width="2.6" x="174.5" y="45.5"><title>2017-11-20 22 hours</title></rect><rect fill="#51ff2b" height="2.6" width="2.6" x="174.5" y="49.0"><title>2017-11-21 13 hours</title></rect><rect fill="#a0ff22" height="2.6" width="2.6" x="174.5" y="52.5"><title>2017-11-22 16 hours</title></rect><rect fill="#bbff1f" height="2.6" width="2.6" x="174.5" y="56.0"><title>2017-11-23 17 hours</title></rect><rect fill="red" height="2.6" width="2.6" x="174.5" y="59.5"><title>2017-11-24 25 hours</title></rect><rect fill="#ff3300" height="2.6" width="2.6" x="174.5" y="63.0"><title>2017-11-25 22 hours</title></rect><rect fill="#ff3300" height="2.6" width="2.6" x="174.5" y="66.5"><title>2017-11-26 22 hours</title></rect><rect fill="#bbff1f" height="2.6" width="2.6" x="178.0" y="45.5"><title>2017-11-27 17 hours</title></rect><rect fill="#ff5200" height="2.6" width="2.6" x="178.0" y="49.0"><title>2017-11-28 19 hours</title></rect><rect fill="#bbff1f" height="2.6" width="2.6" x="178.0" y="52.5"><title>2017-11-29 17 hours</title></rect><rect fill="#38ff2e" height="2.6" width="2.6" x="178.0" y="56.0"><title>2017-11-30 12 hours</title></rect><rect fill="#38ff2e" height="2.6" width="2.6" x="178.0" y="59.5"><title>2017-12-01 12 hours</title></rect><rect fill="#34ff5f" height="2.6" width="2.6" x="178.0" y="63.0"><title>2017-12-02 10 hours</title></rect><rect fill="#38ff2e" height="2.6" width="2.6" x="178.0" y="66.5"><title>2017-12-03 12 hours</title></rect><rect fill="#ff5c00" height="2.6" width="2.6" x="181.5" y="45.5"><title>2017-12-04 18 hours</title></rect><rect fill="#ff5200" height="2.6" width="2.6" x="181.5" y="49.0"><title>2017-12-05 19 hours</title></rect><rect fill="#bbff1f" height="2.6" width="2.6" x="181.5" y="52.5"><title>2017-12-06 17 hours</title></rect><rect fill="#6aff28" height="2.6" width="2.6" x="181.5" y="56.0"><title>2017-12-07 14 hours</title></rect><rect fill="#ff5c00" height="2.6" width="2.6" x="181.5" y="59.5"><title>2017-12-08 18 hours</title></rect><rect fill="#ff3300" height="2.6" width="2.6" x="181.5" y="63.0"><title>2017-12-09 22 hours</title></rect><rect fill="#bbff1f" height="2.6" width="2.6" x="181.5" y="66.5"><title>2017-12-10 17 hours</title></rect><rect fill="#4dd2ff" height="2.6" width="2.6" x="185.0" y="45.5"><title>2017-12-11 2 hours</title></rect><rect fill="#444444" height="2.6" width="2.6" x="185.0" y="49.0"><title>2017-12-12</title></rect><rect fill="#38ff2e" height="2.6" width="2.6" x="185.0" y="52.5"><title>2017-12-13 12 hours</title></rect><rect fill="#31ff42" height="2.6" width="2.6" x="185.0" y="56.0"><title>2017-12-14 11 hours</title></rect><rect fill="#34ff5f" height="2.6" width="2.6" x="185.0" y="59.5"><title>2017-12-15 10 hours</title></rect><rect fill="#444444" height="2.6" width="2.6" x="185.0" y="63.0"><title>2017-12-16</title></rect><rect fill="#3bff97" height="2.6" width="2.6" x="185.0" y="66.5"><title>2017-12-17 8 hours</title></rect><rect fill="#a0ff22" height="2.6" width="2.6" x="188.5" y="45.5"><title>2017-12-18 16 hours</title></rect><rect fill="#ff5c00" height="2.6" width="2.6" x="188.5" y="49.0"><title>2017-12-19 18 hours</title></rect><rect fill="#38ff2e" height="2.6" width="2.6" x="188.5" y="52.5"><title>2017-12-20 12 hours</title></rect><rect fill="#a0ff22" height="2.6" width="2.6" x="188.5" y="56.0"><title>2017-12-21 16 hours</title></rect><rect fill="#51ff2b" height="2.6" width="2.6" x="188.5" y="59.5"><title>2017-12-22 13 hours</title></rect><rect fill="#ff5200" height="2.6" width="2.6" x="188.5" y="63.0"><title>2017-12-23 19 hours</title></rect><rect fill="#85ff25" height="2.6" width="2.6" x="188.5" y="66.5"><title>2017-12-24 15 hours</title></rect><rect fill="#ff5c00" height="2.6" width="2.6" x="192.0" y="45.5"><title>2017-12-25 18 hours</title></rect><rect fill="#a0ff22" height="2.6" width="2.6" x="192.0" y="49.0"><title>2017-12-26 16 hours</title></rect><rect fill="#6aff28" height="2.6" width="2.6" x="192.0" y="52.5"><title>2017-12-27 14 hours</title></rect><rect fill="#ff3300" height="2.6" width="2.6" x="192.0" y="56.0"><title>2017-12-28 22 hours</title></rect><rect fill="#ff5c00" height="2.6" width="2.6" x="192.0" y="59.5"><title>2017-12-29 18 hours</title></rect><rect fill="#ff4700" height="2.6" width="2.6" x="192.0" y="63.0"><title>2017-12-30 20 hours</title></rect><rect fill="#51ff2b" height="2.6" width="2.6" x="192.0" y="66.5"><title>2017-12-31 13 hours</title></rect></svg>