<?xml version="1.0" encoding="utf-8" ?>
<svg baseProfile="full" height="78mm" version="1.1" viewBox="0,0,200,78" width="200mm" xmlns="http://www.w3.org/2000/svg" xmlns:ev="http://www.w3.org/2001/xml-events" xmlns:xlink="http://www.w3.org/1999/xlink"><defs /><rect fill="#222222" height="78" width="200" x="0" y="0" /><text fill="#FFFFFF" style="font-size:12px; font-family:Arial; font-weight:bold;" x="10" y="20">rip-tyang apple_health</text><text dominant-baseline="hanging" fill="#FFFFFF" style="font-size:10.0px; font-family:Arial;" x="10" y="30">2016</text><text dominant-baseline="hanging" fill="#FFFFFF" style="font-size:4.125px; font-family:Arial;" x="175" y="35">6116 hours</text><text fill="#FFFFFF" style="font-size:2.5px; font-family:Arial" x="10.0" y="44">Jan</text><text fill="#FFFFFF" style="font-size:2.5px; font-family:Arial" x="25.5" y="44">Feb</text><text fill="#FFFFFF" style="font-size:2.5px; font-family:Arial" x="41.0" y="44">Mar</text><text fill="#FFFFFF" style="font-size:2.5px; font-family:Arial" x="56.5" y="44">Apr</text><text fill="#FFFFFF" style="font-size:2.5px; font-family:Arial" x="72.0" y="44">May</text><text fill="#FFFFFF" style="font-size:2.5px; font-family:Arial" x="87.5" y="44">Jun</text><text fill="#FFFFFF" style="font-size:2.5px; font-family:Arial" x="103.0" y="44">Jul</text><text fill="#FFFFFF" style="font-size:2.5px; font-family:Arial" x="118.5" y="44">Aug</text><text fill="#FFFFFF" style="font-size:2.5px; font-family:Arial" x="134.0" y="44">Sep</text><text fill="#FFFFFF" style="font-size:2.5px; font-family:Arial" x="149.5" y="44">Oct</text><text fill="#FFFFFF" style="font-size:2.5px; font-family:Arial" x="165.0" y="44">Nov</text><text fill="#FFFFFF" style="font-size:2.5px; font-family:Arial" x="180.5" y="44">Dec</text><rect fill="#444444" height="2.6" width="2.6" x="10.0" y="45.5"><title>2015-12-28</title></rect><rect fill="#444444" height="2.6" width="2.6" x="10.0" y="49.0"><title>2015-12-29</title></rect><rect fill="#444444" height="2.6" width="2.6" x="10.0" y="52.5"><title>2015-12-30</title></rect><rect fill="#444444" height="2.6" width="2.6" x="10.0" y="56.0"><title>2015-12-31</title></rect><rect fill="#4dd2ff" height="2.6" width="2.6" x="10.0" y="59.5"><title>2016-01-01 1 hours</title></rect><rect fill="#82ff25" height="2.6" width="2.6" x="10.0" y="63.0"><title>2016-01-02 17 hours</title></rect><rect fill="#ff7300" height="2.6" width="2.6" x="10.0" y="66.5"><title>2016-01-03 18 hours</title></rect><rect fill="#ff7300" height="2.6" width="2.6" x="13.5" y="45.5"><title>2016-01-04 18 hours</title></rect><rect fill="#82ff25" height="2.6" width="2.6" x="13.5" y="49.0"><title>2016-01-05 17 hours</title></rect><rect fill="#82ff25" height="2.6" width="2.6" x="13.5" y="52.5"><title>2016-01-06 17 hours</title></rect><rect fill="#31ff2f" height="2.6" width="2.6" x="13.5" y="56.0"><title>2016-01-07 13 hours</title></rect><rect fill="#44ff2d" height="2.6" width="2.6" x="13.5" y="59.5"><title>2016-01-08 14 hours</title></rect><rect fill="#82ff25" height="2.6" width="2.6" x="13.5" y="63.0"><title>2016-01-09 17 hours</title></rect><rect fill="#ff5200" height="2.6" width="2.6" x="13.5" y="66.5"><title>2016-01-10 22 hours</title></rect><rect fill="#34ff5d" height="2.6" width="2.6" x="17.0" y="45.5"><title>2016-01-11 11 hours</title></rect><rect fill="#ff4a00" height="2.6" width="2.6" x="17.0" y="49.0"><title>2016-01-12 23 hours</title></rect><rect fill="#58ff2a" height="2.6" width="2.6" x="17.0" y="52.5"><title>2016-01-13 15 hours</title></rect><rect fill="#ff7300" height="2.6" width="2.6" x="17.0" y="56.0"><title>2016-01-14 18 hours</title></rect><rect fill="red" height="2.6" width="2.6" x="17.0" y="59.5"><title>2016-01-15 25 hours</title></rect><rect fill="#43ffe0" height="2.6" width="2.6" x="17.0" y="63.0"><title>2016-01-16 5 hours</title></rect><rect fill="#44ff2d" height="2.6" width="2.6" x="17.0" y="66.5"><title>2016-01-17 14 hours</title></rect><rect fill="#58ff2a" height="2.6" width="2.6" x="20.5" y="45.5"><title>2016-01-18 15 hours</title></rect><rect fill="#31ff2f" height="2.6" width="2.6" x="20.5" y="49.0"><title>2016-01-19 13 hours</title></rect><rect fill="#58ff2a" height="2.6" width="2.6" x="20.5" y="52.5"><title>2016-01-20 15 hours</title></rect><rect fill="#ff7300" height="2.6" width="2.6" x="20.5" y="56.0"><title>2016-01-21 18 hours</title></rect><rect fill="#32ff46" height="2.6" width="2.6" x="20.5" y="59.5"><title>2016-01-22 12 hours</title></rect><rect fill="#4be4ff" height="2.6" width="2.6" x="20.5" y="63.0"><title>2016-01-23 2 hours</title></rect><rect fill="#44ff2d" height="2.6" width="2.6" x="20.5" y="66.5"><title>2016-01-24 14 hours</title></rect><rect fill="#32ff46" height="2.6" width="2.6" x="24.0" y="45.5"><title>2016-01-25 12 hours</title></rect><rect fill="red" height="2.6" width="2.6" x="24.0" y="49.0"><title>2016-01-26 24 hours</title></rect><rect fill="#31ff2f" height="2.6" width="2.6" x="24.0" y="52.5"><title>2016-01-27 13 hours</title></rect><rect fill="#41ffcb" height="2.6" width="2.6" x="24.0" y="56.0"><title>2016-01-28 6 hours</title></rect><rect fill="#44ff2d" height="2.6" width="2.6" x="24.0" y="59.5"><title>2016-01-29 14 hours</title></rect><rect fill="#44ff2d" height="2.6" width="2.6" x="24.0" y="63.0"><title>2016-01-30 14 hours</title></rect><rect fill="#82ff25" height="2.6" width="2.6" x="24.0" y="66.5"><title>2016-01-31 17 hours</title></rect><rect fill="#58ff2a" height="2.6" width="2.6" x="27.5" y="45.5"><title>2016-02-01 15 hours</title></rect><rect fill="red" height="2.6" width="2.6" x="27.5" y="49.0"><title>2016-02-02 25 hours</title></rect><rect fill="#ff6b00" height="2.6" width="2.6" x="27.5" y="52.5"><title>2016-02-03 19 hours</title></rect><rect fill="#82ff25" height="2.6" width="2.6" x="27.5" y="56.0"><title>2016-02-04 17 hours</title></rect><rect fill="#82ff25" height="2.6" width="2.6" x="27.5" y="59.5"><title>2016-02-05 17 hours</title></rect><rect fill="#ff6b00" height="2.6" width="2.6" x="27.5" y="63.0"><title>2016-02-06 19 hours</title></rect><rect fill="#ff7300" height="2.6" width="2.6" x="27.5" y="66.5"><title>2016-02-07 18 hours</title></rect><rect fill="#58ff2a" height="2.6" width="2.6" x="31.0" y="45.5"><title>2016-02-08 15 hours</title></rect><rect fill="#82ff25" height="2.6" width="2.6" x="31.0" y="49.0"><title>2016-02-09 17 hours</title></rect><rect fill="#44ff2d" height="2.6" width="2.6" x="31.0" y="52.5"><title>2016-02-10 14 hours</title></rect><rect fill="#6dff28" height="2.6" width="2.6" x="31.0" y="56.0"><title>2016-02-11 16 hours</title></rect><rect fill="#58ff2a" height="2.6" width="2.6" x="31.0" y="59.5"><title>2016-02-12 15 hours</title></rect><rect fill="#58ff2a" height="2.6" width="2.6" x="31.0" y="63.0"><title>2016-02-13 15 hours</title></rect><rect fill="#ff4a00" height="2.6" width="2.6" x="31.0" y="66.5"><title>2016-02-14 23 hours</title></rect><rect fill="#58ff2a" height="2.6" width="2.6" x="34.5" y="45.5"><title>2016-02-15 15 hours</title></rect><rect fill="#6dff28" height="2.6" width="2.6" x="34.5" y="49.0"><title>2016-02-16 16 hours</title></rect><rect fill="#ff5200" height="2.6" width="2.6" x="34.5" y="52.5"><title>2016-02-17 22 hours</title></rect><rect fill="#31ff2f" height="2.6" width="2.6" x="34.5" y="56.0"><title>2016-02-18 13 hours</title></rect><rect fill="#ff7300" height="2.6" width="2.6" x="34.5" y="59.5"><title>2016-02-19 18 hours</title></rect><rect fill="#6dff28" height="2.6" width="2.6" x="34.5" y="63.0"><title>2016-02-20 16 hours</title></rect><rect fill="#ff5a00" height="2.6" width="2.6" x="34.5" y="66.5"><title>2016-02-21 21 hours</title></rect><rect fill="#44ff2d" height="2.6" width="2.6" x="38.0" y="45.5"><title>2016-02-22 14 hours</title></rect><rect fill="red" height="2.6" width="2.6" x="38.0" y="49.0"><title>2016-02-23 24 hours</title></rect><rect fill="#6dff28" height="2.6" width="2.6" x="38.0" y="52.5"><title>2016-02-24 16 hours</title></rect><rect fill="#58ff2a" height="2.6" width="2.6" x="38.0" y="56.0"><title>2016-02-25 15 hours</title></rect><rect fill="#58ff2a" height="2.6" width="2.6" x="38.0" y="59.5"><title>2016-02-26 15 hours</title></rect><rect fill="#ff7300" height="2.6" width="2.6" x="38.0" y="63.0"><title>2016-02-27 18 hours</title></rect><rect fill="#ff5a00" height="2.6" width="2.6" x="38.0" y="66.5"><title>2016-02-28 21 hours</title></rect><rect fill="red" height="2.6" width="2.6" x="41.5" y="45.5"><title>2016-02-29 24 hours</title></rect><rect fill="#6dff28" height="2.6" width="2.6" x="41.5" y="49.0"><title>2016-03-01 16 hours</title></rect><rect fill="#6dff28" height="2.6" width="2.6" x="41.5" y="52.5"><title>2016-03-02 16 hours</title></rect><rect fill="#44ff2d" height="2.6" width="2.6" x="41.5" y="56.0"><title>2016-03-03 14 hours</title></rect><rect fill="#82ff25" height="2.6" width="2.6" x="41.5" y="59.5"><title>2016-03-04 17 hours</title></rect><rect fill="#ff5200" height="2.6" width="2.6" x="41.5" y="63.0"><title>2016-03-05 22 hours</title></rect><rect fill="red" height="2.6" width="2.6" x="41.5" y="66.5"><title>2016-03-06 24 hours</title></rect><rect fill="#ff7300" height="2.6" width="2.6" x="45.0" y="45.5"><title>2016-03-07 18 hours</title></rect><rect fill="#58ff2a" height="2.6" width="2.6" x="45.0" y="49.0"><title>2016-03-08 15 hours</title></rect><rect fill="#58ff2a" height="2.6" width="2.6" x="45.0" y="52.5"><title>2016-03-09 15 hours</title></rect><rect fill="#58ff2a" height="2.6" width="2.6" x="45.0" y="56.0"><title>2016-03-10 15 hours</title></rect><rect fill="#ff4a00" height="2.6" width="2.6" x="45.0" y="59.5"><title>2016-03-11 23 hours</title></rect><rect fill="#58ff2a" height="2.6" width="2.6" x="45.0" y="63.0"><title>2016-03-12 15 hours</title></rect><rect fill="#58ff2a" height="2.6" width="2.6" x="45.0" y="66.5"><title>2016-03-13 15 hours</title></rect><rect fill="#ff7300" height="2.6" width="2.6" x="48.5" y="45.5"><title>2016-03-14 18 hours</title></rect><rect fill="#ff5200" height="2.6" width="2.6" x="48.5" y="49.0"><title>2016-03-15 22 hours</title></rect><rect fill="red" height="2.6" width="2.6" x="48.5" y="52.5"><title>2016-03-16 24 hours</title></rect><rect fill="#82ff25" height="2.6" width="2.6" x="48.5" y="56.0"><title>2016-03-17 17 hours</title></rect><rect fill="#34ff5d" height="2.6" width="2.6" x="48.5" y="59.5"><title>2016-03-18 11 hours</title></rect><rect fill="#44ff2d" height="2.6" width="2.6" x="48.5" y="63.0"><title>2016-03-19 14 hours</title></rect><rect fill="#ff7300" height="2.6" width="2.6" x="48.5" y="66.5"><title>2016-03-20 18 hours</title></rect><rect fill="#6dff28" height="2.6" width="2.6" x="52.0" y="45.5"><title>2016-03-21 16 hours</title></rect><rect fill="#82ff25" height="2.6" width="2.6" x="52.0" y="49.0"><title>2016-03-22 17 hours</title></rect><rect fill="red" height="2.6" width="2.6" x="52.0" y="52.5"><title>2016-03-23 24 hours</title></rect><rect fill="#44ff2d" height="2.6" width="2.6" x="52.0" y="56.0"><title>2016-03-24 14 hours</title></rect><rect fill="#58ff2a" height="2.6" width="2.6" x="52.0" y="59.5"><title>2016-03-25 15 hours</title></rect><rect fill="#82ff25" height="2.6" width="2.6" x="52.0" y="63.0"><title>2016-03-26 17 hours</title></rect><rect fill="#58ff2a" height="2.6" width="2.6" x="52.0" y="66.5"><title>2016-03-27 15 hours</title></rect><rect fill="#ff6b00" height="2.6" width="2.6" x="55.5" y="45.5"><title>2016-03-28 19 hours</title></rect><rect fill="#ff6300" height="2.6" width="2.6" x="55.5" y="49.0"><title>2016-03-29 20 hours</title></rect><rect fill="#ff6b00" height="2.6" width="2.6" x="55.5" y="52.5"><title>2016-03-30 19 hours</title></rect><rect fill="#44ff2d" height="2.6" width="2.6" x="55.5" y="56.0"><title>2016-03-31 14 hours</title></rect><rect fill="#6dff28" height="2.6" width="2.6" x="55.5" y="59.5"><title>2016-04-01 16 hours</title></rect><rect fill="#82ff25" height="2.6" width="2.6" x="55.5" y="63.0"><title>2016-04-02 17 hours</title></rect><rect fill="#ff5200" height="2.6" width="2.6" x="55.5" y="66.5"><title>2016-04-03 22 hours</title></rect><rect fill="#31ff2f" height="2.6" width="2.6" x="59.0" y="45.5"><title>2016-04-04 13 hours</title></rect><rect fill="#82ff25" height="2.6" width="2.6" x="59.0" y="49.0"><title>2016-04-05 17 hours</title></rect><rect fill="#58ff2a" height="2.6" width="2.6" x="59.0" y="52.5"><title>2016-04-06 15 hours</title></rect><rect fill="#6dff28" height="2.6" width="2.6" x="59.0" y="56.0"><title>2016-04-07 16 hours</title></rect><rect fill="#58ff2a" height="2.6" width="2.6" x="59.0" y="59.5"><title>2016-04-08 15 hours</title></rect><rect fill="#6dff28" height="2.6" width="2.6" x="59.0" y="63.0"><title>2016-04-09 16 hours</title></rect><rect fill="#6dff28" height="2.6" width="2.6" x="59.0" y="66.5"><title>2016-04-10 16 hours</title></rect><rect fill="#44ff2d" height="2.6" width="2.6" x="62.5" y="45.5"><title>2016-04-11 14 hours</title></rect><rect fill="red" height="2.6" width="2.6" x="62.5" y="49.0"><title>2016-04-12 25 hours</title></rect><rect fill="#6dff28" height="2.6" width="2.6" x="62.5" y="52.5"><title>2016-04-13 16 hours</title></rect><rect fill="#ff6b00" height="2.6" width="2.6" x="62.5" y="56.0"><title>2016-04-14 19 hours</title></rect><rect fill="#6dff28" height="2.6" width="2.6" x="62.5" y="59.5"><title>2016-04-15 16 hours</title></rect><rect fill="#6dff28" height="2.6" width="2.6" x="62.5" y="63.0"><title>2016-04-16 16 hours</title></rect><rect fill="#58ff2a" height="2.6" width="2.6" x="62.5" y="66.5"><title>2016-04-17 15 hours</title></rect><rect fill="#44ff2d" height="2.6" width="2.6" x="66.0" y="45.5"><title>2016-04-18 14 hours</title></rect><rect fill="#82ff25" height="2.6" width="2.6" x="66.0" y="49.0"><title>2016-04-19 17 hours</title></rect><rect fill="#ff4a00" height="2.6" width="2.6" x="66.0" y="52.5"><title>2016-04-20 23 hours</title></rect><rect fill="#58ff2a" height="2.6" width="2.6" x="66.0" y="56.0"><title>2016-04-21 15 hours</title></rect><rect fill="#ff4a00" height="2.6" width="2.6" x="66.0" y="59.5"><title>2016-04-22 23 hours</title></rect><rect fill="#44ff2d" height="2.6" width="2.6" x="66.0" y="63.0"><title>2016-04-23 14 hours</title></rect><rect fill="#6dff28" height="2.6" width="2.6" x="66.0" y="66.5"><title>2016-04-24 16 hours</title></rect><rect fill="#ff5200" height="2.6" width="2.6" x="69.5" y="45.5"><title>2016-04-25 22 hours</title></rect><rect fill="#6dff28" height="2.6" width="2.6" x="69.5" y="49.0"><title>2016-04-26 16 hours</title></rect><rect fill="#6dff28" height="2.6" width="2.6" x="69.5" y="52.5"><title>2016-04-27 16 hours</title></rect><rect fill="#31ff2f" height="2.6" width="2.6" x="69.5" y="56.0"><title>2016-04-28 13 hours</title></rect><rect fill="red" height="2.6" width="2.6" x="69.5" y="59.5"><title>2016-04-29 24 hours</title></rect><rect fill="#44ff2d" height="2.6" width="2.6" x="69.5" y="63.0"><title>2016-04-30 14 hours</title></rect><rect fill="#ff4a00" height="2.6" width="2.6" x="69.5" y="66.5"><title>2016-05-01 23 hours</title></rect><rect fill="#6dff28" height="2.6" width="2.6" x="73.0" y="45.5"><title>2016-05-02 16 hours</title></rect><rect fill="#82ff25" height="2.6" width="2.6" x="73.0" y="49.0"><title>2016-05-03 17 hours</title></rect><rect fill="#82ff25" height="2.6" width="2.6" x="73.0" y="52.5"><title>2016-05-04 17 hours</title></rect><rect fill="#ff5200" height="2.6" width="2.6" x="73.0" y="56.0"><title>2016-05-05 22 hours</title></rect><rect fill="#6dff28" height="2.6" width="2.6" x="73.0" y="59.5"><title>2016-05-06 16 hours</title></rect><rect fill="#6dff28" height="2.6" width="2.6" x="73.0" y="63.0"><title>2016-05-07 16 hours</title></rect><rect fill="#82ff25" height="2.6" width="2.6" x="73.0" y="66.5"><title>2016-05-08 17 hours</title></rect><rect fill="#ff6b00" height="2.6" width="2.6" x="76.5" y="45.5"><title>2016-05-09 19 hours</title></rect><rect fill="#ff7300" height="2.6" width="2.6" x="76.5" y="49.0"><title>2016-05-10 18 hours</title></rect><rect fill="red" height="2.6" width="2.6" x="76.5" y="52.5"><title>2016-05-11 25 hours</title></rect><rect fill="#6dff28" height="2.6" width="2.6" x="76.5" y="56.0"><title>2016-05-12 16 hours</title></rect><rect fill="#44ff2d" height="2.6" width="2.6" x="76.5" y="59.5"><title>2016-05-13 14 hours</title></rect><rect fill="#ff6300" height="2.6" width="2.6" x="76.5" y="63.0"><title>2016-05-14 20 hours</title></rect><rect fill="#82ff25" height="2.6" width="2.6" x="76.5" y="66.5"><title>2016-05-15 17 hours</title></rect><rect fill="#82ff25" height="2.6" width="2.6" x="80.0" y="45.5"><title>2016-05-16 17 hours</title></rect><rect fill="#58ff2a" height="2.6" width="2.6" x="80.0" y="49.0"><title>2016-05-17 15 hours</title></rect><rect fill="#82ff25" height="2.6" width="2.6" x="80.0" y="52.5"><title>2016-05-18 17 hours</title></rect><rect fill="#58ff2a" height="2.6" width="2.6" x="80.0" y="56.0"><title>2016-05-19 15 hours</title></rect><rect fill="#4be4ff" height="2.6" width="2.6" x="80.0" y="59.5"><title>2016-05-20 2 hours</title></rect><rect fill="#44ff2d" height="2.6" width="2.6" x="80.0" y="63.0"><title>2016-05-21 14 hours</title></rect><rect fill="#82ff25" height="2.6" width="2.6" x="80.0" y="66.5"><title>2016-05-22 17 hours</title></rect><rect fill="#ff4a00" height="2.6" width="2.6" x="83.5" y="45.5"><title>2016-05-23 23 hours</title></rect><rect fill="#ff4a00" height="2.6" width="2.6" x="83.5" y="49.0"><title>2016-05-24 23 hours</title></rect><rect fill="#82ff25" height="2.6" width="2.6" x="83.5" y="52.5"><title>2016-05-25 17 hours</title></rect><rect fill="#ff6300" height="2.6" width="2.6" x="83.5" y="56.0"><title>2016-05-26 20 hours</title></rect><rect fill="#82ff25" height="2.6" width="2.6" x="83.5" y="59.5"><title>2016-05-27 17 hours</title></rect><rect fill="#82ff25" height="2.6" width="2.6" x="83.5" y="63.0"><title>2016-05-28 17 hours</title></rect><rect fill="#82ff25" height="2.6" width="2.6" x="83.5" y="66.5"><title>2016-05-29 17 hours</title></rect><rect fill="#ff5200" height="2.6" width="2.6" x="87.0" y="45.5"><title>2016-05-30 22 hours</title></rect><rect fill="#6dff28" height="2.6" width="2.6" x="87.0" y="49.0"><title>2016-05-31 16 hours</title></rect><rect fill="#58ff2a" height="2.6" width="2.6" x="87.0" y="52.5"><title>2016-06-01 15 hours</title></rect><rect fill="#ff7300" height="2.6" width="2.6" x="87.0" y="56.0"><title>2016-06-02 18 hours</title></rect><rect fill="#ff4a00" height="2.6" width="2.6" x="87.0" y="59.5"><title>2016-06-03 23 hours</title></rect><rect fill="#32ff46" height="2.6" width="2.6" x="87.0" y="63.0"><title>2016-06-04 12 hours</title></rect><rect fill="#31ff2f" height="2.6" width="2.6" x="87.0" y="66.5"><title>2016-06-05 13 hours</title></rect><rect fill="#6dff28" height="2.6" width="2.6" x="90.5" y="45.5"><title>2016-06-06 16 hours</title></rect><rect fill="#ff7300" height="2.6" width="2.6" x="90.5" y="49.0"><title>2016-06-07 18 hours</title></rect><rect fill="#58ff2a" height="2.6" width="2.6" x="90.5" y="52.5"><title>2016-06-08 15 hours</title></rect><rect fill="#58ff2a" height="2.6" width="2.6" x="90.5" y="56.0"><title>2016-06-09 15 hours</title></rect><rect fill="#58ff2a" height="2.6" width="2.6" x="90.5" y="59.5"><title>2016-06-10 15 hours</title></rect><rect fill="#44ff2d" height="2.6" width="2.6" x="90.5" y="63.0"><title>2016-06-11 14 hours</title></rect><rect fill="#82ff25" height="2.6" width="2.6" x="90.5" y="66.5"><title>2016-06-12 17 hours</title></rect><rect fill="#58ff2a" height="2.6" width="2.6" x="94.0" y="45.5"><title>2016-06-13 15 hours</title></rect><rect fill="#6dff28" height="2.6" width="2.6" x="94.0" y="49.0"><title>2016-06-14 16 hours</title></rect><rect fill="#ff7300" height="2.6" width="2.6" x="94.0" y="52.5"><title>2016-06-15 18 hours</title></rect><rect fill="#ff7300" height="2.6" width="2.6" x="94.0" y="56.0"><title>2016-06-16 18 hours</title></rect><rect fill="#34ff5d" height="2.6" width="2.6" x="94.0" y="59.5"><title>2016-06-17 11 hours</title></rect><rect fill="#44ff2d" height="2.6" width="2.6" x="94.0" y="63.0"><title>2016-06-18 14 hours</title></rect><rect fill="#6dff28" height="2.6" width="2.6" x="94.0" y="66.5"><title>2016-06-19 16 hours</title></rect><rect fill="#ff6b00" height="2.6" width="2.6" x="97.5" y="45.5"><title>2016-06-20 19 hours</title></rect><rect fill="#6dff28" height="2.6" width="2.6" x="97.5" y="49.0"><title>2016-06-21 16 hours</title></rect><rect fill="#82ff25" height="2.6" width="2.6" x="97.5" y="52.5"><title>2016-06-22 17 hours</title></rect><rect fill="#58ff2a" height="2.6" width="2.6" x="97.5" y="56.0"><title>2016-06-23 15 hours</title></rect><rect fill="#ff7300" height="2.6" width="2.6" x="97.5" y="59.5"><title>2016-06-24 18 hours</title></rect><rect fill="#3cffa1" height="2.6" width="2.6" x="97.5" y="63.0"><title>2016-06-25 8 hours</title></rect><rect fill="#44ff2d" height="2.6" width="2.6" x="97.5" y="66.5"><title>2016-06-26 14 hours</title></rect><rect fill="#58ff2a" height="2.6" width="2.6" x="101.0" y="45.5"><title>2016-06-27 15 hours</title></rect><rect fill="#82ff25" height="2.6" width="2.6" x="101.0" y="49.0"><title>2016-06-28 17 hours</title></rect><rect fill="#6dff28" height="2.6" width="2.6" x="101.0" y="52.5"><title>2016-06-29 16 hours</title></rect><rect fill="#82ff25" height="2.6" width="2.6" x="101.0" y="56.0"><title>2016-06-30 17 hours</title></rect><rect fill="#82ff25" height="2.6" width="2.6" x="101.0" y="59.5"><title>2016-07-01 17 hours</title></rect><rect fill="#6dff28" height="2.6" width="2.6" x="101.0" y="63.0"><title>2016-07-02 16 hours</title></rect><rect fill="#44ff2d" height="2.6" width="2.6" x="101.0" y="66.5"><title>2016-07-03 14 hours</title></rect><rect fill="#48f7ff" height="2.6" width="2.6" x="104.5" y="45.5"><title>2016-07-04 3 hours</title></rect><rect fill="#44ff2d" height="2.6" width="2.6" x="104.5" y="49.0"><title>2016-07-05 14 hours</title></rect><rect fill="#ff7300" height="2.6" width="2.6" x="104.5" y="52.5"><title>2016-07-06 18 hours</title></rect><rect fill="#58ff2a" height="2.6" width="2.6" x="104.5" y="56.0"><title>2016-07-07 15 hours</title></rect><rect fill="#6dff28" height="2.6" width="2.6" x="104.5" y="59.5"><title>2016-07-08 16 hours</title></rect><rect fill="#44ff2d" height="2.6" width="2.6" x="104.5" y="63.0"><title>2016-07-09 14 hours</title></rect><rect fill="#ff6b00" height="2.6" width="2.6" x="104.5" y="66.5"><title>2016-07-10 19 hours</title></rect><rect fill="#82ff25" height="2.6" width="2.6" x="108.0" y="45.5"><title>2016-07-11 17 hours</title></rect><rect fill="#58ff2a" height="2.6" width="2.6" x="108.0" y="49.0"><title>2016-07-12 15 hours</title></rect><rect fill="#6dff28" height="2.6" width="2.6" x="108.0" y="52.5"><title>2016-07-13 16 hours</title></rect><rect fill="#58ff2a" height="2.6" width="2.6" x="108.0" y="56.0"><title>2016-07-14 15 hours</title></rect><rect fill="#58ff2a" height="2.6" width="2.6" x="108.0" y="59.5"><title>2016-07-15 15 hours</title></rect><rect fill="#58ff2a" height="2.6" width="2.6" x="108.0" y="63.0"><title>2016-07-16 15 hours</title></rect><rect fill="#58ff2a" height="2.6" width="2.6" x="108.0" y="66.5"><title>2016-07-17 15 hours</title></rect><rect fill="#ff7300" height="2.6" width="2.6" x="111.5" y="45.5"><title>2016-07-18 18 hours</title></rect><rect fill="#82ff25" height="2.6" width="2.6" x="111.5" y="49.0"><title>2016-07-19 17 hours</title></rect><rect fill="#6dff28" height="2.6" width="2.6" x="111.5" y="52.5"><title>2016-07-20 16 hours</title></rect><rect fill="#6dff28" height="2.6" width="2.6" x="111.5" y="56.0"><title>2016-07-21 16 hours</title></rect><rect fill="#58ff2a" height="2.6" width="2.6" x="111.5" y="59.5"><title>2016-07-22 15 hours</title></rect><rect fill="#58ff2a" height="2.6" width="2.6" x="111.5" y="63.0"><title>2016-07-23 15 hours</title></rect><rect fill="#4dd2ff" height="2.6" width="2.6" x="111.5" y="66.5"><title>2016-07-24 1 hours</title></rect><rect fill="#444444" height="2.6" width="2.6" x="115.0" y="45.5"><title>2016-07-25</title></rect><rect fill="#ff7300" height="2.6" width="2.6" x="115.0" y="49.0"><title>2016-07-26 18 hours</title></rect><rect fill="#ff6300" height="2.6" width="2.6" x="115.0" y="52.5"><title>2016-07-27 20 hours</title></rect><rect fill="#6dff28" height="2.6" width="2.6" x="115.0" y="56.0"><title>2016-07-28 16 hours</title></rect><rect fill="#58ff2a" height="2.6" width="2.6" x="115.0" y="59.5"><title>2016-07-29 15 hours</title></rect><rect fill="#6dff28" height="2.6" width="2.6" x="115.0" y="63.0"><title>2016-07-30 16 hours</title></rect><rect fill="#31ff2f" height="2.6" width="2.6" x="115.0" y="66.5"><title>2016-07-31 13 hours</title></rect><rect fill="#6dff28" height="2.6" width="2.6" x="118.5" y="45.5"><title>2016-08-01 16 hours</title></rect><rect fill="#58ff2a" height="2.6" width="2.6" x="118.5" y="49.0"><title>2016-08-02 15 hours</title></rect><rect fill="#6dff28" height="2.6" width="2.6" x="118.5" y="52.5"><title>2016-08-03 16 hours</title></rect><rect fill="#444444" height="2.6" width="2.6" x="118.5" y="56.0"><title>2016-08-04</title></rect><rect fill="#444444" height="2.6" width="2.6" x="118.5" y="59.5"><title>2016-08-05</title></rect><rect fill="#444444" height="2.6" width="2.6" x="118.5" y="63.0"><title>2016-08-06</title></rect><rect fill="#444444" height="2.6" width="2.6" x="118.5" y="66.5"><title>2016-08-07</title></rect><rect fill="#58ff2a" height="2.6" width="2.6" x="122.0" y="45.5"><title>2016-08-08 15 hours</title></rect><rect fill="#ff7300" height="2.6" width="2.6" x="122.0" y="49.0"><title>2016-08-09 18 hours</title></rect><rect fill="#6dff28" height="2.6" width="2.6" x="122.0" y="52.5"><title>2016-08-10 16 hours</title></rect><rect fill="#82ff25" height="2.6" width="2.6" x="122.0" y="56.0"><title>2016-08-11 17 hours</title></rect><rect fill="#6dff28" height="2.6" width="2.6" x="122.0" y="59.5"><title>2016-08-12 16 hours</title></rect><rect fill="#82ff25" height="2.6" width="2.6" x="122.0" y="63.0"><title>2016-08-13 17 hours</title></rect><rect fill="#44ff2d" height="2.6" width="2.6" x="122.0" y="66.5"><title>2016-08-14 14 hours</title></rect><rect fill="#6dff28" height="2.6" width="2.6" x="125.5" y="45.5"><title>2016-08-15 16 hours</title></rect><rect fill="#31ff2f" height="2.6" width="2.6" x="125.5" y="49.0"><title>2016-08-16 13 hours</title></rect><rect fill="#31ff2f" height="2.6" width="2.6" x="125.5" y="52.5"><title>2016-08-17 13 hours</title></rect><rect fill="#44ff2d" height="2.6" width="2.6" x="125.5" y="56.0"><title>2016-08-18 14 hours</title></rect><rect fill="#6dff28" height="2.6" width="2.6" x="125.5" y="59.5"><title>2016-08-19 16 hours</title></rect><rect fill="#82ff25" height="2.6" width="2.6" x="125.5" y="63.0"><title>2016-08-20 17 hours</title></rect><rect fill="red" height="2.6" width="2.6" x="125.5" y="66.5"><title>2016-08-21 24 hours</title></rect><rect fill="#58ff2a" height="2.6" width="2.6" x="129.0" y="45.5"><title>2016-08-22 15 hours</title></rect><rect fill="#58ff2a" height="2.6" width="2.6" x="129.0" y="49.0"><title>2016-08-23 15 hours</title></rect><rect fill="#58ff2a" height="2.6" width="2.6" x="129.0" y="52.5"><title>2016-08-24 15 hours</title></rect><rect fill="#ff7300" height="2.6" width="2.6" x="129.0" y="56.0"><title>2016-08-25 18 hours</title></rect><rect fill="#82ff25" height="2.6" width="2.6" x="129.0" y="59.5"><title>2016-08-26 17 hours</title></rect><rect fill="#41ffcb" height="2.6" width="2.6" x="129.0" y="63.0"><title>2016-08-27 6 hours</title></rect><rect fill="#58ff2a" height="2.6" width="2.6" x="129.0" y="66.5"><title>2016-08-28 15 hours</title></rect><rect fill="#82ff25" height="2.6" width="2.6" x="132.5" y="45.5"><title>2016-08-29 17 hours</title></rect><rect fill="#44ff2d" height="2.6" width="2.6" x="132.5" y="49.0"><title>2016-08-30 14 hours</title></rect><rect fill="#ff6b00" height="2.6" width="2.6" x="132.5" y="52.5"><title>2016-08-31 19 hours</title></rect><rect fill="#58ff2a" height="2.6" width="2.6" x="132.5" y="56.0"><title>2016-09-01 15 hours</title></rect><rect fill="#6dff28" height="2.6" width="2.6" x="132.5" y="59.5"><title>2016-09-02 16 hours</title></rect><rect fill="#ff5a00" height="2.6" width="2.6" x="132.5" y="63.0"><title>2016-09-03 21 hours</title></rect><rect fill="#44ff2d" height="2.6" width="2.6" x="132.5" y="66.5"><title>2016-09-04 14 hours</title></rect><rect fill="#31ff2f" height="2.6" width="2.6" x="136.0" y="45.5"><title>2016-09-05 13 hours</title></rect><rect fill="#ff7300" height="2.6" width="2.6" x="136.0" y="49.0"><title>2016-09-06 18 hours</title></rect><rect fill="#ff6b00" height="2.6" width="2.6" x="136.0" y="52.5"><title>2016-09-07 19 hours</title></rect><rect fill="#ff5200" height="2.6" width="2.6" x="136.0" y="56.0"><title>2016-09-08 22 hours</title></rect><rect fill="#44ff2d" height="2.6" width="2.6" x="136.0" y="59.5"><title>2016-09-09 14 hours</title></rect><rect fill="#ff5200" height="2.6" width="2.6" x="136.0" y="63.0"><title>2016-09-10 22 hours</title></rect><rect fill="red" height="2.6" width="2.6" x="136.0" y="66.5"><title>2016-09-11 25 hours</title></rect><rect fill="#ff5200" height="2.6" width="2.6" x="139.5" y="45.5"><title>2016-09-12 22 hours</title></rect><rect fill="#ff5a00" height="2.6" width="2.6" x="139.5" y="49.0"><title>2016-09-13 21 hours</title></rect><rect fill="red" height="2.6" width="2.6" x="139.5" y="52.5"><title>2016-09-14 24 hours</title></rect><rect fill="#ff5200" height="2.6" width="2.6" x="139.5" y="56.0"><title>2016-09-15 22 hours</title></rect><rect fill="#ff4a00" height="2.6" width="2.6" x="139.5" y="59.5"><title>2016-09-16 23 hours</title></rect><rect fill="red" height="2.6" width="2.6" x="139.5" y="63.0"><title>2016-09-17 26 hours</title></rect><rect fill="red" height="2.6" width="2.6" x="139.5" y="66.5"><title>2016-09-18 24 hours</title></rect><rect fill="red" height="2.6" width="2.6" x="143.0" y="45.5"><title>2016-09-19 25 hours</title></rect><rect fill="red" height="2.6" width="2.6" x="143.0" y="49.0"><title>2016-09-20 24 hours</title></rect><rect fill="#ff6b00" height="2.6" width="2.6" x="143.0" y="52.5"><title>2016-09-21 19 hours</title></rect><rect fill="#ff4a00" height="2.6" width="2.6" x="143.0" y="56.0"><title>2016-09-22 23 hours</title></rect><rect fill="#44ff2d" height="2.6" width="2.6" x="143.0" y="59.5"><title>2016-09-23 14 hours</title></rect><rect fill="#ff5200" height="2.6" width="2.6" x="143.0" y="63.0"><title>2016-09-24 22 hours</title></rect><rect fill="#ff4a00" height="2.6" width="2.6" x="143.0" y="66.5"><title>2016-09-25 23 hours</title></rect><rect fill="red" height="2.6" width="2.6" x="146.5" y="45.5"><title>2016-09-26 24 hours</title></rect><rect fill="#82ff25" height="2.6" width="2.6" x="146.5" y="49.0"><title>2016-09-27 17 hours</title></rect><rect fill="#6dff28" height="2.6" width="2.6" x="146.5" y="52.5"><title>2016-09-28 16 hours</title></rect><rect fill="#82ff25" height="2.6" width="2.6" x="146.5" y="56.0"><title>2016-09-29 17 hours</title></rect><rect fill="#44ff2d" height="2.6" width="2.6" x="146.5" y="59.5"><title>2016-09-30 14 hours</title></rect><rect fill="#6dff28" height="2.6" width="2.6" x="146.5" y="63.0"><title>2016-10-01 16 hours</title></rect><rect fill="#ff4a00" height="2.6" width="2.6" x="146.5" y="66.5"><title>2016-10-02 23 hours</title></rect><rect fill="#ff6b00" height="2.6" width="2.6" x="150.0" y="45.5"><title>2016-10-03 19 hours</title></rect><rect fill="#ff4a00" height="2.6" width="2.6" x="150.0" y="49.0"><title>2016-10-04 23 hours</title></rect><rect fill="#58ff2a" height="2.6" width="2.6" x="150.0" y="52.5"><title>2016-10-05 15 hours</title></rect><rect fill="#58ff2a" height="2.6" width="2.6" x="150.0" y="56.0"><title>2016-10-06 15 hours</title></rect><rect fill="#ff6300" height="2.6" width="2.6" x="150.0" y="59.5"><title>2016-10-07 20 hours</title></rect><rect fill="#43ffe0" height="2.6" width="2.6" x="150.0" y="63.0"><title>2016-10-08 5 hours</title></rect><rect fill="#ff7300" height="2.6" width="2.6" x="150.0" y="66.5"><title>2016-10-09 18 hours</title></rect><rect fill="#58ff2a" height="2.6" width="2.6" x="153.5" y="45.5"><title>2016-10-10 15 hours</title></rect><rect fill="#82ff25" height="2.6" width="2.6" x="153.5" y="49.0"><title>2016-10-11 17 hours</title></rect><rect fill="#ff7300" height="2.6" width="2.6" x="153.5" y="52.5"><title>2016-10-12 18 hours</title></rect><rect fill="red" height="2.6" width="2.6" x="153.5" y="56.0"><title>2016-10-13 24 hours</title></rect><rect fill="#58ff2a" height="2.6" width="2.6" x="153.5" y="59.5"><title>2016-10-14 15 hours</title></rect><rect fill="#58ff2a" height="2.6" width="2.6" x="153.5" y="63.0"><title>2016-10-15 15 hours</title></rect><rect fill="#31ff2f" height="2.6" width="2.6" x="153.5" y="66.5"><title>2016-10-16 13 hours</title></rect><rect fill="#31ff2f" height="2.6" width="2.6" x="157.0" y="45.5"><title>2016-10-17 13 hours</title></rect><rect fill="#44ff2d" height="2.6" width="2.6" x="157.0" y="49.0"><title>2016-10-18 14 hours</title></rect><rect fill="#ff6b00" height="2.6" width="2.6" x="157.0" y="52.5"><title>2016-10-19 19 hours</title></rect><rect fill="#444444" height="2.6" width="2.6" x="157.0" y="56.0"><title>2016-10-20</title></rect><rect fill="#444444" height="2.6" width="2.6" x="157.0" y="59.5"><title>2016-10-21</title></rect><rect fill="#ff5a00" height="2.6" width="2.6" x="157.0" y="63.0"><title>2016-10-22 21 hours</title></rect><rect fill="#82ff25" height="2.6" width="2.6" x="157.0" y="66.5"><title>2016-10-23 17 hours</title></rect><rect fill="#ff6b00" height="2.6" width="2.6" x="160.5" y="45.5"><title>2016-10-24 19 hours</title></rect><rect fill="#58ff2a" height="2.6" width="2.6" x="160.5" y="49.0"><title>2016-10-25 15 hours</title></rect><rect fill="#ff5a00" height="2.6" width="2.6" x="160.5" y="52.5"><title>2016-10-26 21 hours</title></rect><rect fill="#6dff28" height="2.6" width="2.6" x="160.5" y="56.0"><title>2016-10-27 16 hours</title></rect><rect fill="#6dff28" height="2.6" width="2.6" x="160.5" y="59.5"><title>2016-10-28 16 hours</title></rect><rect fill="#44ff2d" height="2.6" width="2.6" x="160.5" y="63.0"><title>2016-10-29 14 hours</title></rect><rect fill="#ff5200" height="2.6" width="2.6" x="160.5" y="66.5"><title>2016-10-30 22 hours</title></rect><rect fill="#44ff2d" height="2.6" width="2.6" x="164.0" y="45.5"><title>2016-10-31 14 hours</title></rect><rect fill="#ff7300" height="2.6" width="2.6" x="164.0" y="49.0"><title>2016-11-01 18 hours</title></rect><rect fill="#82ff25" height="2.6" width="2.6" x="164.0" y="52.5"><title>2016-11-02 17 hours</title></rect><rect fill="#82ff25" height="2.6" width="2.6" x="164.0" y="56.0"><title>2016-11-03 17 hours</title></rect><rect fill="#82ff25" height="2.6" width="2.6" x="164.0" y="59.5"><title>2016-11-04 17 hours</title></rect><rect fill="#58ff2a" height="2.6" width="2.6" x="164.0" y="63.0"><title>2016-11-05 15 hours</title></rect><rect fill="#6dff28" height="2.6" width="2.6" x="164.0" y="66.5"><title>2016-11-06 16 hours</title></rect><rect fill="#58ff2a" height="2.6" width="2.6" x="167.5" y="45.5"><title>2016-11-07 15 hours</title></rect><rect fill="#82ff25" height="2.6" width="2.6" x="167.5" y="49.0"><title>2016-11-08 17 hours</title></rect><rect fill="#ff6b00" height="2.6" width="2.6" x="167.5" y="52.5"><title>2016-11-09 19 hours</title></rect><rect fill="#32ff46" height="2.6" width="2.6" x="167.5" y="56.0"><title>2016-11-10 12 hours</title></rect><rect fill="#ff6b00" height="2.6" width="2.6" x="167.5" y="59.5"><title>2016-11-11 19 hours</title></rect><rect fill="#44ff2d" height="2.6" width="2.6" x="167.5" y="63.0"><title>2016-11-12 14 hours</title></rect><rect fill="#ff4a00" height="2.6" width="2.6" x="167.5" y="66.5"><title>2016-11-13 23 hours</title></rect><rect fill="#ff5200" height="2.6" width="2.6" x="171.0" y="45.5"><title>2016-11-14 22 hours</title></rect><rect fill="#ff6b00" height="2.6" width="2.6" x="171.0" y="49.0"><title>2016-11-15 19 hours</title></rect><rect fill="#ff6b00" height="2.6" width="2.6" x="171.0" y="52.5"><title>2016-11-16 19 hours</title></rect><rect fill="#82ff25" height="2.6" width="2.6" x="171.0" y="56.0"><title>2016-11-17 17 hours</title></rect><rect fill="#ff5200" height="2.6" width="2.6" x="171.0" y="59.5"><title>2016-11-18 22 hours</title></rect><rect fill="#6dff28" height="2.6" width="2.6" x="171.0" y="63.0"><title>2016-11-19 16 hours</title></rect><rect fill="#ff5200" height="2.6" width="2.6" x="171.0" y="66.5"><title>2016-11-20 22 hours</title></rect><rect fill="#58ff2a" height="2.6" width="2.6" x="174.5" y="45.5"><title>2016-11-21 15 hours</title></rect><rect fill="red" height="2.6" width="2.6" x="174.5" y="49.0"><title>2016-11-22 32 hours</title></rect><rect fill="#82ff25" height="2.6" width="2.6" x="174.5" y="52.5"><title>2016-11-23 17 hours</title></rect><rect fill="#ff5200" height="2.6" width="2.6" x="174.5" y="56.0"><title>2016-11-24 22 hours</title></rect><rect fill="#58ff2a" height="2.6" width="2.6" x="174.5" y="59.5"><title>2016-11-25 15 hours</title></rect><rect fill="#6dff28" height="2.6" width="2.6" x="174.5" y="63.0"><title>2016-11-26 16 hours</title></rect><rect fill="#6dff28" height="2.6" width="2.6" x="174.5" y="66.5"><title>2016-11-27 16 hours</title></rect><rect fill="#58ff2a" height="2.6" width="2.6" x="178.0" y="45.5"><title>2016-11-28 15 hours</title></rect><rect fill="#ff4a00" height="2.6" width="2.6" x="178.0" y="49.0"><title>2016-11-29 23 hours</title></rect><rect fill="#82ff25" height="2.6" width="2.6" x="178.0" y="52.5"><title>2016-11-30 17 hours</title></rect><rect fill="#58ff2a" height="2.6" width="2.6" x="178.0" y="56.0"><title>2016-12-01 15 hours</title></rect><rect fill="#ff7300" height="2.6" width="2.6" x="178.0" y="59.5"><title>2016-12-02 18 hours</title></rect><rect fill="#ff4a00" height="2.6" width="2.6" x="178.0" y="63.0"><title>2016-12-03 23 hours</title></rect><rect fill="#44ff2d" height="2.6" width="2.6" x="178.0" y="66.5"><title>2016-12-04 14 hours</title></rect><rect fill="#ff7300" height="2.6" width="2.6" x="181.5" y="45.5"><title>2016-12-05 18 hours</title></rect><rect fill="#44ff2d" height="2.6" width="2.6" x="181.5" y="49.0"><title>2016-12-06 14 hours</title></rect><rect fill="#ff4a00" height="2.6" width="2.6" x="181.5" y="52.5"><title>2016-12-07 23 hours</title></rect><rect fill="#ff6b00" height="2.6" width="2.6" x="181.5" y="56.0"><title>2016-12-08 19 hours</title></rect><rect fill="#ff7300" height="2.6" width="2.6" x="181.5" y="59.5"><title>2016-12-09 18 hours</title></rect><rect fill="#58ff2a" height="2.6" width="2.6" x="181.5" y="63.0"><title>2016-12-10 15 hours</title></rect><rect fill="red" height="2.6" width="2.6" x="181.5" y="66.5"><title>2016-12-11 25 hours</title></rect><rect fill="#ff6b00" height="2.6" width="2.6" x="185.0" y="45.5"><title>2016-12-12 19 hours</title></rect><rect fill="#ff4a00" height="2.6" width="2.6" x="185.0" y="49.0"><title>2016-12-13 23 hours</title></rect><rect fill="#58ff2a" height="2.6" width="2.6" x="185.0" y="52.5"><title>2016-12-14 15 hours</title></rect><rect fill="#82ff25" height="2.6" width="2.6" x="185.0" y="56.0"><title>2016-12-15 17 hours</title></rect><rect fill="#6dff28" height="2.6" width="2.6" x="185.0" y="59.5"><title>2016-12-16 16 hours</title></rect><rect fill="#ff5200" height="2.6" width="2.6" x="185.0" y="63.0"><title>2016-12-17 22 hours</title></rect><rect fill="#58ff2a" height="2.6" width="2.6" x="185.0" y="66.5"><title>2016-12-18 15 hours</title></rect><rect fill="#82ff25" height="2.6" width="2.6" x="188.5" y="45.5"><title>2016-12-19 17 hours</title></rect><rect fill="red" height="2.6" width="2.6" x="188.5" y="49.0"><title>2016-12-20 24 hours</title></rect><rect fill="#58ff2a" height="2.6" width="2.6" x="188.5" y="52.5"><title>2016-12-21 15 hours</title></rect><rect fill="#58ff2a" height="2.6" width="2.6" x="188.5" y="56.0"><title>2016-12-22 15 hours</title></rect><rect fill="#ff6300" height="2.6" width="2.6" x="188.5" y="59.5"><title>2016-12-23 20 hours</title></rect><rect fill="#58ff2a" height="2.6" width="2.6" x="188.5" y="63.0"><title>2016-12-24 15 hours</title></rect><rect fill="#ff4a00" height="2.6" width="2.6" x="188.5" y="66.5"><title>2016-12-25 23 hours</title></rect><rect fill="#31ff2f" height="2.6" width="2.6" x="192.0" y="45.5"><title>2016-12-26 13 hours</title></rect><rect fill="red" height="2.6" width="2.6" x="192.0" y="49.0"><title>2016-12-27 25 hours</title></rect><rect fill="#82ff25" height="2.6" width="2.6" x="192.0" y="52.5"><title>2016-12-28 17 hours</title></rect><rect fill="#ff4a00" height="2.6" width="2.6" x="192.0" y="56.0"><title>2016-12-29 23 hours</title></rect><rect fill="#6dff28" height="2.6" width="2.6" x="192.0" y="59.5"><title>2016-12-30 16 hours</title></rect><rect fill="red" height="2.6" width="2.6" x="192.0" y="63.0"><title>2016-12-31 25 hours</title></rect></svg>