<?xml version="1.0" encoding="utf-8" ?>
<svg baseProfile="full" height="78mm" version="1.1" viewBox="0,0,200,78" width="200mm" xmlns="http://www.w3.org/2000/svg" xmlns:ev="http://www.w3.org/2001/xml-events" xmlns:xlink="http://www.w3.org/1999/xlink"><defs /><rect fill="#222222" height="78" width="200" x="0" y="0" /><text fill="#FFFFFF" style="font-size:12px; font-family:Arial; font-weight:bold;" x="10" y="20">rip-tyang apple_health</text><text dominant-baseline="hanging" fill="#FFFFFF" style="font-size:10.0px; font-family:Arial;" x="10" y="30">2018</text><text dominant-baseline="hanging" fill="#FFFFFF" style="font-size:4.125px; font-family:Arial;" x="175" y="35">5495 hours</text><text fill="#FFFFFF" style="font-size:2.5px; font-family:Arial" x="10.0" y="44">Jan</text><text fill="#FFFFFF" style="font-size:2.5px; font-family:Arial" x="25.5" y="44">Feb</text><text fill="#FFFFFF" style="font-size:2.5px; font-family:Arial" x="41.0" y="44">Mar</text><text fill="#FFFFFF" style="font-size:2.5px; font-family:Arial" x="56.5" y="44">Apr</text><text fill="#FFFFFF" style="font-size:2.5px; font-family:Arial" x="72.0" y="44">May</text><text fill="#FFFFFF" style="font-size:2.5px; font-family:Arial" x="87.5" y="44">Jun</text><text fill="#FFFFFF" style="font-size:2.5px; font-family:Arial" x="103.0" y="44">Jul</text><text fill="#FFFFFF" style="font-size:2.5px; font-family:Arial" x="118.5" y="44">Aug</text><text fill="#FFFFFF" style="font-size:2.5px; font-family:Arial" x="134.0" y="44">Sep</text><text fill="#FFFFFF" style="font-size:2.5px; font-family:Arial" x="149.5" y="44">Oct</text><text fill="#FFFFFF" style="font-size:2.5px; font-family:Arial" x="165.0" y="44">Nov</text><text fill="#FFFFFF" style="font-size:2.5px; font-family:Arial" x="180.5" y="44">Dec</text><rect fill="#35ff68" height="2.6" width="2.6" x="10.0" y="45.5"><title>2018-01-01 9 hours</title></rect><rect fill="#ff4500" height="2.6" width="2.6" x="10.0" y="49.0"><title>2018-01-02 20 hours</title></rect><rect fill="#ff6c00" height="2.6" width="2.6" x="10.0" y="52.5"><title>2018-01-03 16 hours</title></rect><rect fill="#2fff30" height="2.6" width="2.6" x="10.0" y="56.0"><title>2018-01-04 11 hours</title></rect><rect fill="red" height="2.6" width="2.6" x="10.0" y="59.5"><title>2018-01-05 23 hours</title></rect><rect fill="#35ff68" height="2.6" width="2.6" x="10.0" y="63.0"><title>2018-01-06 9 hours</title></rect><rect fill="#47ffff" height="2.6" width="2.6" x="10.0" y="66.5"><title>2018-01-07 3 hours</title></rect><rect fill="#2fff30" height="2.6" width="2.6" x="13.5" y="45.5"><title>2018-01-08 11 hours</title></rect><rect fill="#91ff24" height="2.6" width="2.6" x="13.5" y="49.0"><title>2018-01-09 15 hours</title></rect><rect fill="#46ff2c" height="2.6" width="2.6" x="13.5" y="52.5"><title>2018-01-10 12 hours</title></rect><rect fill="#32ff4c" height="2.6" width="2.6" x="13.5" y="56.0"><title>2018-01-11 10 hours</title></rect><rect fill="#91ff24" height="2.6" width="2.6" x="13.5" y="59.5"><title>2018-01-12 15 hours</title></rect><rect fill="#38ff83" height="2.6" width="2.6" x="13.5" y="63.0"><title>2018-01-13 8 hours</title></rect><rect fill="#ff4e00" height="2.6" width="2.6" x="13.5" y="66.5"><title>2018-01-14 19 hours</title></rect><rect fill="#46ff2c" height="2.6" width="2.6" x="17.0" y="45.5"><title>2018-01-15 12 hours</title></rect><rect fill="#ff6200" height="2.6" width="2.6" x="17.0" y="49.0"><title>2018-01-16 17 hours</title></rect><rect fill="#91ff24" height="2.6" width="2.6" x="17.0" y="52.5"><title>2018-01-17 15 hours</title></rect><rect fill="#91ff24" height="2.6" width="2.6" x="17.0" y="56.0"><title>2018-01-18 15 hours</title></rect><rect fill="#77ff26" height="2.6" width="2.6" x="17.0" y="59.5"><title>2018-01-19 14 hours</title></rect><rect fill="#ff3b00" height="2.6" width="2.6" x="17.0" y="63.0"><title>2018-01-20 21 hours</title></rect><rect fill="#2fff30" height="2.6" width="2.6" x="17.0" y="66.5"><title>2018-01-21 11 hours</title></rect><rect fill="#91ff24" height="2.6" width="2.6" x="20.5" y="45.5"><title>2018-01-22 15 hours</title></rect><rect fill="#ff6c00" height="2.6" width="2.6" x="20.5" y="49.0"><title>2018-01-23 16 hours</title></rect><rect fill="#ff6c00" height="2.6" width="2.6" x="20.5" y="52.5"><title>2018-01-24 16 hours</title></rect><rect fill="#ff6c00" height="2.6" width="2.6" x="20.5" y="56.0"><title>2018-01-25 16 hours</title></rect><rect fill="#91ff24" height="2.6" width="2.6" x="20.5" y="59.5"><title>2018-01-26 15 hours</title></rect><rect fill="#5fff29" height="2.6" width="2.6" x="20.5" y="63.0"><title>2018-01-27 13 hours</title></rect><rect fill="#ff6c00" height="2.6" width="2.6" x="20.5" y="66.5"><title>2018-01-28 16 hours</title></rect><rect fill="#91ff24" height="2.6" width="2.6" x="24.0" y="45.5"><title>2018-01-29 15 hours</title></rect><rect fill="#ff3b00" height="2.6" width="2.6" x="24.0" y="49.0"><title>2018-01-30 21 hours</title></rect><rect fill="#91ff24" height="2.6" width="2.6" x="24.0" y="52.5"><title>2018-01-31 15 hours</title></rect><rect fill="#ff6c00" height="2.6" width="2.6" x="24.0" y="56.0"><title>2018-02-01 16 hours</title></rect><rect fill="#77ff26" height="2.6" width="2.6" x="24.0" y="59.5"><title>2018-02-02 14 hours</title></rect><rect fill="red" height="2.6" width="2.6" x="24.0" y="63.0"><title>2018-02-03 24 hours</title></rect><rect fill="#ff4e00" height="2.6" width="2.6" x="24.0" y="66.5"><title>2018-02-04 19 hours</title></rect><rect fill="#77ff26" height="2.6" width="2.6" x="27.5" y="45.5"><title>2018-02-05 14 hours</title></rect><rect fill="#91ff24" height="2.6" width="2.6" x="27.5" y="49.0"><title>2018-02-06 15 hours</title></rect><rect fill="#ff6c00" height="2.6" width="2.6" x="27.5" y="52.5"><title>2018-02-07 16 hours</title></rect><rect fill="#77ff26" height="2.6" width="2.6" x="27.5" y="56.0"><title>2018-02-08 14 hours</title></rect><rect fill="#ff6c00" height="2.6" width="2.6" x="27.5" y="59.5"><title>2018-02-09 16 hours</title></rect><rect fill="#77ff26" height="2.6" width="2.6" x="27.5" y="63.0"><title>2018-02-10 14 hours</title></rect><rect fill="#46ff2c" height="2.6" width="2.6" x="27.5" y="66.5"><title>2018-02-11 12 hours</title></rect><rect fill="#35ff68" height="2.6" width="2.6" x="31.0" y="45.5"><title>2018-02-12 9 hours</title></rect><rect fill="#91ff24" height="2.6" width="2.6" x="31.0" y="49.0"><title>2018-02-13 15 hours</title></rect><rect fill="#ff6c00" height="2.6" width="2.6" x="31.0" y="52.5"><title>2018-02-14 16 hours</title></rect><rect fill="#ff5800" height="2.6" width="2.6" x="31.0" y="56.0"><title>2018-02-15 18 hours</title></rect><rect fill="#91ff24" height="2.6" width="2.6" x="31.0" y="59.5"><title>2018-02-16 15 hours</title></rect><rect fill="red" height="2.6" width="2.6" x="31.0" y="63.0"><title>2018-02-17 24 hours</title></rect><rect fill="#ff3100" height="2.6" width="2.6" x="31.0" y="66.5"><title>2018-02-18 22 hours</title></rect><rect fill="#46ff2c" height="2.6" width="2.6" x="34.5" y="45.5"><title>2018-02-19 12 hours</title></rect><rect fill="#ff4500" height="2.6" width="2.6" x="34.5" y="49.0"><title>2018-02-20 20 hours</title></rect><rect fill="#77ff26" height="2.6" width="2.6" x="34.5" y="52.5"><title>2018-02-21 14 hours</title></rect><rect fill="#ff5800" height="2.6" width="2.6" x="34.5" y="56.0"><title>2018-02-22 18 hours</title></rect><rect fill="#ff6c00" height="2.6" width="2.6" x="34.5" y="59.5"><title>2018-02-23 16 hours</title></rect><rect fill="#ff6c00" height="2.6" width="2.6" x="34.5" y="63.0"><title>2018-02-24 16 hours</title></rect><rect fill="#91ff24" height="2.6" width="2.6" x="34.5" y="66.5"><title>2018-02-25 15 hours</title></rect><rect fill="red" height="2.6" width="2.6" x="38.0" y="45.5"><title>2018-02-26 23 hours</title></rect><rect fill="#91ff24" height="2.6" width="2.6" x="38.0" y="49.0"><title>2018-02-27 15 hours</title></rect><rect fill="#91ff24" height="2.6" width="2.6" x="38.0" y="52.5"><title>2018-02-28 15 hours</title></rect><rect fill="red" height="2.6" width="2.6" x="38.0" y="56.0"><title>2018-03-01 23 hours</title></rect><rect fill="#4ae8ff" height="2.6" width="2.6" x="38.0" y="59.5"><title>2018-03-02 2 hours</title></rect><rect fill="#ff6c00" height="2.6" width="2.6" x="38.0" y="63.0"><title>2018-03-03 16 hours</title></rect><rect fill="#91ff24" height="2.6" width="2.6" x="38.0" y="66.5"><title>2018-03-04 15 hours</title></rect><rect fill="#ff6c00" height="2.6" width="2.6" x="41.5" y="45.5"><title>2018-03-05 16 hours</title></rect><rect fill="#ff6c00" height="2.6" width="2.6" x="41.5" y="49.0"><title>2018-03-06 16 hours</title></rect><rect fill="#91ff24" height="2.6" width="2.6" x="41.5" y="52.5"><title>2018-03-07 15 hours</title></rect><rect fill="#77ff26" height="2.6" width="2.6" x="41.5" y="56.0"><title>2018-03-08 14 hours</title></rect><rect fill="#ff6c00" height="2.6" width="2.6" x="41.5" y="59.5"><title>2018-03-09 16 hours</title></rect><rect fill="#ff4e00" height="2.6" width="2.6" x="41.5" y="63.0"><title>2018-03-10 19 hours</title></rect><rect fill="#ff4e00" height="2.6" width="2.6" x="41.5" y="66.5"><title>2018-03-11 19 hours</title></rect><rect fill="#ff6c00" height="2.6" width="2.6" x="45.0" y="45.5"><title>2018-03-12 16 hours</title></rect><rect fill="#77ff26" height="2.6" width="2.6" x="45.0" y="49.0"><title>2018-03-13 14 hours</title></rect><rect fill="#ff6200" height="2.6" width="2.6" x="45.0" y="52.5"><title>2018-03-14 17 hours</title></rect><rect fill="#91ff24" height="2.6" width="2.6" x="45.0" y="56.0"><title>2018-03-15 15 hours</title></rect><rect fill="#ff6200" height="2.6" width="2.6" x="45.0" y="59.5"><title>2018-03-16 17 hours</title></rect><rect fill="#91ff24" height="2.6" width="2.6" x="45.0" y="63.0"><title>2018-03-17 15 hours</title></rect><rect fill="red" height="2.6" width="2.6" x="45.0" y="66.5"><title>2018-03-18 23 hours</title></rect><rect fill="#77ff26" height="2.6" width="2.6" x="48.5" y="45.5"><title>2018-03-19 14 hours</title></rect><rect fill="#ff6200" height="2.6" width="2.6" x="48.5" y="49.0"><title>2018-03-20 17 hours</title></rect><rect fill="#ff6c00" height="2.6" width="2.6" x="48.5" y="52.5"><title>2018-03-21 16 hours</title></rect><rect fill="#ff6200" height="2.6" width="2.6" x="48.5" y="56.0"><title>2018-03-22 17 hours</title></rect><rect fill="#ff6c00" height="2.6" width="2.6" x="48.5" y="59.5"><title>2018-03-23 16 hours</title></rect><rect fill="#ff4500" height="2.6" width="2.6" x="48.5" y="63.0"><title>2018-03-24 20 hours</title></rect><rect fill="#2fff30" height="2.6" width="2.6" x="48.5" y="66.5"><title>2018-03-25 11 hours</title></rect><rect fill="#ff6c00" height="2.6" width="2.6" x="52.0" y="45.5"><title>2018-03-26 16 hours</title></rect><rect fill="red" height="2.6" width="2.6" x="52.0" y="49.0"><title>2018-03-27 24 hours</title></rect><rect fill="#77ff26" height="2.6" width="2.6" x="52.0" y="52.5"><title>2018-03-28 14 hours</title></rect><rect fill="#46ff2c" height="2.6" width="2.6" x="52.0" y="56.0"><title>2018-03-29 12 hours</title></rect><rect fill="#91ff24" height="2.6" width="2.6" x="52.0" y="59.5"><title>2018-03-30 15 hours</title></rect><rect fill="#91ff24" height="2.6" width="2.6" x="52.0" y="63.0"><title>2018-03-31 15 hours</title></rect><rect fill="#91ff24" height="2.6" width="2.6" x="52.0" y="66.5"><title>2018-04-01 15 hours</title></rect><rect fill="#91ff24" height="2.6" width="2.6" x="55.5" y="45.5"><title>2018-04-02 15 hours</title></rect><rect fill="#91ff24" height="2.6" width="2.6" x="55.5" y="49.0"><title>2018-04-03 15 hours</title></rect><rect fill="#91ff24" height="2.6" width="2.6" x="55.5" y="52.5"><title>2018-04-04 15 hours</title></rect><rect fill="#ff5800" height="2.6" width="2.6" x="55.5" y="56.0"><title>2018-04-05 18 hours</title></rect><rect fill="#91ff24" height="2.6" width="2.6" x="55.5" y="59.5"><title>2018-04-06 15 hours</title></rect><rect fill="#ff6c00" height="2.6" width="2.6" x="55.5" y="63.0"><title>2018-04-07 16 hours</title></rect><rect fill="#ff6c00" height="2.6" width="2.6" x="55.5" y="66.5"><title>2018-04-08 16 hours</title></rect><rect fill="#ff6c00" height="2.6" width="2.6" x="59.0" y="45.5"><title>2018-04-09 16 hours</title></rect><rect fill="#91ff24" height="2.6" width="2.6" x="59.0" y="49.0"><title>2018-04-10 15 hours</title></rect><rect fill="#77ff26" height="2.6" width="2.6" x="59.0" y="52.5"><title>2018-04-11 14 hours</title></rect><rect fill="#77ff26" height="2.6" width="2.6" x="59.0" y="56.0"><title>2018-04-12 14 hours</title></rect><rect fill="#91ff24" height="2.6" width="2.6" x="59.0" y="59.5"><title>2018-04-13 15 hours</title></rect><rect fill="red" height="2.6" width="2.6" x="59.0" y="63.0"><title>2018-04-14 23 hours</title></rect><rect fill="#ff5800" height="2.6" width="2.6" x="59.0" y="66.5"><title>2018-04-15 18 hours</title></rect><rect fill="#91ff24" height="2.6" width="2.6" x="62.5" y="45.5"><title>2018-04-16 15 hours</title></rect><rect fill="#91ff24" height="2.6" width="2.6" x="62.5" y="49.0"><title>2018-04-17 15 hours</title></rect><rect fill="#5fff29" height="2.6" width="2.6" x="62.5" y="52.5"><title>2018-04-18 13 hours</title></rect><rect fill="#ff6200" height="2.6" width="2.6" x="62.5" y="56.0"><title>2018-04-19 17 hours</title></rect><rect fill="#ff6c00" height="2.6" width="2.6" x="62.5" y="59.5"><title>2018-04-20 16 hours</title></rect><rect fill="#91ff24" height="2.6" width="2.6" x="62.5" y="63.0"><title>2018-04-21 15 hours</title></rect><rect fill="#77ff26" height="2.6" width="2.6" x="62.5" y="66.5"><title>2018-04-22 14 hours</title></rect><rect fill="#ff6c00" height="2.6" width="2.6" x="66.0" y="45.5"><title>2018-04-23 16 hours</title></rect><rect fill="#5fff29" height="2.6" width="2.6" x="66.0" y="49.0"><title>2018-04-24 13 hours</title></rect><rect fill="#ff6200" height="2.6" width="2.6" x="66.0" y="52.5"><title>2018-04-25 17 hours</title></rect><rect fill="#77ff26" height="2.6" width="2.6" x="66.0" y="56.0"><title>2018-04-26 14 hours</title></rect><rect fill="#91ff24" height="2.6" width="2.6" x="66.0" y="59.5"><title>2018-04-27 15 hours</title></rect><rect fill="#77ff26" height="2.6" width="2.6" x="66.0" y="63.0"><title>2018-04-28 14 hours</title></rect><rect fill="red" height="2.6" width="2.6" x="66.0" y="66.5"><title>2018-04-29 23 hours</title></rect><rect fill="#ff4e00" height="2.6" width="2.6" x="69.5" y="45.5"><title>2018-04-30 19 hours</title></rect><rect fill="#91ff24" height="2.6" width="2.6" x="69.5" y="49.0"><title>2018-05-01 15 hours</title></rect><rect fill="#91ff24" height="2.6" width="2.6" x="69.5" y="52.5"><title>2018-05-02 15 hours</title></rect><rect fill="#ff6c00" height="2.6" width="2.6" x="69.5" y="56.0"><title>2018-05-03 16 hours</title></rect><rect fill="#ff6200" height="2.6" width="2.6" x="69.5" y="59.5"><title>2018-05-04 17 hours</title></rect><rect fill="#32ff4c" height="2.6" width="2.6" x="69.5" y="63.0"><title>2018-05-05 10 hours</title></rect><rect fill="#91ff24" height="2.6" width="2.6" x="69.5" y="66.5"><title>2018-05-06 15 hours</title></rect><rect fill="#91ff24" height="2.6" width="2.6" x="73.0" y="45.5"><title>2018-05-07 15 hours</title></rect><rect fill="#91ff24" height="2.6" width="2.6" x="73.0" y="49.0"><title>2018-05-08 15 hours</title></rect><rect fill="#77ff26" height="2.6" width="2.6" x="73.0" y="52.5"><title>2018-05-09 14 hours</title></rect><rect fill="#ff6200" height="2.6" width="2.6" x="73.0" y="56.0"><title>2018-05-10 17 hours</title></rect><rect fill="#ff6c00" height="2.6" width="2.6" x="73.0" y="59.5"><title>2018-05-11 16 hours</title></rect><rect fill="#ff6200" height="2.6" width="2.6" x="73.0" y="63.0"><title>2018-05-12 17 hours</title></rect><rect fill="#ff3100" height="2.6" width="2.6" x="73.0" y="66.5"><title>2018-05-13 22 hours</title></rect><rect fill="#ff6c00" height="2.6" width="2.6" x="76.5" y="45.5"><title>2018-05-14 16 hours</title></rect><rect fill="#ff6c00" height="2.6" width="2.6" x="76.5" y="49.0"><title>2018-05-15 16 hours</title></rect><rect fill="#91ff24" height="2.6" width="2.6" x="76.5" y="52.5"><title>2018-05-16 15 hours</title></rect><rect fill="#ff6200" height="2.6" width="2.6" x="76.5" y="56.0"><title>2018-05-17 17 hours</title></rect><rect fill="#ff6200" height="2.6" width="2.6" x="76.5" y="59.5"><title>2018-05-18 17 hours</title></rect><rect fill="#ff5800" height="2.6" width="2.6" x="76.5" y="63.0"><title>2018-05-19 18 hours</title></rect><rect fill="#ff6c00" height="2.6" width="2.6" x="76.5" y="66.5"><title>2018-05-20 16 hours</title></rect><rect fill="#91ff24" height="2.6" width="2.6" x="80.0" y="45.5"><title>2018-05-21 15 hours</title></rect><rect fill="#91ff24" height="2.6" width="2.6" x="80.0" y="49.0"><title>2018-05-22 15 hours</title></rect><rect fill="#2fff30" height="2.6" width="2.6" x="80.0" y="52.5"><title>2018-05-23 11 hours</title></rect><rect fill="#ff6c00" height="2.6" width="2.6" x="80.0" y="56.0"><title>2018-05-24 16 hours</title></rect><rect fill="#77ff26" height="2.6" width="2.6" x="80.0" y="59.5"><title>2018-05-25 14 hours</title></rect><rect fill="#35ff68" height="2.6" width="2.6" x="80.0" y="63.0"><title>2018-05-26 9 hours</title></rect><rect fill="#2fff30" height="2.6" width="2.6" x="80.0" y="66.5"><title>2018-05-27 11 hours</title></rect><rect fill="#3bff9e" height="2.6" width="2.6" x="83.5" y="45.5"><title>2018-05-28 7 hours</title></rect><rect fill="#2fff30" height="2.6" width="2.6" x="83.5" y="49.0"><title>2018-05-29 11 hours</title></rect><rect fill="#ff5800" height="2.6" width="2.6" x="83.5" y="52.5"><title>2018-05-30 18 hours</title></rect><rect fill="#77ff26" height="2.6" width="2.6" x="83.5" y="56.0"><title>2018-05-31 14 hours</title></rect><rect fill="#ff6c00" height="2.6" width="2.6" x="83.5" y="59.5"><title>2018-06-01 16 hours</title></rect><rect fill="#91ff24" height="2.6" width="2.6" x="83.5" y="63.0"><title>2018-06-02 15 hours</title></rect><rect fill="#46ff2c" height="2.6" width="2.6" x="83.5" y="66.5"><title>2018-06-03 12 hours</title></rect><rect fill="#77ff26" height="2.6" width="2.6" x="87.0" y="45.5"><title>2018-06-04 14 hours</title></rect><rect fill="#91ff24" height="2.6" width="2.6" x="87.0" y="49.0"><title>2018-06-05 15 hours</title></rect><rect fill="#4ae8ff" height="2.6" width="2.6" x="87.0" y="52.5"><title>2018-06-06 2 hours</title></rect><rect fill="#46ff2c" height="2.6" width="2.6" x="87.0" y="56.0"><title>2018-06-07 12 hours</title></rect><rect fill="#5fff29" height="2.6" width="2.6" x="87.0" y="59.5"><title>2018-06-08 13 hours</title></rect><rect fill="#ff6c00" height="2.6" width="2.6" x="87.0" y="63.0"><title>2018-06-09 16 hours</title></rect><rect fill="#91ff24" height="2.6" width="2.6" x="87.0" y="66.5"><title>2018-06-10 15 hours</title></rect><rect fill="#5fff29" height="2.6" width="2.6" x="90.5" y="45.5"><title>2018-06-11 13 hours</title></rect><rect fill="#ff6c00" height="2.6" width="2.6" x="90.5" y="49.0"><title>2018-06-12 16 hours</title></rect><rect fill="#46ff2c" height="2.6" width="2.6" x="90.5" y="52.5"><title>2018-06-13 12 hours</title></rect><rect fill="#2fff30" height="2.6" width="2.6" x="90.5" y="56.0"><title>2018-06-14 11 hours</title></rect><rect fill="#444444" height="2.6" width="2.6" x="90.5" y="59.5"><title>2018-06-15</title></rect><rect fill="#444444" height="2.6" width="2.6" x="90.5" y="63.0"><title>2018-06-16</title></rect><rect fill="#3effb7" height="2.6" width="2.6" x="90.5" y="66.5"><title>2018-06-17 6 hours</title></rect><rect fill="#91ff24" height="2.6" width="2.6" x="94.0" y="45.5"><title>2018-06-18 15 hours</title></rect><rect fill="#ff6200" height="2.6" width="2.6" x="94.0" y="49.0"><title>2018-06-19 17 hours</title></rect><rect fill="#4dd2ff" height="2.6" width="2.6" x="94.0" y="52.5"><title>2018-06-20 1 hours</title></rect><rect fill="#444444" height="2.6" width="2.6" x="94.0" y="56.0"><title>2018-06-21</title></rect><rect fill="#5fff29" height="2.6" width="2.6" x="94.0" y="59.5"><title>2018-06-22 13 hours</title></rect><rect fill="#2fff30" height="2.6" width="2.6" x="94.0" y="63.0"><title>2018-06-23 11 hours</title></rect><rect fill="#4ae8ff" height="2.6" width="2.6" x="94.0" y="66.5"><title>2018-06-24 2 hours</title></rect><rect fill="#5fff29" height="2.6" width="2.6" x="97.5" y="45.5"><title>2018-06-25 13 hours</title></rect><rect fill="#2fff30" height="2.6" width="2.6" x="97.5" y="49.0"><title>2018-06-26 11 hours</title></rect><rect fill="#444444" height="2.6" width="2.6" x="97.5" y="52.5"><title>2018-06-27</title></rect><rect fill="#2fff30" height="2.6" width="2.6" x="97.5" y="56.0"><title>2018-06-28 11 hours</title></rect><rect fill="#91ff24" height="2.6" width="2.6" x="97.5" y="59.5"><title>2018-06-29 15 hours</title></rect><rect fill="#2fff30" height="2.6" width="2.6" x="97.5" y="63.0"><title>2018-06-30 11 hours</title></rect><rect fill="#32ff4c" height="2.6" width="2.6" x="97.5" y="66.5"><title>2018-07-01 10 hours</title></rect><rect fill="#91ff24" height="2.6" width="2.6" x="101.0" y="45.5"><title>2018-07-02 15 hours</title></rect><rect fill="#91ff24" height="2.6" width="2.6" x="101.0" y="49.0"><title>2018-07-03 15 hours</title></rect><rect fill="#47ffff" height="2.6" width="2.6" x="101.0" y="52.5"><title>2018-07-04 3 hours</title></rect><rect fill="#444444" height="2.6" width="2.6" x="101.0" y="56.0"><title>2018-07-05</title></rect><rect fill="#91ff24" height="2.6" width="2.6" x="101.0" y="59.5"><title>2018-07-06 15 hours</title></rect><rect fill="#46ff2c" height="2.6" width="2.6" x="101.0" y="63.0"><title>2018-07-07 12 hours</title></rect><rect fill="#91ff24" height="2.6" width="2.6" x="101.0" y="66.5"><title>2018-07-08 15 hours</title></rect><rect fill="#77ff26" height="2.6" width="2.6" x="104.5" y="45.5"><title>2018-07-09 14 hours</title></rect><rect fill="#ff6c00" height="2.6" width="2.6" x="104.5" y="49.0"><title>2018-07-10 16 hours</title></rect><rect fill="#5fff29" height="2.6" width="2.6" x="104.5" y="52.5"><title>2018-07-11 13 hours</title></rect><rect fill="#46ff2c" height="2.6" width="2.6" x="104.5" y="56.0"><title>2018-07-12 12 hours</title></rect><rect fill="#77ff26" height="2.6" width="2.6" x="104.5" y="59.5"><title>2018-07-13 14 hours</title></rect><rect fill="#46ff2c" height="2.6" width="2.6" x="104.5" y="63.0"><title>2018-07-14 12 hours</title></rect><rect fill="#3effb7" height="2.6" width="2.6" x="104.5" y="66.5"><title>2018-07-15 6 hours</title></rect><rect fill="#77ff26" height="2.6" width="2.6" x="108.0" y="45.5"><title>2018-07-16 14 hours</title></rect><rect fill="#77ff26" height="2.6" width="2.6" x="108.0" y="49.0"><title>2018-07-17 14 hours</title></rect><rect fill="#77ff26" height="2.6" width="2.6" x="108.0" y="52.5"><title>2018-07-18 14 hours</title></rect><rect fill="#5fff29" height="2.6" width="2.6" x="108.0" y="56.0"><title>2018-07-19 13 hours</title></rect><rect fill="#ff6c00" height="2.6" width="2.6" x="108.0" y="59.5"><title>2018-07-20 16 hours</title></rect><rect fill="#32ff4c" height="2.6" width="2.6" x="108.0" y="63.0"><title>2018-07-21 10 hours</title></rect><rect fill="#444444" height="2.6" width="2.6" x="108.0" y="66.5"><title>2018-07-22</title></rect><rect fill="#46ff2c" height="2.6" width="2.6" x="111.5" y="45.5"><title>2018-07-23 12 hours</title></rect><rect fill="#ff6200" height="2.6" width="2.6" x="111.5" y="49.0"><title>2018-07-24 17 hours</title></rect><rect fill="#91ff24" height="2.6" width="2.6" x="111.5" y="52.5"><title>2018-07-25 15 hours</title></rect><rect fill="#91ff24" height="2.6" width="2.6" x="111.5" y="56.0"><title>2018-07-26 15 hours</title></rect><rect fill="#47ffff" height="2.6" width="2.6" x="111.5" y="59.5"><title>2018-07-27 3 hours</title></rect><rect fill="#44ffe8" height="2.6" width="2.6" x="111.5" y="63.0"><title>2018-07-28 4 hours</title></rect><rect fill="#ff3b00" height="2.6" width="2.6" x="111.5" y="66.5"><title>2018-07-29 21 hours</title></rect><rect fill="#77ff26" height="2.6" width="2.6" x="115.0" y="45.5"><title>2018-07-30 14 hours</title></rect><rect fill="#91ff24" height="2.6" width="2.6" x="115.0" y="49.0"><title>2018-07-31 15 hours</title></rect><rect fill="#ff6c00" height="2.6" width="2.6" x="115.0" y="52.5"><title>2018-08-01 16 hours</title></rect><rect fill="#5fff29" height="2.6" width="2.6" x="115.0" y="56.0"><title>2018-08-02 13 hours</title></rect><rect fill="#91ff24" height="2.6" width="2.6" x="115.0" y="59.5"><title>2018-08-03 15 hours</title></rect><rect fill="#5fff29" height="2.6" width="2.6" x="115.0" y="63.0"><title>2018-08-04 13 hours</title></rect><rect fill="#5fff29" height="2.6" width="2.6" x="115.0" y="66.5"><title>2018-08-05 13 hours</title></rect><rect fill="#41ffd0" height="2.6" width="2.6" x="118.5" y="45.5"><title>2018-08-06 5 hours</title></rect><rect fill="#46ff2c" height="2.6" width="2.6" x="118.5" y="49.0"><title>2018-08-07 12 hours</title></rect><rect fill="#ff6c00" height="2.6" width="2.6" x="118.5" y="52.5"><title>2018-08-08 16 hours</title></rect><rect fill="#ff6c00" height="2.6" width="2.6" x="118.5" y="56.0"><title>2018-08-09 16 hours</title></rect><rect fill="#ff4500" height="2.6" width="2.6" x="118.5" y="59.5"><title>2018-08-10 20 hours</title></rect><rect fill="#4dd2ff" height="2.6" width="2.6" x="118.5" y="63.0"><title>2018-08-11 1 hours</title></rect><rect fill="#46ff2c" height="2.6" width="2.6" x="118.5" y="66.5"><title>2018-08-12 12 hours</title></rect><rect fill="#91ff24" height="2.6" width="2.6" x="122.0" y="45.5"><title>2018-08-13 15 hours</title></rect><rect fill="#46ff2c" height="2.6" width="2.6" x="122.0" y="49.0"><title>2018-08-14 12 hours</title></rect><rect fill="#5fff29" height="2.6" width="2.6" x="122.0" y="52.5"><title>2018-08-15 13 hours</title></rect><rect fill="#44ffe8" height="2.6" width="2.6" x="122.0" y="56.0"><title>2018-08-16 4 hours</title></rect><rect fill="#2fff30" height="2.6" width="2.6" x="122.0" y="59.5"><title>2018-08-17 11 hours</title></rect><rect fill="#ff3100" height="2.6" width="2.6" x="122.0" y="63.0"><title>2018-08-18 22 hours</title></rect><rect fill="#91ff24" height="2.6" width="2.6" x="122.0" y="66.5"><title>2018-08-19 15 hours</title></rect><rect fill="#4ae8ff" height="2.6" width="2.6" x="125.5" y="45.5"><title>2018-08-20 2 hours</title></rect><rect fill="#2fff30" height="2.6" width="2.6" x="125.5" y="49.0"><title>2018-08-21 11 hours</title></rect><rect fill="#ff6c00" height="2.6" width="2.6" x="125.5" y="52.5"><title>2018-08-22 16 hours</title></rect><rect fill="#ff6c00" height="2.6" width="2.6" x="125.5" y="56.0"><title>2018-08-23 16 hours</title></rect><rect fill="red" height="2.6" width="2.6" x="125.5" y="59.5"><title>2018-08-24 23 hours</title></rect><rect fill="#35ff68" height="2.6" width="2.6" x="125.5" y="63.0"><title>2018-08-25 9 hours</title></rect><rect fill="#91ff24" height="2.6" width="2.6" x="125.5" y="66.5"><title>2018-08-26 15 hours</title></rect><rect fill="#44ffe8" height="2.6" width="2.6" x="129.0" y="45.5"><title>2018-08-27 4 hours</title></rect><rect fill="#444444" height="2.6" width="2.6" x="129.0" y="49.0"><title>2018-08-28</title></rect><rect fill="#46ff2c" height="2.6" width="2.6" x="129.0" y="52.5"><title>2018-08-29 12 hours</title></rect><rect fill="#77ff26" height="2.6" width="2.6" x="129.0" y="56.0"><title>2018-08-30 14 hours</title></rect><rect fill="#ff6200" height="2.6" width="2.6" x="129.0" y="59.5"><title>2018-08-31 17 hours</title></rect><rect fill="#2fff30" height="2.6" width="2.6" x="129.0" y="63.0"><title>2018-09-01 11 hours</title></rect><rect fill="#5fff29" height="2.6" width="2.6" x="129.0" y="66.5"><title>2018-09-02 13 hours</title></rect><rect fill="#ff6c00" height="2.6" width="2.6" x="132.5" y="45.5"><title>2018-09-03 16 hours</title></rect><rect fill="#ff6c00" height="2.6" width="2.6" x="132.5" y="49.0"><title>2018-09-04 16 hours</title></rect><rect fill="#44ffe8" height="2.6" width="2.6" x="132.5" y="52.5"><title>2018-09-05 4 hours</title></rect><rect fill="#2fff30" height="2.6" width="2.6" x="132.5" y="56.0"><title>2018-09-06 11 hours</title></rect><rect fill="#ff6200" height="2.6" width="2.6" x="132.5" y="59.5"><title>2018-09-07 17 hours</title></rect><rect fill="#ff4500" height="2.6" width="2.6" x="132.5" y="63.0"><title>2018-09-08 20 hours</title></rect><rect fill="#46ff2c" height="2.6" width="2.6" x="132.5" y="66.5"><title>2018-09-09 12 hours</title></rect><rect fill="#ff6c00" height="2.6" width="2.6" x="136.0" y="45.5"><title>2018-09-10 16 hours</title></rect><rect fill="#91ff24" height="2.6" width="2.6" x="136.0" y="49.0"><title>2018-09-11 15 hours</title></rect><rect fill="#91ff24" height="2.6" width="2.6" x="136.0" y="52.5"><title>2018-09-12 15 hours</title></rect><rect fill="#91ff24" height="2.6" width="2.6" x="136.0" y="56.0"><title>2018-09-13 15 hours</title></rect><rect fill="#5fff29" height="2.6" width="2.6" x="136.0" y="59.5"><title>2018-09-14 13 hours</title></rect><rect fill="red" height="2.6" width="2.6" x="136.0" y="63.0"><title>2018-09-15 23 hours</title></rect><rect fill="red" height="2.6" width="2.6" x="136.0" y="66.5"><title>2018-09-16 23 hours</title></rect><rect fill="#77ff26" height="2.6" width="2.6" x="139.5" y="45.5"><title>2018-09-17 14 hours</title></rect><rect fill="#ff6c00" height="2.6" width="2.6" x="139.5" y="49.0"><title>2018-09-18 16 hours</title></rect><rect fill="#47ffff" height="2.6" width="2.6" x="139.5" y="52.5"><title>2018-09-19 3 hours</title></rect><rect fill="#444444" height="2.6" width="2.6" x="139.5" y="56.0"><title>2018-09-20</title></rect><rect fill="#444444" height="2.6" width="2.6" x="139.5" y="59.5"><title>2018-09-21</title></rect><rect fill="#444444" height="2.6" width="2.6" x="139.5" y="63.0"><title>2018-09-22</title></rect><rect fill="#444444" height="2.6" width="2.6" x="139.5" y="66.5"><title>2018-09-23</title></rect><rect fill="#444444" height="2.6" width="2.6" x="143.0" y="45.5"><title>2018-09-24</title></rect><rect fill="#444444" height="2.6" width="2.6" x="143.0" y="49.0"><title>2018-09-25</title></rect><rect fill="#444444" height="2.6" width="2.6" x="143.0" y="52.5"><title>2018-09-26</title></rect><rect fill="#444444" height="2.6" width="2.6" x="143.0" y="56.0"><title>2018-09-27</title></rect><rect fill="#444444" height="2.6" width="2.6" x="143.0" y="59.5"><title>2018-09-28</title></rect><rect fill="#444444" height="2.6" width="2.6" x="143.0" y="63.0"><title>2018-09-29</title></rect><rect fill="#46ff2c" height="2.6" width="2.6" x="143.0" y="66.5"><title>2018-09-30 12 hours</title></rect><rect fill="#91ff24" height="2.6" width="2.6" x="146.5" y="45.5"><title>2018-10-01 15 hours</title></rect><rect fill="#5fff29" height="2.6" width="2.6" x="146.5" y="49.0"><title>2018-10-02 13 hours</title></rect><rect fill="#ff4e00" height="2.6" width="2.6" x="146.5" y="52.5"><title>2018-10-03 19 hours</title></rect><rect fill="#3bff9e" height="2.6" width="2.6" x="146.5" y="56.0"><title>2018-10-04 7 hours</title></rect><rect fill="#ff3b00" height="2.6" width="2.6" x="146.5" y="59.5"><title>2018-10-05 21 hours</title></rect><rect fill="#ff6200" height="2.6" width="2.6" x="146.5" y="63.0"><title>2018-10-06 17 hours</title></rect><rect fill="red" height="2.6" width="2.6" x="146.5" y="66.5"><title>2018-10-07 25 hours</title></rect><rect fill="#ff3100" height="2.6" width="2.6" x="150.0" y="45.5"><title>2018-10-08 22 hours</title></rect><rect fill="red" height="2.6" width="2.6" x="150.0" y="49.0"><title>2018-10-09 24 hours</title></rect><rect fill="#ff3b00" height="2.6" width="2.6" x="150.0" y="52.5"><title>2018-10-10 21 hours</title></rect><rect fill="red" height="2.6" width="2.6" x="150.0" y="56.0"><title>2018-10-11 24 hours</title></rect><rect fill="red" height="2.6" width="2.6" x="150.0" y="59.5"><title>2018-10-12 23 hours</title></rect><rect fill="red" height="2.6" width="2.6" x="150.0" y="63.0"><title>2018-10-13 23 hours</title></rect><rect fill="#ff3100" height="2.6" width="2.6" x="150.0" y="66.5"><title>2018-10-14 22 hours</title></rect><rect fill="red" height="2.6" width="2.6" x="153.5" y="45.5"><title>2018-10-15 23 hours</title></rect><rect fill="red" height="2.6" width="2.6" x="153.5" y="49.0"><title>2018-10-16 24 hours</title></rect><rect fill="#ff3100" height="2.6" width="2.6" x="153.5" y="52.5"><title>2018-10-17 22 hours</title></rect><rect fill="#ff3b00" height="2.6" width="2.6" x="153.5" y="56.0"><title>2018-10-18 21 hours</title></rect><rect fill="#ff3100" height="2.6" width="2.6" x="153.5" y="59.5"><title>2018-10-19 22 hours</title></rect><rect fill="red" height="2.6" width="2.6" x="153.5" y="63.0"><title>2018-10-20 24 hours</title></rect><rect fill="red" height="2.6" width="2.6" x="153.5" y="66.5"><title>2018-10-21 24 hours</title></rect><rect fill="#ff3b00" height="2.6" width="2.6" x="157.0" y="45.5"><title>2018-10-22 21 hours</title></rect><rect fill="red" height="2.6" width="2.6" x="157.0" y="49.0"><title>2018-10-23 24 hours</title></rect><rect fill="#ff4500" height="2.6" width="2.6" x="157.0" y="52.5"><title>2018-10-24 20 hours</title></rect><rect fill="red" height="2.6" width="2.6" x="157.0" y="56.0"><title>2018-10-25 26 hours</title></rect><rect fill="#ff3b00" height="2.6" width="2.6" x="157.0" y="59.5"><title>2018-10-26 21 hours</title></rect><rect fill="red" height="2.6" width="2.6" x="157.0" y="63.0"><title>2018-10-27 26 hours</title></rect><rect fill="red" height="2.6" width="2.6" x="157.0" y="66.5"><title>2018-10-28 24 hours</title></rect><rect fill="#ff3100" height="2.6" width="2.6" x="160.5" y="45.5"><title>2018-10-29 22 hours</title></rect><rect fill="red" height="2.6" width="2.6" x="160.5" y="49.0"><title>2018-10-30 26 hours</title></rect><rect fill="#ff3100" height="2.6" width="2.6" x="160.5" y="52.5"><title>2018-10-31 22 hours</title></rect><rect fill="#ff6c00" height="2.6" width="2.6" x="160.5" y="56.0"><title>2018-11-01 16 hours</title></rect><rect fill="#ff3b00" height="2.6" width="2.6" x="160.5" y="59.5"><title>2018-11-02 21 hours</title></rect><rect fill="#46ff2c" height="2.6" width="2.6" x="160.5" y="63.0"><title>2018-11-03 12 hours</title></rect><rect fill="red" height="2.6" width="2.6" x="160.5" y="66.5"><title>2018-11-04 24 hours</title></rect><rect fill="red" height="2.6" width="2.6" x="164.0" y="45.5"><title>2018-11-05 23 hours</title></rect><rect fill="red" height="2.6" width="2.6" x="164.0" y="49.0"><title>2018-11-06 23 hours</title></rect><rect fill="#ff3100" height="2.6" width="2.6" x="164.0" y="52.5"><title>2018-11-07 22 hours</title></rect><rect fill="#ff6200" height="2.6" width="2.6" x="164.0" y="56.0"><title>2018-11-08 17 hours</title></rect><rect fill="#ff6c00" height="2.6" width="2.6" x="164.0" y="59.5"><title>2018-11-09 16 hours</title></rect><rect fill="red" height="2.6" width="2.6" x="164.0" y="63.0"><title>2018-11-10 26 hours</title></rect><rect fill="red" height="2.6" width="2.6" x="164.0" y="66.5"><title>2018-11-11 24 hours</title></rect><rect fill="red" height="2.6" width="2.6" x="167.5" y="45.5"><title>2018-11-12 23 hours</title></rect><rect fill="#ff3100" height="2.6" width="2.6" x="167.5" y="49.0"><title>2018-11-13 22 hours</title></rect><rect fill="#ff6c00" height="2.6" width="2.6" x="167.5" y="52.5"><title>2018-11-14 16 hours</title></rect><rect fill="red" height="2.6" width="2.6" x="167.5" y="56.0"><title>2018-11-15 24 hours</title></rect><rect fill="#ff3100" height="2.6" width="2.6" x="167.5" y="59.5"><title>2018-11-16 22 hours</title></rect><rect fill="red" height="2.6" width="2.6" x="167.5" y="63.0"><title>2018-11-17 24 hours</title></rect><rect fill="red" height="2.6" width="2.6" x="167.5" y="66.5"><title>2018-11-18 24 hours</title></rect><rect fill="red" height="2.6" width="2.6" x="171.0" y="45.5"><title>2018-11-19 24 hours</title></rect><rect fill="#91ff24" height="2.6" width="2.6" x="171.0" y="49.0"><title>2018-11-20 15 hours</title></rect><rect fill="#ff3100" height="2.6" width="2.6" x="171.0" y="52.5"><title>2018-11-21 22 hours</title></rect><rect fill="red" height="2.6" width="2.6" x="171.0" y="56.0"><title>2018-11-22 25 hours</title></rect><rect fill="#ff3b00" height="2.6" width="2.6" x="171.0" y="59.5"><title>2018-11-23 21 hours</title></rect><rect fill="red" height="2.6" width="2.6" x="171.0" y="63.0"><title>2018-11-24 27 hours</title></rect><rect fill="#91ff24" height="2.6" width="2.6" x="171.0" y="66.5"><title>2018-11-25 15 hours</title></rect><rect fill="#91ff24" height="2.6" width="2.6" x="174.5" y="45.5"><title>2018-11-26 15 hours</title></rect><rect fill="#2fff30" height="2.6" width="2.6" x="174.5" y="49.0"><title>2018-11-27 11 hours</title></rect><rect fill="red" height="2.6" width="2.6" x="174.5" y="52.5"><title>2018-11-28 23 hours</title></rect><rect fill="red" height="2.6" width="2.6" x="174.5" y="56.0"><title>2018-11-29 24 hours</title></rect><rect fill="#ff3100" height="2.6" width="2.6" x="174.5" y="59.5"><title>2018-11-30 22 hours</title></rect><rect fill="#ff5800" height="2.6" width="2.6" x="174.5" y="63.0"><title>2018-12-01 18 hours</title></rect><rect fill="#5fff29" height="2.6" width="2.6" x="174.5" y="66.5"><title>2018-12-02 13 hours</title></rect><rect fill="#ff6c00" height="2.6" width="2.6" x="178.0" y="45.5"><title>2018-12-03 16 hours</title></rect><rect fill="#91ff24" height="2.6" width="2.6" x="178.0" y="49.0"><title>2018-12-04 15 hours</title></rect><rect fill="red" height="2.6" width="2.6" x="178.0" y="52.5"><title>2018-12-05 24 hours</title></rect><rect fill="red" height="2.6" width="2.6" x="178.0" y="56.0"><title>2018-12-06 23 hours</title></rect><rect fill="#91ff24" height="2.6" width="2.6" x="178.0" y="59.5"><title>2018-12-07 15 hours</title></rect><rect fill="#91ff24" height="2.6" width="2.6" x="178.0" y="63.0"><title>2018-12-08 15 hours</title></rect><rect fill="#ff6200" height="2.6" width="2.6" x="178.0" y="66.5"><title>2018-12-09 17 hours</title></rect><rect fill="#91ff24" height="2.6" width="2.6" x="181.5" y="45.5"><title>2018-12-10 15 hours</title></rect><rect fill="#ff6c00" height="2.6" width="2.6" x="181.5" y="49.0"><title>2018-12-11 16 hours</title></rect><rect fill="#3bff9e" height="2.6" width="2.6" x="181.5" y="52.5"><title>2018-12-12 7 hours</title></rect><rect fill="#38ff83" height="2.6" width="2.6" x="181.5" y="56.0"><title>2018-12-13 8 hours</title></rect><rect fill="red" height="2.6" width="2.6" x="181.5" y="59.5"><title>2018-12-14 23 hours</title></rect><rect fill="#ff6200" height="2.6" width="2.6" x="181.5" y="63.0"><title>2018-12-15 17 hours</title></rect><rect fill="#ff6200" height="2.6" width="2.6" x="181.5" y="66.5"><title>2018-12-16 17 hours</title></rect><rect fill="#91ff24" height="2.6" width="2.6" x="185.0" y="45.5"><title>2018-12-17 15 hours</title></rect><rect fill="#91ff24" height="2.6" width="2.6" x="185.0" y="49.0"><title>2018-12-18 15 hours</title></rect><rect fill="#ff6c00" height="2.6" width="2.6" x="185.0" y="52.5"><title>2018-12-19 16 hours</title></rect><rect fill="#77ff26" height="2.6" width="2.6" x="185.0" y="56.0"><title>2018-12-20 14 hours</title></rect><rect fill="#ff5800" height="2.6" width="2.6" x="185.0" y="59.5"><title>2018-12-21 18 hours</title></rect><rect fill="red" height="2.6" width="2.6" x="185.0" y="63.0"><title>2018-12-22 23 hours</title></rect><rect fill="red" height="2.6" width="2.6" x="185.0" y="66.5"><title>2018-12-23 23 hours</title></rect><rect fill="#ff6200" height="2.6" width="2.6" x="188.5" y="45.5"><title>2018-12-24 17 hours</title></rect><rect fill="#ff4500" height="2.6" width="2.6" x="188.5" y="49.0"><title>2018-12-25 20 hours</title></rect><rect fill="#ff4e00" height="2.6" width="2.6" x="188.5" y="52.5"><title>2018-12-26 19 hours</title></rect><rect fill="#ff6200" height="2.6" width="2.6" x="188.5" y="56.0"><title>2018-12-27 17 hours</title></rect><rect fill="#35ff68" height="2.6" width="2.6" x="188.5" y="59.5"><title>2018-12-28 9 hours</title></rect><rect fill="red" height="2.6" width="2.6" x="188.5" y="63.0"><title>2018-12-29 23 hours</title></rect><rect fill="red" height="2.6" width="2.6" x="188.5" y="66.5"><title>2018-12-30 24 hours</title></rect><rect fill="#91ff24" height="2.6" width="2.6" x="192.0" y="45.5"><title>2018-12-31 15 hours</title></rect></svg>