<?xml version="1.0" encoding="utf-8" ?>
<svg baseProfile="full" height="78mm" version="1.1" viewBox="0,0,200,78" width="200mm" xmlns="http://www.w3.org/2000/svg" xmlns:ev="http://www.w3.org/2001/xml-events" xmlns:xlink="http://www.w3.org/1999/xlink"><defs /><rect fill="#222222" height="78" width="200" x="0" y="0" /><text fill="#FFFFFF" style="font-size:12px; font-family:Arial; font-weight:bold;" x="10" y="20">rip-tyang apple_health</text><text dominant-baseline="hanging" fill="#FFFFFF" style="font-size:10.0px; font-family:Arial;" x="10" y="30">2017</text><text dominant-baseline="hanging" fill="#FFFFFF" style="font-size:4.125px; font-family:Arial;" x="175" y="35">315 hours</text><text fill="#FFFFFF" style="font-size:2.5px; font-family:Arial" x="10.0" y="44">Jan</text><text fill="#FFFFFF" style="font-size:2.5px; font-family:Arial" x="25.5" y="44">Feb</text><text fill="#FFFFFF" style="font-size:2.5px; font-family:Arial" x="41.0" y="44">Mar</text><text fill="#FFFFFF" style="font-size:2.5px; font-family:Arial" x="56.5" y="44">Apr</text><text fill="#FFFFFF" style="font-size:2.5px; font-family:Arial" x="72.0" y="44">May</text><text fill="#FFFFFF" style="font-size:2.5px; font-family:Arial" x="87.5" y="44">Jun</text><text fill="#FFFFFF" style="font-size:2.5px; font-family:Arial" x="103.0" y="44">Jul</text><text fill="#FFFFFF" style="font-size:2.5px; font-family:Arial" x="118.5" y="44">Aug</text><text fill="#FFFFFF" style="font-size:2.5px; font-family:Arial" x="134.0" y="44">Sep</text><text fill="#FFFFFF" style="font-size:2.5px; font-family:Arial" x="149.5" y="44">Oct</text><text fill="#FFFFFF" style="font-size:2.5px; font-family:Arial" x="165.0" y="44">Nov</text><text fill="#FFFFFF" style="font-size:2.5px; font-family:Arial" x="180.5" y="44">Dec</text><rect fill="#44ffe7" height="2.6" width="2.6" x="10.0" y="45.5"><title>2016-12-26 42 mins</title></rect><rect fill="#4ae9ff" height="2.6" width="2.6" x="10.0" y="49.0"><title>2016-12-27 15 mins</title></rect><rect fill="#ffaf00" height="2.6" width="2.6" x="10.0" y="52.5"><title>2016-12-28 111 mins</title></rect><rect fill="#43ffdd" height="2.6" width="2.6" x="10.0" y="56.0"><title>2016-12-29 48 mins</title></rect><rect fill="#44ffe5" height="2.6" width="2.6" x="10.0" y="59.5"><title>2016-12-30 43 mins</title></rect><rect fill="#ffbd00" height="2.6" width="2.6" x="10.0" y="63.0"><title>2016-12-31 92 mins</title></rect><rect fill="#3fffc1" height="2.6" width="2.6" x="10.0" y="66.5"><title>2017-01-01 63 mins</title></rect><rect fill="#41ffd2" height="2.6" width="2.6" x="13.5" y="45.5"><title>2017-01-02 54 mins</title></rect><rect fill="#ffb600" height="2.6" width="2.6" x="13.5" y="49.0"><title>2017-01-03 101 mins</title></rect><rect fill="#ffb000" height="2.6" width="2.6" x="13.5" y="52.5"><title>2017-01-04 110 mins</title></rect><rect fill="#ffb500" height="2.6" width="2.6" x="13.5" y="56.0"><title>2017-01-05 103 mins</title></rect><rect fill="red" height="2.6" width="2.6" x="13.5" y="59.5"><title>2017-01-06 148 mins</title></rect><rect fill="#ffc300" height="2.6" width="2.6" x="13.5" y="63.0"><title>2017-01-07 84 mins</title></rect><rect fill="#40ffc9" height="2.6" width="2.6" x="13.5" y="66.5"><title>2017-01-08 59 mins</title></rect><rect fill="#45ffec" height="2.6" width="2.6" x="17.0" y="45.5"><title>2017-01-09 39 mins</title></rect><rect fill="#3fffc1" height="2.6" width="2.6" x="17.0" y="49.0"><title>2017-01-10 63 mins</title></rect><rect fill="#3cffa7" height="2.6" width="2.6" x="17.0" y="52.5"><title>2017-01-11 77 mins</title></rect><rect fill="#41ffcc" height="2.6" width="2.6" x="17.0" y="56.0"><title>2017-01-12 57 mins</title></rect><rect fill="#ffc600" height="2.6" width="2.6" x="17.0" y="59.5"><title>2017-01-13 80 mins</title></rect><rect fill="#3effb2" height="2.6" width="2.6" x="17.0" y="63.0"><title>2017-01-14 71 mins</title></rect><rect fill="#41ffce" height="2.6" width="2.6" x="17.0" y="66.5"><title>2017-01-15 56 mins</title></rect><rect fill="#ffc300" height="2.6" width="2.6" x="20.5" y="45.5"><title>2017-01-16 83 mins</title></rect><rect fill="#40ffc3" height="2.6" width="2.6" x="20.5" y="49.0"><title>2017-01-17 62 mins</title></rect><rect fill="#45ffee" height="2.6" width="2.6" x="20.5" y="52.5"><title>2017-01-18 38 mins</title></rect><rect fill="#40ffc5" height="2.6" width="2.6" x="20.5" y="56.0"><title>2017-01-19 61 mins</title></rect><rect fill="#40ffc9" height="2.6" width="2.6" x="20.5" y="59.5"><title>2017-01-20 59 mins</title></rect><rect fill="#47fffe" height="2.6" width="2.6" x="20.5" y="63.0"><title>2017-01-21 29 mins</title></rect><rect fill="#3effb4" height="2.6" width="2.6" x="20.5" y="66.5"><title>2017-01-22 70 mins</title></rect><rect fill="#42ffd9" height="2.6" width="2.6" x="24.0" y="45.5"><title>2017-01-23 50 mins</title></rect><rect fill="#44ffe7" height="2.6" width="2.6" x="24.0" y="49.0"><title>2017-01-24 42 mins</title></rect><rect fill="#43ffe0" height="2.6" width="2.6" x="24.0" y="52.5"><title>2017-01-25 46 mins</title></rect><rect fill="#45fff2" height="2.6" width="2.6" x="24.0" y="56.0"><title>2017-01-26 36 mins</title></rect><rect fill="#43ffde" height="2.6" width="2.6" x="24.0" y="59.5"><title>2017-01-27 47 mins</title></rect><rect fill="#45fff0" height="2.6" width="2.6" x="24.0" y="63.0"><title>2017-01-28 37 mins</title></rect><rect fill="#44ffe4" height="2.6" width="2.6" x="24.0" y="66.5"><title>2017-01-29 44 mins</title></rect><rect fill="#45fff2" height="2.6" width="2.6" x="27.5" y="45.5"><title>2017-01-30 36 mins</title></rect><rect fill="#46fff7" height="2.6" width="2.6" x="27.5" y="49.0"><title>2017-01-31 33 mins</title></rect><rect fill="#41ffd0" height="2.6" width="2.6" x="27.5" y="52.5"><title>2017-02-01 55 mins</title></rect><rect fill="#43ffe0" height="2.6" width="2.6" x="27.5" y="56.0"><title>2017-02-02 46 mins</title></rect><rect fill="#ffc300" height="2.6" width="2.6" x="27.5" y="59.5"><title>2017-02-03 84 mins</title></rect><rect fill="#44ffe9" height="2.6" width="2.6" x="27.5" y="63.0"><title>2017-02-04 41 mins</title></rect><rect fill="#44ffe9" height="2.6" width="2.6" x="27.5" y="66.5"><title>2017-02-05 41 mins</title></rect><rect fill="#43ffe2" height="2.6" width="2.6" x="31.0" y="45.5"><title>2017-02-06 45 mins</title></rect><rect fill="#3dffa9" height="2.6" width="2.6" x="31.0" y="49.0"><title>2017-02-07 76 mins</title></rect><rect fill="#47fffe" height="2.6" width="2.6" x="31.0" y="52.5"><title>2017-02-08 29 mins</title></rect><rect fill="#ffba00" height="2.6" width="2.6" x="31.0" y="56.0"><title>2017-02-09 96 mins</title></rect><rect fill="#3fffbc" height="2.6" width="2.6" x="31.0" y="59.5"><title>2017-02-10 66 mins</title></rect><rect fill="red" height="2.6" width="2.6" x="31.0" y="63.0"><title>2017-02-11 156 mins</title></rect><rect fill="#44ffe7" height="2.6" width="2.6" x="31.0" y="66.5"><title>2017-02-12 42 mins</title></rect><rect fill="#46fff9" height="2.6" width="2.6" x="34.5" y="45.5"><title>2017-02-13 32 mins</title></rect><rect fill="#3fffbc" height="2.6" width="2.6" x="34.5" y="49.0"><title>2017-02-14 66 mins</title></rect><rect fill="#41ffd0" height="2.6" width="2.6" x="34.5" y="52.5"><title>2017-02-15 55 mins</title></rect><rect fill="#44ffe7" height="2.6" width="2.6" x="34.5" y="56.0"><title>2017-02-16 42 mins</title></rect><rect fill="#48f4ff" height="2.6" width="2.6" x="34.5" y="59.5"><title>2017-02-17 22 mins</title></rect><rect fill="red" height="2.6" width="2.6" x="34.5" y="63.0"><title>2017-02-18 135 mins</title></rect><rect fill="red" height="2.6" width="2.6" x="34.5" y="66.5"><title>2017-02-19 134 mins</title></rect><rect fill="#41ffd2" height="2.6" width="2.6" x="38.0" y="45.5"><title>2017-02-20 54 mins</title></rect><rect fill="#47ffff" height="2.6" width="2.6" x="38.0" y="49.0"><title>2017-02-21 28 mins</title></rect><rect fill="#3dffa9" height="2.6" width="2.6" x="38.0" y="52.5"><title>2017-02-22 76 mins</title></rect><rect fill="#44ffe5" height="2.6" width="2.6" x="38.0" y="56.0"><title>2017-02-23 43 mins</title></rect><rect fill="#46fff5" height="2.6" width="2.6" x="38.0" y="59.5"><title>2017-02-24 34 mins</title></rect><rect fill="#42ffd7" height="2.6" width="2.6" x="38.0" y="63.0"><title>2017-02-25 51 mins</title></rect><rect fill="#44ffeb" height="2.6" width="2.6" x="38.0" y="66.5"><title>2017-02-26 40 mins</title></rect><rect fill="#ffc300" height="2.6" width="2.6" x="41.5" y="45.5"><title>2017-02-27 83 mins</title></rect><rect fill="#45fff0" height="2.6" width="2.6" x="41.5" y="49.0"><title>2017-02-28 37 mins</title></rect><rect fill="#44ffeb" height="2.6" width="2.6" x="41.5" y="52.5"><title>2017-03-01 40 mins</title></rect><rect fill="#40ffc9" height="2.6" width="2.6" x="41.5" y="56.0"><title>2017-03-02 59 mins</title></rect><rect fill="#ffc000" height="2.6" width="2.6" x="41.5" y="59.5"><title>2017-03-03 88 mins</title></rect><rect fill="#46fff3" height="2.6" width="2.6" x="41.5" y="63.0"><title>2017-03-04 35 mins</title></rect><rect fill="#44ffeb" height="2.6" width="2.6" x="41.5" y="66.5"><title>2017-03-05 40 mins</title></rect><rect fill="red" height="2.6" width="2.6" x="45.0" y="45.5"><title>2017-03-06 130 mins</title></rect><rect fill="#3fffc0" height="2.6" width="2.6" x="45.0" y="49.0"><title>2017-03-07 64 mins</title></rect><rect fill="#ffb400" height="2.6" width="2.6" x="45.0" y="52.5"><title>2017-03-08 104 mins</title></rect><rect fill="#3fffba" height="2.6" width="2.6" x="45.0" y="56.0"><title>2017-03-09 67 mins</title></rect><rect fill="red" height="2.6" width="2.6" x="45.0" y="59.5"><title>2017-03-10 135 mins</title></rect><rect fill="#ffc300" height="2.6" width="2.6" x="45.0" y="63.0"><title>2017-03-11 83 mins</title></rect><rect fill="#ffc100" height="2.6" width="2.6" x="45.0" y="66.5"><title>2017-03-12 87 mins</title></rect><rect fill="#43ffdd" height="2.6" width="2.6" x="48.5" y="45.5"><title>2017-03-13 48 mins</title></rect><rect fill="#4ae7ff" height="2.6" width="2.6" x="48.5" y="49.0"><title>2017-03-14 14 mins</title></rect><rect fill="#40ffc7" height="2.6" width="2.6" x="48.5" y="52.5"><title>2017-03-15 60 mins</title></rect><rect fill="#ffb100" height="2.6" width="2.6" x="48.5" y="56.0"><title>2017-03-16 109 mins</title></rect><rect fill="#3dffa9" height="2.6" width="2.6" x="48.5" y="59.5"><title>2017-03-17 76 mins</title></rect><rect fill="#48f6ff" height="2.6" width="2.6" x="48.5" y="63.0"><title>2017-03-18 23 mins</title></rect><rect fill="red" height="2.6" width="2.6" x="48.5" y="66.5"><title>2017-03-19 144 mins</title></rect><rect fill="#ffc100" height="2.6" width="2.6" x="52.0" y="45.5"><title>2017-03-20 87 mins</title></rect><rect fill="#41ffcc" height="2.6" width="2.6" x="52.0" y="49.0"><title>2017-03-21 57 mins</title></rect><rect fill="#ffc300" height="2.6" width="2.6" x="52.0" y="52.5"><title>2017-03-22 84 mins</title></rect><rect fill="#3effb8" height="2.6" width="2.6" x="52.0" y="56.0"><title>2017-03-23 68 mins</title></rect><rect fill="#3fffc0" height="2.6" width="2.6" x="52.0" y="59.5"><title>2017-03-24 64 mins</title></rect><rect fill="#47fffc" height="2.6" width="2.6" x="52.0" y="63.0"><title>2017-03-25 30 mins</title></rect><rect fill="#46fff3" height="2.6" width="2.6" x="52.0" y="66.5"><title>2017-03-26 35 mins</title></rect><rect fill="#43ffe0" height="2.6" width="2.6" x="55.5" y="45.5"><title>2017-03-27 46 mins</title></rect><rect fill="#3fffc0" height="2.6" width="2.6" x="55.5" y="49.0"><title>2017-03-28 64 mins</title></rect><rect fill="#45fff0" height="2.6" width="2.6" x="55.5" y="52.5"><title>2017-03-29 37 mins</title></rect><rect fill="#42ffd7" height="2.6" width="2.6" x="55.5" y="56.0"><title>2017-03-30 51 mins</title></rect><rect fill="red" height="2.6" width="2.6" x="55.5" y="59.5"><title>2017-03-31 169 mins</title></rect><rect fill="#42ffd4" height="2.6" width="2.6" x="55.5" y="63.0"><title>2017-04-01 53 mins</title></rect><rect fill="red" height="2.6" width="2.6" x="55.5" y="66.5"><title>2017-04-02 245 mins</title></rect><rect fill="red" height="2.6" width="2.6" x="59.0" y="45.5"><title>2017-04-03 240 mins</title></rect><rect fill="#48f9ff" height="2.6" width="2.6" x="59.0" y="49.0"><title>2017-04-04 25 mins</title></rect><rect fill="#3fffc0" height="2.6" width="2.6" x="59.0" y="52.5"><title>2017-04-05 64 mins</title></rect><rect fill="#4cdcff" height="2.6" width="2.6" x="59.0" y="56.0"><title>2017-04-06 7 mins</title></rect><rect fill="red" height="2.6" width="2.6" x="59.0" y="59.5"><title>2017-04-07 135 mins</title></rect><rect fill="#44ffe7" height="2.6" width="2.6" x="59.0" y="63.0"><title>2017-04-08 42 mins</title></rect><rect fill="#ffc300" height="2.6" width="2.6" x="59.0" y="66.5"><title>2017-04-09 84 mins</title></rect><rect fill="#3effb8" height="2.6" width="2.6" x="62.5" y="45.5"><title>2017-04-10 68 mins</title></rect><rect fill="#42ffd7" height="2.6" width="2.6" x="62.5" y="49.0"><title>2017-04-11 51 mins</title></rect><rect fill="#3effb6" height="2.6" width="2.6" x="62.5" y="52.5"><title>2017-04-12 69 mins</title></rect><rect fill="#42ffd7" height="2.6" width="2.6" x="62.5" y="56.0"><title>2017-04-13 51 mins</title></rect><rect fill="red" height="2.6" width="2.6" x="62.5" y="59.5"><title>2017-04-14 176 mins</title></rect><rect fill="#ffb800" height="2.6" width="2.6" x="62.5" y="63.0"><title>2017-04-15 99 mins</title></rect><rect fill="#ffbd00" height="2.6" width="2.6" x="62.5" y="66.5"><title>2017-04-16 92 mins</title></rect><rect fill="#3effb6" height="2.6" width="2.6" x="66.0" y="45.5"><title>2017-04-17 69 mins</title></rect><rect fill="#3effb4" height="2.6" width="2.6" x="66.0" y="49.0"><title>2017-04-18 70 mins</title></rect><rect fill="red" height="2.6" width="2.6" x="66.0" y="52.5"><title>2017-04-19 154 mins</title></rect><rect fill="#ffab00" height="2.6" width="2.6" x="66.0" y="56.0"><title>2017-04-20 117 mins</title></rect><rect fill="#46fff7" height="2.6" width="2.6" x="66.0" y="59.5"><title>2017-04-21 33 mins</title></rect><rect fill="#3fffc1" height="2.6" width="2.6" x="66.0" y="63.0"><title>2017-04-22 63 mins</title></rect><rect fill="#3cffa5" height="2.6" width="2.6" x="66.0" y="66.5"><title>2017-04-23 78 mins</title></rect><rect fill="#3effb2" height="2.6" width="2.6" x="69.5" y="45.5"><title>2017-04-24 71 mins</title></rect><rect fill="#46fff7" height="2.6" width="2.6" x="69.5" y="49.0"><title>2017-04-25 33 mins</title></rect><rect fill="#ffad00" height="2.6" width="2.6" x="69.5" y="52.5"><title>2017-04-26 114 mins</title></rect><rect fill="#40ffc7" height="2.6" width="2.6" x="69.5" y="56.0"><title>2017-04-27 60 mins</title></rect><rect fill="#42ffd7" height="2.6" width="2.6" x="69.5" y="59.5"><title>2017-04-28 51 mins</title></rect><rect fill="#40ffc7" height="2.6" width="2.6" x="69.5" y="63.0"><title>2017-04-29 60 mins</title></rect><rect fill="#ffc000" height="2.6" width="2.6" x="69.5" y="66.5"><title>2017-04-30 88 mins</title></rect><rect fill="#46fff9" height="2.6" width="2.6" x="73.0" y="45.5"><title>2017-05-01 32 mins</title></rect><rect fill="#41ffd0" height="2.6" width="2.6" x="73.0" y="49.0"><title>2017-05-02 55 mins</title></rect><rect fill="#3dffa9" height="2.6" width="2.6" x="73.0" y="52.5"><title>2017-05-03 76 mins</title></rect><rect fill="#40ffc9" height="2.6" width="2.6" x="73.0" y="56.0"><title>2017-05-04 59 mins</title></rect><rect fill="#ffc300" height="2.6" width="2.6" x="73.0" y="59.5"><title>2017-05-05 84 mins</title></rect><rect fill="#ffb500" height="2.6" width="2.6" x="73.0" y="63.0"><title>2017-05-06 103 mins</title></rect><rect fill="#ffc400" height="2.6" width="2.6" x="73.0" y="66.5"><title>2017-05-07 82 mins</title></rect><rect fill="#40ffcb" height="2.6" width="2.6" x="76.5" y="45.5"><title>2017-05-08 58 mins</title></rect><rect fill="#ffbe00" height="2.6" width="2.6" x="76.5" y="49.0"><title>2017-05-09 91 mins</title></rect><rect fill="#44ffeb" height="2.6" width="2.6" x="76.5" y="52.5"><title>2017-05-10 40 mins</title></rect><rect fill="#48f9ff" height="2.6" width="2.6" x="76.5" y="56.0"><title>2017-05-11 25 mins</title></rect><rect fill="#48f8ff" height="2.6" width="2.6" x="76.5" y="59.5"><title>2017-05-12 24 mins</title></rect><rect fill="#41ffcc" height="2.6" width="2.6" x="76.5" y="63.0"><title>2017-05-13 57 mins</title></rect><rect fill="#43ffdd" height="2.6" width="2.6" x="76.5" y="66.5"><title>2017-05-14 48 mins</title></rect><rect fill="#3effb8" height="2.6" width="2.6" x="80.0" y="45.5"><title>2017-05-15 68 mins</title></rect><rect fill="#ffb900" height="2.6" width="2.6" x="80.0" y="49.0"><title>2017-05-16 97 mins</title></rect><rect fill="#49ecff" height="2.6" width="2.6" x="80.0" y="52.5"><title>2017-05-17 17 mins</title></rect><rect fill="#45ffec" height="2.6" width="2.6" x="80.0" y="56.0"><title>2017-05-18 39 mins</title></rect><rect fill="#3effb2" height="2.6" width="2.6" x="80.0" y="59.5"><title>2017-05-19 71 mins</title></rect><rect fill="#ffae00" height="2.6" width="2.6" x="80.0" y="63.0"><title>2017-05-20 112 mins</title></rect><rect fill="#4cdcff" height="2.6" width="2.6" x="80.0" y="66.5"><title>2017-05-21 7 mins</title></rect><rect fill="#43ffde" height="2.6" width="2.6" x="83.5" y="45.5"><title>2017-05-22 47 mins</title></rect><rect fill="#4ae9ff" height="2.6" width="2.6" x="83.5" y="49.0"><title>2017-05-23 15 mins</title></rect><rect fill="#ffb100" height="2.6" width="2.6" x="83.5" y="52.5"><title>2017-05-24 108 mins</title></rect><rect fill="#ffc100" height="2.6" width="2.6" x="83.5" y="56.0"><title>2017-05-25 86 mins</title></rect><rect fill="#ffc300" height="2.6" width="2.6" x="83.5" y="59.5"><title>2017-05-26 84 mins</title></rect><rect fill="#4cd7ff" height="2.6" width="2.6" x="83.5" y="63.0"><title>2017-05-27 4 mins</title></rect><rect fill="#ffae00" height="2.6" width="2.6" x="83.5" y="66.5"><title>2017-05-28 112 mins</title></rect><rect fill="#44ffe7" height="2.6" width="2.6" x="87.0" y="45.5"><title>2017-05-29 42 mins</title></rect><rect fill="#41ffd0" height="2.6" width="2.6" x="87.0" y="49.0"><title>2017-05-30 55 mins</title></rect><rect fill="#40ffc3" height="2.6" width="2.6" x="87.0" y="52.5"><title>2017-05-31 62 mins</title></rect><rect fill="#3fffc1" height="2.6" width="2.6" x="87.0" y="56.0"><title>2017-06-01 63 mins</title></rect><rect fill="#4be2ff" height="2.6" width="2.6" x="87.0" y="59.5"><title>2017-06-02 11 mins</title></rect><rect fill="#ffc100" height="2.6" width="2.6" x="87.0" y="63.0"><title>2017-06-03 86 mins</title></rect><rect fill="#43ffdd" height="2.6" width="2.6" x="87.0" y="66.5"><title>2017-06-04 48 mins</title></rect><rect fill="#3effb6" height="2.6" width="2.6" x="90.5" y="45.5"><title>2017-06-05 69 mins</title></rect><rect fill="#41ffd0" height="2.6" width="2.6" x="90.5" y="49.0"><title>2017-06-06 55 mins</title></rect><rect fill="#46fff9" height="2.6" width="2.6" x="90.5" y="52.5"><title>2017-06-07 32 mins</title></rect><rect fill="#47fffc" height="2.6" width="2.6" x="90.5" y="56.0"><title>2017-06-08 30 mins</title></rect><rect fill="#4cdcff" height="2.6" width="2.6" x="90.5" y="59.5"><title>2017-06-09 7 mins</title></rect><rect fill="#49f1ff" height="2.6" width="2.6" x="90.5" y="63.0"><title>2017-06-10 20 mins</title></rect><rect fill="#44ffe7" height="2.6" width="2.6" x="90.5" y="66.5"><title>2017-06-11 42 mins</title></rect><rect fill="#40ffc7" height="2.6" width="2.6" x="94.0" y="45.5"><title>2017-06-12 60 mins</title></rect><rect fill="#41ffcc" height="2.6" width="2.6" x="94.0" y="49.0"><title>2017-06-13 57 mins</title></rect><rect fill="#44ffe7" height="2.6" width="2.6" x="94.0" y="52.5"><title>2017-06-14 42 mins</title></rect><rect fill="#4dd2ff" height="2.6" width="2.6" x="94.0" y="56.0"><title>2017-06-15 1 mins</title></rect><rect fill="#444444" height="2.6" width="2.6" x="94.0" y="59.5"><title>2017-06-16</title></rect><rect fill="#42ffd4" height="2.6" width="2.6" x="94.0" y="63.0"><title>2017-06-17 53 mins</title></rect><rect fill="#49f3ff" height="2.6" width="2.6" x="94.0" y="66.5"><title>2017-06-18 21 mins</title></rect><rect fill="#47ffff" height="2.6" width="2.6" x="97.5" y="45.5"><title>2017-06-19 28 mins</title></rect><rect fill="#45fff0" height="2.6" width="2.6" x="97.5" y="49.0"><title>2017-06-20 37 mins</title></rect><rect fill="#4cdcff" height="2.6" width="2.6" x="97.5" y="52.5"><title>2017-06-21 7 mins</title></rect><rect fill="#49f3ff" height="2.6" width="2.6" x="97.5" y="56.0"><title>2017-06-22 21 mins</title></rect><rect fill="#40ffc7" height="2.6" width="2.6" x="97.5" y="59.5"><title>2017-06-23 60 mins</title></rect><rect fill="#ffa400" height="2.6" width="2.6" x="97.5" y="63.0"><title>2017-06-24 126 mins</title></rect><rect fill="#43ffe2" height="2.6" width="2.6" x="97.5" y="66.5"><title>2017-06-25 45 mins</title></rect><rect fill="#49ecff" height="2.6" width="2.6" x="101.0" y="45.5"><title>2017-06-26 17 mins</title></rect><rect fill="#44ffe9" height="2.6" width="2.6" x="101.0" y="49.0"><title>2017-06-27 41 mins</title></rect><rect fill="#4cd8ff" height="2.6" width="2.6" x="101.0" y="52.5"><title>2017-06-28 5 mins</title></rect><rect fill="#46fff9" height="2.6" width="2.6" x="101.0" y="56.0"><title>2017-06-29 32 mins</title></rect><rect fill="red" height="2.6" width="2.6" x="101.0" y="59.5"><title>2017-06-30 130 mins</title></rect><rect fill="#3fffc1" height="2.6" width="2.6" x="101.0" y="63.0"><title>2017-07-01 63 mins</title></rect><rect fill="#43ffde" height="2.6" width="2.6" x="101.0" y="66.5"><title>2017-07-02 47 mins</title></rect><rect fill="red" height="2.6" width="2.6" x="104.5" y="45.5"><title>2017-07-03 168 mins</title></rect><rect fill="#ffb900" height="2.6" width="2.6" x="104.5" y="49.0"><title>2017-07-04 98 mins</title></rect><rect fill="#49efff" height="2.6" width="2.6" x="104.5" y="52.5"><title>2017-07-05 19 mins</title></rect><rect fill="#ffc300" height="2.6" width="2.6" x="104.5" y="56.0"><title>2017-07-06 84 mins</title></rect><rect fill="#ffc600" height="2.6" width="2.6" x="104.5" y="59.5"><title>2017-07-07 80 mins</title></rect><rect fill="#44ffe7" height="2.6" width="2.6" x="104.5" y="63.0"><title>2017-07-08 42 mins</title></rect><rect fill="#48f6ff" height="2.6" width="2.6" x="104.5" y="66.5"><title>2017-07-09 23 mins</title></rect><rect fill="#46fffa" height="2.6" width="2.6" x="108.0" y="45.5"><title>2017-07-10 31 mins</title></rect><rect fill="#46fff5" height="2.6" width="2.6" x="108.0" y="49.0"><title>2017-07-11 34 mins</title></rect><rect fill="#40ffc9" height="2.6" width="2.6" x="108.0" y="52.5"><title>2017-07-12 59 mins</title></rect><rect fill="#43ffe0" height="2.6" width="2.6" x="108.0" y="56.0"><title>2017-07-13 46 mins</title></rect><rect fill="#49ecff" height="2.6" width="2.6" x="108.0" y="59.5"><title>2017-07-14 17 mins</title></rect><rect fill="#43ffdd" height="2.6" width="2.6" x="108.0" y="63.0"><title>2017-07-15 48 mins</title></rect><rect fill="#46fffa" height="2.6" width="2.6" x="108.0" y="66.5"><title>2017-07-16 31 mins</title></rect><rect fill="#40ffc9" height="2.6" width="2.6" x="111.5" y="45.5"><title>2017-07-17 59 mins</title></rect><rect fill="#42ffd4" height="2.6" width="2.6" x="111.5" y="49.0"><title>2017-07-18 53 mins</title></rect><rect fill="#47fffc" height="2.6" width="2.6" x="111.5" y="52.5"><title>2017-07-19 30 mins</title></rect><rect fill="#41ffce" height="2.6" width="2.6" x="111.5" y="56.0"><title>2017-07-20 56 mins</title></rect><rect fill="#45ffec" height="2.6" width="2.6" x="111.5" y="59.5"><title>2017-07-21 39 mins</title></rect><rect fill="#48f6ff" height="2.6" width="2.6" x="111.5" y="63.0"><title>2017-07-22 23 mins</title></rect><rect fill="#46fff3" height="2.6" width="2.6" x="111.5" y="66.5"><title>2017-07-23 35 mins</title></rect><rect fill="#48f6ff" height="2.6" width="2.6" x="115.0" y="45.5"><title>2017-07-24 23 mins</title></rect><rect fill="#45ffec" height="2.6" width="2.6" x="115.0" y="49.0"><title>2017-07-25 39 mins</title></rect><rect fill="#3fffc1" height="2.6" width="2.6" x="115.0" y="52.5"><title>2017-07-26 63 mins</title></rect><rect fill="#48f4ff" height="2.6" width="2.6" x="115.0" y="56.0"><title>2017-07-27 22 mins</title></rect><rect fill="#4be4ff" height="2.6" width="2.6" x="115.0" y="59.5"><title>2017-07-28 12 mins</title></rect><rect fill="#45ffee" height="2.6" width="2.6" x="115.0" y="63.0"><title>2017-07-29 38 mins</title></rect><rect fill="#46fffa" height="2.6" width="2.6" x="115.0" y="66.5"><title>2017-07-30 31 mins</title></rect><rect fill="#49f1ff" height="2.6" width="2.6" x="118.5" y="45.5"><title>2017-07-31 20 mins</title></rect><rect fill="#47fdff" height="2.6" width="2.6" x="118.5" y="49.0"><title>2017-08-01 27 mins</title></rect><rect fill="#ffb600" height="2.6" width="2.6" x="118.5" y="52.5"><title>2017-08-02 102 mins</title></rect><rect fill="#42ffd4" height="2.6" width="2.6" x="118.5" y="56.0"><title>2017-08-03 53 mins</title></rect><rect fill="#45fff2" height="2.6" width="2.6" x="118.5" y="59.5"><title>2017-08-04 36 mins</title></rect><rect fill="#40ffc3" height="2.6" width="2.6" x="118.5" y="63.0"><title>2017-08-05 62 mins</title></rect><rect fill="#46fffa" height="2.6" width="2.6" x="118.5" y="66.5"><title>2017-08-06 31 mins</title></rect><rect fill="#40ffc7" height="2.6" width="2.6" x="122.0" y="45.5"><title>2017-08-07 60 mins</title></rect><rect fill="#3dffb1" height="2.6" width="2.6" x="122.0" y="49.0"><title>2017-08-08 72 mins</title></rect><rect fill="#46fff3" height="2.6" width="2.6" x="122.0" y="52.5"><title>2017-08-09 35 mins</title></rect><rect fill="#46fff5" height="2.6" width="2.6" x="122.0" y="56.0"><title>2017-08-10 34 mins</title></rect><rect fill="#4dd5ff" height="2.6" width="2.6" x="122.0" y="59.5"><title>2017-08-11 3 mins</title></rect><rect fill="#49efff" height="2.6" width="2.6" x="122.0" y="63.0"><title>2017-08-12 19 mins</title></rect><rect fill="#444444" height="2.6" width="2.6" x="122.0" y="66.5"><title>2017-08-13</title></rect><rect fill="#45fff2" height="2.6" width="2.6" x="125.5" y="45.5"><title>2017-08-14 36 mins</title></rect><rect fill="#48fbff" height="2.6" width="2.6" x="125.5" y="49.0"><title>2017-08-15 26 mins</title></rect><rect fill="#43ffde" height="2.6" width="2.6" x="125.5" y="52.5"><title>2017-08-16 47 mins</title></rect><rect fill="#41ffd2" height="2.6" width="2.6" x="125.5" y="56.0"><title>2017-08-17 54 mins</title></rect><rect fill="#46fff5" height="2.6" width="2.6" x="125.5" y="59.5"><title>2017-08-18 34 mins</title></rect><rect fill="#42ffd5" height="2.6" width="2.6" x="125.5" y="63.0"><title>2017-08-19 52 mins</title></rect><rect fill="#4dd4ff" height="2.6" width="2.6" x="125.5" y="66.5"><title>2017-08-20 2 mins</title></rect><rect fill="#3fffba" height="2.6" width="2.6" x="129.0" y="45.5"><title>2017-08-21 67 mins</title></rect><rect fill="#ffbf00" height="2.6" width="2.6" x="129.0" y="49.0"><title>2017-08-22 89 mins</title></rect><rect fill="#45ffee" height="2.6" width="2.6" x="129.0" y="52.5"><title>2017-08-23 38 mins</title></rect><rect fill="#3dffab" height="2.6" width="2.6" x="129.0" y="56.0"><title>2017-08-24 75 mins</title></rect><rect fill="#47fffc" height="2.6" width="2.6" x="129.0" y="59.5"><title>2017-08-25 30 mins</title></rect><rect fill="#44ffe7" height="2.6" width="2.6" x="129.0" y="63.0"><title>2017-08-26 42 mins</title></rect><rect fill="#48f8ff" height="2.6" width="2.6" x="129.0" y="66.5"><title>2017-08-27 24 mins</title></rect><rect fill="#49eeff" height="2.6" width="2.6" x="132.5" y="45.5"><title>2017-08-28 18 mins</title></rect><rect fill="#47fffe" height="2.6" width="2.6" x="132.5" y="49.0"><title>2017-08-29 29 mins</title></rect><rect fill="#ffbe00" height="2.6" width="2.6" x="132.5" y="52.5"><title>2017-08-30 90 mins</title></rect><rect fill="#46fffa" height="2.6" width="2.6" x="132.5" y="56.0"><title>2017-08-31 31 mins</title></rect><rect fill="#47ffff" height="2.6" width="2.6" x="132.5" y="59.5"><title>2017-09-01 28 mins</title></rect><rect fill="#444444" height="2.6" width="2.6" x="132.5" y="63.0"><title>2017-09-02</title></rect><rect fill="#444444" height="2.6" width="2.6" x="132.5" y="66.5"><title>2017-09-03</title></rect><rect fill="#444444" height="2.6" width="2.6" x="136.0" y="45.5"><title>2017-09-04</title></rect><rect fill="#45fff0" height="2.6" width="2.6" x="136.0" y="49.0"><title>2017-09-05 37 mins</title></rect><rect fill="#43ffe0" height="2.6" width="2.6" x="136.0" y="52.5"><title>2017-09-06 46 mins</title></rect><rect fill="#46fff7" height="2.6" width="2.6" x="136.0" y="56.0"><title>2017-09-07 33 mins</title></rect><rect fill="#44ffeb" height="2.6" width="2.6" x="136.0" y="59.5"><title>2017-09-08 40 mins</title></rect><rect fill="#4dd2ff" height="2.6" width="2.6" x="136.0" y="63.0"><title>2017-09-09 1 mins</title></rect><rect fill="#ffb300" height="2.6" width="2.6" x="136.0" y="66.5"><title>2017-09-10 106 mins</title></rect><rect fill="#47fffe" height="2.6" width="2.6" x="139.5" y="45.5"><title>2017-09-11 29 mins</title></rect><rect fill="#ffbd00" height="2.6" width="2.6" x="139.5" y="49.0"><title>2017-09-12 92 mins</title></rect><rect fill="#44ffe5" height="2.6" width="2.6" x="139.5" y="52.5"><title>2017-09-13 43 mins</title></rect><rect fill="#3dffab" height="2.6" width="2.6" x="139.5" y="56.0"><title>2017-09-14 75 mins</title></rect><rect fill="#41ffcc" height="2.6" width="2.6" x="139.5" y="59.5"><title>2017-09-15 57 mins</title></rect><rect fill="#48f6ff" height="2.6" width="2.6" x="139.5" y="63.0"><title>2017-09-16 23 mins</title></rect><rect fill="#49ecff" height="2.6" width="2.6" x="139.5" y="66.5"><title>2017-09-17 17 mins</title></rect><rect fill="#ffc300" height="2.6" width="2.6" x="143.0" y="45.5"><title>2017-09-18 83 mins</title></rect><rect fill="#41ffcc" height="2.6" width="2.6" x="143.0" y="49.0"><title>2017-09-19 57 mins</title></rect><rect fill="#43ffe2" height="2.6" width="2.6" x="143.0" y="52.5"><title>2017-09-20 45 mins</title></rect><rect fill="#40ffc7" height="2.6" width="2.6" x="143.0" y="56.0"><title>2017-09-21 60 mins</title></rect><rect fill="#45ffee" height="2.6" width="2.6" x="143.0" y="59.5"><title>2017-09-22 38 mins</title></rect><rect fill="#444444" height="2.6" width="2.6" x="143.0" y="63.0"><title>2017-09-23</title></rect><rect fill="#444444" height="2.6" width="2.6" x="143.0" y="66.5"><title>2017-09-24</title></rect><rect fill="#43ffe0" height="2.6" width="2.6" x="146.5" y="45.5"><title>2017-09-25 46 mins</title></rect><rect fill="#41ffd2" height="2.6" width="2.6" x="146.5" y="49.0"><title>2017-09-26 54 mins</title></rect><rect fill="#41ffd2" height="2.6" width="2.6" x="146.5" y="52.5"><title>2017-09-27 54 mins</title></rect><rect fill="#40ffcb" height="2.6" width="2.6" x="146.5" y="56.0"><title>2017-09-28 58 mins</title></rect><rect fill="#3fffc1" height="2.6" width="2.6" x="146.5" y="59.5"><title>2017-09-29 63 mins</title></rect><rect fill="#48fbff" height="2.6" width="2.6" x="146.5" y="63.0"><title>2017-09-30 26 mins</title></rect><rect fill="#49eeff" height="2.6" width="2.6" x="146.5" y="66.5"><title>2017-10-01 18 mins</title></rect><rect fill="#49f3ff" height="2.6" width="2.6" x="150.0" y="45.5"><title>2017-10-02 21 mins</title></rect><rect fill="#42ffd9" height="2.6" width="2.6" x="150.0" y="49.0"><title>2017-10-03 50 mins</title></rect><rect fill="#48f8ff" height="2.6" width="2.6" x="150.0" y="52.5"><title>2017-10-04 24 mins</title></rect><rect fill="#42ffd9" height="2.6" width="2.6" x="150.0" y="56.0"><title>2017-10-05 50 mins</title></rect><rect fill="#4bdfff" height="2.6" width="2.6" x="150.0" y="59.5"><title>2017-10-06 9 mins</title></rect><rect fill="#42ffd4" height="2.6" width="2.6" x="150.0" y="63.0"><title>2017-10-07 53 mins</title></rect><rect fill="#49eeff" height="2.6" width="2.6" x="150.0" y="66.5"><title>2017-10-08 18 mins</title></rect><rect fill="#46fff3" height="2.6" width="2.6" x="153.5" y="45.5"><title>2017-10-09 35 mins</title></rect><rect fill="#3effb2" height="2.6" width="2.6" x="153.5" y="49.0"><title>2017-10-10 71 mins</title></rect><rect fill="#ffbe00" height="2.6" width="2.6" x="153.5" y="52.5"><title>2017-10-11 91 mins</title></rect><rect fill="#47ffff" height="2.6" width="2.6" x="153.5" y="56.0"><title>2017-10-12 28 mins</title></rect><rect fill="#48f4ff" height="2.6" width="2.6" x="153.5" y="59.5"><title>2017-10-13 22 mins</title></rect><rect fill="#4cdcff" height="2.6" width="2.6" x="153.5" y="63.0"><title>2017-10-14 7 mins</title></rect><rect fill="#4dd4ff" height="2.6" width="2.6" x="153.5" y="66.5"><title>2017-10-15 2 mins</title></rect><rect fill="#41ffce" height="2.6" width="2.6" x="157.0" y="45.5"><title>2017-10-16 56 mins</title></rect><rect fill="#48f6ff" height="2.6" width="2.6" x="157.0" y="49.0"><title>2017-10-17 23 mins</title></rect><rect fill="#4dd2ff" height="2.6" width="2.6" x="157.0" y="52.5"><title>2017-10-18 1 mins</title></rect><rect fill="#49ecff" height="2.6" width="2.6" x="157.0" y="56.0"><title>2017-10-19 17 mins</title></rect><rect fill="#49efff" height="2.6" width="2.6" x="157.0" y="59.5"><title>2017-10-20 19 mins</title></rect><rect fill="#3dffad" height="2.6" width="2.6" x="157.0" y="63.0"><title>2017-10-21 74 mins</title></rect><rect fill="#3fffc1" height="2.6" width="2.6" x="157.0" y="66.5"><title>2017-10-22 63 mins</title></rect><rect fill="#4be1ff" height="2.6" width="2.6" x="160.5" y="45.5"><title>2017-10-23 10 mins</title></rect><rect fill="#4be4ff" height="2.6" width="2.6" x="160.5" y="49.0"><title>2017-10-24 12 mins</title></rect><rect fill="#ffbd00" height="2.6" width="2.6" x="160.5" y="52.5"><title>2017-10-25 92 mins</title></rect><rect fill="#4dd5ff" height="2.6" width="2.6" x="160.5" y="56.0"><title>2017-10-26 3 mins</title></rect><rect fill="#45ffee" height="2.6" width="2.6" x="160.5" y="59.5"><title>2017-10-27 38 mins</title></rect><rect fill="#40ffc3" height="2.6" width="2.6" x="160.5" y="63.0"><title>2017-10-28 62 mins</title></rect><rect fill="#40ffc7" height="2.6" width="2.6" x="160.5" y="66.5"><title>2017-10-29 60 mins</title></rect><rect fill="#44ffe9" height="2.6" width="2.6" x="164.0" y="45.5"><title>2017-10-30 41 mins</title></rect><rect fill="#4be2ff" height="2.6" width="2.6" x="164.0" y="49.0"><title>2017-10-31 11 mins</title></rect><rect fill="#3dffa9" height="2.6" width="2.6" x="164.0" y="52.5"><title>2017-11-01 76 mins</title></rect><rect fill="#46fffa" height="2.6" width="2.6" x="164.0" y="56.0"><title>2017-11-02 31 mins</title></rect><rect fill="#4dd4ff" height="2.6" width="2.6" x="164.0" y="59.5"><title>2017-11-03 2 mins</title></rect><rect fill="#45ffee" height="2.6" width="2.6" x="164.0" y="63.0"><title>2017-11-04 38 mins</title></rect><rect fill="#444444" height="2.6" width="2.6" x="164.0" y="66.5"><title>2017-11-05</title></rect><rect fill="#46fff9" height="2.6" width="2.6" x="167.5" y="45.5"><title>2017-11-06 32 mins</title></rect><rect fill="#4cdaff" height="2.6" width="2.6" x="167.5" y="49.0"><title>2017-11-07 6 mins</title></rect><rect fill="#4ae5ff" height="2.6" width="2.6" x="167.5" y="52.5"><title>2017-11-08 13 mins</title></rect><rect fill="#45ffee" height="2.6" width="2.6" x="167.5" y="56.0"><title>2017-11-09 38 mins</title></rect><rect fill="#42ffdb" height="2.6" width="2.6" x="167.5" y="59.5"><title>2017-11-10 49 mins</title></rect><rect fill="#ffb300" height="2.6" width="2.6" x="167.5" y="63.0"><title>2017-11-11 105 mins</title></rect><rect fill="#4dd4ff" height="2.6" width="2.6" x="167.5" y="66.5"><title>2017-11-12 2 mins</title></rect><rect fill="#444444" height="2.6" width="2.6" x="171.0" y="45.5"><title>2017-11-13</title></rect><rect fill="#44ffe9" height="2.6" width="2.6" x="171.0" y="49.0"><title>2017-11-14 41 mins</title></rect><rect fill="#47fffc" height="2.6" width="2.6" x="171.0" y="52.5"><title>2017-11-15 30 mins</title></rect><rect fill="#4dd2ff" height="2.6" width="2.6" x="171.0" y="56.0"><title>2017-11-16 1 mins</title></rect><rect fill="#3dffb1" height="2.6" width="2.6" x="171.0" y="59.5"><title>2017-11-17 72 mins</title></rect><rect fill="#4cd7ff" height="2.6" width="2.6" x="171.0" y="63.0"><title>2017-11-18 4 mins</title></rect><rect fill="#444444" height="2.6" width="2.6" x="171.0" y="66.5"><title>2017-11-19</title></rect><rect fill="#42ffd5" height="2.6" width="2.6" x="174.5" y="45.5"><title>2017-11-20 52 mins</title></rect><rect fill="#40ffc7" height="2.6" width="2.6" x="174.5" y="49.0"><title>2017-11-21 60 mins</title></rect><rect fill="#ffbc00" height="2.6" width="2.6" x="174.5" y="52.5"><title>2017-11-22 93 mins</title></rect><rect fill="#ffa800" height="2.6" width="2.6" x="174.5" y="56.0"><title>2017-11-23 121 mins</title></rect><rect fill="#42ffd5" height="2.6" width="2.6" x="174.5" y="59.5"><title>2017-11-24 52 mins</title></rect><rect fill="#3dffa9" height="2.6" width="2.6" x="174.5" y="63.0"><title>2017-11-25 76 mins</title></rect><rect fill="red" height="2.6" width="2.6" x="174.5" y="66.5"><title>2017-11-26 134 mins</title></rect><rect fill="#40ffcb" height="2.6" width="2.6" x="178.0" y="45.5"><title>2017-11-27 58 mins</title></rect><rect fill="#ffb800" height="2.6" width="2.6" x="178.0" y="49.0"><title>2017-11-28 99 mins</title></rect><rect fill="#44ffe7" height="2.6" width="2.6" x="178.0" y="52.5"><title>2017-11-29 42 mins</title></rect><rect fill="#4aeaff" height="2.6" width="2.6" x="178.0" y="56.0"><title>2017-11-30 16 mins</title></rect><rect fill="#44ffe4" height="2.6" width="2.6" x="178.0" y="59.5"><title>2017-12-01 44 mins</title></rect><rect fill="#49f1ff" height="2.6" width="2.6" x="178.0" y="63.0"><title>2017-12-02 20 mins</title></rect><rect fill="#49ecff" height="2.6" width="2.6" x="178.0" y="66.5"><title>2017-12-03 17 mins</title></rect><rect fill="#45ffee" height="2.6" width="2.6" x="181.5" y="45.5"><title>2017-12-04 38 mins</title></rect><rect fill="#42ffd5" height="2.6" width="2.6" x="181.5" y="49.0"><title>2017-12-05 52 mins</title></rect><rect fill="#44ffe7" height="2.6" width="2.6" x="181.5" y="52.5"><title>2017-12-06 42 mins</title></rect><rect fill="#49ecff" height="2.6" width="2.6" x="181.5" y="56.0"><title>2017-12-07 17 mins</title></rect><rect fill="#47fffc" height="2.6" width="2.6" x="181.5" y="59.5"><title>2017-12-08 30 mins</title></rect><rect fill="#ffad00" height="2.6" width="2.6" x="181.5" y="63.0"><title>2017-12-09 114 mins</title></rect><rect fill="#3dffad" height="2.6" width="2.6" x="181.5" y="66.5"><title>2017-12-10 74 mins</title></rect><rect fill="#4dd4ff" height="2.6" width="2.6" x="185.0" y="45.5"><title>2017-12-11 2 mins</title></rect><rect fill="#444444" height="2.6" width="2.6" x="185.0" y="49.0"><title>2017-12-12</title></rect><rect fill="#3fffbc" height="2.6" width="2.6" x="185.0" y="52.5"><title>2017-12-13 66 mins</title></rect><rect fill="#48f8ff" height="2.6" width="2.6" x="185.0" y="56.0"><title>2017-12-14 24 mins</title></rect><rect fill="#4dd2ff" height="2.6" width="2.6" x="185.0" y="59.5"><title>2017-12-15 1 mins</title></rect><rect fill="#444444" height="2.6" width="2.6" x="185.0" y="63.0"><title>2017-12-16</title></rect><rect fill="#4aeaff" height="2.6" width="2.6" x="185.0" y="66.5"><title>2017-12-17 16 mins</title></rect><rect fill="#46fffa" height="2.6" width="2.6" x="188.5" y="45.5"><title>2017-12-18 31 mins</title></rect><rect fill="#46fff3" height="2.6" width="2.6" x="188.5" y="49.0"><title>2017-12-19 35 mins</title></rect><rect fill="#49f1ff" height="2.6" width="2.6" x="188.5" y="52.5"><title>2017-12-20 20 mins</title></rect><rect fill="#49eeff" height="2.6" width="2.6" x="188.5" y="56.0"><title>2017-12-21 18 mins</title></rect><rect fill="#46fff3" height="2.6" width="2.6" x="188.5" y="59.5"><title>2017-12-22 35 mins</title></rect><rect fill="#49efff" height="2.6" width="2.6" x="188.5" y="63.0"><title>2017-12-23 19 mins</title></rect><rect fill="#49ecff" height="2.6" width="2.6" x="188.5" y="66.5"><title>2017-12-24 17 mins</title></rect><rect fill="#40ffcb" height="2.6" width="2.6" x="192.0" y="45.5"><title>2017-12-25 58 mins</title></rect><rect fill="#49efff" height="2.6" width="2.6" x="192.0" y="49.0"><title>2017-12-26 19 mins</title></rect><rect fill="#44ffe7" height="2.6" width="2.6" x="192.0" y="52.5"><title>2017-12-27 42 mins</title></rect><rect fill="#4bdfff" height="2.6" width="2.6" x="192.0" y="56.0"><title>2017-12-28 9 mins</title></rect><rect fill="#41ffd2" height="2.6" width="2.6" x="192.0" y="59.5"><title>2017-12-29 54 mins</title></rect><rect fill="#ffbe00" height="2.6" width="2.6" x="192.0" y="63.0"><title>2017-12-30 90 mins</title></rect><rect fill="#4bddff" height="2.6" width="2.6" x="192.0" y="66.5"><title>2017-12-31 8 mins</title></rect></svg>