<?xml version="1.0" encoding="utf-8" ?>
<svg baseProfile="full" height="78mm" version="1.1" viewBox="0,0,200,78" width="200mm" xmlns="http://www.w3.org/2000/svg" xmlns:ev="http://www.w3.org/2001/xml-events" xmlns:xlink="http://www.w3.org/1999/xlink"><defs /><rect fill="#222222" height="78" width="200" x="0" y="0" /><text fill="#FFFFFF" style="font-size:12px; font-family:Arial; font-weight:bold;" x="10" y="20">rip-tyang apple_health</text><text dominant-baseline="hanging" fill="#FFFFFF" style="font-size:10.0px; font-family:Arial;" x="10" y="30">2020</text><text dominant-baseline="hanging" fill="#FFFFFF" style="font-size:4.125px; font-family:Arial;" x="175" y="35">215408 kCal</text><text fill="#FFFFFF" style="font-size:2.5px; font-family:Arial" x="10.0" y="44">Jan</text><text fill="#FFFFFF" style="font-size:2.5px; font-family:Arial" x="25.5" y="44">Feb</text><text fill="#FFFFFF" style="font-size:2.5px; font-family:Arial" x="41.0" y="44">Mar</text><text fill="#FFFFFF" style="font-size:2.5px; font-family:Arial" x="56.5" y="44">Apr</text><text fill="#FFFFFF" style="font-size:2.5px; font-family:Arial" x="72.0" y="44">May</text><text fill="#FFFFFF" style="font-size:2.5px; font-family:Arial" x="87.5" y="44">Jun</text><text fill="#FFFFFF" style="font-size:2.5px; font-family:Arial" x="103.0" y="44">Jul</text><text fill="#FFFFFF" style="font-size:2.5px; font-family:Arial" x="118.5" y="44">Aug</text><text fill="#FFFFFF" style="font-size:2.5px; font-family:Arial" x="134.0" y="44">Sep</text><text fill="#FFFFFF" style="font-size:2.5px; font-family:Arial" x="149.5" y="44">Oct</text><text fill="#FFFFFF" style="font-size:2.5px; font-family:Arial" x="165.0" y="44">Nov</text><text fill="#FFFFFF" style="font-size:2.5px; font-family:Arial" x="180.5" y="44">Dec</text><rect fill="red" height="2.6" width="2.6" x="10.0" y="45.5"><title>2019-12-30 896.4729999999993 kCal</title></rect><rect fill="#4ae5ff" height="2.6" width="2.6" x="10.0" y="49.0"><title>2019-12-31 384.5269999999996 kCal</title></rect><rect fill="#ffee00" height="2.6" width="2.6" x="10.0" y="52.5"><title>2020-01-01 777.6869999999994 kCal</title></rect><rect fill="#ffef00" height="2.6" width="2.6" x="10.0" y="56.0"><title>2020-01-02 702.591 kCal</title></rect><rect fill="red" height="2.6" width="2.6" x="10.0" y="59.5"><title>2020-01-03 897.2519999999981 kCal</title></rect><rect fill="#49eeff" height="2.6" width="2.6" x="10.0" y="63.0"><title>2020-01-04 567.6239999999999 kCal</title></rect><rect fill="red" height="2.6" width="2.6" x="10.0" y="66.5"><title>2020-01-05 859.0820000000002 kCal</title></rect><rect fill="red" height="2.6" width="2.6" x="13.5" y="45.5"><title>2020-01-06 1117.1670000000006 kCal</title></rect><rect fill="red" height="2.6" width="2.6" x="13.5" y="49.0"><title>2020-01-07 1596.6630000000007 kCal</title></rect><rect fill="#ffee00" height="2.6" width="2.6" x="13.5" y="52.5"><title>2020-01-08 757.3619999999994 kCal</title></rect><rect fill="#ffee00" height="2.6" width="2.6" x="13.5" y="56.0"><title>2020-01-09 757.1869999999997 kCal</title></rect><rect fill="red" height="2.6" width="2.6" x="13.5" y="59.5"><title>2020-01-10 1073.6780000000017 kCal</title></rect><rect fill="#4aebff" height="2.6" width="2.6" x="13.5" y="63.0"><title>2020-01-11 507.76599999999996 kCal</title></rect><rect fill="#49efff" height="2.6" width="2.6" x="13.5" y="66.5"><title>2020-01-12 575.7520000000005 kCal</title></rect><rect fill="red" height="2.6" width="2.6" x="17.0" y="45.5"><title>2020-01-13 827.5600000000002 kCal</title></rect><rect fill="red" height="2.6" width="2.6" x="17.0" y="49.0"><title>2020-01-14 955.3610000000008 kCal</title></rect><rect fill="#ffee00" height="2.6" width="2.6" x="17.0" y="52.5"><title>2020-01-15 743.9060000000002 kCal</title></rect><rect fill="red" height="2.6" width="2.6" x="17.0" y="56.0"><title>2020-01-16 1390.7619999999997 kCal</title></rect><rect fill="#ffee00" height="2.6" width="2.6" x="17.0" y="59.5"><title>2020-01-17 778.6759999999987 kCal</title></rect><rect fill="red" height="2.6" width="2.6" x="17.0" y="63.0"><title>2020-01-18 1995.1212999999993 kCal</title></rect><rect fill="#4aebff" height="2.6" width="2.6" x="17.0" y="66.5"><title>2020-01-19 502.7439999999982 kCal</title></rect><rect fill="#ffef00" height="2.6" width="2.6" x="20.5" y="45.5"><title>2020-01-20 740.8029999999999 kCal</title></rect><rect fill="#fff000" height="2.6" width="2.6" x="20.5" y="49.0"><title>2020-01-21 662.086999999998 kCal</title></rect><rect fill="#ffef00" height="2.6" width="2.6" x="20.5" y="52.5"><title>2020-01-22 720.2730000000007 kCal</title></rect><rect fill="#fff000" height="2.6" width="2.6" x="20.5" y="56.0"><title>2020-01-23 669.698999999999 kCal</title></rect><rect fill="red" height="2.6" width="2.6" x="20.5" y="59.5"><title>2020-01-24 1209.7790000000011 kCal</title></rect><rect fill="#fff000" height="2.6" width="2.6" x="20.5" y="63.0"><title>2020-01-25 679.1109999999998 kCal</title></rect><rect fill="#4be2ff" height="2.6" width="2.6" x="20.5" y="66.5"><title>2020-01-26 326.02699999999953 kCal</title></rect><rect fill="#4ae5ff" height="2.6" width="2.6" x="24.0" y="45.5"><title>2020-01-27 385.3209999999987 kCal</title></rect><rect fill="red" height="2.6" width="2.6" x="24.0" y="49.0"><title>2020-01-28 899.9589999999996 kCal</title></rect><rect fill="red" height="2.6" width="2.6" x="24.0" y="52.5"><title>2020-01-29 930.829 kCal</title></rect><rect fill="red" height="2.6" width="2.6" x="24.0" y="56.0"><title>2020-01-30 830.0499999999987 kCal</title></rect><rect fill="#fff000" height="2.6" width="2.6" x="24.0" y="59.5"><title>2020-01-31 677.7089999999995 kCal</title></rect><rect fill="#fff200" height="2.6" width="2.6" x="24.0" y="63.0"><title>2020-02-01 603.1149999999998 kCal</title></rect><rect fill="#ffee00" height="2.6" width="2.6" x="24.0" y="66.5"><title>2020-02-02 763.3100000000003 kCal</title></rect><rect fill="#ffee00" height="2.6" width="2.6" x="27.5" y="45.5"><title>2020-02-03 785.7449999999993 kCal</title></rect><rect fill="red" height="2.6" width="2.6" x="27.5" y="49.0"><title>2020-02-04 956.6379999999997 kCal</title></rect><rect fill="red" height="2.6" width="2.6" x="27.5" y="52.5"><title>2020-02-05 956.5800000000002 kCal</title></rect><rect fill="#ffef00" height="2.6" width="2.6" x="27.5" y="56.0"><title>2020-02-06 741.3420000000001 kCal</title></rect><rect fill="red" height="2.6" width="2.6" x="27.5" y="59.5"><title>2020-02-07 1015.7219999999999 kCal</title></rect><rect fill="red" height="2.6" width="2.6" x="27.5" y="63.0"><title>2020-02-08 989.6559999999995 kCal</title></rect><rect fill="red" height="2.6" width="2.6" x="27.5" y="66.5"><title>2020-02-09 1135.0360000000014 kCal</title></rect><rect fill="#ffef00" height="2.6" width="2.6" x="31.0" y="45.5"><title>2020-02-10 732.8260000000004 kCal</title></rect><rect fill="#ffee00" height="2.6" width="2.6" x="31.0" y="49.0"><title>2020-02-11 754.8080000000003 kCal</title></rect><rect fill="red" height="2.6" width="2.6" x="31.0" y="52.5"><title>2020-02-12 934.4390000000005 kCal</title></rect><rect fill="red" height="2.6" width="2.6" x="31.0" y="56.0"><title>2020-02-13 1002.7430000000006 kCal</title></rect><rect fill="red" height="2.6" width="2.6" x="31.0" y="59.5"><title>2020-02-14 963.9660000000003 kCal</title></rect><rect fill="red" height="2.6" width="2.6" x="31.0" y="63.0"><title>2020-02-15 2036.175299999999 kCal</title></rect><rect fill="red" height="2.6" width="2.6" x="31.0" y="66.5"><title>2020-02-16 1488.0051000000037 kCal</title></rect><rect fill="red" height="2.6" width="2.6" x="34.5" y="45.5"><title>2020-02-17 1057.033000000002 kCal</title></rect><rect fill="#4be0ff" height="2.6" width="2.6" x="34.5" y="49.0"><title>2020-02-18 292.3300000000001 kCal</title></rect><rect fill="red" height="2.6" width="2.6" x="34.5" y="52.5"><title>2020-02-19 998.2169999999999 kCal</title></rect><rect fill="#fff000" height="2.6" width="2.6" x="34.5" y="56.0"><title>2020-02-20 687.2869999999995 kCal</title></rect><rect fill="red" height="2.6" width="2.6" x="34.5" y="59.5"><title>2020-02-21 2172.938999999999 kCal</title></rect><rect fill="red" height="2.6" width="2.6" x="34.5" y="63.0"><title>2020-02-22 1986.0589999999993 kCal</title></rect><rect fill="red" height="2.6" width="2.6" x="34.5" y="66.5"><title>2020-02-23 2059.5151600000004 kCal</title></rect><rect fill="red" height="2.6" width="2.6" x="38.0" y="45.5"><title>2020-02-24 1388.7528000000011 kCal</title></rect><rect fill="#ffef00" height="2.6" width="2.6" x="38.0" y="49.0"><title>2020-02-25 710.6399999999991 kCal</title></rect><rect fill="#4ae8ff" height="2.6" width="2.6" x="38.0" y="52.5"><title>2020-02-26 453.3319999999996 kCal</title></rect><rect fill="#ffef00" height="2.6" width="2.6" x="38.0" y="56.0"><title>2020-02-27 719.6330000000012 kCal</title></rect><rect fill="#ffee00" height="2.6" width="2.6" x="38.0" y="59.5"><title>2020-02-28 782.4900000000006 kCal</title></rect><rect fill="#4ae5ff" height="2.6" width="2.6" x="38.0" y="63.0"><title>2020-02-29 382.4900000000003 kCal</title></rect><rect fill="red" height="2.6" width="2.6" x="38.0" y="66.5"><title>2020-03-01 1068.0990000000004 kCal</title></rect><rect fill="#ffee00" height="2.6" width="2.6" x="41.5" y="45.5"><title>2020-03-02 776.6520000000005 kCal</title></rect><rect fill="red" height="2.6" width="2.6" x="41.5" y="49.0"><title>2020-03-03 836.4389999999992 kCal</title></rect><rect fill="red" height="2.6" width="2.6" x="41.5" y="52.5"><title>2020-03-04 892.3390000000004 kCal</title></rect><rect fill="#fff000" height="2.6" width="2.6" x="41.5" y="56.0"><title>2020-03-05 667.2039999999997 kCal</title></rect><rect fill="red" height="2.6" width="2.6" x="41.5" y="59.5"><title>2020-03-06 802.8179999999995 kCal</title></rect><rect fill="#4ae6ff" height="2.6" width="2.6" x="41.5" y="63.0"><title>2020-03-07 403.336 kCal</title></rect><rect fill="#4ae6ff" height="2.6" width="2.6" x="41.5" y="66.5"><title>2020-03-08 411.57800000000043 kCal</title></rect><rect fill="#ffef00" height="2.6" width="2.6" x="45.0" y="45.5"><title>2020-03-09 707.1619999999994 kCal</title></rect><rect fill="#ffef00" height="2.6" width="2.6" x="45.0" y="49.0"><title>2020-03-10 738.2539999999996 kCal</title></rect><rect fill="#fff200" height="2.6" width="2.6" x="45.0" y="52.5"><title>2020-03-11 603.6109999999987 kCal</title></rect><rect fill="#fff000" height="2.6" width="2.6" x="45.0" y="56.0"><title>2020-03-12 678.7900000000003 kCal</title></rect><rect fill="red" height="2.6" width="2.6" x="45.0" y="59.5"><title>2020-03-13 878.1000000000006 kCal</title></rect><rect fill="#ffef00" height="2.6" width="2.6" x="45.0" y="63.0"><title>2020-03-14 713.5689999999997 kCal</title></rect><rect fill="#fff100" height="2.6" width="2.6" x="45.0" y="66.5"><title>2020-03-15 621.3700000000011 kCal</title></rect><rect fill="#ffef00" height="2.6" width="2.6" x="48.5" y="45.5"><title>2020-03-16 713.013999999999 kCal</title></rect><rect fill="#4ae9ff" height="2.6" width="2.6" x="48.5" y="49.0"><title>2020-03-17 454.9779999999999 kCal</title></rect><rect fill="#4ae7ff" height="2.6" width="2.6" x="48.5" y="52.5"><title>2020-03-18 420.7709999999998 kCal</title></rect><rect fill="#4be0ff" height="2.6" width="2.6" x="48.5" y="56.0"><title>2020-03-19 286.8150000000001 kCal</title></rect><rect fill="#4ae9ff" height="2.6" width="2.6" x="48.5" y="59.5"><title>2020-03-20 456.6300000000001 kCal</title></rect><rect fill="#fff200" height="2.6" width="2.6" x="48.5" y="63.0"><title>2020-03-21 606.0129999999997 kCal</title></rect><rect fill="#4cdbff" height="2.6" width="2.6" x="48.5" y="66.5"><title>2020-03-22 194.39199999999994 kCal</title></rect><rect fill="#ffee00" height="2.6" width="2.6" x="52.0" y="45.5"><title>2020-03-23 776.7320000000002 kCal</title></rect><rect fill="#4aebff" height="2.6" width="2.6" x="52.0" y="49.0"><title>2020-03-24 512.8039999999997 kCal</title></rect><rect fill="red" height="2.6" width="2.6" x="52.0" y="52.5"><title>2020-03-25 1026.9209999999998 kCal</title></rect><rect fill="#4ae9ff" height="2.6" width="2.6" x="52.0" y="56.0"><title>2020-03-26 458.8480000000001 kCal</title></rect><rect fill="#4aecff" height="2.6" width="2.6" x="52.0" y="59.5"><title>2020-03-27 516.6330000000003 kCal</title></rect><rect fill="#4ae6ff" height="2.6" width="2.6" x="52.0" y="63.0"><title>2020-03-28 399.84 kCal</title></rect><rect fill="#4ae6ff" height="2.6" width="2.6" x="52.0" y="66.5"><title>2020-03-29 405.5010000000003 kCal</title></rect><rect fill="#4be0ff" height="2.6" width="2.6" x="55.5" y="45.5"><title>2020-03-30 278.8490000000005 kCal</title></rect><rect fill="#ffee00" height="2.6" width="2.6" x="55.5" y="49.0"><title>2020-03-31 778.4010000000004 kCal</title></rect><rect fill="#4dd4ff" height="2.6" width="2.6" x="55.5" y="52.5"><title>2020-04-01 40.42799999999999 kCal</title></rect><rect fill="#4ae9ff" height="2.6" width="2.6" x="55.5" y="56.0"><title>2020-04-02 463.55100000000033 kCal</title></rect><rect fill="#4cdbff" height="2.6" width="2.6" x="55.5" y="59.5"><title>2020-04-03 187.821 kCal</title></rect><rect fill="#4be4ff" height="2.6" width="2.6" x="55.5" y="63.0"><title>2020-04-04 364.8079999999995 kCal</title></rect><rect fill="#4cd7ff" height="2.6" width="2.6" x="55.5" y="66.5"><title>2020-04-05 106.08599999999998 kCal</title></rect><rect fill="#4aeaff" height="2.6" width="2.6" x="59.0" y="45.5"><title>2020-04-06 481.7930000000001 kCal</title></rect><rect fill="#4cd9ff" height="2.6" width="2.6" x="59.0" y="49.0"><title>2020-04-07 143.08599999999998 kCal</title></rect><rect fill="#4ae5ff" height="2.6" width="2.6" x="59.0" y="52.5"><title>2020-04-08 377.86199999999997 kCal</title></rect><rect fill="#4aebff" height="2.6" width="2.6" x="59.0" y="56.0"><title>2020-04-09 512.3500000000007 kCal</title></rect><rect fill="red" height="2.6" width="2.6" x="59.0" y="59.5"><title>2020-04-10 1505.9259999999997 kCal</title></rect><rect fill="#4ae9ff" height="2.6" width="2.6" x="59.0" y="63.0"><title>2020-04-11 465.33999999999986 kCal</title></rect><rect fill="#4ae8ff" height="2.6" width="2.6" x="59.0" y="66.5"><title>2020-04-12 439.0749999999997 kCal</title></rect><rect fill="#4dd5ff" height="2.6" width="2.6" x="62.5" y="45.5"><title>2020-04-13 70.97 kCal</title></rect><rect fill="#4ae9ff" height="2.6" width="2.6" x="62.5" y="49.0"><title>2020-04-14 470.86199999999985 kCal</title></rect><rect fill="#4dd5ff" height="2.6" width="2.6" x="62.5" y="52.5"><title>2020-04-15 68.84700000000001 kCal</title></rect><rect fill="#49edff" height="2.6" width="2.6" x="62.5" y="56.0"><title>2020-04-16 548.6539999999999 kCal</title></rect><rect fill="#4ae9ff" height="2.6" width="2.6" x="62.5" y="59.5"><title>2020-04-17 462.3190000000001 kCal</title></rect><rect fill="#444444" height="2.6" width="2.6" x="62.5" y="63.0"><title>2020-04-18</title></rect><rect fill="#fff100" height="2.6" width="2.6" x="62.5" y="66.5"><title>2020-04-19 622.848999999999 kCal</title></rect><rect fill="#4cd9ff" height="2.6" width="2.6" x="66.0" y="45.5"><title>2020-04-20 148.187 kCal</title></rect><rect fill="#4ae6ff" height="2.6" width="2.6" x="66.0" y="49.0"><title>2020-04-21 398.9759999999998 kCal</title></rect><rect fill="#4cd7ff" height="2.6" width="2.6" x="66.0" y="52.5"><title>2020-04-22 106.39400000000003 kCal</title></rect><rect fill="red" height="2.6" width="2.6" x="66.0" y="56.0"><title>2020-04-23 1589.143000000001 kCal</title></rect><rect fill="#4cd9ff" height="2.6" width="2.6" x="66.0" y="59.5"><title>2020-04-24 145.9029999999999 kCal</title></rect><rect fill="#fff100" height="2.6" width="2.6" x="66.0" y="63.0"><title>2020-04-25 614.0540000000012 kCal</title></rect><rect fill="#4cd7ff" height="2.6" width="2.6" x="66.0" y="66.5"><title>2020-04-26 105.78100000000003 kCal</title></rect><rect fill="#4ae9ff" height="2.6" width="2.6" x="69.5" y="45.5"><title>2020-04-27 461.0539999999997 kCal</title></rect><rect fill="#4cd9ff" height="2.6" width="2.6" x="69.5" y="49.0"><title>2020-04-28 148.67500000000007 kCal</title></rect><rect fill="#4ae6ff" height="2.6" width="2.6" x="69.5" y="52.5"><title>2020-04-29 400.39000000000067 kCal</title></rect><rect fill="#4aeaff" height="2.6" width="2.6" x="69.5" y="56.0"><title>2020-04-30 483.5029999999998 kCal</title></rect><rect fill="#4ae6ff" height="2.6" width="2.6" x="69.5" y="59.5"><title>2020-05-01 406.86499999999984 kCal</title></rect><rect fill="#4be2ff" height="2.6" width="2.6" x="69.5" y="63.0"><title>2020-05-02 325.97999999999973 kCal</title></rect><rect fill="#4ae6ff" height="2.6" width="2.6" x="69.5" y="66.5"><title>2020-05-03 414.36800000000017 kCal</title></rect><rect fill="#4dd6ff" height="2.6" width="2.6" x="73.0" y="45.5"><title>2020-05-04 75.03100000000005 kCal</title></rect><rect fill="#4aeaff" height="2.6" width="2.6" x="73.0" y="49.0"><title>2020-05-05 477.66899999999987 kCal</title></rect><rect fill="#4ae8ff" height="2.6" width="2.6" x="73.0" y="52.5"><title>2020-05-06 445.1249999999998 kCal</title></rect><rect fill="#4be3ff" height="2.6" width="2.6" x="73.0" y="56.0"><title>2020-05-07 354.39700000000005 kCal</title></rect><rect fill="#4ae8ff" height="2.6" width="2.6" x="73.0" y="59.5"><title>2020-05-08 436.07599999999996 kCal</title></rect><rect fill="#4be1ff" height="2.6" width="2.6" x="73.0" y="63.0"><title>2020-05-09 301.91700000000003 kCal</title></rect><rect fill="#4be4ff" height="2.6" width="2.6" x="73.0" y="66.5"><title>2020-05-10 361.63699999999994 kCal</title></rect><rect fill="#4ae5ff" height="2.6" width="2.6" x="76.5" y="45.5"><title>2020-05-11 391.4619999999999 kCal</title></rect><rect fill="#4aebff" height="2.6" width="2.6" x="76.5" y="49.0"><title>2020-05-12 513.6010000000002 kCal</title></rect><rect fill="red" height="2.6" width="2.6" x="76.5" y="52.5"><title>2020-05-13 1777.942000000003 kCal</title></rect><rect fill="#49edff" height="2.6" width="2.6" x="76.5" y="56.0"><title>2020-05-14 544.6589999999999 kCal</title></rect><rect fill="#4bdfff" height="2.6" width="2.6" x="76.5" y="59.5"><title>2020-05-15 274.04199999999975 kCal</title></rect><rect fill="#4aecff" height="2.6" width="2.6" x="76.5" y="63.0"><title>2020-05-16 517.052 kCal</title></rect><rect fill="#4cdcff" height="2.6" width="2.6" x="76.5" y="66.5"><title>2020-05-17 211.56399999999996 kCal</title></rect><rect fill="red" height="2.6" width="2.6" x="80.0" y="45.5"><title>2020-05-18 961.3529999999981 kCal</title></rect><rect fill="#4cddff" height="2.6" width="2.6" x="80.0" y="49.0"><title>2020-05-19 223.29900000000018 kCal</title></rect><rect fill="#4aebff" height="2.6" width="2.6" x="80.0" y="52.5"><title>2020-05-20 498.816 kCal</title></rect><rect fill="#4ae9ff" height="2.6" width="2.6" x="80.0" y="56.0"><title>2020-05-21 473.452999999999 kCal</title></rect><rect fill="#4ae5ff" height="2.6" width="2.6" x="80.0" y="59.5"><title>2020-05-22 383.15199999999953 kCal</title></rect><rect fill="#4ae9ff" height="2.6" width="2.6" x="80.0" y="63.0"><title>2020-05-23 470.4560000000002 kCal</title></rect><rect fill="red" height="2.6" width="2.6" x="80.0" y="66.5"><title>2020-05-24 1143.2859999999985 kCal</title></rect><rect fill="#4ae5ff" height="2.6" width="2.6" x="83.5" y="45.5"><title>2020-05-25 385.36899999999986 kCal</title></rect><rect fill="#4aebff" height="2.6" width="2.6" x="83.5" y="49.0"><title>2020-05-26 509.1529999999996 kCal</title></rect><rect fill="#4ae5ff" height="2.6" width="2.6" x="83.5" y="52.5"><title>2020-05-27 375.95199999999977 kCal</title></rect><rect fill="#4be4ff" height="2.6" width="2.6" x="83.5" y="56.0"><title>2020-05-28 365.35999999999956 kCal</title></rect><rect fill="#4aeaff" height="2.6" width="2.6" x="83.5" y="59.5"><title>2020-05-29 475.26999999999975 kCal</title></rect><rect fill="#4aeaff" height="2.6" width="2.6" x="83.5" y="63.0"><title>2020-05-30 487.32500000000005 kCal</title></rect><rect fill="#4ae5ff" height="2.6" width="2.6" x="83.5" y="66.5"><title>2020-05-31 392.996 kCal</title></rect><rect fill="#49ecff" height="2.6" width="2.6" x="87.0" y="45.5"><title>2020-06-01 527.8609999999999 kCal</title></rect><rect fill="#4aeaff" height="2.6" width="2.6" x="87.0" y="49.0"><title>2020-06-02 479.6949999999998 kCal</title></rect><rect fill="#4ae5ff" height="2.6" width="2.6" x="87.0" y="52.5"><title>2020-06-03 388.6759999999996 kCal</title></rect><rect fill="#4aeaff" height="2.6" width="2.6" x="87.0" y="56.0"><title>2020-06-04 485.56200000000007 kCal</title></rect><rect fill="#4ae9ff" height="2.6" width="2.6" x="87.0" y="59.5"><title>2020-06-05 469.3879999999997 kCal</title></rect><rect fill="#49efff" height="2.6" width="2.6" x="87.0" y="63.0"><title>2020-06-06 576.8419999999991 kCal</title></rect><rect fill="#ffee00" height="2.6" width="2.6" x="87.0" y="66.5"><title>2020-06-07 747.43 kCal</title></rect><rect fill="#4ae9ff" height="2.6" width="2.6" x="90.5" y="45.5"><title>2020-06-08 473.77799999999917 kCal</title></rect><rect fill="red" height="2.6" width="2.6" x="90.5" y="49.0"><title>2020-06-09 793.0190000000007 kCal</title></rect><rect fill="#4cdbff" height="2.6" width="2.6" x="90.5" y="52.5"><title>2020-06-10 185.2360000000001 kCal</title></rect><rect fill="red" height="2.6" width="2.6" x="90.5" y="56.0"><title>2020-06-11 829.7319999999993 kCal</title></rect><rect fill="#4ae6ff" height="2.6" width="2.6" x="90.5" y="59.5"><title>2020-06-12 412.6110000000003 kCal</title></rect><rect fill="#ffee00" height="2.6" width="2.6" x="90.5" y="63.0"><title>2020-06-13 779.9049999999992 kCal</title></rect><rect fill="#4aeaff" height="2.6" width="2.6" x="90.5" y="66.5"><title>2020-06-14 481.0049999999999 kCal</title></rect><rect fill="#4ae9ff" height="2.6" width="2.6" x="94.0" y="45.5"><title>2020-06-15 458.05099999999936 kCal</title></rect><rect fill="#fff200" height="2.6" width="2.6" x="94.0" y="49.0"><title>2020-06-16 604.3889999999998 kCal</title></rect><rect fill="#49edff" height="2.6" width="2.6" x="94.0" y="52.5"><title>2020-06-17 535.9740000000002 kCal</title></rect><rect fill="#4ae7ff" height="2.6" width="2.6" x="94.0" y="56.0"><title>2020-06-18 421.58400000000023 kCal</title></rect><rect fill="#49edff" height="2.6" width="2.6" x="94.0" y="59.5"><title>2020-06-19 550.4849999999993 kCal</title></rect><rect fill="#4bdfff" height="2.6" width="2.6" x="94.0" y="63.0"><title>2020-06-20 255.77799999999982 kCal</title></rect><rect fill="#4be4ff" height="2.6" width="2.6" x="94.0" y="66.5"><title>2020-06-21 371.6959999999995 kCal</title></rect><rect fill="#49eeff" height="2.6" width="2.6" x="97.5" y="45.5"><title>2020-06-22 555.1459999999995 kCal</title></rect><rect fill="#4ae9ff" height="2.6" width="2.6" x="97.5" y="49.0"><title>2020-06-23 471.76300000000043 kCal</title></rect><rect fill="#4be1ff" height="2.6" width="2.6" x="97.5" y="52.5"><title>2020-06-24 306.5849999999997 kCal</title></rect><rect fill="#4aeaff" height="2.6" width="2.6" x="97.5" y="56.0"><title>2020-06-25 482.9779999999996 kCal</title></rect><rect fill="#4cdcff" height="2.6" width="2.6" x="97.5" y="59.5"><title>2020-06-26 212.6179999999999 kCal</title></rect><rect fill="#4ae9ff" height="2.6" width="2.6" x="97.5" y="63.0"><title>2020-06-27 466.3199999999994 kCal</title></rect><rect fill="#4be3ff" height="2.6" width="2.6" x="97.5" y="66.5"><title>2020-06-28 353.3020000000002 kCal</title></rect><rect fill="#4ae9ff" height="2.6" width="2.6" x="101.0" y="45.5"><title>2020-06-29 474.4219999999999 kCal</title></rect><rect fill="#49efff" height="2.6" width="2.6" x="101.0" y="49.0"><title>2020-06-30 576.115 kCal</title></rect><rect fill="#4be2ff" height="2.6" width="2.6" x="101.0" y="52.5"><title>2020-07-01 329.386 kCal</title></rect><rect fill="#49eeff" height="2.6" width="2.6" x="101.0" y="56.0"><title>2020-07-02 572.2969999999998 kCal</title></rect><rect fill="#4ae9ff" height="2.6" width="2.6" x="101.0" y="59.5"><title>2020-07-03 456.32899999999984 kCal</title></rect><rect fill="red" height="2.6" width="2.6" x="101.0" y="63.0"><title>2020-07-04 1203.5850000000003 kCal</title></rect><rect fill="#4ae5ff" height="2.6" width="2.6" x="101.0" y="66.5"><title>2020-07-05 381.26899999999966 kCal</title></rect><rect fill="#4ae8ff" height="2.6" width="2.6" x="104.5" y="45.5"><title>2020-07-06 448.99899999999957 kCal</title></rect><rect fill="#4cddff" height="2.6" width="2.6" x="104.5" y="49.0"><title>2020-07-07 216.13300000000012 kCal</title></rect><rect fill="#fff200" height="2.6" width="2.6" x="104.5" y="52.5"><title>2020-07-08 586.289 kCal</title></rect><rect fill="#4ae9ff" height="2.6" width="2.6" x="104.5" y="56.0"><title>2020-07-09 456.31799999999976 kCal</title></rect><rect fill="#49efff" height="2.6" width="2.6" x="104.5" y="59.5"><title>2020-07-10 576.0429999999998 kCal</title></rect><rect fill="#fff100" height="2.6" width="2.6" x="104.5" y="63.0"><title>2020-07-11 613.8450000000005 kCal</title></rect><rect fill="#4cd9ff" height="2.6" width="2.6" x="104.5" y="66.5"><title>2020-07-12 147.86699999999996 kCal</title></rect><rect fill="#ffef00" height="2.6" width="2.6" x="108.0" y="45.5"><title>2020-07-13 735.6799999999994 kCal</title></rect><rect fill="#4ae6ff" height="2.6" width="2.6" x="108.0" y="49.0"><title>2020-07-14 409.7450000000002 kCal</title></rect><rect fill="#fff100" height="2.6" width="2.6" x="108.0" y="52.5"><title>2020-07-15 626.0690000000001 kCal</title></rect><rect fill="#4be3ff" height="2.6" width="2.6" x="108.0" y="56.0"><title>2020-07-16 352.11500000000035 kCal</title></rect><rect fill="#fff100" height="2.6" width="2.6" x="108.0" y="59.5"><title>2020-07-17 637.7949999999989 kCal</title></rect><rect fill="#fff200" height="2.6" width="2.6" x="108.0" y="63.0"><title>2020-07-18 599.0629999999979 kCal</title></rect><rect fill="#4bddff" height="2.6" width="2.6" x="108.0" y="66.5"><title>2020-07-19 230.89900000000006 kCal</title></rect><rect fill="#4be4ff" height="2.6" width="2.6" x="111.5" y="45.5"><title>2020-07-20 371.48799999999966 kCal</title></rect><rect fill="#ffef00" height="2.6" width="2.6" x="111.5" y="49.0"><title>2020-07-21 715.6919999999996 kCal</title></rect><rect fill="#4ae9ff" height="2.6" width="2.6" x="111.5" y="52.5"><title>2020-07-22 455.55800000000056 kCal</title></rect><rect fill="#4ae7ff" height="2.6" width="2.6" x="111.5" y="56.0"><title>2020-07-23 432.44999999999993 kCal</title></rect><rect fill="#4aeaff" height="2.6" width="2.6" x="111.5" y="59.5"><title>2020-07-24 486.4259999999999 kCal</title></rect><rect fill="#49eeff" height="2.6" width="2.6" x="111.5" y="63.0"><title>2020-07-25 568.6369999999993 kCal</title></rect><rect fill="#4be3ff" height="2.6" width="2.6" x="111.5" y="66.5"><title>2020-07-26 352.8330000000001 kCal</title></rect><rect fill="#4cdaff" height="2.6" width="2.6" x="115.0" y="45.5"><title>2020-07-27 160.51000000000008 kCal</title></rect><rect fill="#4ae7ff" height="2.6" width="2.6" x="115.0" y="49.0"><title>2020-07-28 417.47999999999985 kCal</title></rect><rect fill="#4aeaff" height="2.6" width="2.6" x="115.0" y="52.5"><title>2020-07-29 490.26700000000017 kCal</title></rect><rect fill="#4ae8ff" height="2.6" width="2.6" x="115.0" y="56.0"><title>2020-07-30 443.7169999999995 kCal</title></rect><rect fill="#fff100" height="2.6" width="2.6" x="115.0" y="59.5"><title>2020-07-31 628.1629999999996 kCal</title></rect><rect fill="#49edff" height="2.6" width="2.6" x="115.0" y="63.0"><title>2020-08-01 539.1090000000002 kCal</title></rect><rect fill="#49efff" height="2.6" width="2.6" x="115.0" y="66.5"><title>2020-08-02 575.4389999999997 kCal</title></rect><rect fill="#4ae5ff" height="2.6" width="2.6" x="118.5" y="45.5"><title>2020-08-03 382.4849999999993 kCal</title></rect><rect fill="#4be3ff" height="2.6" width="2.6" x="118.5" y="49.0"><title>2020-08-04 343.66999999999945 kCal</title></rect><rect fill="#4ae9ff" height="2.6" width="2.6" x="118.5" y="52.5"><title>2020-08-05 455.0469999999988 kCal</title></rect><rect fill="#49efff" height="2.6" width="2.6" x="118.5" y="56.0"><title>2020-08-06 576.5929999999993 kCal</title></rect><rect fill="#4ae9ff" height="2.6" width="2.6" x="118.5" y="59.5"><title>2020-08-07 470.45599999999826 kCal</title></rect><rect fill="#fff000" height="2.6" width="2.6" x="118.5" y="63.0"><title>2020-08-08 696.7399999999994 kCal</title></rect><rect fill="#4be2ff" height="2.6" width="2.6" x="118.5" y="66.5"><title>2020-08-09 327.12299999999925 kCal</title></rect><rect fill="#49ecff" height="2.6" width="2.6" x="122.0" y="45.5"><title>2020-08-10 528.6469999999982 kCal</title></rect><rect fill="#49ecff" height="2.6" width="2.6" x="122.0" y="49.0"><title>2020-08-11 530.6699999999989 kCal</title></rect><rect fill="#49eeff" height="2.6" width="2.6" x="122.0" y="52.5"><title>2020-08-12 569.5059999999978 kCal</title></rect><rect fill="#4be3ff" height="2.6" width="2.6" x="122.0" y="56.0"><title>2020-08-13 339.82499999999925 kCal</title></rect><rect fill="#49efff" height="2.6" width="2.6" x="122.0" y="59.5"><title>2020-08-14 575.0619999999975 kCal</title></rect><rect fill="#4aeaff" height="2.6" width="2.6" x="122.0" y="63.0"><title>2020-08-15 487.9029999999985 kCal</title></rect><rect fill="#fff200" height="2.6" width="2.6" x="122.0" y="66.5"><title>2020-08-16 599.59 kCal</title></rect><rect fill="#4ae5ff" height="2.6" width="2.6" x="125.5" y="45.5"><title>2020-08-17 383.4429999999991 kCal</title></rect><rect fill="#4ae7ff" height="2.6" width="2.6" x="125.5" y="49.0"><title>2020-08-18 426.2839999999988 kCal</title></rect><rect fill="#4ae6ff" height="2.6" width="2.6" x="125.5" y="52.5"><title>2020-08-19 406.87599999999867 kCal</title></rect><rect fill="#4ae5ff" height="2.6" width="2.6" x="125.5" y="56.0"><title>2020-08-20 379.86799999999903 kCal</title></rect><rect fill="red" height="2.6" width="2.6" x="125.5" y="59.5"><title>2020-08-21 816.4739999999991 kCal</title></rect><rect fill="#4be3ff" height="2.6" width="2.6" x="125.5" y="63.0"><title>2020-08-22 337.4749999999992 kCal</title></rect><rect fill="#49edff" height="2.6" width="2.6" x="125.5" y="66.5"><title>2020-08-23 550.826999999999 kCal</title></rect><rect fill="#fff200" height="2.6" width="2.6" x="129.0" y="45.5"><title>2020-08-24 588.7649999999993 kCal</title></rect><rect fill="#49ecff" height="2.6" width="2.6" x="129.0" y="49.0"><title>2020-08-25 533.0759999999985 kCal</title></rect><rect fill="#4cd6ff" height="2.6" width="2.6" x="129.0" y="52.5"><title>2020-08-26 84.822 kCal</title></rect><rect fill="#4aebff" height="2.6" width="2.6" x="129.0" y="56.0"><title>2020-08-27 503.3519999999986 kCal</title></rect><rect fill="#4be4ff" height="2.6" width="2.6" x="129.0" y="59.5"><title>2020-08-28 360.05299999999914 kCal</title></rect><rect fill="red" height="2.6" width="2.6" x="129.0" y="63.0"><title>2020-08-29 939.8879999999996 kCal</title></rect><rect fill="red" height="2.6" width="2.6" x="129.0" y="66.5"><title>2020-08-30 1308.2160000000029 kCal</title></rect><rect fill="#4be3ff" height="2.6" width="2.6" x="132.5" y="45.5"><title>2020-08-31 338.71599999999916 kCal</title></rect><rect fill="#fff000" height="2.6" width="2.6" x="132.5" y="49.0"><title>2020-09-01 675.7199999999985 kCal</title></rect><rect fill="#4be0ff" height="2.6" width="2.6" x="132.5" y="52.5"><title>2020-09-02 282.5759999999997 kCal</title></rect><rect fill="#4aeaff" height="2.6" width="2.6" x="132.5" y="56.0"><title>2020-09-03 482.9739999999992 kCal</title></rect><rect fill="red" height="2.6" width="2.6" x="132.5" y="59.5"><title>2020-09-04 911.5009999999991 kCal</title></rect><rect fill="#fff000" height="2.6" width="2.6" x="132.5" y="63.0"><title>2020-09-05 655.4209999999995 kCal</title></rect><rect fill="#4aecff" height="2.6" width="2.6" x="132.5" y="66.5"><title>2020-09-06 517.7379999999997 kCal</title></rect><rect fill="#4ae5ff" height="2.6" width="2.6" x="136.0" y="45.5"><title>2020-09-07 391.9119999999986 kCal</title></rect><rect fill="#4cd9ff" height="2.6" width="2.6" x="136.0" y="49.0"><title>2020-09-08 150.80999999999995 kCal</title></rect><rect fill="#4ae6ff" height="2.6" width="2.6" x="136.0" y="52.5"><title>2020-09-09 408.44999999999914 kCal</title></rect><rect fill="#4ae5ff" height="2.6" width="2.6" x="136.0" y="56.0"><title>2020-09-10 394.03999999999877 kCal</title></rect><rect fill="#ffef00" height="2.6" width="2.6" x="136.0" y="59.5"><title>2020-09-11 711.1129999999988 kCal</title></rect><rect fill="#fff000" height="2.6" width="2.6" x="136.0" y="63.0"><title>2020-09-12 655.4160000000013 kCal</title></rect><rect fill="#4cddff" height="2.6" width="2.6" x="136.0" y="66.5"><title>2020-09-13 216.161 kCal</title></rect><rect fill="#4ae7ff" height="2.6" width="2.6" x="139.5" y="45.5"><title>2020-09-14 433.4539999999983 kCal</title></rect><rect fill="#4ae7ff" height="2.6" width="2.6" x="139.5" y="49.0"><title>2020-09-15 417.7409999999997 kCal</title></rect><rect fill="red" height="2.6" width="2.6" x="139.5" y="52.5"><title>2020-09-16 794.6839999999994 kCal</title></rect><rect fill="#ffee00" height="2.6" width="2.6" x="139.5" y="56.0"><title>2020-09-17 754.1949999999995 kCal</title></rect><rect fill="red" height="2.6" width="2.6" x="139.5" y="59.5"><title>2020-09-18 1076.077000000001 kCal</title></rect><rect fill="#4ae5ff" height="2.6" width="2.6" x="139.5" y="63.0"><title>2020-09-19 387.4949999999986 kCal</title></rect><rect fill="#49eeff" height="2.6" width="2.6" x="139.5" y="66.5"><title>2020-09-20 567.1599999999979 kCal</title></rect><rect fill="#49edff" height="2.6" width="2.6" x="143.0" y="45.5"><title>2020-09-21 551.7349999999991 kCal</title></rect><rect fill="#ffef00" height="2.6" width="2.6" x="143.0" y="49.0"><title>2020-09-22 743.2309999999995 kCal</title></rect><rect fill="#4be0ff" height="2.6" width="2.6" x="143.0" y="52.5"><title>2020-09-23 295.41999999999985 kCal</title></rect><rect fill="#4ae9ff" height="2.6" width="2.6" x="143.0" y="56.0"><title>2020-09-24 470.43899999999877 kCal</title></rect><rect fill="#49ecff" height="2.6" width="2.6" x="143.0" y="59.5"><title>2020-09-25 528.2359999999989 kCal</title></rect><rect fill="#fff100" height="2.6" width="2.6" x="143.0" y="63.0"><title>2020-09-26 610.1160000000004 kCal</title></rect><rect fill="#4ae6ff" height="2.6" width="2.6" x="143.0" y="66.5"><title>2020-09-27 414.1899999999985 kCal</title></rect><rect fill="red" height="2.6" width="2.6" x="146.5" y="45.5"><title>2020-09-28 817.4499999999994 kCal</title></rect><rect fill="#4be3ff" height="2.6" width="2.6" x="146.5" y="49.0"><title>2020-09-29 347.0149999999999 kCal</title></rect><rect fill="red" height="2.6" width="2.6" x="146.5" y="52.5"><title>2020-09-30 983.548999999998 kCal</title></rect><rect fill="#fff100" height="2.6" width="2.6" x="146.5" y="56.0"><title>2020-10-01 643.7979999999999 kCal</title></rect><rect fill="#4be2ff" height="2.6" width="2.6" x="146.5" y="59.5"><title>2020-10-02 333.64899999999875 kCal</title></rect><rect fill="#ffef00" height="2.6" width="2.6" x="146.5" y="63.0"><title>2020-10-03 710.2509999999983 kCal</title></rect><rect fill="#4aeaff" height="2.6" width="2.6" x="146.5" y="66.5"><title>2020-10-04 479.85899999999947 kCal</title></rect><rect fill="#4be2ff" height="2.6" width="2.6" x="150.0" y="45.5"><title>2020-10-05 323.40999999999923 kCal</title></rect><rect fill="#fff100" height="2.6" width="2.6" x="150.0" y="49.0"><title>2020-10-06 636.5579999999989 kCal</title></rect><rect fill="#ffef00" height="2.6" width="2.6" x="150.0" y="52.5"><title>2020-10-07 704.357999999999 kCal</title></rect><rect fill="#fff000" height="2.6" width="2.6" x="150.0" y="56.0"><title>2020-10-08 660.2169999999991 kCal</title></rect><rect fill="red" height="2.6" width="2.6" x="150.0" y="59.5"><title>2020-10-09 802.5359999999997 kCal</title></rect><rect fill="#ffef00" height="2.6" width="2.6" x="150.0" y="63.0"><title>2020-10-10 725.4859999999991 kCal</title></rect><rect fill="#49efff" height="2.6" width="2.6" x="150.0" y="66.5"><title>2020-10-11 581.5359999999985 kCal</title></rect><rect fill="#fff000" height="2.6" width="2.6" x="153.5" y="45.5"><title>2020-10-12 693.2099999999996 kCal</title></rect><rect fill="#fff100" height="2.6" width="2.6" x="153.5" y="49.0"><title>2020-10-13 624.8290000000001 kCal</title></rect><rect fill="red" height="2.6" width="2.6" x="153.5" y="52.5"><title>2020-10-14 799.3590000000003 kCal</title></rect><rect fill="red" height="2.6" width="2.6" x="153.5" y="56.0"><title>2020-10-15 799.3649999999986 kCal</title></rect><rect fill="#4ae8ff" height="2.6" width="2.6" x="153.5" y="59.5"><title>2020-10-16 438.1379999999995 kCal</title></rect><rect fill="#4ae9ff" height="2.6" width="2.6" x="153.5" y="63.0"><title>2020-10-17 472.9419999999994 kCal</title></rect><rect fill="#fff000" height="2.6" width="2.6" x="153.5" y="66.5"><title>2020-10-18 675.7130000000013 kCal</title></rect><rect fill="#fff000" height="2.6" width="2.6" x="157.0" y="45.5"><title>2020-10-19 661.3270000000006 kCal</title></rect><rect fill="#fff100" height="2.6" width="2.6" x="157.0" y="49.0"><title>2020-10-20 623.8969999999985 kCal</title></rect><rect fill="#ffee00" height="2.6" width="2.6" x="157.0" y="52.5"><title>2020-10-21 754.1529999999995 kCal</title></rect><rect fill="#ffef00" height="2.6" width="2.6" x="157.0" y="56.0"><title>2020-10-22 709.4110000000002 kCal</title></rect><rect fill="#4aeaff" height="2.6" width="2.6" x="157.0" y="59.5"><title>2020-10-23 488.78299999999933 kCal</title></rect><rect fill="red" height="2.6" width="2.6" x="157.0" y="63.0"><title>2020-10-24 875.4859999999992 kCal</title></rect><rect fill="#4ae7ff" height="2.6" width="2.6" x="157.0" y="66.5"><title>2020-10-25 419.72599999999943 kCal</title></rect><rect fill="#fff000" height="2.6" width="2.6" x="160.5" y="45.5"><title>2020-10-26 680.8789999999988 kCal</title></rect><rect fill="red" height="2.6" width="2.6" x="160.5" y="49.0"><title>2020-10-27 842.0800000000007 kCal</title></rect><rect fill="#ffee00" height="2.6" width="2.6" x="160.5" y="52.5"><title>2020-10-28 781.8449999999985 kCal</title></rect><rect fill="#ffee00" height="2.6" width="2.6" x="160.5" y="56.0"><title>2020-10-29 773.7339999999983 kCal</title></rect><rect fill="#4aeaff" height="2.6" width="2.6" x="160.5" y="59.5"><title>2020-10-30 487.94699999999904 kCal</title></rect><rect fill="#4ae8ff" height="2.6" width="2.6" x="160.5" y="63.0"><title>2020-10-31 451.3809999999996 kCal</title></rect><rect fill="#4bdeff" height="2.6" width="2.6" x="160.5" y="66.5"><title>2020-11-01 242.74399999999997 kCal</title></rect><rect fill="#ffef00" height="2.6" width="2.6" x="164.0" y="45.5"><title>2020-11-02 736.3439999999994 kCal</title></rect><rect fill="#fff100" height="2.6" width="2.6" x="164.0" y="49.0"><title>2020-11-03 645.3409999999982 kCal</title></rect><rect fill="#fff000" height="2.6" width="2.6" x="164.0" y="52.5"><title>2020-11-04 658.977999999999 kCal</title></rect><rect fill="#fff000" height="2.6" width="2.6" x="164.0" y="56.0"><title>2020-11-05 698.3809999999995 kCal</title></rect><rect fill="#4ae9ff" height="2.6" width="2.6" x="164.0" y="59.5"><title>2020-11-06 473.0079999999995 kCal</title></rect><rect fill="red" height="2.6" width="2.6" x="164.0" y="63.0"><title>2020-11-07 1058.782999999999 kCal</title></rect><rect fill="#49eeff" height="2.6" width="2.6" x="164.0" y="66.5"><title>2020-11-08 558.7570000000004 kCal</title></rect><rect fill="#4ae7ff" height="2.6" width="2.6" x="167.5" y="45.5"><title>2020-11-09 434.084 kCal</title></rect><rect fill="#4aebff" height="2.6" width="2.6" x="167.5" y="49.0"><title>2020-11-10 502.6499999999999 kCal</title></rect><rect fill="#4aecff" height="2.6" width="2.6" x="167.5" y="52.5"><title>2020-11-11 516.0029999999997 kCal</title></rect><rect fill="#49eeff" height="2.6" width="2.6" x="167.5" y="56.0"><title>2020-11-12 566.342 kCal</title></rect><rect fill="red" height="2.6" width="2.6" x="167.5" y="59.5"><title>2020-11-13 845.4889999999997 kCal</title></rect><rect fill="#4ae7ff" height="2.6" width="2.6" x="167.5" y="63.0"><title>2020-11-14 427.52500000000003 kCal</title></rect><rect fill="red" height="2.6" width="2.6" x="167.5" y="66.5"><title>2020-11-15 1228.3819999999996 kCal</title></rect><rect fill="#4ae9ff" height="2.6" width="2.6" x="171.0" y="45.5"><title>2020-11-16 455.81100000000015 kCal</title></rect><rect fill="#4ae9ff" height="2.6" width="2.6" x="171.0" y="49.0"><title>2020-11-17 470.0909999999997 kCal</title></rect><rect fill="#ffee00" height="2.6" width="2.6" x="171.0" y="52.5"><title>2020-11-18 761.4810000000006 kCal</title></rect><rect fill="#4ae8ff" height="2.6" width="2.6" x="171.0" y="56.0"><title>2020-11-19 437.0199999999998 kCal</title></rect><rect fill="#4ae6ff" height="2.6" width="2.6" x="171.0" y="59.5"><title>2020-11-20 398.9889999999999 kCal</title></rect><rect fill="red" height="2.6" width="2.6" x="171.0" y="63.0"><title>2020-11-21 864.1129999999998 kCal</title></rect><rect fill="#4be3ff" height="2.6" width="2.6" x="171.0" y="66.5"><title>2020-11-22 338.01499999999936 kCal</title></rect><rect fill="#49edff" height="2.6" width="2.6" x="174.5" y="45.5"><title>2020-11-23 546.2359999999991 kCal</title></rect><rect fill="#49eeff" height="2.6" width="2.6" x="174.5" y="49.0"><title>2020-11-24 556.3399999999982 kCal</title></rect><rect fill="#fff000" height="2.6" width="2.6" x="174.5" y="52.5"><title>2020-11-25 659.0829999999993 kCal</title></rect><rect fill="#4ae5ff" height="2.6" width="2.6" x="174.5" y="56.0"><title>2020-11-26 391.5349999999998 kCal</title></rect><rect fill="#ffee00" height="2.6" width="2.6" x="174.5" y="59.5"><title>2020-11-27 773.455999999999 kCal</title></rect><rect fill="red" height="2.6" width="2.6" x="174.5" y="63.0"><title>2020-11-28 1143.4589999999985 kCal</title></rect><rect fill="#4bdfff" height="2.6" width="2.6" x="174.5" y="66.5"><title>2020-11-29 269.61800000000017 kCal</title></rect><rect fill="#ffee00" height="2.6" width="2.6" x="178.0" y="45.5"><title>2020-11-30 784.6939999999995 kCal</title></rect><rect fill="red" height="2.6" width="2.6" x="178.0" y="49.0"><title>2020-12-01 815.4090000000008 kCal</title></rect><rect fill="red" height="2.6" width="2.6" x="178.0" y="52.5"><title>2020-12-02 1062.253 kCal</title></rect><rect fill="#4be4ff" height="2.6" width="2.6" x="178.0" y="56.0"><title>2020-12-03 355.99499999999927 kCal</title></rect><rect fill="#4be1ff" height="2.6" width="2.6" x="178.0" y="59.5"><title>2020-12-04 303.97099999999955 kCal</title></rect><rect fill="red" height="2.6" width="2.6" x="178.0" y="63.0"><title>2020-12-05 799.2319999999986 kCal</title></rect><rect fill="#4be0ff" height="2.6" width="2.6" x="178.0" y="66.5"><title>2020-12-06 285.8029999999999 kCal</title></rect><rect fill="#fff200" height="2.6" width="2.6" x="181.5" y="45.5"><title>2020-12-07 594.5059999999995 kCal</title></rect><rect fill="#fff200" height="2.6" width="2.6" x="181.5" y="49.0"><title>2020-12-08 603.9609999999994 kCal</title></rect><rect fill="#fff000" height="2.6" width="2.6" x="181.5" y="52.5"><title>2020-12-09 654.2450000000003 kCal</title></rect><rect fill="#4ae6ff" height="2.6" width="2.6" x="181.5" y="56.0"><title>2020-12-10 395.7309999999993 kCal</title></rect><rect fill="#4aeaff" height="2.6" width="2.6" x="181.5" y="59.5"><title>2020-12-11 489.9289999999991 kCal</title></rect><rect fill="#4ae5ff" height="2.6" width="2.6" x="181.5" y="63.0"><title>2020-12-12 394.52199999999874 kCal</title></rect><rect fill="#4ae9ff" height="2.6" width="2.6" x="181.5" y="66.5"><title>2020-12-13 455.40599999999904 kCal</title></rect><rect fill="#4ae9ff" height="2.6" width="2.6" x="185.0" y="45.5"><title>2020-12-14 456.7539999999996 kCal</title></rect><rect fill="#4be0ff" height="2.6" width="2.6" x="185.0" y="49.0"><title>2020-12-15 292.8719999999995 kCal</title></rect><rect fill="red" height="2.6" width="2.6" x="185.0" y="52.5"><title>2020-12-16 991.8180000000006 kCal</title></rect><rect fill="#ffef00" height="2.6" width="2.6" x="185.0" y="56.0"><title>2020-12-17 722.0239999999986 kCal</title></rect><rect fill="#ffef00" height="2.6" width="2.6" x="185.0" y="59.5"><title>2020-12-18 699.8300000000012 kCal</title></rect><rect fill="red" height="2.6" width="2.6" x="185.0" y="63.0"><title>2020-12-19 933.4389999999985 kCal</title></rect><rect fill="red" height="2.6" width="2.6" x="185.0" y="66.5"><title>2020-12-20 792.4169999999986 kCal</title></rect><rect fill="red" height="2.6" width="2.6" x="188.5" y="45.5"><title>2020-12-21 790.4270000000009 kCal</title></rect><rect fill="#4cd7ff" height="2.6" width="2.6" x="188.5" y="49.0"><title>2020-12-22 94.29299999999999 kCal</title></rect><rect fill="#444444" height="2.6" width="2.6" x="188.5" y="52.5"><title>2020-12-23</title></rect><rect fill="#444444" height="2.6" width="2.6" x="188.5" y="56.0"><title>2020-12-24</title></rect><rect fill="#444444" height="2.6" width="2.6" x="188.5" y="59.5"><title>2020-12-25</title></rect><rect fill="#4bddff" height="2.6" width="2.6" x="188.5" y="63.0"><title>2020-12-26 230.41400000000002 kCal</title></rect><rect fill="#444444" height="2.6" width="2.6" x="188.5" y="66.5"><title>2020-12-27</title></rect><rect fill="#444444" height="2.6" width="2.6" x="192.0" y="45.5"><title>2020-12-28</title></rect><rect fill="#444444" height="2.6" width="2.6" x="192.0" y="49.0"><title>2020-12-29</title></rect><rect fill="#444444" height="2.6" width="2.6" x="192.0" y="52.5"><title>2020-12-30</title></rect><rect fill="#444444" height="2.6" width="2.6" x="192.0" y="56.0"><title>2020-12-31</title></rect></svg>