<?xml version="1.0" encoding="utf-8" ?>
<svg baseProfile="full" height="78mm" version="1.1" viewBox="0,0,200,78" width="200mm" xmlns="http://www.w3.org/2000/svg" xmlns:ev="http://www.w3.org/2001/xml-events" xmlns:xlink="http://www.w3.org/1999/xlink"><defs /><rect fill="#222222" height="78" width="200" x="0" y="0" /><text fill="#FFFFFF" style="font-size:12px; font-family:Arial; font-weight:bold;" x="10" y="20">rip-tyang apple_health</text><text dominant-baseline="hanging" fill="#FFFFFF" style="font-size:10.0px; font-family:Arial;" x="10" y="30">2022</text><text dominant-baseline="hanging" fill="#FFFFFF" style="font-size:4.125px; font-family:Arial;" x="175" y="35">240178 kCal</text><text fill="#FFFFFF" style="font-size:2.5px; font-family:Arial" x="10.0" y="44">Jan</text><text fill="#FFFFFF" style="font-size:2.5px; font-family:Arial" x="25.5" y="44">Feb</text><text fill="#FFFFFF" style="font-size:2.5px; font-family:Arial" x="41.0" y="44">Mar</text><text fill="#FFFFFF" style="font-size:2.5px; font-family:Arial" x="56.5" y="44">Apr</text><text fill="#FFFFFF" style="font-size:2.5px; font-family:Arial" x="72.0" y="44">May</text><text fill="#FFFFFF" style="font-size:2.5px; font-family:Arial" x="87.5" y="44">Jun</text><text fill="#FFFFFF" style="font-size:2.5px; font-family:Arial" x="103.0" y="44">Jul</text><text fill="#FFFFFF" style="font-size:2.5px; font-family:Arial" x="118.5" y="44">Aug</text><text fill="#FFFFFF" style="font-size:2.5px; font-family:Arial" x="134.0" y="44">Sep</text><text fill="#FFFFFF" style="font-size:2.5px; font-family:Arial" x="149.5" y="44">Oct</text><text fill="#FFFFFF" style="font-size:2.5px; font-family:Arial" x="165.0" y="44">Nov</text><text fill="#FFFFFF" style="font-size:2.5px; font-family:Arial" x="180.5" y="44">Dec</text><rect fill="#444444" height="2.6" width="2.6" x="10.0" y="45.5"><title>2021-12-27</title></rect><rect fill="#444444" height="2.6" width="2.6" x="10.0" y="49.0"><title>2021-12-28</title></rect><rect fill="#444444" height="2.6" width="2.6" x="10.0" y="52.5"><title>2021-12-29</title></rect><rect fill="#444444" height="2.6" width="2.6" x="10.0" y="56.0"><title>2021-12-30</title></rect><rect fill="#444444" height="2.6" width="2.6" x="10.0" y="59.5"><title>2021-12-31</title></rect><rect fill="#ffe200" height="2.6" width="2.6" x="10.0" y="63.0"><title>2022-01-01 589 kCal</title></rect><rect fill="#ffdb00" height="2.6" width="2.6" x="10.0" y="66.5"><title>2022-01-02 716 kCal</title></rect><rect fill="#4dd3ff" height="2.6" width="2.6" x="13.5" y="45.5"><title>2022-01-03 29 kCal</title></rect><rect fill="#46fffa" height="2.6" width="2.6" x="13.5" y="49.0"><title>2022-01-04 447 kCal</title></rect><rect fill="#46fff6" height="2.6" width="2.6" x="13.5" y="52.5"><title>2022-01-05 477 kCal</title></rect><rect fill="#48f9ff" height="2.6" width="2.6" x="13.5" y="56.0"><title>2022-01-06 354 kCal</title></rect><rect fill="#46fff4" height="2.6" width="2.6" x="13.5" y="59.5"><title>2022-01-07 496 kCal</title></rect><rect fill="#ffe300" height="2.6" width="2.6" x="13.5" y="63.0"><title>2022-01-08 566 kCal</title></rect><rect fill="#ffdf00" height="2.6" width="2.6" x="13.5" y="66.5"><title>2022-01-09 632 kCal</title></rect><rect fill="#4ae5ff" height="2.6" width="2.6" x="17.0" y="45.5"><title>2022-01-10 184 kCal</title></rect><rect fill="#ffe300" height="2.6" width="2.6" x="17.0" y="49.0"><title>2022-01-11 556 kCal</title></rect><rect fill="#47fffe" height="2.6" width="2.6" x="17.0" y="52.5"><title>2022-01-12 410 kCal</title></rect><rect fill="#48faff" height="2.6" width="2.6" x="17.0" y="56.0"><title>2022-01-13 360 kCal</title></rect><rect fill="#47fdff" height="2.6" width="2.6" x="17.0" y="59.5"><title>2022-01-14 389 kCal</title></rect><rect fill="#ffd900" height="2.6" width="2.6" x="17.0" y="63.0"><title>2022-01-15 762 kCal</title></rect><rect fill="#ffe300" height="2.6" width="2.6" x="17.0" y="66.5"><title>2022-01-16 562 kCal</title></rect><rect fill="#46fff5" height="2.6" width="2.6" x="20.5" y="45.5"><title>2022-01-17 484 kCal</title></rect><rect fill="#47ffff" height="2.6" width="2.6" x="20.5" y="49.0"><title>2022-01-18 405 kCal</title></rect><rect fill="#48faff" height="2.6" width="2.6" x="20.5" y="52.5"><title>2022-01-19 366 kCal</title></rect><rect fill="#4bddff" height="2.6" width="2.6" x="20.5" y="56.0"><title>2022-01-20 120 kCal</title></rect><rect fill="#48f7ff" height="2.6" width="2.6" x="20.5" y="59.5"><title>2022-01-21 336 kCal</title></rect><rect fill="#ffdd00" height="2.6" width="2.6" x="20.5" y="63.0"><title>2022-01-22 679 kCal</title></rect><rect fill="#ffe400" height="2.6" width="2.6" x="20.5" y="66.5"><title>2022-01-23 546 kCal</title></rect><rect fill="#45fff1" height="2.6" width="2.6" x="24.0" y="45.5"><title>2022-01-24 517 kCal</title></rect><rect fill="#48f4ff" height="2.6" width="2.6" x="24.0" y="49.0"><title>2022-01-25 313 kCal</title></rect><rect fill="#48f7ff" height="2.6" width="2.6" x="24.0" y="52.5"><title>2022-01-26 336 kCal</title></rect><rect fill="#49f0ff" height="2.6" width="2.6" x="24.0" y="56.0"><title>2022-01-27 284 kCal</title></rect><rect fill="#48fbff" height="2.6" width="2.6" x="24.0" y="59.5"><title>2022-01-28 373 kCal</title></rect><rect fill="#ffe100" height="2.6" width="2.6" x="24.0" y="63.0"><title>2022-01-29 607 kCal</title></rect><rect fill="#46fff7" height="2.6" width="2.6" x="24.0" y="66.5"><title>2022-01-30 472 kCal</title></rect><rect fill="#ffe500" height="2.6" width="2.6" x="27.5" y="45.5"><title>2022-01-31 532 kCal</title></rect><rect fill="#47feff" height="2.6" width="2.6" x="27.5" y="49.0"><title>2022-02-01 396 kCal</title></rect><rect fill="#47fdff" height="2.6" width="2.6" x="27.5" y="52.5"><title>2022-02-02 387 kCal</title></rect><rect fill="#46fffa" height="2.6" width="2.6" x="27.5" y="56.0"><title>2022-02-03 442 kCal</title></rect><rect fill="#ffde00" height="2.6" width="2.6" x="27.5" y="59.5"><title>2022-02-04 665 kCal</title></rect><rect fill="#444444" height="2.6" width="2.6" x="27.5" y="63.0"><title>2022-02-05</title></rect><rect fill="#48fbff" height="2.6" width="2.6" x="27.5" y="66.5"><title>2022-02-06 371 kCal</title></rect><rect fill="#4bdfff" height="2.6" width="2.6" x="31.0" y="45.5"><title>2022-02-07 135 kCal</title></rect><rect fill="#ffe500" height="2.6" width="2.6" x="31.0" y="49.0"><title>2022-02-08 521 kCal</title></rect><rect fill="#48f6ff" height="2.6" width="2.6" x="31.0" y="52.5"><title>2022-02-09 334 kCal</title></rect><rect fill="#4cd8ff" height="2.6" width="2.6" x="31.0" y="56.0"><title>2022-02-10 77 kCal</title></rect><rect fill="#47ffff" height="2.6" width="2.6" x="31.0" y="59.5"><title>2022-02-11 406 kCal</title></rect><rect fill="#46fff4" height="2.6" width="2.6" x="31.0" y="63.0"><title>2022-02-12 491 kCal</title></rect><rect fill="#ffdf00" height="2.6" width="2.6" x="31.0" y="66.5"><title>2022-02-13 647 kCal</title></rect><rect fill="#47fffe" height="2.6" width="2.6" x="34.5" y="45.5"><title>2022-02-14 411 kCal</title></rect><rect fill="#4dd5ff" height="2.6" width="2.6" x="34.5" y="49.0"><title>2022-02-15 54 kCal</title></rect><rect fill="#47ffff" height="2.6" width="2.6" x="34.5" y="52.5"><title>2022-02-16 401 kCal</title></rect><rect fill="red" height="2.6" width="2.6" x="34.5" y="56.0"><title>2022-02-17 960 kCal</title></rect><rect fill="#ffe200" height="2.6" width="2.6" x="34.5" y="59.5"><title>2022-02-18 585 kCal</title></rect><rect fill="red" height="2.6" width="2.6" x="34.5" y="63.0"><title>2022-02-19 1526 kCal</title></rect><rect fill="red" height="2.6" width="2.6" x="34.5" y="66.5"><title>2022-02-20 1568 kCal</title></rect><rect fill="red" height="2.6" width="2.6" x="38.0" y="45.5"><title>2022-02-21 1157 kCal</title></rect><rect fill="#46fff4" height="2.6" width="2.6" x="38.0" y="49.0"><title>2022-02-22 495 kCal</title></rect><rect fill="#49f3ff" height="2.6" width="2.6" x="38.0" y="52.5"><title>2022-02-23 306 kCal</title></rect><rect fill="#ffe200" height="2.6" width="2.6" x="38.0" y="56.0"><title>2022-02-24 574 kCal</title></rect><rect fill="red" height="2.6" width="2.6" x="38.0" y="59.5"><title>2022-02-25 981 kCal</title></rect><rect fill="red" height="2.6" width="2.6" x="38.0" y="63.0"><title>2022-02-26 2869 kCal</title></rect><rect fill="red" height="2.6" width="2.6" x="38.0" y="66.5"><title>2022-02-27 2616 kCal</title></rect><rect fill="red" height="2.6" width="2.6" x="41.5" y="45.5"><title>2022-02-28 4926 kCal</title></rect><rect fill="red" height="2.6" width="2.6" x="41.5" y="49.0"><title>2022-03-01 4549 kCal</title></rect><rect fill="#45fff1" height="2.6" width="2.6" x="41.5" y="52.5"><title>2022-03-02 519 kCal</title></rect><rect fill="#48faff" height="2.6" width="2.6" x="41.5" y="56.0"><title>2022-03-03 362 kCal</title></rect><rect fill="#46fff6" height="2.6" width="2.6" x="41.5" y="59.5"><title>2022-03-04 475 kCal</title></rect><rect fill="#ffde00" height="2.6" width="2.6" x="41.5" y="63.0"><title>2022-03-05 664 kCal</title></rect><rect fill="#47feff" height="2.6" width="2.6" x="41.5" y="66.5"><title>2022-03-06 394 kCal</title></rect><rect fill="#49f1ff" height="2.6" width="2.6" x="45.0" y="45.5"><title>2022-03-07 288 kCal</title></rect><rect fill="#4bdeff" height="2.6" width="2.6" x="45.0" y="49.0"><title>2022-03-08 126 kCal</title></rect><rect fill="#49f3ff" height="2.6" width="2.6" x="45.0" y="52.5"><title>2022-03-09 302 kCal</title></rect><rect fill="#4ae9ff" height="2.6" width="2.6" x="45.0" y="56.0"><title>2022-03-10 225 kCal</title></rect><rect fill="#ffe200" height="2.6" width="2.6" x="45.0" y="59.5"><title>2022-03-11 589 kCal</title></rect><rect fill="red" height="2.6" width="2.6" x="45.0" y="63.0"><title>2022-03-12 1913 kCal</title></rect><rect fill="#ffdb00" height="2.6" width="2.6" x="45.0" y="66.5"><title>2022-03-13 712 kCal</title></rect><rect fill="red" height="2.6" width="2.6" x="48.5" y="45.5"><title>2022-03-14 2054 kCal</title></rect><rect fill="#ffe200" height="2.6" width="2.6" x="48.5" y="49.0"><title>2022-03-15 580 kCal</title></rect><rect fill="#46fffa" height="2.6" width="2.6" x="48.5" y="52.5"><title>2022-03-16 449 kCal</title></rect><rect fill="red" height="2.6" width="2.6" x="48.5" y="56.0"><title>2022-03-17 1108 kCal</title></rect><rect fill="red" height="2.6" width="2.6" x="48.5" y="59.5"><title>2022-03-18 1393 kCal</title></rect><rect fill="#45fff2" height="2.6" width="2.6" x="48.5" y="63.0"><title>2022-03-19 508 kCal</title></rect><rect fill="#48f7ff" height="2.6" width="2.6" x="48.5" y="66.5"><title>2022-03-20 340 kCal</title></rect><rect fill="#48f6ff" height="2.6" width="2.6" x="52.0" y="45.5"><title>2022-03-21 327 kCal</title></rect><rect fill="#4ae6ff" height="2.6" width="2.6" x="52.0" y="49.0"><title>2022-03-22 193 kCal</title></rect><rect fill="#48faff" height="2.6" width="2.6" x="52.0" y="52.5"><title>2022-03-23 360 kCal</title></rect><rect fill="#4cdaff" height="2.6" width="2.6" x="52.0" y="56.0"><title>2022-03-24 96 kCal</title></rect><rect fill="#48faff" height="2.6" width="2.6" x="52.0" y="59.5"><title>2022-03-25 361 kCal</title></rect><rect fill="#4ae7ff" height="2.6" width="2.6" x="52.0" y="63.0"><title>2022-03-26 204 kCal</title></rect><rect fill="#47fffd" height="2.6" width="2.6" x="52.0" y="66.5"><title>2022-03-27 421 kCal</title></rect><rect fill="#46fff7" height="2.6" width="2.6" x="55.5" y="45.5"><title>2022-03-28 473 kCal</title></rect><rect fill="#48faff" height="2.6" width="2.6" x="55.5" y="49.0"><title>2022-03-29 366 kCal</title></rect><rect fill="#4cd8ff" height="2.6" width="2.6" x="55.5" y="52.5"><title>2022-03-30 75 kCal</title></rect><rect fill="#ffe200" height="2.6" width="2.6" x="55.5" y="56.0"><title>2022-03-31 582 kCal</title></rect><rect fill="#47fcff" height="2.6" width="2.6" x="55.5" y="59.5"><title>2022-04-01 380 kCal</title></rect><rect fill="#ffd700" height="2.6" width="2.6" x="55.5" y="63.0"><title>2022-04-02 800 kCal</title></rect><rect fill="red" height="2.6" width="2.6" x="55.5" y="66.5"><title>2022-04-03 1251 kCal</title></rect><rect fill="#4bdfff" height="2.6" width="2.6" x="59.0" y="45.5"><title>2022-04-04 140 kCal</title></rect><rect fill="#46fffa" height="2.6" width="2.6" x="59.0" y="49.0"><title>2022-04-05 446 kCal</title></rect><rect fill="#4ae5ff" height="2.6" width="2.6" x="59.0" y="52.5"><title>2022-04-06 189 kCal</title></rect><rect fill="#48f9ff" height="2.6" width="2.6" x="59.0" y="56.0"><title>2022-04-07 352 kCal</title></rect><rect fill="#47fffc" height="2.6" width="2.6" x="59.0" y="59.5"><title>2022-04-08 426 kCal</title></rect><rect fill="#4dd3ff" height="2.6" width="2.6" x="59.0" y="63.0"><title>2022-04-09 31 kCal</title></rect><rect fill="#ffd800" height="2.6" width="2.6" x="59.0" y="66.5"><title>2022-04-10 777 kCal</title></rect><rect fill="#46fff5" height="2.6" width="2.6" x="62.5" y="45.5"><title>2022-04-11 487 kCal</title></rect><rect fill="#47fffc" height="2.6" width="2.6" x="62.5" y="49.0"><title>2022-04-12 431 kCal</title></rect><rect fill="red" height="2.6" width="2.6" x="62.5" y="52.5"><title>2022-04-13 984 kCal</title></rect><rect fill="#48f4ff" height="2.6" width="2.6" x="62.5" y="56.0"><title>2022-04-14 317 kCal</title></rect><rect fill="#47fffd" height="2.6" width="2.6" x="62.5" y="59.5"><title>2022-04-15 419 kCal</title></rect><rect fill="#45fff3" height="2.6" width="2.6" x="62.5" y="63.0"><title>2022-04-16 505 kCal</title></rect><rect fill="#ffdc00" height="2.6" width="2.6" x="62.5" y="66.5"><title>2022-04-17 704 kCal</title></rect><rect fill="#49edff" height="2.6" width="2.6" x="66.0" y="45.5"><title>2022-04-18 252 kCal</title></rect><rect fill="#49f0ff" height="2.6" width="2.6" x="66.0" y="49.0"><title>2022-04-19 282 kCal</title></rect><rect fill="#47fcff" height="2.6" width="2.6" x="66.0" y="52.5"><title>2022-04-20 382 kCal</title></rect><rect fill="#47ffff" height="2.6" width="2.6" x="66.0" y="56.0"><title>2022-04-21 407 kCal</title></rect><rect fill="#4be2ff" height="2.6" width="2.6" x="66.0" y="59.5"><title>2022-04-22 160 kCal</title></rect><rect fill="red" height="2.6" width="2.6" x="66.0" y="63.0"><title>2022-04-23 915 kCal</title></rect><rect fill="#ffe100" height="2.6" width="2.6" x="66.0" y="66.5"><title>2022-04-24 604 kCal</title></rect><rect fill="#47fcff" height="2.6" width="2.6" x="69.5" y="45.5"><title>2022-04-25 384 kCal</title></rect><rect fill="#4be0ff" height="2.6" width="2.6" x="69.5" y="49.0"><title>2022-04-26 142 kCal</title></rect><rect fill="#46fff8" height="2.6" width="2.6" x="69.5" y="52.5"><title>2022-04-27 459 kCal</title></rect><rect fill="#49f0ff" height="2.6" width="2.6" x="69.5" y="56.0"><title>2022-04-28 283 kCal</title></rect><rect fill="#46fff8" height="2.6" width="2.6" x="69.5" y="59.5"><title>2022-04-29 466 kCal</title></rect><rect fill="red" height="2.6" width="2.6" x="69.5" y="63.0"><title>2022-04-30 1247 kCal</title></rect><rect fill="#48f7ff" height="2.6" width="2.6" x="69.5" y="66.5"><title>2022-05-01 343 kCal</title></rect><rect fill="#47fffe" height="2.6" width="2.6" x="73.0" y="45.5"><title>2022-05-02 416 kCal</title></rect><rect fill="red" height="2.6" width="2.6" x="73.0" y="49.0"><title>2022-05-03 1704 kCal</title></rect><rect fill="#46fffa" height="2.6" width="2.6" x="73.0" y="52.5"><title>2022-05-04 442 kCal</title></rect><rect fill="#47ffff" height="2.6" width="2.6" x="73.0" y="56.0"><title>2022-05-05 403 kCal</title></rect><rect fill="#46fff9" height="2.6" width="2.6" x="73.0" y="59.5"><title>2022-05-06 452 kCal</title></rect><rect fill="#48f8ff" height="2.6" width="2.6" x="73.0" y="63.0"><title>2022-05-07 344 kCal</title></rect><rect fill="#ffe100" height="2.6" width="2.6" x="73.0" y="66.5"><title>2022-05-08 597 kCal</title></rect><rect fill="#ffd600" height="2.6" width="2.6" x="76.5" y="45.5"><title>2022-05-09 810 kCal</title></rect><rect fill="#49f3ff" height="2.6" width="2.6" x="76.5" y="49.0"><title>2022-05-10 308 kCal</title></rect><rect fill="#46fff8" height="2.6" width="2.6" x="76.5" y="52.5"><title>2022-05-11 462 kCal</title></rect><rect fill="#ffde00" height="2.6" width="2.6" x="76.5" y="56.0"><title>2022-05-12 657 kCal</title></rect><rect fill="#49f1ff" height="2.6" width="2.6" x="76.5" y="59.5"><title>2022-05-13 293 kCal</title></rect><rect fill="#46fff4" height="2.6" width="2.6" x="76.5" y="63.0"><title>2022-05-14 497 kCal</title></rect><rect fill="#ffe500" height="2.6" width="2.6" x="76.5" y="66.5"><title>2022-05-15 525 kCal</title></rect><rect fill="#47ffff" height="2.6" width="2.6" x="80.0" y="45.5"><title>2022-05-16 404 kCal</title></rect><rect fill="#4ae8ff" height="2.6" width="2.6" x="80.0" y="49.0"><title>2022-05-17 212 kCal</title></rect><rect fill="#46fff6" height="2.6" width="2.6" x="80.0" y="52.5"><title>2022-05-18 477 kCal</title></rect><rect fill="#4aecff" height="2.6" width="2.6" x="80.0" y="56.0"><title>2022-05-19 244 kCal</title></rect><rect fill="#47feff" height="2.6" width="2.6" x="80.0" y="59.5"><title>2022-05-20 397 kCal</title></rect><rect fill="red" height="2.6" width="2.6" x="80.0" y="63.0"><title>2022-05-21 905 kCal</title></rect><rect fill="#4cdcff" height="2.6" width="2.6" x="80.0" y="66.5"><title>2022-05-22 108 kCal</title></rect><rect fill="#48f8ff" height="2.6" width="2.6" x="83.5" y="45.5"><title>2022-05-23 349 kCal</title></rect><rect fill="#ffe400" height="2.6" width="2.6" x="83.5" y="49.0"><title>2022-05-24 536 kCal</title></rect><rect fill="#47ffff" height="2.6" width="2.6" x="83.5" y="52.5"><title>2022-05-25 403 kCal</title></rect><rect fill="#47fffc" height="2.6" width="2.6" x="83.5" y="56.0"><title>2022-05-26 430 kCal</title></rect><rect fill="#49f0ff" height="2.6" width="2.6" x="83.5" y="59.5"><title>2022-05-27 277 kCal</title></rect><rect fill="#ffe200" height="2.6" width="2.6" x="83.5" y="63.0"><title>2022-05-28 587 kCal</title></rect><rect fill="#47fffe" height="2.6" width="2.6" x="83.5" y="66.5"><title>2022-05-29 416 kCal</title></rect><rect fill="#ffe500" height="2.6" width="2.6" x="87.0" y="45.5"><title>2022-05-30 525 kCal</title></rect><rect fill="#46fff4" height="2.6" width="2.6" x="87.0" y="49.0"><title>2022-05-31 497 kCal</title></rect><rect fill="#4cd7ff" height="2.6" width="2.6" x="87.0" y="52.5"><title>2022-06-01 70 kCal</title></rect><rect fill="#47fcff" height="2.6" width="2.6" x="87.0" y="56.0"><title>2022-06-02 381 kCal</title></rect><rect fill="#ffda00" height="2.6" width="2.6" x="87.0" y="59.5"><title>2022-06-03 732 kCal</title></rect><rect fill="#48f8ff" height="2.6" width="2.6" x="87.0" y="63.0"><title>2022-06-04 348 kCal</title></rect><rect fill="#ffe300" height="2.6" width="2.6" x="87.0" y="66.5"><title>2022-06-05 561 kCal</title></rect><rect fill="#46fff5" height="2.6" width="2.6" x="90.5" y="45.5"><title>2022-06-06 490 kCal</title></rect><rect fill="#48f7ff" height="2.6" width="2.6" x="90.5" y="49.0"><title>2022-06-07 337 kCal</title></rect><rect fill="#48f9ff" height="2.6" width="2.6" x="90.5" y="52.5"><title>2022-06-08 355 kCal</title></rect><rect fill="#ffdc00" height="2.6" width="2.6" x="90.5" y="56.0"><title>2022-06-09 697 kCal</title></rect><rect fill="#4cdcff" height="2.6" width="2.6" x="90.5" y="59.5"><title>2022-06-10 110 kCal</title></rect><rect fill="#ffe000" height="2.6" width="2.6" x="90.5" y="63.0"><title>2022-06-11 617 kCal</title></rect><rect fill="#ffdf00" height="2.6" width="2.6" x="90.5" y="66.5"><title>2022-06-12 634 kCal</title></rect><rect fill="red" height="2.6" width="2.6" x="94.0" y="45.5"><title>2022-06-13 950 kCal</title></rect><rect fill="#45fff3" height="2.6" width="2.6" x="94.0" y="49.0"><title>2022-06-14 505 kCal</title></rect><rect fill="#ffe200" height="2.6" width="2.6" x="94.0" y="52.5"><title>2022-06-15 577 kCal</title></rect><rect fill="#ffd900" height="2.6" width="2.6" x="94.0" y="56.0"><title>2022-06-16 749 kCal</title></rect><rect fill="#48faff" height="2.6" width="2.6" x="94.0" y="59.5"><title>2022-06-17 364 kCal</title></rect><rect fill="#ffe200" height="2.6" width="2.6" x="94.0" y="63.0"><title>2022-06-18 584 kCal</title></rect><rect fill="#47fcff" height="2.6" width="2.6" x="94.0" y="66.5"><title>2022-06-19 383 kCal</title></rect><rect fill="#46fff5" height="2.6" width="2.6" x="97.5" y="45.5"><title>2022-06-20 490 kCal</title></rect><rect fill="#49ecff" height="2.6" width="2.6" x="97.5" y="49.0"><title>2022-06-21 249 kCal</title></rect><rect fill="#48fbff" height="2.6" width="2.6" x="97.5" y="52.5"><title>2022-06-22 374 kCal</title></rect><rect fill="#ffde00" height="2.6" width="2.6" x="97.5" y="56.0"><title>2022-06-23 651 kCal</title></rect><rect fill="#47fbff" height="2.6" width="2.6" x="97.5" y="59.5"><title>2022-06-24 375 kCal</title></rect><rect fill="#ffdd00" height="2.6" width="2.6" x="97.5" y="63.0"><title>2022-06-25 672 kCal</title></rect><rect fill="#ffde00" height="2.6" width="2.6" x="97.5" y="66.5"><title>2022-06-26 666 kCal</title></rect><rect fill="#4bdeff" height="2.6" width="2.6" x="101.0" y="45.5"><title>2022-06-27 125 kCal</title></rect><rect fill="#46fff7" height="2.6" width="2.6" x="101.0" y="49.0"><title>2022-06-28 470 kCal</title></rect><rect fill="#49f1ff" height="2.6" width="2.6" x="101.0" y="52.5"><title>2022-06-29 285 kCal</title></rect><rect fill="#ffe300" height="2.6" width="2.6" x="101.0" y="56.0"><title>2022-06-30 568 kCal</title></rect><rect fill="#ffe400" height="2.6" width="2.6" x="101.0" y="59.5"><title>2022-07-01 540 kCal</title></rect><rect fill="#ffe200" height="2.6" width="2.6" x="101.0" y="63.0"><title>2022-07-02 580 kCal</title></rect><rect fill="red" height="2.6" width="2.6" x="101.0" y="66.5"><title>2022-07-03 996 kCal</title></rect><rect fill="#49f3ff" height="2.6" width="2.6" x="104.5" y="45.5"><title>2022-07-04 308 kCal</title></rect><rect fill="#47fffb" height="2.6" width="2.6" x="104.5" y="49.0"><title>2022-07-05 437 kCal</title></rect><rect fill="#4aeaff" height="2.6" width="2.6" x="104.5" y="52.5"><title>2022-07-06 230 kCal</title></rect><rect fill="#47fffc" height="2.6" width="2.6" x="104.5" y="56.0"><title>2022-07-07 427 kCal</title></rect><rect fill="#47fffe" height="2.6" width="2.6" x="104.5" y="59.5"><title>2022-07-08 416 kCal</title></rect><rect fill="#49f3ff" height="2.6" width="2.6" x="104.5" y="63.0"><title>2022-07-09 307 kCal</title></rect><rect fill="#ffdd00" height="2.6" width="2.6" x="104.5" y="66.5"><title>2022-07-10 675 kCal</title></rect><rect fill="#46fff7" height="2.6" width="2.6" x="108.0" y="45.5"><title>2022-07-11 470 kCal</title></rect><rect fill="#ffe400" height="2.6" width="2.6" x="108.0" y="49.0"><title>2022-07-12 537 kCal</title></rect><rect fill="#ffe000" height="2.6" width="2.6" x="108.0" y="52.5"><title>2022-07-13 625 kCal</title></rect><rect fill="#ffe500" height="2.6" width="2.6" x="108.0" y="56.0"><title>2022-07-14 529 kCal</title></rect><rect fill="#ffe400" height="2.6" width="2.6" x="108.0" y="59.5"><title>2022-07-15 537 kCal</title></rect><rect fill="#ffdc00" height="2.6" width="2.6" x="108.0" y="63.0"><title>2022-07-16 691 kCal</title></rect><rect fill="#ffe100" height="2.6" width="2.6" x="108.0" y="66.5"><title>2022-07-17 592 kCal</title></rect><rect fill="#ffe500" height="2.6" width="2.6" x="111.5" y="45.5"><title>2022-07-18 532 kCal</title></rect><rect fill="#47fffd" height="2.6" width="2.6" x="111.5" y="49.0"><title>2022-07-19 420 kCal</title></rect><rect fill="#47feff" height="2.6" width="2.6" x="111.5" y="52.5"><title>2022-07-20 394 kCal</title></rect><rect fill="#ffda00" height="2.6" width="2.6" x="111.5" y="56.0"><title>2022-07-21 738 kCal</title></rect><rect fill="#48f4ff" height="2.6" width="2.6" x="111.5" y="59.5"><title>2022-07-22 311 kCal</title></rect><rect fill="#46fff8" height="2.6" width="2.6" x="111.5" y="63.0"><title>2022-07-23 458 kCal</title></rect><rect fill="#45fff1" height="2.6" width="2.6" x="111.5" y="66.5"><title>2022-07-24 515 kCal</title></rect><rect fill="#4be0ff" height="2.6" width="2.6" x="115.0" y="45.5"><title>2022-07-25 142 kCal</title></rect><rect fill="red" height="2.6" width="2.6" x="115.0" y="49.0"><title>2022-07-26 873 kCal</title></rect><rect fill="#ffe500" height="2.6" width="2.6" x="115.0" y="52.5"><title>2022-07-27 522 kCal</title></rect><rect fill="#49f0ff" height="2.6" width="2.6" x="115.0" y="56.0"><title>2022-07-28 278 kCal</title></rect><rect fill="#45fff2" height="2.6" width="2.6" x="115.0" y="59.5"><title>2022-07-29 508 kCal</title></rect><rect fill="#47fffd" height="2.6" width="2.6" x="115.0" y="63.0"><title>2022-07-30 424 kCal</title></rect><rect fill="#46fff9" height="2.6" width="2.6" x="115.0" y="66.5"><title>2022-07-31 454 kCal</title></rect><rect fill="#47fffc" height="2.6" width="2.6" x="118.5" y="45.5"><title>2022-08-01 428 kCal</title></rect><rect fill="#ffd700" height="2.6" width="2.6" x="118.5" y="49.0"><title>2022-08-02 797 kCal</title></rect><rect fill="#ffe400" height="2.6" width="2.6" x="118.5" y="52.5"><title>2022-08-03 536 kCal</title></rect><rect fill="#48f9ff" height="2.6" width="2.6" x="118.5" y="56.0"><title>2022-08-04 355 kCal</title></rect><rect fill="#46fff9" height="2.6" width="2.6" x="118.5" y="59.5"><title>2022-08-05 454 kCal</title></rect><rect fill="#ffdb00" height="2.6" width="2.6" x="118.5" y="63.0"><title>2022-08-06 723 kCal</title></rect><rect fill="#ffda00" height="2.6" width="2.6" x="118.5" y="66.5"><title>2022-08-07 733 kCal</title></rect><rect fill="#48fbff" height="2.6" width="2.6" x="122.0" y="45.5"><title>2022-08-08 369 kCal</title></rect><rect fill="#48f7ff" height="2.6" width="2.6" x="122.0" y="49.0"><title>2022-08-09 342 kCal</title></rect><rect fill="#47fffd" height="2.6" width="2.6" x="122.0" y="52.5"><title>2022-08-10 418 kCal</title></rect><rect fill="#4ae8ff" height="2.6" width="2.6" x="122.0" y="56.0"><title>2022-08-11 216 kCal</title></rect><rect fill="#47fffc" height="2.6" width="2.6" x="122.0" y="59.5"><title>2022-08-12 433 kCal</title></rect><rect fill="#ffe400" height="2.6" width="2.6" x="122.0" y="63.0"><title>2022-08-13 535 kCal</title></rect><rect fill="#4bdeff" height="2.6" width="2.6" x="122.0" y="66.5"><title>2022-08-14 128 kCal</title></rect><rect fill="#46fff7" height="2.6" width="2.6" x="125.5" y="45.5"><title>2022-08-15 472 kCal</title></rect><rect fill="#47fffd" height="2.6" width="2.6" x="125.5" y="49.0"><title>2022-08-16 425 kCal</title></rect><rect fill="#ffe000" height="2.6" width="2.6" x="125.5" y="52.5"><title>2022-08-17 627 kCal</title></rect><rect fill="#ffe300" height="2.6" width="2.6" x="125.5" y="56.0"><title>2022-08-18 553 kCal</title></rect><rect fill="#4dd2ff" height="2.6" width="2.6" x="125.5" y="59.5"><title>2022-08-19 24 kCal</title></rect><rect fill="#ffde00" height="2.6" width="2.6" x="125.5" y="63.0"><title>2022-08-20 666 kCal</title></rect><rect fill="#45fff1" height="2.6" width="2.6" x="125.5" y="66.5"><title>2022-08-21 516 kCal</title></rect><rect fill="#48f8ff" height="2.6" width="2.6" x="129.0" y="45.5"><title>2022-08-22 347 kCal</title></rect><rect fill="red" height="2.6" width="2.6" x="129.0" y="49.0"><title>2022-08-23 1635 kCal</title></rect><rect fill="#47fcff" height="2.6" width="2.6" x="129.0" y="52.5"><title>2022-08-24 380 kCal</title></rect><rect fill="#47fffb" height="2.6" width="2.6" x="129.0" y="56.0"><title>2022-08-25 436 kCal</title></rect><rect fill="#46fff5" height="2.6" width="2.6" x="129.0" y="59.5"><title>2022-08-26 486 kCal</title></rect><rect fill="red" height="2.6" width="2.6" x="129.0" y="63.0"><title>2022-08-27 848 kCal</title></rect><rect fill="#4aebff" height="2.6" width="2.6" x="129.0" y="66.5"><title>2022-08-28 243 kCal</title></rect><rect fill="#ffe200" height="2.6" width="2.6" x="132.5" y="45.5"><title>2022-08-29 586 kCal</title></rect><rect fill="#49eeff" height="2.6" width="2.6" x="132.5" y="49.0"><title>2022-08-30 264 kCal</title></rect><rect fill="#46fff6" height="2.6" width="2.6" x="132.5" y="52.5"><title>2022-08-31 478 kCal</title></rect><rect fill="#45fff3" height="2.6" width="2.6" x="132.5" y="56.0"><title>2022-09-01 502 kCal</title></rect><rect fill="#ffe200" height="2.6" width="2.6" x="132.5" y="59.5"><title>2022-09-02 586 kCal</title></rect><rect fill="#46fff3" height="2.6" width="2.6" x="132.5" y="63.0"><title>2022-09-03 500 kCal</title></rect><rect fill="#ffd800" height="2.6" width="2.6" x="132.5" y="66.5"><title>2022-09-04 771 kCal</title></rect><rect fill="#46fff6" height="2.6" width="2.6" x="136.0" y="45.5"><title>2022-09-05 479 kCal</title></rect><rect fill="#49f3ff" height="2.6" width="2.6" x="136.0" y="49.0"><title>2022-09-06 308 kCal</title></rect><rect fill="#ffe200" height="2.6" width="2.6" x="136.0" y="52.5"><title>2022-09-07 581 kCal</title></rect><rect fill="#4aecff" height="2.6" width="2.6" x="136.0" y="56.0"><title>2022-09-08 246 kCal</title></rect><rect fill="#49f0ff" height="2.6" width="2.6" x="136.0" y="59.5"><title>2022-09-09 280 kCal</title></rect><rect fill="#49eeff" height="2.6" width="2.6" x="136.0" y="63.0"><title>2022-09-10 261 kCal</title></rect><rect fill="#46fff8" height="2.6" width="2.6" x="136.0" y="66.5"><title>2022-09-11 458 kCal</title></rect><rect fill="#ffd500" height="2.6" width="2.6" x="139.5" y="45.5"><title>2022-09-12 837 kCal</title></rect><rect fill="#48f6ff" height="2.6" width="2.6" x="139.5" y="49.0"><title>2022-09-13 331 kCal</title></rect><rect fill="#46fff4" height="2.6" width="2.6" x="139.5" y="52.5"><title>2022-09-14 496 kCal</title></rect><rect fill="#47ffff" height="2.6" width="2.6" x="139.5" y="56.0"><title>2022-09-15 404 kCal</title></rect><rect fill="#ffe200" height="2.6" width="2.6" x="139.5" y="59.5"><title>2022-09-16 589 kCal</title></rect><rect fill="#ffe400" height="2.6" width="2.6" x="139.5" y="63.0"><title>2022-09-17 534 kCal</title></rect><rect fill="#ffd900" height="2.6" width="2.6" x="139.5" y="66.5"><title>2022-09-18 763 kCal</title></rect><rect fill="#ffdd00" height="2.6" width="2.6" x="143.0" y="45.5"><title>2022-09-19 669 kCal</title></rect><rect fill="#48f6ff" height="2.6" width="2.6" x="143.0" y="49.0"><title>2022-09-20 328 kCal</title></rect><rect fill="red" height="2.6" width="2.6" x="143.0" y="52.5"><title>2022-09-21 1041 kCal</title></rect><rect fill="#47fffc" height="2.6" width="2.6" x="143.0" y="56.0"><title>2022-09-22 430 kCal</title></rect><rect fill="#ffe400" height="2.6" width="2.6" x="143.0" y="59.5"><title>2022-09-23 547 kCal</title></rect><rect fill="#ffde00" height="2.6" width="2.6" x="143.0" y="63.0"><title>2022-09-24 659 kCal</title></rect><rect fill="#ffe400" height="2.6" width="2.6" x="143.0" y="66.5"><title>2022-09-25 537 kCal</title></rect><rect fill="#47fffc" height="2.6" width="2.6" x="146.5" y="45.5"><title>2022-09-26 433 kCal</title></rect><rect fill="#47fdff" height="2.6" width="2.6" x="146.5" y="49.0"><title>2022-09-27 392 kCal</title></rect><rect fill="#ffde00" height="2.6" width="2.6" x="146.5" y="52.5"><title>2022-09-28 652 kCal</title></rect><rect fill="#ffe400" height="2.6" width="2.6" x="146.5" y="56.0"><title>2022-09-29 552 kCal</title></rect><rect fill="#ffe500" height="2.6" width="2.6" x="146.5" y="59.5"><title>2022-09-30 529 kCal</title></rect><rect fill="#ffdd00" height="2.6" width="2.6" x="146.5" y="63.0"><title>2022-10-01 671 kCal</title></rect><rect fill="#ffdd00" height="2.6" width="2.6" x="146.5" y="66.5"><title>2022-10-02 675 kCal</title></rect><rect fill="#ffe300" height="2.6" width="2.6" x="150.0" y="45.5"><title>2022-10-03 560 kCal</title></rect><rect fill="#46fff6" height="2.6" width="2.6" x="150.0" y="49.0"><title>2022-10-04 476 kCal</title></rect><rect fill="#47fffc" height="2.6" width="2.6" x="150.0" y="52.5"><title>2022-10-05 433 kCal</title></rect><rect fill="#ffe100" height="2.6" width="2.6" x="150.0" y="56.0"><title>2022-10-06 607 kCal</title></rect><rect fill="#48f9ff" height="2.6" width="2.6" x="150.0" y="59.5"><title>2022-10-07 352 kCal</title></rect><rect fill="#ffdf00" height="2.6" width="2.6" x="150.0" y="63.0"><title>2022-10-08 637 kCal</title></rect><rect fill="red" height="2.6" width="2.6" x="150.0" y="66.5"><title>2022-10-09 2467 kCal</title></rect><rect fill="#48f6ff" height="2.6" width="2.6" x="153.5" y="45.5"><title>2022-10-10 327 kCal</title></rect><rect fill="#48fbff" height="2.6" width="2.6" x="153.5" y="49.0"><title>2022-10-11 369 kCal</title></rect><rect fill="#48f6ff" height="2.6" width="2.6" x="153.5" y="52.5"><title>2022-10-12 332 kCal</title></rect><rect fill="#ffe400" height="2.6" width="2.6" x="153.5" y="56.0"><title>2022-10-13 551 kCal</title></rect><rect fill="#48faff" height="2.6" width="2.6" x="153.5" y="59.5"><title>2022-10-14 362 kCal</title></rect><rect fill="#ffdf00" height="2.6" width="2.6" x="153.5" y="63.0"><title>2022-10-15 634 kCal</title></rect><rect fill="#47fdff" height="2.6" width="2.6" x="153.5" y="66.5"><title>2022-10-16 386 kCal</title></rect><rect fill="#ffe000" height="2.6" width="2.6" x="157.0" y="45.5"><title>2022-10-17 625 kCal</title></rect><rect fill="red" height="2.6" width="2.6" x="157.0" y="49.0"><title>2022-10-18 2224 kCal</title></rect><rect fill="#47fffd" height="2.6" width="2.6" x="157.0" y="52.5"><title>2022-10-19 425 kCal</title></rect><rect fill="#47fffc" height="2.6" width="2.6" x="157.0" y="56.0"><title>2022-10-20 433 kCal</title></rect><rect fill="#ffe300" height="2.6" width="2.6" x="157.0" y="59.5"><title>2022-10-21 558 kCal</title></rect><rect fill="#47fffd" height="2.6" width="2.6" x="157.0" y="63.0"><title>2022-10-22 418 kCal</title></rect><rect fill="#47fffd" height="2.6" width="2.6" x="157.0" y="66.5"><title>2022-10-23 420 kCal</title></rect><rect fill="#ffdc00" height="2.6" width="2.6" x="160.5" y="45.5"><title>2022-10-24 706 kCal</title></rect><rect fill="#48f6ff" height="2.6" width="2.6" x="160.5" y="49.0"><title>2022-10-25 333 kCal</title></rect><rect fill="#ffe500" height="2.6" width="2.6" x="160.5" y="52.5"><title>2022-10-26 528 kCal</title></rect><rect fill="#45fff3" height="2.6" width="2.6" x="160.5" y="56.0"><title>2022-10-27 505 kCal</title></rect><rect fill="#47fdff" height="2.6" width="2.6" x="160.5" y="59.5"><title>2022-10-28 391 kCal</title></rect><rect fill="#ffdf00" height="2.6" width="2.6" x="160.5" y="63.0"><title>2022-10-29 636 kCal</title></rect><rect fill="red" height="2.6" width="2.6" x="160.5" y="66.5"><title>2022-10-30 987 kCal</title></rect><rect fill="#49f3ff" height="2.6" width="2.6" x="164.0" y="45.5"><title>2022-10-31 308 kCal</title></rect><rect fill="#ffe100" height="2.6" width="2.6" x="164.0" y="49.0"><title>2022-11-01 608 kCal</title></rect><rect fill="#46fffa" height="2.6" width="2.6" x="164.0" y="52.5"><title>2022-11-02 449 kCal</title></rect><rect fill="#49ecff" height="2.6" width="2.6" x="164.0" y="56.0"><title>2022-11-03 248 kCal</title></rect><rect fill="#ffde00" height="2.6" width="2.6" x="164.0" y="59.5"><title>2022-11-04 650 kCal</title></rect><rect fill="#ffe300" height="2.6" width="2.6" x="164.0" y="63.0"><title>2022-11-05 557 kCal</title></rect><rect fill="red" height="2.6" width="2.6" x="164.0" y="66.5"><title>2022-11-06 909 kCal</title></rect><rect fill="red" height="2.6" width="2.6" x="167.5" y="45.5"><title>2022-11-07 1867 kCal</title></rect><rect fill="#47fcff" height="2.6" width="2.6" x="167.5" y="49.0"><title>2022-11-08 383 kCal</title></rect><rect fill="#46fff7" height="2.6" width="2.6" x="167.5" y="52.5"><title>2022-11-09 470 kCal</title></rect><rect fill="#47fffd" height="2.6" width="2.6" x="167.5" y="56.0"><title>2022-11-10 422 kCal</title></rect><rect fill="#46fff4" height="2.6" width="2.6" x="167.5" y="59.5"><title>2022-11-11 494 kCal</title></rect><rect fill="#46fff9" height="2.6" width="2.6" x="167.5" y="63.0"><title>2022-11-12 454 kCal</title></rect><rect fill="red" height="2.6" width="2.6" x="167.5" y="66.5"><title>2022-11-13 2346 kCal</title></rect><rect fill="#48f6ff" height="2.6" width="2.6" x="171.0" y="45.5"><title>2022-11-14 334 kCal</title></rect><rect fill="#ffe400" height="2.6" width="2.6" x="171.0" y="49.0"><title>2022-11-15 542 kCal</title></rect><rect fill="#ffe300" height="2.6" width="2.6" x="171.0" y="52.5"><title>2022-11-16 567 kCal</title></rect><rect fill="red" height="2.6" width="2.6" x="171.0" y="56.0"><title>2022-11-17 946 kCal</title></rect><rect fill="#ffe100" height="2.6" width="2.6" x="171.0" y="59.5"><title>2022-11-18 597 kCal</title></rect><rect fill="red" height="2.6" width="2.6" x="171.0" y="63.0"><title>2022-11-19 884 kCal</title></rect><rect fill="red" height="2.6" width="2.6" x="171.0" y="66.5"><title>2022-11-20 1455 kCal</title></rect><rect fill="red" height="2.6" width="2.6" x="174.5" y="45.5"><title>2022-11-21 838 kCal</title></rect><rect fill="red" height="2.6" width="2.6" x="174.5" y="49.0"><title>2022-11-22 1008 kCal</title></rect><rect fill="#ffdc00" height="2.6" width="2.6" x="174.5" y="52.5"><title>2022-11-23 689 kCal</title></rect><rect fill="#ffe100" height="2.6" width="2.6" x="174.5" y="56.0"><title>2022-11-24 598 kCal</title></rect><rect fill="red" height="2.6" width="2.6" x="174.5" y="59.5"><title>2022-11-25 1504 kCal</title></rect><rect fill="red" height="2.6" width="2.6" x="174.5" y="63.0"><title>2022-11-26 2498 kCal</title></rect><rect fill="red" height="2.6" width="2.6" x="174.5" y="66.5"><title>2022-11-27 3011 kCal</title></rect><rect fill="red" height="2.6" width="2.6" x="178.0" y="45.5"><title>2022-11-28 2021 kCal</title></rect><rect fill="red" height="2.6" width="2.6" x="178.0" y="49.0"><title>2022-11-29 1809 kCal</title></rect><rect fill="red" height="2.6" width="2.6" x="178.0" y="52.5"><title>2022-11-30 1479 kCal</title></rect><rect fill="#ffe000" height="2.6" width="2.6" x="178.0" y="56.0"><title>2022-12-01 622 kCal</title></rect><rect fill="red" height="2.6" width="2.6" x="178.0" y="59.5"><title>2022-12-02 1067 kCal</title></rect><rect fill="red" height="2.6" width="2.6" x="178.0" y="63.0"><title>2022-12-03 2671 kCal</title></rect><rect fill="#47fffe" height="2.6" width="2.6" x="178.0" y="66.5"><title>2022-12-04 415 kCal</title></rect><rect fill="red" height="2.6" width="2.6" x="181.5" y="45.5"><title>2022-12-05 1688 kCal</title></rect><rect fill="#ffe500" height="2.6" width="2.6" x="181.5" y="49.0"><title>2022-12-06 526 kCal</title></rect><rect fill="#47fffb" height="2.6" width="2.6" x="181.5" y="52.5"><title>2022-12-07 435 kCal</title></rect><rect fill="red" height="2.6" width="2.6" x="181.5" y="56.0"><title>2022-12-08 1712 kCal</title></rect><rect fill="#ffe500" height="2.6" width="2.6" x="181.5" y="59.5"><title>2022-12-09 528 kCal</title></rect><rect fill="red" height="2.6" width="2.6" x="181.5" y="63.0"><title>2022-12-10 2364 kCal</title></rect><rect fill="#ffd800" height="2.6" width="2.6" x="181.5" y="66.5"><title>2022-12-11 769 kCal</title></rect><rect fill="red" height="2.6" width="2.6" x="185.0" y="45.5"><title>2022-12-12 3377 kCal</title></rect><rect fill="red" height="2.6" width="2.6" x="185.0" y="49.0"><title>2022-12-13 988 kCal</title></rect><rect fill="red" height="2.6" width="2.6" x="185.0" y="52.5"><title>2022-12-14 1364 kCal</title></rect><rect fill="red" height="2.6" width="2.6" x="185.0" y="56.0"><title>2022-12-15 1328 kCal</title></rect><rect fill="#46fff7" height="2.6" width="2.6" x="185.0" y="59.5"><title>2022-12-16 468 kCal</title></rect><rect fill="red" height="2.6" width="2.6" x="185.0" y="63.0"><title>2022-12-17 2306 kCal</title></rect><rect fill="#45fff2" height="2.6" width="2.6" x="185.0" y="66.5"><title>2022-12-18 508 kCal</title></rect><rect fill="red" height="2.6" width="2.6" x="188.5" y="45.5"><title>2022-12-19 2527 kCal</title></rect><rect fill="red" height="2.6" width="2.6" x="188.5" y="49.0"><title>2022-12-20 2720 kCal</title></rect><rect fill="red" height="2.6" width="2.6" x="188.5" y="52.5"><title>2022-12-21 858 kCal</title></rect><rect fill="red" height="2.6" width="2.6" x="188.5" y="56.0"><title>2022-12-22 1231 kCal</title></rect><rect fill="#ffd500" height="2.6" width="2.6" x="188.5" y="59.5"><title>2022-12-23 837 kCal</title></rect><rect fill="#ffdb00" height="2.6" width="2.6" x="188.5" y="63.0"><title>2022-12-24 718 kCal</title></rect><rect fill="red" height="2.6" width="2.6" x="188.5" y="66.5"><title>2022-12-25 1745 kCal</title></rect><rect fill="#ffdc00" height="2.6" width="2.6" x="192.0" y="45.5"><title>2022-12-26 695 kCal</title></rect><rect fill="#ffd900" height="2.6" width="2.6" x="192.0" y="49.0"><title>2022-12-27 753 kCal</title></rect><rect fill="red" height="2.6" width="2.6" x="192.0" y="52.5"><title>2022-12-28 1762 kCal</title></rect><rect fill="red" height="2.6" width="2.6" x="192.0" y="56.0"><title>2022-12-29 1481 kCal</title></rect><rect fill="red" height="2.6" width="2.6" x="192.0" y="59.5"><title>2022-12-30 1359 kCal</title></rect><rect fill="#ffe400" height="2.6" width="2.6" x="192.0" y="63.0"><title>2022-12-31 550 kCal</title></rect></svg>