<?xml version="1.0" encoding="utf-8" ?>
<svg baseProfile="full" height="78mm" version="1.1" viewBox="0,0,200,78" width="200mm" xmlns="http://www.w3.org/2000/svg" xmlns:ev="http://www.w3.org/2001/xml-events" xmlns:xlink="http://www.w3.org/1999/xlink"><defs /><rect fill="#222222" height="78" width="200" x="0" y="0" /><text fill="#FFFFFF" style="font-size:12px; font-family:Arial; font-weight:bold;" x="10" y="20">rip-tyang apple_health</text><text dominant-baseline="hanging" fill="#FFFFFF" style="font-size:10.0px; font-family:Arial;" x="10" y="30">2022</text><text dominant-baseline="hanging" fill="#FFFFFF" style="font-size:4.125px; font-family:Arial;" x="175" y="35">202 hours</text><text fill="#FFFFFF" style="font-size:2.5px; font-family:Arial" x="10.0" y="44">Jan</text><text fill="#FFFFFF" style="font-size:2.5px; font-family:Arial" x="25.5" y="44">Feb</text><text fill="#FFFFFF" style="font-size:2.5px; font-family:Arial" x="41.0" y="44">Mar</text><text fill="#FFFFFF" style="font-size:2.5px; font-family:Arial" x="56.5" y="44">Apr</text><text fill="#FFFFFF" style="font-size:2.5px; font-family:Arial" x="72.0" y="44">May</text><text fill="#FFFFFF" style="font-size:2.5px; font-family:Arial" x="87.5" y="44">Jun</text><text fill="#FFFFFF" style="font-size:2.5px; font-family:Arial" x="103.0" y="44">Jul</text><text fill="#FFFFFF" style="font-size:2.5px; font-family:Arial" x="118.5" y="44">Aug</text><text fill="#FFFFFF" style="font-size:2.5px; font-family:Arial" x="134.0" y="44">Sep</text><text fill="#FFFFFF" style="font-size:2.5px; font-family:Arial" x="149.5" y="44">Oct</text><text fill="#FFFFFF" style="font-size:2.5px; font-family:Arial" x="165.0" y="44">Nov</text><text fill="#FFFFFF" style="font-size:2.5px; font-family:Arial" x="180.5" y="44">Dec</text><rect fill="#4ae6ff" height="2.6" width="2.6" x="10.0" y="45.5"><title>2021-12-27 30 mins</title></rect><rect fill="#4dd2ff" height="2.6" width="2.6" x="10.0" y="49.0"><title>2021-12-28 1 mins</title></rect><rect fill="#4dd4ff" height="2.6" width="2.6" x="10.0" y="52.5"><title>2021-12-29 4 mins</title></rect><rect fill="#47fffe" height="2.6" width="2.6" x="10.0" y="56.0"><title>2021-12-30 66 mins</title></rect><rect fill="#4dd3ff" height="2.6" width="2.6" x="10.0" y="59.5"><title>2021-12-31 3 mins</title></rect><rect fill="#4be0ff" height="2.6" width="2.6" x="10.0" y="63.0"><title>2022-01-01 21 mins</title></rect><rect fill="red" height="2.6" width="2.6" x="10.0" y="66.5"><title>2022-01-02 164 mins</title></rect><rect fill="#444444" height="2.6" width="2.6" x="13.5" y="45.5"><title>2022-01-03</title></rect><rect fill="#444444" height="2.6" width="2.6" x="13.5" y="49.0"><title>2022-01-04</title></rect><rect fill="#4cd6ff" height="2.6" width="2.6" x="13.5" y="52.5"><title>2022-01-05 7 mins</title></rect><rect fill="#4dd3ff" height="2.6" width="2.6" x="13.5" y="56.0"><title>2022-01-06 2 mins</title></rect><rect fill="#4dd2ff" height="2.6" width="2.6" x="13.5" y="59.5"><title>2022-01-07 1 mins</title></rect><rect fill="#48f6ff" height="2.6" width="2.6" x="13.5" y="63.0"><title>2022-01-08 53 mins</title></rect><rect fill="#4aeaff" height="2.6" width="2.6" x="13.5" y="66.5"><title>2022-01-09 36 mins</title></rect><rect fill="#4ae9ff" height="2.6" width="2.6" x="17.0" y="45.5"><title>2022-01-10 35 mins</title></rect><rect fill="#4ae7ff" height="2.6" width="2.6" x="17.0" y="49.0"><title>2022-01-11 32 mins</title></rect><rect fill="#444444" height="2.6" width="2.6" x="17.0" y="52.5"><title>2022-01-12</title></rect><rect fill="#4dd3ff" height="2.6" width="2.6" x="17.0" y="56.0"><title>2022-01-13 3 mins</title></rect><rect fill="#4dd2ff" height="2.6" width="2.6" x="17.0" y="59.5"><title>2022-01-14 1 mins</title></rect><rect fill="#49f1ff" height="2.6" width="2.6" x="17.0" y="63.0"><title>2022-01-15 45 mins</title></rect><rect fill="#4be4ff" height="2.6" width="2.6" x="17.0" y="66.5"><title>2022-01-16 27 mins</title></rect><rect fill="#4cd7ff" height="2.6" width="2.6" x="20.5" y="45.5"><title>2022-01-17 8 mins</title></rect><rect fill="#4ae5ff" height="2.6" width="2.6" x="20.5" y="49.0"><title>2022-01-18 29 mins</title></rect><rect fill="#444444" height="2.6" width="2.6" x="20.5" y="52.5"><title>2022-01-19</title></rect><rect fill="#ffe300" height="2.6" width="2.6" x="20.5" y="56.0"><title>2022-01-20 92 mins</title></rect><rect fill="#4dd2ff" height="2.6" width="2.6" x="20.5" y="59.5"><title>2022-01-21 1 mins</title></rect><rect fill="#49efff" height="2.6" width="2.6" x="20.5" y="63.0"><title>2022-01-22 43 mins</title></rect><rect fill="#4be0ff" height="2.6" width="2.6" x="20.5" y="66.5"><title>2022-01-23 22 mins</title></rect><rect fill="#47fcff" height="2.6" width="2.6" x="24.0" y="45.5"><title>2022-01-24 61 mins</title></rect><rect fill="#4dd4ff" height="2.6" width="2.6" x="24.0" y="49.0"><title>2022-01-25 4 mins</title></rect><rect fill="#444444" height="2.6" width="2.6" x="24.0" y="52.5"><title>2022-01-26</title></rect><rect fill="#444444" height="2.6" width="2.6" x="24.0" y="56.0"><title>2022-01-27</title></rect><rect fill="#4dd2ff" height="2.6" width="2.6" x="24.0" y="59.5"><title>2022-01-28 1 mins</title></rect><rect fill="#49ecff" height="2.6" width="2.6" x="24.0" y="63.0"><title>2022-01-29 39 mins</title></rect><rect fill="#4dd4ff" height="2.6" width="2.6" x="24.0" y="66.5"><title>2022-01-30 4 mins</title></rect><rect fill="#4dd5ff" height="2.6" width="2.6" x="27.5" y="45.5"><title>2022-01-31 6 mins</title></rect><rect fill="#4dd3ff" height="2.6" width="2.6" x="27.5" y="49.0"><title>2022-02-01 2 mins</title></rect><rect fill="#47fdff" height="2.6" width="2.6" x="27.5" y="52.5"><title>2022-02-02 62 mins</title></rect><rect fill="#4dd3ff" height="2.6" width="2.6" x="27.5" y="56.0"><title>2022-02-03 2 mins</title></rect><rect fill="#4ae6ff" height="2.6" width="2.6" x="27.5" y="59.5"><title>2022-02-04 30 mins</title></rect><rect fill="#4ae7ff" height="2.6" width="2.6" x="27.5" y="63.0"><title>2022-02-05 32 mins</title></rect><rect fill="#4dd2ff" height="2.6" width="2.6" x="27.5" y="66.5"><title>2022-02-06 1 mins</title></rect><rect fill="#4dd2ff" height="2.6" width="2.6" x="31.0" y="45.5"><title>2022-02-07 1 mins</title></rect><rect fill="#4bdfff" height="2.6" width="2.6" x="31.0" y="49.0"><title>2022-02-08 20 mins</title></rect><rect fill="#444444" height="2.6" width="2.6" x="31.0" y="52.5"><title>2022-02-09</title></rect><rect fill="#444444" height="2.6" width="2.6" x="31.0" y="56.0"><title>2022-02-10</title></rect><rect fill="#4dd4ff" height="2.6" width="2.6" x="31.0" y="59.5"><title>2022-02-11 4 mins</title></rect><rect fill="#4bdeff" height="2.6" width="2.6" x="31.0" y="63.0"><title>2022-02-12 18 mins</title></rect><rect fill="#4be2ff" height="2.6" width="2.6" x="31.0" y="66.5"><title>2022-02-13 25 mins</title></rect><rect fill="#49f2ff" height="2.6" width="2.6" x="34.5" y="45.5"><title>2022-02-14 47 mins</title></rect><rect fill="#444444" height="2.6" width="2.6" x="34.5" y="49.0"><title>2022-02-15</title></rect><rect fill="#444444" height="2.6" width="2.6" x="34.5" y="52.5"><title>2022-02-16</title></rect><rect fill="#4dd3ff" height="2.6" width="2.6" x="34.5" y="56.0"><title>2022-02-17 3 mins</title></rect><rect fill="#4cd8ff" height="2.6" width="2.6" x="34.5" y="59.5"><title>2022-02-18 10 mins</title></rect><rect fill="#ffdd00" height="2.6" width="2.6" x="34.5" y="63.0"><title>2022-02-19 112 mins</title></rect><rect fill="#ffde00" height="2.6" width="2.6" x="34.5" y="66.5"><title>2022-02-20 109 mins</title></rect><rect fill="#4cd8ff" height="2.6" width="2.6" x="38.0" y="45.5"><title>2022-02-21 10 mins</title></rect><rect fill="#4ae7ff" height="2.6" width="2.6" x="38.0" y="49.0"><title>2022-02-22 32 mins</title></rect><rect fill="#4dd4ff" height="2.6" width="2.6" x="38.0" y="52.5"><title>2022-02-23 4 mins</title></rect><rect fill="#4be2ff" height="2.6" width="2.6" x="38.0" y="56.0"><title>2022-02-24 24 mins</title></rect><rect fill="#4cd7ff" height="2.6" width="2.6" x="38.0" y="59.5"><title>2022-02-25 9 mins</title></rect><rect fill="red" height="2.6" width="2.6" x="38.0" y="63.0"><title>2022-02-26 205 mins</title></rect><rect fill="red" height="2.6" width="2.6" x="38.0" y="66.5"><title>2022-02-27 166 mins</title></rect><rect fill="red" height="2.6" width="2.6" x="41.5" y="45.5"><title>2022-02-28 170 mins</title></rect><rect fill="red" height="2.6" width="2.6" x="41.5" y="49.0"><title>2022-03-01 190 mins</title></rect><rect fill="#4cd8ff" height="2.6" width="2.6" x="41.5" y="52.5"><title>2022-03-02 10 mins</title></rect><rect fill="#4dd2ff" height="2.6" width="2.6" x="41.5" y="56.0"><title>2022-03-03 1 mins</title></rect><rect fill="#4cddff" height="2.6" width="2.6" x="41.5" y="59.5"><title>2022-03-04 17 mins</title></rect><rect fill="#49edff" height="2.6" width="2.6" x="41.5" y="63.0"><title>2022-03-05 40 mins</title></rect><rect fill="#4cd6ff" height="2.6" width="2.6" x="41.5" y="66.5"><title>2022-03-06 7 mins</title></rect><rect fill="#444444" height="2.6" width="2.6" x="45.0" y="45.5"><title>2022-03-07</title></rect><rect fill="#4dd2ff" height="2.6" width="2.6" x="45.0" y="49.0"><title>2022-03-08 1 mins</title></rect><rect fill="#4dd5ff" height="2.6" width="2.6" x="45.0" y="52.5"><title>2022-03-09 5 mins</title></rect><rect fill="#444444" height="2.6" width="2.6" x="45.0" y="56.0"><title>2022-03-10</title></rect><rect fill="#4dd5ff" height="2.6" width="2.6" x="45.0" y="59.5"><title>2022-03-11 6 mins</title></rect><rect fill="#ffd900" height="2.6" width="2.6" x="45.0" y="63.0"><title>2022-03-12 124 mins</title></rect><rect fill="#4ae9ff" height="2.6" width="2.6" x="45.0" y="66.5"><title>2022-03-13 35 mins</title></rect><rect fill="#4cd9ff" height="2.6" width="2.6" x="48.5" y="45.5"><title>2022-03-14 11 mins</title></rect><rect fill="#4cddff" height="2.6" width="2.6" x="48.5" y="49.0"><title>2022-03-15 17 mins</title></rect><rect fill="#4cd7ff" height="2.6" width="2.6" x="48.5" y="52.5"><title>2022-03-16 9 mins</title></rect><rect fill="#4be3ff" height="2.6" width="2.6" x="48.5" y="56.0"><title>2022-03-17 26 mins</title></rect><rect fill="#45ffed" height="2.6" width="2.6" x="48.5" y="59.5"><title>2022-03-18 89 mins</title></rect><rect fill="#4cd8ff" height="2.6" width="2.6" x="48.5" y="63.0"><title>2022-03-19 10 mins</title></rect><rect fill="#444444" height="2.6" width="2.6" x="48.5" y="66.5"><title>2022-03-20</title></rect><rect fill="#4dd5ff" height="2.6" width="2.6" x="52.0" y="45.5"><title>2022-03-21 5 mins</title></rect><rect fill="#4dd3ff" height="2.6" width="2.6" x="52.0" y="49.0"><title>2022-03-22 3 mins</title></rect><rect fill="#4dd5ff" height="2.6" width="2.6" x="52.0" y="52.5"><title>2022-03-23 6 mins</title></rect><rect fill="#444444" height="2.6" width="2.6" x="52.0" y="56.0"><title>2022-03-24</title></rect><rect fill="#444444" height="2.6" width="2.6" x="52.0" y="59.5"><title>2022-03-25</title></rect><rect fill="#4dd3ff" height="2.6" width="2.6" x="52.0" y="63.0"><title>2022-03-26 2 mins</title></rect><rect fill="#4cd7ff" height="2.6" width="2.6" x="52.0" y="66.5"><title>2022-03-27 9 mins</title></rect><rect fill="#4cd7ff" height="2.6" width="2.6" x="55.5" y="45.5"><title>2022-03-28 8 mins</title></rect><rect fill="#4dd3ff" height="2.6" width="2.6" x="55.5" y="49.0"><title>2022-03-29 3 mins</title></rect><rect fill="#444444" height="2.6" width="2.6" x="55.5" y="52.5"><title>2022-03-30</title></rect><rect fill="#4cd6ff" height="2.6" width="2.6" x="55.5" y="56.0"><title>2022-03-31 7 mins</title></rect><rect fill="#4dd5ff" height="2.6" width="2.6" x="55.5" y="59.5"><title>2022-04-01 5 mins</title></rect><rect fill="#49f3ff" height="2.6" width="2.6" x="55.5" y="63.0"><title>2022-04-02 49 mins</title></rect><rect fill="#4ae9ff" height="2.6" width="2.6" x="55.5" y="66.5"><title>2022-04-03 35 mins</title></rect><rect fill="#4dd3ff" height="2.6" width="2.6" x="59.0" y="45.5"><title>2022-04-04 2 mins</title></rect><rect fill="#4dd2ff" height="2.6" width="2.6" x="59.0" y="49.0"><title>2022-04-05 1 mins</title></rect><rect fill="#4dd4ff" height="2.6" width="2.6" x="59.0" y="52.5"><title>2022-04-06 4 mins</title></rect><rect fill="#444444" height="2.6" width="2.6" x="59.0" y="56.0"><title>2022-04-07</title></rect><rect fill="#4cd6ff" height="2.6" width="2.6" x="59.0" y="59.5"><title>2022-04-08 7 mins</title></rect><rect fill="#444444" height="2.6" width="2.6" x="59.0" y="63.0"><title>2022-04-09</title></rect><rect fill="#48f6ff" height="2.6" width="2.6" x="59.0" y="66.5"><title>2022-04-10 52 mins</title></rect><rect fill="#444444" height="2.6" width="2.6" x="62.5" y="45.5"><title>2022-04-11</title></rect><rect fill="#4dd2ff" height="2.6" width="2.6" x="62.5" y="49.0"><title>2022-04-12 1 mins</title></rect><rect fill="#444444" height="2.6" width="2.6" x="62.5" y="52.5"><title>2022-04-13</title></rect><rect fill="#444444" height="2.6" width="2.6" x="62.5" y="56.0"><title>2022-04-14</title></rect><rect fill="#444444" height="2.6" width="2.6" x="62.5" y="59.5"><title>2022-04-15</title></rect><rect fill="#4cdbff" height="2.6" width="2.6" x="62.5" y="63.0"><title>2022-04-16 14 mins</title></rect><rect fill="#4be1ff" height="2.6" width="2.6" x="62.5" y="66.5"><title>2022-04-17 23 mins</title></rect><rect fill="#444444" height="2.6" width="2.6" x="66.0" y="45.5"><title>2022-04-18</title></rect><rect fill="#4dd2ff" height="2.6" width="2.6" x="66.0" y="49.0"><title>2022-04-19 1 mins</title></rect><rect fill="#444444" height="2.6" width="2.6" x="66.0" y="52.5"><title>2022-04-20</title></rect><rect fill="#4dd2ff" height="2.6" width="2.6" x="66.0" y="56.0"><title>2022-04-21 1 mins</title></rect><rect fill="#444444" height="2.6" width="2.6" x="66.0" y="59.5"><title>2022-04-22</title></rect><rect fill="#4be0ff" height="2.6" width="2.6" x="66.0" y="63.0"><title>2022-04-23 22 mins</title></rect><rect fill="#ffd200" height="2.6" width="2.6" x="66.0" y="66.5"><title>2022-04-24 146 mins</title></rect><rect fill="#444444" height="2.6" width="2.6" x="69.5" y="45.5"><title>2022-04-25</title></rect><rect fill="#444444" height="2.6" width="2.6" x="69.5" y="49.0"><title>2022-04-26</title></rect><rect fill="#4dd2ff" height="2.6" width="2.6" x="69.5" y="52.5"><title>2022-04-27 1 mins</title></rect><rect fill="#444444" height="2.6" width="2.6" x="69.5" y="56.0"><title>2022-04-28</title></rect><rect fill="#4dd5ff" height="2.6" width="2.6" x="69.5" y="59.5"><title>2022-04-29 6 mins</title></rect><rect fill="#46fffb" height="2.6" width="2.6" x="69.5" y="63.0"><title>2022-04-30 71 mins</title></rect><rect fill="#4dd2ff" height="2.6" width="2.6" x="69.5" y="66.5"><title>2022-05-01 1 mins</title></rect><rect fill="#4dd3ff" height="2.6" width="2.6" x="73.0" y="45.5"><title>2022-05-02 3 mins</title></rect><rect fill="#4dd3ff" height="2.6" width="2.6" x="73.0" y="49.0"><title>2022-05-03 2 mins</title></rect><rect fill="#444444" height="2.6" width="2.6" x="73.0" y="52.5"><title>2022-05-04</title></rect><rect fill="#4dd3ff" height="2.6" width="2.6" x="73.0" y="56.0"><title>2022-05-05 2 mins</title></rect><rect fill="#444444" height="2.6" width="2.6" x="73.0" y="59.5"><title>2022-05-06</title></rect><rect fill="#4cd7ff" height="2.6" width="2.6" x="73.0" y="63.0"><title>2022-05-07 8 mins</title></rect><rect fill="#49eeff" height="2.6" width="2.6" x="73.0" y="66.5"><title>2022-05-08 42 mins</title></rect><rect fill="#4dd4ff" height="2.6" width="2.6" x="76.5" y="45.5"><title>2022-05-09 4 mins</title></rect><rect fill="#444444" height="2.6" width="2.6" x="76.5" y="49.0"><title>2022-05-10</title></rect><rect fill="#4dd3ff" height="2.6" width="2.6" x="76.5" y="52.5"><title>2022-05-11 3 mins</title></rect><rect fill="#4be0ff" height="2.6" width="2.6" x="76.5" y="56.0"><title>2022-05-12 21 mins</title></rect><rect fill="#4dd3ff" height="2.6" width="2.6" x="76.5" y="59.5"><title>2022-05-13 2 mins</title></rect><rect fill="#46fff6" height="2.6" width="2.6" x="76.5" y="63.0"><title>2022-05-14 78 mins</title></rect><rect fill="#4bdeff" height="2.6" width="2.6" x="76.5" y="66.5"><title>2022-05-15 19 mins</title></rect><rect fill="#4dd3ff" height="2.6" width="2.6" x="80.0" y="45.5"><title>2022-05-16 3 mins</title></rect><rect fill="#4dd2ff" height="2.6" width="2.6" x="80.0" y="49.0"><title>2022-05-17 1 mins</title></rect><rect fill="#4cd7ff" height="2.6" width="2.6" x="80.0" y="52.5"><title>2022-05-18 8 mins</title></rect><rect fill="#444444" height="2.6" width="2.6" x="80.0" y="56.0"><title>2022-05-19</title></rect><rect fill="#444444" height="2.6" width="2.6" x="80.0" y="59.5"><title>2022-05-20</title></rect><rect fill="#46fff6" height="2.6" width="2.6" x="80.0" y="63.0"><title>2022-05-21 77 mins</title></rect><rect fill="#4dd3ff" height="2.6" width="2.6" x="80.0" y="66.5"><title>2022-05-22 3 mins</title></rect><rect fill="#48f9ff" height="2.6" width="2.6" x="83.5" y="45.5"><title>2022-05-23 57 mins</title></rect><rect fill="#4dd3ff" height="2.6" width="2.6" x="83.5" y="49.0"><title>2022-05-24 2 mins</title></rect><rect fill="#4ae5ff" height="2.6" width="2.6" x="83.5" y="52.5"><title>2022-05-25 29 mins</title></rect><rect fill="#4dd4ff" height="2.6" width="2.6" x="83.5" y="56.0"><title>2022-05-26 4 mins</title></rect><rect fill="#4dd2ff" height="2.6" width="2.6" x="83.5" y="59.5"><title>2022-05-27 1 mins</title></rect><rect fill="#4cddff" height="2.6" width="2.6" x="83.5" y="63.0"><title>2022-05-28 17 mins</title></rect><rect fill="#4dd3ff" height="2.6" width="2.6" x="83.5" y="66.5"><title>2022-05-29 2 mins</title></rect><rect fill="#4dd5ff" height="2.6" width="2.6" x="87.0" y="45.5"><title>2022-05-30 6 mins</title></rect><rect fill="#4be2ff" height="2.6" width="2.6" x="87.0" y="49.0"><title>2022-05-31 25 mins</title></rect><rect fill="#4dd2ff" height="2.6" width="2.6" x="87.0" y="52.5"><title>2022-06-01 1 mins</title></rect><rect fill="#4bdfff" height="2.6" width="2.6" x="87.0" y="56.0"><title>2022-06-02 20 mins</title></rect><rect fill="#4ae5ff" height="2.6" width="2.6" x="87.0" y="59.5"><title>2022-06-03 28 mins</title></rect><rect fill="#4cd7ff" height="2.6" width="2.6" x="87.0" y="63.0"><title>2022-06-04 9 mins</title></rect><rect fill="#4be1ff" height="2.6" width="2.6" x="87.0" y="66.5"><title>2022-06-05 23 mins</title></rect><rect fill="#444444" height="2.6" width="2.6" x="90.5" y="45.5"><title>2022-06-06</title></rect><rect fill="#4dd3ff" height="2.6" width="2.6" x="90.5" y="49.0"><title>2022-06-07 3 mins</title></rect><rect fill="#444444" height="2.6" width="2.6" x="90.5" y="52.5"><title>2022-06-08</title></rect><rect fill="#4ae5ff" height="2.6" width="2.6" x="90.5" y="56.0"><title>2022-06-09 29 mins</title></rect><rect fill="#4dd2ff" height="2.6" width="2.6" x="90.5" y="59.5"><title>2022-06-10 1 mins</title></rect><rect fill="red" height="2.6" width="2.6" x="90.5" y="63.0"><title>2022-06-11 170 mins</title></rect><rect fill="#4cd7ff" height="2.6" width="2.6" x="90.5" y="66.5"><title>2022-06-12 9 mins</title></rect><rect fill="#4ae9ff" height="2.6" width="2.6" x="94.0" y="45.5"><title>2022-06-13 34 mins</title></rect><rect fill="#4cd6ff" height="2.6" width="2.6" x="94.0" y="49.0"><title>2022-06-14 7 mins</title></rect><rect fill="#4cdcff" height="2.6" width="2.6" x="94.0" y="52.5"><title>2022-06-15 15 mins</title></rect><rect fill="#4cd8ff" height="2.6" width="2.6" x="94.0" y="56.0"><title>2022-06-16 10 mins</title></rect><rect fill="#4dd3ff" height="2.6" width="2.6" x="94.0" y="59.5"><title>2022-06-17 2 mins</title></rect><rect fill="#4bdeff" height="2.6" width="2.6" x="94.0" y="63.0"><title>2022-06-18 19 mins</title></rect><rect fill="red" height="2.6" width="2.6" x="94.0" y="66.5"><title>2022-06-19 202 mins</title></rect><rect fill="#4cdcff" height="2.6" width="2.6" x="97.5" y="45.5"><title>2022-06-20 15 mins</title></rect><rect fill="#4dd4ff" height="2.6" width="2.6" x="97.5" y="49.0"><title>2022-06-21 4 mins</title></rect><rect fill="#4dd2ff" height="2.6" width="2.6" x="97.5" y="52.5"><title>2022-06-22 1 mins</title></rect><rect fill="#4cdaff" height="2.6" width="2.6" x="97.5" y="56.0"><title>2022-06-23 12 mins</title></rect><rect fill="#444444" height="2.6" width="2.6" x="97.5" y="59.5"><title>2022-06-24</title></rect><rect fill="#45fff3" height="2.6" width="2.6" x="97.5" y="63.0"><title>2022-06-25 82 mins</title></rect><rect fill="#49f1ff" height="2.6" width="2.6" x="97.5" y="66.5"><title>2022-06-26 45 mins</title></rect><rect fill="#4cdaff" height="2.6" width="2.6" x="101.0" y="45.5"><title>2022-06-27 13 mins</title></rect><rect fill="#4dd3ff" height="2.6" width="2.6" x="101.0" y="49.0"><title>2022-06-28 2 mins</title></rect><rect fill="#4ae6ff" height="2.6" width="2.6" x="101.0" y="52.5"><title>2022-06-29 30 mins</title></rect><rect fill="#4dd5ff" height="2.6" width="2.6" x="101.0" y="56.0"><title>2022-06-30 6 mins</title></rect><rect fill="#4ae5ff" height="2.6" width="2.6" x="101.0" y="59.5"><title>2022-07-01 28 mins</title></rect><rect fill="#49eeff" height="2.6" width="2.6" x="101.0" y="63.0"><title>2022-07-02 41 mins</title></rect><rect fill="#4bdeff" height="2.6" width="2.6" x="101.0" y="66.5"><title>2022-07-03 19 mins</title></rect><rect fill="#4be1ff" height="2.6" width="2.6" x="104.5" y="45.5"><title>2022-07-04 23 mins</title></rect><rect fill="#444444" height="2.6" width="2.6" x="104.5" y="49.0"><title>2022-07-05</title></rect><rect fill="#4cdbff" height="2.6" width="2.6" x="104.5" y="52.5"><title>2022-07-06 14 mins</title></rect><rect fill="#4dd3ff" height="2.6" width="2.6" x="104.5" y="56.0"><title>2022-07-07 3 mins</title></rect><rect fill="#4ae5ff" height="2.6" width="2.6" x="104.5" y="59.5"><title>2022-07-08 28 mins</title></rect><rect fill="#4dd5ff" height="2.6" width="2.6" x="104.5" y="63.0"><title>2022-07-09 6 mins</title></rect><rect fill="#ffd300" height="2.6" width="2.6" x="104.5" y="66.5"><title>2022-07-10 144 mins</title></rect><rect fill="#4cddff" height="2.6" width="2.6" x="108.0" y="45.5"><title>2022-07-11 17 mins</title></rect><rect fill="#4dd3ff" height="2.6" width="2.6" x="108.0" y="49.0"><title>2022-07-12 2 mins</title></rect><rect fill="#49eeff" height="2.6" width="2.6" x="108.0" y="52.5"><title>2022-07-13 41 mins</title></rect><rect fill="#4cdcff" height="2.6" width="2.6" x="108.0" y="56.0"><title>2022-07-14 16 mins</title></rect><rect fill="#4cdbff" height="2.6" width="2.6" x="108.0" y="59.5"><title>2022-07-15 14 mins</title></rect><rect fill="red" height="2.6" width="2.6" x="108.0" y="63.0"><title>2022-07-16 174 mins</title></rect><rect fill="#4cdbff" height="2.6" width="2.6" x="108.0" y="66.5"><title>2022-07-17 14 mins</title></rect><rect fill="#4be0ff" height="2.6" width="2.6" x="111.5" y="45.5"><title>2022-07-18 22 mins</title></rect><rect fill="#4dd3ff" height="2.6" width="2.6" x="111.5" y="49.0"><title>2022-07-19 3 mins</title></rect><rect fill="#4be1ff" height="2.6" width="2.6" x="111.5" y="52.5"><title>2022-07-20 23 mins</title></rect><rect fill="#48f7ff" height="2.6" width="2.6" x="111.5" y="56.0"><title>2022-07-21 54 mins</title></rect><rect fill="#4dd2ff" height="2.6" width="2.6" x="111.5" y="59.5"><title>2022-07-22 1 mins</title></rect><rect fill="#45fff1" height="2.6" width="2.6" x="111.5" y="63.0"><title>2022-07-23 84 mins</title></rect><rect fill="#4cddff" height="2.6" width="2.6" x="111.5" y="66.5"><title>2022-07-24 17 mins</title></rect><rect fill="#4dd2ff" height="2.6" width="2.6" x="115.0" y="45.5"><title>2022-07-25 1 mins</title></rect><rect fill="#49f3ff" height="2.6" width="2.6" x="115.0" y="49.0"><title>2022-07-26 48 mins</title></rect><rect fill="#4bdeff" height="2.6" width="2.6" x="115.0" y="52.5"><title>2022-07-27 18 mins</title></rect><rect fill="#4dd3ff" height="2.6" width="2.6" x="115.0" y="56.0"><title>2022-07-28 3 mins</title></rect><rect fill="#4dd4ff" height="2.6" width="2.6" x="115.0" y="59.5"><title>2022-07-29 4 mins</title></rect><rect fill="red" height="2.6" width="2.6" x="115.0" y="63.0"><title>2022-07-30 189 mins</title></rect><rect fill="#46fff3" height="2.6" width="2.6" x="115.0" y="66.5"><title>2022-07-31 81 mins</title></rect><rect fill="#49edff" height="2.6" width="2.6" x="118.5" y="45.5"><title>2022-08-01 40 mins</title></rect><rect fill="#47fcff" height="2.6" width="2.6" x="118.5" y="49.0"><title>2022-08-02 61 mins</title></rect><rect fill="#4be2ff" height="2.6" width="2.6" x="118.5" y="52.5"><title>2022-08-03 25 mins</title></rect><rect fill="#444444" height="2.6" width="2.6" x="118.5" y="56.0"><title>2022-08-04</title></rect><rect fill="#4dd3ff" height="2.6" width="2.6" x="118.5" y="59.5"><title>2022-08-05 2 mins</title></rect><rect fill="#49edff" height="2.6" width="2.6" x="118.5" y="63.0"><title>2022-08-06 40 mins</title></rect><rect fill="#ffde00" height="2.6" width="2.6" x="118.5" y="66.5"><title>2022-08-07 108 mins</title></rect><rect fill="#444444" height="2.6" width="2.6" x="122.0" y="45.5"><title>2022-08-08</title></rect><rect fill="#4dd3ff" height="2.6" width="2.6" x="122.0" y="49.0"><title>2022-08-09 3 mins</title></rect><rect fill="#444444" height="2.6" width="2.6" x="122.0" y="52.5"><title>2022-08-10</title></rect><rect fill="#4dd2ff" height="2.6" width="2.6" x="122.0" y="56.0"><title>2022-08-11 1 mins</title></rect><rect fill="#444444" height="2.6" width="2.6" x="122.0" y="59.5"><title>2022-08-12</title></rect><rect fill="#ffd200" height="2.6" width="2.6" x="122.0" y="63.0"><title>2022-08-13 148 mins</title></rect><rect fill="#444444" height="2.6" width="2.6" x="122.0" y="66.5"><title>2022-08-14</title></rect><rect fill="#4cd6ff" height="2.6" width="2.6" x="125.5" y="45.5"><title>2022-08-15 7 mins</title></rect><rect fill="#444444" height="2.6" width="2.6" x="125.5" y="49.0"><title>2022-08-16</title></rect><rect fill="#4ae9ff" height="2.6" width="2.6" x="125.5" y="52.5"><title>2022-08-17 34 mins</title></rect><rect fill="#4cd7ff" height="2.6" width="2.6" x="125.5" y="56.0"><title>2022-08-18 9 mins</title></rect><rect fill="#444444" height="2.6" width="2.6" x="125.5" y="59.5"><title>2022-08-19</title></rect><rect fill="#ffe000" height="2.6" width="2.6" x="125.5" y="63.0"><title>2022-08-20 101 mins</title></rect><rect fill="#ffd900" height="2.6" width="2.6" x="125.5" y="66.5"><title>2022-08-21 123 mins</title></rect><rect fill="#444444" height="2.6" width="2.6" x="129.0" y="45.5"><title>2022-08-22</title></rect><rect fill="#47ffff" height="2.6" width="2.6" x="129.0" y="49.0"><title>2022-08-23 65 mins</title></rect><rect fill="#444444" height="2.6" width="2.6" x="129.0" y="52.5"><title>2022-08-24</title></rect><rect fill="#4cdcff" height="2.6" width="2.6" x="129.0" y="56.0"><title>2022-08-25 15 mins</title></rect><rect fill="#4cd7ff" height="2.6" width="2.6" x="129.0" y="59.5"><title>2022-08-26 8 mins</title></rect><rect fill="#45fff3" height="2.6" width="2.6" x="129.0" y="63.0"><title>2022-08-27 82 mins</title></rect><rect fill="#4cd6ff" height="2.6" width="2.6" x="129.0" y="66.5"><title>2022-08-28 7 mins</title></rect><rect fill="#4dd3ff" height="2.6" width="2.6" x="132.5" y="45.5"><title>2022-08-29 2 mins</title></rect><rect fill="#444444" height="2.6" width="2.6" x="132.5" y="49.0"><title>2022-08-30</title></rect><rect fill="#4dd3ff" height="2.6" width="2.6" x="132.5" y="52.5"><title>2022-08-31 3 mins</title></rect><rect fill="#4cdcff" height="2.6" width="2.6" x="132.5" y="56.0"><title>2022-09-01 16 mins</title></rect><rect fill="#4cdcff" height="2.6" width="2.6" x="132.5" y="59.5"><title>2022-09-02 15 mins</title></rect><rect fill="red" height="2.6" width="2.6" x="132.5" y="63.0"><title>2022-09-03 216 mins</title></rect><rect fill="#4aecff" height="2.6" width="2.6" x="132.5" y="66.5"><title>2022-09-04 38 mins</title></rect><rect fill="#4cd9ff" height="2.6" width="2.6" x="136.0" y="45.5"><title>2022-09-05 11 mins</title></rect><rect fill="#444444" height="2.6" width="2.6" x="136.0" y="49.0"><title>2022-09-06</title></rect><rect fill="#4aebff" height="2.6" width="2.6" x="136.0" y="52.5"><title>2022-09-07 37 mins</title></rect><rect fill="#4dd3ff" height="2.6" width="2.6" x="136.0" y="56.0"><title>2022-09-08 3 mins</title></rect><rect fill="#4cd6ff" height="2.6" width="2.6" x="136.0" y="59.5"><title>2022-09-09 7 mins</title></rect><rect fill="#4dd3ff" height="2.6" width="2.6" x="136.0" y="63.0"><title>2022-09-10 2 mins</title></rect><rect fill="#4cddff" height="2.6" width="2.6" x="136.0" y="66.5"><title>2022-09-11 17 mins</title></rect><rect fill="#444444" height="2.6" width="2.6" x="139.5" y="45.5"><title>2022-09-12</title></rect><rect fill="#4dd3ff" height="2.6" width="2.6" x="139.5" y="49.0"><title>2022-09-13 2 mins</title></rect><rect fill="#4cdaff" height="2.6" width="2.6" x="139.5" y="52.5"><title>2022-09-14 13 mins</title></rect><rect fill="#4be0ff" height="2.6" width="2.6" x="139.5" y="56.0"><title>2022-09-15 22 mins</title></rect><rect fill="#4be3ff" height="2.6" width="2.6" x="139.5" y="59.5"><title>2022-09-16 26 mins</title></rect><rect fill="#4aebff" height="2.6" width="2.6" x="139.5" y="63.0"><title>2022-09-17 37 mins</title></rect><rect fill="#4ae9ff" height="2.6" width="2.6" x="139.5" y="66.5"><title>2022-09-18 34 mins</title></rect><rect fill="#4dd4ff" height="2.6" width="2.6" x="143.0" y="45.5"><title>2022-09-19 4 mins</title></rect><rect fill="#444444" height="2.6" width="2.6" x="143.0" y="49.0"><title>2022-09-20</title></rect><rect fill="#4dd2ff" height="2.6" width="2.6" x="143.0" y="52.5"><title>2022-09-21 1 mins</title></rect><rect fill="#4dd3ff" height="2.6" width="2.6" x="143.0" y="56.0"><title>2022-09-22 2 mins</title></rect><rect fill="#49eeff" height="2.6" width="2.6" x="143.0" y="59.5"><title>2022-09-23 41 mins</title></rect><rect fill="#4ae5ff" height="2.6" width="2.6" x="143.0" y="63.0"><title>2022-09-24 29 mins</title></rect><rect fill="#ffda00" height="2.6" width="2.6" x="143.0" y="66.5"><title>2022-09-25 120 mins</title></rect><rect fill="#4cdaff" height="2.6" width="2.6" x="146.5" y="45.5"><title>2022-09-26 12 mins</title></rect><rect fill="#4dd5ff" height="2.6" width="2.6" x="146.5" y="49.0"><title>2022-09-27 6 mins</title></rect><rect fill="#4be0ff" height="2.6" width="2.6" x="146.5" y="52.5"><title>2022-09-28 21 mins</title></rect><rect fill="#4cdaff" height="2.6" width="2.6" x="146.5" y="56.0"><title>2022-09-29 12 mins</title></rect><rect fill="#4cd7ff" height="2.6" width="2.6" x="146.5" y="59.5"><title>2022-09-30 9 mins</title></rect><rect fill="#4cd6ff" height="2.6" width="2.6" x="146.5" y="63.0"><title>2022-10-01 7 mins</title></rect><rect fill="#4dd3ff" height="2.6" width="2.6" x="146.5" y="66.5"><title>2022-10-02 2 mins</title></rect><rect fill="#4aeaff" height="2.6" width="2.6" x="150.0" y="45.5"><title>2022-10-03 36 mins</title></rect><rect fill="#4cd9ff" height="2.6" width="2.6" x="150.0" y="49.0"><title>2022-10-04 11 mins</title></rect><rect fill="#49eeff" height="2.6" width="2.6" x="150.0" y="52.5"><title>2022-10-05 42 mins</title></rect><rect fill="#ffdc00" height="2.6" width="2.6" x="150.0" y="56.0"><title>2022-10-06 115 mins</title></rect><rect fill="#4dd2ff" height="2.6" width="2.6" x="150.0" y="59.5"><title>2022-10-07 1 mins</title></rect><rect fill="#ffd400" height="2.6" width="2.6" x="150.0" y="63.0"><title>2022-10-08 139 mins</title></rect><rect fill="#4be0ff" height="2.6" width="2.6" x="150.0" y="66.5"><title>2022-10-09 21 mins</title></rect><rect fill="#444444" height="2.6" width="2.6" x="153.5" y="45.5"><title>2022-10-10</title></rect><rect fill="#47fffd" height="2.6" width="2.6" x="153.5" y="49.0"><title>2022-10-11 68 mins</title></rect><rect fill="#4dd3ff" height="2.6" width="2.6" x="153.5" y="52.5"><title>2022-10-12 3 mins</title></rect><rect fill="#46fff9" height="2.6" width="2.6" x="153.5" y="56.0"><title>2022-10-13 74 mins</title></rect><rect fill="#4dd2ff" height="2.6" width="2.6" x="153.5" y="59.5"><title>2022-10-14 1 mins</title></rect><rect fill="red" height="2.6" width="2.6" x="153.5" y="63.0"><title>2022-10-15 163 mins</title></rect><rect fill="#444444" height="2.6" width="2.6" x="153.5" y="66.5"><title>2022-10-16</title></rect><rect fill="#47feff" height="2.6" width="2.6" x="157.0" y="45.5"><title>2022-10-17 64 mins</title></rect><rect fill="#4cdbff" height="2.6" width="2.6" x="157.0" y="49.0"><title>2022-10-18 14 mins</title></rect><rect fill="#4cdaff" height="2.6" width="2.6" x="157.0" y="52.5"><title>2022-10-19 13 mins</title></rect><rect fill="#ffe100" height="2.6" width="2.6" x="157.0" y="56.0"><title>2022-10-20 99 mins</title></rect><rect fill="#49f1ff" height="2.6" width="2.6" x="157.0" y="59.5"><title>2022-10-21 46 mins</title></rect><rect fill="red" height="2.6" width="2.6" x="157.0" y="63.0"><title>2022-10-22 154 mins</title></rect><rect fill="#4be0ff" height="2.6" width="2.6" x="157.0" y="66.5"><title>2022-10-23 21 mins</title></rect><rect fill="#4aeaff" height="2.6" width="2.6" x="160.5" y="45.5"><title>2022-10-24 36 mins</title></rect><rect fill="#444444" height="2.6" width="2.6" x="160.5" y="49.0"><title>2022-10-25</title></rect><rect fill="#4be3ff" height="2.6" width="2.6" x="160.5" y="52.5"><title>2022-10-26 26 mins</title></rect><rect fill="#4be2ff" height="2.6" width="2.6" x="160.5" y="56.0"><title>2022-10-27 25 mins</title></rect><rect fill="#45ffed" height="2.6" width="2.6" x="160.5" y="59.5"><title>2022-10-28 90 mins</title></rect><rect fill="#ffd700" height="2.6" width="2.6" x="160.5" y="63.0"><title>2022-10-29 132 mins</title></rect><rect fill="#48f8ff" height="2.6" width="2.6" x="160.5" y="66.5"><title>2022-10-30 55 mins</title></rect><rect fill="#4be2ff" height="2.6" width="2.6" x="164.0" y="45.5"><title>2022-10-31 25 mins</title></rect><rect fill="#49efff" height="2.6" width="2.6" x="164.0" y="49.0"><title>2022-11-01 43 mins</title></rect><rect fill="#4cdbff" height="2.6" width="2.6" x="164.0" y="52.5"><title>2022-11-02 14 mins</title></rect><rect fill="#ffda00" height="2.6" width="2.6" x="164.0" y="56.0"><title>2022-11-03 121 mins</title></rect><rect fill="#4aeaff" height="2.6" width="2.6" x="164.0" y="59.5"><title>2022-11-04 36 mins</title></rect><rect fill="#ffdd00" height="2.6" width="2.6" x="164.0" y="63.0"><title>2022-11-05 110 mins</title></rect><rect fill="#4be0ff" height="2.6" width="2.6" x="164.0" y="66.5"><title>2022-11-06 22 mins</title></rect><rect fill="#48f6ff" height="2.6" width="2.6" x="167.5" y="45.5"><title>2022-11-07 53 mins</title></rect><rect fill="#4bdfff" height="2.6" width="2.6" x="167.5" y="49.0"><title>2022-11-08 20 mins</title></rect><rect fill="#4cd7ff" height="2.6" width="2.6" x="167.5" y="52.5"><title>2022-11-09 8 mins</title></rect><rect fill="#4cd8ff" height="2.6" width="2.6" x="167.5" y="56.0"><title>2022-11-10 10 mins</title></rect><rect fill="#ffe100" height="2.6" width="2.6" x="167.5" y="59.5"><title>2022-11-11 97 mins</title></rect><rect fill="#ffd600" height="2.6" width="2.6" x="167.5" y="63.0"><title>2022-11-12 134 mins</title></rect><rect fill="#45ffef" height="2.6" width="2.6" x="167.5" y="66.5"><title>2022-11-13 87 mins</title></rect><rect fill="#4dd2ff" height="2.6" width="2.6" x="171.0" y="45.5"><title>2022-11-14 1 mins</title></rect><rect fill="#49f3ff" height="2.6" width="2.6" x="171.0" y="49.0"><title>2022-11-15 49 mins</title></rect><rect fill="#4cdbff" height="2.6" width="2.6" x="171.0" y="52.5"><title>2022-11-16 14 mins</title></rect><rect fill="#49f3ff" height="2.6" width="2.6" x="171.0" y="56.0"><title>2022-11-17 49 mins</title></rect><rect fill="#4dd5ff" height="2.6" width="2.6" x="171.0" y="59.5"><title>2022-11-18 6 mins</title></rect><rect fill="#ffe100" height="2.6" width="2.6" x="171.0" y="63.0"><title>2022-11-19 99 mins</title></rect><rect fill="#4ae7ff" height="2.6" width="2.6" x="171.0" y="66.5"><title>2022-11-20 32 mins</title></rect><rect fill="#ffe000" height="2.6" width="2.6" x="174.5" y="45.5"><title>2022-11-21 101 mins</title></rect><rect fill="#49f2ff" height="2.6" width="2.6" x="174.5" y="49.0"><title>2022-11-22 47 mins</title></rect><rect fill="#4bdeff" height="2.6" width="2.6" x="174.5" y="52.5"><title>2022-11-23 19 mins</title></rect><rect fill="#4dd5ff" height="2.6" width="2.6" x="174.5" y="56.0"><title>2022-11-24 5 mins</title></rect><rect fill="#ffe200" height="2.6" width="2.6" x="174.5" y="59.5"><title>2022-11-25 95 mins</title></rect><rect fill="red" height="2.6" width="2.6" x="174.5" y="63.0"><title>2022-11-26 152 mins</title></rect><rect fill="#4ae7ff" height="2.6" width="2.6" x="174.5" y="66.5"><title>2022-11-27 31 mins</title></rect><rect fill="#ffe200" height="2.6" width="2.6" x="178.0" y="45.5"><title>2022-11-28 96 mins</title></rect><rect fill="#ffdb00" height="2.6" width="2.6" x="178.0" y="49.0"><title>2022-11-29 119 mins</title></rect><rect fill="#ffe200" height="2.6" width="2.6" x="178.0" y="52.5"><title>2022-11-30 94 mins</title></rect><rect fill="#4cd7ff" height="2.6" width="2.6" x="178.0" y="56.0"><title>2022-12-01 9 mins</title></rect><rect fill="#46fff7" height="2.6" width="2.6" x="178.0" y="59.5"><title>2022-12-02 76 mins</title></rect><rect fill="red" height="2.6" width="2.6" x="178.0" y="63.0"><title>2022-12-03 174 mins</title></rect><rect fill="#4cdcff" height="2.6" width="2.6" x="178.0" y="66.5"><title>2022-12-04 16 mins</title></rect><rect fill="#4cd7ff" height="2.6" width="2.6" x="181.5" y="45.5"><title>2022-12-05 8 mins</title></rect><rect fill="#4bdeff" height="2.6" width="2.6" x="181.5" y="49.0"><title>2022-12-06 19 mins</title></rect><rect fill="#4cd7ff" height="2.6" width="2.6" x="181.5" y="52.5"><title>2022-12-07 8 mins</title></rect><rect fill="#45ffed" height="2.6" width="2.6" x="181.5" y="56.0"><title>2022-12-08 90 mins</title></rect><rect fill="#4cddff" height="2.6" width="2.6" x="181.5" y="59.5"><title>2022-12-09 17 mins</title></rect><rect fill="red" height="2.6" width="2.6" x="181.5" y="63.0"><title>2022-12-10 160 mins</title></rect><rect fill="#4ae6ff" height="2.6" width="2.6" x="181.5" y="66.5"><title>2022-12-11 30 mins</title></rect><rect fill="#46fff9" height="2.6" width="2.6" x="185.0" y="45.5"><title>2022-12-12 74 mins</title></rect><rect fill="#47feff" height="2.6" width="2.6" x="185.0" y="49.0"><title>2022-12-13 64 mins</title></rect><rect fill="#ffe100" height="2.6" width="2.6" x="185.0" y="52.5"><title>2022-12-14 99 mins</title></rect><rect fill="#ffde00" height="2.6" width="2.6" x="185.0" y="56.0"><title>2022-12-15 107 mins</title></rect><rect fill="#4cdaff" height="2.6" width="2.6" x="185.0" y="59.5"><title>2022-12-16 12 mins</title></rect><rect fill="#ffd400" height="2.6" width="2.6" x="185.0" y="63.0"><title>2022-12-17 140 mins</title></rect><rect fill="#4cd9ff" height="2.6" width="2.6" x="185.0" y="66.5"><title>2022-12-18 11 mins</title></rect><rect fill="#ffd900" height="2.6" width="2.6" x="188.5" y="45.5"><title>2022-12-19 123 mins</title></rect><rect fill="#ffdd00" height="2.6" width="2.6" x="188.5" y="49.0"><title>2022-12-20 110 mins</title></rect><rect fill="#46fff8" height="2.6" width="2.6" x="188.5" y="52.5"><title>2022-12-21 75 mins</title></rect><rect fill="#444444" height="2.6" width="2.6" x="188.5" y="56.0"><title>2022-12-22</title></rect><rect fill="#49f2ff" height="2.6" width="2.6" x="188.5" y="59.5"><title>2022-12-23 47 mins</title></rect><rect fill="#49f1ff" height="2.6" width="2.6" x="188.5" y="63.0"><title>2022-12-24 45 mins</title></rect><rect fill="#ffe100" height="2.6" width="2.6" x="188.5" y="66.5"><title>2022-12-25 98 mins</title></rect><rect fill="#4ae6ff" height="2.6" width="2.6" x="192.0" y="45.5"><title>2022-12-26 30 mins</title></rect><rect fill="#47fbff" height="2.6" width="2.6" x="192.0" y="49.0"><title>2022-12-27 60 mins</title></rect><rect fill="#ffdc00" height="2.6" width="2.6" x="192.0" y="52.5"><title>2022-12-28 115 mins</title></rect><rect fill="#ffe000" height="2.6" width="2.6" x="192.0" y="56.0"><title>2022-12-29 101 mins</title></rect><rect fill="#46fff6" height="2.6" width="2.6" x="192.0" y="59.5"><title>2022-12-30 78 mins</title></rect><rect fill="#4bdfff" height="2.6" width="2.6" x="192.0" y="63.0"><title>2022-12-31 20 mins</title></rect></svg>