<?xml version="1.0" encoding="utf-8" ?>
<svg baseProfile="full" height="78mm" version="1.1" viewBox="0,0,200,78" width="200mm" xmlns="http://www.w3.org/2000/svg" xmlns:ev="http://www.w3.org/2001/xml-events" xmlns:xlink="http://www.w3.org/1999/xlink"><defs /><rect fill="#222222" height="78" width="200" x="0" y="0" /><text fill="#FFFFFF" style="font-size:12px; font-family:Arial; font-weight:bold;" x="10" y="20">rip-tyang apple_health</text><text dominant-baseline="hanging" fill="#FFFFFF" style="font-size:10.0px; font-family:Arial;" x="10" y="30">2018</text><text dominant-baseline="hanging" fill="#FFFFFF" style="font-size:4.125px; font-family:Arial;" x="175" y="35">240754 kCal</text><text fill="#FFFFFF" style="font-size:2.5px; font-family:Arial" x="10.0" y="44">Jan</text><text fill="#FFFFFF" style="font-size:2.5px; font-family:Arial" x="25.5" y="44">Feb</text><text fill="#FFFFFF" style="font-size:2.5px; font-family:Arial" x="41.0" y="44">Mar</text><text fill="#FFFFFF" style="font-size:2.5px; font-family:Arial" x="56.5" y="44">Apr</text><text fill="#FFFFFF" style="font-size:2.5px; font-family:Arial" x="72.0" y="44">May</text><text fill="#FFFFFF" style="font-size:2.5px; font-family:Arial" x="87.5" y="44">Jun</text><text fill="#FFFFFF" style="font-size:2.5px; font-family:Arial" x="103.0" y="44">Jul</text><text fill="#FFFFFF" style="font-size:2.5px; font-family:Arial" x="118.5" y="44">Aug</text><text fill="#FFFFFF" style="font-size:2.5px; font-family:Arial" x="134.0" y="44">Sep</text><text fill="#FFFFFF" style="font-size:2.5px; font-family:Arial" x="149.5" y="44">Oct</text><text fill="#FFFFFF" style="font-size:2.5px; font-family:Arial" x="165.0" y="44">Nov</text><text fill="#FFFFFF" style="font-size:2.5px; font-family:Arial" x="180.5" y="44">Dec</text><rect fill="#45ffeb" height="2.6" width="2.6" x="10.0" y="45.5"><title>2018-01-01 364 kCal</title></rect><rect fill="#ffce00" height="2.6" width="2.6" x="10.0" y="49.0"><title>2018-01-02 632 kCal</title></rect><rect fill="#43ffe1" height="2.6" width="2.6" x="10.0" y="52.5"><title>2018-01-03 422 kCal</title></rect><rect fill="#4ae9ff" height="2.6" width="2.6" x="10.0" y="56.0"><title>2018-01-04 133 kCal</title></rect><rect fill="#ffd400" height="2.6" width="2.6" x="10.0" y="59.5"><title>2018-01-05 557 kCal</title></rect><rect fill="#48fbff" height="2.6" width="2.6" x="10.0" y="63.0"><title>2018-01-06 236 kCal</title></rect><rect fill="#4cdcff" height="2.6" width="2.6" x="10.0" y="66.5"><title>2018-01-07 64 kCal</title></rect><rect fill="#ffc900" height="2.6" width="2.6" x="13.5" y="45.5"><title>2018-01-08 699 kCal</title></rect><rect fill="#41ffd0" height="2.6" width="2.6" x="13.5" y="49.0"><title>2018-01-09 506 kCal</title></rect><rect fill="#4ae6ff" height="2.6" width="2.6" x="13.5" y="52.5"><title>2018-01-10 121 kCal</title></rect><rect fill="#43ffdf" height="2.6" width="2.6" x="13.5" y="56.0"><title>2018-01-11 432 kCal</title></rect><rect fill="#ffd200" height="2.6" width="2.6" x="13.5" y="59.5"><title>2018-01-12 578 kCal</title></rect><rect fill="#49f0ff" height="2.6" width="2.6" x="13.5" y="63.0"><title>2018-01-13 173 kCal</title></rect><rect fill="red" height="2.6" width="2.6" x="13.5" y="66.5"><title>2018-01-14 1133 kCal</title></rect><rect fill="#45fff1" height="2.6" width="2.6" x="17.0" y="45.5"><title>2018-01-15 335 kCal</title></rect><rect fill="red" height="2.6" width="2.6" x="17.0" y="49.0"><title>2018-01-16 1388 kCal</title></rect><rect fill="#ffd300" height="2.6" width="2.6" x="17.0" y="52.5"><title>2018-01-17 564 kCal</title></rect><rect fill="red" height="2.6" width="2.6" x="17.0" y="56.0"><title>2018-01-18 1014 kCal</title></rect><rect fill="#42ffd7" height="2.6" width="2.6" x="17.0" y="59.5"><title>2018-01-19 472 kCal</title></rect><rect fill="red" height="2.6" width="2.6" x="17.0" y="63.0"><title>2018-01-20 2069 kCal</title></rect><rect fill="#ffc900" height="2.6" width="2.6" x="17.0" y="66.5"><title>2018-01-21 697 kCal</title></rect><rect fill="#ffd100" height="2.6" width="2.6" x="20.5" y="45.5"><title>2018-01-22 601 kCal</title></rect><rect fill="#ffd000" height="2.6" width="2.6" x="20.5" y="49.0"><title>2018-01-23 608 kCal</title></rect><rect fill="#40ffc8" height="2.6" width="2.6" x="20.5" y="52.5"><title>2018-01-24 550 kCal</title></rect><rect fill="#ffd400" height="2.6" width="2.6" x="20.5" y="56.0"><title>2018-01-25 562 kCal</title></rect><rect fill="#ffc700" height="2.6" width="2.6" x="20.5" y="59.5"><title>2018-01-26 723 kCal</title></rect><rect fill="#42ffd5" height="2.6" width="2.6" x="20.5" y="63.0"><title>2018-01-27 481 kCal</title></rect><rect fill="#42ffdb" height="2.6" width="2.6" x="20.5" y="66.5"><title>2018-01-28 452 kCal</title></rect><rect fill="#ffcd00" height="2.6" width="2.6" x="24.0" y="45.5"><title>2018-01-29 642 kCal</title></rect><rect fill="#ffbb00" height="2.6" width="2.6" x="24.0" y="49.0"><title>2018-01-30 883 kCal</title></rect><rect fill="#40ffc9" height="2.6" width="2.6" x="24.0" y="52.5"><title>2018-01-31 545 kCal</title></rect><rect fill="red" height="2.6" width="2.6" x="24.0" y="56.0"><title>2018-02-01 1112 kCal</title></rect><rect fill="#42ffd8" height="2.6" width="2.6" x="24.0" y="59.5"><title>2018-02-02 466 kCal</title></rect><rect fill="red" height="2.6" width="2.6" x="24.0" y="63.0"><title>2018-02-03 1938 kCal</title></rect><rect fill="red" height="2.6" width="2.6" x="24.0" y="66.5"><title>2018-02-04 1636 kCal</title></rect><rect fill="#41ffcf" height="2.6" width="2.6" x="27.5" y="45.5"><title>2018-02-05 513 kCal</title></rect><rect fill="#ffcd00" height="2.6" width="2.6" x="27.5" y="49.0"><title>2018-02-06 645 kCal</title></rect><rect fill="#ffd000" height="2.6" width="2.6" x="27.5" y="52.5"><title>2018-02-07 610 kCal</title></rect><rect fill="#42ffd9" height="2.6" width="2.6" x="27.5" y="56.0"><title>2018-02-08 461 kCal</title></rect><rect fill="#44ffe8" height="2.6" width="2.6" x="27.5" y="59.5"><title>2018-02-09 381 kCal</title></rect><rect fill="#45fff0" height="2.6" width="2.6" x="27.5" y="63.0"><title>2018-02-10 341 kCal</title></rect><rect fill="#46fffa" height="2.6" width="2.6" x="27.5" y="66.5"><title>2018-02-11 285 kCal</title></rect><rect fill="#49f3ff" height="2.6" width="2.6" x="31.0" y="45.5"><title>2018-02-12 193 kCal</title></rect><rect fill="#ffb900" height="2.6" width="2.6" x="31.0" y="49.0"><title>2018-02-13 907 kCal</title></rect><rect fill="#ffcb00" height="2.6" width="2.6" x="31.0" y="52.5"><title>2018-02-14 673 kCal</title></rect><rect fill="#ffd200" height="2.6" width="2.6" x="31.0" y="56.0"><title>2018-02-15 583 kCal</title></rect><rect fill="#ffcc00" height="2.6" width="2.6" x="31.0" y="59.5"><title>2018-02-16 664 kCal</title></rect><rect fill="red" height="2.6" width="2.6" x="31.0" y="63.0"><title>2018-02-17 1327 kCal</title></rect><rect fill="red" height="2.6" width="2.6" x="31.0" y="66.5"><title>2018-02-18 1371 kCal</title></rect><rect fill="#ffd200" height="2.6" width="2.6" x="34.5" y="45.5"><title>2018-02-19 578 kCal</title></rect><rect fill="#41ffcc" height="2.6" width="2.6" x="34.5" y="49.0"><title>2018-02-20 527 kCal</title></rect><rect fill="#ffd200" height="2.6" width="2.6" x="34.5" y="52.5"><title>2018-02-21 580 kCal</title></rect><rect fill="red" height="2.6" width="2.6" x="34.5" y="56.0"><title>2018-02-22 2726 kCal</title></rect><rect fill="#41ffd2" height="2.6" width="2.6" x="34.5" y="59.5"><title>2018-02-23 498 kCal</title></rect><rect fill="#43ffe0" height="2.6" width="2.6" x="34.5" y="63.0"><title>2018-02-24 427 kCal</title></rect><rect fill="#ffb900" height="2.6" width="2.6" x="34.5" y="66.5"><title>2018-02-25 905 kCal</title></rect><rect fill="#41ffcd" height="2.6" width="2.6" x="38.0" y="45.5"><title>2018-02-26 524 kCal</title></rect><rect fill="#40ffc8" height="2.6" width="2.6" x="38.0" y="49.0"><title>2018-02-27 551 kCal</title></rect><rect fill="#42ffda" height="2.6" width="2.6" x="38.0" y="52.5"><title>2018-02-28 458 kCal</title></rect><rect fill="#42ffd9" height="2.6" width="2.6" x="38.0" y="56.0"><title>2018-03-01 461 kCal</title></rect><rect fill="#4cdaff" height="2.6" width="2.6" x="38.0" y="59.5"><title>2018-03-02 47 kCal</title></rect><rect fill="#ffb700" height="2.6" width="2.6" x="38.0" y="63.0"><title>2018-03-03 926 kCal</title></rect><rect fill="#45ffef" height="2.6" width="2.6" x="38.0" y="66.5"><title>2018-03-04 346 kCal</title></rect><rect fill="#ffcb00" height="2.6" width="2.6" x="41.5" y="45.5"><title>2018-03-05 678 kCal</title></rect><rect fill="#ffd100" height="2.6" width="2.6" x="41.5" y="49.0"><title>2018-03-06 592 kCal</title></rect><rect fill="#41ffcf" height="2.6" width="2.6" x="41.5" y="52.5"><title>2018-03-07 511 kCal</title></rect><rect fill="#43ffdf" height="2.6" width="2.6" x="41.5" y="56.0"><title>2018-03-08 431 kCal</title></rect><rect fill="#40ffc8" height="2.6" width="2.6" x="41.5" y="59.5"><title>2018-03-09 549 kCal</title></rect><rect fill="red" height="2.6" width="2.6" x="41.5" y="63.0"><title>2018-03-10 1261 kCal</title></rect><rect fill="red" height="2.6" width="2.6" x="41.5" y="66.5"><title>2018-03-11 1150 kCal</title></rect><rect fill="#41ffd3" height="2.6" width="2.6" x="45.0" y="45.5"><title>2018-03-12 494 kCal</title></rect><rect fill="#42ffd7" height="2.6" width="2.6" x="45.0" y="49.0"><title>2018-03-13 474 kCal</title></rect><rect fill="#43ffdc" height="2.6" width="2.6" x="45.0" y="52.5"><title>2018-03-14 446 kCal</title></rect><rect fill="#43ffdc" height="2.6" width="2.6" x="45.0" y="56.0"><title>2018-03-15 444 kCal</title></rect><rect fill="#ffcf00" height="2.6" width="2.6" x="45.0" y="59.5"><title>2018-03-16 622 kCal</title></rect><rect fill="#46fff4" height="2.6" width="2.6" x="45.0" y="63.0"><title>2018-03-17 317 kCal</title></rect><rect fill="#46fff6" height="2.6" width="2.6" x="45.0" y="66.5"><title>2018-03-18 307 kCal</title></rect><rect fill="#41ffd0" height="2.6" width="2.6" x="48.5" y="45.5"><title>2018-03-19 506 kCal</title></rect><rect fill="#ffcc00" height="2.6" width="2.6" x="48.5" y="49.0"><title>2018-03-20 658 kCal</title></rect><rect fill="#41ffcb" height="2.6" width="2.6" x="48.5" y="52.5"><title>2018-03-21 534 kCal</title></rect><rect fill="#ffd200" height="2.6" width="2.6" x="48.5" y="56.0"><title>2018-03-22 581 kCal</title></rect><rect fill="#ffd000" height="2.6" width="2.6" x="48.5" y="59.5"><title>2018-03-23 614 kCal</title></rect><rect fill="red" height="2.6" width="2.6" x="48.5" y="63.0"><title>2018-03-24 1871 kCal</title></rect><rect fill="red" height="2.6" width="2.6" x="48.5" y="66.5"><title>2018-03-25 1028 kCal</title></rect><rect fill="#ffd200" height="2.6" width="2.6" x="52.0" y="45.5"><title>2018-03-26 583 kCal</title></rect><rect fill="#ffcc00" height="2.6" width="2.6" x="52.0" y="49.0"><title>2018-03-27 655 kCal</title></rect><rect fill="#42ffd6" height="2.6" width="2.6" x="52.0" y="52.5"><title>2018-03-28 479 kCal</title></rect><rect fill="#42ffd4" height="2.6" width="2.6" x="52.0" y="56.0"><title>2018-03-29 487 kCal</title></rect><rect fill="#ffc200" height="2.6" width="2.6" x="52.0" y="59.5"><title>2018-03-30 789 kCal</title></rect><rect fill="#ffd300" height="2.6" width="2.6" x="52.0" y="63.0"><title>2018-03-31 574 kCal</title></rect><rect fill="#ffc400" height="2.6" width="2.6" x="52.0" y="66.5"><title>2018-04-01 757 kCal</title></rect><rect fill="red" height="2.6" width="2.6" x="55.5" y="45.5"><title>2018-04-02 1196 kCal</title></rect><rect fill="#41ffd0" height="2.6" width="2.6" x="55.5" y="49.0"><title>2018-04-03 507 kCal</title></rect><rect fill="#ffd300" height="2.6" width="2.6" x="55.5" y="52.5"><title>2018-04-04 567 kCal</title></rect><rect fill="#42ffd3" height="2.6" width="2.6" x="55.5" y="56.0"><title>2018-04-05 493 kCal</title></rect><rect fill="#42ffd4" height="2.6" width="2.6" x="55.5" y="59.5"><title>2018-04-06 486 kCal</title></rect><rect fill="#ffb700" height="2.6" width="2.6" x="55.5" y="63.0"><title>2018-04-07 932 kCal</title></rect><rect fill="#42ffd6" height="2.6" width="2.6" x="55.5" y="66.5"><title>2018-04-08 475 kCal</title></rect><rect fill="#ffd400" height="2.6" width="2.6" x="59.0" y="45.5"><title>2018-04-09 559 kCal</title></rect><rect fill="#ffcf00" height="2.6" width="2.6" x="59.0" y="49.0"><title>2018-04-10 616 kCal</title></rect><rect fill="#41ffcd" height="2.6" width="2.6" x="59.0" y="52.5"><title>2018-04-11 524 kCal</title></rect><rect fill="#ffc400" height="2.6" width="2.6" x="59.0" y="56.0"><title>2018-04-12 760 kCal</title></rect><rect fill="#ffcf00" height="2.6" width="2.6" x="59.0" y="59.5"><title>2018-04-13 618 kCal</title></rect><rect fill="red" height="2.6" width="2.6" x="59.0" y="63.0"><title>2018-04-14 1583 kCal</title></rect><rect fill="red" height="2.6" width="2.6" x="59.0" y="66.5"><title>2018-04-15 1451 kCal</title></rect><rect fill="#ffc900" height="2.6" width="2.6" x="62.5" y="45.5"><title>2018-04-16 696 kCal</title></rect><rect fill="red" height="2.6" width="2.6" x="62.5" y="49.0"><title>2018-04-17 982 kCal</title></rect><rect fill="#ffd300" height="2.6" width="2.6" x="62.5" y="52.5"><title>2018-04-18 574 kCal</title></rect><rect fill="#42ffd4" height="2.6" width="2.6" x="62.5" y="56.0"><title>2018-04-19 487 kCal</title></rect><rect fill="#40ffc9" height="2.6" width="2.6" x="62.5" y="59.5"><title>2018-04-20 545 kCal</title></rect><rect fill="#44ffe4" height="2.6" width="2.6" x="62.5" y="63.0"><title>2018-04-21 404 kCal</title></rect><rect fill="#43ffde" height="2.6" width="2.6" x="62.5" y="66.5"><title>2018-04-22 435 kCal</title></rect><rect fill="#ffcc00" height="2.6" width="2.6" x="66.0" y="45.5"><title>2018-04-23 656 kCal</title></rect><rect fill="#45ffed" height="2.6" width="2.6" x="66.0" y="49.0"><title>2018-04-24 358 kCal</title></rect><rect fill="#ffb800" height="2.6" width="2.6" x="66.0" y="52.5"><title>2018-04-25 922 kCal</title></rect><rect fill="#ffcc00" height="2.6" width="2.6" x="66.0" y="56.0"><title>2018-04-26 666 kCal</title></rect><rect fill="#ffbf00" height="2.6" width="2.6" x="66.0" y="59.5"><title>2018-04-27 827 kCal</title></rect><rect fill="#ffb700" height="2.6" width="2.6" x="66.0" y="63.0"><title>2018-04-28 929 kCal</title></rect><rect fill="#43ffdc" height="2.6" width="2.6" x="66.0" y="66.5"><title>2018-04-29 447 kCal</title></rect><rect fill="#41ffd0" height="2.6" width="2.6" x="69.5" y="45.5"><title>2018-04-30 508 kCal</title></rect><rect fill="#41ffcc" height="2.6" width="2.6" x="69.5" y="49.0"><title>2018-05-01 529 kCal</title></rect><rect fill="#43ffdf" height="2.6" width="2.6" x="69.5" y="52.5"><title>2018-05-02 428 kCal</title></rect><rect fill="#41ffce" height="2.6" width="2.6" x="69.5" y="56.0"><title>2018-05-03 520 kCal</title></rect><rect fill="#41ffcb" height="2.6" width="2.6" x="69.5" y="59.5"><title>2018-05-04 534 kCal</title></rect><rect fill="#48fbff" height="2.6" width="2.6" x="69.5" y="63.0"><title>2018-05-05 237 kCal</title></rect><rect fill="red" height="2.6" width="2.6" x="69.5" y="66.5"><title>2018-05-06 1066 kCal</title></rect><rect fill="#40ffc7" height="2.6" width="2.6" x="73.0" y="45.5"><title>2018-05-07 553 kCal</title></rect><rect fill="#41ffd0" height="2.6" width="2.6" x="73.0" y="49.0"><title>2018-05-08 508 kCal</title></rect><rect fill="#41ffd0" height="2.6" width="2.6" x="73.0" y="52.5"><title>2018-05-09 510 kCal</title></rect><rect fill="#ffd400" height="2.6" width="2.6" x="73.0" y="56.0"><title>2018-05-10 563 kCal</title></rect><rect fill="#41ffcd" height="2.6" width="2.6" x="73.0" y="59.5"><title>2018-05-11 524 kCal</title></rect><rect fill="#42ffd6" height="2.6" width="2.6" x="73.0" y="63.0"><title>2018-05-12 476 kCal</title></rect><rect fill="#41ffcc" height="2.6" width="2.6" x="73.0" y="66.5"><title>2018-05-13 531 kCal</title></rect><rect fill="#ffc700" height="2.6" width="2.6" x="76.5" y="45.5"><title>2018-05-14 728 kCal</title></rect><rect fill="#ffb800" height="2.6" width="2.6" x="76.5" y="49.0"><title>2018-05-15 916 kCal</title></rect><rect fill="#ffc300" height="2.6" width="2.6" x="76.5" y="52.5"><title>2018-05-16 773 kCal</title></rect><rect fill="#ffc100" height="2.6" width="2.6" x="76.5" y="56.0"><title>2018-05-17 797 kCal</title></rect><rect fill="#ffbf00" height="2.6" width="2.6" x="76.5" y="59.5"><title>2018-05-18 831 kCal</title></rect><rect fill="#47ffff" height="2.6" width="2.6" x="76.5" y="63.0"><title>2018-05-19 256 kCal</title></rect><rect fill="#41ffce" height="2.6" width="2.6" x="76.5" y="66.5"><title>2018-05-20 517 kCal</title></rect><rect fill="#40ffcb" height="2.6" width="2.6" x="80.0" y="45.5"><title>2018-05-21 536 kCal</title></rect><rect fill="#ffd000" height="2.6" width="2.6" x="80.0" y="49.0"><title>2018-05-22 609 kCal</title></rect><rect fill="#43ffdb" height="2.6" width="2.6" x="80.0" y="52.5"><title>2018-05-23 449 kCal</title></rect><rect fill="#ffcc00" height="2.6" width="2.6" x="80.0" y="56.0"><title>2018-05-24 654 kCal</title></rect><rect fill="#ffc600" height="2.6" width="2.6" x="80.0" y="59.5"><title>2018-05-25 732 kCal</title></rect><rect fill="#44ffea" height="2.6" width="2.6" x="80.0" y="63.0"><title>2018-05-26 373 kCal</title></rect><rect fill="#41ffd0" height="2.6" width="2.6" x="80.0" y="66.5"><title>2018-05-27 508 kCal</title></rect><rect fill="#47feff" height="2.6" width="2.6" x="83.5" y="45.5"><title>2018-05-28 251 kCal</title></rect><rect fill="#42ffd3" height="2.6" width="2.6" x="83.5" y="49.0"><title>2018-05-29 492 kCal</title></rect><rect fill="#ffcc00" height="2.6" width="2.6" x="83.5" y="52.5"><title>2018-05-30 656 kCal</title></rect><rect fill="#42ffd6" height="2.6" width="2.6" x="83.5" y="56.0"><title>2018-05-31 476 kCal</title></rect><rect fill="red" height="2.6" width="2.6" x="83.5" y="59.5"><title>2018-06-01 946 kCal</title></rect><rect fill="#42ffdb" height="2.6" width="2.6" x="83.5" y="63.0"><title>2018-06-02 452 kCal</title></rect><rect fill="#45ffec" height="2.6" width="2.6" x="83.5" y="66.5"><title>2018-06-03 360 kCal</title></rect><rect fill="#41ffcc" height="2.6" width="2.6" x="87.0" y="45.5"><title>2018-06-04 530 kCal</title></rect><rect fill="#ffcd00" height="2.6" width="2.6" x="87.0" y="49.0"><title>2018-06-05 648 kCal</title></rect><rect fill="#4cdbff" height="2.6" width="2.6" x="87.0" y="52.5"><title>2018-06-06 56 kCal</title></rect><rect fill="#ffc600" height="2.6" width="2.6" x="87.0" y="56.0"><title>2018-06-07 732 kCal</title></rect><rect fill="#46fff9" height="2.6" width="2.6" x="87.0" y="59.5"><title>2018-06-08 292 kCal</title></rect><rect fill="#42ffd4" height="2.6" width="2.6" x="87.0" y="63.0"><title>2018-06-09 487 kCal</title></rect><rect fill="#42ffd7" height="2.6" width="2.6" x="87.0" y="66.5"><title>2018-06-10 470 kCal</title></rect><rect fill="#42ffd5" height="2.6" width="2.6" x="90.5" y="45.5"><title>2018-06-11 480 kCal</title></rect><rect fill="#ffd100" height="2.6" width="2.6" x="90.5" y="49.0"><title>2018-06-12 595 kCal</title></rect><rect fill="#44ffe6" height="2.6" width="2.6" x="90.5" y="52.5"><title>2018-06-13 392 kCal</title></rect><rect fill="#43ffe1" height="2.6" width="2.6" x="90.5" y="56.0"><title>2018-06-14 418 kCal</title></rect><rect fill="#444444" height="2.6" width="2.6" x="90.5" y="59.5"><title>2018-06-15</title></rect><rect fill="#444444" height="2.6" width="2.6" x="90.5" y="63.0"><title>2018-06-16</title></rect><rect fill="#4ae6ff" height="2.6" width="2.6" x="90.5" y="66.5"><title>2018-06-17 121 kCal</title></rect><rect fill="#42ffd8" height="2.6" width="2.6" x="94.0" y="45.5"><title>2018-06-18 468 kCal</title></rect><rect fill="#41ffcd" height="2.6" width="2.6" x="94.0" y="49.0"><title>2018-06-19 526 kCal</title></rect><rect fill="#4cd6ff" height="2.6" width="2.6" x="94.0" y="52.5"><title>2018-06-20 28 kCal</title></rect><rect fill="#444444" height="2.6" width="2.6" x="94.0" y="56.0"><title>2018-06-21</title></rect><rect fill="#41ffd3" height="2.6" width="2.6" x="94.0" y="59.5"><title>2018-06-22 495 kCal</title></rect><rect fill="#46fff4" height="2.6" width="2.6" x="94.0" y="63.0"><title>2018-06-23 320 kCal</title></rect><rect fill="#4cd7ff" height="2.6" width="2.6" x="94.0" y="66.5"><title>2018-06-24 33 kCal</title></rect><rect fill="#43ffdd" height="2.6" width="2.6" x="97.5" y="45.5"><title>2018-06-25 438 kCal</title></rect><rect fill="#43ffe2" height="2.6" width="2.6" x="97.5" y="49.0"><title>2018-06-26 413 kCal</title></rect><rect fill="#444444" height="2.6" width="2.6" x="97.5" y="52.5"><title>2018-06-27</title></rect><rect fill="#42ffd9" height="2.6" width="2.6" x="97.5" y="56.0"><title>2018-06-28 463 kCal</title></rect><rect fill="#44ffeb" height="2.6" width="2.6" x="97.5" y="59.5"><title>2018-06-29 368 kCal</title></rect><rect fill="#4be1ff" height="2.6" width="2.6" x="97.5" y="63.0"><title>2018-06-30 90 kCal</title></rect><rect fill="#45fff0" height="2.6" width="2.6" x="97.5" y="66.5"><title>2018-07-01 337 kCal</title></rect><rect fill="#42ffd9" height="2.6" width="2.6" x="101.0" y="45.5"><title>2018-07-02 462 kCal</title></rect><rect fill="#ffcd00" height="2.6" width="2.6" x="101.0" y="49.0"><title>2018-07-03 648 kCal</title></rect><rect fill="#4be4ff" height="2.6" width="2.6" x="101.0" y="52.5"><title>2018-07-04 108 kCal</title></rect><rect fill="#4dd2ff" height="2.6" width="2.6" x="101.0" y="56.0"><title>2018-07-05 3 kCal</title></rect><rect fill="#ffcc00" height="2.6" width="2.6" x="101.0" y="59.5"><title>2018-07-06 660 kCal</title></rect><rect fill="#45ffec" height="2.6" width="2.6" x="101.0" y="63.0"><title>2018-07-07 359 kCal</title></rect><rect fill="#41ffcd" height="2.6" width="2.6" x="101.0" y="66.5"><title>2018-07-08 526 kCal</title></rect><rect fill="#41ffce" height="2.6" width="2.6" x="104.5" y="45.5"><title>2018-07-09 517 kCal</title></rect><rect fill="#41ffd3" height="2.6" width="2.6" x="104.5" y="49.0"><title>2018-07-10 495 kCal</title></rect><rect fill="#4be3ff" height="2.6" width="2.6" x="104.5" y="52.5"><title>2018-07-11 104 kCal</title></rect><rect fill="#40ffca" height="2.6" width="2.6" x="104.5" y="56.0"><title>2018-07-12 537 kCal</title></rect><rect fill="#41ffcc" height="2.6" width="2.6" x="104.5" y="59.5"><title>2018-07-13 531 kCal</title></rect><rect fill="#43ffe2" height="2.6" width="2.6" x="104.5" y="63.0"><title>2018-07-14 414 kCal</title></rect><rect fill="#4be2ff" height="2.6" width="2.6" x="104.5" y="66.5"><title>2018-07-15 95 kCal</title></rect><rect fill="#42ffd7" height="2.6" width="2.6" x="108.0" y="45.5"><title>2018-07-16 474 kCal</title></rect><rect fill="#42ffd8" height="2.6" width="2.6" x="108.0" y="49.0"><title>2018-07-17 468 kCal</title></rect><rect fill="#41ffcd" height="2.6" width="2.6" x="108.0" y="52.5"><title>2018-07-18 522 kCal</title></rect><rect fill="#42ffd8" height="2.6" width="2.6" x="108.0" y="56.0"><title>2018-07-19 469 kCal</title></rect><rect fill="#ffd400" height="2.6" width="2.6" x="108.0" y="59.5"><title>2018-07-20 558 kCal</title></rect><rect fill="#4be2ff" height="2.6" width="2.6" x="108.0" y="63.0"><title>2018-07-21 96 kCal</title></rect><rect fill="#444444" height="2.6" width="2.6" x="108.0" y="66.5"><title>2018-07-22</title></rect><rect fill="#41ffcd" height="2.6" width="2.6" x="111.5" y="45.5"><title>2018-07-23 524 kCal</title></rect><rect fill="#ffcf00" height="2.6" width="2.6" x="111.5" y="49.0"><title>2018-07-24 627 kCal</title></rect><rect fill="#43ffdf" height="2.6" width="2.6" x="111.5" y="52.5"><title>2018-07-25 428 kCal</title></rect><rect fill="#41ffcd" height="2.6" width="2.6" x="111.5" y="56.0"><title>2018-07-26 524 kCal</title></rect><rect fill="#4bdfff" height="2.6" width="2.6" x="111.5" y="59.5"><title>2018-07-27 77 kCal</title></rect><rect fill="#4bdfff" height="2.6" width="2.6" x="111.5" y="63.0"><title>2018-07-28 81 kCal</title></rect><rect fill="#43ffe2" height="2.6" width="2.6" x="111.5" y="66.5"><title>2018-07-29 415 kCal</title></rect><rect fill="#42ffda" height="2.6" width="2.6" x="115.0" y="45.5"><title>2018-07-30 458 kCal</title></rect><rect fill="#42ffd3" height="2.6" width="2.6" x="115.0" y="49.0"><title>2018-07-31 493 kCal</title></rect><rect fill="#ffd200" height="2.6" width="2.6" x="115.0" y="52.5"><title>2018-08-01 586 kCal</title></rect><rect fill="#44ffe5" height="2.6" width="2.6" x="115.0" y="56.0"><title>2018-08-02 396 kCal</title></rect><rect fill="#49eeff" height="2.6" width="2.6" x="115.0" y="59.5"><title>2018-08-03 161 kCal</title></rect><rect fill="#45ffec" height="2.6" width="2.6" x="115.0" y="63.0"><title>2018-08-04 363 kCal</title></rect><rect fill="#41ffcd" height="2.6" width="2.6" x="115.0" y="66.5"><title>2018-08-05 524 kCal</title></rect><rect fill="#49efff" height="2.6" width="2.6" x="118.5" y="45.5"><title>2018-08-06 169 kCal</title></rect><rect fill="#45ffed" height="2.6" width="2.6" x="118.5" y="49.0"><title>2018-08-07 354 kCal</title></rect><rect fill="#42ffd6" height="2.6" width="2.6" x="118.5" y="52.5"><title>2018-08-08 479 kCal</title></rect><rect fill="#ffce00" height="2.6" width="2.6" x="118.5" y="56.0"><title>2018-08-09 633 kCal</title></rect><rect fill="#ffc000" height="2.6" width="2.6" x="118.5" y="59.5"><title>2018-08-10 811 kCal</title></rect><rect fill="#4dd3ff" height="2.6" width="2.6" x="118.5" y="63.0"><title>2018-08-11 10 kCal</title></rect><rect fill="#47fffc" height="2.6" width="2.6" x="118.5" y="66.5"><title>2018-08-12 276 kCal</title></rect><rect fill="#ffc500" height="2.6" width="2.6" x="122.0" y="45.5"><title>2018-08-13 747 kCal</title></rect><rect fill="#42ffda" height="2.6" width="2.6" x="122.0" y="49.0"><title>2018-08-14 454 kCal</title></rect><rect fill="#43ffde" height="2.6" width="2.6" x="122.0" y="52.5"><title>2018-08-15 433 kCal</title></rect><rect fill="#4cdcff" height="2.6" width="2.6" x="122.0" y="56.0"><title>2018-08-16 61 kCal</title></rect><rect fill="#44ffe4" height="2.6" width="2.6" x="122.0" y="59.5"><title>2018-08-17 405 kCal</title></rect><rect fill="#41ffd1" height="2.6" width="2.6" x="122.0" y="63.0"><title>2018-08-18 504 kCal</title></rect><rect fill="#44ffe4" height="2.6" width="2.6" x="122.0" y="66.5"><title>2018-08-19 405 kCal</title></rect><rect fill="#4cd7ff" height="2.6" width="2.6" x="125.5" y="45.5"><title>2018-08-20 33 kCal</title></rect><rect fill="#48fbff" height="2.6" width="2.6" x="125.5" y="49.0"><title>2018-08-21 235 kCal</title></rect><rect fill="#41ffcb" height="2.6" width="2.6" x="125.5" y="52.5"><title>2018-08-22 535 kCal</title></rect><rect fill="#44ffe5" height="2.6" width="2.6" x="125.5" y="56.0"><title>2018-08-23 397 kCal</title></rect><rect fill="#40ffc8" height="2.6" width="2.6" x="125.5" y="59.5"><title>2018-08-24 550 kCal</title></rect><rect fill="#46fff9" height="2.6" width="2.6" x="125.5" y="63.0"><title>2018-08-25 293 kCal</title></rect><rect fill="#43ffe1" height="2.6" width="2.6" x="125.5" y="66.5"><title>2018-08-26 417 kCal</title></rect><rect fill="#4be3ff" height="2.6" width="2.6" x="129.0" y="45.5"><title>2018-08-27 104 kCal</title></rect><rect fill="#444444" height="2.6" width="2.6" x="129.0" y="49.0"><title>2018-08-28</title></rect><rect fill="#45ffec" height="2.6" width="2.6" x="129.0" y="52.5"><title>2018-08-29 361 kCal</title></rect><rect fill="#43ffdd" height="2.6" width="2.6" x="129.0" y="56.0"><title>2018-08-30 438 kCal</title></rect><rect fill="#43ffdf" height="2.6" width="2.6" x="129.0" y="59.5"><title>2018-08-31 429 kCal</title></rect><rect fill="#47ffff" height="2.6" width="2.6" x="129.0" y="63.0"><title>2018-09-01 259 kCal</title></rect><rect fill="#44ffe9" height="2.6" width="2.6" x="129.0" y="66.5"><title>2018-09-02 376 kCal</title></rect><rect fill="#43ffdc" height="2.6" width="2.6" x="132.5" y="45.5"><title>2018-09-03 447 kCal</title></rect><rect fill="#45ffef" height="2.6" width="2.6" x="132.5" y="49.0"><title>2018-09-04 343 kCal</title></rect><rect fill="#4be2ff" height="2.6" width="2.6" x="132.5" y="52.5"><title>2018-09-05 98 kCal</title></rect><rect fill="#43ffdb" height="2.6" width="2.6" x="132.5" y="56.0"><title>2018-09-06 450 kCal</title></rect><rect fill="#41ffd0" height="2.6" width="2.6" x="132.5" y="59.5"><title>2018-09-07 506 kCal</title></rect><rect fill="#ffd400" height="2.6" width="2.6" x="132.5" y="63.0"><title>2018-09-08 559 kCal</title></rect><rect fill="#45ffec" height="2.6" width="2.6" x="132.5" y="66.5"><title>2018-09-09 361 kCal</title></rect><rect fill="#ffbd00" height="2.6" width="2.6" x="136.0" y="45.5"><title>2018-09-10 851 kCal</title></rect><rect fill="#ffc500" height="2.6" width="2.6" x="136.0" y="49.0"><title>2018-09-11 745 kCal</title></rect><rect fill="#43ffe1" height="2.6" width="2.6" x="136.0" y="52.5"><title>2018-09-12 417 kCal</title></rect><rect fill="#42ffd5" height="2.6" width="2.6" x="136.0" y="56.0"><title>2018-09-13 482 kCal</title></rect><rect fill="#46fff8" height="2.6" width="2.6" x="136.0" y="59.5"><title>2018-09-14 295 kCal</title></rect><rect fill="#41ffcb" height="2.6" width="2.6" x="136.0" y="63.0"><title>2018-09-15 535 kCal</title></rect><rect fill="#42ffd8" height="2.6" width="2.6" x="136.0" y="66.5"><title>2018-09-16 465 kCal</title></rect><rect fill="#ffcb00" height="2.6" width="2.6" x="139.5" y="45.5"><title>2018-09-17 669 kCal</title></rect><rect fill="#41ffcb" height="2.6" width="2.6" x="139.5" y="49.0"><title>2018-09-18 534 kCal</title></rect><rect fill="#4cdbff" height="2.6" width="2.6" x="139.5" y="52.5"><title>2018-09-19 56 kCal</title></rect><rect fill="#ffc000" height="2.6" width="2.6" x="139.5" y="56.0"><title>2018-09-20 809 kCal</title></rect><rect fill="#44ffe6" height="2.6" width="2.6" x="139.5" y="59.5"><title>2018-09-21 394 kCal</title></rect><rect fill="#44ffe8" height="2.6" width="2.6" x="139.5" y="63.0"><title>2018-09-22 383 kCal</title></rect><rect fill="#ffd100" height="2.6" width="2.6" x="139.5" y="66.5"><title>2018-09-23 600 kCal</title></rect><rect fill="#42ffd5" height="2.6" width="2.6" x="143.0" y="45.5"><title>2018-09-24 483 kCal</title></rect><rect fill="#444444" height="2.6" width="2.6" x="143.0" y="49.0"><title>2018-09-25</title></rect><rect fill="#ffd000" height="2.6" width="2.6" x="143.0" y="52.5"><title>2018-09-26 603 kCal</title></rect><rect fill="#444444" height="2.6" width="2.6" x="143.0" y="56.0"><title>2018-09-27</title></rect><rect fill="#444444" height="2.6" width="2.6" x="143.0" y="59.5"><title>2018-09-28</title></rect><rect fill="#444444" height="2.6" width="2.6" x="143.0" y="63.0"><title>2018-09-29</title></rect><rect fill="#44ffe8" height="2.6" width="2.6" x="143.0" y="66.5"><title>2018-09-30 382 kCal</title></rect><rect fill="#ffc100" height="2.6" width="2.6" x="146.5" y="45.5"><title>2018-10-01 801 kCal</title></rect><rect fill="#43ffdd" height="2.6" width="2.6" x="146.5" y="49.0"><title>2018-10-02 442 kCal</title></rect><rect fill="#42ffdb" height="2.6" width="2.6" x="146.5" y="52.5"><title>2018-10-03 453 kCal</title></rect><rect fill="#48f9ff" height="2.6" width="2.6" x="146.5" y="56.0"><title>2018-10-04 227 kCal</title></rect><rect fill="#46fff7" height="2.6" width="2.6" x="146.5" y="59.5"><title>2018-10-05 304 kCal</title></rect><rect fill="#42ffd4" height="2.6" width="2.6" x="146.5" y="63.0"><title>2018-10-06 485 kCal</title></rect><rect fill="#42ffd8" height="2.6" width="2.6" x="146.5" y="66.5"><title>2018-10-07 465 kCal</title></rect><rect fill="#ffcd00" height="2.6" width="2.6" x="150.0" y="45.5"><title>2018-10-08 649 kCal</title></rect><rect fill="#ffce00" height="2.6" width="2.6" x="150.0" y="49.0"><title>2018-10-09 633 kCal</title></rect><rect fill="#ffcc00" height="2.6" width="2.6" x="150.0" y="52.5"><title>2018-10-10 655 kCal</title></rect><rect fill="#ffce00" height="2.6" width="2.6" x="150.0" y="56.0"><title>2018-10-11 631 kCal</title></rect><rect fill="#42ffdb" height="2.6" width="2.6" x="150.0" y="59.5"><title>2018-10-12 451 kCal</title></rect><rect fill="#ffbd00" height="2.6" width="2.6" x="150.0" y="63.0"><title>2018-10-13 858 kCal</title></rect><rect fill="#ffc600" height="2.6" width="2.6" x="150.0" y="66.5"><title>2018-10-14 741 kCal</title></rect><rect fill="#ffc800" height="2.6" width="2.6" x="153.5" y="45.5"><title>2018-10-15 712 kCal</title></rect><rect fill="red" height="2.6" width="2.6" x="153.5" y="49.0"><title>2018-10-16 1005 kCal</title></rect><rect fill="#41ffd1" height="2.6" width="2.6" x="153.5" y="52.5"><title>2018-10-17 505 kCal</title></rect><rect fill="red" height="2.6" width="2.6" x="153.5" y="56.0"><title>2018-10-18 2163 kCal</title></rect><rect fill="red" height="2.6" width="2.6" x="153.5" y="59.5"><title>2018-10-19 1539 kCal</title></rect><rect fill="#41ffcd" height="2.6" width="2.6" x="153.5" y="63.0"><title>2018-10-20 525 kCal</title></rect><rect fill="red" height="2.6" width="2.6" x="153.5" y="66.5"><title>2018-10-21 1305 kCal</title></rect><rect fill="red" height="2.6" width="2.6" x="157.0" y="45.5"><title>2018-10-22 1031 kCal</title></rect><rect fill="red" height="2.6" width="2.6" x="157.0" y="49.0"><title>2018-10-23 2842 kCal</title></rect><rect fill="#44ffeb" height="2.6" width="2.6" x="157.0" y="52.5"><title>2018-10-24 367 kCal</title></rect><rect fill="red" height="2.6" width="2.6" x="157.0" y="56.0"><title>2018-10-25 1685 kCal</title></rect><rect fill="red" height="2.6" width="2.6" x="157.0" y="59.5"><title>2018-10-26 1434 kCal</title></rect><rect fill="red" height="2.6" width="2.6" x="157.0" y="63.0"><title>2018-10-27 1666 kCal</title></rect><rect fill="red" height="2.6" width="2.6" x="157.0" y="66.5"><title>2018-10-28 1038 kCal</title></rect><rect fill="red" height="2.6" width="2.6" x="160.5" y="45.5"><title>2018-10-29 2576 kCal</title></rect><rect fill="red" height="2.6" width="2.6" x="160.5" y="49.0"><title>2018-10-30 1258 kCal</title></rect><rect fill="red" height="2.6" width="2.6" x="160.5" y="52.5"><title>2018-10-31 1030 kCal</title></rect><rect fill="red" height="2.6" width="2.6" x="160.5" y="56.0"><title>2018-11-01 1772 kCal</title></rect><rect fill="red" height="2.6" width="2.6" x="160.5" y="59.5"><title>2018-11-02 1729 kCal</title></rect><rect fill="red" height="2.6" width="2.6" x="160.5" y="63.0"><title>2018-11-03 938 kCal</title></rect><rect fill="#ffbf00" height="2.6" width="2.6" x="160.5" y="66.5"><title>2018-11-04 833 kCal</title></rect><rect fill="red" height="2.6" width="2.6" x="164.0" y="45.5"><title>2018-11-05 1040 kCal</title></rect><rect fill="red" height="2.6" width="2.6" x="164.0" y="49.0"><title>2018-11-06 1108 kCal</title></rect><rect fill="red" height="2.6" width="2.6" x="164.0" y="52.5"><title>2018-11-07 1174 kCal</title></rect><rect fill="red" height="2.6" width="2.6" x="164.0" y="56.0"><title>2018-11-08 1760 kCal</title></rect><rect fill="#ffd200" height="2.6" width="2.6" x="164.0" y="59.5"><title>2018-11-09 580 kCal</title></rect><rect fill="red" height="2.6" width="2.6" x="164.0" y="63.0"><title>2018-11-10 1636 kCal</title></rect><rect fill="#ffd200" height="2.6" width="2.6" x="164.0" y="66.5"><title>2018-11-11 580 kCal</title></rect><rect fill="#ffc900" height="2.6" width="2.6" x="167.5" y="45.5"><title>2018-11-12 698 kCal</title></rect><rect fill="red" height="2.6" width="2.6" x="167.5" y="49.0"><title>2018-11-13 3286 kCal</title></rect><rect fill="red" height="2.6" width="2.6" x="167.5" y="52.5"><title>2018-11-14 1160 kCal</title></rect><rect fill="#ffcd00" height="2.6" width="2.6" x="167.5" y="56.0"><title>2018-11-15 644 kCal</title></rect><rect fill="red" height="2.6" width="2.6" x="167.5" y="59.5"><title>2018-11-16 1211 kCal</title></rect><rect fill="red" height="2.6" width="2.6" x="167.5" y="63.0"><title>2018-11-17 1140 kCal</title></rect><rect fill="#ffbb00" height="2.6" width="2.6" x="167.5" y="66.5"><title>2018-11-18 884 kCal</title></rect><rect fill="#ffd100" height="2.6" width="2.6" x="171.0" y="45.5"><title>2018-11-19 600 kCal</title></rect><rect fill="#46fff5" height="2.6" width="2.6" x="171.0" y="49.0"><title>2018-11-20 314 kCal</title></rect><rect fill="#45fff1" height="2.6" width="2.6" x="171.0" y="52.5"><title>2018-11-21 332 kCal</title></rect><rect fill="#ffbc00" height="2.6" width="2.6" x="171.0" y="56.0"><title>2018-11-22 870 kCal</title></rect><rect fill="red" height="2.6" width="2.6" x="171.0" y="59.5"><title>2018-11-23 2438 kCal</title></rect><rect fill="red" height="2.6" width="2.6" x="171.0" y="63.0"><title>2018-11-24 1271 kCal</title></rect><rect fill="#41ffcc" height="2.6" width="2.6" x="171.0" y="66.5"><title>2018-11-25 528 kCal</title></rect><rect fill="red" height="2.6" width="2.6" x="174.5" y="45.5"><title>2018-11-26 1066 kCal</title></rect><rect fill="#ffc000" height="2.6" width="2.6" x="174.5" y="49.0"><title>2018-11-27 808 kCal</title></rect><rect fill="red" height="2.6" width="2.6" x="174.5" y="52.5"><title>2018-11-28 981 kCal</title></rect><rect fill="#ffc900" height="2.6" width="2.6" x="174.5" y="56.0"><title>2018-11-29 692 kCal</title></rect><rect fill="#ffc100" height="2.6" width="2.6" x="174.5" y="59.5"><title>2018-11-30 796 kCal</title></rect><rect fill="#ffb700" height="2.6" width="2.6" x="174.5" y="63.0"><title>2018-12-01 932 kCal</title></rect><rect fill="#ffb700" height="2.6" width="2.6" x="174.5" y="66.5"><title>2018-12-02 926 kCal</title></rect><rect fill="red" height="2.6" width="2.6" x="178.0" y="45.5"><title>2018-12-03 1860 kCal</title></rect><rect fill="red" height="2.6" width="2.6" x="178.0" y="49.0"><title>2018-12-04 1330 kCal</title></rect><rect fill="red" height="2.6" width="2.6" x="178.0" y="52.5"><title>2018-12-05 1318 kCal</title></rect><rect fill="#42ffd8" height="2.6" width="2.6" x="178.0" y="56.0"><title>2018-12-06 469 kCal</title></rect><rect fill="#ffcd00" height="2.6" width="2.6" x="178.0" y="59.5"><title>2018-12-07 653 kCal</title></rect><rect fill="#43ffe3" height="2.6" width="2.6" x="178.0" y="63.0"><title>2018-12-08 410 kCal</title></rect><rect fill="red" height="2.6" width="2.6" x="178.0" y="66.5"><title>2018-12-09 1827 kCal</title></rect><rect fill="#40ffc9" height="2.6" width="2.6" x="181.5" y="45.5"><title>2018-12-10 545 kCal</title></rect><rect fill="#41ffcd" height="2.6" width="2.6" x="181.5" y="49.0"><title>2018-12-11 524 kCal</title></rect><rect fill="#4be0ff" height="2.6" width="2.6" x="181.5" y="52.5"><title>2018-12-12 87 kCal</title></rect><rect fill="#42ffd4" height="2.6" width="2.6" x="181.5" y="56.0"><title>2018-12-13 486 kCal</title></rect><rect fill="#ffd000" height="2.6" width="2.6" x="181.5" y="59.5"><title>2018-12-14 609 kCal</title></rect><rect fill="red" height="2.6" width="2.6" x="181.5" y="63.0"><title>2018-12-15 3148 kCal</title></rect><rect fill="red" height="2.6" width="2.6" x="181.5" y="66.5"><title>2018-12-16 3142 kCal</title></rect><rect fill="#40ffc8" height="2.6" width="2.6" x="185.0" y="45.5"><title>2018-12-17 551 kCal</title></rect><rect fill="#41ffcb" height="2.6" width="2.6" x="185.0" y="49.0"><title>2018-12-18 534 kCal</title></rect><rect fill="#ffc900" height="2.6" width="2.6" x="185.0" y="52.5"><title>2018-12-19 701 kCal</title></rect><rect fill="#ffc700" height="2.6" width="2.6" x="185.0" y="56.0"><title>2018-12-20 722 kCal</title></rect><rect fill="red" height="2.6" width="2.6" x="185.0" y="59.5"><title>2018-12-21 2047 kCal</title></rect><rect fill="red" height="2.6" width="2.6" x="185.0" y="63.0"><title>2018-12-22 2349 kCal</title></rect><rect fill="red" height="2.6" width="2.6" x="185.0" y="66.5"><title>2018-12-23 1643 kCal</title></rect><rect fill="red" height="2.6" width="2.6" x="188.5" y="45.5"><title>2018-12-24 1380 kCal</title></rect><rect fill="red" height="2.6" width="2.6" x="188.5" y="49.0"><title>2018-12-25 1282 kCal</title></rect><rect fill="#ffc800" height="2.6" width="2.6" x="188.5" y="52.5"><title>2018-12-26 711 kCal</title></rect><rect fill="#43ffe1" height="2.6" width="2.6" x="188.5" y="56.0"><title>2018-12-27 419 kCal</title></rect><rect fill="#45ffeb" height="2.6" width="2.6" x="188.5" y="59.5"><title>2018-12-28 364 kCal</title></rect><rect fill="#ffc500" height="2.6" width="2.6" x="188.5" y="63.0"><title>2018-12-29 755 kCal</title></rect><rect fill="#ffd300" height="2.6" width="2.6" x="188.5" y="66.5"><title>2018-12-30 570 kCal</title></rect><rect fill="#44ffe6" height="2.6" width="2.6" x="192.0" y="45.5"><title>2018-12-31 395 kCal</title></rect></svg>