<?xml version="1.0" encoding="utf-8" ?>
<svg baseProfile="full" height="78mm" version="1.1" viewBox="0,0,200,78" width="200mm" xmlns="http://www.w3.org/2000/svg" xmlns:ev="http://www.w3.org/2001/xml-events" xmlns:xlink="http://www.w3.org/1999/xlink"><defs /><rect fill="#222222" height="78" width="200" x="0" y="0" /><text fill="#FFFFFF" style="font-size:12px; font-family:Arial; font-weight:bold;" x="10" y="20">rip-tyang apple_health</text><text dominant-baseline="hanging" fill="#FFFFFF" style="font-size:10.0px; font-family:Arial;" x="10" y="30">2021</text><text dominant-baseline="hanging" fill="#FFFFFF" style="font-size:4.125px; font-family:Arial;" x="175" y="35">56262 kCal</text><text fill="#FFFFFF" style="font-size:2.5px; font-family:Arial" x="10.0" y="44">Jan</text><text fill="#FFFFFF" style="font-size:2.5px; font-family:Arial" x="25.5" y="44">Feb</text><text fill="#FFFFFF" style="font-size:2.5px; font-family:Arial" x="41.0" y="44">Mar</text><text fill="#FFFFFF" style="font-size:2.5px; font-family:Arial" x="56.5" y="44">Apr</text><text fill="#FFFFFF" style="font-size:2.5px; font-family:Arial" x="72.0" y="44">May</text><text fill="#FFFFFF" style="font-size:2.5px; font-family:Arial" x="87.5" y="44">Jun</text><text fill="#FFFFFF" style="font-size:2.5px; font-family:Arial" x="103.0" y="44">Jul</text><text fill="#FFFFFF" style="font-size:2.5px; font-family:Arial" x="118.5" y="44">Aug</text><text fill="#FFFFFF" style="font-size:2.5px; font-family:Arial" x="134.0" y="44">Sep</text><text fill="#FFFFFF" style="font-size:2.5px; font-family:Arial" x="149.5" y="44">Oct</text><text fill="#FFFFFF" style="font-size:2.5px; font-family:Arial" x="165.0" y="44">Nov</text><text fill="#FFFFFF" style="font-size:2.5px; font-family:Arial" x="180.5" y="44">Dec</text><rect fill="#444444" height="2.6" width="2.6" x="10.0" y="45.5"><title>2020-12-28</title></rect><rect fill="#444444" height="2.6" width="2.6" x="10.0" y="49.0"><title>2020-12-29</title></rect><rect fill="#444444" height="2.6" width="2.6" x="10.0" y="52.5"><title>2020-12-30</title></rect><rect fill="#444444" height="2.6" width="2.6" x="10.0" y="56.0"><title>2020-12-31</title></rect><rect fill="#47fcff" height="2.6" width="2.6" x="10.0" y="59.5"><title>2021-01-01 206 kCal</title></rect><rect fill="#444444" height="2.6" width="2.6" x="10.0" y="63.0"><title>2021-01-02</title></rect><rect fill="#444444" height="2.6" width="2.6" x="10.0" y="66.5"><title>2021-01-03</title></rect><rect fill="#4bdfff" height="2.6" width="2.6" x="13.5" y="45.5"><title>2021-01-04 74 kCal</title></rect><rect fill="#444444" height="2.6" width="2.6" x="13.5" y="49.0"><title>2021-01-05</title></rect><rect fill="#4aecff" height="2.6" width="2.6" x="13.5" y="52.5"><title>2021-01-06 133 kCal</title></rect><rect fill="#444444" height="2.6" width="2.6" x="13.5" y="56.0"><title>2021-01-07</title></rect><rect fill="#444444" height="2.6" width="2.6" x="13.5" y="59.5"><title>2021-01-08</title></rect><rect fill="#444444" height="2.6" width="2.6" x="13.5" y="63.0"><title>2021-01-09</title></rect><rect fill="#444444" height="2.6" width="2.6" x="13.5" y="66.5"><title>2021-01-10</title></rect><rect fill="#444444" height="2.6" width="2.6" x="17.0" y="45.5"><title>2021-01-11</title></rect><rect fill="#4dd5ff" height="2.6" width="2.6" x="17.0" y="49.0"><title>2021-01-12 25 kCal</title></rect><rect fill="#ffca00" height="2.6" width="2.6" x="17.0" y="52.5"><title>2021-01-13 575 kCal</title></rect><rect fill="#4bdfff" height="2.6" width="2.6" x="17.0" y="56.0"><title>2021-01-14 74 kCal</title></rect><rect fill="#4dd2ff" height="2.6" width="2.6" x="17.0" y="59.5"><title>2021-01-15 11 kCal</title></rect><rect fill="#444444" height="2.6" width="2.6" x="17.0" y="63.0"><title>2021-01-16</title></rect><rect fill="#444444" height="2.6" width="2.6" x="17.0" y="66.5"><title>2021-01-17</title></rect><rect fill="#444444" height="2.6" width="2.6" x="20.5" y="45.5"><title>2021-01-18</title></rect><rect fill="red" height="2.6" width="2.6" x="20.5" y="49.0"><title>2021-01-19 844 kCal</title></rect><rect fill="#ffd600" height="2.6" width="2.6" x="20.5" y="52.5"><title>2021-01-20 445 kCal</title></rect><rect fill="#46fffa" height="2.6" width="2.6" x="20.5" y="56.0"><title>2021-01-21 242 kCal</title></rect><rect fill="#4cdaff" height="2.6" width="2.6" x="20.5" y="59.5"><title>2021-01-22 49 kCal</title></rect><rect fill="#4ae7ff" height="2.6" width="2.6" x="20.5" y="63.0"><title>2021-01-23 110 kCal</title></rect><rect fill="#4be3ff" height="2.6" width="2.6" x="20.5" y="66.5"><title>2021-01-24 94 kCal</title></rect><rect fill="#44ffe4" height="2.6" width="2.6" x="24.0" y="45.5"><title>2021-01-25 340 kCal</title></rect><rect fill="#44ffe9" height="2.6" width="2.6" x="24.0" y="49.0"><title>2021-01-26 318 kCal</title></rect><rect fill="#48f4ff" height="2.6" width="2.6" x="24.0" y="52.5"><title>2021-01-27 171 kCal</title></rect><rect fill="#444444" height="2.6" width="2.6" x="24.0" y="56.0"><title>2021-01-28</title></rect><rect fill="#444444" height="2.6" width="2.6" x="24.0" y="59.5"><title>2021-01-29</title></rect><rect fill="red" height="2.6" width="2.6" x="24.0" y="63.0"><title>2021-01-30 1451 kCal</title></rect><rect fill="#444444" height="2.6" width="2.6" x="24.0" y="66.5"><title>2021-01-31</title></rect><rect fill="#444444" height="2.6" width="2.6" x="27.5" y="45.5"><title>2021-02-01</title></rect><rect fill="#ffcf00" height="2.6" width="2.6" x="27.5" y="49.0"><title>2021-02-02 519 kCal</title></rect><rect fill="#46fff5" height="2.6" width="2.6" x="27.5" y="52.5"><title>2021-02-03 266 kCal</title></rect><rect fill="#46fff7" height="2.6" width="2.6" x="27.5" y="56.0"><title>2021-02-04 256 kCal</title></rect><rect fill="#43ffe2" height="2.6" width="2.6" x="27.5" y="59.5"><title>2021-02-05 350 kCal</title></rect><rect fill="#ffd000" height="2.6" width="2.6" x="27.5" y="63.0"><title>2021-02-06 512 kCal</title></rect><rect fill="#4bdeff" height="2.6" width="2.6" x="27.5" y="66.5"><title>2021-02-07 67 kCal</title></rect><rect fill="#ffd700" height="2.6" width="2.6" x="31.0" y="45.5"><title>2021-02-08 435 kCal</title></rect><rect fill="#47fdff" height="2.6" width="2.6" x="31.0" y="49.0"><title>2021-02-09 211 kCal</title></rect><rect fill="#49edff" height="2.6" width="2.6" x="31.0" y="52.5"><title>2021-02-10 139 kCal</title></rect><rect fill="#45fff3" height="2.6" width="2.6" x="31.0" y="56.0"><title>2021-02-11 274 kCal</title></rect><rect fill="#4cdbff" height="2.6" width="2.6" x="31.0" y="59.5"><title>2021-02-12 55 kCal</title></rect><rect fill="#4ae8ff" height="2.6" width="2.6" x="31.0" y="63.0"><title>2021-02-13 116 kCal</title></rect><rect fill="#4cd8ff" height="2.6" width="2.6" x="31.0" y="66.5"><title>2021-02-14 40 kCal</title></rect><rect fill="#ffd900" height="2.6" width="2.6" x="34.5" y="45.5"><title>2021-02-15 416 kCal</title></rect><rect fill="#44ffeb" height="2.6" width="2.6" x="34.5" y="49.0"><title>2021-02-16 311 kCal</title></rect><rect fill="#4ae6ff" height="2.6" width="2.6" x="34.5" y="52.5"><title>2021-02-17 105 kCal</title></rect><rect fill="#4be3ff" height="2.6" width="2.6" x="34.5" y="56.0"><title>2021-02-18 93 kCal</title></rect><rect fill="#ffd500" height="2.6" width="2.6" x="34.5" y="59.5"><title>2021-02-19 456 kCal</title></rect><rect fill="#4cdaff" height="2.6" width="2.6" x="34.5" y="63.0"><title>2021-02-20 51 kCal</title></rect><rect fill="#43ffe1" height="2.6" width="2.6" x="34.5" y="66.5"><title>2021-02-21 352 kCal</title></rect><rect fill="#49efff" height="2.6" width="2.6" x="38.0" y="45.5"><title>2021-02-22 148 kCal</title></rect><rect fill="#444444" height="2.6" width="2.6" x="38.0" y="49.0"><title>2021-02-23</title></rect><rect fill="#4ae6ff" height="2.6" width="2.6" x="38.0" y="52.5"><title>2021-02-24 108 kCal</title></rect><rect fill="#444444" height="2.6" width="2.6" x="38.0" y="56.0"><title>2021-02-25</title></rect><rect fill="#444444" height="2.6" width="2.6" x="38.0" y="59.5"><title>2021-02-26</title></rect><rect fill="#444444" height="2.6" width="2.6" x="38.0" y="63.0"><title>2021-02-27</title></rect><rect fill="#444444" height="2.6" width="2.6" x="38.0" y="66.5"><title>2021-02-28</title></rect><rect fill="#444444" height="2.6" width="2.6" x="41.5" y="45.5"><title>2021-03-01</title></rect><rect fill="#444444" height="2.6" width="2.6" x="41.5" y="49.0"><title>2021-03-02</title></rect><rect fill="#444444" height="2.6" width="2.6" x="41.5" y="52.5"><title>2021-03-03</title></rect><rect fill="#45fff2" height="2.6" width="2.6" x="41.5" y="56.0"><title>2021-03-04 279 kCal</title></rect><rect fill="#444444" height="2.6" width="2.6" x="41.5" y="59.5"><title>2021-03-05</title></rect><rect fill="#444444" height="2.6" width="2.6" x="41.5" y="63.0"><title>2021-03-06</title></rect><rect fill="#444444" height="2.6" width="2.6" x="41.5" y="66.5"><title>2021-03-07</title></rect><rect fill="#444444" height="2.6" width="2.6" x="45.0" y="45.5"><title>2021-03-08</title></rect><rect fill="#444444" height="2.6" width="2.6" x="45.0" y="49.0"><title>2021-03-09</title></rect><rect fill="#444444" height="2.6" width="2.6" x="45.0" y="52.5"><title>2021-03-10</title></rect><rect fill="#444444" height="2.6" width="2.6" x="45.0" y="56.0"><title>2021-03-11</title></rect><rect fill="#444444" height="2.6" width="2.6" x="45.0" y="59.5"><title>2021-03-12</title></rect><rect fill="#444444" height="2.6" width="2.6" x="45.0" y="63.0"><title>2021-03-13</title></rect><rect fill="#444444" height="2.6" width="2.6" x="45.0" y="66.5"><title>2021-03-14</title></rect><rect fill="#444444" height="2.6" width="2.6" x="48.5" y="45.5"><title>2021-03-15</title></rect><rect fill="#444444" height="2.6" width="2.6" x="48.5" y="49.0"><title>2021-03-16</title></rect><rect fill="#444444" height="2.6" width="2.6" x="48.5" y="52.5"><title>2021-03-17</title></rect><rect fill="#444444" height="2.6" width="2.6" x="48.5" y="56.0"><title>2021-03-18</title></rect><rect fill="#444444" height="2.6" width="2.6" x="48.5" y="59.5"><title>2021-03-19</title></rect><rect fill="#444444" height="2.6" width="2.6" x="48.5" y="63.0"><title>2021-03-20</title></rect><rect fill="#444444" height="2.6" width="2.6" x="48.5" y="66.5"><title>2021-03-21</title></rect><rect fill="#48faff" height="2.6" width="2.6" x="52.0" y="45.5"><title>2021-03-22 199 kCal</title></rect><rect fill="#444444" height="2.6" width="2.6" x="52.0" y="49.0"><title>2021-03-23</title></rect><rect fill="#444444" height="2.6" width="2.6" x="52.0" y="52.5"><title>2021-03-24</title></rect><rect fill="#444444" height="2.6" width="2.6" x="52.0" y="56.0"><title>2021-03-25</title></rect><rect fill="#444444" height="2.6" width="2.6" x="52.0" y="59.5"><title>2021-03-26</title></rect><rect fill="#444444" height="2.6" width="2.6" x="52.0" y="63.0"><title>2021-03-27</title></rect><rect fill="#444444" height="2.6" width="2.6" x="52.0" y="66.5"><title>2021-03-28</title></rect><rect fill="#444444" height="2.6" width="2.6" x="55.5" y="45.5"><title>2021-03-29</title></rect><rect fill="#444444" height="2.6" width="2.6" x="55.5" y="49.0"><title>2021-03-30</title></rect><rect fill="#444444" height="2.6" width="2.6" x="55.5" y="52.5"><title>2021-03-31</title></rect><rect fill="#444444" height="2.6" width="2.6" x="55.5" y="56.0"><title>2021-04-01</title></rect><rect fill="#444444" height="2.6" width="2.6" x="55.5" y="59.5"><title>2021-04-02</title></rect><rect fill="#444444" height="2.6" width="2.6" x="55.5" y="63.0"><title>2021-04-03</title></rect><rect fill="#444444" height="2.6" width="2.6" x="55.5" y="66.5"><title>2021-04-04</title></rect><rect fill="#444444" height="2.6" width="2.6" x="59.0" y="45.5"><title>2021-04-05</title></rect><rect fill="#444444" height="2.6" width="2.6" x="59.0" y="49.0"><title>2021-04-06</title></rect><rect fill="#444444" height="2.6" width="2.6" x="59.0" y="52.5"><title>2021-04-07</title></rect><rect fill="#444444" height="2.6" width="2.6" x="59.0" y="56.0"><title>2021-04-08</title></rect><rect fill="#444444" height="2.6" width="2.6" x="59.0" y="59.5"><title>2021-04-09</title></rect><rect fill="#444444" height="2.6" width="2.6" x="59.0" y="63.0"><title>2021-04-10</title></rect><rect fill="#444444" height="2.6" width="2.6" x="59.0" y="66.5"><title>2021-04-11</title></rect><rect fill="#444444" height="2.6" width="2.6" x="62.5" y="45.5"><title>2021-04-12</title></rect><rect fill="#444444" height="2.6" width="2.6" x="62.5" y="49.0"><title>2021-04-13</title></rect><rect fill="#444444" height="2.6" width="2.6" x="62.5" y="52.5"><title>2021-04-14</title></rect><rect fill="#444444" height="2.6" width="2.6" x="62.5" y="56.0"><title>2021-04-15</title></rect><rect fill="#444444" height="2.6" width="2.6" x="62.5" y="59.5"><title>2021-04-16</title></rect><rect fill="#444444" height="2.6" width="2.6" x="62.5" y="63.0"><title>2021-04-17</title></rect><rect fill="#444444" height="2.6" width="2.6" x="62.5" y="66.5"><title>2021-04-18</title></rect><rect fill="#444444" height="2.6" width="2.6" x="66.0" y="45.5"><title>2021-04-19</title></rect><rect fill="#444444" height="2.6" width="2.6" x="66.0" y="49.0"><title>2021-04-20</title></rect><rect fill="#444444" height="2.6" width="2.6" x="66.0" y="52.5"><title>2021-04-21</title></rect><rect fill="#444444" height="2.6" width="2.6" x="66.0" y="56.0"><title>2021-04-22</title></rect><rect fill="#444444" height="2.6" width="2.6" x="66.0" y="59.5"><title>2021-04-23</title></rect><rect fill="#444444" height="2.6" width="2.6" x="66.0" y="63.0"><title>2021-04-24</title></rect><rect fill="#444444" height="2.6" width="2.6" x="66.0" y="66.5"><title>2021-04-25</title></rect><rect fill="#444444" height="2.6" width="2.6" x="69.5" y="45.5"><title>2021-04-26</title></rect><rect fill="#444444" height="2.6" width="2.6" x="69.5" y="49.0"><title>2021-04-27</title></rect><rect fill="#444444" height="2.6" width="2.6" x="69.5" y="52.5"><title>2021-04-28</title></rect><rect fill="#444444" height="2.6" width="2.6" x="69.5" y="56.0"><title>2021-04-29</title></rect><rect fill="#444444" height="2.6" width="2.6" x="69.5" y="59.5"><title>2021-04-30</title></rect><rect fill="#444444" height="2.6" width="2.6" x="69.5" y="63.0"><title>2021-05-01</title></rect><rect fill="#444444" height="2.6" width="2.6" x="69.5" y="66.5"><title>2021-05-02</title></rect><rect fill="#444444" height="2.6" width="2.6" x="73.0" y="45.5"><title>2021-05-03</title></rect><rect fill="#444444" height="2.6" width="2.6" x="73.0" y="49.0"><title>2021-05-04</title></rect><rect fill="#444444" height="2.6" width="2.6" x="73.0" y="52.5"><title>2021-05-05</title></rect><rect fill="#444444" height="2.6" width="2.6" x="73.0" y="56.0"><title>2021-05-06</title></rect><rect fill="#444444" height="2.6" width="2.6" x="73.0" y="59.5"><title>2021-05-07</title></rect><rect fill="#444444" height="2.6" width="2.6" x="73.0" y="63.0"><title>2021-05-08</title></rect><rect fill="#444444" height="2.6" width="2.6" x="73.0" y="66.5"><title>2021-05-09</title></rect><rect fill="#444444" height="2.6" width="2.6" x="76.5" y="45.5"><title>2021-05-10</title></rect><rect fill="#444444" height="2.6" width="2.6" x="76.5" y="49.0"><title>2021-05-11</title></rect><rect fill="#444444" height="2.6" width="2.6" x="76.5" y="52.5"><title>2021-05-12</title></rect><rect fill="#444444" height="2.6" width="2.6" x="76.5" y="56.0"><title>2021-05-13</title></rect><rect fill="#444444" height="2.6" width="2.6" x="76.5" y="59.5"><title>2021-05-14</title></rect><rect fill="#444444" height="2.6" width="2.6" x="76.5" y="63.0"><title>2021-05-15</title></rect><rect fill="#444444" height="2.6" width="2.6" x="76.5" y="66.5"><title>2021-05-16</title></rect><rect fill="#444444" height="2.6" width="2.6" x="80.0" y="45.5"><title>2021-05-17</title></rect><rect fill="#444444" height="2.6" width="2.6" x="80.0" y="49.0"><title>2021-05-18</title></rect><rect fill="#444444" height="2.6" width="2.6" x="80.0" y="52.5"><title>2021-05-19</title></rect><rect fill="#444444" height="2.6" width="2.6" x="80.0" y="56.0"><title>2021-05-20</title></rect><rect fill="#444444" height="2.6" width="2.6" x="80.0" y="59.5"><title>2021-05-21</title></rect><rect fill="#444444" height="2.6" width="2.6" x="80.0" y="63.0"><title>2021-05-22</title></rect><rect fill="#444444" height="2.6" width="2.6" x="80.0" y="66.5"><title>2021-05-23</title></rect><rect fill="#444444" height="2.6" width="2.6" x="83.5" y="45.5"><title>2021-05-24</title></rect><rect fill="#444444" height="2.6" width="2.6" x="83.5" y="49.0"><title>2021-05-25</title></rect><rect fill="#444444" height="2.6" width="2.6" x="83.5" y="52.5"><title>2021-05-26</title></rect><rect fill="#444444" height="2.6" width="2.6" x="83.5" y="56.0"><title>2021-05-27</title></rect><rect fill="#444444" height="2.6" width="2.6" x="83.5" y="59.5"><title>2021-05-28</title></rect><rect fill="#444444" height="2.6" width="2.6" x="83.5" y="63.0"><title>2021-05-29</title></rect><rect fill="#444444" height="2.6" width="2.6" x="83.5" y="66.5"><title>2021-05-30</title></rect><rect fill="#444444" height="2.6" width="2.6" x="87.0" y="45.5"><title>2021-05-31</title></rect><rect fill="#444444" height="2.6" width="2.6" x="87.0" y="49.0"><title>2021-06-01</title></rect><rect fill="#444444" height="2.6" width="2.6" x="87.0" y="52.5"><title>2021-06-02</title></rect><rect fill="#444444" height="2.6" width="2.6" x="87.0" y="56.0"><title>2021-06-03</title></rect><rect fill="#444444" height="2.6" width="2.6" x="87.0" y="59.5"><title>2021-06-04</title></rect><rect fill="#444444" height="2.6" width="2.6" x="87.0" y="63.0"><title>2021-06-05</title></rect><rect fill="#444444" height="2.6" width="2.6" x="87.0" y="66.5"><title>2021-06-06</title></rect><rect fill="#444444" height="2.6" width="2.6" x="90.5" y="45.5"><title>2021-06-07</title></rect><rect fill="#444444" height="2.6" width="2.6" x="90.5" y="49.0"><title>2021-06-08</title></rect><rect fill="#444444" height="2.6" width="2.6" x="90.5" y="52.5"><title>2021-06-09</title></rect><rect fill="#444444" height="2.6" width="2.6" x="90.5" y="56.0"><title>2021-06-10</title></rect><rect fill="#444444" height="2.6" width="2.6" x="90.5" y="59.5"><title>2021-06-11</title></rect><rect fill="#444444" height="2.6" width="2.6" x="90.5" y="63.0"><title>2021-06-12</title></rect><rect fill="#444444" height="2.6" width="2.6" x="90.5" y="66.5"><title>2021-06-13</title></rect><rect fill="#444444" height="2.6" width="2.6" x="94.0" y="45.5"><title>2021-06-14</title></rect><rect fill="#444444" height="2.6" width="2.6" x="94.0" y="49.0"><title>2021-06-15</title></rect><rect fill="#444444" height="2.6" width="2.6" x="94.0" y="52.5"><title>2021-06-16</title></rect><rect fill="#444444" height="2.6" width="2.6" x="94.0" y="56.0"><title>2021-06-17</title></rect><rect fill="#444444" height="2.6" width="2.6" x="94.0" y="59.5"><title>2021-06-18</title></rect><rect fill="#444444" height="2.6" width="2.6" x="94.0" y="63.0"><title>2021-06-19</title></rect><rect fill="#444444" height="2.6" width="2.6" x="94.0" y="66.5"><title>2021-06-20</title></rect><rect fill="#444444" height="2.6" width="2.6" x="97.5" y="45.5"><title>2021-06-21</title></rect><rect fill="#444444" height="2.6" width="2.6" x="97.5" y="49.0"><title>2021-06-22</title></rect><rect fill="#444444" height="2.6" width="2.6" x="97.5" y="52.5"><title>2021-06-23</title></rect><rect fill="#444444" height="2.6" width="2.6" x="97.5" y="56.0"><title>2021-06-24</title></rect><rect fill="#444444" height="2.6" width="2.6" x="97.5" y="59.5"><title>2021-06-25</title></rect><rect fill="#444444" height="2.6" width="2.6" x="97.5" y="63.0"><title>2021-06-26</title></rect><rect fill="#444444" height="2.6" width="2.6" x="97.5" y="66.5"><title>2021-06-27</title></rect><rect fill="#444444" height="2.6" width="2.6" x="101.0" y="45.5"><title>2021-06-28</title></rect><rect fill="#444444" height="2.6" width="2.6" x="101.0" y="49.0"><title>2021-06-29</title></rect><rect fill="#444444" height="2.6" width="2.6" x="101.0" y="52.5"><title>2021-06-30</title></rect><rect fill="#444444" height="2.6" width="2.6" x="101.0" y="56.0"><title>2021-07-01</title></rect><rect fill="#444444" height="2.6" width="2.6" x="101.0" y="59.5"><title>2021-07-02</title></rect><rect fill="#444444" height="2.6" width="2.6" x="101.0" y="63.0"><title>2021-07-03</title></rect><rect fill="#444444" height="2.6" width="2.6" x="101.0" y="66.5"><title>2021-07-04</title></rect><rect fill="#444444" height="2.6" width="2.6" x="104.5" y="45.5"><title>2021-07-05</title></rect><rect fill="#444444" height="2.6" width="2.6" x="104.5" y="49.0"><title>2021-07-06</title></rect><rect fill="#444444" height="2.6" width="2.6" x="104.5" y="52.5"><title>2021-07-07</title></rect><rect fill="#444444" height="2.6" width="2.6" x="104.5" y="56.0"><title>2021-07-08</title></rect><rect fill="#444444" height="2.6" width="2.6" x="104.5" y="59.5"><title>2021-07-09</title></rect><rect fill="#444444" height="2.6" width="2.6" x="104.5" y="63.0"><title>2021-07-10</title></rect><rect fill="#444444" height="2.6" width="2.6" x="104.5" y="66.5"><title>2021-07-11</title></rect><rect fill="#444444" height="2.6" width="2.6" x="108.0" y="45.5"><title>2021-07-12</title></rect><rect fill="#444444" height="2.6" width="2.6" x="108.0" y="49.0"><title>2021-07-13</title></rect><rect fill="#444444" height="2.6" width="2.6" x="108.0" y="52.5"><title>2021-07-14</title></rect><rect fill="#444444" height="2.6" width="2.6" x="108.0" y="56.0"><title>2021-07-15</title></rect><rect fill="#444444" height="2.6" width="2.6" x="108.0" y="59.5"><title>2021-07-16</title></rect><rect fill="#444444" height="2.6" width="2.6" x="108.0" y="63.0"><title>2021-07-17</title></rect><rect fill="#444444" height="2.6" width="2.6" x="108.0" y="66.5"><title>2021-07-18</title></rect><rect fill="#444444" height="2.6" width="2.6" x="111.5" y="45.5"><title>2021-07-19</title></rect><rect fill="#444444" height="2.6" width="2.6" x="111.5" y="49.0"><title>2021-07-20</title></rect><rect fill="#444444" height="2.6" width="2.6" x="111.5" y="52.5"><title>2021-07-21</title></rect><rect fill="#444444" height="2.6" width="2.6" x="111.5" y="56.0"><title>2021-07-22</title></rect><rect fill="#444444" height="2.6" width="2.6" x="111.5" y="59.5"><title>2021-07-23</title></rect><rect fill="#444444" height="2.6" width="2.6" x="111.5" y="63.0"><title>2021-07-24</title></rect><rect fill="#444444" height="2.6" width="2.6" x="111.5" y="66.5"><title>2021-07-25</title></rect><rect fill="#444444" height="2.6" width="2.6" x="115.0" y="45.5"><title>2021-07-26</title></rect><rect fill="#444444" height="2.6" width="2.6" x="115.0" y="49.0"><title>2021-07-27</title></rect><rect fill="#444444" height="2.6" width="2.6" x="115.0" y="52.5"><title>2021-07-28</title></rect><rect fill="#444444" height="2.6" width="2.6" x="115.0" y="56.0"><title>2021-07-29</title></rect><rect fill="#444444" height="2.6" width="2.6" x="115.0" y="59.5"><title>2021-07-30</title></rect><rect fill="#444444" height="2.6" width="2.6" x="115.0" y="63.0"><title>2021-07-31</title></rect><rect fill="#444444" height="2.6" width="2.6" x="115.0" y="66.5"><title>2021-08-01</title></rect><rect fill="#444444" height="2.6" width="2.6" x="118.5" y="45.5"><title>2021-08-02</title></rect><rect fill="#42ffd6" height="2.6" width="2.6" x="118.5" y="49.0"><title>2021-08-03 400 kCal</title></rect><rect fill="#45ffed" height="2.6" width="2.6" x="118.5" y="52.5"><title>2021-08-04 300 kCal</title></rect><rect fill="#444444" height="2.6" width="2.6" x="118.5" y="56.0"><title>2021-08-05</title></rect><rect fill="#444444" height="2.6" width="2.6" x="118.5" y="59.5"><title>2021-08-06</title></rect><rect fill="#444444" height="2.6" width="2.6" x="118.5" y="63.0"><title>2021-08-07</title></rect><rect fill="#444444" height="2.6" width="2.6" x="118.5" y="66.5"><title>2021-08-08</title></rect><rect fill="#444444" height="2.6" width="2.6" x="122.0" y="45.5"><title>2021-08-09</title></rect><rect fill="#444444" height="2.6" width="2.6" x="122.0" y="49.0"><title>2021-08-10</title></rect><rect fill="#444444" height="2.6" width="2.6" x="122.0" y="52.5"><title>2021-08-11</title></rect><rect fill="#444444" height="2.6" width="2.6" x="122.0" y="56.0"><title>2021-08-12</title></rect><rect fill="#444444" height="2.6" width="2.6" x="122.0" y="59.5"><title>2021-08-13</title></rect><rect fill="#444444" height="2.6" width="2.6" x="122.0" y="63.0"><title>2021-08-14</title></rect><rect fill="#444444" height="2.6" width="2.6" x="122.0" y="66.5"><title>2021-08-15</title></rect><rect fill="#444444" height="2.6" width="2.6" x="125.5" y="45.5"><title>2021-08-16</title></rect><rect fill="#444444" height="2.6" width="2.6" x="125.5" y="49.0"><title>2021-08-17</title></rect><rect fill="#444444" height="2.6" width="2.6" x="125.5" y="52.5"><title>2021-08-18</title></rect><rect fill="#444444" height="2.6" width="2.6" x="125.5" y="56.0"><title>2021-08-19</title></rect><rect fill="#444444" height="2.6" width="2.6" x="125.5" y="59.5"><title>2021-08-20</title></rect><rect fill="#444444" height="2.6" width="2.6" x="125.5" y="63.0"><title>2021-08-21</title></rect><rect fill="#444444" height="2.6" width="2.6" x="125.5" y="66.5"><title>2021-08-22</title></rect><rect fill="#444444" height="2.6" width="2.6" x="129.0" y="45.5"><title>2021-08-23</title></rect><rect fill="#444444" height="2.6" width="2.6" x="129.0" y="49.0"><title>2021-08-24</title></rect><rect fill="#444444" height="2.6" width="2.6" x="129.0" y="52.5"><title>2021-08-25</title></rect><rect fill="#444444" height="2.6" width="2.6" x="129.0" y="56.0"><title>2021-08-26</title></rect><rect fill="#444444" height="2.6" width="2.6" x="129.0" y="59.5"><title>2021-08-27</title></rect><rect fill="#444444" height="2.6" width="2.6" x="129.0" y="63.0"><title>2021-08-28</title></rect><rect fill="#444444" height="2.6" width="2.6" x="129.0" y="66.5"><title>2021-08-29</title></rect><rect fill="#444444" height="2.6" width="2.6" x="132.5" y="45.5"><title>2021-08-30</title></rect><rect fill="#444444" height="2.6" width="2.6" x="132.5" y="49.0"><title>2021-08-31</title></rect><rect fill="#444444" height="2.6" width="2.6" x="132.5" y="52.5"><title>2021-09-01</title></rect><rect fill="#444444" height="2.6" width="2.6" x="132.5" y="56.0"><title>2021-09-02</title></rect><rect fill="#444444" height="2.6" width="2.6" x="132.5" y="59.5"><title>2021-09-03</title></rect><rect fill="#444444" height="2.6" width="2.6" x="132.5" y="63.0"><title>2021-09-04</title></rect><rect fill="#444444" height="2.6" width="2.6" x="132.5" y="66.5"><title>2021-09-05</title></rect><rect fill="#444444" height="2.6" width="2.6" x="136.0" y="45.5"><title>2021-09-06</title></rect><rect fill="#444444" height="2.6" width="2.6" x="136.0" y="49.0"><title>2021-09-07</title></rect><rect fill="#444444" height="2.6" width="2.6" x="136.0" y="52.5"><title>2021-09-08</title></rect><rect fill="#444444" height="2.6" width="2.6" x="136.0" y="56.0"><title>2021-09-09</title></rect><rect fill="#444444" height="2.6" width="2.6" x="136.0" y="59.5"><title>2021-09-10</title></rect><rect fill="#444444" height="2.6" width="2.6" x="136.0" y="63.0"><title>2021-09-11</title></rect><rect fill="#444444" height="2.6" width="2.6" x="136.0" y="66.5"><title>2021-09-12</title></rect><rect fill="#444444" height="2.6" width="2.6" x="139.5" y="45.5"><title>2021-09-13</title></rect><rect fill="#444444" height="2.6" width="2.6" x="139.5" y="49.0"><title>2021-09-14</title></rect><rect fill="#444444" height="2.6" width="2.6" x="139.5" y="52.5"><title>2021-09-15</title></rect><rect fill="#444444" height="2.6" width="2.6" x="139.5" y="56.0"><title>2021-09-16</title></rect><rect fill="#444444" height="2.6" width="2.6" x="139.5" y="59.5"><title>2021-09-17</title></rect><rect fill="#444444" height="2.6" width="2.6" x="139.5" y="63.0"><title>2021-09-18</title></rect><rect fill="#444444" height="2.6" width="2.6" x="139.5" y="66.5"><title>2021-09-19</title></rect><rect fill="#444444" height="2.6" width="2.6" x="143.0" y="45.5"><title>2021-09-20</title></rect><rect fill="#444444" height="2.6" width="2.6" x="143.0" y="49.0"><title>2021-09-21</title></rect><rect fill="#444444" height="2.6" width="2.6" x="143.0" y="52.5"><title>2021-09-22</title></rect><rect fill="#444444" height="2.6" width="2.6" x="143.0" y="56.0"><title>2021-09-23</title></rect><rect fill="#444444" height="2.6" width="2.6" x="143.0" y="59.5"><title>2021-09-24</title></rect><rect fill="#444444" height="2.6" width="2.6" x="143.0" y="63.0"><title>2021-09-25</title></rect><rect fill="#444444" height="2.6" width="2.6" x="143.0" y="66.5"><title>2021-09-26</title></rect><rect fill="#444444" height="2.6" width="2.6" x="146.5" y="45.5"><title>2021-09-27</title></rect><rect fill="#444444" height="2.6" width="2.6" x="146.5" y="49.0"><title>2021-09-28</title></rect><rect fill="#444444" height="2.6" width="2.6" x="146.5" y="52.5"><title>2021-09-29</title></rect><rect fill="#444444" height="2.6" width="2.6" x="146.5" y="56.0"><title>2021-09-30</title></rect><rect fill="#444444" height="2.6" width="2.6" x="146.5" y="59.5"><title>2021-10-01</title></rect><rect fill="#444444" height="2.6" width="2.6" x="146.5" y="63.0"><title>2021-10-02</title></rect><rect fill="#444444" height="2.6" width="2.6" x="146.5" y="66.5"><title>2021-10-03</title></rect><rect fill="#444444" height="2.6" width="2.6" x="150.0" y="45.5"><title>2021-10-04</title></rect><rect fill="#444444" height="2.6" width="2.6" x="150.0" y="49.0"><title>2021-10-05</title></rect><rect fill="#444444" height="2.6" width="2.6" x="150.0" y="52.5"><title>2021-10-06</title></rect><rect fill="#444444" height="2.6" width="2.6" x="150.0" y="56.0"><title>2021-10-07</title></rect><rect fill="#444444" height="2.6" width="2.6" x="150.0" y="59.5"><title>2021-10-08</title></rect><rect fill="#444444" height="2.6" width="2.6" x="150.0" y="63.0"><title>2021-10-09</title></rect><rect fill="#444444" height="2.6" width="2.6" x="150.0" y="66.5"><title>2021-10-10</title></rect><rect fill="#444444" height="2.6" width="2.6" x="153.5" y="45.5"><title>2021-10-11</title></rect><rect fill="#444444" height="2.6" width="2.6" x="153.5" y="49.0"><title>2021-10-12</title></rect><rect fill="#444444" height="2.6" width="2.6" x="153.5" y="52.5"><title>2021-10-13</title></rect><rect fill="#444444" height="2.6" width="2.6" x="153.5" y="56.0"><title>2021-10-14</title></rect><rect fill="#4dd5ff" height="2.6" width="2.6" x="153.5" y="59.5"><title>2021-10-15 26 kCal</title></rect><rect fill="#ffd800" height="2.6" width="2.6" x="153.5" y="63.0"><title>2021-10-16 427 kCal</title></rect><rect fill="#ffd600" height="2.6" width="2.6" x="153.5" y="66.5"><title>2021-10-17 448 kCal</title></rect><rect fill="#42ffd7" height="2.6" width="2.6" x="157.0" y="45.5"><title>2021-10-18 395 kCal</title></rect><rect fill="#44ffe3" height="2.6" width="2.6" x="157.0" y="49.0"><title>2021-10-19 343 kCal</title></rect><rect fill="#42ffd9" height="2.6" width="2.6" x="157.0" y="52.5"><title>2021-10-20 386 kCal</title></rect><rect fill="#43ffe1" height="2.6" width="2.6" x="157.0" y="56.0"><title>2021-10-21 354 kCal</title></rect><rect fill="#ffd500" height="2.6" width="2.6" x="157.0" y="59.5"><title>2021-10-22 452 kCal</title></rect><rect fill="#ffcc00" height="2.6" width="2.6" x="157.0" y="63.0"><title>2021-10-23 549 kCal</title></rect><rect fill="#ffd800" height="2.6" width="2.6" x="157.0" y="66.5"><title>2021-10-24 427 kCal</title></rect><rect fill="#46fff6" height="2.6" width="2.6" x="160.5" y="45.5"><title>2021-10-25 261 kCal</title></rect><rect fill="#ffd900" height="2.6" width="2.6" x="160.5" y="49.0"><title>2021-10-26 414 kCal</title></rect><rect fill="#43ffdc" height="2.6" width="2.6" x="160.5" y="52.5"><title>2021-10-27 372 kCal</title></rect><rect fill="#ffd500" height="2.6" width="2.6" x="160.5" y="56.0"><title>2021-10-28 457 kCal</title></rect><rect fill="#ffc900" height="2.6" width="2.6" x="160.5" y="59.5"><title>2021-10-29 580 kCal</title></rect><rect fill="#42ffd4" height="2.6" width="2.6" x="160.5" y="63.0"><title>2021-10-30 409 kCal</title></rect><rect fill="#43ffde" height="2.6" width="2.6" x="160.5" y="66.5"><title>2021-10-31 365 kCal</title></rect><rect fill="#43ffdb" height="2.6" width="2.6" x="164.0" y="45.5"><title>2021-11-01 376 kCal</title></rect><rect fill="#ffd300" height="2.6" width="2.6" x="164.0" y="49.0"><title>2021-11-02 480 kCal</title></rect><rect fill="#42ffd5" height="2.6" width="2.6" x="164.0" y="52.5"><title>2021-11-03 402 kCal</title></rect><rect fill="#ffd900" height="2.6" width="2.6" x="164.0" y="56.0"><title>2021-11-04 417 kCal</title></rect><rect fill="#48fbff" height="2.6" width="2.6" x="164.0" y="59.5"><title>2021-11-05 200 kCal</title></rect><rect fill="red" height="2.6" width="2.6" x="164.0" y="63.0"><title>2021-11-06 811 kCal</title></rect><rect fill="red" height="2.6" width="2.6" x="164.0" y="66.5"><title>2021-11-07 834 kCal</title></rect><rect fill="#44ffe8" height="2.6" width="2.6" x="167.5" y="45.5"><title>2021-11-08 323 kCal</title></rect><rect fill="#44ffe6" height="2.6" width="2.6" x="167.5" y="49.0"><title>2021-11-09 329 kCal</title></rect><rect fill="#43ffdc" height="2.6" width="2.6" x="167.5" y="52.5"><title>2021-11-10 372 kCal</title></rect><rect fill="#43ffe0" height="2.6" width="2.6" x="167.5" y="56.0"><title>2021-11-11 357 kCal</title></rect><rect fill="#ffc700" height="2.6" width="2.6" x="167.5" y="59.5"><title>2021-11-12 601 kCal</title></rect><rect fill="#42ffd4" height="2.6" width="2.6" x="167.5" y="63.0"><title>2021-11-13 408 kCal</title></rect><rect fill="#ffc700" height="2.6" width="2.6" x="167.5" y="66.5"><title>2021-11-14 600 kCal</title></rect><rect fill="#49f3ff" height="2.6" width="2.6" x="171.0" y="45.5"><title>2021-11-15 164 kCal</title></rect><rect fill="#ffd700" height="2.6" width="2.6" x="171.0" y="49.0"><title>2021-11-16 431 kCal</title></rect><rect fill="#44ffea" height="2.6" width="2.6" x="171.0" y="52.5"><title>2021-11-17 314 kCal</title></rect><rect fill="#44ffea" height="2.6" width="2.6" x="171.0" y="56.0"><title>2021-11-18 312 kCal</title></rect><rect fill="#45fff2" height="2.6" width="2.6" x="171.0" y="59.5"><title>2021-11-19 279 kCal</title></rect><rect fill="#ffc900" height="2.6" width="2.6" x="171.0" y="63.0"><title>2021-11-20 584 kCal</title></rect><rect fill="#ffcd00" height="2.6" width="2.6" x="171.0" y="66.5"><title>2021-11-21 543 kCal</title></rect><rect fill="#ffd700" height="2.6" width="2.6" x="174.5" y="45.5"><title>2021-11-22 430 kCal</title></rect><rect fill="#ffd700" height="2.6" width="2.6" x="174.5" y="49.0"><title>2021-11-23 436 kCal</title></rect><rect fill="red" height="2.6" width="2.6" x="174.5" y="52.5"><title>2021-11-24 689 kCal</title></rect><rect fill="red" height="2.6" width="2.6" x="174.5" y="56.0"><title>2021-11-25 1602 kCal</title></rect><rect fill="red" height="2.6" width="2.6" x="174.5" y="59.5"><title>2021-11-26 1667 kCal</title></rect><rect fill="red" height="2.6" width="2.6" x="174.5" y="63.0"><title>2021-11-27 1310 kCal</title></rect><rect fill="#ffd300" height="2.6" width="2.6" x="174.5" y="66.5"><title>2021-11-28 480 kCal</title></rect><rect fill="red" height="2.6" width="2.6" x="178.0" y="45.5"><title>2021-11-29 670 kCal</title></rect><rect fill="red" height="2.6" width="2.6" x="178.0" y="49.0"><title>2021-11-30 626 kCal</title></rect><rect fill="red" height="2.6" width="2.6" x="178.0" y="52.5"><title>2021-12-01 646 kCal</title></rect><rect fill="#ffca00" height="2.6" width="2.6" x="178.0" y="56.0"><title>2021-12-02 568 kCal</title></rect><rect fill="red" height="2.6" width="2.6" x="178.0" y="59.5"><title>2021-12-03 609 kCal</title></rect><rect fill="red" height="2.6" width="2.6" x="178.0" y="63.0"><title>2021-12-04 603 kCal</title></rect><rect fill="#42ffd5" height="2.6" width="2.6" x="178.0" y="66.5"><title>2021-12-05 402 kCal</title></rect><rect fill="#43ffe1" height="2.6" width="2.6" x="181.5" y="45.5"><title>2021-12-06 351 kCal</title></rect><rect fill="#42ffd8" height="2.6" width="2.6" x="181.5" y="49.0"><title>2021-12-07 390 kCal</title></rect><rect fill="#ffd600" height="2.6" width="2.6" x="181.5" y="52.5"><title>2021-12-08 444 kCal</title></rect><rect fill="#42ffd6" height="2.6" width="2.6" x="181.5" y="56.0"><title>2021-12-09 399 kCal</title></rect><rect fill="#43ffdf" height="2.6" width="2.6" x="181.5" y="59.5"><title>2021-12-10 362 kCal</title></rect><rect fill="#ffcf00" height="2.6" width="2.6" x="181.5" y="63.0"><title>2021-12-11 518 kCal</title></rect><rect fill="red" height="2.6" width="2.6" x="181.5" y="66.5"><title>2021-12-12 822 kCal</title></rect><rect fill="#44ffe9" height="2.6" width="2.6" x="185.0" y="45.5"><title>2021-12-13 318 kCal</title></rect><rect fill="#ffd600" height="2.6" width="2.6" x="185.0" y="49.0"><title>2021-12-14 440 kCal</title></rect><rect fill="#42ffd7" height="2.6" width="2.6" x="185.0" y="52.5"><title>2021-12-15 396 kCal</title></rect><rect fill="red" height="2.6" width="2.6" x="185.0" y="56.0"><title>2021-12-16 1243 kCal</title></rect><rect fill="red" height="2.6" width="2.6" x="185.0" y="59.5"><title>2021-12-17 1000 kCal</title></rect><rect fill="red" height="2.6" width="2.6" x="185.0" y="63.0"><title>2021-12-18 1617 kCal</title></rect><rect fill="red" height="2.6" width="2.6" x="185.0" y="66.5"><title>2021-12-19 2702 kCal</title></rect><rect fill="red" height="2.6" width="2.6" x="188.5" y="45.5"><title>2021-12-20 1469 kCal</title></rect><rect fill="#ffd800" height="2.6" width="2.6" x="188.5" y="49.0"><title>2021-12-21 419 kCal</title></rect><rect fill="#ffd200" height="2.6" width="2.6" x="188.5" y="52.5"><title>2021-12-22 487 kCal</title></rect><rect fill="red" height="2.6" width="2.6" x="188.5" y="56.0"><title>2021-12-23 605 kCal</title></rect><rect fill="#ffd800" height="2.6" width="2.6" x="188.5" y="59.5"><title>2021-12-24 424 kCal</title></rect><rect fill="#ffcc00" height="2.6" width="2.6" x="188.5" y="63.0"><title>2021-12-25 546 kCal</title></rect><rect fill="red" height="2.6" width="2.6" x="188.5" y="66.5"><title>2021-12-26 741 kCal</title></rect><rect fill="red" height="2.6" width="2.6" x="192.0" y="45.5"><title>2021-12-27 753 kCal</title></rect><rect fill="#45ffeb" height="2.6" width="2.6" x="192.0" y="49.0"><title>2021-12-28 307 kCal</title></rect><rect fill="#ffd300" height="2.6" width="2.6" x="192.0" y="52.5"><title>2021-12-29 479 kCal</title></rect><rect fill="#ffd800" height="2.6" width="2.6" x="192.0" y="56.0"><title>2021-12-30 425 kCal</title></rect><rect fill="#ffd600" height="2.6" width="2.6" x="192.0" y="59.5"><title>2021-12-31 445 kCal</title></rect></svg>