<?xml version="1.0" encoding="utf-8" ?>
<svg baseProfile="full" height="78mm" version="1.1" viewBox="0,0,200,78" width="200mm" xmlns="http://www.w3.org/2000/svg" xmlns:ev="http://www.w3.org/2001/xml-events" xmlns:xlink="http://www.w3.org/1999/xlink"><defs /><rect fill="#222222" height="78" width="200" x="0" y="0" /><text fill="#FFFFFF" style="font-size:12px; font-family:Arial; font-weight:bold;" x="10" y="20">rip-tyang apple_health</text><text dominant-baseline="hanging" fill="#FFFFFF" style="font-size:10.0px; font-family:Arial;" x="10" y="30">2021</text><text dominant-baseline="hanging" fill="#FFFFFF" style="font-size:4.125px; font-family:Arial;" x="175" y="35">56312 kCal</text><text fill="#FFFFFF" style="font-size:2.5px; font-family:Arial" x="10.0" y="44">Jan</text><text fill="#FFFFFF" style="font-size:2.5px; font-family:Arial" x="25.5" y="44">Feb</text><text fill="#FFFFFF" style="font-size:2.5px; font-family:Arial" x="41.0" y="44">Mar</text><text fill="#FFFFFF" style="font-size:2.5px; font-family:Arial" x="56.5" y="44">Apr</text><text fill="#FFFFFF" style="font-size:2.5px; font-family:Arial" x="72.0" y="44">May</text><text fill="#FFFFFF" style="font-size:2.5px; font-family:Arial" x="87.5" y="44">Jun</text><text fill="#FFFFFF" style="font-size:2.5px; font-family:Arial" x="103.0" y="44">Jul</text><text fill="#FFFFFF" style="font-size:2.5px; font-family:Arial" x="118.5" y="44">Aug</text><text fill="#FFFFFF" style="font-size:2.5px; font-family:Arial" x="134.0" y="44">Sep</text><text fill="#FFFFFF" style="font-size:2.5px; font-family:Arial" x="149.5" y="44">Oct</text><text fill="#FFFFFF" style="font-size:2.5px; font-family:Arial" x="165.0" y="44">Nov</text><text fill="#FFFFFF" style="font-size:2.5px; font-family:Arial" x="180.5" y="44">Dec</text><rect fill="#444444" height="2.6" width="2.6" x="10.0" y="45.5"><title>2020-12-28</title></rect><rect fill="#444444" height="2.6" width="2.6" x="10.0" y="49.0"><title>2020-12-29</title></rect><rect fill="#444444" height="2.6" width="2.6" x="10.0" y="52.5"><title>2020-12-30</title></rect><rect fill="#444444" height="2.6" width="2.6" x="10.0" y="56.0"><title>2020-12-31</title></rect><rect fill="#4cdcff" height="2.6" width="2.6" x="10.0" y="59.5"><title>2021-01-01 206.32500000000002 kCal</title></rect><rect fill="#444444" height="2.6" width="2.6" x="10.0" y="63.0"><title>2021-01-02</title></rect><rect fill="#444444" height="2.6" width="2.6" x="10.0" y="66.5"><title>2021-01-03</title></rect><rect fill="#4dd6ff" height="2.6" width="2.6" x="13.5" y="45.5"><title>2021-01-04 74.408 kCal</title></rect><rect fill="#444444" height="2.6" width="2.6" x="13.5" y="49.0"><title>2021-01-05</title></rect><rect fill="#4cd8ff" height="2.6" width="2.6" x="13.5" y="52.5"><title>2021-01-06 133.574 kCal</title></rect><rect fill="#444444" height="2.6" width="2.6" x="13.5" y="56.0"><title>2021-01-07</title></rect><rect fill="#444444" height="2.6" width="2.6" x="13.5" y="59.5"><title>2021-01-08</title></rect><rect fill="#444444" height="2.6" width="2.6" x="13.5" y="63.0"><title>2021-01-09</title></rect><rect fill="#444444" height="2.6" width="2.6" x="13.5" y="66.5"><title>2021-01-10</title></rect><rect fill="#444444" height="2.6" width="2.6" x="17.0" y="45.5"><title>2021-01-11</title></rect><rect fill="#4dd3ff" height="2.6" width="2.6" x="17.0" y="49.0"><title>2021-01-12 25.0 kCal</title></rect><rect fill="#49efff" height="2.6" width="2.6" x="17.0" y="52.5"><title>2021-01-13 575.913 kCal</title></rect><rect fill="#4dd6ff" height="2.6" width="2.6" x="17.0" y="56.0"><title>2021-01-14 74.0 kCal</title></rect><rect fill="#4dd2ff" height="2.6" width="2.6" x="17.0" y="59.5"><title>2021-01-15 11.0 kCal</title></rect><rect fill="#444444" height="2.6" width="2.6" x="17.0" y="63.0"><title>2021-01-16</title></rect><rect fill="#444444" height="2.6" width="2.6" x="17.0" y="66.5"><title>2021-01-17</title></rect><rect fill="#444444" height="2.6" width="2.6" x="20.5" y="45.5"><title>2021-01-18</title></rect><rect fill="red" height="2.6" width="2.6" x="20.5" y="49.0"><title>2021-01-19 844.519 kCal</title></rect><rect fill="#4ae8ff" height="2.6" width="2.6" x="20.5" y="52.5"><title>2021-01-20 445.0 kCal</title></rect><rect fill="#4bdeff" height="2.6" width="2.6" x="20.5" y="56.0"><title>2021-01-21 242.0 kCal</title></rect><rect fill="#4dd4ff" height="2.6" width="2.6" x="20.5" y="59.5"><title>2021-01-22 49.0 kCal</title></rect><rect fill="#4cd7ff" height="2.6" width="2.6" x="20.5" y="63.0"><title>2021-01-23 110.0 kCal</title></rect><rect fill="#4cd7ff" height="2.6" width="2.6" x="20.5" y="66.5"><title>2021-01-24 94.0 kCal</title></rect><rect fill="#4be3ff" height="2.6" width="2.6" x="24.0" y="45.5"><title>2021-01-25 340.0 kCal</title></rect><rect fill="#4be2ff" height="2.6" width="2.6" x="24.0" y="49.0"><title>2021-01-26 318.0 kCal</title></rect><rect fill="#4cdaff" height="2.6" width="2.6" x="24.0" y="52.5"><title>2021-01-27 171.0 kCal</title></rect><rect fill="#444444" height="2.6" width="2.6" x="24.0" y="56.0"><title>2021-01-28</title></rect><rect fill="#444444" height="2.6" width="2.6" x="24.0" y="59.5"><title>2021-01-29</title></rect><rect fill="red" height="2.6" width="2.6" x="24.0" y="63.0"><title>2021-01-30 1451.871 kCal</title></rect><rect fill="#444444" height="2.6" width="2.6" x="24.0" y="66.5"><title>2021-01-31</title></rect><rect fill="#444444" height="2.6" width="2.6" x="27.5" y="45.5"><title>2021-02-01</title></rect><rect fill="#4aecff" height="2.6" width="2.6" x="27.5" y="49.0"><title>2021-02-02 519.0 kCal</title></rect><rect fill="#4bdfff" height="2.6" width="2.6" x="27.5" y="52.5"><title>2021-02-03 266.0 kCal</title></rect><rect fill="#4bdfff" height="2.6" width="2.6" x="27.5" y="56.0"><title>2021-02-04 256.905 kCal</title></rect><rect fill="#4be3ff" height="2.6" width="2.6" x="27.5" y="59.5"><title>2021-02-05 350.20700000000005 kCal</title></rect><rect fill="#4aebff" height="2.6" width="2.6" x="27.5" y="63.0"><title>2021-02-06 512.0 kCal</title></rect><rect fill="#4dd5ff" height="2.6" width="2.6" x="27.5" y="66.5"><title>2021-02-07 67.0 kCal</title></rect><rect fill="#4ae7ff" height="2.6" width="2.6" x="31.0" y="45.5"><title>2021-02-08 435.12600000000003 kCal</title></rect><rect fill="#4cdcff" height="2.6" width="2.6" x="31.0" y="49.0"><title>2021-02-09 211.0 kCal</title></rect><rect fill="#4cd9ff" height="2.6" width="2.6" x="31.0" y="52.5"><title>2021-02-10 139.0 kCal</title></rect><rect fill="#4bdfff" height="2.6" width="2.6" x="31.0" y="56.0"><title>2021-02-11 274.80600000000004 kCal</title></rect><rect fill="#4dd5ff" height="2.6" width="2.6" x="31.0" y="59.5"><title>2021-02-12 55.0 kCal</title></rect><rect fill="#4cd8ff" height="2.6" width="2.6" x="31.0" y="63.0"><title>2021-02-13 116.0 kCal</title></rect><rect fill="#4dd4ff" height="2.6" width="2.6" x="31.0" y="66.5"><title>2021-02-14 40.0 kCal</title></rect><rect fill="#4ae7ff" height="2.6" width="2.6" x="34.5" y="45.5"><title>2021-02-15 416.65200000000004 kCal</title></rect><rect fill="#4be1ff" height="2.6" width="2.6" x="34.5" y="49.0"><title>2021-02-16 311.0 kCal</title></rect><rect fill="#4cd7ff" height="2.6" width="2.6" x="34.5" y="52.5"><title>2021-02-17 105.0 kCal</title></rect><rect fill="#4cd6ff" height="2.6" width="2.6" x="34.5" y="56.0"><title>2021-02-18 93.0 kCal</title></rect><rect fill="#4ae9ff" height="2.6" width="2.6" x="34.5" y="59.5"><title>2021-02-19 456.302 kCal</title></rect><rect fill="#4dd4ff" height="2.6" width="2.6" x="34.5" y="63.0"><title>2021-02-20 51.0 kCal</title></rect><rect fill="#4be3ff" height="2.6" width="2.6" x="34.5" y="66.5"><title>2021-02-21 352.798 kCal</title></rect><rect fill="#4cd9ff" height="2.6" width="2.6" x="38.0" y="45.5"><title>2021-02-22 148.43 kCal</title></rect><rect fill="#444444" height="2.6" width="2.6" x="38.0" y="49.0"><title>2021-02-23</title></rect><rect fill="#4cd7ff" height="2.6" width="2.6" x="38.0" y="52.5"><title>2021-02-24 108.294 kCal</title></rect><rect fill="#444444" height="2.6" width="2.6" x="38.0" y="56.0"><title>2021-02-25</title></rect><rect fill="#444444" height="2.6" width="2.6" x="38.0" y="59.5"><title>2021-02-26</title></rect><rect fill="#444444" height="2.6" width="2.6" x="38.0" y="63.0"><title>2021-02-27</title></rect><rect fill="#444444" height="2.6" width="2.6" x="38.0" y="66.5"><title>2021-02-28</title></rect><rect fill="#444444" height="2.6" width="2.6" x="41.5" y="45.5"><title>2021-03-01</title></rect><rect fill="#444444" height="2.6" width="2.6" x="41.5" y="49.0"><title>2021-03-02</title></rect><rect fill="#444444" height="2.6" width="2.6" x="41.5" y="52.5"><title>2021-03-03</title></rect><rect fill="#4be0ff" height="2.6" width="2.6" x="41.5" y="56.0"><title>2021-03-04 279.81299999999993 kCal</title></rect><rect fill="#444444" height="2.6" width="2.6" x="41.5" y="59.5"><title>2021-03-05</title></rect><rect fill="#444444" height="2.6" width="2.6" x="41.5" y="63.0"><title>2021-03-06</title></rect><rect fill="#444444" height="2.6" width="2.6" x="41.5" y="66.5"><title>2021-03-07</title></rect><rect fill="#444444" height="2.6" width="2.6" x="45.0" y="45.5"><title>2021-03-08</title></rect><rect fill="#444444" height="2.6" width="2.6" x="45.0" y="49.0"><title>2021-03-09</title></rect><rect fill="#444444" height="2.6" width="2.6" x="45.0" y="52.5"><title>2021-03-10</title></rect><rect fill="#444444" height="2.6" width="2.6" x="45.0" y="56.0"><title>2021-03-11</title></rect><rect fill="#444444" height="2.6" width="2.6" x="45.0" y="59.5"><title>2021-03-12</title></rect><rect fill="#444444" height="2.6" width="2.6" x="45.0" y="63.0"><title>2021-03-13</title></rect><rect fill="#444444" height="2.6" width="2.6" x="45.0" y="66.5"><title>2021-03-14</title></rect><rect fill="#444444" height="2.6" width="2.6" x="48.5" y="45.5"><title>2021-03-15</title></rect><rect fill="#444444" height="2.6" width="2.6" x="48.5" y="49.0"><title>2021-03-16</title></rect><rect fill="#444444" height="2.6" width="2.6" x="48.5" y="52.5"><title>2021-03-17</title></rect><rect fill="#444444" height="2.6" width="2.6" x="48.5" y="56.0"><title>2021-03-18</title></rect><rect fill="#444444" height="2.6" width="2.6" x="48.5" y="59.5"><title>2021-03-19</title></rect><rect fill="#444444" height="2.6" width="2.6" x="48.5" y="63.0"><title>2021-03-20</title></rect><rect fill="#444444" height="2.6" width="2.6" x="48.5" y="66.5"><title>2021-03-21</title></rect><rect fill="#4cdcff" height="2.6" width="2.6" x="52.0" y="45.5"><title>2021-03-22 199.363 kCal</title></rect><rect fill="#444444" height="2.6" width="2.6" x="52.0" y="49.0"><title>2021-03-23</title></rect><rect fill="#444444" height="2.6" width="2.6" x="52.0" y="52.5"><title>2021-03-24</title></rect><rect fill="#444444" height="2.6" width="2.6" x="52.0" y="56.0"><title>2021-03-25</title></rect><rect fill="#444444" height="2.6" width="2.6" x="52.0" y="59.5"><title>2021-03-26</title></rect><rect fill="#444444" height="2.6" width="2.6" x="52.0" y="63.0"><title>2021-03-27</title></rect><rect fill="#444444" height="2.6" width="2.6" x="52.0" y="66.5"><title>2021-03-28</title></rect><rect fill="#444444" height="2.6" width="2.6" x="55.5" y="45.5"><title>2021-03-29</title></rect><rect fill="#444444" height="2.6" width="2.6" x="55.5" y="49.0"><title>2021-03-30</title></rect><rect fill="#444444" height="2.6" width="2.6" x="55.5" y="52.5"><title>2021-03-31</title></rect><rect fill="#444444" height="2.6" width="2.6" x="55.5" y="56.0"><title>2021-04-01</title></rect><rect fill="#444444" height="2.6" width="2.6" x="55.5" y="59.5"><title>2021-04-02</title></rect><rect fill="#444444" height="2.6" width="2.6" x="55.5" y="63.0"><title>2021-04-03</title></rect><rect fill="#444444" height="2.6" width="2.6" x="55.5" y="66.5"><title>2021-04-04</title></rect><rect fill="#444444" height="2.6" width="2.6" x="59.0" y="45.5"><title>2021-04-05</title></rect><rect fill="#444444" height="2.6" width="2.6" x="59.0" y="49.0"><title>2021-04-06</title></rect><rect fill="#444444" height="2.6" width="2.6" x="59.0" y="52.5"><title>2021-04-07</title></rect><rect fill="#444444" height="2.6" width="2.6" x="59.0" y="56.0"><title>2021-04-08</title></rect><rect fill="#444444" height="2.6" width="2.6" x="59.0" y="59.5"><title>2021-04-09</title></rect><rect fill="#444444" height="2.6" width="2.6" x="59.0" y="63.0"><title>2021-04-10</title></rect><rect fill="#444444" height="2.6" width="2.6" x="59.0" y="66.5"><title>2021-04-11</title></rect><rect fill="#444444" height="2.6" width="2.6" x="62.5" y="45.5"><title>2021-04-12</title></rect><rect fill="#444444" height="2.6" width="2.6" x="62.5" y="49.0"><title>2021-04-13</title></rect><rect fill="#444444" height="2.6" width="2.6" x="62.5" y="52.5"><title>2021-04-14</title></rect><rect fill="#444444" height="2.6" width="2.6" x="62.5" y="56.0"><title>2021-04-15</title></rect><rect fill="#444444" height="2.6" width="2.6" x="62.5" y="59.5"><title>2021-04-16</title></rect><rect fill="#444444" height="2.6" width="2.6" x="62.5" y="63.0"><title>2021-04-17</title></rect><rect fill="#444444" height="2.6" width="2.6" x="62.5" y="66.5"><title>2021-04-18</title></rect><rect fill="#444444" height="2.6" width="2.6" x="66.0" y="45.5"><title>2021-04-19</title></rect><rect fill="#444444" height="2.6" width="2.6" x="66.0" y="49.0"><title>2021-04-20</title></rect><rect fill="#444444" height="2.6" width="2.6" x="66.0" y="52.5"><title>2021-04-21</title></rect><rect fill="#444444" height="2.6" width="2.6" x="66.0" y="56.0"><title>2021-04-22</title></rect><rect fill="#444444" height="2.6" width="2.6" x="66.0" y="59.5"><title>2021-04-23</title></rect><rect fill="#444444" height="2.6" width="2.6" x="66.0" y="63.0"><title>2021-04-24</title></rect><rect fill="#444444" height="2.6" width="2.6" x="66.0" y="66.5"><title>2021-04-25</title></rect><rect fill="#444444" height="2.6" width="2.6" x="69.5" y="45.5"><title>2021-04-26</title></rect><rect fill="#444444" height="2.6" width="2.6" x="69.5" y="49.0"><title>2021-04-27</title></rect><rect fill="#444444" height="2.6" width="2.6" x="69.5" y="52.5"><title>2021-04-28</title></rect><rect fill="#444444" height="2.6" width="2.6" x="69.5" y="56.0"><title>2021-04-29</title></rect><rect fill="#444444" height="2.6" width="2.6" x="69.5" y="59.5"><title>2021-04-30</title></rect><rect fill="#444444" height="2.6" width="2.6" x="69.5" y="63.0"><title>2021-05-01</title></rect><rect fill="#444444" height="2.6" width="2.6" x="69.5" y="66.5"><title>2021-05-02</title></rect><rect fill="#444444" height="2.6" width="2.6" x="73.0" y="45.5"><title>2021-05-03</title></rect><rect fill="#444444" height="2.6" width="2.6" x="73.0" y="49.0"><title>2021-05-04</title></rect><rect fill="#444444" height="2.6" width="2.6" x="73.0" y="52.5"><title>2021-05-05</title></rect><rect fill="#444444" height="2.6" width="2.6" x="73.0" y="56.0"><title>2021-05-06</title></rect><rect fill="#444444" height="2.6" width="2.6" x="73.0" y="59.5"><title>2021-05-07</title></rect><rect fill="#444444" height="2.6" width="2.6" x="73.0" y="63.0"><title>2021-05-08</title></rect><rect fill="#444444" height="2.6" width="2.6" x="73.0" y="66.5"><title>2021-05-09</title></rect><rect fill="#444444" height="2.6" width="2.6" x="76.5" y="45.5"><title>2021-05-10</title></rect><rect fill="#444444" height="2.6" width="2.6" x="76.5" y="49.0"><title>2021-05-11</title></rect><rect fill="#444444" height="2.6" width="2.6" x="76.5" y="52.5"><title>2021-05-12</title></rect><rect fill="#444444" height="2.6" width="2.6" x="76.5" y="56.0"><title>2021-05-13</title></rect><rect fill="#444444" height="2.6" width="2.6" x="76.5" y="59.5"><title>2021-05-14</title></rect><rect fill="#444444" height="2.6" width="2.6" x="76.5" y="63.0"><title>2021-05-15</title></rect><rect fill="#444444" height="2.6" width="2.6" x="76.5" y="66.5"><title>2021-05-16</title></rect><rect fill="#444444" height="2.6" width="2.6" x="80.0" y="45.5"><title>2021-05-17</title></rect><rect fill="#444444" height="2.6" width="2.6" x="80.0" y="49.0"><title>2021-05-18</title></rect><rect fill="#444444" height="2.6" width="2.6" x="80.0" y="52.5"><title>2021-05-19</title></rect><rect fill="#444444" height="2.6" width="2.6" x="80.0" y="56.0"><title>2021-05-20</title></rect><rect fill="#444444" height="2.6" width="2.6" x="80.0" y="59.5"><title>2021-05-21</title></rect><rect fill="#444444" height="2.6" width="2.6" x="80.0" y="63.0"><title>2021-05-22</title></rect><rect fill="#444444" height="2.6" width="2.6" x="80.0" y="66.5"><title>2021-05-23</title></rect><rect fill="#444444" height="2.6" width="2.6" x="83.5" y="45.5"><title>2021-05-24</title></rect><rect fill="#444444" height="2.6" width="2.6" x="83.5" y="49.0"><title>2021-05-25</title></rect><rect fill="#444444" height="2.6" width="2.6" x="83.5" y="52.5"><title>2021-05-26</title></rect><rect fill="#444444" height="2.6" width="2.6" x="83.5" y="56.0"><title>2021-05-27</title></rect><rect fill="#444444" height="2.6" width="2.6" x="83.5" y="59.5"><title>2021-05-28</title></rect><rect fill="#444444" height="2.6" width="2.6" x="83.5" y="63.0"><title>2021-05-29</title></rect><rect fill="#444444" height="2.6" width="2.6" x="83.5" y="66.5"><title>2021-05-30</title></rect><rect fill="#444444" height="2.6" width="2.6" x="87.0" y="45.5"><title>2021-05-31</title></rect><rect fill="#444444" height="2.6" width="2.6" x="87.0" y="49.0"><title>2021-06-01</title></rect><rect fill="#444444" height="2.6" width="2.6" x="87.0" y="52.5"><title>2021-06-02</title></rect><rect fill="#444444" height="2.6" width="2.6" x="87.0" y="56.0"><title>2021-06-03</title></rect><rect fill="#444444" height="2.6" width="2.6" x="87.0" y="59.5"><title>2021-06-04</title></rect><rect fill="#444444" height="2.6" width="2.6" x="87.0" y="63.0"><title>2021-06-05</title></rect><rect fill="#444444" height="2.6" width="2.6" x="87.0" y="66.5"><title>2021-06-06</title></rect><rect fill="#444444" height="2.6" width="2.6" x="90.5" y="45.5"><title>2021-06-07</title></rect><rect fill="#444444" height="2.6" width="2.6" x="90.5" y="49.0"><title>2021-06-08</title></rect><rect fill="#444444" height="2.6" width="2.6" x="90.5" y="52.5"><title>2021-06-09</title></rect><rect fill="#444444" height="2.6" width="2.6" x="90.5" y="56.0"><title>2021-06-10</title></rect><rect fill="#444444" height="2.6" width="2.6" x="90.5" y="59.5"><title>2021-06-11</title></rect><rect fill="#444444" height="2.6" width="2.6" x="90.5" y="63.0"><title>2021-06-12</title></rect><rect fill="#444444" height="2.6" width="2.6" x="90.5" y="66.5"><title>2021-06-13</title></rect><rect fill="#444444" height="2.6" width="2.6" x="94.0" y="45.5"><title>2021-06-14</title></rect><rect fill="#444444" height="2.6" width="2.6" x="94.0" y="49.0"><title>2021-06-15</title></rect><rect fill="#444444" height="2.6" width="2.6" x="94.0" y="52.5"><title>2021-06-16</title></rect><rect fill="#444444" height="2.6" width="2.6" x="94.0" y="56.0"><title>2021-06-17</title></rect><rect fill="#444444" height="2.6" width="2.6" x="94.0" y="59.5"><title>2021-06-18</title></rect><rect fill="#444444" height="2.6" width="2.6" x="94.0" y="63.0"><title>2021-06-19</title></rect><rect fill="#444444" height="2.6" width="2.6" x="94.0" y="66.5"><title>2021-06-20</title></rect><rect fill="#444444" height="2.6" width="2.6" x="97.5" y="45.5"><title>2021-06-21</title></rect><rect fill="#444444" height="2.6" width="2.6" x="97.5" y="49.0"><title>2021-06-22</title></rect><rect fill="#444444" height="2.6" width="2.6" x="97.5" y="52.5"><title>2021-06-23</title></rect><rect fill="#444444" height="2.6" width="2.6" x="97.5" y="56.0"><title>2021-06-24</title></rect><rect fill="#444444" height="2.6" width="2.6" x="97.5" y="59.5"><title>2021-06-25</title></rect><rect fill="#444444" height="2.6" width="2.6" x="97.5" y="63.0"><title>2021-06-26</title></rect><rect fill="#444444" height="2.6" width="2.6" x="97.5" y="66.5"><title>2021-06-27</title></rect><rect fill="#444444" height="2.6" width="2.6" x="101.0" y="45.5"><title>2021-06-28</title></rect><rect fill="#444444" height="2.6" width="2.6" x="101.0" y="49.0"><title>2021-06-29</title></rect><rect fill="#444444" height="2.6" width="2.6" x="101.0" y="52.5"><title>2021-06-30</title></rect><rect fill="#444444" height="2.6" width="2.6" x="101.0" y="56.0"><title>2021-07-01</title></rect><rect fill="#444444" height="2.6" width="2.6" x="101.0" y="59.5"><title>2021-07-02</title></rect><rect fill="#444444" height="2.6" width="2.6" x="101.0" y="63.0"><title>2021-07-03</title></rect><rect fill="#444444" height="2.6" width="2.6" x="101.0" y="66.5"><title>2021-07-04</title></rect><rect fill="#444444" height="2.6" width="2.6" x="104.5" y="45.5"><title>2021-07-05</title></rect><rect fill="#444444" height="2.6" width="2.6" x="104.5" y="49.0"><title>2021-07-06</title></rect><rect fill="#444444" height="2.6" width="2.6" x="104.5" y="52.5"><title>2021-07-07</title></rect><rect fill="#444444" height="2.6" width="2.6" x="104.5" y="56.0"><title>2021-07-08</title></rect><rect fill="#444444" height="2.6" width="2.6" x="104.5" y="59.5"><title>2021-07-09</title></rect><rect fill="#444444" height="2.6" width="2.6" x="104.5" y="63.0"><title>2021-07-10</title></rect><rect fill="#444444" height="2.6" width="2.6" x="104.5" y="66.5"><title>2021-07-11</title></rect><rect fill="#444444" height="2.6" width="2.6" x="108.0" y="45.5"><title>2021-07-12</title></rect><rect fill="#444444" height="2.6" width="2.6" x="108.0" y="49.0"><title>2021-07-13</title></rect><rect fill="#444444" height="2.6" width="2.6" x="108.0" y="52.5"><title>2021-07-14</title></rect><rect fill="#444444" height="2.6" width="2.6" x="108.0" y="56.0"><title>2021-07-15</title></rect><rect fill="#444444" height="2.6" width="2.6" x="108.0" y="59.5"><title>2021-07-16</title></rect><rect fill="#444444" height="2.6" width="2.6" x="108.0" y="63.0"><title>2021-07-17</title></rect><rect fill="#444444" height="2.6" width="2.6" x="108.0" y="66.5"><title>2021-07-18</title></rect><rect fill="#444444" height="2.6" width="2.6" x="111.5" y="45.5"><title>2021-07-19</title></rect><rect fill="#444444" height="2.6" width="2.6" x="111.5" y="49.0"><title>2021-07-20</title></rect><rect fill="#444444" height="2.6" width="2.6" x="111.5" y="52.5"><title>2021-07-21</title></rect><rect fill="#444444" height="2.6" width="2.6" x="111.5" y="56.0"><title>2021-07-22</title></rect><rect fill="#444444" height="2.6" width="2.6" x="111.5" y="59.5"><title>2021-07-23</title></rect><rect fill="#444444" height="2.6" width="2.6" x="111.5" y="63.0"><title>2021-07-24</title></rect><rect fill="#444444" height="2.6" width="2.6" x="111.5" y="66.5"><title>2021-07-25</title></rect><rect fill="#444444" height="2.6" width="2.6" x="115.0" y="45.5"><title>2021-07-26</title></rect><rect fill="#444444" height="2.6" width="2.6" x="115.0" y="49.0"><title>2021-07-27</title></rect><rect fill="#444444" height="2.6" width="2.6" x="115.0" y="52.5"><title>2021-07-28</title></rect><rect fill="#444444" height="2.6" width="2.6" x="115.0" y="56.0"><title>2021-07-29</title></rect><rect fill="#444444" height="2.6" width="2.6" x="115.0" y="59.5"><title>2021-07-30</title></rect><rect fill="#444444" height="2.6" width="2.6" x="115.0" y="63.0"><title>2021-07-31</title></rect><rect fill="#444444" height="2.6" width="2.6" x="115.0" y="66.5"><title>2021-08-01</title></rect><rect fill="#444444" height="2.6" width="2.6" x="118.5" y="45.5"><title>2021-08-02</title></rect><rect fill="#4ae6ff" height="2.6" width="2.6" x="118.5" y="49.0"><title>2021-08-03 400.0 kCal</title></rect><rect fill="#4be1ff" height="2.6" width="2.6" x="118.5" y="52.5"><title>2021-08-04 300.0 kCal</title></rect><rect fill="#444444" height="2.6" width="2.6" x="118.5" y="56.0"><title>2021-08-05</title></rect><rect fill="#444444" height="2.6" width="2.6" x="118.5" y="59.5"><title>2021-08-06</title></rect><rect fill="#444444" height="2.6" width="2.6" x="118.5" y="63.0"><title>2021-08-07</title></rect><rect fill="#444444" height="2.6" width="2.6" x="118.5" y="66.5"><title>2021-08-08</title></rect><rect fill="#444444" height="2.6" width="2.6" x="122.0" y="45.5"><title>2021-08-09</title></rect><rect fill="#444444" height="2.6" width="2.6" x="122.0" y="49.0"><title>2021-08-10</title></rect><rect fill="#444444" height="2.6" width="2.6" x="122.0" y="52.5"><title>2021-08-11</title></rect><rect fill="#444444" height="2.6" width="2.6" x="122.0" y="56.0"><title>2021-08-12</title></rect><rect fill="#444444" height="2.6" width="2.6" x="122.0" y="59.5"><title>2021-08-13</title></rect><rect fill="#444444" height="2.6" width="2.6" x="122.0" y="63.0"><title>2021-08-14</title></rect><rect fill="#444444" height="2.6" width="2.6" x="122.0" y="66.5"><title>2021-08-15</title></rect><rect fill="#444444" height="2.6" width="2.6" x="125.5" y="45.5"><title>2021-08-16</title></rect><rect fill="#444444" height="2.6" width="2.6" x="125.5" y="49.0"><title>2021-08-17</title></rect><rect fill="#444444" height="2.6" width="2.6" x="125.5" y="52.5"><title>2021-08-18</title></rect><rect fill="#444444" height="2.6" width="2.6" x="125.5" y="56.0"><title>2021-08-19</title></rect><rect fill="#444444" height="2.6" width="2.6" x="125.5" y="59.5"><title>2021-08-20</title></rect><rect fill="#444444" height="2.6" width="2.6" x="125.5" y="63.0"><title>2021-08-21</title></rect><rect fill="#444444" height="2.6" width="2.6" x="125.5" y="66.5"><title>2021-08-22</title></rect><rect fill="#444444" height="2.6" width="2.6" x="129.0" y="45.5"><title>2021-08-23</title></rect><rect fill="#444444" height="2.6" width="2.6" x="129.0" y="49.0"><title>2021-08-24</title></rect><rect fill="#444444" height="2.6" width="2.6" x="129.0" y="52.5"><title>2021-08-25</title></rect><rect fill="#444444" height="2.6" width="2.6" x="129.0" y="56.0"><title>2021-08-26</title></rect><rect fill="#444444" height="2.6" width="2.6" x="129.0" y="59.5"><title>2021-08-27</title></rect><rect fill="#444444" height="2.6" width="2.6" x="129.0" y="63.0"><title>2021-08-28</title></rect><rect fill="#444444" height="2.6" width="2.6" x="129.0" y="66.5"><title>2021-08-29</title></rect><rect fill="#444444" height="2.6" width="2.6" x="132.5" y="45.5"><title>2021-08-30</title></rect><rect fill="#444444" height="2.6" width="2.6" x="132.5" y="49.0"><title>2021-08-31</title></rect><rect fill="#444444" height="2.6" width="2.6" x="132.5" y="52.5"><title>2021-09-01</title></rect><rect fill="#444444" height="2.6" width="2.6" x="132.5" y="56.0"><title>2021-09-02</title></rect><rect fill="#444444" height="2.6" width="2.6" x="132.5" y="59.5"><title>2021-09-03</title></rect><rect fill="#444444" height="2.6" width="2.6" x="132.5" y="63.0"><title>2021-09-04</title></rect><rect fill="#444444" height="2.6" width="2.6" x="132.5" y="66.5"><title>2021-09-05</title></rect><rect fill="#444444" height="2.6" width="2.6" x="136.0" y="45.5"><title>2021-09-06</title></rect><rect fill="#444444" height="2.6" width="2.6" x="136.0" y="49.0"><title>2021-09-07</title></rect><rect fill="#444444" height="2.6" width="2.6" x="136.0" y="52.5"><title>2021-09-08</title></rect><rect fill="#444444" height="2.6" width="2.6" x="136.0" y="56.0"><title>2021-09-09</title></rect><rect fill="#444444" height="2.6" width="2.6" x="136.0" y="59.5"><title>2021-09-10</title></rect><rect fill="#444444" height="2.6" width="2.6" x="136.0" y="63.0"><title>2021-09-11</title></rect><rect fill="#444444" height="2.6" width="2.6" x="136.0" y="66.5"><title>2021-09-12</title></rect><rect fill="#444444" height="2.6" width="2.6" x="139.5" y="45.5"><title>2021-09-13</title></rect><rect fill="#444444" height="2.6" width="2.6" x="139.5" y="49.0"><title>2021-09-14</title></rect><rect fill="#444444" height="2.6" width="2.6" x="139.5" y="52.5"><title>2021-09-15</title></rect><rect fill="#444444" height="2.6" width="2.6" x="139.5" y="56.0"><title>2021-09-16</title></rect><rect fill="#444444" height="2.6" width="2.6" x="139.5" y="59.5"><title>2021-09-17</title></rect><rect fill="#444444" height="2.6" width="2.6" x="139.5" y="63.0"><title>2021-09-18</title></rect><rect fill="#444444" height="2.6" width="2.6" x="139.5" y="66.5"><title>2021-09-19</title></rect><rect fill="#444444" height="2.6" width="2.6" x="143.0" y="45.5"><title>2021-09-20</title></rect><rect fill="#444444" height="2.6" width="2.6" x="143.0" y="49.0"><title>2021-09-21</title></rect><rect fill="#444444" height="2.6" width="2.6" x="143.0" y="52.5"><title>2021-09-22</title></rect><rect fill="#444444" height="2.6" width="2.6" x="143.0" y="56.0"><title>2021-09-23</title></rect><rect fill="#444444" height="2.6" width="2.6" x="143.0" y="59.5"><title>2021-09-24</title></rect><rect fill="#444444" height="2.6" width="2.6" x="143.0" y="63.0"><title>2021-09-25</title></rect><rect fill="#444444" height="2.6" width="2.6" x="143.0" y="66.5"><title>2021-09-26</title></rect><rect fill="#444444" height="2.6" width="2.6" x="146.5" y="45.5"><title>2021-09-27</title></rect><rect fill="#444444" height="2.6" width="2.6" x="146.5" y="49.0"><title>2021-09-28</title></rect><rect fill="#444444" height="2.6" width="2.6" x="146.5" y="52.5"><title>2021-09-29</title></rect><rect fill="#444444" height="2.6" width="2.6" x="146.5" y="56.0"><title>2021-09-30</title></rect><rect fill="#444444" height="2.6" width="2.6" x="146.5" y="59.5"><title>2021-10-01</title></rect><rect fill="#444444" height="2.6" width="2.6" x="146.5" y="63.0"><title>2021-10-02</title></rect><rect fill="#444444" height="2.6" width="2.6" x="146.5" y="66.5"><title>2021-10-03</title></rect><rect fill="#444444" height="2.6" width="2.6" x="150.0" y="45.5"><title>2021-10-04</title></rect><rect fill="#444444" height="2.6" width="2.6" x="150.0" y="49.0"><title>2021-10-05</title></rect><rect fill="#444444" height="2.6" width="2.6" x="150.0" y="52.5"><title>2021-10-06</title></rect><rect fill="#444444" height="2.6" width="2.6" x="150.0" y="56.0"><title>2021-10-07</title></rect><rect fill="#444444" height="2.6" width="2.6" x="150.0" y="59.5"><title>2021-10-08</title></rect><rect fill="#444444" height="2.6" width="2.6" x="150.0" y="63.0"><title>2021-10-09</title></rect><rect fill="#444444" height="2.6" width="2.6" x="150.0" y="66.5"><title>2021-10-10</title></rect><rect fill="#444444" height="2.6" width="2.6" x="153.5" y="45.5"><title>2021-10-11</title></rect><rect fill="#444444" height="2.6" width="2.6" x="153.5" y="49.0"><title>2021-10-12</title></rect><rect fill="#444444" height="2.6" width="2.6" x="153.5" y="52.5"><title>2021-10-13</title></rect><rect fill="#444444" height="2.6" width="2.6" x="153.5" y="56.0"><title>2021-10-14</title></rect><rect fill="#4dd3ff" height="2.6" width="2.6" x="153.5" y="59.5"><title>2021-10-15 26.469000000000012 kCal</title></rect><rect fill="#4ae7ff" height="2.6" width="2.6" x="153.5" y="63.0"><title>2021-10-16 427.992 kCal</title></rect><rect fill="#4ae8ff" height="2.6" width="2.6" x="153.5" y="66.5"><title>2021-10-17 448.44699999999955 kCal</title></rect><rect fill="#4ae5ff" height="2.6" width="2.6" x="157.0" y="45.5"><title>2021-10-18 395.42799999999977 kCal</title></rect><rect fill="#4be3ff" height="2.6" width="2.6" x="157.0" y="49.0"><title>2021-10-19 343.6840000000003 kCal</title></rect><rect fill="#4ae5ff" height="2.6" width="2.6" x="157.0" y="52.5"><title>2021-10-20 386.2280000000005 kCal</title></rect><rect fill="#4be3ff" height="2.6" width="2.6" x="157.0" y="56.0"><title>2021-10-21 354.96799999999973 kCal</title></rect><rect fill="#4ae8ff" height="2.6" width="2.6" x="157.0" y="59.5"><title>2021-10-22 452.54800000000006 kCal</title></rect><rect fill="#49edff" height="2.6" width="2.6" x="157.0" y="63.0"><title>2021-10-23 549.8319999999997 kCal</title></rect><rect fill="#4ae7ff" height="2.6" width="2.6" x="157.0" y="66.5"><title>2021-10-24 427.0350000000003 kCal</title></rect><rect fill="#4bdfff" height="2.6" width="2.6" x="160.5" y="45.5"><title>2021-10-25 261.36400000000026 kCal</title></rect><rect fill="#4ae6ff" height="2.6" width="2.6" x="160.5" y="49.0"><title>2021-10-26 414.2870000000007 kCal</title></rect><rect fill="#4be4ff" height="2.6" width="2.6" x="160.5" y="52.5"><title>2021-10-27 372.6359999999998 kCal</title></rect><rect fill="#4ae9ff" height="2.6" width="2.6" x="160.5" y="56.0"><title>2021-10-28 457.5229999999994 kCal</title></rect><rect fill="#fff200" height="2.6" width="2.6" x="160.5" y="59.5"><title>2021-10-29 580.6800000000004 kCal</title></rect><rect fill="#4ae6ff" height="2.6" width="2.6" x="160.5" y="63.0"><title>2021-10-30 409.8199999999994 kCal</title></rect><rect fill="#4be4ff" height="2.6" width="2.6" x="160.5" y="66.5"><title>2021-10-31 365.0150000000001 kCal</title></rect><rect fill="#4ae5ff" height="2.6" width="2.6" x="164.0" y="45.5"><title>2021-11-01 376.7940000000004 kCal</title></rect><rect fill="#4aeaff" height="2.6" width="2.6" x="164.0" y="49.0"><title>2021-11-02 480.7590000000005 kCal</title></rect><rect fill="#4ae6ff" height="2.6" width="2.6" x="164.0" y="52.5"><title>2021-11-03 402.3070000000005 kCal</title></rect><rect fill="#4ae7ff" height="2.6" width="2.6" x="164.0" y="56.0"><title>2021-11-04 417.88899999999995 kCal</title></rect><rect fill="#4cdcff" height="2.6" width="2.6" x="164.0" y="59.5"><title>2021-11-05 200.39899999999992 kCal</title></rect><rect fill="red" height="2.6" width="2.6" x="164.0" y="63.0"><title>2021-11-06 811.2729999999997 kCal</title></rect><rect fill="red" height="2.6" width="2.6" x="164.0" y="66.5"><title>2021-11-07 834.5040000000001 kCal</title></rect><rect fill="#4be2ff" height="2.6" width="2.6" x="167.5" y="45.5"><title>2021-11-08 323.214 kCal</title></rect><rect fill="#4be2ff" height="2.6" width="2.6" x="167.5" y="49.0"><title>2021-11-09 329.7220000000004 kCal</title></rect><rect fill="#4be4ff" height="2.6" width="2.6" x="167.5" y="52.5"><title>2021-11-10 372.3789999999999 kCal</title></rect><rect fill="#4be4ff" height="2.6" width="2.6" x="167.5" y="56.0"><title>2021-11-11 357.6539999999997 kCal</title></rect><rect fill="#fff200" height="2.6" width="2.6" x="167.5" y="59.5"><title>2021-11-12 601.0279999999991 kCal</title></rect><rect fill="#4ae6ff" height="2.6" width="2.6" x="167.5" y="63.0"><title>2021-11-13 408.1520000000001 kCal</title></rect><rect fill="#fff200" height="2.6" width="2.6" x="167.5" y="66.5"><title>2021-11-14 600.8160000000009 kCal</title></rect><rect fill="#4cdaff" height="2.6" width="2.6" x="171.0" y="45.5"><title>2021-11-15 164.17700000000016 kCal</title></rect><rect fill="#4ae7ff" height="2.6" width="2.6" x="171.0" y="49.0"><title>2021-11-16 431.4850000000001 kCal</title></rect><rect fill="#4be1ff" height="2.6" width="2.6" x="171.0" y="52.5"><title>2021-11-17 314.4649999999999 kCal</title></rect><rect fill="#4be1ff" height="2.6" width="2.6" x="171.0" y="56.0"><title>2021-11-18 312.6349999999998 kCal</title></rect><rect fill="#4be0ff" height="2.6" width="2.6" x="171.0" y="59.5"><title>2021-11-19 279.68899999999996 kCal</title></rect><rect fill="#fff200" height="2.6" width="2.6" x="171.0" y="63.0"><title>2021-11-20 584.3650000000004 kCal</title></rect><rect fill="#49edff" height="2.6" width="2.6" x="171.0" y="66.5"><title>2021-11-21 543.178 kCal</title></rect><rect fill="#4ae7ff" height="2.6" width="2.6" x="174.5" y="45.5"><title>2021-11-22 430.7099999999999 kCal</title></rect><rect fill="#4ae8ff" height="2.6" width="2.6" x="174.5" y="49.0"><title>2021-11-23 436.93700000000075 kCal</title></rect><rect fill="#fff000" height="2.6" width="2.6" x="174.5" y="52.5"><title>2021-11-24 689.6660000000006 kCal</title></rect><rect fill="red" height="2.6" width="2.6" x="174.5" y="56.0"><title>2021-11-25 1602.1929999999904 kCal</title></rect><rect fill="red" height="2.6" width="2.6" x="174.5" y="59.5"><title>2021-11-26 1667.9969999999962 kCal</title></rect><rect fill="red" height="2.6" width="2.6" x="174.5" y="63.0"><title>2021-11-27 1310.6030000000028 kCal</title></rect><rect fill="#4aeaff" height="2.6" width="2.6" x="174.5" y="66.5"><title>2021-11-28 480.42700000000093 kCal</title></rect><rect fill="#fff000" height="2.6" width="2.6" x="178.0" y="45.5"><title>2021-11-29 670.9390000000002 kCal</title></rect><rect fill="#fff100" height="2.6" width="2.6" x="178.0" y="49.0"><title>2021-11-30 626.1970000000013 kCal</title></rect><rect fill="#fff100" height="2.6" width="2.6" x="178.0" y="52.5"><title>2021-12-01 646.0350000000014 kCal</title></rect><rect fill="#49eeff" height="2.6" width="2.6" x="178.0" y="56.0"><title>2021-12-02 568.5290000000009 kCal</title></rect><rect fill="#fff100" height="2.6" width="2.6" x="178.0" y="59.5"><title>2021-12-03 609.8440000000005 kCal</title></rect><rect fill="#fff200" height="2.6" width="2.6" x="178.0" y="63.0"><title>2021-12-04 603.0320000000011 kCal</title></rect><rect fill="#4ae6ff" height="2.6" width="2.6" x="178.0" y="66.5"><title>2021-12-05 402.9380000000003 kCal</title></rect><rect fill="#4be3ff" height="2.6" width="2.6" x="181.5" y="45.5"><title>2021-12-06 351.538 kCal</title></rect><rect fill="#4ae5ff" height="2.6" width="2.6" x="181.5" y="49.0"><title>2021-12-07 390.61900000000065 kCal</title></rect><rect fill="#4ae8ff" height="2.6" width="2.6" x="181.5" y="52.5"><title>2021-12-08 444.7740000000001 kCal</title></rect><rect fill="#4ae6ff" height="2.6" width="2.6" x="181.5" y="56.0"><title>2021-12-09 399.97100000000023 kCal</title></rect><rect fill="#4be4ff" height="2.6" width="2.6" x="181.5" y="59.5"><title>2021-12-10 362.1360000000001 kCal</title></rect><rect fill="#4aecff" height="2.6" width="2.6" x="181.5" y="63.0"><title>2021-12-11 518.2650000000001 kCal</title></rect><rect fill="red" height="2.6" width="2.6" x="181.5" y="66.5"><title>2021-12-12 822.9600000000002 kCal</title></rect><rect fill="#4be2ff" height="2.6" width="2.6" x="185.0" y="45.5"><title>2021-12-13 318.46700000000004 kCal</title></rect><rect fill="#4ae8ff" height="2.6" width="2.6" x="185.0" y="49.0"><title>2021-12-14 440.7540000000008 kCal</title></rect><rect fill="#4ae6ff" height="2.6" width="2.6" x="185.0" y="52.5"><title>2021-12-15 396.9029999999996 kCal</title></rect><rect fill="red" height="2.6" width="2.6" x="185.0" y="56.0"><title>2021-12-16 1243.0780999999997 kCal</title></rect><rect fill="red" height="2.6" width="2.6" x="185.0" y="59.5"><title>2021-12-17 1000.3080000000001 kCal</title></rect><rect fill="red" height="2.6" width="2.6" x="185.0" y="63.0"><title>2021-12-18 1617.8298999999977 kCal</title></rect><rect fill="red" height="2.6" width="2.6" x="185.0" y="66.5"><title>2021-12-19 2702.0912999999973 kCal</title></rect><rect fill="red" height="2.6" width="2.6" x="188.5" y="45.5"><title>2021-12-20 1469.663399999997 kCal</title></rect><rect fill="#4ae7ff" height="2.6" width="2.6" x="188.5" y="49.0"><title>2021-12-21 419.3749999999997 kCal</title></rect><rect fill="#4aeaff" height="2.6" width="2.6" x="188.5" y="52.5"><title>2021-12-22 487.1850000000004 kCal</title></rect><rect fill="#fff200" height="2.6" width="2.6" x="188.5" y="56.0"><title>2021-12-23 605.9750000000005 kCal</title></rect><rect fill="#4ae7ff" height="2.6" width="2.6" x="188.5" y="59.5"><title>2021-12-24 424.22499999999974 kCal</title></rect><rect fill="#49edff" height="2.6" width="2.6" x="188.5" y="63.0"><title>2021-12-25 546.7500000000005 kCal</title></rect><rect fill="#ffef00" height="2.6" width="2.6" x="188.5" y="66.5"><title>2021-12-26 741.0840000000007 kCal</title></rect><rect fill="#ffee00" height="2.6" width="2.6" x="192.0" y="45.5"><title>2021-12-27 753.525 kCal</title></rect><rect fill="#4be1ff" height="2.6" width="2.6" x="192.0" y="49.0"><title>2021-12-28 307.91300000000035 kCal</title></rect><rect fill="#4aeaff" height="2.6" width="2.6" x="192.0" y="52.5"><title>2021-12-29 479.1340000000002 kCal</title></rect><rect fill="#4ae7ff" height="2.6" width="2.6" x="192.0" y="56.0"><title>2021-12-30 425.648 kCal</title></rect><rect fill="#4ae8ff" height="2.6" width="2.6" x="192.0" y="59.5"><title>2021-12-31 445.8240000000004 kCal</title></rect></svg>