<?xml version="1.0" encoding="utf-8" ?>
<svg baseProfile="full" height="78mm" version="1.1" viewBox="0,0,200,78" width="200mm" xmlns="http://www.w3.org/2000/svg" xmlns:ev="http://www.w3.org/2001/xml-events" xmlns:xlink="http://www.w3.org/1999/xlink"><defs /><rect fill="#222222" height="78" width="200" x="0" y="0" /><text fill="#FFFFFF" style="font-size:12px; font-family:Arial; font-weight:bold;" x="10" y="20">rip-tyang apple_health</text><text dominant-baseline="hanging" fill="#FFFFFF" style="font-size:10.0px; font-family:Arial;" x="10" y="30">2015</text><text dominant-baseline="hanging" fill="#FFFFFF" style="font-size:4.125px; font-family:Arial;" x="175" y="35">172 hours</text><text fill="#FFFFFF" style="font-size:2.5px; font-family:Arial" x="10.0" y="44">Jan</text><text fill="#FFFFFF" style="font-size:2.5px; font-family:Arial" x="25.5" y="44">Feb</text><text fill="#FFFFFF" style="font-size:2.5px; font-family:Arial" x="41.0" y="44">Mar</text><text fill="#FFFFFF" style="font-size:2.5px; font-family:Arial" x="56.5" y="44">Apr</text><text fill="#FFFFFF" style="font-size:2.5px; font-family:Arial" x="72.0" y="44">May</text><text fill="#FFFFFF" style="font-size:2.5px; font-family:Arial" x="87.5" y="44">Jun</text><text fill="#FFFFFF" style="font-size:2.5px; font-family:Arial" x="103.0" y="44">Jul</text><text fill="#FFFFFF" style="font-size:2.5px; font-family:Arial" x="118.5" y="44">Aug</text><text fill="#FFFFFF" style="font-size:2.5px; font-family:Arial" x="134.0" y="44">Sep</text><text fill="#FFFFFF" style="font-size:2.5px; font-family:Arial" x="149.5" y="44">Oct</text><text fill="#FFFFFF" style="font-size:2.5px; font-family:Arial" x="165.0" y="44">Nov</text><text fill="#FFFFFF" style="font-size:2.5px; font-family:Arial" x="180.5" y="44">Dec</text><rect fill="#444444" height="2.6" width="2.6" x="10.0" y="45.5"><title>2014-12-29</title></rect><rect fill="#444444" height="2.6" width="2.6" x="10.0" y="49.0"><title>2014-12-30</title></rect><rect fill="#444444" height="2.6" width="2.6" x="10.0" y="52.5"><title>2014-12-31</title></rect><rect fill="#444444" height="2.6" width="2.6" x="10.0" y="56.0"><title>2015-01-01</title></rect><rect fill="#444444" height="2.6" width="2.6" x="10.0" y="59.5"><title>2015-01-02</title></rect><rect fill="#444444" height="2.6" width="2.6" x="10.0" y="63.0"><title>2015-01-03</title></rect><rect fill="#444444" height="2.6" width="2.6" x="10.0" y="66.5"><title>2015-01-04</title></rect><rect fill="#444444" height="2.6" width="2.6" x="13.5" y="45.5"><title>2015-01-05</title></rect><rect fill="#444444" height="2.6" width="2.6" x="13.5" y="49.0"><title>2015-01-06</title></rect><rect fill="#444444" height="2.6" width="2.6" x="13.5" y="52.5"><title>2015-01-07</title></rect><rect fill="#444444" height="2.6" width="2.6" x="13.5" y="56.0"><title>2015-01-08</title></rect><rect fill="#444444" height="2.6" width="2.6" x="13.5" y="59.5"><title>2015-01-09</title></rect><rect fill="#444444" height="2.6" width="2.6" x="13.5" y="63.0"><title>2015-01-10</title></rect><rect fill="#444444" height="2.6" width="2.6" x="13.5" y="66.5"><title>2015-01-11</title></rect><rect fill="#444444" height="2.6" width="2.6" x="17.0" y="45.5"><title>2015-01-12</title></rect><rect fill="#444444" height="2.6" width="2.6" x="17.0" y="49.0"><title>2015-01-13</title></rect><rect fill="#444444" height="2.6" width="2.6" x="17.0" y="52.5"><title>2015-01-14</title></rect><rect fill="#444444" height="2.6" width="2.6" x="17.0" y="56.0"><title>2015-01-15</title></rect><rect fill="#444444" height="2.6" width="2.6" x="17.0" y="59.5"><title>2015-01-16</title></rect><rect fill="#444444" height="2.6" width="2.6" x="17.0" y="63.0"><title>2015-01-17</title></rect><rect fill="#444444" height="2.6" width="2.6" x="17.0" y="66.5"><title>2015-01-18</title></rect><rect fill="#444444" height="2.6" width="2.6" x="20.5" y="45.5"><title>2015-01-19</title></rect><rect fill="#444444" height="2.6" width="2.6" x="20.5" y="49.0"><title>2015-01-20</title></rect><rect fill="#444444" height="2.6" width="2.6" x="20.5" y="52.5"><title>2015-01-21</title></rect><rect fill="#444444" height="2.6" width="2.6" x="20.5" y="56.0"><title>2015-01-22</title></rect><rect fill="#444444" height="2.6" width="2.6" x="20.5" y="59.5"><title>2015-01-23</title></rect><rect fill="#444444" height="2.6" width="2.6" x="20.5" y="63.0"><title>2015-01-24</title></rect><rect fill="#444444" height="2.6" width="2.6" x="20.5" y="66.5"><title>2015-01-25</title></rect><rect fill="#444444" height="2.6" width="2.6" x="24.0" y="45.5"><title>2015-01-26</title></rect><rect fill="#444444" height="2.6" width="2.6" x="24.0" y="49.0"><title>2015-01-27</title></rect><rect fill="#444444" height="2.6" width="2.6" x="24.0" y="52.5"><title>2015-01-28</title></rect><rect fill="#444444" height="2.6" width="2.6" x="24.0" y="56.0"><title>2015-01-29</title></rect><rect fill="#444444" height="2.6" width="2.6" x="24.0" y="59.5"><title>2015-01-30</title></rect><rect fill="#444444" height="2.6" width="2.6" x="24.0" y="63.0"><title>2015-01-31</title></rect><rect fill="#444444" height="2.6" width="2.6" x="24.0" y="66.5"><title>2015-02-01</title></rect><rect fill="#444444" height="2.6" width="2.6" x="27.5" y="45.5"><title>2015-02-02</title></rect><rect fill="#444444" height="2.6" width="2.6" x="27.5" y="49.0"><title>2015-02-03</title></rect><rect fill="#444444" height="2.6" width="2.6" x="27.5" y="52.5"><title>2015-02-04</title></rect><rect fill="#444444" height="2.6" width="2.6" x="27.5" y="56.0"><title>2015-02-05</title></rect><rect fill="#444444" height="2.6" width="2.6" x="27.5" y="59.5"><title>2015-02-06</title></rect><rect fill="#444444" height="2.6" width="2.6" x="27.5" y="63.0"><title>2015-02-07</title></rect><rect fill="#444444" height="2.6" width="2.6" x="27.5" y="66.5"><title>2015-02-08</title></rect><rect fill="#444444" height="2.6" width="2.6" x="31.0" y="45.5"><title>2015-02-09</title></rect><rect fill="#444444" height="2.6" width="2.6" x="31.0" y="49.0"><title>2015-02-10</title></rect><rect fill="#444444" height="2.6" width="2.6" x="31.0" y="52.5"><title>2015-02-11</title></rect><rect fill="#444444" height="2.6" width="2.6" x="31.0" y="56.0"><title>2015-02-12</title></rect><rect fill="#444444" height="2.6" width="2.6" x="31.0" y="59.5"><title>2015-02-13</title></rect><rect fill="#444444" height="2.6" width="2.6" x="31.0" y="63.0"><title>2015-02-14</title></rect><rect fill="#444444" height="2.6" width="2.6" x="31.0" y="66.5"><title>2015-02-15</title></rect><rect fill="#444444" height="2.6" width="2.6" x="34.5" y="45.5"><title>2015-02-16</title></rect><rect fill="#444444" height="2.6" width="2.6" x="34.5" y="49.0"><title>2015-02-17</title></rect><rect fill="#444444" height="2.6" width="2.6" x="34.5" y="52.5"><title>2015-02-18</title></rect><rect fill="#444444" height="2.6" width="2.6" x="34.5" y="56.0"><title>2015-02-19</title></rect><rect fill="#444444" height="2.6" width="2.6" x="34.5" y="59.5"><title>2015-02-20</title></rect><rect fill="#444444" height="2.6" width="2.6" x="34.5" y="63.0"><title>2015-02-21</title></rect><rect fill="#444444" height="2.6" width="2.6" x="34.5" y="66.5"><title>2015-02-22</title></rect><rect fill="#444444" height="2.6" width="2.6" x="38.0" y="45.5"><title>2015-02-23</title></rect><rect fill="#444444" height="2.6" width="2.6" x="38.0" y="49.0"><title>2015-02-24</title></rect><rect fill="#444444" height="2.6" width="2.6" x="38.0" y="52.5"><title>2015-02-25</title></rect><rect fill="#444444" height="2.6" width="2.6" x="38.0" y="56.0"><title>2015-02-26</title></rect><rect fill="#444444" height="2.6" width="2.6" x="38.0" y="59.5"><title>2015-02-27</title></rect><rect fill="#444444" height="2.6" width="2.6" x="38.0" y="63.0"><title>2015-02-28</title></rect><rect fill="#444444" height="2.6" width="2.6" x="38.0" y="66.5"><title>2015-03-01</title></rect><rect fill="#444444" height="2.6" width="2.6" x="41.5" y="45.5"><title>2015-03-02</title></rect><rect fill="#444444" height="2.6" width="2.6" x="41.5" y="49.0"><title>2015-03-03</title></rect><rect fill="#444444" height="2.6" width="2.6" x="41.5" y="52.5"><title>2015-03-04</title></rect><rect fill="#444444" height="2.6" width="2.6" x="41.5" y="56.0"><title>2015-03-05</title></rect><rect fill="#444444" height="2.6" width="2.6" x="41.5" y="59.5"><title>2015-03-06</title></rect><rect fill="#444444" height="2.6" width="2.6" x="41.5" y="63.0"><title>2015-03-07</title></rect><rect fill="#444444" height="2.6" width="2.6" x="41.5" y="66.5"><title>2015-03-08</title></rect><rect fill="#444444" height="2.6" width="2.6" x="45.0" y="45.5"><title>2015-03-09</title></rect><rect fill="#444444" height="2.6" width="2.6" x="45.0" y="49.0"><title>2015-03-10</title></rect><rect fill="#444444" height="2.6" width="2.6" x="45.0" y="52.5"><title>2015-03-11</title></rect><rect fill="#444444" height="2.6" width="2.6" x="45.0" y="56.0"><title>2015-03-12</title></rect><rect fill="#444444" height="2.6" width="2.6" x="45.0" y="59.5"><title>2015-03-13</title></rect><rect fill="#444444" height="2.6" width="2.6" x="45.0" y="63.0"><title>2015-03-14</title></rect><rect fill="#444444" height="2.6" width="2.6" x="45.0" y="66.5"><title>2015-03-15</title></rect><rect fill="#444444" height="2.6" width="2.6" x="48.5" y="45.5"><title>2015-03-16</title></rect><rect fill="#444444" height="2.6" width="2.6" x="48.5" y="49.0"><title>2015-03-17</title></rect><rect fill="#444444" height="2.6" width="2.6" x="48.5" y="52.5"><title>2015-03-18</title></rect><rect fill="#444444" height="2.6" width="2.6" x="48.5" y="56.0"><title>2015-03-19</title></rect><rect fill="#444444" height="2.6" width="2.6" x="48.5" y="59.5"><title>2015-03-20</title></rect><rect fill="#444444" height="2.6" width="2.6" x="48.5" y="63.0"><title>2015-03-21</title></rect><rect fill="#444444" height="2.6" width="2.6" x="48.5" y="66.5"><title>2015-03-22</title></rect><rect fill="#444444" height="2.6" width="2.6" x="52.0" y="45.5"><title>2015-03-23</title></rect><rect fill="#444444" height="2.6" width="2.6" x="52.0" y="49.0"><title>2015-03-24</title></rect><rect fill="#444444" height="2.6" width="2.6" x="52.0" y="52.5"><title>2015-03-25</title></rect><rect fill="#444444" height="2.6" width="2.6" x="52.0" y="56.0"><title>2015-03-26</title></rect><rect fill="#444444" height="2.6" width="2.6" x="52.0" y="59.5"><title>2015-03-27</title></rect><rect fill="#444444" height="2.6" width="2.6" x="52.0" y="63.0"><title>2015-03-28</title></rect><rect fill="#444444" height="2.6" width="2.6" x="52.0" y="66.5"><title>2015-03-29</title></rect><rect fill="#444444" height="2.6" width="2.6" x="55.5" y="45.5"><title>2015-03-30</title></rect><rect fill="#444444" height="2.6" width="2.6" x="55.5" y="49.0"><title>2015-03-31</title></rect><rect fill="#444444" height="2.6" width="2.6" x="55.5" y="52.5"><title>2015-04-01</title></rect><rect fill="#444444" height="2.6" width="2.6" x="55.5" y="56.0"><title>2015-04-02</title></rect><rect fill="#444444" height="2.6" width="2.6" x="55.5" y="59.5"><title>2015-04-03</title></rect><rect fill="#444444" height="2.6" width="2.6" x="55.5" y="63.0"><title>2015-04-04</title></rect><rect fill="#444444" height="2.6" width="2.6" x="55.5" y="66.5"><title>2015-04-05</title></rect><rect fill="#444444" height="2.6" width="2.6" x="59.0" y="45.5"><title>2015-04-06</title></rect><rect fill="#444444" height="2.6" width="2.6" x="59.0" y="49.0"><title>2015-04-07</title></rect><rect fill="#444444" height="2.6" width="2.6" x="59.0" y="52.5"><title>2015-04-08</title></rect><rect fill="#444444" height="2.6" width="2.6" x="59.0" y="56.0"><title>2015-04-09</title></rect><rect fill="#444444" height="2.6" width="2.6" x="59.0" y="59.5"><title>2015-04-10</title></rect><rect fill="#444444" height="2.6" width="2.6" x="59.0" y="63.0"><title>2015-04-11</title></rect><rect fill="#444444" height="2.6" width="2.6" x="59.0" y="66.5"><title>2015-04-12</title></rect><rect fill="#444444" height="2.6" width="2.6" x="62.5" y="45.5"><title>2015-04-13</title></rect><rect fill="#444444" height="2.6" width="2.6" x="62.5" y="49.0"><title>2015-04-14</title></rect><rect fill="#444444" height="2.6" width="2.6" x="62.5" y="52.5"><title>2015-04-15</title></rect><rect fill="#444444" height="2.6" width="2.6" x="62.5" y="56.0"><title>2015-04-16</title></rect><rect fill="#444444" height="2.6" width="2.6" x="62.5" y="59.5"><title>2015-04-17</title></rect><rect fill="#444444" height="2.6" width="2.6" x="62.5" y="63.0"><title>2015-04-18</title></rect><rect fill="#444444" height="2.6" width="2.6" x="62.5" y="66.5"><title>2015-04-19</title></rect><rect fill="#444444" height="2.6" width="2.6" x="66.0" y="45.5"><title>2015-04-20</title></rect><rect fill="#444444" height="2.6" width="2.6" x="66.0" y="49.0"><title>2015-04-21</title></rect><rect fill="#444444" height="2.6" width="2.6" x="66.0" y="52.5"><title>2015-04-22</title></rect><rect fill="#444444" height="2.6" width="2.6" x="66.0" y="56.0"><title>2015-04-23</title></rect><rect fill="#444444" height="2.6" width="2.6" x="66.0" y="59.5"><title>2015-04-24</title></rect><rect fill="#444444" height="2.6" width="2.6" x="66.0" y="63.0"><title>2015-04-25</title></rect><rect fill="#444444" height="2.6" width="2.6" x="66.0" y="66.5"><title>2015-04-26</title></rect><rect fill="#444444" height="2.6" width="2.6" x="69.5" y="45.5"><title>2015-04-27</title></rect><rect fill="#444444" height="2.6" width="2.6" x="69.5" y="49.0"><title>2015-04-28</title></rect><rect fill="#444444" height="2.6" width="2.6" x="69.5" y="52.5"><title>2015-04-29</title></rect><rect fill="#444444" height="2.6" width="2.6" x="69.5" y="56.0"><title>2015-04-30</title></rect><rect fill="#444444" height="2.6" width="2.6" x="69.5" y="59.5"><title>2015-05-01</title></rect><rect fill="#444444" height="2.6" width="2.6" x="69.5" y="63.0"><title>2015-05-02</title></rect><rect fill="#444444" height="2.6" width="2.6" x="69.5" y="66.5"><title>2015-05-03</title></rect><rect fill="#444444" height="2.6" width="2.6" x="73.0" y="45.5"><title>2015-05-04</title></rect><rect fill="#444444" height="2.6" width="2.6" x="73.0" y="49.0"><title>2015-05-05</title></rect><rect fill="#444444" height="2.6" width="2.6" x="73.0" y="52.5"><title>2015-05-06</title></rect><rect fill="#444444" height="2.6" width="2.6" x="73.0" y="56.0"><title>2015-05-07</title></rect><rect fill="#444444" height="2.6" width="2.6" x="73.0" y="59.5"><title>2015-05-08</title></rect><rect fill="#444444" height="2.6" width="2.6" x="73.0" y="63.0"><title>2015-05-09</title></rect><rect fill="#444444" height="2.6" width="2.6" x="73.0" y="66.5"><title>2015-05-10</title></rect><rect fill="#444444" height="2.6" width="2.6" x="76.5" y="45.5"><title>2015-05-11</title></rect><rect fill="#444444" height="2.6" width="2.6" x="76.5" y="49.0"><title>2015-05-12</title></rect><rect fill="#444444" height="2.6" width="2.6" x="76.5" y="52.5"><title>2015-05-13</title></rect><rect fill="#444444" height="2.6" width="2.6" x="76.5" y="56.0"><title>2015-05-14</title></rect><rect fill="#444444" height="2.6" width="2.6" x="76.5" y="59.5"><title>2015-05-15</title></rect><rect fill="#444444" height="2.6" width="2.6" x="76.5" y="63.0"><title>2015-05-16</title></rect><rect fill="#444444" height="2.6" width="2.6" x="76.5" y="66.5"><title>2015-05-17</title></rect><rect fill="#444444" height="2.6" width="2.6" x="80.0" y="45.5"><title>2015-05-18</title></rect><rect fill="#444444" height="2.6" width="2.6" x="80.0" y="49.0"><title>2015-05-19</title></rect><rect fill="#444444" height="2.6" width="2.6" x="80.0" y="52.5"><title>2015-05-20</title></rect><rect fill="#444444" height="2.6" width="2.6" x="80.0" y="56.0"><title>2015-05-21</title></rect><rect fill="#444444" height="2.6" width="2.6" x="80.0" y="59.5"><title>2015-05-22</title></rect><rect fill="#444444" height="2.6" width="2.6" x="80.0" y="63.0"><title>2015-05-23</title></rect><rect fill="#444444" height="2.6" width="2.6" x="80.0" y="66.5"><title>2015-05-24</title></rect><rect fill="#444444" height="2.6" width="2.6" x="83.5" y="45.5"><title>2015-05-25</title></rect><rect fill="#444444" height="2.6" width="2.6" x="83.5" y="49.0"><title>2015-05-26</title></rect><rect fill="#444444" height="2.6" width="2.6" x="83.5" y="52.5"><title>2015-05-27</title></rect><rect fill="#444444" height="2.6" width="2.6" x="83.5" y="56.0"><title>2015-05-28</title></rect><rect fill="#444444" height="2.6" width="2.6" x="83.5" y="59.5"><title>2015-05-29</title></rect><rect fill="#444444" height="2.6" width="2.6" x="83.5" y="63.0"><title>2015-05-30</title></rect><rect fill="#444444" height="2.6" width="2.6" x="83.5" y="66.5"><title>2015-05-31</title></rect><rect fill="#444444" height="2.6" width="2.6" x="87.0" y="45.5"><title>2015-06-01</title></rect><rect fill="#444444" height="2.6" width="2.6" x="87.0" y="49.0"><title>2015-06-02</title></rect><rect fill="#444444" height="2.6" width="2.6" x="87.0" y="52.5"><title>2015-06-03</title></rect><rect fill="#444444" height="2.6" width="2.6" x="87.0" y="56.0"><title>2015-06-04</title></rect><rect fill="#444444" height="2.6" width="2.6" x="87.0" y="59.5"><title>2015-06-05</title></rect><rect fill="#444444" height="2.6" width="2.6" x="87.0" y="63.0"><title>2015-06-06</title></rect><rect fill="#444444" height="2.6" width="2.6" x="87.0" y="66.5"><title>2015-06-07</title></rect><rect fill="#444444" height="2.6" width="2.6" x="90.5" y="45.5"><title>2015-06-08</title></rect><rect fill="#444444" height="2.6" width="2.6" x="90.5" y="49.0"><title>2015-06-09</title></rect><rect fill="#444444" height="2.6" width="2.6" x="90.5" y="52.5"><title>2015-06-10</title></rect><rect fill="red" height="2.6" width="2.6" x="90.5" y="56.0"><title>2015-06-11 122 mins</title></rect><rect fill="#ff9600" height="2.6" width="2.6" x="90.5" y="59.5"><title>2015-06-12 73 mins</title></rect><rect fill="#ff8e00" height="2.6" width="2.6" x="90.5" y="63.0"><title>2015-06-13 78 mins</title></rect><rect fill="#ff7a00" height="2.6" width="2.6" x="90.5" y="66.5"><title>2015-06-14 92 mins</title></rect><rect fill="red" height="2.6" width="2.6" x="94.0" y="45.5"><title>2015-06-15 106 mins</title></rect><rect fill="red" height="2.6" width="2.6" x="94.0" y="49.0"><title>2015-06-16 104 mins</title></rect><rect fill="#ff9100" height="2.6" width="2.6" x="94.0" y="52.5"><title>2015-06-17 76 mins</title></rect><rect fill="red" height="2.6" width="2.6" x="94.0" y="56.0"><title>2015-06-18 121 mins</title></rect><rect fill="#4cdcff" height="2.6" width="2.6" x="94.0" y="59.5"><title>2015-06-19 5 mins</title></rect><rect fill="#ff9400" height="2.6" width="2.6" x="94.0" y="63.0"><title>2015-06-20 74 mins</title></rect><rect fill="#ff7500" height="2.6" width="2.6" x="94.0" y="66.5"><title>2015-06-21 95 mins</title></rect><rect fill="#39ff88" height="2.6" width="2.6" x="97.5" y="45.5"><title>2015-06-22 47 mins</title></rect><rect fill="#36ff70" height="2.6" width="2.6" x="97.5" y="49.0"><title>2015-06-23 53 mins</title></rect><rect fill="#45fff2" height="2.6" width="2.6" x="97.5" y="52.5"><title>2015-06-24 19 mins</title></rect><rect fill="#45ffef" height="2.6" width="2.6" x="97.5" y="56.0"><title>2015-06-25 20 mins</title></rect><rect fill="#44ffe4" height="2.6" width="2.6" x="97.5" y="59.5"><title>2015-06-26 23 mins</title></rect><rect fill="#46fff6" height="2.6" width="2.6" x="97.5" y="63.0"><title>2015-06-27 18 mins</title></rect><rect fill="#48f7ff" height="2.6" width="2.6" x="97.5" y="66.5"><title>2015-06-28 13 mins</title></rect><rect fill="#3cffa0" height="2.6" width="2.6" x="101.0" y="45.5"><title>2015-06-29 41 mins</title></rect><rect fill="#ff7400" height="2.6" width="2.6" x="101.0" y="49.0"><title>2015-06-30 96 mins</title></rect><rect fill="#48f7ff" height="2.6" width="2.6" x="101.0" y="52.5"><title>2015-07-01 13 mins</title></rect><rect fill="#ff7b00" height="2.6" width="2.6" x="101.0" y="56.0"><title>2015-07-02 91 mins</title></rect><rect fill="#49edff" height="2.6" width="2.6" x="101.0" y="59.5"><title>2015-07-03 10 mins</title></rect><rect fill="#ffa600" height="2.6" width="2.6" x="101.0" y="63.0"><title>2015-07-04 62 mins</title></rect><rect fill="#47fffd" height="2.6" width="2.6" x="101.0" y="66.5"><title>2015-07-05 16 mins</title></rect><rect fill="#41ffce" height="2.6" width="2.6" x="104.5" y="45.5"><title>2015-07-06 29 mins</title></rect><rect fill="#3cffa0" height="2.6" width="2.6" x="104.5" y="49.0"><title>2015-07-07 41 mins</title></rect><rect fill="#35ff68" height="2.6" width="2.6" x="104.5" y="52.5"><title>2015-07-08 55 mins</title></rect><rect fill="#4be2ff" height="2.6" width="2.6" x="104.5" y="56.0"><title>2015-07-09 7 mins</title></rect><rect fill="#ffa300" height="2.6" width="2.6" x="104.5" y="59.5"><title>2015-07-10 64 mins</title></rect><rect fill="#4ae6ff" height="2.6" width="2.6" x="104.5" y="63.0"><title>2015-07-11 8 mins</title></rect><rect fill="#44ffe8" height="2.6" width="2.6" x="104.5" y="66.5"><title>2015-07-12 22 mins</title></rect><rect fill="#3aff90" height="2.6" width="2.6" x="108.0" y="45.5"><title>2015-07-13 45 mins</title></rect><rect fill="#48f7ff" height="2.6" width="2.6" x="108.0" y="49.0"><title>2015-07-14 13 mins</title></rect><rect fill="#ff7e00" height="2.6" width="2.6" x="108.0" y="52.5"><title>2015-07-15 89 mins</title></rect><rect fill="#36ff70" height="2.6" width="2.6" x="108.0" y="56.0"><title>2015-07-16 53 mins</title></rect><rect fill="#ff9900" height="2.6" width="2.6" x="108.0" y="59.5"><title>2015-07-17 71 mins</title></rect><rect fill="#36ff6c" height="2.6" width="2.6" x="108.0" y="63.0"><title>2015-07-18 54 mins</title></rect><rect fill="#42ffd9" height="2.6" width="2.6" x="108.0" y="66.5"><title>2015-07-19 26 mins</title></rect><rect fill="#38ff80" height="2.6" width="2.6" x="111.5" y="45.5"><title>2015-07-20 49 mins</title></rect><rect fill="#3effb7" height="2.6" width="2.6" x="111.5" y="49.0"><title>2015-07-21 35 mins</title></rect><rect fill="#ff7b00" height="2.6" width="2.6" x="111.5" y="52.5"><title>2015-07-22 91 mins</title></rect><rect fill="#38ff80" height="2.6" width="2.6" x="111.5" y="56.0"><title>2015-07-23 49 mins</title></rect><rect fill="#41ffce" height="2.6" width="2.6" x="111.5" y="59.5"><title>2015-07-24 29 mins</title></rect><rect fill="#ff9f00" height="2.6" width="2.6" x="111.5" y="63.0"><title>2015-07-25 67 mins</title></rect><rect fill="#ff8800" height="2.6" width="2.6" x="111.5" y="66.5"><title>2015-07-26 82 mins</title></rect><rect fill="#39ff88" height="2.6" width="2.6" x="115.0" y="45.5"><title>2015-07-27 47 mins</title></rect><rect fill="#3effb7" height="2.6" width="2.6" x="115.0" y="49.0"><title>2015-07-28 35 mins</title></rect><rect fill="#46fff6" height="2.6" width="2.6" x="115.0" y="52.5"><title>2015-07-29 18 mins</title></rect><rect fill="#ff9d00" height="2.6" width="2.6" x="115.0" y="56.0"><title>2015-07-30 68 mins</title></rect><rect fill="#3cffa8" height="2.6" width="2.6" x="115.0" y="59.5"><title>2015-07-31 39 mins</title></rect><rect fill="#ff9f00" height="2.6" width="2.6" x="115.0" y="63.0"><title>2015-08-01 67 mins</title></rect><rect fill="#36ff6c" height="2.6" width="2.6" x="115.0" y="66.5"><title>2015-08-02 54 mins</title></rect><rect fill="#3fffbb" height="2.6" width="2.6" x="118.5" y="45.5"><title>2015-08-03 34 mins</title></rect><rect fill="#49f0ff" height="2.6" width="2.6" x="118.5" y="49.0"><title>2015-08-04 11 mins</title></rect><rect fill="#40ffc7" height="2.6" width="2.6" x="118.5" y="52.5"><title>2015-08-05 31 mins</title></rect><rect fill="#45fff2" height="2.6" width="2.6" x="118.5" y="56.0"><title>2015-08-06 19 mins</title></rect><rect fill="#41ffd2" height="2.6" width="2.6" x="118.5" y="59.5"><title>2015-08-07 28 mins</title></rect><rect fill="#44ffe4" height="2.6" width="2.6" x="118.5" y="63.0"><title>2015-08-08 23 mins</title></rect><rect fill="#3cffa4" height="2.6" width="2.6" x="118.5" y="66.5"><title>2015-08-09 40 mins</title></rect><rect fill="#49f0ff" height="2.6" width="2.6" x="122.0" y="45.5"><title>2015-08-10 11 mins</title></rect><rect fill="#49f0ff" height="2.6" width="2.6" x="122.0" y="49.0"><title>2015-08-11 11 mins</title></rect><rect fill="#45fff2" height="2.6" width="2.6" x="122.0" y="52.5"><title>2015-08-12 19 mins</title></rect><rect fill="#4dd2ff" height="2.6" width="2.6" x="122.0" y="56.0"><title>2015-08-13 2 mins</title></rect><rect fill="#41ffce" height="2.6" width="2.6" x="122.0" y="59.5"><title>2015-08-14 29 mins</title></rect><rect fill="#45fff2" height="2.6" width="2.6" x="122.0" y="63.0"><title>2015-08-15 19 mins</title></rect><rect fill="#41ffce" height="2.6" width="2.6" x="122.0" y="66.5"><title>2015-08-16 29 mins</title></rect><rect fill="#48f7ff" height="2.6" width="2.6" x="125.5" y="45.5"><title>2015-08-17 13 mins</title></rect><rect fill="#ff9c00" height="2.6" width="2.6" x="125.5" y="49.0"><title>2015-08-18 69 mins</title></rect><rect fill="#41ffd2" height="2.6" width="2.6" x="125.5" y="52.5"><title>2015-08-19 28 mins</title></rect><rect fill="#44ffe8" height="2.6" width="2.6" x="125.5" y="56.0"><title>2015-08-20 22 mins</title></rect><rect fill="#ffaf00" height="2.6" width="2.6" x="125.5" y="59.5"><title>2015-08-21 56 mins</title></rect><rect fill="#40ffca" height="2.6" width="2.6" x="125.5" y="63.0"><title>2015-08-22 30 mins</title></rect><rect fill="#3bff9c" height="2.6" width="2.6" x="125.5" y="66.5"><title>2015-08-23 42 mins</title></rect><rect fill="#43ffe0" height="2.6" width="2.6" x="129.0" y="45.5"><title>2015-08-24 24 mins</title></rect><rect fill="#41ffd2" height="2.6" width="2.6" x="129.0" y="49.0"><title>2015-08-25 28 mins</title></rect><rect fill="#44ffe8" height="2.6" width="2.6" x="129.0" y="52.5"><title>2015-08-26 22 mins</title></rect><rect fill="#42ffd9" height="2.6" width="2.6" x="129.0" y="56.0"><title>2015-08-27 26 mins</title></rect><rect fill="#46fff9" height="2.6" width="2.6" x="129.0" y="59.5"><title>2015-08-28 17 mins</title></rect><rect fill="#41ffd2" height="2.6" width="2.6" x="129.0" y="63.0"><title>2015-08-29 28 mins</title></rect><rect fill="#ff8800" height="2.6" width="2.6" x="129.0" y="66.5"><title>2015-08-30 82 mins</title></rect><rect fill="#44ffe4" height="2.6" width="2.6" x="132.5" y="45.5"><title>2015-08-31 23 mins</title></rect><rect fill="#44ffe4" height="2.6" width="2.6" x="132.5" y="49.0"><title>2015-09-01 23 mins</title></rect><rect fill="#45fff2" height="2.6" width="2.6" x="132.5" y="52.5"><title>2015-09-02 19 mins</title></rect><rect fill="#40ffc7" height="2.6" width="2.6" x="132.5" y="56.0"><title>2015-09-03 31 mins</title></rect><rect fill="#ffaf00" height="2.6" width="2.6" x="132.5" y="59.5"><title>2015-09-04 56 mins</title></rect><rect fill="#40ffca" height="2.6" width="2.6" x="132.5" y="63.0"><title>2015-09-05 30 mins</title></rect><rect fill="#ff9300" height="2.6" width="2.6" x="132.5" y="66.5"><title>2015-09-06 75 mins</title></rect><rect fill="#ffa800" height="2.6" width="2.6" x="136.0" y="45.5"><title>2015-09-07 61 mins</title></rect><rect fill="#45ffef" height="2.6" width="2.6" x="136.0" y="49.0"><title>2015-09-08 20 mins</title></rect><rect fill="#43ffe0" height="2.6" width="2.6" x="136.0" y="52.5"><title>2015-09-09 24 mins</title></rect><rect fill="#44ffe4" height="2.6" width="2.6" x="136.0" y="56.0"><title>2015-09-10 23 mins</title></rect><rect fill="#45ffef" height="2.6" width="2.6" x="136.0" y="59.5"><title>2015-09-11 20 mins</title></rect><rect fill="#4bdfff" height="2.6" width="2.6" x="136.0" y="63.0"><title>2015-09-12 6 mins</title></rect><rect fill="#43ffdd" height="2.6" width="2.6" x="136.0" y="66.5"><title>2015-09-13 25 mins</title></rect><rect fill="#40ffc3" height="2.6" width="2.6" x="139.5" y="45.5"><title>2015-09-14 32 mins</title></rect><rect fill="#39ff8c" height="2.6" width="2.6" x="139.5" y="49.0"><title>2015-09-15 46 mins</title></rect><rect fill="#ffa900" height="2.6" width="2.6" x="139.5" y="52.5"><title>2015-09-16 60 mins</title></rect><rect fill="#41ffd2" height="2.6" width="2.6" x="139.5" y="56.0"><title>2015-09-17 28 mins</title></rect><rect fill="#3fffbf" height="2.6" width="2.6" x="139.5" y="59.5"><title>2015-09-18 33 mins</title></rect><rect fill="#3effb4" height="2.6" width="2.6" x="139.5" y="63.0"><title>2015-09-19 36 mins</title></rect><rect fill="#ffaf00" height="2.6" width="2.6" x="139.5" y="66.5"><title>2015-09-20 56 mins</title></rect><rect fill="#47fffd" height="2.6" width="2.6" x="143.0" y="45.5"><title>2015-09-21 16 mins</title></rect><rect fill="#4cdcff" height="2.6" width="2.6" x="143.0" y="49.0"><title>2015-09-22 5 mins</title></rect><rect fill="#3fffbf" height="2.6" width="2.6" x="143.0" y="52.5"><title>2015-09-23 33 mins</title></rect><rect fill="#3effb4" height="2.6" width="2.6" x="143.0" y="56.0"><title>2015-09-24 36 mins</title></rect><rect fill="#44ffe8" height="2.6" width="2.6" x="143.0" y="59.5"><title>2015-09-25 22 mins</title></rect><rect fill="#ff7d00" height="2.6" width="2.6" x="143.0" y="63.0"><title>2015-09-26 90 mins</title></rect><rect fill="#3cffa8" height="2.6" width="2.6" x="143.0" y="66.5"><title>2015-09-27 39 mins</title></rect><rect fill="#3dffb0" height="2.6" width="2.6" x="146.5" y="45.5"><title>2015-09-28 37 mins</title></rect><rect fill="#41ffd2" height="2.6" width="2.6" x="146.5" y="49.0"><title>2015-09-29 28 mins</title></rect><rect fill="#3aff90" height="2.6" width="2.6" x="146.5" y="52.5"><title>2015-09-30 45 mins</title></rect><rect fill="#3bff98" height="2.6" width="2.6" x="146.5" y="56.0"><title>2015-10-01 43 mins</title></rect><rect fill="#ff9900" height="2.6" width="2.6" x="146.5" y="59.5"><title>2015-10-02 71 mins</title></rect><rect fill="#3fffbf" height="2.6" width="2.6" x="146.5" y="63.0"><title>2015-10-03 33 mins</title></rect><rect fill="#ff9a00" height="2.6" width="2.6" x="146.5" y="66.5"><title>2015-10-04 70 mins</title></rect><rect fill="#3bff98" height="2.6" width="2.6" x="150.0" y="45.5"><title>2015-10-05 43 mins</title></rect><rect fill="#ffaf00" height="2.6" width="2.6" x="150.0" y="49.0"><title>2015-10-06 56 mins</title></rect><rect fill="#ffaf00" height="2.6" width="2.6" x="150.0" y="52.5"><title>2015-10-07 56 mins</title></rect><rect fill="#3dffb0" height="2.6" width="2.6" x="150.0" y="56.0"><title>2015-10-08 37 mins</title></rect><rect fill="#ffac00" height="2.6" width="2.6" x="150.0" y="59.5"><title>2015-10-09 58 mins</title></rect><rect fill="#3cffa8" height="2.6" width="2.6" x="150.0" y="63.0"><title>2015-10-10 39 mins</title></rect><rect fill="red" height="2.6" width="2.6" x="150.0" y="66.5"><title>2015-10-11 104 mins</title></rect><rect fill="#3cffa8" height="2.6" width="2.6" x="153.5" y="45.5"><title>2015-10-12 39 mins</title></rect><rect fill="#ff9a00" height="2.6" width="2.6" x="153.5" y="49.0"><title>2015-10-13 70 mins</title></rect><rect fill="#3effb4" height="2.6" width="2.6" x="153.5" y="52.5"><title>2015-10-14 36 mins</title></rect><rect fill="#3cffa4" height="2.6" width="2.6" x="153.5" y="56.0"><title>2015-10-15 40 mins</title></rect><rect fill="#44ffe4" height="2.6" width="2.6" x="153.5" y="59.5"><title>2015-10-16 23 mins</title></rect><rect fill="#ff9700" height="2.6" width="2.6" x="153.5" y="63.0"><title>2015-10-17 72 mins</title></rect><rect fill="#ffac00" height="2.6" width="2.6" x="153.5" y="66.5"><title>2015-10-18 58 mins</title></rect><rect fill="#43ffdd" height="2.6" width="2.6" x="157.0" y="45.5"><title>2015-10-19 25 mins</title></rect><rect fill="#3bff9c" height="2.6" width="2.6" x="157.0" y="49.0"><title>2015-10-20 42 mins</title></rect><rect fill="#36ff6c" height="2.6" width="2.6" x="157.0" y="52.5"><title>2015-10-21 54 mins</title></rect><rect fill="#3aff90" height="2.6" width="2.6" x="157.0" y="56.0"><title>2015-10-22 45 mins</title></rect><rect fill="#ffaf00" height="2.6" width="2.6" x="157.0" y="59.5"><title>2015-10-23 56 mins</title></rect><rect fill="red" height="2.6" width="2.6" x="157.0" y="63.0"><title>2015-10-24 136 mins</title></rect><rect fill="#38ff80" height="2.6" width="2.6" x="157.0" y="66.5"><title>2015-10-25 49 mins</title></rect><rect fill="#38ff7c" height="2.6" width="2.6" x="160.5" y="45.5"><title>2015-10-26 50 mins</title></rect><rect fill="#3bff9c" height="2.6" width="2.6" x="160.5" y="49.0"><title>2015-10-27 42 mins</title></rect><rect fill="#41ffce" height="2.6" width="2.6" x="160.5" y="52.5"><title>2015-10-28 29 mins</title></rect><rect fill="#ffaf00" height="2.6" width="2.6" x="160.5" y="56.0"><title>2015-10-29 56 mins</title></rect><rect fill="#ff9900" height="2.6" width="2.6" x="160.5" y="59.5"><title>2015-10-30 71 mins</title></rect><rect fill="#ff9100" height="2.6" width="2.6" x="160.5" y="63.0"><title>2015-10-31 76 mins</title></rect><rect fill="#3cffa8" height="2.6" width="2.6" x="160.5" y="66.5"><title>2015-11-01 39 mins</title></rect><rect fill="#ffa300" height="2.6" width="2.6" x="164.0" y="45.5"><title>2015-11-02 64 mins</title></rect><rect fill="#ffac00" height="2.6" width="2.6" x="164.0" y="49.0"><title>2015-11-03 58 mins</title></rect><rect fill="#3aff90" height="2.6" width="2.6" x="164.0" y="52.5"><title>2015-11-04 45 mins</title></rect><rect fill="#40ffca" height="2.6" width="2.6" x="164.0" y="56.0"><title>2015-11-05 30 mins</title></rect><rect fill="#37ff78" height="2.6" width="2.6" x="164.0" y="59.5"><title>2015-11-06 51 mins</title></rect><rect fill="#39ff8c" height="2.6" width="2.6" x="164.0" y="63.0"><title>2015-11-07 46 mins</title></rect><rect fill="#ffa500" height="2.6" width="2.6" x="164.0" y="66.5"><title>2015-11-08 63 mins</title></rect><rect fill="#3effb4" height="2.6" width="2.6" x="167.5" y="45.5"><title>2015-11-09 36 mins</title></rect><rect fill="#3cffa8" height="2.6" width="2.6" x="167.5" y="49.0"><title>2015-11-10 39 mins</title></rect><rect fill="red" height="2.6" width="2.6" x="167.5" y="52.5"><title>2015-11-11 120 mins</title></rect><rect fill="#38ff7c" height="2.6" width="2.6" x="167.5" y="56.0"><title>2015-11-12 50 mins</title></rect><rect fill="#ff9300" height="2.6" width="2.6" x="167.5" y="59.5"><title>2015-11-13 75 mins</title></rect><rect fill="#44ffe8" height="2.6" width="2.6" x="167.5" y="63.0"><title>2015-11-14 22 mins</title></rect><rect fill="#3effb4" height="2.6" width="2.6" x="167.5" y="66.5"><title>2015-11-15 36 mins</title></rect><rect fill="#ffa600" height="2.6" width="2.6" x="171.0" y="45.5"><title>2015-11-16 62 mins</title></rect><rect fill="#40ffc3" height="2.6" width="2.6" x="171.0" y="49.0"><title>2015-11-17 32 mins</title></rect><rect fill="#40ffca" height="2.6" width="2.6" x="171.0" y="52.5"><title>2015-11-18 30 mins</title></rect><rect fill="#35ff68" height="2.6" width="2.6" x="171.0" y="56.0"><title>2015-11-19 55 mins</title></rect><rect fill="red" height="2.6" width="2.6" x="171.0" y="59.5"><title>2015-11-20 97 mins</title></rect><rect fill="#3bff9c" height="2.6" width="2.6" x="171.0" y="63.0"><title>2015-11-21 42 mins</title></rect><rect fill="red" height="2.6" width="2.6" x="171.0" y="66.5"><title>2015-11-22 106 mins</title></rect><rect fill="#43ffdd" height="2.6" width="2.6" x="174.5" y="45.5"><title>2015-11-23 25 mins</title></rect><rect fill="#39ff88" height="2.6" width="2.6" x="174.5" y="49.0"><title>2015-11-24 47 mins</title></rect><rect fill="red" height="2.6" width="2.6" x="174.5" y="52.5"><title>2015-11-25 106 mins</title></rect><rect fill="#3effb7" height="2.6" width="2.6" x="174.5" y="56.0"><title>2015-11-26 35 mins</title></rect><rect fill="#ffa900" height="2.6" width="2.6" x="174.5" y="59.5"><title>2015-11-27 60 mins</title></rect><rect fill="#3effb4" height="2.6" width="2.6" x="174.5" y="63.0"><title>2015-11-28 36 mins</title></rect><rect fill="#3aff94" height="2.6" width="2.6" x="174.5" y="66.5"><title>2015-11-29 44 mins</title></rect><rect fill="#40ffca" height="2.6" width="2.6" x="178.0" y="45.5"><title>2015-11-30 30 mins</title></rect><rect fill="#38ff7c" height="2.6" width="2.6" x="178.0" y="49.0"><title>2015-12-01 50 mins</title></rect><rect fill="#ff9400" height="2.6" width="2.6" x="178.0" y="52.5"><title>2015-12-02 74 mins</title></rect><rect fill="#41ffd2" height="2.6" width="2.6" x="178.0" y="56.0"><title>2015-12-03 28 mins</title></rect><rect fill="#3dffac" height="2.6" width="2.6" x="178.0" y="59.5"><title>2015-12-04 38 mins</title></rect><rect fill="red" height="2.6" width="2.6" x="178.0" y="63.0"><title>2015-12-05 174 mins</title></rect><rect fill="#42ffd5" height="2.6" width="2.6" x="178.0" y="66.5"><title>2015-12-06 27 mins</title></rect><rect fill="#3aff94" height="2.6" width="2.6" x="181.5" y="45.5"><title>2015-12-07 44 mins</title></rect><rect fill="red" height="2.6" width="2.6" x="181.5" y="49.0"><title>2015-12-08 100 mins</title></rect><rect fill="#39ff8c" height="2.6" width="2.6" x="181.5" y="52.5"><title>2015-12-09 46 mins</title></rect><rect fill="red" height="2.6" width="2.6" x="181.5" y="56.0"><title>2015-12-10 112 mins</title></rect><rect fill="#3fffbb" height="2.6" width="2.6" x="181.5" y="59.5"><title>2015-12-11 34 mins</title></rect><rect fill="red" height="2.6" width="2.6" x="181.5" y="63.0"><title>2015-12-12 120 mins</title></rect><rect fill="#3cffa8" height="2.6" width="2.6" x="181.5" y="66.5"><title>2015-12-13 39 mins</title></rect><rect fill="red" height="2.6" width="2.6" x="185.0" y="45.5"><title>2015-12-14 99 mins</title></rect><rect fill="red" height="2.6" width="2.6" x="185.0" y="49.0"><title>2015-12-15 146 mins</title></rect><rect fill="red" height="2.6" width="2.6" x="185.0" y="52.5"><title>2015-12-16 113 mins</title></rect><rect fill="#37ff74" height="2.6" width="2.6" x="185.0" y="56.0"><title>2015-12-17 52 mins</title></rect><rect fill="red" height="2.6" width="2.6" x="185.0" y="59.5"><title>2015-12-18 100 mins</title></rect><rect fill="red" height="2.6" width="2.6" x="185.0" y="63.0"><title>2015-12-19 110 mins</title></rect><rect fill="#ff9400" height="2.6" width="2.6" x="185.0" y="66.5"><title>2015-12-20 74 mins</title></rect><rect fill="#3dffac" height="2.6" width="2.6" x="188.5" y="45.5"><title>2015-12-21 38 mins</title></rect><rect fill="red" height="2.6" width="2.6" x="188.5" y="49.0"><title>2015-12-22 138 mins</title></rect><rect fill="#35ff68" height="2.6" width="2.6" x="188.5" y="52.5"><title>2015-12-23 55 mins</title></rect><rect fill="red" height="2.6" width="2.6" x="188.5" y="56.0"><title>2015-12-24 110 mins</title></rect><rect fill="red" height="2.6" width="2.6" x="188.5" y="59.5"><title>2015-12-25 158 mins</title></rect><rect fill="#ff9700" height="2.6" width="2.6" x="188.5" y="63.0"><title>2015-12-26 72 mins</title></rect><rect fill="red" height="2.6" width="2.6" x="188.5" y="66.5"><title>2015-12-27 162 mins</title></rect><rect fill="#ffa000" height="2.6" width="2.6" x="192.0" y="45.5"><title>2015-12-28 66 mins</title></rect><rect fill="#ffa800" height="2.6" width="2.6" x="192.0" y="49.0"><title>2015-12-29 61 mins</title></rect><rect fill="#444444" height="2.6" width="2.6" x="192.0" y="52.5"><title>2015-12-30</title></rect><rect fill="#444444" height="2.6" width="2.6" x="192.0" y="56.0"><title>2015-12-31</title></rect></svg>