<?xml version="1.0" encoding="utf-8" ?>
<svg baseProfile="full" height="78mm" version="1.1" viewBox="0,0,200,78" width="200mm" xmlns="http://www.w3.org/2000/svg" xmlns:ev="http://www.w3.org/2001/xml-events" xmlns:xlink="http://www.w3.org/1999/xlink"><defs /><rect fill="#222222" height="78" width="200" x="0" y="0" /><text fill="#FFFFFF" style="font-size:12px; font-family:Arial; font-weight:bold;" x="10" y="20">rip-tyang apple_health</text><text dominant-baseline="hanging" fill="#FFFFFF" style="font-size:10.0px; font-family:Arial;" x="10" y="30">2018</text><text dominant-baseline="hanging" fill="#FFFFFF" style="font-size:4.125px; font-family:Arial;" x="175" y="35">235 hours</text><text fill="#FFFFFF" style="font-size:2.5px; font-family:Arial" x="10.0" y="44">Jan</text><text fill="#FFFFFF" style="font-size:2.5px; font-family:Arial" x="25.5" y="44">Feb</text><text fill="#FFFFFF" style="font-size:2.5px; font-family:Arial" x="41.0" y="44">Mar</text><text fill="#FFFFFF" style="font-size:2.5px; font-family:Arial" x="56.5" y="44">Apr</text><text fill="#FFFFFF" style="font-size:2.5px; font-family:Arial" x="72.0" y="44">May</text><text fill="#FFFFFF" style="font-size:2.5px; font-family:Arial" x="87.5" y="44">Jun</text><text fill="#FFFFFF" style="font-size:2.5px; font-family:Arial" x="103.0" y="44">Jul</text><text fill="#FFFFFF" style="font-size:2.5px; font-family:Arial" x="118.5" y="44">Aug</text><text fill="#FFFFFF" style="font-size:2.5px; font-family:Arial" x="134.0" y="44">Sep</text><text fill="#FFFFFF" style="font-size:2.5px; font-family:Arial" x="149.5" y="44">Oct</text><text fill="#FFFFFF" style="font-size:2.5px; font-family:Arial" x="165.0" y="44">Nov</text><text fill="#FFFFFF" style="font-size:2.5px; font-family:Arial" x="180.5" y="44">Dec</text><rect fill="#4bdeff" height="2.6" width="2.6" x="10.0" y="45.5"><title>2018-01-01 18 mins</title></rect><rect fill="#49f0ff" height="2.6" width="2.6" x="10.0" y="49.0"><title>2018-01-02 44 mins</title></rect><rect fill="#4be2ff" height="2.6" width="2.6" x="10.0" y="52.5"><title>2018-01-03 25 mins</title></rect><rect fill="#444444" height="2.6" width="2.6" x="10.0" y="56.0"><title>2018-01-04</title></rect><rect fill="#4cdcff" height="2.6" width="2.6" x="10.0" y="59.5"><title>2018-01-05 15 mins</title></rect><rect fill="#4cd8ff" height="2.6" width="2.6" x="10.0" y="63.0"><title>2018-01-06 10 mins</title></rect><rect fill="#444444" height="2.6" width="2.6" x="10.0" y="66.5"><title>2018-01-07</title></rect><rect fill="#49f3ff" height="2.6" width="2.6" x="13.5" y="45.5"><title>2018-01-08 49 mins</title></rect><rect fill="#49f0ff" height="2.6" width="2.6" x="13.5" y="49.0"><title>2018-01-09 44 mins</title></rect><rect fill="#4dd3ff" height="2.6" width="2.6" x="13.5" y="52.5"><title>2018-01-10 2 mins</title></rect><rect fill="#4be1ff" height="2.6" width="2.6" x="13.5" y="56.0"><title>2018-01-11 23 mins</title></rect><rect fill="#49edff" height="2.6" width="2.6" x="13.5" y="59.5"><title>2018-01-12 40 mins</title></rect><rect fill="#4cdaff" height="2.6" width="2.6" x="13.5" y="63.0"><title>2018-01-13 13 mins</title></rect><rect fill="#ffe100" height="2.6" width="2.6" x="13.5" y="66.5"><title>2018-01-14 99 mins</title></rect><rect fill="#4cdcff" height="2.6" width="2.6" x="17.0" y="45.5"><title>2018-01-15 15 mins</title></rect><rect fill="#ffea00" height="2.6" width="2.6" x="17.0" y="49.0"><title>2018-01-16 69 mins</title></rect><rect fill="#49ecff" height="2.6" width="2.6" x="17.0" y="52.5"><title>2018-01-17 39 mins</title></rect><rect fill="#49ecff" height="2.6" width="2.6" x="17.0" y="56.0"><title>2018-01-18 39 mins</title></rect><rect fill="#4ae6ff" height="2.6" width="2.6" x="17.0" y="59.5"><title>2018-01-19 30 mins</title></rect><rect fill="red" height="2.6" width="2.6" x="17.0" y="63.0"><title>2018-01-20 206 mins</title></rect><rect fill="#ffe400" height="2.6" width="2.6" x="17.0" y="66.5"><title>2018-01-21 87 mins</title></rect><rect fill="#48f7ff" height="2.6" width="2.6" x="20.5" y="45.5"><title>2018-01-22 54 mins</title></rect><rect fill="#ffec00" height="2.6" width="2.6" x="20.5" y="49.0"><title>2018-01-23 63 mins</title></rect><rect fill="#ffeb00" height="2.6" width="2.6" x="20.5" y="52.5"><title>2018-01-24 67 mins</title></rect><rect fill="#4be2ff" height="2.6" width="2.6" x="20.5" y="56.0"><title>2018-01-25 24 mins</title></rect><rect fill="#ffe700" height="2.6" width="2.6" x="20.5" y="59.5"><title>2018-01-26 78 mins</title></rect><rect fill="#48f4ff" height="2.6" width="2.6" x="20.5" y="63.0"><title>2018-01-27 50 mins</title></rect><rect fill="#ffe100" height="2.6" width="2.6" x="20.5" y="66.5"><title>2018-01-28 98 mins</title></rect><rect fill="#4aecff" height="2.6" width="2.6" x="24.0" y="45.5"><title>2018-01-29 38 mins</title></rect><rect fill="#ffec00" height="2.6" width="2.6" x="24.0" y="49.0"><title>2018-01-30 64 mins</title></rect><rect fill="#4be3ff" height="2.6" width="2.6" x="24.0" y="52.5"><title>2018-01-31 26 mins</title></rect><rect fill="#48f5ff" height="2.6" width="2.6" x="24.0" y="56.0"><title>2018-02-01 51 mins</title></rect><rect fill="#4cd8ff" height="2.6" width="2.6" x="24.0" y="59.5"><title>2018-02-02 10 mins</title></rect><rect fill="red" height="2.6" width="2.6" x="24.0" y="63.0"><title>2018-02-03 148 mins</title></rect><rect fill="red" height="2.6" width="2.6" x="24.0" y="66.5"><title>2018-02-04 137 mins</title></rect><rect fill="#4be2ff" height="2.6" width="2.6" x="27.5" y="45.5"><title>2018-02-05 24 mins</title></rect><rect fill="#4aecff" height="2.6" width="2.6" x="27.5" y="49.0"><title>2018-02-06 38 mins</title></rect><rect fill="#49ecff" height="2.6" width="2.6" x="27.5" y="52.5"><title>2018-02-07 39 mins</title></rect><rect fill="#4aeaff" height="2.6" width="2.6" x="27.5" y="56.0"><title>2018-02-08 36 mins</title></rect><rect fill="#4cdcff" height="2.6" width="2.6" x="27.5" y="59.5"><title>2018-02-09 15 mins</title></rect><rect fill="#ffe700" height="2.6" width="2.6" x="27.5" y="63.0"><title>2018-02-10 79 mins</title></rect><rect fill="#4cd9ff" height="2.6" width="2.6" x="27.5" y="66.5"><title>2018-02-11 11 mins</title></rect><rect fill="#4be0ff" height="2.6" width="2.6" x="31.0" y="45.5"><title>2018-02-12 21 mins</title></rect><rect fill="red" height="2.6" width="2.6" x="31.0" y="49.0"><title>2018-02-13 116 mins</title></rect><rect fill="#ffec00" height="2.6" width="2.6" x="31.0" y="52.5"><title>2018-02-14 64 mins</title></rect><rect fill="#4be4ff" height="2.6" width="2.6" x="31.0" y="56.0"><title>2018-02-15 27 mins</title></rect><rect fill="#49f2ff" height="2.6" width="2.6" x="31.0" y="59.5"><title>2018-02-16 47 mins</title></rect><rect fill="red" height="2.6" width="2.6" x="31.0" y="63.0"><title>2018-02-17 129 mins</title></rect><rect fill="red" height="2.6" width="2.6" x="31.0" y="66.5"><title>2018-02-18 113 mins</title></rect><rect fill="#49f3ff" height="2.6" width="2.6" x="34.5" y="45.5"><title>2018-02-19 48 mins</title></rect><rect fill="#4be1ff" height="2.6" width="2.6" x="34.5" y="49.0"><title>2018-02-20 23 mins</title></rect><rect fill="#4be3ff" height="2.6" width="2.6" x="34.5" y="52.5"><title>2018-02-21 26 mins</title></rect><rect fill="red" height="2.6" width="2.6" x="34.5" y="56.0"><title>2018-02-22 136 mins</title></rect><rect fill="#4ae7ff" height="2.6" width="2.6" x="34.5" y="59.5"><title>2018-02-23 32 mins</title></rect><rect fill="#ffe800" height="2.6" width="2.6" x="34.5" y="63.0"><title>2018-02-24 74 mins</title></rect><rect fill="#49f1ff" height="2.6" width="2.6" x="34.5" y="66.5"><title>2018-02-25 46 mins</title></rect><rect fill="#ffe600" height="2.6" width="2.6" x="38.0" y="45.5"><title>2018-02-26 81 mins</title></rect><rect fill="#4aecff" height="2.6" width="2.6" x="38.0" y="49.0"><title>2018-02-27 38 mins</title></rect><rect fill="#4bdfff" height="2.6" width="2.6" x="38.0" y="52.5"><title>2018-02-28 20 mins</title></rect><rect fill="#4bdfff" height="2.6" width="2.6" x="38.0" y="56.0"><title>2018-03-01 20 mins</title></rect><rect fill="#444444" height="2.6" width="2.6" x="38.0" y="59.5"><title>2018-03-02</title></rect><rect fill="red" height="2.6" width="2.6" x="38.0" y="63.0"><title>2018-03-03 164 mins</title></rect><rect fill="#4cd9ff" height="2.6" width="2.6" x="38.0" y="66.5"><title>2018-03-04 11 mins</title></rect><rect fill="#ffe800" height="2.6" width="2.6" x="41.5" y="45.5"><title>2018-03-05 77 mins</title></rect><rect fill="#4be2ff" height="2.6" width="2.6" x="41.5" y="49.0"><title>2018-03-06 24 mins</title></rect><rect fill="#ffe800" height="2.6" width="2.6" x="41.5" y="52.5"><title>2018-03-07 74 mins</title></rect><rect fill="#4bdeff" height="2.6" width="2.6" x="41.5" y="56.0"><title>2018-03-08 18 mins</title></rect><rect fill="#4be3ff" height="2.6" width="2.6" x="41.5" y="59.5"><title>2018-03-09 26 mins</title></rect><rect fill="red" height="2.6" width="2.6" x="41.5" y="63.0"><title>2018-03-10 111 mins</title></rect><rect fill="#ffe600" height="2.6" width="2.6" x="41.5" y="66.5"><title>2018-03-11 83 mins</title></rect><rect fill="#4be0ff" height="2.6" width="2.6" x="45.0" y="45.5"><title>2018-03-12 22 mins</title></rect><rect fill="#4be1ff" height="2.6" width="2.6" x="45.0" y="49.0"><title>2018-03-13 23 mins</title></rect><rect fill="#ffe100" height="2.6" width="2.6" x="45.0" y="52.5"><title>2018-03-14 97 mins</title></rect><rect fill="#4cd9ff" height="2.6" width="2.6" x="45.0" y="56.0"><title>2018-03-15 11 mins</title></rect><rect fill="#49eeff" height="2.6" width="2.6" x="45.0" y="59.5"><title>2018-03-16 41 mins</title></rect><rect fill="#ffe700" height="2.6" width="2.6" x="45.0" y="63.0"><title>2018-03-17 78 mins</title></rect><rect fill="#4dd3ff" height="2.6" width="2.6" x="45.0" y="66.5"><title>2018-03-18 3 mins</title></rect><rect fill="#4be0ff" height="2.6" width="2.6" x="48.5" y="45.5"><title>2018-03-19 22 mins</title></rect><rect fill="#49f3ff" height="2.6" width="2.6" x="48.5" y="49.0"><title>2018-03-20 49 mins</title></rect><rect fill="#4ae5ff" height="2.6" width="2.6" x="48.5" y="52.5"><title>2018-03-21 29 mins</title></rect><rect fill="#4aecff" height="2.6" width="2.6" x="48.5" y="56.0"><title>2018-03-22 38 mins</title></rect><rect fill="#4ae9ff" height="2.6" width="2.6" x="48.5" y="59.5"><title>2018-03-23 34 mins</title></rect><rect fill="red" height="2.6" width="2.6" x="48.5" y="63.0"><title>2018-03-24 826 mins</title></rect><rect fill="#ffe300" height="2.6" width="2.6" x="48.5" y="66.5"><title>2018-03-25 90 mins</title></rect><rect fill="#4cd9ff" height="2.6" width="2.6" x="52.0" y="45.5"><title>2018-03-26 11 mins</title></rect><rect fill="#4bdfff" height="2.6" width="2.6" x="52.0" y="49.0"><title>2018-03-27 20 mins</title></rect><rect fill="#4be4ff" height="2.6" width="2.6" x="52.0" y="52.5"><title>2018-03-28 27 mins</title></rect><rect fill="#4cdcff" height="2.6" width="2.6" x="52.0" y="56.0"><title>2018-03-29 15 mins</title></rect><rect fill="#49f0ff" height="2.6" width="2.6" x="52.0" y="59.5"><title>2018-03-30 44 mins</title></rect><rect fill="#4be4ff" height="2.6" width="2.6" x="52.0" y="63.0"><title>2018-03-31 27 mins</title></rect><rect fill="#ffe800" height="2.6" width="2.6" x="52.0" y="66.5"><title>2018-04-01 74 mins</title></rect><rect fill="#ffe700" height="2.6" width="2.6" x="55.5" y="45.5"><title>2018-04-02 79 mins</title></rect><rect fill="#4be0ff" height="2.6" width="2.6" x="55.5" y="49.0"><title>2018-04-03 22 mins</title></rect><rect fill="#4ae7ff" height="2.6" width="2.6" x="55.5" y="52.5"><title>2018-04-04 31 mins</title></rect><rect fill="#4aebff" height="2.6" width="2.6" x="55.5" y="56.0"><title>2018-04-05 37 mins</title></rect><rect fill="#ffea00" height="2.6" width="2.6" x="55.5" y="59.5"><title>2018-04-06 68 mins</title></rect><rect fill="red" height="2.6" width="2.6" x="55.5" y="63.0"><title>2018-04-07 131 mins</title></rect><rect fill="#49f2ff" height="2.6" width="2.6" x="55.5" y="66.5"><title>2018-04-08 47 mins</title></rect><rect fill="#4be3ff" height="2.6" width="2.6" x="59.0" y="45.5"><title>2018-04-09 26 mins</title></rect><rect fill="#48f6ff" height="2.6" width="2.6" x="59.0" y="49.0"><title>2018-04-10 53 mins</title></rect><rect fill="#4ae9ff" height="2.6" width="2.6" x="59.0" y="52.5"><title>2018-04-11 35 mins</title></rect><rect fill="#ffec00" height="2.6" width="2.6" x="59.0" y="56.0"><title>2018-04-12 64 mins</title></rect><rect fill="#4aeaff" height="2.6" width="2.6" x="59.0" y="59.5"><title>2018-04-13 36 mins</title></rect><rect fill="red" height="2.6" width="2.6" x="59.0" y="63.0"><title>2018-04-14 334 mins</title></rect><rect fill="red" height="2.6" width="2.6" x="59.0" y="66.5"><title>2018-04-15 101 mins</title></rect><rect fill="#ffec00" height="2.6" width="2.6" x="62.5" y="45.5"><title>2018-04-16 63 mins</title></rect><rect fill="#48f9ff" height="2.6" width="2.6" x="62.5" y="49.0"><title>2018-04-17 57 mins</title></rect><rect fill="#49f3ff" height="2.6" width="2.6" x="62.5" y="52.5"><title>2018-04-18 49 mins</title></rect><rect fill="#49f2ff" height="2.6" width="2.6" x="62.5" y="56.0"><title>2018-04-19 47 mins</title></rect><rect fill="#ffeb00" height="2.6" width="2.6" x="62.5" y="59.5"><title>2018-04-20 66 mins</title></rect><rect fill="#ffed00" height="2.6" width="2.6" x="62.5" y="63.0"><title>2018-04-21 60 mins</title></rect><rect fill="#ffe300" height="2.6" width="2.6" x="62.5" y="66.5"><title>2018-04-22 93 mins</title></rect><rect fill="#49ecff" height="2.6" width="2.6" x="66.0" y="45.5"><title>2018-04-23 39 mins</title></rect><rect fill="red" height="2.6" width="2.6" x="66.0" y="49.0"><title>2018-04-24 110 mins</title></rect><rect fill="red" height="2.6" width="2.6" x="66.0" y="52.5"><title>2018-04-25 100 mins</title></rect><rect fill="#4ae6ff" height="2.6" width="2.6" x="66.0" y="56.0"><title>2018-04-26 30 mins</title></rect><rect fill="#ffea00" height="2.6" width="2.6" x="66.0" y="59.5"><title>2018-04-27 69 mins</title></rect><rect fill="#ffe800" height="2.6" width="2.6" x="66.0" y="63.0"><title>2018-04-28 77 mins</title></rect><rect fill="#4aecff" height="2.6" width="2.6" x="66.0" y="66.5"><title>2018-04-29 38 mins</title></rect><rect fill="#4ae5ff" height="2.6" width="2.6" x="69.5" y="45.5"><title>2018-04-30 29 mins</title></rect><rect fill="#4bdeff" height="2.6" width="2.6" x="69.5" y="49.0"><title>2018-05-01 19 mins</title></rect><rect fill="#4cd7ff" height="2.6" width="2.6" x="69.5" y="52.5"><title>2018-05-02 9 mins</title></rect><rect fill="#4ae5ff" height="2.6" width="2.6" x="69.5" y="56.0"><title>2018-05-03 29 mins</title></rect><rect fill="#4ae9ff" height="2.6" width="2.6" x="69.5" y="59.5"><title>2018-05-04 34 mins</title></rect><rect fill="#4dd5ff" height="2.6" width="2.6" x="69.5" y="63.0"><title>2018-05-05 5 mins</title></rect><rect fill="#49f1ff" height="2.6" width="2.6" x="69.5" y="66.5"><title>2018-05-06 45 mins</title></rect><rect fill="#4be0ff" height="2.6" width="2.6" x="73.0" y="45.5"><title>2018-05-07 22 mins</title></rect><rect fill="#4cddff" height="2.6" width="2.6" x="73.0" y="49.0"><title>2018-05-08 17 mins</title></rect><rect fill="#49f1ff" height="2.6" width="2.6" x="73.0" y="52.5"><title>2018-05-09 45 mins</title></rect><rect fill="#4be1ff" height="2.6" width="2.6" x="73.0" y="56.0"><title>2018-05-10 23 mins</title></rect><rect fill="#4cdcff" height="2.6" width="2.6" x="73.0" y="59.5"><title>2018-05-11 16 mins</title></rect><rect fill="#4cd8ff" height="2.6" width="2.6" x="73.0" y="63.0"><title>2018-05-12 10 mins</title></rect><rect fill="#4cdaff" height="2.6" width="2.6" x="73.0" y="66.5"><title>2018-05-13 12 mins</title></rect><rect fill="#48fbff" height="2.6" width="2.6" x="76.5" y="45.5"><title>2018-05-14 59 mins</title></rect><rect fill="#ffe300" height="2.6" width="2.6" x="76.5" y="49.0"><title>2018-05-15 91 mins</title></rect><rect fill="#ffea00" height="2.6" width="2.6" x="76.5" y="52.5"><title>2018-05-16 70 mins</title></rect><rect fill="#49eeff" height="2.6" width="2.6" x="76.5" y="56.0"><title>2018-05-17 42 mins</title></rect><rect fill="#ffeb00" height="2.6" width="2.6" x="76.5" y="59.5"><title>2018-05-18 67 mins</title></rect><rect fill="#4dd3ff" height="2.6" width="2.6" x="76.5" y="63.0"><title>2018-05-19 3 mins</title></rect><rect fill="#4bdfff" height="2.6" width="2.6" x="76.5" y="66.5"><title>2018-05-20 20 mins</title></rect><rect fill="#4bdfff" height="2.6" width="2.6" x="80.0" y="45.5"><title>2018-05-21 20 mins</title></rect><rect fill="#49ecff" height="2.6" width="2.6" x="80.0" y="49.0"><title>2018-05-22 39 mins</title></rect><rect fill="#4ae7ff" height="2.6" width="2.6" x="80.0" y="52.5"><title>2018-05-23 31 mins</title></rect><rect fill="#4aecff" height="2.6" width="2.6" x="80.0" y="56.0"><title>2018-05-24 38 mins</title></rect><rect fill="#ffe900" height="2.6" width="2.6" x="80.0" y="59.5"><title>2018-05-25 72 mins</title></rect><rect fill="#49eeff" height="2.6" width="2.6" x="80.0" y="63.0"><title>2018-05-26 42 mins</title></rect><rect fill="#49f3ff" height="2.6" width="2.6" x="80.0" y="66.5"><title>2018-05-27 49 mins</title></rect><rect fill="#4be0ff" height="2.6" width="2.6" x="83.5" y="45.5"><title>2018-05-28 22 mins</title></rect><rect fill="#4bdeff" height="2.6" width="2.6" x="83.5" y="49.0"><title>2018-05-29 19 mins</title></rect><rect fill="#4be0ff" height="2.6" width="2.6" x="83.5" y="52.5"><title>2018-05-30 21 mins</title></rect><rect fill="#4be0ff" height="2.6" width="2.6" x="83.5" y="56.0"><title>2018-05-31 22 mins</title></rect><rect fill="#ffe300" height="2.6" width="2.6" x="83.5" y="59.5"><title>2018-06-01 90 mins</title></rect><rect fill="#4cdcff" height="2.6" width="2.6" x="83.5" y="63.0"><title>2018-06-02 16 mins</title></rect><rect fill="#4cd7ff" height="2.6" width="2.6" x="83.5" y="66.5"><title>2018-06-03 9 mins</title></rect><rect fill="#4be0ff" height="2.6" width="2.6" x="87.0" y="45.5"><title>2018-06-04 22 mins</title></rect><rect fill="#4ae6ff" height="2.6" width="2.6" x="87.0" y="49.0"><title>2018-06-05 30 mins</title></rect><rect fill="#444444" height="2.6" width="2.6" x="87.0" y="52.5"><title>2018-06-06</title></rect><rect fill="#48f6ff" height="2.6" width="2.6" x="87.0" y="56.0"><title>2018-06-07 53 mins</title></rect><rect fill="#4dd5ff" height="2.6" width="2.6" x="87.0" y="59.5"><title>2018-06-08 5 mins</title></rect><rect fill="#4be0ff" height="2.6" width="2.6" x="87.0" y="63.0"><title>2018-06-09 22 mins</title></rect><rect fill="#4cd8ff" height="2.6" width="2.6" x="87.0" y="66.5"><title>2018-06-10 10 mins</title></rect><rect fill="#4be0ff" height="2.6" width="2.6" x="90.5" y="45.5"><title>2018-06-11 21 mins</title></rect><rect fill="#4ae7ff" height="2.6" width="2.6" x="90.5" y="49.0"><title>2018-06-12 32 mins</title></rect><rect fill="#4cd9ff" height="2.6" width="2.6" x="90.5" y="52.5"><title>2018-06-13 11 mins</title></rect><rect fill="#4cd7ff" height="2.6" width="2.6" x="90.5" y="56.0"><title>2018-06-14 8 mins</title></rect><rect fill="#444444" height="2.6" width="2.6" x="90.5" y="59.5"><title>2018-06-15</title></rect><rect fill="#444444" height="2.6" width="2.6" x="90.5" y="63.0"><title>2018-06-16</title></rect><rect fill="#444444" height="2.6" width="2.6" x="90.5" y="66.5"><title>2018-06-17</title></rect><rect fill="#444444" height="2.6" width="2.6" x="94.0" y="45.5"><title>2018-06-18</title></rect><rect fill="#4cd7ff" height="2.6" width="2.6" x="94.0" y="49.0"><title>2018-06-19 8 mins</title></rect><rect fill="#444444" height="2.6" width="2.6" x="94.0" y="52.5"><title>2018-06-20</title></rect><rect fill="#444444" height="2.6" width="2.6" x="94.0" y="56.0"><title>2018-06-21</title></rect><rect fill="#4bdeff" height="2.6" width="2.6" x="94.0" y="59.5"><title>2018-06-22 19 mins</title></rect><rect fill="#4cd7ff" height="2.6" width="2.6" x="94.0" y="63.0"><title>2018-06-23 8 mins</title></rect><rect fill="#444444" height="2.6" width="2.6" x="94.0" y="66.5"><title>2018-06-24</title></rect><rect fill="#4bdeff" height="2.6" width="2.6" x="97.5" y="45.5"><title>2018-06-25 19 mins</title></rect><rect fill="#4cd6ff" height="2.6" width="2.6" x="97.5" y="49.0"><title>2018-06-26 7 mins</title></rect><rect fill="#444444" height="2.6" width="2.6" x="97.5" y="52.5"><title>2018-06-27</title></rect><rect fill="#4dd4ff" height="2.6" width="2.6" x="97.5" y="56.0"><title>2018-06-28 4 mins</title></rect><rect fill="#4dd4ff" height="2.6" width="2.6" x="97.5" y="59.5"><title>2018-06-29 4 mins</title></rect><rect fill="#444444" height="2.6" width="2.6" x="97.5" y="63.0"><title>2018-06-30</title></rect><rect fill="#4cd8ff" height="2.6" width="2.6" x="97.5" y="66.5"><title>2018-07-01 10 mins</title></rect><rect fill="#4cdcff" height="2.6" width="2.6" x="101.0" y="45.5"><title>2018-07-02 15 mins</title></rect><rect fill="#4cdbff" height="2.6" width="2.6" x="101.0" y="49.0"><title>2018-07-03 14 mins</title></rect><rect fill="#444444" height="2.6" width="2.6" x="101.0" y="52.5"><title>2018-07-04</title></rect><rect fill="#4dd2ff" height="2.6" width="2.6" x="101.0" y="56.0"><title>2018-07-05 1 mins</title></rect><rect fill="#4be3ff" height="2.6" width="2.6" x="101.0" y="59.5"><title>2018-07-06 26 mins</title></rect><rect fill="#4bdfff" height="2.6" width="2.6" x="101.0" y="63.0"><title>2018-07-07 20 mins</title></rect><rect fill="#4be0ff" height="2.6" width="2.6" x="101.0" y="66.5"><title>2018-07-08 22 mins</title></rect><rect fill="#4cd9ff" height="2.6" width="2.6" x="104.5" y="45.5"><title>2018-07-09 11 mins</title></rect><rect fill="#4cdaff" height="2.6" width="2.6" x="104.5" y="49.0"><title>2018-07-10 13 mins</title></rect><rect fill="#444444" height="2.6" width="2.6" x="104.5" y="52.5"><title>2018-07-11</title></rect><rect fill="#4cdcff" height="2.6" width="2.6" x="104.5" y="56.0"><title>2018-07-12 15 mins</title></rect><rect fill="#4bdfff" height="2.6" width="2.6" x="104.5" y="59.5"><title>2018-07-13 20 mins</title></rect><rect fill="#4cd7ff" height="2.6" width="2.6" x="104.5" y="63.0"><title>2018-07-14 8 mins</title></rect><rect fill="#444444" height="2.6" width="2.6" x="104.5" y="66.5"><title>2018-07-15</title></rect><rect fill="#4cdcff" height="2.6" width="2.6" x="108.0" y="45.5"><title>2018-07-16 15 mins</title></rect><rect fill="#4bdeff" height="2.6" width="2.6" x="108.0" y="49.0"><title>2018-07-17 19 mins</title></rect><rect fill="#4be0ff" height="2.6" width="2.6" x="108.0" y="52.5"><title>2018-07-18 21 mins</title></rect><rect fill="#4cdbff" height="2.6" width="2.6" x="108.0" y="56.0"><title>2018-07-19 14 mins</title></rect><rect fill="#4be0ff" height="2.6" width="2.6" x="108.0" y="59.5"><title>2018-07-20 21 mins</title></rect><rect fill="#444444" height="2.6" width="2.6" x="108.0" y="63.0"><title>2018-07-21</title></rect><rect fill="#444444" height="2.6" width="2.6" x="108.0" y="66.5"><title>2018-07-22</title></rect><rect fill="#4be0ff" height="2.6" width="2.6" x="111.5" y="45.5"><title>2018-07-23 21 mins</title></rect><rect fill="#4ae7ff" height="2.6" width="2.6" x="111.5" y="49.0"><title>2018-07-24 31 mins</title></rect><rect fill="#4cd7ff" height="2.6" width="2.6" x="111.5" y="52.5"><title>2018-07-25 9 mins</title></rect><rect fill="#4cdaff" height="2.6" width="2.6" x="111.5" y="56.0"><title>2018-07-26 13 mins</title></rect><rect fill="#4dd2ff" height="2.6" width="2.6" x="111.5" y="59.5"><title>2018-07-27 1 mins</title></rect><rect fill="#4dd3ff" height="2.6" width="2.6" x="111.5" y="63.0"><title>2018-07-28 2 mins</title></rect><rect fill="#4cdaff" height="2.6" width="2.6" x="111.5" y="66.5"><title>2018-07-29 13 mins</title></rect><rect fill="#4cd8ff" height="2.6" width="2.6" x="115.0" y="45.5"><title>2018-07-30 10 mins</title></rect><rect fill="#4cdcff" height="2.6" width="2.6" x="115.0" y="49.0"><title>2018-07-31 16 mins</title></rect><rect fill="#4be2ff" height="2.6" width="2.6" x="115.0" y="52.5"><title>2018-08-01 25 mins</title></rect><rect fill="#4cd9ff" height="2.6" width="2.6" x="115.0" y="56.0"><title>2018-08-02 11 mins</title></rect><rect fill="#444444" height="2.6" width="2.6" x="115.0" y="59.5"><title>2018-08-03</title></rect><rect fill="#4cd8ff" height="2.6" width="2.6" x="115.0" y="63.0"><title>2018-08-04 10 mins</title></rect><rect fill="#4be2ff" height="2.6" width="2.6" x="115.0" y="66.5"><title>2018-08-05 24 mins</title></rect><rect fill="#4cd6ff" height="2.6" width="2.6" x="118.5" y="45.5"><title>2018-08-06 7 mins</title></rect><rect fill="#4cd9ff" height="2.6" width="2.6" x="118.5" y="49.0"><title>2018-08-07 11 mins</title></rect><rect fill="#4bdeff" height="2.6" width="2.6" x="118.5" y="52.5"><title>2018-08-08 18 mins</title></rect><rect fill="#4be1ff" height="2.6" width="2.6" x="118.5" y="56.0"><title>2018-08-09 23 mins</title></rect><rect fill="#49efff" height="2.6" width="2.6" x="118.5" y="59.5"><title>2018-08-10 43 mins</title></rect><rect fill="#444444" height="2.6" width="2.6" x="118.5" y="63.0"><title>2018-08-11</title></rect><rect fill="#4dd5ff" height="2.6" width="2.6" x="118.5" y="66.5"><title>2018-08-12 5 mins</title></rect><rect fill="#4aecff" height="2.6" width="2.6" x="122.0" y="45.5"><title>2018-08-13 38 mins</title></rect><rect fill="#4cdaff" height="2.6" width="2.6" x="122.0" y="49.0"><title>2018-08-14 13 mins</title></rect><rect fill="#4cdaff" height="2.6" width="2.6" x="122.0" y="52.5"><title>2018-08-15 13 mins</title></rect><rect fill="#444444" height="2.6" width="2.6" x="122.0" y="56.0"><title>2018-08-16</title></rect><rect fill="#4cdbff" height="2.6" width="2.6" x="122.0" y="59.5"><title>2018-08-17 14 mins</title></rect><rect fill="#4be0ff" height="2.6" width="2.6" x="122.0" y="63.0"><title>2018-08-18 21 mins</title></rect><rect fill="#4dd5ff" height="2.6" width="2.6" x="122.0" y="66.5"><title>2018-08-19 6 mins</title></rect><rect fill="#444444" height="2.6" width="2.6" x="125.5" y="45.5"><title>2018-08-20</title></rect><rect fill="#4cd6ff" height="2.6" width="2.6" x="125.5" y="49.0"><title>2018-08-21 7 mins</title></rect><rect fill="#4bdfff" height="2.6" width="2.6" x="125.5" y="52.5"><title>2018-08-22 20 mins</title></rect><rect fill="#4cd7ff" height="2.6" width="2.6" x="125.5" y="56.0"><title>2018-08-23 8 mins</title></rect><rect fill="#4bdfff" height="2.6" width="2.6" x="125.5" y="59.5"><title>2018-08-24 20 mins</title></rect><rect fill="#4dd4ff" height="2.6" width="2.6" x="125.5" y="63.0"><title>2018-08-25 4 mins</title></rect><rect fill="#4cd8ff" height="2.6" width="2.6" x="125.5" y="66.5"><title>2018-08-26 10 mins</title></rect><rect fill="#4dd2ff" height="2.6" width="2.6" x="129.0" y="45.5"><title>2018-08-27 1 mins</title></rect><rect fill="#444444" height="2.6" width="2.6" x="129.0" y="49.0"><title>2018-08-28</title></rect><rect fill="#4cdbff" height="2.6" width="2.6" x="129.0" y="52.5"><title>2018-08-29 14 mins</title></rect><rect fill="#4cd9ff" height="2.6" width="2.6" x="129.0" y="56.0"><title>2018-08-30 11 mins</title></rect><rect fill="#4cd9ff" height="2.6" width="2.6" x="129.0" y="59.5"><title>2018-08-31 11 mins</title></rect><rect fill="#4dd5ff" height="2.6" width="2.6" x="129.0" y="63.0"><title>2018-09-01 5 mins</title></rect><rect fill="#4cdbff" height="2.6" width="2.6" x="129.0" y="66.5"><title>2018-09-02 14 mins</title></rect><rect fill="#4bdfff" height="2.6" width="2.6" x="132.5" y="45.5"><title>2018-09-03 20 mins</title></rect><rect fill="#4cd6ff" height="2.6" width="2.6" x="132.5" y="49.0"><title>2018-09-04 7 mins</title></rect><rect fill="#444444" height="2.6" width="2.6" x="132.5" y="52.5"><title>2018-09-05</title></rect><rect fill="#4be0ff" height="2.6" width="2.6" x="132.5" y="56.0"><title>2018-09-06 21 mins</title></rect><rect fill="#4cdbff" height="2.6" width="2.6" x="132.5" y="59.5"><title>2018-09-07 14 mins</title></rect><rect fill="#4be0ff" height="2.6" width="2.6" x="132.5" y="63.0"><title>2018-09-08 21 mins</title></rect><rect fill="#4cd7ff" height="2.6" width="2.6" x="132.5" y="66.5"><title>2018-09-09 8 mins</title></rect><rect fill="#49f3ff" height="2.6" width="2.6" x="136.0" y="45.5"><title>2018-09-10 48 mins</title></rect><rect fill="#4ae7ff" height="2.6" width="2.6" x="136.0" y="49.0"><title>2018-09-11 32 mins</title></rect><rect fill="#4cdcff" height="2.6" width="2.6" x="136.0" y="52.5"><title>2018-09-12 15 mins</title></rect><rect fill="#4cd8ff" height="2.6" width="2.6" x="136.0" y="56.0"><title>2018-09-13 10 mins</title></rect><rect fill="#4dd5ff" height="2.6" width="2.6" x="136.0" y="59.5"><title>2018-09-14 5 mins</title></rect><rect fill="#4cdaff" height="2.6" width="2.6" x="136.0" y="63.0"><title>2018-09-15 12 mins</title></rect><rect fill="#4cdaff" height="2.6" width="2.6" x="136.0" y="66.5"><title>2018-09-16 13 mins</title></rect><rect fill="#4ae7ff" height="2.6" width="2.6" x="139.5" y="45.5"><title>2018-09-17 31 mins</title></rect><rect fill="#4bdeff" height="2.6" width="2.6" x="139.5" y="49.0"><title>2018-09-18 19 mins</title></rect><rect fill="#444444" height="2.6" width="2.6" x="139.5" y="52.5"><title>2018-09-19</title></rect><rect fill="#444444" height="2.6" width="2.6" x="139.5" y="56.0"><title>2018-09-20</title></rect><rect fill="#444444" height="2.6" width="2.6" x="139.5" y="59.5"><title>2018-09-21</title></rect><rect fill="#444444" height="2.6" width="2.6" x="139.5" y="63.0"><title>2018-09-22</title></rect><rect fill="#444444" height="2.6" width="2.6" x="139.5" y="66.5"><title>2018-09-23</title></rect><rect fill="#444444" height="2.6" width="2.6" x="143.0" y="45.5"><title>2018-09-24</title></rect><rect fill="#444444" height="2.6" width="2.6" x="143.0" y="49.0"><title>2018-09-25</title></rect><rect fill="#444444" height="2.6" width="2.6" x="143.0" y="52.5"><title>2018-09-26</title></rect><rect fill="#444444" height="2.6" width="2.6" x="143.0" y="56.0"><title>2018-09-27</title></rect><rect fill="#444444" height="2.6" width="2.6" x="143.0" y="59.5"><title>2018-09-28</title></rect><rect fill="#444444" height="2.6" width="2.6" x="143.0" y="63.0"><title>2018-09-29</title></rect><rect fill="#4be2ff" height="2.6" width="2.6" x="143.0" y="66.5"><title>2018-09-30 25 mins</title></rect><rect fill="#49edff" height="2.6" width="2.6" x="146.5" y="45.5"><title>2018-10-01 40 mins</title></rect><rect fill="#4cddff" height="2.6" width="2.6" x="146.5" y="49.0"><title>2018-10-02 17 mins</title></rect><rect fill="#4cdbff" height="2.6" width="2.6" x="146.5" y="52.5"><title>2018-10-03 14 mins</title></rect><rect fill="#48f8ff" height="2.6" width="2.6" x="146.5" y="56.0"><title>2018-10-04 56 mins</title></rect><rect fill="#4dd3ff" height="2.6" width="2.6" x="146.5" y="59.5"><title>2018-10-05 3 mins</title></rect><rect fill="#4be1ff" height="2.6" width="2.6" x="146.5" y="63.0"><title>2018-10-06 23 mins</title></rect><rect fill="#ffec00" height="2.6" width="2.6" x="146.5" y="66.5"><title>2018-10-07 61 mins</title></rect><rect fill="#4be0ff" height="2.6" width="2.6" x="150.0" y="45.5"><title>2018-10-08 21 mins</title></rect><rect fill="#ffe600" height="2.6" width="2.6" x="150.0" y="49.0"><title>2018-10-09 83 mins</title></rect><rect fill="#ffec00" height="2.6" width="2.6" x="150.0" y="52.5"><title>2018-10-10 62 mins</title></rect><rect fill="#4aeaff" height="2.6" width="2.6" x="150.0" y="56.0"><title>2018-10-11 36 mins</title></rect><rect fill="#4cd7ff" height="2.6" width="2.6" x="150.0" y="59.5"><title>2018-10-12 8 mins</title></rect><rect fill="#4aecff" height="2.6" width="2.6" x="150.0" y="63.0"><title>2018-10-13 38 mins</title></rect><rect fill="#4be2ff" height="2.6" width="2.6" x="150.0" y="66.5"><title>2018-10-14 24 mins</title></rect><rect fill="#4ae9ff" height="2.6" width="2.6" x="153.5" y="45.5"><title>2018-10-15 35 mins</title></rect><rect fill="#4cdbff" height="2.6" width="2.6" x="153.5" y="49.0"><title>2018-10-16 14 mins</title></rect><rect fill="#4aecff" height="2.6" width="2.6" x="153.5" y="52.5"><title>2018-10-17 38 mins</title></rect><rect fill="#4cdcff" height="2.6" width="2.6" x="153.5" y="56.0"><title>2018-10-18 16 mins</title></rect><rect fill="#4be3ff" height="2.6" width="2.6" x="153.5" y="59.5"><title>2018-10-19 26 mins</title></rect><rect fill="#ffe400" height="2.6" width="2.6" x="153.5" y="63.0"><title>2018-10-20 89 mins</title></rect><rect fill="#ffe900" height="2.6" width="2.6" x="153.5" y="66.5"><title>2018-10-21 73 mins</title></rect><rect fill="#48f8ff" height="2.6" width="2.6" x="157.0" y="45.5"><title>2018-10-22 55 mins</title></rect><rect fill="#4be0ff" height="2.6" width="2.6" x="157.0" y="49.0"><title>2018-10-23 22 mins</title></rect><rect fill="#4dd5ff" height="2.6" width="2.6" x="157.0" y="52.5"><title>2018-10-24 6 mins</title></rect><rect fill="#ffe600" height="2.6" width="2.6" x="157.0" y="56.0"><title>2018-10-25 82 mins</title></rect><rect fill="#4ae9ff" height="2.6" width="2.6" x="157.0" y="59.5"><title>2018-10-26 35 mins</title></rect><rect fill="red" height="2.6" width="2.6" x="157.0" y="63.0"><title>2018-10-27 129 mins</title></rect><rect fill="#ffe300" height="2.6" width="2.6" x="157.0" y="66.5"><title>2018-10-28 93 mins</title></rect><rect fill="#4bdeff" height="2.6" width="2.6" x="160.5" y="45.5"><title>2018-10-29 19 mins</title></rect><rect fill="red" height="2.6" width="2.6" x="160.5" y="49.0"><title>2018-10-30 105 mins</title></rect><rect fill="#4dd5ff" height="2.6" width="2.6" x="160.5" y="52.5"><title>2018-10-31 5 mins</title></rect><rect fill="red" height="2.6" width="2.6" x="160.5" y="56.0"><title>2018-11-01 109 mins</title></rect><rect fill="#ffeb00" height="2.6" width="2.6" x="160.5" y="59.5"><title>2018-11-02 66 mins</title></rect><rect fill="#4cd6ff" height="2.6" width="2.6" x="160.5" y="63.0"><title>2018-11-03 7 mins</title></rect><rect fill="#ffe300" height="2.6" width="2.6" x="160.5" y="66.5"><title>2018-11-04 93 mins</title></rect><rect fill="#48f5ff" height="2.6" width="2.6" x="164.0" y="45.5"><title>2018-11-05 51 mins</title></rect><rect fill="#4cddff" height="2.6" width="2.6" x="164.0" y="49.0"><title>2018-11-06 17 mins</title></rect><rect fill="#4cdaff" height="2.6" width="2.6" x="164.0" y="52.5"><title>2018-11-07 13 mins</title></rect><rect fill="#ffed00" height="2.6" width="2.6" x="164.0" y="56.0"><title>2018-11-08 60 mins</title></rect><rect fill="#ffec00" height="2.6" width="2.6" x="164.0" y="59.5"><title>2018-11-09 62 mins</title></rect><rect fill="#ffe500" height="2.6" width="2.6" x="164.0" y="63.0"><title>2018-11-10 84 mins</title></rect><rect fill="#4aebff" height="2.6" width="2.6" x="164.0" y="66.5"><title>2018-11-11 37 mins</title></rect><rect fill="#ffe300" height="2.6" width="2.6" x="167.5" y="45.5"><title>2018-11-12 91 mins</title></rect><rect fill="#4be0ff" height="2.6" width="2.6" x="167.5" y="49.0"><title>2018-11-13 21 mins</title></rect><rect fill="#4cd7ff" height="2.6" width="2.6" x="167.5" y="52.5"><title>2018-11-14 9 mins</title></rect><rect fill="#ffeb00" height="2.6" width="2.6" x="167.5" y="56.0"><title>2018-11-15 65 mins</title></rect><rect fill="#4be0ff" height="2.6" width="2.6" x="167.5" y="59.5"><title>2018-11-16 21 mins</title></rect><rect fill="#48f6ff" height="2.6" width="2.6" x="167.5" y="63.0"><title>2018-11-17 53 mins</title></rect><rect fill="#4cdaff" height="2.6" width="2.6" x="167.5" y="66.5"><title>2018-11-18 13 mins</title></rect><rect fill="#ffe500" height="2.6" width="2.6" x="171.0" y="45.5"><title>2018-11-19 86 mins</title></rect><rect fill="#4dd5ff" height="2.6" width="2.6" x="171.0" y="49.0"><title>2018-11-20 5 mins</title></rect><rect fill="#4dd2ff" height="2.6" width="2.6" x="171.0" y="52.5"><title>2018-11-21 1 mins</title></rect><rect fill="#4be2ff" height="2.6" width="2.6" x="171.0" y="56.0"><title>2018-11-22 25 mins</title></rect><rect fill="red" height="2.6" width="2.6" x="171.0" y="59.5"><title>2018-11-23 180 mins</title></rect><rect fill="#ffe700" height="2.6" width="2.6" x="171.0" y="63.0"><title>2018-11-24 79 mins</title></rect><rect fill="#4cdbff" height="2.6" width="2.6" x="171.0" y="66.5"><title>2018-11-25 14 mins</title></rect><rect fill="#ffe800" height="2.6" width="2.6" x="174.5" y="45.5"><title>2018-11-26 77 mins</title></rect><rect fill="#4cddff" height="2.6" width="2.6" x="174.5" y="49.0"><title>2018-11-27 17 mins</title></rect><rect fill="#4be1ff" height="2.6" width="2.6" x="174.5" y="52.5"><title>2018-11-28 23 mins</title></rect><rect fill="#4cd6ff" height="2.6" width="2.6" x="174.5" y="56.0"><title>2018-11-29 7 mins</title></rect><rect fill="#4cdcff" height="2.6" width="2.6" x="174.5" y="59.5"><title>2018-11-30 15 mins</title></rect><rect fill="#ffe200" height="2.6" width="2.6" x="174.5" y="63.0"><title>2018-12-01 95 mins</title></rect><rect fill="#4dd3ff" height="2.6" width="2.6" x="174.5" y="66.5"><title>2018-12-02 2 mins</title></rect><rect fill="#48f8ff" height="2.6" width="2.6" x="178.0" y="45.5"><title>2018-12-03 56 mins</title></rect><rect fill="#4bdeff" height="2.6" width="2.6" x="178.0" y="49.0"><title>2018-12-04 18 mins</title></rect><rect fill="#4cdaff" height="2.6" width="2.6" x="178.0" y="52.5"><title>2018-12-05 12 mins</title></rect><rect fill="#4cd7ff" height="2.6" width="2.6" x="178.0" y="56.0"><title>2018-12-06 9 mins</title></rect><rect fill="#4cd9ff" height="2.6" width="2.6" x="178.0" y="59.5"><title>2018-12-07 11 mins</title></rect><rect fill="#ffec00" height="2.6" width="2.6" x="178.0" y="63.0"><title>2018-12-08 62 mins</title></rect><rect fill="#ffe700" height="2.6" width="2.6" x="178.0" y="66.5"><title>2018-12-09 79 mins</title></rect><rect fill="#4cdaff" height="2.6" width="2.6" x="181.5" y="45.5"><title>2018-12-10 12 mins</title></rect><rect fill="#4cdcff" height="2.6" width="2.6" x="181.5" y="49.0"><title>2018-12-11 16 mins</title></rect><rect fill="#4dd2ff" height="2.6" width="2.6" x="181.5" y="52.5"><title>2018-12-12 1 mins</title></rect><rect fill="#4cd6ff" height="2.6" width="2.6" x="181.5" y="56.0"><title>2018-12-13 7 mins</title></rect><rect fill="#4cdbff" height="2.6" width="2.6" x="181.5" y="59.5"><title>2018-12-14 14 mins</title></rect><rect fill="red" height="2.6" width="2.6" x="181.5" y="63.0"><title>2018-12-15 215 mins</title></rect><rect fill="red" height="2.6" width="2.6" x="181.5" y="66.5"><title>2018-12-16 197 mins</title></rect><rect fill="#4cdaff" height="2.6" width="2.6" x="185.0" y="45.5"><title>2018-12-17 12 mins</title></rect><rect fill="#4cdaff" height="2.6" width="2.6" x="185.0" y="49.0"><title>2018-12-18 13 mins</title></rect><rect fill="#4cd9ff" height="2.6" width="2.6" x="185.0" y="52.5"><title>2018-12-19 11 mins</title></rect><rect fill="#4be4ff" height="2.6" width="2.6" x="185.0" y="56.0"><title>2018-12-20 27 mins</title></rect><rect fill="red" height="2.6" width="2.6" x="185.0" y="59.5"><title>2018-12-21 169 mins</title></rect><rect fill="red" height="2.6" width="2.6" x="185.0" y="63.0"><title>2018-12-22 197 mins</title></rect><rect fill="#ffe200" height="2.6" width="2.6" x="185.0" y="66.5"><title>2018-12-23 94 mins</title></rect><rect fill="#ffe700" height="2.6" width="2.6" x="188.5" y="45.5"><title>2018-12-24 79 mins</title></rect><rect fill="#ffeb00" height="2.6" width="2.6" x="188.5" y="49.0"><title>2018-12-25 67 mins</title></rect><rect fill="#4be0ff" height="2.6" width="2.6" x="188.5" y="52.5"><title>2018-12-26 21 mins</title></rect><rect fill="#4dd3ff" height="2.6" width="2.6" x="188.5" y="56.0"><title>2018-12-27 3 mins</title></rect><rect fill="#4cdaff" height="2.6" width="2.6" x="188.5" y="59.5"><title>2018-12-28 12 mins</title></rect><rect fill="#48f4ff" height="2.6" width="2.6" x="188.5" y="63.0"><title>2018-12-29 50 mins</title></rect><rect fill="#ffed00" height="2.6" width="2.6" x="188.5" y="66.5"><title>2018-12-30 60 mins</title></rect><rect fill="#4cddff" height="2.6" width="2.6" x="192.0" y="45.5"><title>2018-12-31 17 mins</title></rect></svg>