<?xml version="1.0" encoding="utf-8" ?>
<svg baseProfile="full" height="78mm" version="1.1" viewBox="0,0,200,78" width="200mm" xmlns="http://www.w3.org/2000/svg" xmlns:ev="http://www.w3.org/2001/xml-events" xmlns:xlink="http://www.w3.org/1999/xlink"><defs /><rect fill="#222222" height="78" width="200" x="0" y="0" /><text fill="#FFFFFF" style="font-size:12px; font-family:Arial; font-weight:bold;" x="10" y="20">rip-tyang apple_health</text><text dominant-baseline="hanging" fill="#FFFFFF" style="font-size:10.0px; font-family:Arial;" x="10" y="30">2019</text><text dominant-baseline="hanging" fill="#FFFFFF" style="font-size:4.125px; font-family:Arial;" x="175" y="35">6620 hours</text><text fill="#FFFFFF" style="font-size:2.5px; font-family:Arial" x="10.0" y="44">Jan</text><text fill="#FFFFFF" style="font-size:2.5px; font-family:Arial" x="25.5" y="44">Feb</text><text fill="#FFFFFF" style="font-size:2.5px; font-family:Arial" x="41.0" y="44">Mar</text><text fill="#FFFFFF" style="font-size:2.5px; font-family:Arial" x="56.5" y="44">Apr</text><text fill="#FFFFFF" style="font-size:2.5px; font-family:Arial" x="72.0" y="44">May</text><text fill="#FFFFFF" style="font-size:2.5px; font-family:Arial" x="87.5" y="44">Jun</text><text fill="#FFFFFF" style="font-size:2.5px; font-family:Arial" x="103.0" y="44">Jul</text><text fill="#FFFFFF" style="font-size:2.5px; font-family:Arial" x="118.5" y="44">Aug</text><text fill="#FFFFFF" style="font-size:2.5px; font-family:Arial" x="134.0" y="44">Sep</text><text fill="#FFFFFF" style="font-size:2.5px; font-family:Arial" x="149.5" y="44">Oct</text><text fill="#FFFFFF" style="font-size:2.5px; font-family:Arial" x="165.0" y="44">Nov</text><text fill="#FFFFFF" style="font-size:2.5px; font-family:Arial" x="180.5" y="44">Dec</text><rect fill="#444444" height="2.6" width="2.6" x="10.0" y="45.5"><title>2018-12-31</title></rect><rect fill="#32ff49" height="2.6" width="2.6" x="10.0" y="49.0"><title>2019-01-01 15 hours</title></rect><rect fill="#ff4000" height="2.6" width="2.6" x="10.0" y="52.5"><title>2019-01-02 23 hours</title></rect><rect fill="#ff4000" height="2.6" width="2.6" x="10.0" y="56.0"><title>2019-01-03 23 hours</title></rect><rect fill="#ff3300" height="2.6" width="2.6" x="10.0" y="59.5"><title>2019-01-04 24 hours</title></rect><rect fill="#ff4000" height="2.6" width="2.6" x="10.0" y="63.0"><title>2019-01-05 23 hours</title></rect><rect fill="#3effb2" height="2.6" width="2.6" x="10.0" y="66.5"><title>2019-01-06 12 hours</title></rect><rect fill="#32ff49" height="2.6" width="2.6" x="13.5" y="45.5"><title>2019-01-07 15 hours</title></rect><rect fill="#32ff49" height="2.6" width="2.6" x="13.5" y="49.0"><title>2019-01-08 15 hours</title></rect><rect fill="#38ff2e" height="2.6" width="2.6" x="13.5" y="52.5"><title>2019-01-09 16 hours</title></rect><rect fill="#ff3300" height="2.6" width="2.6" x="13.5" y="56.0"><title>2019-01-10 24 hours</title></rect><rect fill="#36ff6e" height="2.6" width="2.6" x="13.5" y="59.5"><title>2019-01-11 14 hours</title></rect><rect fill="#99ff23" height="2.6" width="2.6" x="13.5" y="63.0"><title>2019-01-12 19 hours</title></rect><rect fill="#4dd2ff" height="2.6" width="2.6" x="13.5" y="66.5"><title>2019-01-13 8 hours</title></rect><rect fill="red" height="2.6" width="2.6" x="17.0" y="45.5"><title>2019-01-14 28 hours</title></rect><rect fill="#32ff49" height="2.6" width="2.6" x="17.0" y="49.0"><title>2019-01-15 15 hours</title></rect><rect fill="#38ff2e" height="2.6" width="2.6" x="17.0" y="52.5"><title>2019-01-16 16 hours</title></rect><rect fill="#32ff49" height="2.6" width="2.6" x="17.0" y="56.0"><title>2019-01-17 15 hours</title></rect><rect fill="#ff4000" height="2.6" width="2.6" x="17.0" y="59.5"><title>2019-01-18 23 hours</title></rect><rect fill="#38ff2e" height="2.6" width="2.6" x="17.0" y="63.0"><title>2019-01-19 16 hours</title></rect><rect fill="#ff5900" height="2.6" width="2.6" x="17.0" y="66.5"><title>2019-01-20 21 hours</title></rect><rect fill="#3aff90" height="2.6" width="2.6" x="20.5" y="45.5"><title>2019-01-21 13 hours</title></rect><rect fill="#57ff2a" height="2.6" width="2.6" x="20.5" y="49.0"><title>2019-01-22 17 hours</title></rect><rect fill="#77ff26" height="2.6" width="2.6" x="20.5" y="52.5"><title>2019-01-23 18 hours</title></rect><rect fill="#38ff2e" height="2.6" width="2.6" x="20.5" y="56.0"><title>2019-01-24 16 hours</title></rect><rect fill="#99ff23" height="2.6" width="2.6" x="20.5" y="59.5"><title>2019-01-25 19 hours</title></rect><rect fill="#32ff49" height="2.6" width="2.6" x="20.5" y="63.0"><title>2019-01-26 15 hours</title></rect><rect fill="#77ff26" height="2.6" width="2.6" x="20.5" y="66.5"><title>2019-01-27 18 hours</title></rect><rect fill="#32ff49" height="2.6" width="2.6" x="24.0" y="45.5"><title>2019-01-28 15 hours</title></rect><rect fill="#32ff49" height="2.6" width="2.6" x="24.0" y="49.0"><title>2019-01-29 15 hours</title></rect><rect fill="#77ff26" height="2.6" width="2.6" x="24.0" y="52.5"><title>2019-01-30 18 hours</title></rect><rect fill="#38ff2e" height="2.6" width="2.6" x="24.0" y="56.0"><title>2019-01-31 16 hours</title></rect><rect fill="#77ff26" height="2.6" width="2.6" x="24.0" y="59.5"><title>2019-02-01 18 hours</title></rect><rect fill="#57ff2a" height="2.6" width="2.6" x="24.0" y="63.0"><title>2019-02-02 17 hours</title></rect><rect fill="#32ff49" height="2.6" width="2.6" x="24.0" y="66.5"><title>2019-02-03 15 hours</title></rect><rect fill="#57ff2a" height="2.6" width="2.6" x="27.5" y="45.5"><title>2019-02-04 17 hours</title></rect><rect fill="#57ff2a" height="2.6" width="2.6" x="27.5" y="49.0"><title>2019-02-05 17 hours</title></rect><rect fill="#99ff23" height="2.6" width="2.6" x="27.5" y="52.5"><title>2019-02-06 19 hours</title></rect><rect fill="#38ff2e" height="2.6" width="2.6" x="27.5" y="56.0"><title>2019-02-07 16 hours</title></rect><rect fill="#57ff2a" height="2.6" width="2.6" x="27.5" y="59.5"><title>2019-02-08 17 hours</title></rect><rect fill="#36ff6e" height="2.6" width="2.6" x="27.5" y="63.0"><title>2019-02-09 14 hours</title></rect><rect fill="#36ff6e" height="2.6" width="2.6" x="27.5" y="66.5"><title>2019-02-10 14 hours</title></rect><rect fill="#77ff26" height="2.6" width="2.6" x="31.0" y="45.5"><title>2019-02-11 18 hours</title></rect><rect fill="#57ff2a" height="2.6" width="2.6" x="31.0" y="49.0"><title>2019-02-12 17 hours</title></rect><rect fill="#57ff2a" height="2.6" width="2.6" x="31.0" y="52.5"><title>2019-02-13 17 hours</title></rect><rect fill="#57ff2a" height="2.6" width="2.6" x="31.0" y="56.0"><title>2019-02-14 17 hours</title></rect><rect fill="#57ff2a" height="2.6" width="2.6" x="31.0" y="59.5"><title>2019-02-15 17 hours</title></rect><rect fill="#38ff2e" height="2.6" width="2.6" x="31.0" y="63.0"><title>2019-02-16 16 hours</title></rect><rect fill="#32ff49" height="2.6" width="2.6" x="31.0" y="66.5"><title>2019-02-17 15 hours</title></rect><rect fill="#57ff2a" height="2.6" width="2.6" x="34.5" y="45.5"><title>2019-02-18 17 hours</title></rect><rect fill="#38ff2e" height="2.6" width="2.6" x="34.5" y="49.0"><title>2019-02-19 16 hours</title></rect><rect fill="#57ff2a" height="2.6" width="2.6" x="34.5" y="52.5"><title>2019-02-20 17 hours</title></rect><rect fill="#38ff2e" height="2.6" width="2.6" x="34.5" y="56.0"><title>2019-02-21 16 hours</title></rect><rect fill="#57ff2a" height="2.6" width="2.6" x="34.5" y="59.5"><title>2019-02-22 17 hours</title></rect><rect fill="#ff4c00" height="2.6" width="2.6" x="34.5" y="63.0"><title>2019-02-23 22 hours</title></rect><rect fill="#38ff2e" height="2.6" width="2.6" x="34.5" y="66.5"><title>2019-02-24 16 hours</title></rect><rect fill="#99ff23" height="2.6" width="2.6" x="38.0" y="45.5"><title>2019-02-25 19 hours</title></rect><rect fill="#38ff2e" height="2.6" width="2.6" x="38.0" y="49.0"><title>2019-02-26 16 hours</title></rect><rect fill="#77ff26" height="2.6" width="2.6" x="38.0" y="52.5"><title>2019-02-27 18 hours</title></rect><rect fill="#38ff2e" height="2.6" width="2.6" x="38.0" y="56.0"><title>2019-02-28 16 hours</title></rect><rect fill="#38ff2e" height="2.6" width="2.6" x="38.0" y="59.5"><title>2019-03-01 16 hours</title></rect><rect fill="#32ff49" height="2.6" width="2.6" x="38.0" y="63.0"><title>2019-03-02 15 hours</title></rect><rect fill="#38ff2e" height="2.6" width="2.6" x="38.0" y="66.5"><title>2019-03-03 16 hours</title></rect><rect fill="#57ff2a" height="2.6" width="2.6" x="41.5" y="45.5"><title>2019-03-04 17 hours</title></rect><rect fill="#77ff26" height="2.6" width="2.6" x="41.5" y="49.0"><title>2019-03-05 18 hours</title></rect><rect fill="#32ff49" height="2.6" width="2.6" x="41.5" y="52.5"><title>2019-03-06 15 hours</title></rect><rect fill="#38ff2e" height="2.6" width="2.6" x="41.5" y="56.0"><title>2019-03-07 16 hours</title></rect><rect fill="#38ff2e" height="2.6" width="2.6" x="41.5" y="59.5"><title>2019-03-08 16 hours</title></rect><rect fill="#36ff6e" height="2.6" width="2.6" x="41.5" y="63.0"><title>2019-03-09 14 hours</title></rect><rect fill="#38ff2e" height="2.6" width="2.6" x="41.5" y="66.5"><title>2019-03-10 16 hours</title></rect><rect fill="#38ff2e" height="2.6" width="2.6" x="45.0" y="45.5"><title>2019-03-11 16 hours</title></rect><rect fill="#77ff26" height="2.6" width="2.6" x="45.0" y="49.0"><title>2019-03-12 18 hours</title></rect><rect fill="#38ff2e" height="2.6" width="2.6" x="45.0" y="52.5"><title>2019-03-13 16 hours</title></rect><rect fill="#32ff49" height="2.6" width="2.6" x="45.0" y="56.0"><title>2019-03-14 15 hours</title></rect><rect fill="#77ff26" height="2.6" width="2.6" x="45.0" y="59.5"><title>2019-03-15 18 hours</title></rect><rect fill="#32ff49" height="2.6" width="2.6" x="45.0" y="63.0"><title>2019-03-16 15 hours</title></rect><rect fill="#99ff23" height="2.6" width="2.6" x="45.0" y="66.5"><title>2019-03-17 19 hours</title></rect><rect fill="#57ff2a" height="2.6" width="2.6" x="48.5" y="45.5"><title>2019-03-18 17 hours</title></rect><rect fill="#57ff2a" height="2.6" width="2.6" x="48.5" y="49.0"><title>2019-03-19 17 hours</title></rect><rect fill="#38ff2e" height="2.6" width="2.6" x="48.5" y="52.5"><title>2019-03-20 16 hours</title></rect><rect fill="#38ff2e" height="2.6" width="2.6" x="48.5" y="56.0"><title>2019-03-21 16 hours</title></rect><rect fill="#57ff2a" height="2.6" width="2.6" x="48.5" y="59.5"><title>2019-03-22 17 hours</title></rect><rect fill="#38ff2e" height="2.6" width="2.6" x="48.5" y="63.0"><title>2019-03-23 16 hours</title></rect><rect fill="#77ff26" height="2.6" width="2.6" x="48.5" y="66.5"><title>2019-03-24 18 hours</title></rect><rect fill="#38ff2e" height="2.6" width="2.6" x="52.0" y="45.5"><title>2019-03-25 16 hours</title></rect><rect fill="#57ff2a" height="2.6" width="2.6" x="52.0" y="49.0"><title>2019-03-26 17 hours</title></rect><rect fill="#77ff26" height="2.6" width="2.6" x="52.0" y="52.5"><title>2019-03-27 18 hours</title></rect><rect fill="#38ff2e" height="2.6" width="2.6" x="52.0" y="56.0"><title>2019-03-28 16 hours</title></rect><rect fill="#38ff2e" height="2.6" width="2.6" x="52.0" y="59.5"><title>2019-03-29 16 hours</title></rect><rect fill="#ff5900" height="2.6" width="2.6" x="52.0" y="63.0"><title>2019-03-30 21 hours</title></rect><rect fill="#99ff23" height="2.6" width="2.6" x="52.0" y="66.5"><title>2019-03-31 19 hours</title></rect><rect fill="#ff4c00" height="2.6" width="2.6" x="55.5" y="45.5"><title>2019-04-01 22 hours</title></rect><rect fill="#36ff6e" height="2.6" width="2.6" x="55.5" y="49.0"><title>2019-04-02 14 hours</title></rect><rect fill="#57ff2a" height="2.6" width="2.6" x="55.5" y="52.5"><title>2019-04-03 17 hours</title></rect><rect fill="#57ff2a" height="2.6" width="2.6" x="55.5" y="56.0"><title>2019-04-04 17 hours</title></rect><rect fill="#38ff2e" height="2.6" width="2.6" x="55.5" y="59.5"><title>2019-04-05 16 hours</title></rect><rect fill="#32ff49" height="2.6" width="2.6" x="55.5" y="63.0"><title>2019-04-06 15 hours</title></rect><rect fill="#36ff6e" height="2.6" width="2.6" x="55.5" y="66.5"><title>2019-04-07 14 hours</title></rect><rect fill="#99ff23" height="2.6" width="2.6" x="59.0" y="45.5"><title>2019-04-08 19 hours</title></rect><rect fill="#38ff2e" height="2.6" width="2.6" x="59.0" y="49.0"><title>2019-04-09 16 hours</title></rect><rect fill="#57ff2a" height="2.6" width="2.6" x="59.0" y="52.5"><title>2019-04-10 17 hours</title></rect><rect fill="#57ff2a" height="2.6" width="2.6" x="59.0" y="56.0"><title>2019-04-11 17 hours</title></rect><rect fill="#38ff2e" height="2.6" width="2.6" x="59.0" y="59.5"><title>2019-04-12 16 hours</title></rect><rect fill="#32ff49" height="2.6" width="2.6" x="59.0" y="63.0"><title>2019-04-13 15 hours</title></rect><rect fill="#36ff6e" height="2.6" width="2.6" x="59.0" y="66.5"><title>2019-04-14 14 hours</title></rect><rect fill="#77ff26" height="2.6" width="2.6" x="62.5" y="45.5"><title>2019-04-15 18 hours</title></rect><rect fill="#bbff1f" height="2.6" width="2.6" x="62.5" y="49.0"><title>2019-04-16 20 hours</title></rect><rect fill="#57ff2a" height="2.6" width="2.6" x="62.5" y="52.5"><title>2019-04-17 17 hours</title></rect><rect fill="#38ff2e" height="2.6" width="2.6" x="62.5" y="56.0"><title>2019-04-18 16 hours</title></rect><rect fill="#38ff2e" height="2.6" width="2.6" x="62.5" y="59.5"><title>2019-04-19 16 hours</title></rect><rect fill="#36ff6e" height="2.6" width="2.6" x="62.5" y="63.0"><title>2019-04-20 14 hours</title></rect><rect fill="#38ff2e" height="2.6" width="2.6" x="62.5" y="66.5"><title>2019-04-21 16 hours</title></rect><rect fill="#38ff2e" height="2.6" width="2.6" x="66.0" y="45.5"><title>2019-04-22 16 hours</title></rect><rect fill="#57ff2a" height="2.6" width="2.6" x="66.0" y="49.0"><title>2019-04-23 17 hours</title></rect><rect fill="#77ff26" height="2.6" width="2.6" x="66.0" y="52.5"><title>2019-04-24 18 hours</title></rect><rect fill="#38ff2e" height="2.6" width="2.6" x="66.0" y="56.0"><title>2019-04-25 16 hours</title></rect><rect fill="#57ff2a" height="2.6" width="2.6" x="66.0" y="59.5"><title>2019-04-26 17 hours</title></rect><rect fill="#36ff6e" height="2.6" width="2.6" x="66.0" y="63.0"><title>2019-04-27 14 hours</title></rect><rect fill="#38ff2e" height="2.6" width="2.6" x="66.0" y="66.5"><title>2019-04-28 16 hours</title></rect><rect fill="#38ff2e" height="2.6" width="2.6" x="69.5" y="45.5"><title>2019-04-29 16 hours</title></rect><rect fill="#99ff23" height="2.6" width="2.6" x="69.5" y="49.0"><title>2019-04-30 19 hours</title></rect><rect fill="#32ff49" height="2.6" width="2.6" x="69.5" y="52.5"><title>2019-05-01 15 hours</title></rect><rect fill="#38ff2e" height="2.6" width="2.6" x="69.5" y="56.0"><title>2019-05-02 16 hours</title></rect><rect fill="#57ff2a" height="2.6" width="2.6" x="69.5" y="59.5"><title>2019-05-03 17 hours</title></rect><rect fill="#ff4000" height="2.6" width="2.6" x="69.5" y="63.0"><title>2019-05-04 23 hours</title></rect><rect fill="#36ff6e" height="2.6" width="2.6" x="69.5" y="66.5"><title>2019-05-05 14 hours</title></rect><rect fill="#ff5900" height="2.6" width="2.6" x="73.0" y="45.5"><title>2019-05-06 21 hours</title></rect><rect fill="#77ff26" height="2.6" width="2.6" x="73.0" y="49.0"><title>2019-05-07 18 hours</title></rect><rect fill="#77ff26" height="2.6" width="2.6" x="73.0" y="52.5"><title>2019-05-08 18 hours</title></rect><rect fill="#99ff23" height="2.6" width="2.6" x="73.0" y="56.0"><title>2019-05-09 19 hours</title></rect><rect fill="#32ff49" height="2.6" width="2.6" x="73.0" y="59.5"><title>2019-05-10 15 hours</title></rect><rect fill="#38ff2e" height="2.6" width="2.6" x="73.0" y="63.0"><title>2019-05-11 16 hours</title></rect><rect fill="#57ff2a" height="2.6" width="2.6" x="73.0" y="66.5"><title>2019-05-12 17 hours</title></rect><rect fill="#38ff2e" height="2.6" width="2.6" x="76.5" y="45.5"><title>2019-05-13 16 hours</title></rect><rect fill="#38ff2e" height="2.6" width="2.6" x="76.5" y="49.0"><title>2019-05-14 16 hours</title></rect><rect fill="#38ff2e" height="2.6" width="2.6" x="76.5" y="52.5"><title>2019-05-15 16 hours</title></rect><rect fill="#77ff26" height="2.6" width="2.6" x="76.5" y="56.0"><title>2019-05-16 18 hours</title></rect><rect fill="#77ff26" height="2.6" width="2.6" x="76.5" y="59.5"><title>2019-05-17 18 hours</title></rect><rect fill="#38ff2e" height="2.6" width="2.6" x="76.5" y="63.0"><title>2019-05-18 16 hours</title></rect><rect fill="#38ff2e" height="2.6" width="2.6" x="76.5" y="66.5"><title>2019-05-19 16 hours</title></rect><rect fill="#57ff2a" height="2.6" width="2.6" x="80.0" y="45.5"><title>2019-05-20 17 hours</title></rect><rect fill="#57ff2a" height="2.6" width="2.6" x="80.0" y="49.0"><title>2019-05-21 17 hours</title></rect><rect fill="#99ff23" height="2.6" width="2.6" x="80.0" y="52.5"><title>2019-05-22 19 hours</title></rect><rect fill="#57ff2a" height="2.6" width="2.6" x="80.0" y="56.0"><title>2019-05-23 17 hours</title></rect><rect fill="#38ff2e" height="2.6" width="2.6" x="80.0" y="59.5"><title>2019-05-24 16 hours</title></rect><rect fill="#32ff49" height="2.6" width="2.6" x="80.0" y="63.0"><title>2019-05-25 15 hours</title></rect><rect fill="#36ff6e" height="2.6" width="2.6" x="80.0" y="66.5"><title>2019-05-26 14 hours</title></rect><rect fill="#32ff49" height="2.6" width="2.6" x="83.5" y="45.5"><title>2019-05-27 15 hours</title></rect><rect fill="#32ff49" height="2.6" width="2.6" x="83.5" y="49.0"><title>2019-05-28 15 hours</title></rect><rect fill="#57ff2a" height="2.6" width="2.6" x="83.5" y="52.5"><title>2019-05-29 17 hours</title></rect><rect fill="#57ff2a" height="2.6" width="2.6" x="83.5" y="56.0"><title>2019-05-30 17 hours</title></rect><rect fill="#38ff2e" height="2.6" width="2.6" x="83.5" y="59.5"><title>2019-05-31 16 hours</title></rect><rect fill="#32ff49" height="2.6" width="2.6" x="83.5" y="63.0"><title>2019-06-01 15 hours</title></rect><rect fill="#3aff90" height="2.6" width="2.6" x="83.5" y="66.5"><title>2019-06-02 13 hours</title></rect><rect fill="#38ff2e" height="2.6" width="2.6" x="87.0" y="45.5"><title>2019-06-03 16 hours</title></rect><rect fill="#57ff2a" height="2.6" width="2.6" x="87.0" y="49.0"><title>2019-06-04 17 hours</title></rect><rect fill="#38ff2e" height="2.6" width="2.6" x="87.0" y="52.5"><title>2019-06-05 16 hours</title></rect><rect fill="#32ff49" height="2.6" width="2.6" x="87.0" y="56.0"><title>2019-06-06 15 hours</title></rect><rect fill="#38ff2e" height="2.6" width="2.6" x="87.0" y="59.5"><title>2019-06-07 16 hours</title></rect><rect fill="#38ff2e" height="2.6" width="2.6" x="87.0" y="63.0"><title>2019-06-08 16 hours</title></rect><rect fill="#3aff90" height="2.6" width="2.6" x="87.0" y="66.5"><title>2019-06-09 13 hours</title></rect><rect fill="#38ff2e" height="2.6" width="2.6" x="90.5" y="45.5"><title>2019-06-10 16 hours</title></rect><rect fill="#38ff2e" height="2.6" width="2.6" x="90.5" y="49.0"><title>2019-06-11 16 hours</title></rect><rect fill="#57ff2a" height="2.6" width="2.6" x="90.5" y="52.5"><title>2019-06-12 17 hours</title></rect><rect fill="#57ff2a" height="2.6" width="2.6" x="90.5" y="56.0"><title>2019-06-13 17 hours</title></rect><rect fill="#38ff2e" height="2.6" width="2.6" x="90.5" y="59.5"><title>2019-06-14 16 hours</title></rect><rect fill="#38ff2e" height="2.6" width="2.6" x="90.5" y="63.0"><title>2019-06-15 16 hours</title></rect><rect fill="#36ff6e" height="2.6" width="2.6" x="90.5" y="66.5"><title>2019-06-16 14 hours</title></rect><rect fill="#32ff49" height="2.6" width="2.6" x="94.0" y="45.5"><title>2019-06-17 15 hours</title></rect><rect fill="#57ff2a" height="2.6" width="2.6" x="94.0" y="49.0"><title>2019-06-18 17 hours</title></rect><rect fill="#38ff2e" height="2.6" width="2.6" x="94.0" y="52.5"><title>2019-06-19 16 hours</title></rect><rect fill="#57ff2a" height="2.6" width="2.6" x="94.0" y="56.0"><title>2019-06-20 17 hours</title></rect><rect fill="#38ff2e" height="2.6" width="2.6" x="94.0" y="59.5"><title>2019-06-21 16 hours</title></rect><rect fill="#32ff49" height="2.6" width="2.6" x="94.0" y="63.0"><title>2019-06-22 15 hours</title></rect><rect fill="#38ff2e" height="2.6" width="2.6" x="94.0" y="66.5"><title>2019-06-23 16 hours</title></rect><rect fill="#38ff2e" height="2.6" width="2.6" x="97.5" y="45.5"><title>2019-06-24 16 hours</title></rect><rect fill="#57ff2a" height="2.6" width="2.6" x="97.5" y="49.0"><title>2019-06-25 17 hours</title></rect><rect fill="#38ff2e" height="2.6" width="2.6" x="97.5" y="52.5"><title>2019-06-26 16 hours</title></rect><rect fill="#57ff2a" height="2.6" width="2.6" x="97.5" y="56.0"><title>2019-06-27 17 hours</title></rect><rect fill="#38ff2e" height="2.6" width="2.6" x="97.5" y="59.5"><title>2019-06-28 16 hours</title></rect><rect fill="#57ff2a" height="2.6" width="2.6" x="97.5" y="63.0"><title>2019-06-29 17 hours</title></rect><rect fill="#32ff49" height="2.6" width="2.6" x="97.5" y="66.5"><title>2019-06-30 15 hours</title></rect><rect fill="#38ff2e" height="2.6" width="2.6" x="101.0" y="45.5"><title>2019-07-01 16 hours</title></rect><rect fill="#57ff2a" height="2.6" width="2.6" x="101.0" y="49.0"><title>2019-07-02 17 hours</title></rect><rect fill="#38ff2e" height="2.6" width="2.6" x="101.0" y="52.5"><title>2019-07-03 16 hours</title></rect><rect fill="#36ff6e" height="2.6" width="2.6" x="101.0" y="56.0"><title>2019-07-04 14 hours</title></rect><rect fill="#77ff26" height="2.6" width="2.6" x="101.0" y="59.5"><title>2019-07-05 18 hours</title></rect><rect fill="#77ff26" height="2.6" width="2.6" x="101.0" y="63.0"><title>2019-07-06 18 hours</title></rect><rect fill="#36ff6e" height="2.6" width="2.6" x="101.0" y="66.5"><title>2019-07-07 14 hours</title></rect><rect fill="#38ff2e" height="2.6" width="2.6" x="104.5" y="45.5"><title>2019-07-08 16 hours</title></rect><rect fill="#77ff26" height="2.6" width="2.6" x="104.5" y="49.0"><title>2019-07-09 18 hours</title></rect><rect fill="#57ff2a" height="2.6" width="2.6" x="104.5" y="52.5"><title>2019-07-10 17 hours</title></rect><rect fill="#38ff2e" height="2.6" width="2.6" x="104.5" y="56.0"><title>2019-07-11 16 hours</title></rect><rect fill="#57ff2a" height="2.6" width="2.6" x="104.5" y="59.5"><title>2019-07-12 17 hours</title></rect><rect fill="#38ff2e" height="2.6" width="2.6" x="104.5" y="63.0"><title>2019-07-13 16 hours</title></rect><rect fill="#36ff6e" height="2.6" width="2.6" x="104.5" y="66.5"><title>2019-07-14 14 hours</title></rect><rect fill="#57ff2a" height="2.6" width="2.6" x="108.0" y="45.5"><title>2019-07-15 17 hours</title></rect><rect fill="#77ff26" height="2.6" width="2.6" x="108.0" y="49.0"><title>2019-07-16 18 hours</title></rect><rect fill="#32ff49" height="2.6" width="2.6" x="108.0" y="52.5"><title>2019-07-17 15 hours</title></rect><rect fill="#77ff26" height="2.6" width="2.6" x="108.0" y="56.0"><title>2019-07-18 18 hours</title></rect><rect fill="#32ff49" height="2.6" width="2.6" x="108.0" y="59.5"><title>2019-07-19 15 hours</title></rect><rect fill="#38ff2e" height="2.6" width="2.6" x="108.0" y="63.0"><title>2019-07-20 16 hours</title></rect><rect fill="#3aff90" height="2.6" width="2.6" x="108.0" y="66.5"><title>2019-07-21 13 hours</title></rect><rect fill="#57ff2a" height="2.6" width="2.6" x="111.5" y="45.5"><title>2019-07-22 17 hours</title></rect><rect fill="#38ff2e" height="2.6" width="2.6" x="111.5" y="49.0"><title>2019-07-23 16 hours</title></rect><rect fill="#38ff2e" height="2.6" width="2.6" x="111.5" y="52.5"><title>2019-07-24 16 hours</title></rect><rect fill="#57ff2a" height="2.6" width="2.6" x="111.5" y="56.0"><title>2019-07-25 17 hours</title></rect><rect fill="#77ff26" height="2.6" width="2.6" x="111.5" y="59.5"><title>2019-07-26 18 hours</title></rect><rect fill="#38ff2e" height="2.6" width="2.6" x="111.5" y="63.0"><title>2019-07-27 16 hours</title></rect><rect fill="#32ff49" height="2.6" width="2.6" x="111.5" y="66.5"><title>2019-07-28 15 hours</title></rect><rect fill="#38ff2e" height="2.6" width="2.6" x="115.0" y="45.5"><title>2019-07-29 16 hours</title></rect><rect fill="#77ff26" height="2.6" width="2.6" x="115.0" y="49.0"><title>2019-07-30 18 hours</title></rect><rect fill="#57ff2a" height="2.6" width="2.6" x="115.0" y="52.5"><title>2019-07-31 17 hours</title></rect><rect fill="#77ff26" height="2.6" width="2.6" x="115.0" y="56.0"><title>2019-08-01 18 hours</title></rect><rect fill="#38ff2e" height="2.6" width="2.6" x="115.0" y="59.5"><title>2019-08-02 16 hours</title></rect><rect fill="#32ff49" height="2.6" width="2.6" x="115.0" y="63.0"><title>2019-08-03 15 hours</title></rect><rect fill="#32ff49" height="2.6" width="2.6" x="115.0" y="66.5"><title>2019-08-04 15 hours</title></rect><rect fill="#32ff49" height="2.6" width="2.6" x="118.5" y="45.5"><title>2019-08-05 15 hours</title></rect><rect fill="#77ff26" height="2.6" width="2.6" x="118.5" y="49.0"><title>2019-08-06 18 hours</title></rect><rect fill="#57ff2a" height="2.6" width="2.6" x="118.5" y="52.5"><title>2019-08-07 17 hours</title></rect><rect fill="#57ff2a" height="2.6" width="2.6" x="118.5" y="56.0"><title>2019-08-08 17 hours</title></rect><rect fill="#57ff2a" height="2.6" width="2.6" x="118.5" y="59.5"><title>2019-08-09 17 hours</title></rect><rect fill="#32ff49" height="2.6" width="2.6" x="118.5" y="63.0"><title>2019-08-10 15 hours</title></rect><rect fill="#57ff2a" height="2.6" width="2.6" x="118.5" y="66.5"><title>2019-08-11 17 hours</title></rect><rect fill="#38ff2e" height="2.6" width="2.6" x="122.0" y="45.5"><title>2019-08-12 16 hours</title></rect><rect fill="#38ff2e" height="2.6" width="2.6" x="122.0" y="49.0"><title>2019-08-13 16 hours</title></rect><rect fill="#77ff26" height="2.6" width="2.6" x="122.0" y="52.5"><title>2019-08-14 18 hours</title></rect><rect fill="#57ff2a" height="2.6" width="2.6" x="122.0" y="56.0"><title>2019-08-15 17 hours</title></rect><rect fill="#57ff2a" height="2.6" width="2.6" x="122.0" y="59.5"><title>2019-08-16 17 hours</title></rect><rect fill="#38ff2e" height="2.6" width="2.6" x="122.0" y="63.0"><title>2019-08-17 16 hours</title></rect><rect fill="#3effb2" height="2.6" width="2.6" x="122.0" y="66.5"><title>2019-08-18 12 hours</title></rect><rect fill="#57ff2a" height="2.6" width="2.6" x="125.5" y="45.5"><title>2019-08-19 17 hours</title></rect><rect fill="#99ff23" height="2.6" width="2.6" x="125.5" y="49.0"><title>2019-08-20 19 hours</title></rect><rect fill="#57ff2a" height="2.6" width="2.6" x="125.5" y="52.5"><title>2019-08-21 17 hours</title></rect><rect fill="#57ff2a" height="2.6" width="2.6" x="125.5" y="56.0"><title>2019-08-22 17 hours</title></rect><rect fill="#99ff23" height="2.6" width="2.6" x="125.5" y="59.5"><title>2019-08-23 19 hours</title></rect><rect fill="#ff5900" height="2.6" width="2.6" x="125.5" y="63.0"><title>2019-08-24 21 hours</title></rect><rect fill="#99ff23" height="2.6" width="2.6" x="125.5" y="66.5"><title>2019-08-25 19 hours</title></rect><rect fill="#77ff26" height="2.6" width="2.6" x="129.0" y="45.5"><title>2019-08-26 18 hours</title></rect><rect fill="#77ff26" height="2.6" width="2.6" x="129.0" y="49.0"><title>2019-08-27 18 hours</title></rect><rect fill="#57ff2a" height="2.6" width="2.6" x="129.0" y="52.5"><title>2019-08-28 17 hours</title></rect><rect fill="#32ff49" height="2.6" width="2.6" x="129.0" y="56.0"><title>2019-08-29 15 hours</title></rect><rect fill="#77ff26" height="2.6" width="2.6" x="129.0" y="59.5"><title>2019-08-30 18 hours</title></rect><rect fill="#77ff26" height="2.6" width="2.6" x="129.0" y="63.0"><title>2019-08-31 18 hours</title></rect><rect fill="#ff4000" height="2.6" width="2.6" x="129.0" y="66.5"><title>2019-09-01 23 hours</title></rect><rect fill="#36ff6e" height="2.6" width="2.6" x="132.5" y="45.5"><title>2019-09-02 14 hours</title></rect><rect fill="#bbff1f" height="2.6" width="2.6" x="132.5" y="49.0"><title>2019-09-03 20 hours</title></rect><rect fill="red" height="2.6" width="2.6" x="132.5" y="52.5"><title>2019-09-04 28 hours</title></rect><rect fill="#77ff26" height="2.6" width="2.6" x="132.5" y="56.0"><title>2019-09-05 18 hours</title></rect><rect fill="#77ff26" height="2.6" width="2.6" x="132.5" y="59.5"><title>2019-09-06 18 hours</title></rect><rect fill="#99ff23" height="2.6" width="2.6" x="132.5" y="63.0"><title>2019-09-07 19 hours</title></rect><rect fill="#32ff49" height="2.6" width="2.6" x="132.5" y="66.5"><title>2019-09-08 15 hours</title></rect><rect fill="#38ff2e" height="2.6" width="2.6" x="136.0" y="45.5"><title>2019-09-09 16 hours</title></rect><rect fill="#77ff26" height="2.6" width="2.6" x="136.0" y="49.0"><title>2019-09-10 18 hours</title></rect><rect fill="#38ff2e" height="2.6" width="2.6" x="136.0" y="52.5"><title>2019-09-11 16 hours</title></rect><rect fill="#57ff2a" height="2.6" width="2.6" x="136.0" y="56.0"><title>2019-09-12 17 hours</title></rect><rect fill="#77ff26" height="2.6" width="2.6" x="136.0" y="59.5"><title>2019-09-13 18 hours</title></rect><rect fill="#77ff26" height="2.6" width="2.6" x="136.0" y="63.0"><title>2019-09-14 18 hours</title></rect><rect fill="#77ff26" height="2.6" width="2.6" x="136.0" y="66.5"><title>2019-09-15 18 hours</title></rect><rect fill="#57ff2a" height="2.6" width="2.6" x="139.5" y="45.5"><title>2019-09-16 17 hours</title></rect><rect fill="#ff5900" height="2.6" width="2.6" x="139.5" y="49.0"><title>2019-09-17 21 hours</title></rect><rect fill="#57ff2a" height="2.6" width="2.6" x="139.5" y="52.5"><title>2019-09-18 17 hours</title></rect><rect fill="#77ff26" height="2.6" width="2.6" x="139.5" y="56.0"><title>2019-09-19 18 hours</title></rect><rect fill="#38ff2e" height="2.6" width="2.6" x="139.5" y="59.5"><title>2019-09-20 16 hours</title></rect><rect fill="#57ff2a" height="2.6" width="2.6" x="139.5" y="63.0"><title>2019-09-21 17 hours</title></rect><rect fill="#36ff6e" height="2.6" width="2.6" x="139.5" y="66.5"><title>2019-09-22 14 hours</title></rect><rect fill="#ff3300" height="2.6" width="2.6" x="143.0" y="45.5"><title>2019-09-23 24 hours</title></rect><rect fill="#ff4c00" height="2.6" width="2.6" x="143.0" y="49.0"><title>2019-09-24 22 hours</title></rect><rect fill="#ff3300" height="2.6" width="2.6" x="143.0" y="52.5"><title>2019-09-25 24 hours</title></rect><rect fill="#ff4000" height="2.6" width="2.6" x="143.0" y="56.0"><title>2019-09-26 23 hours</title></rect><rect fill="#ff4000" height="2.6" width="2.6" x="143.0" y="59.5"><title>2019-09-27 23 hours</title></rect><rect fill="#38ff2e" height="2.6" width="2.6" x="143.0" y="63.0"><title>2019-09-28 16 hours</title></rect><rect fill="#32ff49" height="2.6" width="2.6" x="143.0" y="66.5"><title>2019-09-29 15 hours</title></rect><rect fill="#ff4000" height="2.6" width="2.6" x="146.5" y="45.5"><title>2019-09-30 23 hours</title></rect><rect fill="#ff4000" height="2.6" width="2.6" x="146.5" y="49.0"><title>2019-10-01 23 hours</title></rect><rect fill="#ff4000" height="2.6" width="2.6" x="146.5" y="52.5"><title>2019-10-02 23 hours</title></rect><rect fill="#ff3300" height="2.6" width="2.6" x="146.5" y="56.0"><title>2019-10-03 24 hours</title></rect><rect fill="#ff4000" height="2.6" width="2.6" x="146.5" y="59.5"><title>2019-10-04 23 hours</title></rect><rect fill="#ff4c00" height="2.6" width="2.6" x="146.5" y="63.0"><title>2019-10-05 22 hours</title></rect><rect fill="#ff4000" height="2.6" width="2.6" x="146.5" y="66.5"><title>2019-10-06 23 hours</title></rect><rect fill="red" height="2.6" width="2.6" x="150.0" y="45.5"><title>2019-10-07 25 hours</title></rect><rect fill="#ff4000" height="2.6" width="2.6" x="150.0" y="49.0"><title>2019-10-08 23 hours</title></rect><rect fill="#ff4c00" height="2.6" width="2.6" x="150.0" y="52.5"><title>2019-10-09 22 hours</title></rect><rect fill="#ff4000" height="2.6" width="2.6" x="150.0" y="56.0"><title>2019-10-10 23 hours</title></rect><rect fill="#38ff2e" height="2.6" width="2.6" x="150.0" y="59.5"><title>2019-10-11 16 hours</title></rect><rect fill="#ff3300" height="2.6" width="2.6" x="150.0" y="63.0"><title>2019-10-12 24 hours</title></rect><rect fill="#ff4000" height="2.6" width="2.6" x="150.0" y="66.5"><title>2019-10-13 23 hours</title></rect><rect fill="#ff4c00" height="2.6" width="2.6" x="153.5" y="45.5"><title>2019-10-14 22 hours</title></rect><rect fill="#ff3300" height="2.6" width="2.6" x="153.5" y="49.0"><title>2019-10-15 24 hours</title></rect><rect fill="#77ff26" height="2.6" width="2.6" x="153.5" y="52.5"><title>2019-10-16 18 hours</title></rect><rect fill="#ff4000" height="2.6" width="2.6" x="153.5" y="56.0"><title>2019-10-17 23 hours</title></rect><rect fill="#57ff2a" height="2.6" width="2.6" x="153.5" y="59.5"><title>2019-10-18 17 hours</title></rect><rect fill="#ff3300" height="2.6" width="2.6" x="153.5" y="63.0"><title>2019-10-19 24 hours</title></rect><rect fill="#ff4000" height="2.6" width="2.6" x="153.5" y="66.5"><title>2019-10-20 23 hours</title></rect><rect fill="#ff4000" height="2.6" width="2.6" x="157.0" y="45.5"><title>2019-10-21 23 hours</title></rect><rect fill="red" height="2.6" width="2.6" x="157.0" y="49.0"><title>2019-10-22 27 hours</title></rect><rect fill="#ff4c00" height="2.6" width="2.6" x="157.0" y="52.5"><title>2019-10-23 22 hours</title></rect><rect fill="#57ff2a" height="2.6" width="2.6" x="157.0" y="56.0"><title>2019-10-24 17 hours</title></rect><rect fill="#77ff26" height="2.6" width="2.6" x="157.0" y="59.5"><title>2019-10-25 18 hours</title></rect><rect fill="#ff4000" height="2.6" width="2.6" x="157.0" y="63.0"><title>2019-10-26 23 hours</title></rect><rect fill="#ff4c00" height="2.6" width="2.6" x="157.0" y="66.5"><title>2019-10-27 22 hours</title></rect><rect fill="#ff3300" height="2.6" width="2.6" x="160.5" y="45.5"><title>2019-10-28 24 hours</title></rect><rect fill="#ff4000" height="2.6" width="2.6" x="160.5" y="49.0"><title>2019-10-29 23 hours</title></rect><rect fill="#77ff26" height="2.6" width="2.6" x="160.5" y="52.5"><title>2019-10-30 18 hours</title></rect><rect fill="#57ff2a" height="2.6" width="2.6" x="160.5" y="56.0"><title>2019-10-31 17 hours</title></rect><rect fill="#ff5900" height="2.6" width="2.6" x="160.5" y="59.5"><title>2019-11-01 21 hours</title></rect><rect fill="#ff3300" height="2.6" width="2.6" x="160.5" y="63.0"><title>2019-11-02 24 hours</title></rect><rect fill="red" height="2.6" width="2.6" x="160.5" y="66.5"><title>2019-11-03 25 hours</title></rect><rect fill="#ff5900" height="2.6" width="2.6" x="164.0" y="45.5"><title>2019-11-04 21 hours</title></rect><rect fill="#ff3300" height="2.6" width="2.6" x="164.0" y="49.0"><title>2019-11-05 24 hours</title></rect><rect fill="#ff3300" height="2.6" width="2.6" x="164.0" y="52.5"><title>2019-11-06 24 hours</title></rect><rect fill="#32ff49" height="2.6" width="2.6" x="164.0" y="56.0"><title>2019-11-07 15 hours</title></rect><rect fill="#57ff2a" height="2.6" width="2.6" x="164.0" y="59.5"><title>2019-11-08 17 hours</title></rect><rect fill="#36ff6e" height="2.6" width="2.6" x="164.0" y="63.0"><title>2019-11-09 14 hours</title></rect><rect fill="#ff4c00" height="2.6" width="2.6" x="164.0" y="66.5"><title>2019-11-10 22 hours</title></rect><rect fill="#ff5900" height="2.6" width="2.6" x="167.5" y="45.5"><title>2019-11-11 21 hours</title></rect><rect fill="red" height="2.6" width="2.6" x="167.5" y="49.0"><title>2019-11-12 25 hours</title></rect><rect fill="#38ff2e" height="2.6" width="2.6" x="167.5" y="52.5"><title>2019-11-13 16 hours</title></rect><rect fill="#77ff26" height="2.6" width="2.6" x="167.5" y="56.0"><title>2019-11-14 18 hours</title></rect><rect fill="#ff3300" height="2.6" width="2.6" x="167.5" y="59.5"><title>2019-11-15 24 hours</title></rect><rect fill="#36ff6e" height="2.6" width="2.6" x="167.5" y="63.0"><title>2019-11-16 14 hours</title></rect><rect fill="#ff4000" height="2.6" width="2.6" x="167.5" y="66.5"><title>2019-11-17 23 hours</title></rect><rect fill="#ff4c00" height="2.6" width="2.6" x="171.0" y="45.5"><title>2019-11-18 22 hours</title></rect><rect fill="#ff3300" height="2.6" width="2.6" x="171.0" y="49.0"><title>2019-11-19 24 hours</title></rect><rect fill="#ff3300" height="2.6" width="2.6" x="171.0" y="52.5"><title>2019-11-20 24 hours</title></rect><rect fill="#ff3300" height="2.6" width="2.6" x="171.0" y="56.0"><title>2019-11-21 24 hours</title></rect><rect fill="#ff4c00" height="2.6" width="2.6" x="171.0" y="59.5"><title>2019-11-22 22 hours</title></rect><rect fill="#ff4000" height="2.6" width="2.6" x="171.0" y="63.0"><title>2019-11-23 23 hours</title></rect><rect fill="#ff4000" height="2.6" width="2.6" x="171.0" y="66.5"><title>2019-11-24 23 hours</title></rect><rect fill="#ff5900" height="2.6" width="2.6" x="174.5" y="45.5"><title>2019-11-25 21 hours</title></rect><rect fill="#ff4000" height="2.6" width="2.6" x="174.5" y="49.0"><title>2019-11-26 23 hours</title></rect><rect fill="#ff4c00" height="2.6" width="2.6" x="174.5" y="52.5"><title>2019-11-27 22 hours</title></rect><rect fill="#ff4000" height="2.6" width="2.6" x="174.5" y="56.0"><title>2019-11-28 23 hours</title></rect><rect fill="#ff5900" height="2.6" width="2.6" x="174.5" y="59.5"><title>2019-11-29 21 hours</title></rect><rect fill="#ff3300" height="2.6" width="2.6" x="174.5" y="63.0"><title>2019-11-30 24 hours</title></rect><rect fill="#ff3300" height="2.6" width="2.6" x="174.5" y="66.5"><title>2019-12-01 24 hours</title></rect><rect fill="red" height="2.6" width="2.6" x="178.0" y="45.5"><title>2019-12-02 25 hours</title></rect><rect fill="#ff4000" height="2.6" width="2.6" x="178.0" y="49.0"><title>2019-12-03 23 hours</title></rect><rect fill="#ff4c00" height="2.6" width="2.6" x="178.0" y="52.5"><title>2019-12-04 22 hours</title></rect><rect fill="#99ff23" height="2.6" width="2.6" x="178.0" y="56.0"><title>2019-12-05 19 hours</title></rect><rect fill="#32ff49" height="2.6" width="2.6" x="178.0" y="59.5"><title>2019-12-06 15 hours</title></rect><rect fill="#32ff49" height="2.6" width="2.6" x="178.0" y="63.0"><title>2019-12-07 15 hours</title></rect><rect fill="#ff3300" height="2.6" width="2.6" x="178.0" y="66.5"><title>2019-12-08 24 hours</title></rect><rect fill="#ff4000" height="2.6" width="2.6" x="181.5" y="45.5"><title>2019-12-09 23 hours</title></rect><rect fill="red" height="2.6" width="2.6" x="181.5" y="49.0"><title>2019-12-10 25 hours</title></rect><rect fill="#ff4000" height="2.6" width="2.6" x="181.5" y="52.5"><title>2019-12-11 23 hours</title></rect><rect fill="#32ff49" height="2.6" width="2.6" x="181.5" y="56.0"><title>2019-12-12 15 hours</title></rect><rect fill="#ff3300" height="2.6" width="2.6" x="181.5" y="59.5"><title>2019-12-13 24 hours</title></rect><rect fill="#57ff2a" height="2.6" width="2.6" x="181.5" y="63.0"><title>2019-12-14 17 hours</title></rect><rect fill="#ff4c00" height="2.6" width="2.6" x="181.5" y="66.5"><title>2019-12-15 22 hours</title></rect><rect fill="#ff4000" height="2.6" width="2.6" x="185.0" y="45.5"><title>2019-12-16 23 hours</title></rect><rect fill="#ff3300" height="2.6" width="2.6" x="185.0" y="49.0"><title>2019-12-17 24 hours</title></rect><rect fill="#ff3300" height="2.6" width="2.6" x="185.0" y="52.5"><title>2019-12-18 24 hours</title></rect><rect fill="#ff3300" height="2.6" width="2.6" x="185.0" y="56.0"><title>2019-12-19 24 hours</title></rect><rect fill="#ff3300" height="2.6" width="2.6" x="185.0" y="59.5"><title>2019-12-20 24 hours</title></rect><rect fill="#ff3300" height="2.6" width="2.6" x="185.0" y="63.0"><title>2019-12-21 24 hours</title></rect><rect fill="#ff4c00" height="2.6" width="2.6" x="185.0" y="66.5"><title>2019-12-22 22 hours</title></rect><rect fill="#ff3300" height="2.6" width="2.6" x="188.5" y="45.5"><title>2019-12-23 24 hours</title></rect><rect fill="#bbff1f" height="2.6" width="2.6" x="188.5" y="49.0"><title>2019-12-24 20 hours</title></rect><rect fill="#ff3300" height="2.6" width="2.6" x="188.5" y="52.5"><title>2019-12-25 24 hours</title></rect><rect fill="#ff3300" height="2.6" width="2.6" x="188.5" y="56.0"><title>2019-12-26 24 hours</title></rect><rect fill="#ff4c00" height="2.6" width="2.6" x="188.5" y="59.5"><title>2019-12-27 22 hours</title></rect><rect fill="#ff5900" height="2.6" width="2.6" x="188.5" y="63.0"><title>2019-12-28 21 hours</title></rect><rect fill="#ff3300" height="2.6" width="2.6" x="188.5" y="66.5"><title>2019-12-29 24 hours</title></rect><rect fill="#ff3300" height="2.6" width="2.6" x="192.0" y="45.5"><title>2019-12-30 24 hours</title></rect><rect fill="#32ff49" height="2.6" width="2.6" x="192.0" y="49.0"><title>2019-12-31 15 hours</title></rect></svg>