<?xml version="1.0" encoding="utf-8" ?>
<svg baseProfile="full" height="78mm" version="1.1" viewBox="0,0,200,78" width="200mm" xmlns="http://www.w3.org/2000/svg" xmlns:ev="http://www.w3.org/2001/xml-events" xmlns:xlink="http://www.w3.org/1999/xlink"><defs /><rect fill="#222222" height="78" width="200" x="0" y="0" /><text fill="#FFFFFF" style="font-size:12px; font-family:Arial; font-weight:bold;" x="10" y="20">rip-tyang apple_health</text><text dominant-baseline="hanging" fill="#FFFFFF" style="font-size:10.0px; font-family:Arial;" x="10" y="30">2017</text><text dominant-baseline="hanging" fill="#FFFFFF" style="font-size:4.125px; font-family:Arial;" x="175" y="35">213695 kCal</text><text fill="#FFFFFF" style="font-size:2.5px; font-family:Arial" x="10.0" y="44">Jan</text><text fill="#FFFFFF" style="font-size:2.5px; font-family:Arial" x="25.5" y="44">Feb</text><text fill="#FFFFFF" style="font-size:2.5px; font-family:Arial" x="41.0" y="44">Mar</text><text fill="#FFFFFF" style="font-size:2.5px; font-family:Arial" x="56.5" y="44">Apr</text><text fill="#FFFFFF" style="font-size:2.5px; font-family:Arial" x="72.0" y="44">May</text><text fill="#FFFFFF" style="font-size:2.5px; font-family:Arial" x="87.5" y="44">Jun</text><text fill="#FFFFFF" style="font-size:2.5px; font-family:Arial" x="103.0" y="44">Jul</text><text fill="#FFFFFF" style="font-size:2.5px; font-family:Arial" x="118.5" y="44">Aug</text><text fill="#FFFFFF" style="font-size:2.5px; font-family:Arial" x="134.0" y="44">Sep</text><text fill="#FFFFFF" style="font-size:2.5px; font-family:Arial" x="149.5" y="44">Oct</text><text fill="#FFFFFF" style="font-size:2.5px; font-family:Arial" x="165.0" y="44">Nov</text><text fill="#FFFFFF" style="font-size:2.5px; font-family:Arial" x="180.5" y="44">Dec</text><rect fill="#444444" height="2.6" width="2.6" x="10.0" y="45.5"><title>2016-12-26</title></rect><rect fill="#444444" height="2.6" width="2.6" x="10.0" y="49.0"><title>2016-12-27</title></rect><rect fill="#444444" height="2.6" width="2.6" x="10.0" y="52.5"><title>2016-12-28</title></rect><rect fill="#444444" height="2.6" width="2.6" x="10.0" y="56.0"><title>2016-12-29</title></rect><rect fill="#444444" height="2.6" width="2.6" x="10.0" y="59.5"><title>2016-12-30</title></rect><rect fill="#444444" height="2.6" width="2.6" x="10.0" y="63.0"><title>2016-12-31</title></rect><rect fill="#3bff98" height="2.6" width="2.6" x="10.0" y="66.5"><title>2017-01-01 581 kCal</title></rect><rect fill="#ffba00" height="2.6" width="2.6" x="13.5" y="45.5"><title>2017-01-02 663 kCal</title></rect><rect fill="red" height="2.6" width="2.6" x="13.5" y="49.0"><title>2017-01-03 934 kCal</title></rect><rect fill="red" height="2.6" width="2.6" x="13.5" y="52.5"><title>2017-01-04 875 kCal</title></rect><rect fill="red" height="2.6" width="2.6" x="13.5" y="56.0"><title>2017-01-05 979 kCal</title></rect><rect fill="red" height="2.6" width="2.6" x="13.5" y="59.5"><title>2017-01-06 1086 kCal</title></rect><rect fill="#ffb100" height="2.6" width="2.6" x="13.5" y="63.0"><title>2017-01-07 746 kCal</title></rect><rect fill="#ffb800" height="2.6" width="2.6" x="13.5" y="66.5"><title>2017-01-08 680 kCal</title></rect><rect fill="#3dffad" height="2.6" width="2.6" x="17.0" y="45.5"><title>2017-01-09 506 kCal</title></rect><rect fill="#ffbf00" height="2.6" width="2.6" x="17.0" y="49.0"><title>2017-01-10 608 kCal</title></rect><rect fill="#ffaa00" height="2.6" width="2.6" x="17.0" y="52.5"><title>2017-01-11 806 kCal</title></rect><rect fill="#ffba00" height="2.6" width="2.6" x="17.0" y="56.0"><title>2017-01-12 654 kCal</title></rect><rect fill="#ffbd00" height="2.6" width="2.6" x="17.0" y="59.5"><title>2017-01-13 629 kCal</title></rect><rect fill="#ffae00" height="2.6" width="2.6" x="17.0" y="63.0"><title>2017-01-14 773 kCal</title></rect><rect fill="#3bff9f" height="2.6" width="2.6" x="17.0" y="66.5"><title>2017-01-15 555 kCal</title></rect><rect fill="#ffb000" height="2.6" width="2.6" x="20.5" y="45.5"><title>2017-01-16 752 kCal</title></rect><rect fill="#3cffa2" height="2.6" width="2.6" x="20.5" y="49.0"><title>2017-01-17 546 kCal</title></rect><rect fill="#47fffd" height="2.6" width="2.6" x="20.5" y="52.5"><title>2017-01-18 201 kCal</title></rect><rect fill="#43ffe0" height="2.6" width="2.6" x="20.5" y="56.0"><title>2017-01-19 315 kCal</title></rect><rect fill="#ffbd00" height="2.6" width="2.6" x="20.5" y="59.5"><title>2017-01-20 631 kCal</title></rect><rect fill="#41ffcb" height="2.6" width="2.6" x="20.5" y="63.0"><title>2017-01-21 395 kCal</title></rect><rect fill="red" height="2.6" width="2.6" x="20.5" y="66.5"><title>2017-01-22 1220 kCal</title></rect><rect fill="#3effb7" height="2.6" width="2.6" x="24.0" y="45.5"><title>2017-01-23 471 kCal</title></rect><rect fill="#3fffbb" height="2.6" width="2.6" x="24.0" y="49.0"><title>2017-01-24 456 kCal</title></rect><rect fill="#3dffab" height="2.6" width="2.6" x="24.0" y="52.5"><title>2017-01-25 512 kCal</title></rect><rect fill="#3effb3" height="2.6" width="2.6" x="24.0" y="56.0"><title>2017-01-26 485 kCal</title></rect><rect fill="#3cffa3" height="2.6" width="2.6" x="24.0" y="59.5"><title>2017-01-27 542 kCal</title></rect><rect fill="#3cffa7" height="2.6" width="2.6" x="24.0" y="63.0"><title>2017-01-28 529 kCal</title></rect><rect fill="#3bff9f" height="2.6" width="2.6" x="24.0" y="66.5"><title>2017-01-29 558 kCal</title></rect><rect fill="#ffc100" height="2.6" width="2.6" x="27.5" y="45.5"><title>2017-01-30 589 kCal</title></rect><rect fill="#3cffa0" height="2.6" width="2.6" x="27.5" y="49.0"><title>2017-01-31 553 kCal</title></rect><rect fill="#3bff9a" height="2.6" width="2.6" x="27.5" y="52.5"><title>2017-02-01 576 kCal</title></rect><rect fill="#3cffa8" height="2.6" width="2.6" x="27.5" y="56.0"><title>2017-02-02 524 kCal</title></rect><rect fill="#ffb000" height="2.6" width="2.6" x="27.5" y="59.5"><title>2017-02-03 750 kCal</title></rect><rect fill="#3bff9f" height="2.6" width="2.6" x="27.5" y="63.0"><title>2017-02-04 555 kCal</title></rect><rect fill="#ffc000" height="2.6" width="2.6" x="27.5" y="66.5"><title>2017-02-05 600 kCal</title></rect><rect fill="#3effb3" height="2.6" width="2.6" x="31.0" y="45.5"><title>2017-02-06 485 kCal</title></rect><rect fill="#ffbb00" height="2.6" width="2.6" x="31.0" y="49.0"><title>2017-02-07 648 kCal</title></rect><rect fill="#3effb4" height="2.6" width="2.6" x="31.0" y="52.5"><title>2017-02-08 481 kCal</title></rect><rect fill="red" height="2.6" width="2.6" x="31.0" y="56.0"><title>2017-02-09 1152 kCal</title></rect><rect fill="#ffb900" height="2.6" width="2.6" x="31.0" y="59.5"><title>2017-02-10 664 kCal</title></rect><rect fill="red" height="2.6" width="2.6" x="31.0" y="63.0"><title>2017-02-11 865 kCal</title></rect><rect fill="#3cffa7" height="2.6" width="2.6" x="31.0" y="66.5"><title>2017-02-12 527 kCal</title></rect><rect fill="#3dffac" height="2.6" width="2.6" x="34.5" y="45.5"><title>2017-02-13 510 kCal</title></rect><rect fill="#ffb400" height="2.6" width="2.6" x="34.5" y="49.0"><title>2017-02-14 713 kCal</title></rect><rect fill="red" height="2.6" width="2.6" x="34.5" y="52.5"><title>2017-02-15 1984 kCal</title></rect><rect fill="#ffc100" height="2.6" width="2.6" x="34.5" y="56.0"><title>2017-02-16 595 kCal</title></rect><rect fill="#3effb7" height="2.6" width="2.6" x="34.5" y="59.5"><title>2017-02-17 468 kCal</title></rect><rect fill="red" height="2.6" width="2.6" x="34.5" y="63.0"><title>2017-02-18 1550 kCal</title></rect><rect fill="red" height="2.6" width="2.6" x="34.5" y="66.5"><title>2017-02-19 1284 kCal</title></rect><rect fill="#ffb300" height="2.6" width="2.6" x="38.0" y="45.5"><title>2017-02-20 726 kCal</title></rect><rect fill="#ffc000" height="2.6" width="2.6" x="38.0" y="49.0"><title>2017-02-21 603 kCal</title></rect><rect fill="red" height="2.6" width="2.6" x="38.0" y="52.5"><title>2017-02-22 1163 kCal</title></rect><rect fill="#ffb900" height="2.6" width="2.6" x="38.0" y="56.0"><title>2017-02-23 668 kCal</title></rect><rect fill="#ffc100" height="2.6" width="2.6" x="38.0" y="59.5"><title>2017-02-24 589 kCal</title></rect><rect fill="#ffbe00" height="2.6" width="2.6" x="38.0" y="63.0"><title>2017-02-25 621 kCal</title></rect><rect fill="#ffbc00" height="2.6" width="2.6" x="38.0" y="66.5"><title>2017-02-26 644 kCal</title></rect><rect fill="red" height="2.6" width="2.6" x="41.5" y="45.5"><title>2017-02-27 1020 kCal</title></rect><rect fill="#3bff9e" height="2.6" width="2.6" x="41.5" y="49.0"><title>2017-02-28 560 kCal</title></rect><rect fill="#ffc100" height="2.6" width="2.6" x="41.5" y="52.5"><title>2017-03-01 590 kCal</title></rect><rect fill="#ffba00" height="2.6" width="2.6" x="41.5" y="56.0"><title>2017-03-02 660 kCal</title></rect><rect fill="#ffbe00" height="2.6" width="2.6" x="41.5" y="59.5"><title>2017-03-03 616 kCal</title></rect><rect fill="#3fffc1" height="2.6" width="2.6" x="41.5" y="63.0"><title>2017-03-04 431 kCal</title></rect><rect fill="#3bff99" height="2.6" width="2.6" x="41.5" y="66.5"><title>2017-03-05 579 kCal</title></rect><rect fill="#ffa900" height="2.6" width="2.6" x="45.0" y="45.5"><title>2017-03-06 823 kCal</title></rect><rect fill="#ffb900" height="2.6" width="2.6" x="45.0" y="49.0"><title>2017-03-07 668 kCal</title></rect><rect fill="#ffbb00" height="2.6" width="2.6" x="45.0" y="52.5"><title>2017-03-08 650 kCal</title></rect><rect fill="#ffbe00" height="2.6" width="2.6" x="45.0" y="56.0"><title>2017-03-09 621 kCal</title></rect><rect fill="red" height="2.6" width="2.6" x="45.0" y="59.5"><title>2017-03-10 839 kCal</title></rect><rect fill="#ffae00" height="2.6" width="2.6" x="45.0" y="63.0"><title>2017-03-11 772 kCal</title></rect><rect fill="red" height="2.6" width="2.6" x="45.0" y="66.5"><title>2017-03-12 852 kCal</title></rect><rect fill="#ffbd00" height="2.6" width="2.6" x="48.5" y="45.5"><title>2017-03-13 634 kCal</title></rect><rect fill="#43ffdb" height="2.6" width="2.6" x="48.5" y="49.0"><title>2017-03-14 332 kCal</title></rect><rect fill="#ffc100" height="2.6" width="2.6" x="48.5" y="52.5"><title>2017-03-15 590 kCal</title></rect><rect fill="red" height="2.6" width="2.6" x="48.5" y="56.0"><title>2017-03-16 946 kCal</title></rect><rect fill="#ffbe00" height="2.6" width="2.6" x="48.5" y="59.5"><title>2017-03-17 622 kCal</title></rect><rect fill="#41ffd1" height="2.6" width="2.6" x="48.5" y="63.0"><title>2017-03-18 373 kCal</title></rect><rect fill="#3dffae" height="2.6" width="2.6" x="48.5" y="66.5"><title>2017-03-19 501 kCal</title></rect><rect fill="#ffb400" height="2.6" width="2.6" x="52.0" y="45.5"><title>2017-03-20 713 kCal</title></rect><rect fill="#ffbc00" height="2.6" width="2.6" x="52.0" y="49.0"><title>2017-03-21 639 kCal</title></rect><rect fill="#ffb700" height="2.6" width="2.6" x="52.0" y="52.5"><title>2017-03-22 690 kCal</title></rect><rect fill="#3cffa0" height="2.6" width="2.6" x="52.0" y="56.0"><title>2017-03-23 553 kCal</title></rect><rect fill="#3fffbc" height="2.6" width="2.6" x="52.0" y="59.5"><title>2017-03-24 449 kCal</title></rect><rect fill="#3dffa9" height="2.6" width="2.6" x="52.0" y="63.0"><title>2017-03-25 520 kCal</title></rect><rect fill="#3effb3" height="2.6" width="2.6" x="52.0" y="66.5"><title>2017-03-26 485 kCal</title></rect><rect fill="#3bff99" height="2.6" width="2.6" x="55.5" y="45.5"><title>2017-03-27 579 kCal</title></rect><rect fill="#ffb800" height="2.6" width="2.6" x="55.5" y="49.0"><title>2017-03-28 675 kCal</title></rect><rect fill="#3effb2" height="2.6" width="2.6" x="55.5" y="52.5"><title>2017-03-29 488 kCal</title></rect><rect fill="#3dffae" height="2.6" width="2.6" x="55.5" y="56.0"><title>2017-03-30 501 kCal</title></rect><rect fill="red" height="2.6" width="2.6" x="55.5" y="59.5"><title>2017-03-31 1306 kCal</title></rect><rect fill="#ffb200" height="2.6" width="2.6" x="55.5" y="63.0"><title>2017-04-01 730 kCal</title></rect><rect fill="red" height="2.6" width="2.6" x="55.5" y="66.5"><title>2017-04-02 2425 kCal</title></rect><rect fill="red" height="2.6" width="2.6" x="59.0" y="45.5"><title>2017-04-03 2312 kCal</title></rect><rect fill="#3effb7" height="2.6" width="2.6" x="59.0" y="49.0"><title>2017-04-04 471 kCal</title></rect><rect fill="#ffb700" height="2.6" width="2.6" x="59.0" y="52.5"><title>2017-04-05 688 kCal</title></rect><rect fill="#44ffe8" height="2.6" width="2.6" x="59.0" y="56.0"><title>2017-04-06 283 kCal</title></rect><rect fill="#ffbb00" height="2.6" width="2.6" x="59.0" y="59.5"><title>2017-04-07 651 kCal</title></rect><rect fill="#ffb500" height="2.6" width="2.6" x="59.0" y="63.0"><title>2017-04-08 702 kCal</title></rect><rect fill="#ffad00" height="2.6" width="2.6" x="59.0" y="66.5"><title>2017-04-09 784 kCal</title></rect><rect fill="red" height="2.6" width="2.6" x="62.5" y="45.5"><title>2017-04-10 974 kCal</title></rect><rect fill="#ffbb00" height="2.6" width="2.6" x="62.5" y="49.0"><title>2017-04-11 648 kCal</title></rect><rect fill="red" height="2.6" width="2.6" x="62.5" y="52.5"><title>2017-04-12 1005 kCal</title></rect><rect fill="#ffbd00" height="2.6" width="2.6" x="62.5" y="56.0"><title>2017-04-13 631 kCal</title></rect><rect fill="#ffa800" height="2.6" width="2.6" x="62.5" y="59.5"><title>2017-04-14 834 kCal</title></rect><rect fill="red" height="2.6" width="2.6" x="62.5" y="63.0"><title>2017-04-15 1015 kCal</title></rect><rect fill="red" height="2.6" width="2.6" x="62.5" y="66.5"><title>2017-04-16 1203 kCal</title></rect><rect fill="#3dffaf" height="2.6" width="2.6" x="66.0" y="45.5"><title>2017-04-17 499 kCal</title></rect><rect fill="#ffba00" height="2.6" width="2.6" x="66.0" y="49.0"><title>2017-04-18 661 kCal</title></rect><rect fill="#ffb900" height="2.6" width="2.6" x="66.0" y="52.5"><title>2017-04-19 671 kCal</title></rect><rect fill="red" height="2.6" width="2.6" x="66.0" y="56.0"><title>2017-04-20 1170 kCal</title></rect><rect fill="#3fffbc" height="2.6" width="2.6" x="66.0" y="59.5"><title>2017-04-21 451 kCal</title></rect><rect fill="#ffbd00" height="2.6" width="2.6" x="66.0" y="63.0"><title>2017-04-22 634 kCal</title></rect><rect fill="#3fffbc" height="2.6" width="2.6" x="66.0" y="66.5"><title>2017-04-23 451 kCal</title></rect><rect fill="red" height="2.6" width="2.6" x="69.5" y="45.5"><title>2017-04-24 968 kCal</title></rect><rect fill="#44ffea" height="2.6" width="2.6" x="69.5" y="49.0"><title>2017-04-25 275 kCal</title></rect><rect fill="#ffc000" height="2.6" width="2.6" x="69.5" y="52.5"><title>2017-04-26 600 kCal</title></rect><rect fill="#3bff98" height="2.6" width="2.6" x="69.5" y="56.0"><title>2017-04-27 582 kCal</title></rect><rect fill="#3bff9a" height="2.6" width="2.6" x="69.5" y="59.5"><title>2017-04-28 575 kCal</title></rect><rect fill="#ffb000" height="2.6" width="2.6" x="69.5" y="63.0"><title>2017-04-29 758 kCal</title></rect><rect fill="red" height="2.6" width="2.6" x="69.5" y="66.5"><title>2017-04-30 981 kCal</title></rect><rect fill="#3dffb1" height="2.6" width="2.6" x="73.0" y="45.5"><title>2017-05-01 493 kCal</title></rect><rect fill="#ffbe00" height="2.6" width="2.6" x="73.0" y="49.0"><title>2017-05-02 623 kCal</title></rect><rect fill="#ffac00" height="2.6" width="2.6" x="73.0" y="52.5"><title>2017-05-03 790 kCal</title></rect><rect fill="#ffb700" height="2.6" width="2.6" x="73.0" y="56.0"><title>2017-05-04 685 kCal</title></rect><rect fill="#ffb000" height="2.6" width="2.6" x="73.0" y="59.5"><title>2017-05-05 758 kCal</title></rect><rect fill="red" height="2.6" width="2.6" x="73.0" y="63.0"><title>2017-05-06 943 kCal</title></rect><rect fill="#ffad00" height="2.6" width="2.6" x="73.0" y="66.5"><title>2017-05-07 782 kCal</title></rect><rect fill="#ffb700" height="2.6" width="2.6" x="76.5" y="45.5"><title>2017-05-08 685 kCal</title></rect><rect fill="red" height="2.6" width="2.6" x="76.5" y="49.0"><title>2017-05-09 1022 kCal</title></rect><rect fill="#3dffb1" height="2.6" width="2.6" x="76.5" y="52.5"><title>2017-05-10 492 kCal</title></rect><rect fill="#40ffc4" height="2.6" width="2.6" x="76.5" y="56.0"><title>2017-05-11 421 kCal</title></rect><rect fill="#41ffd1" height="2.6" width="2.6" x="76.5" y="59.5"><title>2017-05-12 372 kCal</title></rect><rect fill="#40ffc8" height="2.6" width="2.6" x="76.5" y="63.0"><title>2017-05-13 406 kCal</title></rect><rect fill="#3effb7" height="2.6" width="2.6" x="76.5" y="66.5"><title>2017-05-14 470 kCal</title></rect><rect fill="#ffb800" height="2.6" width="2.6" x="80.0" y="45.5"><title>2017-05-15 680 kCal</title></rect><rect fill="red" height="2.6" width="2.6" x="80.0" y="49.0"><title>2017-05-16 842 kCal</title></rect><rect fill="#41ffd2" height="2.6" width="2.6" x="80.0" y="52.5"><title>2017-05-17 367 kCal</title></rect><rect fill="#3dffaf" height="2.6" width="2.6" x="80.0" y="56.0"><title>2017-05-18 497 kCal</title></rect><rect fill="red" height="2.6" width="2.6" x="80.0" y="59.5"><title>2017-05-19 1013 kCal</title></rect><rect fill="red" height="2.6" width="2.6" x="80.0" y="63.0"><title>2017-05-20 931 kCal</title></rect><rect fill="#47fffb" height="2.6" width="2.6" x="80.0" y="66.5"><title>2017-05-21 206 kCal</title></rect><rect fill="#3bff98" height="2.6" width="2.6" x="83.5" y="45.5"><title>2017-05-22 581 kCal</title></rect><rect fill="#47fcff" height="2.6" width="2.6" x="83.5" y="49.0"><title>2017-05-23 181 kCal</title></rect><rect fill="red" height="2.6" width="2.6" x="83.5" y="52.5"><title>2017-05-24 907 kCal</title></rect><rect fill="red" height="2.6" width="2.6" x="83.5" y="56.0"><title>2017-05-25 852 kCal</title></rect><rect fill="#ffac00" height="2.6" width="2.6" x="83.5" y="59.5"><title>2017-05-26 792 kCal</title></rect><rect fill="#3dffaa" height="2.6" width="2.6" x="83.5" y="63.0"><title>2017-05-27 516 kCal</title></rect><rect fill="red" height="2.6" width="2.6" x="83.5" y="66.5"><title>2017-05-28 862 kCal</title></rect><rect fill="#ffb200" height="2.6" width="2.6" x="87.0" y="45.5"><title>2017-05-29 731 kCal</title></rect><rect fill="#ffc000" height="2.6" width="2.6" x="87.0" y="49.0"><title>2017-05-30 606 kCal</title></rect><rect fill="#ffbe00" height="2.6" width="2.6" x="87.0" y="52.5"><title>2017-05-31 623 kCal</title></rect><rect fill="red" height="2.6" width="2.6" x="87.0" y="56.0"><title>2017-06-01 963 kCal</title></rect><rect fill="#45ffec" height="2.6" width="2.6" x="87.0" y="59.5"><title>2017-06-02 266 kCal</title></rect><rect fill="#ffae00" height="2.6" width="2.6" x="87.0" y="63.0"><title>2017-06-03 777 kCal</title></rect><rect fill="#ffc100" height="2.6" width="2.6" x="87.0" y="66.5"><title>2017-06-04 588 kCal</title></rect><rect fill="#ffb900" height="2.6" width="2.6" x="90.5" y="45.5"><title>2017-06-05 665 kCal</title></rect><rect fill="#3bff98" height="2.6" width="2.6" x="90.5" y="49.0"><title>2017-06-06 581 kCal</title></rect><rect fill="#3fffc2" height="2.6" width="2.6" x="90.5" y="52.5"><title>2017-06-07 429 kCal</title></rect><rect fill="#40ffc4" height="2.6" width="2.6" x="90.5" y="56.0"><title>2017-06-08 420 kCal</title></rect><rect fill="#47fffc" height="2.6" width="2.6" x="90.5" y="59.5"><title>2017-06-09 203 kCal</title></rect><rect fill="#41ffcb" height="2.6" width="2.6" x="90.5" y="63.0"><title>2017-06-10 393 kCal</title></rect><rect fill="#ffbd00" height="2.6" width="2.6" x="90.5" y="66.5"><title>2017-06-11 634 kCal</title></rect><rect fill="red" height="2.6" width="2.6" x="94.0" y="45.5"><title>2017-06-12 841 kCal</title></rect><rect fill="#ffbf00" height="2.6" width="2.6" x="94.0" y="49.0"><title>2017-06-13 612 kCal</title></rect><rect fill="#3fffc0" height="2.6" width="2.6" x="94.0" y="52.5"><title>2017-06-14 434 kCal</title></rect><rect fill="#4dd2ff" height="2.6" width="2.6" x="94.0" y="56.0"><title>2017-06-15 3 kCal</title></rect><rect fill="#444444" height="2.6" width="2.6" x="94.0" y="59.5"><title>2017-06-16</title></rect><rect fill="#ffc000" height="2.6" width="2.6" x="94.0" y="63.0"><title>2017-06-17 605 kCal</title></rect><rect fill="#42ffd5" height="2.6" width="2.6" x="94.0" y="66.5"><title>2017-06-18 355 kCal</title></rect><rect fill="#3dffb1" height="2.6" width="2.6" x="97.5" y="45.5"><title>2017-06-19 492 kCal</title></rect><rect fill="#ffb700" height="2.6" width="2.6" x="97.5" y="49.0"><title>2017-06-20 690 kCal</title></rect><rect fill="#45ffee" height="2.6" width="2.6" x="97.5" y="52.5"><title>2017-06-21 259 kCal</title></rect><rect fill="#44ffe9" height="2.6" width="2.6" x="97.5" y="56.0"><title>2017-06-22 277 kCal</title></rect><rect fill="#ffab00" height="2.6" width="2.6" x="97.5" y="59.5"><title>2017-06-23 805 kCal</title></rect><rect fill="red" height="2.6" width="2.6" x="97.5" y="63.0"><title>2017-06-24 1569 kCal</title></rect><rect fill="red" height="2.6" width="2.6" x="97.5" y="66.5"><title>2017-06-25 853 kCal</title></rect><rect fill="#42ffd7" height="2.6" width="2.6" x="101.0" y="45.5"><title>2017-06-26 347 kCal</title></rect><rect fill="#3fffc1" height="2.6" width="2.6" x="101.0" y="49.0"><title>2017-06-27 431 kCal</title></rect><rect fill="#4aecff" height="2.6" width="2.6" x="101.0" y="52.5"><title>2017-06-28 113 kCal</title></rect><rect fill="#41ffcb" height="2.6" width="2.6" x="101.0" y="56.0"><title>2017-06-29 396 kCal</title></rect><rect fill="red" height="2.6" width="2.6" x="101.0" y="59.5"><title>2017-06-30 1069 kCal</title></rect><rect fill="red" height="2.6" width="2.6" x="101.0" y="63.0"><title>2017-07-01 842 kCal</title></rect><rect fill="#3fffba" height="2.6" width="2.6" x="101.0" y="66.5"><title>2017-07-02 459 kCal</title></rect><rect fill="red" height="2.6" width="2.6" x="104.5" y="45.5"><title>2017-07-03 1071 kCal</title></rect><rect fill="#ffc100" height="2.6" width="2.6" x="104.5" y="49.0"><title>2017-07-04 591 kCal</title></rect><rect fill="#40ffc4" height="2.6" width="2.6" x="104.5" y="52.5"><title>2017-07-05 420 kCal</title></rect><rect fill="#ffaf00" height="2.6" width="2.6" x="104.5" y="56.0"><title>2017-07-06 760 kCal</title></rect><rect fill="#ffb100" height="2.6" width="2.6" x="104.5" y="59.5"><title>2017-07-07 747 kCal</title></rect><rect fill="#3dffb0" height="2.6" width="2.6" x="104.5" y="63.0"><title>2017-07-08 494 kCal</title></rect><rect fill="#40ffca" height="2.6" width="2.6" x="104.5" y="66.5"><title>2017-07-09 400 kCal</title></rect><rect fill="#3fffbc" height="2.6" width="2.6" x="108.0" y="45.5"><title>2017-07-10 451 kCal</title></rect><rect fill="#3fffba" height="2.6" width="2.6" x="108.0" y="49.0"><title>2017-07-11 458 kCal</title></rect><rect fill="#ffb500" height="2.6" width="2.6" x="108.0" y="52.5"><title>2017-07-12 703 kCal</title></rect><rect fill="#ffc000" height="2.6" width="2.6" x="108.0" y="56.0"><title>2017-07-13 597 kCal</title></rect><rect fill="#44ffe8" height="2.6" width="2.6" x="108.0" y="59.5"><title>2017-07-14 283 kCal</title></rect><rect fill="#ffbc00" height="2.6" width="2.6" x="108.0" y="63.0"><title>2017-07-15 642 kCal</title></rect><rect fill="#3fffbe" height="2.6" width="2.6" x="108.0" y="66.5"><title>2017-07-16 443 kCal</title></rect><rect fill="red" height="2.6" width="2.6" x="111.5" y="45.5"><title>2017-07-17 1145 kCal</title></rect><rect fill="red" height="2.6" width="2.6" x="111.5" y="49.0"><title>2017-07-18 883 kCal</title></rect><rect fill="#3cffa5" height="2.6" width="2.6" x="111.5" y="52.5"><title>2017-07-19 535 kCal</title></rect><rect fill="#ffbe00" height="2.6" width="2.6" x="111.5" y="56.0"><title>2017-07-20 618 kCal</title></rect><rect fill="#ffc200" height="2.6" width="2.6" x="111.5" y="59.5"><title>2017-07-21 587 kCal</title></rect><rect fill="#41ffd1" height="2.6" width="2.6" x="111.5" y="63.0"><title>2017-07-22 371 kCal</title></rect><rect fill="#3effb5" height="2.6" width="2.6" x="111.5" y="66.5"><title>2017-07-23 477 kCal</title></rect><rect fill="#43ffde" height="2.6" width="2.6" x="115.0" y="45.5"><title>2017-07-24 321 kCal</title></rect><rect fill="#3bff99" height="2.6" width="2.6" x="115.0" y="49.0"><title>2017-07-25 578 kCal</title></rect><rect fill="#ffb100" height="2.6" width="2.6" x="115.0" y="52.5"><title>2017-07-26 743 kCal</title></rect><rect fill="#42ffd8" height="2.6" width="2.6" x="115.0" y="56.0"><title>2017-07-27 344 kCal</title></rect><rect fill="#45fff1" height="2.6" width="2.6" x="115.0" y="59.5"><title>2017-07-28 247 kCal</title></rect><rect fill="#44ffe3" height="2.6" width="2.6" x="115.0" y="63.0"><title>2017-07-29 301 kCal</title></rect><rect fill="#41ffce" height="2.6" width="2.6" x="115.0" y="66.5"><title>2017-07-30 382 kCal</title></rect><rect fill="#44ffe7" height="2.6" width="2.6" x="118.5" y="45.5"><title>2017-07-31 286 kCal</title></rect><rect fill="#3cffa2" height="2.6" width="2.6" x="118.5" y="49.0"><title>2017-08-01 547 kCal</title></rect><rect fill="red" height="2.6" width="2.6" x="118.5" y="52.5"><title>2017-08-02 1222 kCal</title></rect><rect fill="#3bff9d" height="2.6" width="2.6" x="118.5" y="56.0"><title>2017-08-03 563 kCal</title></rect><rect fill="#3effb5" height="2.6" width="2.6" x="118.5" y="59.5"><title>2017-08-04 475 kCal</title></rect><rect fill="#3effb2" height="2.6" width="2.6" x="118.5" y="63.0"><title>2017-08-05 487 kCal</title></rect><rect fill="#3fffc2" height="2.6" width="2.6" x="118.5" y="66.5"><title>2017-08-06 428 kCal</title></rect><rect fill="#ffb600" height="2.6" width="2.6" x="122.0" y="45.5"><title>2017-08-07 700 kCal</title></rect><rect fill="red" height="2.6" width="2.6" x="122.0" y="49.0"><title>2017-08-08 1099 kCal</title></rect><rect fill="#3effb5" height="2.6" width="2.6" x="122.0" y="52.5"><title>2017-08-09 476 kCal</title></rect><rect fill="#40ffc8" height="2.6" width="2.6" x="122.0" y="56.0"><title>2017-08-10 404 kCal</title></rect><rect fill="#42ffd6" height="2.6" width="2.6" x="122.0" y="59.5"><title>2017-08-11 351 kCal</title></rect><rect fill="#3dffae" height="2.6" width="2.6" x="122.0" y="63.0"><title>2017-08-12 503 kCal</title></rect><rect fill="#4ae7ff" height="2.6" width="2.6" x="122.0" y="66.5"><title>2017-08-13 93 kCal</title></rect><rect fill="#3effb4" height="2.6" width="2.6" x="125.5" y="45.5"><title>2017-08-14 482 kCal</title></rect><rect fill="#ffc100" height="2.6" width="2.6" x="125.5" y="49.0"><title>2017-08-15 588 kCal</title></rect><rect fill="#40ffc6" height="2.6" width="2.6" x="125.5" y="52.5"><title>2017-08-16 413 kCal</title></rect><rect fill="#3fffbe" height="2.6" width="2.6" x="125.5" y="56.0"><title>2017-08-17 444 kCal</title></rect><rect fill="#40ffc5" height="2.6" width="2.6" x="125.5" y="59.5"><title>2017-08-18 419 kCal</title></rect><rect fill="#3dffb1" height="2.6" width="2.6" x="125.5" y="63.0"><title>2017-08-19 491 kCal</title></rect><rect fill="#43ffdd" height="2.6" width="2.6" x="125.5" y="66.5"><title>2017-08-20 326 kCal</title></rect><rect fill="#ffb600" height="2.6" width="2.6" x="129.0" y="45.5"><title>2017-08-21 701 kCal</title></rect><rect fill="#ffa900" height="2.6" width="2.6" x="129.0" y="49.0"><title>2017-08-22 822 kCal</title></rect><rect fill="#3bff9a" height="2.6" width="2.6" x="129.0" y="52.5"><title>2017-08-23 574 kCal</title></rect><rect fill="#3bff9c" height="2.6" width="2.6" x="129.0" y="56.0"><title>2017-08-24 569 kCal</title></rect><rect fill="#40ffc6" height="2.6" width="2.6" x="129.0" y="59.5"><title>2017-08-25 413 kCal</title></rect><rect fill="#40ffc3" height="2.6" width="2.6" x="129.0" y="63.0"><title>2017-08-26 426 kCal</title></rect><rect fill="#3dffae" height="2.6" width="2.6" x="129.0" y="66.5"><title>2017-08-27 504 kCal</title></rect><rect fill="#43ffde" height="2.6" width="2.6" x="132.5" y="45.5"><title>2017-08-28 320 kCal</title></rect><rect fill="#3effb2" height="2.6" width="2.6" x="132.5" y="49.0"><title>2017-08-29 487 kCal</title></rect><rect fill="red" height="2.6" width="2.6" x="132.5" y="52.5"><title>2017-08-30 836 kCal</title></rect><rect fill="#3fffbb" height="2.6" width="2.6" x="132.5" y="56.0"><title>2017-08-31 453 kCal</title></rect><rect fill="#43ffdd" height="2.6" width="2.6" x="132.5" y="59.5"><title>2017-09-01 325 kCal</title></rect><rect fill="#444444" height="2.6" width="2.6" x="132.5" y="63.0"><title>2017-09-02</title></rect><rect fill="#444444" height="2.6" width="2.6" x="132.5" y="66.5"><title>2017-09-03</title></rect><rect fill="#444444" height="2.6" width="2.6" x="136.0" y="45.5"><title>2017-09-04</title></rect><rect fill="#41ffcf" height="2.6" width="2.6" x="136.0" y="49.0"><title>2017-09-05 380 kCal</title></rect><rect fill="#3dffaf" height="2.6" width="2.6" x="136.0" y="52.5"><title>2017-09-06 499 kCal</title></rect><rect fill="#43ffde" height="2.6" width="2.6" x="136.0" y="56.0"><title>2017-09-07 321 kCal</title></rect><rect fill="#3fffba" height="2.6" width="2.6" x="136.0" y="59.5"><title>2017-09-08 457 kCal</title></rect><rect fill="#48f5ff" height="2.6" width="2.6" x="136.0" y="63.0"><title>2017-09-09 149 kCal</title></rect><rect fill="#ffad00" height="2.6" width="2.6" x="136.0" y="66.5"><title>2017-09-10 782 kCal</title></rect><rect fill="#42ffd3" height="2.6" width="2.6" x="139.5" y="45.5"><title>2017-09-11 364 kCal</title></rect><rect fill="#ffb600" height="2.6" width="2.6" x="139.5" y="49.0"><title>2017-09-12 697 kCal</title></rect><rect fill="#3dffaf" height="2.6" width="2.6" x="139.5" y="52.5"><title>2017-09-13 497 kCal</title></rect><rect fill="#ffb900" height="2.6" width="2.6" x="139.5" y="56.0"><title>2017-09-14 665 kCal</title></rect><rect fill="#ffc000" height="2.6" width="2.6" x="139.5" y="59.5"><title>2017-09-15 606 kCal</title></rect><rect fill="#41ffcb" height="2.6" width="2.6" x="139.5" y="63.0"><title>2017-09-16 393 kCal</title></rect><rect fill="#44ffeb" height="2.6" width="2.6" x="139.5" y="66.5"><title>2017-09-17 272 kCal</title></rect><rect fill="#3cffa7" height="2.6" width="2.6" x="143.0" y="45.5"><title>2017-09-18 529 kCal</title></rect><rect fill="#ffbb00" height="2.6" width="2.6" x="143.0" y="49.0"><title>2017-09-19 646 kCal</title></rect><rect fill="#3cffa0" height="2.6" width="2.6" x="143.0" y="52.5"><title>2017-09-20 553 kCal</title></rect><rect fill="#ffba00" height="2.6" width="2.6" x="143.0" y="56.0"><title>2017-09-21 656 kCal</title></rect><rect fill="#41ffce" height="2.6" width="2.6" x="143.0" y="59.5"><title>2017-09-22 385 kCal</title></rect><rect fill="#444444" height="2.6" width="2.6" x="143.0" y="63.0"><title>2017-09-23</title></rect><rect fill="#444444" height="2.6" width="2.6" x="143.0" y="66.5"><title>2017-09-24</title></rect><rect fill="#ffc100" height="2.6" width="2.6" x="146.5" y="45.5"><title>2017-09-25 590 kCal</title></rect><rect fill="#3bff9d" height="2.6" width="2.6" x="146.5" y="49.0"><title>2017-09-26 565 kCal</title></rect><rect fill="#ffc100" height="2.6" width="2.6" x="146.5" y="52.5"><title>2017-09-27 588 kCal</title></rect><rect fill="#ffbf00" height="2.6" width="2.6" x="146.5" y="56.0"><title>2017-09-28 614 kCal</title></rect><rect fill="#ffba00" height="2.6" width="2.6" x="146.5" y="59.5"><title>2017-09-29 656 kCal</title></rect><rect fill="#41ffd1" height="2.6" width="2.6" x="146.5" y="63.0"><title>2017-09-30 373 kCal</title></rect><rect fill="#42ffd4" height="2.6" width="2.6" x="146.5" y="66.5"><title>2017-10-01 361 kCal</title></rect><rect fill="#4ae7ff" height="2.6" width="2.6" x="150.0" y="45.5"><title>2017-10-02 91 kCal</title></rect><rect fill="#3cffa8" height="2.6" width="2.6" x="150.0" y="49.0"><title>2017-10-03 523 kCal</title></rect><rect fill="#ffc100" height="2.6" width="2.6" x="150.0" y="52.5"><title>2017-10-04 596 kCal</title></rect><rect fill="#3dffaf" height="2.6" width="2.6" x="150.0" y="56.0"><title>2017-10-05 500 kCal</title></rect><rect fill="#48f7ff" height="2.6" width="2.6" x="150.0" y="59.5"><title>2017-10-06 157 kCal</title></rect><rect fill="#ffb900" height="2.6" width="2.6" x="150.0" y="63.0"><title>2017-10-07 665 kCal</title></rect><rect fill="#4aeaff" height="2.6" width="2.6" x="150.0" y="66.5"><title>2017-10-08 105 kCal</title></rect><rect fill="#3fffbf" height="2.6" width="2.6" x="153.5" y="45.5"><title>2017-10-09 440 kCal</title></rect><rect fill="#ffb900" height="2.6" width="2.6" x="153.5" y="49.0"><title>2017-10-10 672 kCal</title></rect><rect fill="red" height="2.6" width="2.6" x="153.5" y="52.5"><title>2017-10-11 992 kCal</title></rect><rect fill="#3dffa9" height="2.6" width="2.6" x="153.5" y="56.0"><title>2017-10-12 521 kCal</title></rect><rect fill="#3dffac" height="2.6" width="2.6" x="153.5" y="59.5"><title>2017-10-13 508 kCal</title></rect><rect fill="#45ffec" height="2.6" width="2.6" x="153.5" y="63.0"><title>2017-10-14 268 kCal</title></rect><rect fill="#47ffff" height="2.6" width="2.6" x="153.5" y="66.5"><title>2017-10-15 191 kCal</title></rect><rect fill="#ffb800" height="2.6" width="2.6" x="157.0" y="45.5"><title>2017-10-16 675 kCal</title></rect><rect fill="#3dffb0" height="2.6" width="2.6" x="157.0" y="49.0"><title>2017-10-17 494 kCal</title></rect><rect fill="#4be1ff" height="2.6" width="2.6" x="157.0" y="52.5"><title>2017-10-18 69 kCal</title></rect><rect fill="#3fffbe" height="2.6" width="2.6" x="157.0" y="56.0"><title>2017-10-19 443 kCal</title></rect><rect fill="#3fffbb" height="2.6" width="2.6" x="157.0" y="59.5"><title>2017-10-20 456 kCal</title></rect><rect fill="#ffb900" height="2.6" width="2.6" x="157.0" y="63.0"><title>2017-10-21 666 kCal</title></rect><rect fill="#ffb400" height="2.6" width="2.6" x="157.0" y="66.5"><title>2017-10-22 720 kCal</title></rect><rect fill="#45ffec" height="2.6" width="2.6" x="160.5" y="45.5"><title>2017-10-23 268 kCal</title></rect><rect fill="#42ffd8" height="2.6" width="2.6" x="160.5" y="49.0"><title>2017-10-24 345 kCal</title></rect><rect fill="red" height="2.6" width="2.6" x="160.5" y="52.5"><title>2017-10-25 917 kCal</title></rect><rect fill="#4ae9ff" height="2.6" width="2.6" x="160.5" y="56.0"><title>2017-10-26 102 kCal</title></rect><rect fill="#40ffca" height="2.6" width="2.6" x="160.5" y="59.5"><title>2017-10-27 400 kCal</title></rect><rect fill="#3cffa2" height="2.6" width="2.6" x="160.5" y="63.0"><title>2017-10-28 547 kCal</title></rect><rect fill="#3cffa8" height="2.6" width="2.6" x="160.5" y="66.5"><title>2017-10-29 525 kCal</title></rect><rect fill="#3dffb0" height="2.6" width="2.6" x="164.0" y="45.5"><title>2017-10-30 494 kCal</title></rect><rect fill="#46fff4" height="2.6" width="2.6" x="164.0" y="49.0"><title>2017-10-31 234 kCal</title></rect><rect fill="#ffaf00" height="2.6" width="2.6" x="164.0" y="52.5"><title>2017-11-01 763 kCal</title></rect><rect fill="#3effb9" height="2.6" width="2.6" x="164.0" y="56.0"><title>2017-11-02 461 kCal</title></rect><rect fill="#4ae5ff" height="2.6" width="2.6" x="164.0" y="59.5"><title>2017-11-03 82 kCal</title></rect><rect fill="#ffba00" height="2.6" width="2.6" x="164.0" y="63.0"><title>2017-11-04 659 kCal</title></rect><rect fill="#444444" height="2.6" width="2.6" x="164.0" y="66.5"><title>2017-11-05</title></rect><rect fill="#ffbe00" height="2.6" width="2.6" x="167.5" y="45.5"><title>2017-11-06 625 kCal</title></rect><rect fill="#49f1ff" height="2.6" width="2.6" x="167.5" y="49.0"><title>2017-11-07 136 kCal</title></rect><rect fill="#41ffcb" height="2.6" width="2.6" x="167.5" y="52.5"><title>2017-11-08 396 kCal</title></rect><rect fill="#3cffa5" height="2.6" width="2.6" x="167.5" y="56.0"><title>2017-11-09 536 kCal</title></rect><rect fill="#ffbe00" height="2.6" width="2.6" x="167.5" y="59.5"><title>2017-11-10 625 kCal</title></rect><rect fill="red" height="2.6" width="2.6" x="167.5" y="63.0"><title>2017-11-11 1057 kCal</title></rect><rect fill="#45fff2" height="2.6" width="2.6" x="167.5" y="66.5"><title>2017-11-12 245 kCal</title></rect><rect fill="#444444" height="2.6" width="2.6" x="171.0" y="45.5"><title>2017-11-13</title></rect><rect fill="#3effb5" height="2.6" width="2.6" x="171.0" y="49.0"><title>2017-11-14 475 kCal</title></rect><rect fill="#3cffa7" height="2.6" width="2.6" x="171.0" y="52.5"><title>2017-11-15 529 kCal</title></rect><rect fill="#4ae8ff" height="2.6" width="2.6" x="171.0" y="56.0"><title>2017-11-16 97 kCal</title></rect><rect fill="#3bff9f" height="2.6" width="2.6" x="171.0" y="59.5"><title>2017-11-17 555 kCal</title></rect><rect fill="#4aebff" height="2.6" width="2.6" x="171.0" y="63.0"><title>2017-11-18 109 kCal</title></rect><rect fill="#444444" height="2.6" width="2.6" x="171.0" y="66.5"><title>2017-11-19</title></rect><rect fill="#3cffa1" height="2.6" width="2.6" x="174.5" y="45.5"><title>2017-11-20 550 kCal</title></rect><rect fill="#ffbd00" height="2.6" width="2.6" x="174.5" y="49.0"><title>2017-11-21 631 kCal</title></rect><rect fill="red" height="2.6" width="2.6" x="174.5" y="52.5"><title>2017-11-22 850 kCal</title></rect><rect fill="red" height="2.6" width="2.6" x="174.5" y="56.0"><title>2017-11-23 1069 kCal</title></rect><rect fill="red" height="2.6" width="2.6" x="174.5" y="59.5"><title>2017-11-24 952 kCal</title></rect><rect fill="#ffc000" height="2.6" width="2.6" x="174.5" y="63.0"><title>2017-11-25 602 kCal</title></rect><rect fill="red" height="2.6" width="2.6" x="174.5" y="66.5"><title>2017-11-26 1327 kCal</title></rect><rect fill="#ffb700" height="2.6" width="2.6" x="178.0" y="45.5"><title>2017-11-27 686 kCal</title></rect><rect fill="red" height="2.6" width="2.6" x="178.0" y="49.0"><title>2017-11-28 900 kCal</title></rect><rect fill="#3cffa1" height="2.6" width="2.6" x="178.0" y="52.5"><title>2017-11-29 551 kCal</title></rect><rect fill="#4be2ff" height="2.6" width="2.6" x="178.0" y="56.0"><title>2017-11-30 72 kCal</title></rect><rect fill="#ffc100" height="2.6" width="2.6" x="178.0" y="59.5"><title>2017-12-01 589 kCal</title></rect><rect fill="#43ffe2" height="2.6" width="2.6" x="178.0" y="63.0"><title>2017-12-02 305 kCal</title></rect><rect fill="#43ffdf" height="2.6" width="2.6" x="178.0" y="66.5"><title>2017-12-03 319 kCal</title></rect><rect fill="#ffb900" height="2.6" width="2.6" x="181.5" y="45.5"><title>2017-12-04 664 kCal</title></rect><rect fill="red" height="2.6" width="2.6" x="181.5" y="49.0"><title>2017-12-05 869 kCal</title></rect><rect fill="#3cffa7" height="2.6" width="2.6" x="181.5" y="52.5"><title>2017-12-06 528 kCal</title></rect><rect fill="#40ffc4" height="2.6" width="2.6" x="181.5" y="56.0"><title>2017-12-07 420 kCal</title></rect><rect fill="#ffb600" height="2.6" width="2.6" x="181.5" y="59.5"><title>2017-12-08 692 kCal</title></rect><rect fill="red" height="2.6" width="2.6" x="181.5" y="63.0"><title>2017-12-09 1444 kCal</title></rect><rect fill="red" height="2.6" width="2.6" x="181.5" y="66.5"><title>2017-12-10 1041 kCal</title></rect><rect fill="#4ae6ff" height="2.6" width="2.6" x="185.0" y="45.5"><title>2017-12-11 87 kCal</title></rect><rect fill="#444444" height="2.6" width="2.6" x="185.0" y="49.0"><title>2017-12-12</title></rect><rect fill="red" height="2.6" width="2.6" x="185.0" y="52.5"><title>2017-12-13 962 kCal</title></rect><rect fill="#3effb8" height="2.6" width="2.6" x="185.0" y="56.0"><title>2017-12-14 464 kCal</title></rect><rect fill="#4aebff" height="2.6" width="2.6" x="185.0" y="59.5"><title>2017-12-15 111 kCal</title></rect><rect fill="#444444" height="2.6" width="2.6" x="185.0" y="63.0"><title>2017-12-16</title></rect><rect fill="#43ffdd" height="2.6" width="2.6" x="185.0" y="66.5"><title>2017-12-17 325 kCal</title></rect><rect fill="#ffc100" height="2.6" width="2.6" x="188.5" y="45.5"><title>2017-12-18 593 kCal</title></rect><rect fill="#40ffca" height="2.6" width="2.6" x="188.5" y="49.0"><title>2017-12-19 399 kCal</title></rect><rect fill="#3fffbe" height="2.6" width="2.6" x="188.5" y="52.5"><title>2017-12-20 442 kCal</title></rect><rect fill="#3fffbf" height="2.6" width="2.6" x="188.5" y="56.0"><title>2017-12-21 438 kCal</title></rect><rect fill="#3dffb0" height="2.6" width="2.6" x="188.5" y="59.5"><title>2017-12-22 494 kCal</title></rect><rect fill="#3fffbe" height="2.6" width="2.6" x="188.5" y="63.0"><title>2017-12-23 444 kCal</title></rect><rect fill="#40ffc9" height="2.6" width="2.6" x="188.5" y="66.5"><title>2017-12-24 402 kCal</title></rect><rect fill="#ffaa00" height="2.6" width="2.6" x="192.0" y="45.5"><title>2017-12-25 808 kCal</title></rect><rect fill="#3fffbf" height="2.6" width="2.6" x="192.0" y="49.0"><title>2017-12-26 440 kCal</title></rect><rect fill="#3bff9f" height="2.6" width="2.6" x="192.0" y="52.5"><title>2017-12-27 558 kCal</title></rect><rect fill="#44ffe9" height="2.6" width="2.6" x="192.0" y="56.0"><title>2017-12-28 277 kCal</title></rect><rect fill="red" height="2.6" width="2.6" x="192.0" y="59.5"><title>2017-12-29 858 kCal</title></rect><rect fill="red" height="2.6" width="2.6" x="192.0" y="63.0"><title>2017-12-30 884 kCal</title></rect><rect fill="#4aecff" height="2.6" width="2.6" x="192.0" y="66.5"><title>2017-12-31 113 kCal</title></rect></svg>