<?xml version="1.0" encoding="utf-8" ?>
<svg baseProfile="full" height="78mm" version="1.1" viewBox="0,0,200,78" width="200mm" xmlns="http://www.w3.org/2000/svg" xmlns:ev="http://www.w3.org/2001/xml-events" xmlns:xlink="http://www.w3.org/1999/xlink"><defs /><rect fill="#222222" height="78" width="200" x="0" y="0" /><text fill="#FFFFFF" style="font-size:12px; font-family:Arial; font-weight:bold;" x="10" y="20">rip-tyang apple_health</text><text dominant-baseline="hanging" fill="#FFFFFF" style="font-size:10.0px; font-family:Arial;" x="10" y="30">2016</text><text dominant-baseline="hanging" fill="#FFFFFF" style="font-size:4.125px; font-family:Arial;" x="175" y="35">210087 kCal</text><text fill="#FFFFFF" style="font-size:2.5px; font-family:Arial" x="10.0" y="44">Jan</text><text fill="#FFFFFF" style="font-size:2.5px; font-family:Arial" x="25.5" y="44">Feb</text><text fill="#FFFFFF" style="font-size:2.5px; font-family:Arial" x="41.0" y="44">Mar</text><text fill="#FFFFFF" style="font-size:2.5px; font-family:Arial" x="56.5" y="44">Apr</text><text fill="#FFFFFF" style="font-size:2.5px; font-family:Arial" x="72.0" y="44">May</text><text fill="#FFFFFF" style="font-size:2.5px; font-family:Arial" x="87.5" y="44">Jun</text><text fill="#FFFFFF" style="font-size:2.5px; font-family:Arial" x="103.0" y="44">Jul</text><text fill="#FFFFFF" style="font-size:2.5px; font-family:Arial" x="118.5" y="44">Aug</text><text fill="#FFFFFF" style="font-size:2.5px; font-family:Arial" x="134.0" y="44">Sep</text><text fill="#FFFFFF" style="font-size:2.5px; font-family:Arial" x="149.5" y="44">Oct</text><text fill="#FFFFFF" style="font-size:2.5px; font-family:Arial" x="165.0" y="44">Nov</text><text fill="#FFFFFF" style="font-size:2.5px; font-family:Arial" x="180.5" y="44">Dec</text><rect fill="#ffd700" height="2.6" width="2.6" x="10.0" y="45.5"><title>2015-12-28 686.4429999999992 kCal</title></rect><rect fill="#ffdd00" height="2.6" width="2.6" x="10.0" y="49.0"><title>2015-12-29 574.4990000000008 kCal</title></rect><rect fill="#444444" height="2.6" width="2.6" x="10.0" y="52.5"><title>2015-12-30</title></rect><rect fill="#444444" height="2.6" width="2.6" x="10.0" y="56.0"><title>2015-12-31</title></rect><rect fill="#4cd7ff" height="2.6" width="2.6" x="10.0" y="59.5"><title>2016-01-01 41.364999999999995 kCal</title></rect><rect fill="#ffd800" height="2.6" width="2.6" x="10.0" y="63.0"><title>2016-01-02 663.7430000000004 kCal</title></rect><rect fill="red" height="2.6" width="2.6" x="10.0" y="66.5"><title>2016-01-03 896.714 kCal</title></rect><rect fill="#44ffe9" height="2.6" width="2.6" x="13.5" y="45.5"><title>2016-01-04 499.5939999999996 kCal</title></rect><rect fill="red" height="2.6" width="2.6" x="13.5" y="49.0"><title>2016-01-05 808.1349999999999 kCal</title></rect><rect fill="#ffdb00" height="2.6" width="2.6" x="13.5" y="52.5"><title>2016-01-06 610.2779999999999 kCal</title></rect><rect fill="red" height="2.6" width="2.6" x="13.5" y="56.0"><title>2016-01-07 894.5729999999992 kCal</title></rect><rect fill="#46fff8" height="2.6" width="2.6" x="13.5" y="59.5"><title>2016-01-08 389.99599999999987 kCal</title></rect><rect fill="#43ffe2" height="2.6" width="2.6" x="13.5" y="63.0"><title>2016-01-09 544.7149999999999 kCal</title></rect><rect fill="#ffdb00" height="2.6" width="2.6" x="13.5" y="66.5"><title>2016-01-10 622.1540000000003 kCal</title></rect><rect fill="#46fff7" height="2.6" width="2.6" x="17.0" y="45.5"><title>2016-01-11 397.3470000000004 kCal</title></rect><rect fill="#47fffc" height="2.6" width="2.6" x="17.0" y="49.0"><title>2016-01-12 360.8989999999999 kCal</title></rect><rect fill="#44ffe6" height="2.6" width="2.6" x="17.0" y="52.5"><title>2016-01-13 518.2019999999999 kCal</title></rect><rect fill="#43ffe2" height="2.6" width="2.6" x="17.0" y="56.0"><title>2016-01-14 548.9770000000004 kCal</title></rect><rect fill="#45ffee" height="2.6" width="2.6" x="17.0" y="59.5"><title>2016-01-15 458.1820000000005 kCal</title></rect><rect fill="#4ae5ff" height="2.6" width="2.6" x="17.0" y="63.0"><title>2016-01-16 144.97599999999997 kCal</title></rect><rect fill="#45ffed" height="2.6" width="2.6" x="17.0" y="66.5"><title>2016-01-17 471.01199999999955 kCal</title></rect><rect fill="#49efff" height="2.6" width="2.6" x="20.5" y="45.5"><title>2016-01-18 223.1719999999999 kCal</title></rect><rect fill="#47fffe" height="2.6" width="2.6" x="20.5" y="49.0"><title>2016-01-19 343.5900000000001 kCal</title></rect><rect fill="#48fbff" height="2.6" width="2.6" x="20.5" y="52.5"><title>2016-01-20 309.6479999999998 kCal</title></rect><rect fill="#48f9ff" height="2.6" width="2.6" x="20.5" y="56.0"><title>2016-01-21 294.3009999999997 kCal</title></rect><rect fill="#46fff8" height="2.6" width="2.6" x="20.5" y="59.5"><title>2016-01-22 393.11599999999993 kCal</title></rect><rect fill="#4cd6ff" height="2.6" width="2.6" x="20.5" y="63.0"><title>2016-01-23 36.60599999999999 kCal</title></rect><rect fill="#44ffe6" height="2.6" width="2.6" x="20.5" y="66.5"><title>2016-01-24 518.2399999999996 kCal</title></rect><rect fill="#ffdd00" height="2.6" width="2.6" x="24.0" y="45.5"><title>2016-01-25 577.3320000000001 kCal</title></rect><rect fill="#44ffe3" height="2.6" width="2.6" x="24.0" y="49.0"><title>2016-01-26 536.4179999999991 kCal</title></rect><rect fill="#47fffc" height="2.6" width="2.6" x="24.0" y="52.5"><title>2016-01-27 361.2570000000001 kCal</title></rect><rect fill="#49f1ff" height="2.6" width="2.6" x="24.0" y="56.0"><title>2016-01-28 234.78399999999982 kCal</title></rect><rect fill="#ffdb00" height="2.6" width="2.6" x="24.0" y="59.5"><title>2016-01-29 619.4250000000005 kCal</title></rect><rect fill="#49f0ff" height="2.6" width="2.6" x="24.0" y="63.0"><title>2016-01-30 230.46500000000003 kCal</title></rect><rect fill="#ffda00" height="2.6" width="2.6" x="24.0" y="66.5"><title>2016-01-31 639.6799999999996 kCal</title></rect><rect fill="#47fffd" height="2.6" width="2.6" x="27.5" y="45.5"><title>2016-02-01 356.7139999999999 kCal</title></rect><rect fill="#45ffec" height="2.6" width="2.6" x="27.5" y="49.0"><title>2016-02-02 476.59499999999986 kCal</title></rect><rect fill="#47fffe" height="2.6" width="2.6" x="27.5" y="52.5"><title>2016-02-03 348.7119999999996 kCal</title></rect><rect fill="#44ffe7" height="2.6" width="2.6" x="27.5" y="56.0"><title>2016-02-04 511.4669999999998 kCal</title></rect><rect fill="#44ffe6" height="2.6" width="2.6" x="27.5" y="59.5"><title>2016-02-05 514.8530000000005 kCal</title></rect><rect fill="#ffd900" height="2.6" width="2.6" x="27.5" y="63.0"><title>2016-02-06 646.2950000000005 kCal</title></rect><rect fill="red" height="2.6" width="2.6" x="27.5" y="66.5"><title>2016-02-07 824.1719999999993 kCal</title></rect><rect fill="#45ffee" height="2.6" width="2.6" x="31.0" y="45.5"><title>2016-02-08 459.19999999999965 kCal</title></rect><rect fill="#ffdb00" height="2.6" width="2.6" x="31.0" y="49.0"><title>2016-02-09 619.1700000000004 kCal</title></rect><rect fill="#46fff5" height="2.6" width="2.6" x="31.0" y="52.5"><title>2016-02-10 410.33299999999986 kCal</title></rect><rect fill="#ffd800" height="2.6" width="2.6" x="31.0" y="56.0"><title>2016-02-11 669.6169999999995 kCal</title></rect><rect fill="#ffd900" height="2.6" width="2.6" x="31.0" y="59.5"><title>2016-02-12 641.5030000000002 kCal</title></rect><rect fill="#47feff" height="2.6" width="2.6" x="31.0" y="63.0"><title>2016-02-13 331.8730000000004 kCal</title></rect><rect fill="#47fcff" height="2.6" width="2.6" x="31.0" y="66.5"><title>2016-02-14 317.84099999999984 kCal</title></rect><rect fill="#46fff8" height="2.6" width="2.6" x="34.5" y="45.5"><title>2016-02-15 391.2469999999997 kCal</title></rect><rect fill="#ffde00" height="2.6" width="2.6" x="34.5" y="49.0"><title>2016-02-16 559.0740000000001 kCal</title></rect><rect fill="#46fff8" height="2.6" width="2.6" x="34.5" y="52.5"><title>2016-02-17 387.41899999999964 kCal</title></rect><rect fill="#ffdd00" height="2.6" width="2.6" x="34.5" y="56.0"><title>2016-02-18 587.8980000000008 kCal</title></rect><rect fill="#45ffef" height="2.6" width="2.6" x="34.5" y="59.5"><title>2016-02-19 456.8570000000008 kCal</title></rect><rect fill="red" height="2.6" width="2.6" x="34.5" y="63.0"><title>2016-02-20 841.1620000000028 kCal</title></rect><rect fill="#44ffe7" height="2.6" width="2.6" x="34.5" y="66.5"><title>2016-02-21 512.9999999999998 kCal</title></rect><rect fill="#43ffe2" height="2.6" width="2.6" x="38.0" y="45.5"><title>2016-02-22 546.7380000000007 kCal</title></rect><rect fill="#45fff1" height="2.6" width="2.6" x="38.0" y="49.0"><title>2016-02-23 443.4469999999998 kCal</title></rect><rect fill="#44ffe6" height="2.6" width="2.6" x="38.0" y="52.5"><title>2016-02-24 516.2559999999997 kCal</title></rect><rect fill="#ffda00" height="2.6" width="2.6" x="38.0" y="56.0"><title>2016-02-25 630.7680000000004 kCal</title></rect><rect fill="#ffdd00" height="2.6" width="2.6" x="38.0" y="59.5"><title>2016-02-26 575.924999999999 kCal</title></rect><rect fill="red" height="2.6" width="2.6" x="38.0" y="63.0"><title>2016-02-27 907.7450000000013 kCal</title></rect><rect fill="#ffdb00" height="2.6" width="2.6" x="38.0" y="66.5"><title>2016-02-28 614.4810000000002 kCal</title></rect><rect fill="#45fff2" height="2.6" width="2.6" x="41.5" y="45.5"><title>2016-02-29 434.59499999999997 kCal</title></rect><rect fill="#ffdc00" height="2.6" width="2.6" x="41.5" y="49.0"><title>2016-03-01 593.3069999999998 kCal</title></rect><rect fill="#43ffe2" height="2.6" width="2.6" x="41.5" y="52.5"><title>2016-03-02 548.2110000000001 kCal</title></rect><rect fill="#43ffe1" height="2.6" width="2.6" x="41.5" y="56.0"><title>2016-03-03 551.2239999999998 kCal</title></rect><rect fill="red" height="2.6" width="2.6" x="41.5" y="59.5"><title>2016-03-04 884.4940000000006 kCal</title></rect><rect fill="#47fffb" height="2.6" width="2.6" x="41.5" y="63.0"><title>2016-03-05 368.5310000000001 kCal</title></rect><rect fill="#45fff0" height="2.6" width="2.6" x="41.5" y="66.5"><title>2016-03-06 446.4170000000005 kCal</title></rect><rect fill="#ffdb00" height="2.6" width="2.6" x="45.0" y="45.5"><title>2016-03-07 610.022 kCal</title></rect><rect fill="#46fff4" height="2.6" width="2.6" x="45.0" y="49.0"><title>2016-03-08 416.9939999999999 kCal</title></rect><rect fill="#45ffed" height="2.6" width="2.6" x="45.0" y="52.5"><title>2016-03-09 465.35999999999984 kCal</title></rect><rect fill="#ffde00" height="2.6" width="2.6" x="45.0" y="56.0"><title>2016-03-10 560.194 kCal</title></rect><rect fill="#ffdb00" height="2.6" width="2.6" x="45.0" y="59.5"><title>2016-03-11 616.2060000000008 kCal</title></rect><rect fill="#ffd600" height="2.6" width="2.6" x="45.0" y="63.0"><title>2016-03-12 694.7150000000007 kCal</title></rect><rect fill="#44ffe6" height="2.6" width="2.6" x="45.0" y="66.5"><title>2016-03-13 518.4899999999999 kCal</title></rect><rect fill="red" height="2.6" width="2.6" x="48.5" y="45.5"><title>2016-03-14 905.4000000000013 kCal</title></rect><rect fill="#ffd800" height="2.6" width="2.6" x="48.5" y="49.0"><title>2016-03-15 664.0940000000014 kCal</title></rect><rect fill="#ffd900" height="2.6" width="2.6" x="48.5" y="52.5"><title>2016-03-16 649.131 kCal</title></rect><rect fill="#ffdd00" height="2.6" width="2.6" x="48.5" y="56.0"><title>2016-03-17 585.7710000000008 kCal</title></rect><rect fill="#43ffe3" height="2.6" width="2.6" x="48.5" y="59.5"><title>2016-03-18 537.9890000000008 kCal</title></rect><rect fill="#ffde00" height="2.6" width="2.6" x="48.5" y="63.0"><title>2016-03-19 572.2630000000006 kCal</title></rect><rect fill="#ffdc00" height="2.6" width="2.6" x="48.5" y="66.5"><title>2016-03-20 605.9130000000004 kCal</title></rect><rect fill="#ffdd00" height="2.6" width="2.6" x="52.0" y="45.5"><title>2016-03-21 588.2580000000002 kCal</title></rect><rect fill="#ffde00" height="2.6" width="2.6" x="52.0" y="49.0"><title>2016-03-22 559.6479999999993 kCal</title></rect><rect fill="red" height="2.6" width="2.6" x="52.0" y="52.5"><title>2016-03-23 719.824 kCal</title></rect><rect fill="#ffdc00" height="2.6" width="2.6" x="52.0" y="56.0"><title>2016-03-24 597.9070000000005 kCal</title></rect><rect fill="#47fffc" height="2.6" width="2.6" x="52.0" y="59.5"><title>2016-03-25 357.7089999999999 kCal</title></rect><rect fill="#ffdc00" height="2.6" width="2.6" x="52.0" y="63.0"><title>2016-03-26 601.2919999999972 kCal</title></rect><rect fill="red" height="2.6" width="2.6" x="52.0" y="66.5"><title>2016-03-27 726.5389999999991 kCal</title></rect><rect fill="#ffd900" height="2.6" width="2.6" x="55.5" y="45.5"><title>2016-03-28 644.2270000000001 kCal</title></rect><rect fill="#ffd800" height="2.6" width="2.6" x="55.5" y="49.0"><title>2016-03-29 658.8669999999996 kCal</title></rect><rect fill="#ffd700" height="2.6" width="2.6" x="55.5" y="52.5"><title>2016-03-30 680.0780000000009 kCal</title></rect><rect fill="#45ffef" height="2.6" width="2.6" x="55.5" y="56.0"><title>2016-03-31 457.4060000000006 kCal</title></rect><rect fill="#44ffe7" height="2.6" width="2.6" x="55.5" y="59.5"><title>2016-04-01 510.88800000000066 kCal</title></rect><rect fill="#ffd600" height="2.6" width="2.6" x="55.5" y="63.0"><title>2016-04-02 695.2550000000001 kCal</title></rect><rect fill="#44ffe8" height="2.6" width="2.6" x="55.5" y="66.5"><title>2016-04-03 505.46999999999923 kCal</title></rect><rect fill="#47fffb" height="2.6" width="2.6" x="59.0" y="45.5"><title>2016-04-04 365.22999999999985 kCal</title></rect><rect fill="#ffd800" height="2.6" width="2.6" x="59.0" y="49.0"><title>2016-04-05 658.211 kCal</title></rect><rect fill="#44ffe8" height="2.6" width="2.6" x="59.0" y="52.5"><title>2016-04-06 503.89300000000003 kCal</title></rect><rect fill="#ffde00" height="2.6" width="2.6" x="59.0" y="56.0"><title>2016-04-07 566.6619999999987 kCal</title></rect><rect fill="red" height="2.6" width="2.6" x="59.0" y="59.5"><title>2016-04-08 714.5420000000008 kCal</title></rect><rect fill="#45ffef" height="2.6" width="2.6" x="59.0" y="63.0"><title>2016-04-09 453.5739999999996 kCal</title></rect><rect fill="red" height="2.6" width="2.6" x="59.0" y="66.5"><title>2016-04-10 994.9450000000003 kCal</title></rect><rect fill="#44ffe8" height="2.6" width="2.6" x="62.5" y="45.5"><title>2016-04-11 505.5710000000001 kCal</title></rect><rect fill="#44ffeb" height="2.6" width="2.6" x="62.5" y="49.0"><title>2016-04-12 485.33499999999987 kCal</title></rect><rect fill="red" height="2.6" width="2.6" x="62.5" y="52.5"><title>2016-04-13 776.6740000000002 kCal</title></rect><rect fill="red" height="2.6" width="2.6" x="62.5" y="56.0"><title>2016-04-14 1011.7190000000012 kCal</title></rect><rect fill="red" height="2.6" width="2.6" x="62.5" y="59.5"><title>2016-04-15 950.5949999999992 kCal</title></rect><rect fill="#ffda00" height="2.6" width="2.6" x="62.5" y="63.0"><title>2016-04-16 638.0340000000012 kCal</title></rect><rect fill="#44ffe4" height="2.6" width="2.6" x="62.5" y="66.5"><title>2016-04-17 529.6270000000013 kCal</title></rect><rect fill="#45ffed" height="2.6" width="2.6" x="66.0" y="45.5"><title>2016-04-18 466.53399999999993 kCal</title></rect><rect fill="#ffdb00" height="2.6" width="2.6" x="66.0" y="49.0"><title>2016-04-19 612.5340000000006 kCal</title></rect><rect fill="red" height="2.6" width="2.6" x="66.0" y="52.5"><title>2016-04-20 844.7210000000011 kCal</title></rect><rect fill="#ffd600" height="2.6" width="2.6" x="66.0" y="56.0"><title>2016-04-21 704.8970000000006 kCal</title></rect><rect fill="#ffde00" height="2.6" width="2.6" x="66.0" y="59.5"><title>2016-04-22 565.4710000000014 kCal</title></rect><rect fill="#ffd900" height="2.6" width="2.6" x="66.0" y="63.0"><title>2016-04-23 647.1890000000012 kCal</title></rect><rect fill="#43ffe1" height="2.6" width="2.6" x="66.0" y="66.5"><title>2016-04-24 552.6879999999995 kCal</title></rect><rect fill="#ffdb00" height="2.6" width="2.6" x="69.5" y="45.5"><title>2016-04-25 618.6740000000011 kCal</title></rect><rect fill="red" height="2.6" width="2.6" x="69.5" y="49.0"><title>2016-04-26 721.6260000000002 kCal</title></rect><rect fill="#44ffe5" height="2.6" width="2.6" x="69.5" y="52.5"><title>2016-04-27 526.7320000000004 kCal</title></rect><rect fill="#ffd700" height="2.6" width="2.6" x="69.5" y="56.0"><title>2016-04-28 682.1470000000008 kCal</title></rect><rect fill="#ffdc00" height="2.6" width="2.6" x="69.5" y="59.5"><title>2016-04-29 593.2450000000002 kCal</title></rect><rect fill="#ffd800" height="2.6" width="2.6" x="69.5" y="63.0"><title>2016-04-30 671.0309999999998 kCal</title></rect><rect fill="red" height="2.6" width="2.6" x="69.5" y="66.5"><title>2016-05-01 914.9790000000012 kCal</title></rect><rect fill="red" height="2.6" width="2.6" x="73.0" y="45.5"><title>2016-05-02 730.525 kCal</title></rect><rect fill="#ffdc00" height="2.6" width="2.6" x="73.0" y="49.0"><title>2016-05-03 595.0410000000011 kCal</title></rect><rect fill="#ffd700" height="2.6" width="2.6" x="73.0" y="52.5"><title>2016-05-04 680.2589999999997 kCal</title></rect><rect fill="#ffd700" height="2.6" width="2.6" x="73.0" y="56.0"><title>2016-05-05 685.4709999999992 kCal</title></rect><rect fill="#45fff0" height="2.6" width="2.6" x="73.0" y="59.5"><title>2016-05-06 444.1310000000002 kCal</title></rect><rect fill="red" height="2.6" width="2.6" x="73.0" y="63.0"><title>2016-05-07 961.5259999999998 kCal</title></rect><rect fill="#ffd800" height="2.6" width="2.6" x="73.0" y="66.5"><title>2016-05-08 660.7030000000002 kCal</title></rect><rect fill="#ffdb00" height="2.6" width="2.6" x="76.5" y="45.5"><title>2016-05-09 617.9540000000004 kCal</title></rect><rect fill="#ffde00" height="2.6" width="2.6" x="76.5" y="49.0"><title>2016-05-10 569.0150000000007 kCal</title></rect><rect fill="#ffd800" height="2.6" width="2.6" x="76.5" y="52.5"><title>2016-05-11 663.167 kCal</title></rect><rect fill="#44ffe8" height="2.6" width="2.6" x="76.5" y="56.0"><title>2016-05-12 505.032999999999 kCal</title></rect><rect fill="#44ffe8" height="2.6" width="2.6" x="76.5" y="59.5"><title>2016-05-13 504.52199999999965 kCal</title></rect><rect fill="#ffd700" height="2.6" width="2.6" x="76.5" y="63.0"><title>2016-05-14 675.7639999999998 kCal</title></rect><rect fill="#ffdc00" height="2.6" width="2.6" x="76.5" y="66.5"><title>2016-05-15 603.0809999999993 kCal</title></rect><rect fill="#45ffec" height="2.6" width="2.6" x="80.0" y="45.5"><title>2016-05-16 472.74599999999947 kCal</title></rect><rect fill="#ffd800" height="2.6" width="2.6" x="80.0" y="49.0"><title>2016-05-17 659.7409999999994 kCal</title></rect><rect fill="#ffda00" height="2.6" width="2.6" x="80.0" y="52.5"><title>2016-05-18 626.676 kCal</title></rect><rect fill="#46fff8" height="2.6" width="2.6" x="80.0" y="56.0"><title>2016-05-19 386.88599999999997 kCal</title></rect><rect fill="#4cd7ff" height="2.6" width="2.6" x="80.0" y="59.5"><title>2016-05-20 42.34400000000001 kCal</title></rect><rect fill="#ffd800" height="2.6" width="2.6" x="80.0" y="63.0"><title>2016-05-21 667.2769999999998 kCal</title></rect><rect fill="#ffd900" height="2.6" width="2.6" x="80.0" y="66.5"><title>2016-05-22 654.2229999999993 kCal</title></rect><rect fill="#ffd600" height="2.6" width="2.6" x="83.5" y="45.5"><title>2016-05-23 695.999999999999 kCal</title></rect><rect fill="#ffd900" height="2.6" width="2.6" x="83.5" y="49.0"><title>2016-05-24 651.1229999999998 kCal</title></rect><rect fill="#ffdc00" height="2.6" width="2.6" x="83.5" y="52.5"><title>2016-05-25 595.9489999999992 kCal</title></rect><rect fill="red" height="2.6" width="2.6" x="83.5" y="56.0"><title>2016-05-26 764.057999999999 kCal</title></rect><rect fill="#ffd700" height="2.6" width="2.6" x="83.5" y="59.5"><title>2016-05-27 681.6309999999982 kCal</title></rect><rect fill="#48fbff" height="2.6" width="2.6" x="83.5" y="63.0"><title>2016-05-28 311.05899999999934 kCal</title></rect><rect fill="#44ffe6" height="2.6" width="2.6" x="83.5" y="66.5"><title>2016-05-29 516.2560000000001 kCal</title></rect><rect fill="#ffd800" height="2.6" width="2.6" x="87.0" y="45.5"><title>2016-05-30 662.4660000000002 kCal</title></rect><rect fill="#ffdc00" height="2.6" width="2.6" x="87.0" y="49.0"><title>2016-05-31 601.130999999999 kCal</title></rect><rect fill="#44ffe8" height="2.6" width="2.6" x="87.0" y="52.5"><title>2016-06-01 505.0559999999994 kCal</title></rect><rect fill="#44ffe5" height="2.6" width="2.6" x="87.0" y="56.0"><title>2016-06-02 526.813999999999 kCal</title></rect><rect fill="red" height="2.6" width="2.6" x="87.0" y="59.5"><title>2016-06-03 712.1299999999989 kCal</title></rect><rect fill="#46fffb" height="2.6" width="2.6" x="87.0" y="63.0"><title>2016-06-04 371.55299999999994 kCal</title></rect><rect fill="#45ffef" height="2.6" width="2.6" x="87.0" y="66.5"><title>2016-06-05 452.11699999999996 kCal</title></rect><rect fill="#ffdd00" height="2.6" width="2.6" x="90.5" y="45.5"><title>2016-06-06 575.5090000000004 kCal</title></rect><rect fill="red" height="2.6" width="2.6" x="90.5" y="49.0"><title>2016-06-07 743.8689999999995 kCal</title></rect><rect fill="#45ffef" height="2.6" width="2.6" x="90.5" y="52.5"><title>2016-06-08 456.87799999999976 kCal</title></rect><rect fill="#44ffea" height="2.6" width="2.6" x="90.5" y="56.0"><title>2016-06-09 488.818 kCal</title></rect><rect fill="#ffdc00" height="2.6" width="2.6" x="90.5" y="59.5"><title>2016-06-10 598.4280000000001 kCal</title></rect><rect fill="#ffd700" height="2.6" width="2.6" x="90.5" y="63.0"><title>2016-06-11 688.3680000000007 kCal</title></rect><rect fill="red" height="2.6" width="2.6" x="90.5" y="66.5"><title>2016-06-12 763.9200000000008 kCal</title></rect><rect fill="#46fff4" height="2.6" width="2.6" x="94.0" y="45.5"><title>2016-06-13 420.4409999999996 kCal</title></rect><rect fill="#45ffee" height="2.6" width="2.6" x="94.0" y="49.0"><title>2016-06-14 461.27499999999986 kCal</title></rect><rect fill="red" height="2.6" width="2.6" x="94.0" y="52.5"><title>2016-06-15 771.111 kCal</title></rect><rect fill="#ffd900" height="2.6" width="2.6" x="94.0" y="56.0"><title>2016-06-16 643.3510000000009 kCal</title></rect><rect fill="#44ffe5" height="2.6" width="2.6" x="94.0" y="59.5"><title>2016-06-17 528.4199999999998 kCal</title></rect><rect fill="#44ffe8" height="2.6" width="2.6" x="94.0" y="63.0"><title>2016-06-18 501.73099999999965 kCal</title></rect><rect fill="#ffd900" height="2.6" width="2.6" x="94.0" y="66.5"><title>2016-06-19 651.6960000000012 kCal</title></rect><rect fill="#ffd700" height="2.6" width="2.6" x="97.5" y="45.5"><title>2016-06-20 688.0710000000008 kCal</title></rect><rect fill="#ffda00" height="2.6" width="2.6" x="97.5" y="49.0"><title>2016-06-21 629.9649999999992 kCal</title></rect><rect fill="#ffde00" height="2.6" width="2.6" x="97.5" y="52.5"><title>2016-06-22 570.5719999999998 kCal</title></rect><rect fill="#ffdd00" height="2.6" width="2.6" x="97.5" y="56.0"><title>2016-06-23 576.1019999999992 kCal</title></rect><rect fill="#44ffe5" height="2.6" width="2.6" x="97.5" y="59.5"><title>2016-06-24 522.5079999999997 kCal</title></rect><rect fill="#4cd8ff" height="2.6" width="2.6" x="97.5" y="63.0"><title>2016-06-25 51.23300000000001 kCal</title></rect><rect fill="#ffdd00" height="2.6" width="2.6" x="97.5" y="66.5"><title>2016-06-26 584.9859999999996 kCal</title></rect><rect fill="#ffda00" height="2.6" width="2.6" x="101.0" y="45.5"><title>2016-06-27 640.2829999999994 kCal</title></rect><rect fill="#ffde00" height="2.6" width="2.6" x="101.0" y="49.0"><title>2016-06-28 566.2640000000001 kCal</title></rect><rect fill="#ffd600" height="2.6" width="2.6" x="101.0" y="52.5"><title>2016-06-29 692.407 kCal</title></rect><rect fill="red" height="2.6" width="2.6" x="101.0" y="56.0"><title>2016-06-30 779.3879999999979 kCal</title></rect><rect fill="#44ffe7" height="2.6" width="2.6" x="101.0" y="59.5"><title>2016-07-01 511.9479999999998 kCal</title></rect><rect fill="red" height="2.6" width="2.6" x="101.0" y="63.0"><title>2016-07-02 782.5349999999996 kCal</title></rect><rect fill="#46fffa" height="2.6" width="2.6" x="101.0" y="66.5"><title>2016-07-03 374.3829999999998 kCal</title></rect><rect fill="#4be1ff" height="2.6" width="2.6" x="104.5" y="45.5"><title>2016-07-04 114.045 kCal</title></rect><rect fill="#ffdd00" height="2.6" width="2.6" x="104.5" y="49.0"><title>2016-07-05 588.4409999999991 kCal</title></rect><rect fill="#44ffe9" height="2.6" width="2.6" x="104.5" y="52.5"><title>2016-07-06 499.5959999999996 kCal</title></rect><rect fill="#ffd700" height="2.6" width="2.6" x="104.5" y="56.0"><title>2016-07-07 683.6909999999999 kCal</title></rect><rect fill="red" height="2.6" width="2.6" x="104.5" y="59.5"><title>2016-07-08 741.4529999999996 kCal</title></rect><rect fill="#45ffec" height="2.6" width="2.6" x="104.5" y="63.0"><title>2016-07-09 475.4470000000001 kCal</title></rect><rect fill="red" height="2.6" width="2.6" x="104.5" y="66.5"><title>2016-07-10 725.9710000000006 kCal</title></rect><rect fill="#ffdd00" height="2.6" width="2.6" x="108.0" y="45.5"><title>2016-07-11 583.1999999999996 kCal</title></rect><rect fill="#44ffea" height="2.6" width="2.6" x="108.0" y="49.0"><title>2016-07-12 492.8810000000005 kCal</title></rect><rect fill="#ffd700" height="2.6" width="2.6" x="108.0" y="52.5"><title>2016-07-13 678.1200000000003 kCal</title></rect><rect fill="#ffdb00" height="2.6" width="2.6" x="108.0" y="56.0"><title>2016-07-14 611.4160000000003 kCal</title></rect><rect fill="#ffdd00" height="2.6" width="2.6" x="108.0" y="59.5"><title>2016-07-15 584.1049999999997 kCal</title></rect><rect fill="#ffd900" height="2.6" width="2.6" x="108.0" y="63.0"><title>2016-07-16 641.8090000000002 kCal</title></rect><rect fill="#45fff2" height="2.6" width="2.6" x="108.0" y="66.5"><title>2016-07-17 435.83799999999997 kCal</title></rect><rect fill="#ffd700" height="2.6" width="2.6" x="111.5" y="45.5"><title>2016-07-18 689.1080000000004 kCal</title></rect><rect fill="#ffdd00" height="2.6" width="2.6" x="111.5" y="49.0"><title>2016-07-19 587.4979999999999 kCal</title></rect><rect fill="#45ffec" height="2.6" width="2.6" x="111.5" y="52.5"><title>2016-07-20 474.91700000000003 kCal</title></rect><rect fill="#44ffea" height="2.6" width="2.6" x="111.5" y="56.0"><title>2016-07-21 490.3470000000002 kCal</title></rect><rect fill="#44ffe3" height="2.6" width="2.6" x="111.5" y="59.5"><title>2016-07-22 536.8659999999992 kCal</title></rect><rect fill="#ffd800" height="2.6" width="2.6" x="111.5" y="63.0"><title>2016-07-23 660.9959999999995 kCal</title></rect><rect fill="#4dd3ff" height="2.6" width="2.6" x="111.5" y="66.5"><title>2016-07-24 11.377 kCal</title></rect><rect fill="#49f0ff" height="2.6" width="2.6" x="115.0" y="45.5"><title>2016-07-25 227.09799999999987 kCal</title></rect><rect fill="#ffd600" height="2.6" width="2.6" x="115.0" y="49.0"><title>2016-07-26 698.4409999999997 kCal</title></rect><rect fill="#ffdb00" height="2.6" width="2.6" x="115.0" y="52.5"><title>2016-07-27 615.2009999999996 kCal</title></rect><rect fill="#ffde00" height="2.6" width="2.6" x="115.0" y="56.0"><title>2016-07-28 564.6560000000002 kCal</title></rect><rect fill="#ffd700" height="2.6" width="2.6" x="115.0" y="59.5"><title>2016-07-29 678.6349999999987 kCal</title></rect><rect fill="#48fbff" height="2.6" width="2.6" x="115.0" y="63.0"><title>2016-07-30 308.71000000000026 kCal</title></rect><rect fill="#44ffea" height="2.6" width="2.6" x="115.0" y="66.5"><title>2016-07-31 487.8959999999993 kCal</title></rect><rect fill="#46fff3" height="2.6" width="2.6" x="118.5" y="45.5"><title>2016-08-01 424.56599999999963 kCal</title></rect><rect fill="#ffdd00" height="2.6" width="2.6" x="118.5" y="49.0"><title>2016-08-02 585.4319999999991 kCal</title></rect><rect fill="#48fbff" height="2.6" width="2.6" x="118.5" y="52.5"><title>2016-08-03 307.3869999999999 kCal</title></rect><rect fill="#444444" height="2.6" width="2.6" x="118.5" y="56.0"><title>2016-08-04</title></rect><rect fill="#444444" height="2.6" width="2.6" x="118.5" y="59.5"><title>2016-08-05</title></rect><rect fill="#444444" height="2.6" width="2.6" x="118.5" y="63.0"><title>2016-08-06</title></rect><rect fill="#444444" height="2.6" width="2.6" x="118.5" y="66.5"><title>2016-08-07</title></rect><rect fill="#ffd900" height="2.6" width="2.6" x="122.0" y="45.5"><title>2016-08-08 653.1179999999999 kCal</title></rect><rect fill="#43ffe2" height="2.6" width="2.6" x="122.0" y="49.0"><title>2016-08-09 545.5879999999999 kCal</title></rect><rect fill="#ffd900" height="2.6" width="2.6" x="122.0" y="52.5"><title>2016-08-10 644.3349999999996 kCal</title></rect><rect fill="#ffd600" height="2.6" width="2.6" x="122.0" y="56.0"><title>2016-08-11 697.7299999999988 kCal</title></rect><rect fill="red" height="2.6" width="2.6" x="122.0" y="59.5"><title>2016-08-12 722.6029999999996 kCal</title></rect><rect fill="#ffde00" height="2.6" width="2.6" x="122.0" y="63.0"><title>2016-08-13 562.5849999999989 kCal</title></rect><rect fill="#46fffb" height="2.6" width="2.6" x="122.0" y="66.5"><title>2016-08-14 371.46599999999984 kCal</title></rect><rect fill="red" height="2.6" width="2.6" x="125.5" y="45.5"><title>2016-08-15 952.6160000000009 kCal</title></rect><rect fill="#ffdc00" height="2.6" width="2.6" x="125.5" y="49.0"><title>2016-08-16 593.4159999999997 kCal</title></rect><rect fill="#45ffeb" height="2.6" width="2.6" x="125.5" y="52.5"><title>2016-08-17 481.33599999999933 kCal</title></rect><rect fill="#49f2ff" height="2.6" width="2.6" x="125.5" y="56.0"><title>2016-08-18 246.10300000000032 kCal</title></rect><rect fill="#44ffe4" height="2.6" width="2.6" x="125.5" y="59.5"><title>2016-08-19 528.6829999999995 kCal</title></rect><rect fill="red" height="2.6" width="2.6" x="125.5" y="63.0"><title>2016-08-20 869.057999999999 kCal</title></rect><rect fill="#ffd900" height="2.6" width="2.6" x="125.5" y="66.5"><title>2016-08-21 647.1750000000008 kCal</title></rect><rect fill="#46fff6" height="2.6" width="2.6" x="129.0" y="45.5"><title>2016-08-22 402.6709999999997 kCal</title></rect><rect fill="#44ffe4" height="2.6" width="2.6" x="129.0" y="49.0"><title>2016-08-23 534.3029999999987 kCal</title></rect><rect fill="#ffde00" height="2.6" width="2.6" x="129.0" y="52.5"><title>2016-08-24 563.204 kCal</title></rect><rect fill="#ffd600" height="2.6" width="2.6" x="129.0" y="56.0"><title>2016-08-25 697.3819999999981 kCal</title></rect><rect fill="#44ffe4" height="2.6" width="2.6" x="129.0" y="59.5"><title>2016-08-26 528.8309999999996 kCal</title></rect><rect fill="#4aeaff" height="2.6" width="2.6" x="129.0" y="63.0"><title>2016-08-27 187.76900000000003 kCal</title></rect><rect fill="#47fdff" height="2.6" width="2.6" x="129.0" y="66.5"><title>2016-08-28 323.8280000000001 kCal</title></rect><rect fill="#45ffef" height="2.6" width="2.6" x="132.5" y="45.5"><title>2016-08-29 454.2750000000002 kCal</title></rect><rect fill="#ffdb00" height="2.6" width="2.6" x="132.5" y="49.0"><title>2016-08-30 615.764 kCal</title></rect><rect fill="#ffda00" height="2.6" width="2.6" x="132.5" y="52.5"><title>2016-08-31 628.7699999999975 kCal</title></rect><rect fill="#44ffea" height="2.6" width="2.6" x="132.5" y="56.0"><title>2016-09-01 489.8889999999995 kCal</title></rect><rect fill="#44ffea" height="2.6" width="2.6" x="132.5" y="59.5"><title>2016-09-02 492.5899999999994 kCal</title></rect><rect fill="red" height="2.6" width="2.6" x="132.5" y="63.0"><title>2016-09-03 787.6079999999978 kCal</title></rect><rect fill="#49f2ff" height="2.6" width="2.6" x="132.5" y="66.5"><title>2016-09-04 241.88200000000006 kCal</title></rect><rect fill="#48f4ff" height="2.6" width="2.6" x="136.0" y="45.5"><title>2016-09-05 256.7370000000001 kCal</title></rect><rect fill="red" height="2.6" width="2.6" x="136.0" y="49.0"><title>2016-09-06 943.7329999999981 kCal</title></rect><rect fill="#ffd900" height="2.6" width="2.6" x="136.0" y="52.5"><title>2016-09-07 656.8829999999987 kCal</title></rect><rect fill="#45ffef" height="2.6" width="2.6" x="136.0" y="56.0"><title>2016-09-08 457.0780000000004 kCal</title></rect><rect fill="#44ffe4" height="2.6" width="2.6" x="136.0" y="59.5"><title>2016-09-09 530.4899999999992 kCal</title></rect><rect fill="#ffde00" height="2.6" width="2.6" x="136.0" y="63.0"><title>2016-09-10 565.0969999999993 kCal</title></rect><rect fill="#ffd600" height="2.6" width="2.6" x="136.0" y="66.5"><title>2016-09-11 695.7310000000006 kCal</title></rect><rect fill="#ffdd00" height="2.6" width="2.6" x="139.5" y="45.5"><title>2016-09-12 587.0769999999999 kCal</title></rect><rect fill="#43ffe3" height="2.6" width="2.6" x="139.5" y="49.0"><title>2016-09-13 539.5719999999994 kCal</title></rect><rect fill="#43ffe1" height="2.6" width="2.6" x="139.5" y="52.5"><title>2016-09-14 553.0479999999997 kCal</title></rect><rect fill="red" height="2.6" width="2.6" x="139.5" y="56.0"><title>2016-09-15 794.9930000000008 kCal</title></rect><rect fill="#44ffe8" height="2.6" width="2.6" x="139.5" y="59.5"><title>2016-09-16 507.184999999999 kCal</title></rect><rect fill="red" height="2.6" width="2.6" x="139.5" y="63.0"><title>2016-09-17 708.8719999999996 kCal</title></rect><rect fill="#ffdb00" height="2.6" width="2.6" x="139.5" y="66.5"><title>2016-09-18 620.7569999999996 kCal</title></rect><rect fill="red" height="2.6" width="2.6" x="143.0" y="45.5"><title>2016-09-19 1276.731999999997 kCal</title></rect><rect fill="#47fffd" height="2.6" width="2.6" x="143.0" y="49.0"><title>2016-09-20 352.0870000000001 kCal</title></rect><rect fill="#ffd900" height="2.6" width="2.6" x="143.0" y="52.5"><title>2016-09-21 656.7689999999998 kCal</title></rect><rect fill="#45ffee" height="2.6" width="2.6" x="143.0" y="56.0"><title>2016-09-22 462.5429999999997 kCal</title></rect><rect fill="#ffda00" height="2.6" width="2.6" x="143.0" y="59.5"><title>2016-09-23 634.7479999999993 kCal</title></rect><rect fill="#ffdc00" height="2.6" width="2.6" x="143.0" y="63.0"><title>2016-09-24 605.4620000000012 kCal</title></rect><rect fill="#ffde00" height="2.6" width="2.6" x="143.0" y="66.5"><title>2016-09-25 561.6639999999995 kCal</title></rect><rect fill="#44ffe4" height="2.6" width="2.6" x="146.5" y="45.5"><title>2016-09-26 532.1500000000002 kCal</title></rect><rect fill="#44ffe7" height="2.6" width="2.6" x="146.5" y="49.0"><title>2016-09-27 509.9590000000003 kCal</title></rect><rect fill="#ffda00" height="2.6" width="2.6" x="146.5" y="52.5"><title>2016-09-28 631.4280000000003 kCal</title></rect><rect fill="#43ffe0" height="2.6" width="2.6" x="146.5" y="56.0"><title>2016-09-29 557.9920000000003 kCal</title></rect><rect fill="#ffd900" height="2.6" width="2.6" x="146.5" y="59.5"><title>2016-09-30 655.9540000000007 kCal</title></rect><rect fill="red" height="2.6" width="2.6" x="146.5" y="63.0"><title>2016-10-01 729.2440000000006 kCal</title></rect><rect fill="#ffdc00" height="2.6" width="2.6" x="146.5" y="66.5"><title>2016-10-02 599.7869999999999 kCal</title></rect><rect fill="red" height="2.6" width="2.6" x="150.0" y="45.5"><title>2016-10-03 1197.3069999999987 kCal</title></rect><rect fill="red" height="2.6" width="2.6" x="150.0" y="49.0"><title>2016-10-04 1312.2929999999992 kCal</title></rect><rect fill="#ffd700" height="2.6" width="2.6" x="150.0" y="52.5"><title>2016-10-05 686.5420000000004 kCal</title></rect><rect fill="#48faff" height="2.6" width="2.6" x="150.0" y="56.0"><title>2016-10-06 304.5380000000004 kCal</title></rect><rect fill="red" height="2.6" width="2.6" x="150.0" y="59.5"><title>2016-10-07 706.0269999999994 kCal</title></rect><rect fill="#4be4ff" height="2.6" width="2.6" x="150.0" y="63.0"><title>2016-10-08 137.7820000000001 kCal</title></rect><rect fill="#44ffe4" height="2.6" width="2.6" x="150.0" y="66.5"><title>2016-10-09 532.3299999999991 kCal</title></rect><rect fill="#ffde00" height="2.6" width="2.6" x="153.5" y="45.5"><title>2016-10-10 562.7970000000018 kCal</title></rect><rect fill="#45ffef" height="2.6" width="2.6" x="153.5" y="49.0"><title>2016-10-11 457.2829999999994 kCal</title></rect><rect fill="#ffda00" height="2.6" width="2.6" x="153.5" y="52.5"><title>2016-10-12 624.0599999999995 kCal</title></rect><rect fill="#43ffe2" height="2.6" width="2.6" x="153.5" y="56.0"><title>2016-10-13 546.5979999999992 kCal</title></rect><rect fill="#47fffe" height="2.6" width="2.6" x="153.5" y="59.5"><title>2016-10-14 349.27199999999993 kCal</title></rect><rect fill="#ffd700" height="2.6" width="2.6" x="153.5" y="63.0"><title>2016-10-15 687.7259999999997 kCal</title></rect><rect fill="#45fff0" height="2.6" width="2.6" x="153.5" y="66.5"><title>2016-10-16 446.72600000000034 kCal</title></rect><rect fill="red" height="2.6" width="2.6" x="157.0" y="45.5"><title>2016-10-17 791.4309999999984 kCal</title></rect><rect fill="#48f9ff" height="2.6" width="2.6" x="157.0" y="49.0"><title>2016-10-18 297.5060000000004 kCal</title></rect><rect fill="red" height="2.6" width="2.6" x="157.0" y="52.5"><title>2016-10-19 1112.242999999984 kCal</title></rect><rect fill="#444444" height="2.6" width="2.6" x="157.0" y="56.0"><title>2016-10-20</title></rect><rect fill="#444444" height="2.6" width="2.6" x="157.0" y="59.5"><title>2016-10-21</title></rect><rect fill="#46fff6" height="2.6" width="2.6" x="157.0" y="63.0"><title>2016-10-22 402.50400000000013 kCal</title></rect><rect fill="#ffdd00" height="2.6" width="2.6" x="157.0" y="66.5"><title>2016-10-23 585.8389999999996 kCal</title></rect><rect fill="#ffd900" height="2.6" width="2.6" x="160.5" y="45.5"><title>2016-10-24 644.1510000000006 kCal</title></rect><rect fill="#ffd800" height="2.6" width="2.6" x="160.5" y="49.0"><title>2016-10-25 658.9719999999999 kCal</title></rect><rect fill="#44ffe8" height="2.6" width="2.6" x="160.5" y="52.5"><title>2016-10-26 503.5540000000005 kCal</title></rect><rect fill="#ffdb00" height="2.6" width="2.6" x="160.5" y="56.0"><title>2016-10-27 615.3930000000006 kCal</title></rect><rect fill="#45ffed" height="2.6" width="2.6" x="160.5" y="59.5"><title>2016-10-28 466.09200000000004 kCal</title></rect><rect fill="#46fff9" height="2.6" width="2.6" x="160.5" y="63.0"><title>2016-10-29 381.36299999999915 kCal</title></rect><rect fill="#45ffec" height="2.6" width="2.6" x="160.5" y="66.5"><title>2016-10-30 477.8809999999997 kCal</title></rect><rect fill="#44ffe6" height="2.6" width="2.6" x="164.0" y="45.5"><title>2016-10-31 520.6939999999985 kCal</title></rect><rect fill="#48f6ff" height="2.6" width="2.6" x="164.0" y="49.0"><title>2016-11-01 273.7780000000001 kCal</title></rect><rect fill="#ffd800" height="2.6" width="2.6" x="164.0" y="52.5"><title>2016-11-02 670.609 kCal</title></rect><rect fill="#44ffe5" height="2.6" width="2.6" x="164.0" y="56.0"><title>2016-11-03 523.1189999999997 kCal</title></rect><rect fill="red" height="2.6" width="2.6" x="164.0" y="59.5"><title>2016-11-04 942.5249999999987 kCal</title></rect><rect fill="#43ffe3" height="2.6" width="2.6" x="164.0" y="63.0"><title>2016-11-05 539.3009999999996 kCal</title></rect><rect fill="#ffde00" height="2.6" width="2.6" x="164.0" y="66.5"><title>2016-11-06 571.9089999999994 kCal</title></rect><rect fill="red" height="2.6" width="2.6" x="167.5" y="45.5"><title>2016-11-07 869.4769999999975 kCal</title></rect><rect fill="#44ffe7" height="2.6" width="2.6" x="167.5" y="49.0"><title>2016-11-08 510.70499999999936 kCal</title></rect><rect fill="#45fff2" height="2.6" width="2.6" x="167.5" y="52.5"><title>2016-11-09 436.22199999999975 kCal</title></rect><rect fill="red" height="2.6" width="2.6" x="167.5" y="56.0"><title>2016-11-10 756.7609999999996 kCal</title></rect><rect fill="#44ffe6" height="2.6" width="2.6" x="167.5" y="59.5"><title>2016-11-11 521.1489999999999 kCal</title></rect><rect fill="#ffd900" height="2.6" width="2.6" x="167.5" y="63.0"><title>2016-11-12 644.5600000000001 kCal</title></rect><rect fill="#46fff4" height="2.6" width="2.6" x="167.5" y="66.5"><title>2016-11-13 417.23299999999983 kCal</title></rect><rect fill="#45ffec" height="2.6" width="2.6" x="171.0" y="45.5"><title>2016-11-14 475.2189999999995 kCal</title></rect><rect fill="#45fff1" height="2.6" width="2.6" x="171.0" y="49.0"><title>2016-11-15 439.53199999999987 kCal</title></rect><rect fill="#ffda00" height="2.6" width="2.6" x="171.0" y="52.5"><title>2016-11-16 637.1609999999995 kCal</title></rect><rect fill="red" height="2.6" width="2.6" x="171.0" y="56.0"><title>2016-11-17 749.6220000000001 kCal</title></rect><rect fill="red" height="2.6" width="2.6" x="171.0" y="59.5"><title>2016-11-18 833.7969999999993 kCal</title></rect><rect fill="red" height="2.6" width="2.6" x="171.0" y="63.0"><title>2016-11-19 750.1759999999987 kCal</title></rect><rect fill="red" height="2.6" width="2.6" x="171.0" y="66.5"><title>2016-11-20 1185.8979999999997 kCal</title></rect><rect fill="#44ffe4" height="2.6" width="2.6" x="174.5" y="45.5"><title>2016-11-21 533.6399999999995 kCal</title></rect><rect fill="red" height="2.6" width="2.6" x="174.5" y="49.0"><title>2016-11-22 973.612 kCal</title></rect><rect fill="#ffd900" height="2.6" width="2.6" x="174.5" y="52.5"><title>2016-11-23 655.441 kCal</title></rect><rect fill="#46fff3" height="2.6" width="2.6" x="174.5" y="56.0"><title>2016-11-24 424.26000000000306 kCal</title></rect><rect fill="#45ffec" height="2.6" width="2.6" x="174.5" y="59.5"><title>2016-11-25 477.7000000000001 kCal</title></rect><rect fill="#46fff5" height="2.6" width="2.6" x="174.5" y="63.0"><title>2016-11-26 415.00400000000013 kCal</title></rect><rect fill="#ffd900" height="2.6" width="2.6" x="174.5" y="66.5"><title>2016-11-27 655.5759999999996 kCal</title></rect><rect fill="#ffdb00" height="2.6" width="2.6" x="178.0" y="45.5"><title>2016-11-28 612.8120000000004 kCal</title></rect><rect fill="red" height="2.6" width="2.6" x="178.0" y="49.0"><title>2016-11-29 721.5839999999992 kCal</title></rect><rect fill="#ffdd00" height="2.6" width="2.6" x="178.0" y="52.5"><title>2016-11-30 583.4479999999994 kCal</title></rect><rect fill="#44ffe4" height="2.6" width="2.6" x="178.0" y="56.0"><title>2016-12-01 529.6730000000006 kCal</title></rect><rect fill="#ffdc00" height="2.6" width="2.6" x="178.0" y="59.5"><title>2016-12-02 591.7480000000003 kCal</title></rect><rect fill="#ffdc00" height="2.6" width="2.6" x="178.0" y="63.0"><title>2016-12-03 604.7859999999996 kCal</title></rect><rect fill="#48f7ff" height="2.6" width="2.6" x="178.0" y="66.5"><title>2016-12-04 284.5609999999999 kCal</title></rect><rect fill="#ffd900" height="2.6" width="2.6" x="181.5" y="45.5"><title>2016-12-05 655.0680000000001 kCal</title></rect><rect fill="#44ffe9" height="2.6" width="2.6" x="181.5" y="49.0"><title>2016-12-06 495.20299999999975 kCal</title></rect><rect fill="red" height="2.6" width="2.6" x="181.5" y="52.5"><title>2016-12-07 808.6539999999994 kCal</title></rect><rect fill="#44ffe4" height="2.6" width="2.6" x="181.5" y="56.0"><title>2016-12-08 530.6939999999994 kCal</title></rect><rect fill="red" height="2.6" width="2.6" x="181.5" y="59.5"><title>2016-12-09 712.1290000000008 kCal</title></rect><rect fill="#43ffe3" height="2.6" width="2.6" x="181.5" y="63.0"><title>2016-12-10 539.4439999999992 kCal</title></rect><rect fill="red" height="2.6" width="2.6" x="181.5" y="66.5"><title>2016-12-11 2352.5739500000022 kCal</title></rect><rect fill="red" height="2.6" width="2.6" x="185.0" y="45.5"><title>2016-12-12 1207.9303000000004 kCal</title></rect><rect fill="red" height="2.6" width="2.6" x="185.0" y="49.0"><title>2016-12-13 893.0850000000005 kCal</title></rect><rect fill="#47fffc" height="2.6" width="2.6" x="185.0" y="52.5"><title>2016-12-14 361.7059999999998 kCal</title></rect><rect fill="red" height="2.6" width="2.6" x="185.0" y="56.0"><title>2016-12-15 1108.6390000000001 kCal</title></rect><rect fill="#ffde00" height="2.6" width="2.6" x="185.0" y="59.5"><title>2016-12-16 572.5809999999998 kCal</title></rect><rect fill="#46fff5" height="2.6" width="2.6" x="185.0" y="63.0"><title>2016-12-17 408.98499999999973 kCal</title></rect><rect fill="red" height="2.6" width="2.6" x="185.0" y="66.5"><title>2016-12-18 948.9589999999993 kCal</title></rect><rect fill="#44ffe6" height="2.6" width="2.6" x="188.5" y="45.5"><title>2016-12-19 519.1889999999999 kCal</title></rect><rect fill="#47fffd" height="2.6" width="2.6" x="188.5" y="49.0"><title>2016-12-20 356.3739999999994 kCal</title></rect><rect fill="#45ffec" height="2.6" width="2.6" x="188.5" y="52.5"><title>2016-12-21 474.9389999999998 kCal</title></rect><rect fill="#44ffe8" height="2.6" width="2.6" x="188.5" y="56.0"><title>2016-12-22 506.05900000000037 kCal</title></rect><rect fill="#ffdc00" height="2.6" width="2.6" x="188.5" y="59.5"><title>2016-12-23 592.4419999999999 kCal</title></rect><rect fill="red" height="2.6" width="2.6" x="188.5" y="63.0"><title>2016-12-24 892.2800000000005 kCal</title></rect><rect fill="red" height="2.6" width="2.6" x="188.5" y="66.5"><title>2016-12-25 831.6270000000014 kCal</title></rect><rect fill="#45ffef" height="2.6" width="2.6" x="192.0" y="45.5"><title>2016-12-26 451.1259999999997 kCal</title></rect><rect fill="#47fffc" height="2.6" width="2.6" x="192.0" y="49.0"><title>2016-12-27 359.97600000000017 kCal</title></rect><rect fill="red" height="2.6" width="2.6" x="192.0" y="52.5"><title>2016-12-28 851.0830000000007 kCal</title></rect><rect fill="red" height="2.6" width="2.6" x="192.0" y="56.0"><title>2016-12-29 846.6059999999999 kCal</title></rect><rect fill="#45ffee" height="2.6" width="2.6" x="192.0" y="59.5"><title>2016-12-30 459.42300000000023 kCal</title></rect><rect fill="red" height="2.6" width="2.6" x="192.0" y="63.0"><title>2016-12-31 858.3689999999998 kCal</title></rect></svg>