<?xml version="1.0" encoding="utf-8" ?>
<svg baseProfile="full" height="78mm" version="1.1" viewBox="0,0,200,78" width="200mm" xmlns="http://www.w3.org/2000/svg" xmlns:ev="http://www.w3.org/2001/xml-events" xmlns:xlink="http://www.w3.org/1999/xlink"><defs /><rect fill="#222222" height="78" width="200" x="0" y="0" /><text fill="#FFFFFF" style="font-size:12px; font-family:Arial; font-weight:bold;" x="10" y="20">rip-tyang apple_health</text><text dominant-baseline="hanging" fill="#FFFFFF" style="font-size:10.0px; font-family:Arial;" x="10" y="30">2019</text><text dominant-baseline="hanging" fill="#FFFFFF" style="font-size:4.125px; font-family:Arial;" x="175" y="35">275 hours</text><text fill="#FFFFFF" style="font-size:2.5px; font-family:Arial" x="10.0" y="44">Jan</text><text fill="#FFFFFF" style="font-size:2.5px; font-family:Arial" x="25.5" y="44">Feb</text><text fill="#FFFFFF" style="font-size:2.5px; font-family:Arial" x="41.0" y="44">Mar</text><text fill="#FFFFFF" style="font-size:2.5px; font-family:Arial" x="56.5" y="44">Apr</text><text fill="#FFFFFF" style="font-size:2.5px; font-family:Arial" x="72.0" y="44">May</text><text fill="#FFFFFF" style="font-size:2.5px; font-family:Arial" x="87.5" y="44">Jun</text><text fill="#FFFFFF" style="font-size:2.5px; font-family:Arial" x="103.0" y="44">Jul</text><text fill="#FFFFFF" style="font-size:2.5px; font-family:Arial" x="118.5" y="44">Aug</text><text fill="#FFFFFF" style="font-size:2.5px; font-family:Arial" x="134.0" y="44">Sep</text><text fill="#FFFFFF" style="font-size:2.5px; font-family:Arial" x="149.5" y="44">Oct</text><text fill="#FFFFFF" style="font-size:2.5px; font-family:Arial" x="165.0" y="44">Nov</text><text fill="#FFFFFF" style="font-size:2.5px; font-family:Arial" x="180.5" y="44">Dec</text><rect fill="#4cddff" height="2.6" width="2.6" x="10.0" y="45.5"><title>2018-12-31 17 mins</title></rect><rect fill="#4be3ff" height="2.6" width="2.6" x="10.0" y="49.0"><title>2019-01-01 26 mins</title></rect><rect fill="#4cd8ff" height="2.6" width="2.6" x="10.0" y="52.5"><title>2019-01-02 10 mins</title></rect><rect fill="#4ae5ff" height="2.6" width="2.6" x="10.0" y="56.0"><title>2019-01-03 29 mins</title></rect><rect fill="#47fbff" height="2.6" width="2.6" x="10.0" y="59.5"><title>2019-01-04 60 mins</title></rect><rect fill="#47feff" height="2.6" width="2.6" x="10.0" y="63.0"><title>2019-01-05 64 mins</title></rect><rect fill="#4cd8ff" height="2.6" width="2.6" x="10.0" y="66.5"><title>2019-01-06 10 mins</title></rect><rect fill="#47feff" height="2.6" width="2.6" x="13.5" y="45.5"><title>2019-01-07 64 mins</title></rect><rect fill="#4be2ff" height="2.6" width="2.6" x="13.5" y="49.0"><title>2019-01-08 24 mins</title></rect><rect fill="#4be1ff" height="2.6" width="2.6" x="13.5" y="52.5"><title>2019-01-09 23 mins</title></rect><rect fill="#49edff" height="2.6" width="2.6" x="13.5" y="56.0"><title>2019-01-10 40 mins</title></rect><rect fill="#48fbff" height="2.6" width="2.6" x="13.5" y="59.5"><title>2019-01-11 59 mins</title></rect><rect fill="#47fffd" height="2.6" width="2.6" x="13.5" y="63.0"><title>2019-01-12 68 mins</title></rect><rect fill="#4dd5ff" height="2.6" width="2.6" x="13.5" y="66.5"><title>2019-01-13 5 mins</title></rect><rect fill="#ffdc00" height="2.6" width="2.6" x="17.0" y="45.5"><title>2019-01-14 113 mins</title></rect><rect fill="#47ffff" height="2.6" width="2.6" x="17.0" y="49.0"><title>2019-01-15 65 mins</title></rect><rect fill="#48f6ff" height="2.6" width="2.6" x="17.0" y="52.5"><title>2019-01-16 53 mins</title></rect><rect fill="#49efff" height="2.6" width="2.6" x="17.0" y="56.0"><title>2019-01-17 43 mins</title></rect><rect fill="#49f3ff" height="2.6" width="2.6" x="17.0" y="59.5"><title>2019-01-18 49 mins</title></rect><rect fill="#4be2ff" height="2.6" width="2.6" x="17.0" y="63.0"><title>2019-01-19 24 mins</title></rect><rect fill="#46fff8" height="2.6" width="2.6" x="17.0" y="66.5"><title>2019-01-20 75 mins</title></rect><rect fill="#4cd8ff" height="2.6" width="2.6" x="20.5" y="45.5"><title>2019-01-21 10 mins</title></rect><rect fill="#48f6ff" height="2.6" width="2.6" x="20.5" y="49.0"><title>2019-01-22 52 mins</title></rect><rect fill="#4ae6ff" height="2.6" width="2.6" x="20.5" y="52.5"><title>2019-01-23 30 mins</title></rect><rect fill="#4ae5ff" height="2.6" width="2.6" x="20.5" y="56.0"><title>2019-01-24 28 mins</title></rect><rect fill="#46fffb" height="2.6" width="2.6" x="20.5" y="59.5"><title>2019-01-25 71 mins</title></rect><rect fill="#48f6ff" height="2.6" width="2.6" x="20.5" y="63.0"><title>2019-01-26 53 mins</title></rect><rect fill="#45fff1" height="2.6" width="2.6" x="20.5" y="66.5"><title>2019-01-27 84 mins</title></rect><rect fill="#4be4ff" height="2.6" width="2.6" x="24.0" y="45.5"><title>2019-01-28 27 mins</title></rect><rect fill="#4ae7ff" height="2.6" width="2.6" x="24.0" y="49.0"><title>2019-01-29 31 mins</title></rect><rect fill="#49eeff" height="2.6" width="2.6" x="24.0" y="52.5"><title>2019-01-30 41 mins</title></rect><rect fill="#49eeff" height="2.6" width="2.6" x="24.0" y="56.0"><title>2019-01-31 42 mins</title></rect><rect fill="#46fff8" height="2.6" width="2.6" x="24.0" y="59.5"><title>2019-02-01 75 mins</title></rect><rect fill="#47fffe" height="2.6" width="2.6" x="24.0" y="63.0"><title>2019-02-02 67 mins</title></rect><rect fill="#4ae5ff" height="2.6" width="2.6" x="24.0" y="66.5"><title>2019-02-03 29 mins</title></rect><rect fill="#4be0ff" height="2.6" width="2.6" x="27.5" y="45.5"><title>2019-02-04 21 mins</title></rect><rect fill="#4be4ff" height="2.6" width="2.6" x="27.5" y="49.0"><title>2019-02-05 27 mins</title></rect><rect fill="#46fff8" height="2.6" width="2.6" x="27.5" y="52.5"><title>2019-02-06 75 mins</title></rect><rect fill="#4be4ff" height="2.6" width="2.6" x="27.5" y="56.0"><title>2019-02-07 27 mins</title></rect><rect fill="#4ae5ff" height="2.6" width="2.6" x="27.5" y="59.5"><title>2019-02-08 29 mins</title></rect><rect fill="#4be2ff" height="2.6" width="2.6" x="27.5" y="63.0"><title>2019-02-09 24 mins</title></rect><rect fill="#4aecff" height="2.6" width="2.6" x="27.5" y="66.5"><title>2019-02-10 38 mins</title></rect><rect fill="#4aeaff" height="2.6" width="2.6" x="31.0" y="45.5"><title>2019-02-11 36 mins</title></rect><rect fill="#47fffe" height="2.6" width="2.6" x="31.0" y="49.0"><title>2019-02-12 67 mins</title></rect><rect fill="#48f6ff" height="2.6" width="2.6" x="31.0" y="52.5"><title>2019-02-13 53 mins</title></rect><rect fill="#4ae6ff" height="2.6" width="2.6" x="31.0" y="56.0"><title>2019-02-14 30 mins</title></rect><rect fill="#46fff8" height="2.6" width="2.6" x="31.0" y="59.5"><title>2019-02-15 75 mins</title></rect><rect fill="#4ae9ff" height="2.6" width="2.6" x="31.0" y="63.0"><title>2019-02-16 34 mins</title></rect><rect fill="#46fffb" height="2.6" width="2.6" x="31.0" y="66.5"><title>2019-02-17 71 mins</title></rect><rect fill="#4aeaff" height="2.6" width="2.6" x="34.5" y="45.5"><title>2019-02-18 36 mins</title></rect><rect fill="#49ecff" height="2.6" width="2.6" x="34.5" y="49.0"><title>2019-02-19 39 mins</title></rect><rect fill="#49f3ff" height="2.6" width="2.6" x="34.5" y="52.5"><title>2019-02-20 48 mins</title></rect><rect fill="#4be2ff" height="2.6" width="2.6" x="34.5" y="56.0"><title>2019-02-21 25 mins</title></rect><rect fill="#4bdfff" height="2.6" width="2.6" x="34.5" y="59.5"><title>2019-02-22 20 mins</title></rect><rect fill="#ffdf00" height="2.6" width="2.6" x="34.5" y="63.0"><title>2019-02-23 105 mins</title></rect><rect fill="#47fcff" height="2.6" width="2.6" x="34.5" y="66.5"><title>2019-02-24 61 mins</title></rect><rect fill="#ffe400" height="2.6" width="2.6" x="38.0" y="45.5"><title>2019-02-25 87 mins</title></rect><rect fill="#49eeff" height="2.6" width="2.6" x="38.0" y="49.0"><title>2019-02-26 41 mins</title></rect><rect fill="#49ecff" height="2.6" width="2.6" x="38.0" y="52.5"><title>2019-02-27 39 mins</title></rect><rect fill="#4ae7ff" height="2.6" width="2.6" x="38.0" y="56.0"><title>2019-02-28 31 mins</title></rect><rect fill="#49f2ff" height="2.6" width="2.6" x="38.0" y="59.5"><title>2019-03-01 47 mins</title></rect><rect fill="#4be2ff" height="2.6" width="2.6" x="38.0" y="63.0"><title>2019-03-02 24 mins</title></rect><rect fill="#47feff" height="2.6" width="2.6" x="38.0" y="66.5"><title>2019-03-03 64 mins</title></rect><rect fill="#49eeff" height="2.6" width="2.6" x="41.5" y="45.5"><title>2019-03-04 42 mins</title></rect><rect fill="#4ae5ff" height="2.6" width="2.6" x="41.5" y="49.0"><title>2019-03-05 28 mins</title></rect><rect fill="#4ae9ff" height="2.6" width="2.6" x="41.5" y="52.5"><title>2019-03-06 34 mins</title></rect><rect fill="#46fff9" height="2.6" width="2.6" x="41.5" y="56.0"><title>2019-03-07 74 mins</title></rect><rect fill="#4ae9ff" height="2.6" width="2.6" x="41.5" y="59.5"><title>2019-03-08 35 mins</title></rect><rect fill="#49f1ff" height="2.6" width="2.6" x="41.5" y="63.0"><title>2019-03-09 45 mins</title></rect><rect fill="#48fbff" height="2.6" width="2.6" x="41.5" y="66.5"><title>2019-03-10 59 mins</title></rect><rect fill="#4be2ff" height="2.6" width="2.6" x="45.0" y="45.5"><title>2019-03-11 24 mins</title></rect><rect fill="#49efff" height="2.6" width="2.6" x="45.0" y="49.0"><title>2019-03-12 43 mins</title></rect><rect fill="#4ae9ff" height="2.6" width="2.6" x="45.0" y="52.5"><title>2019-03-13 35 mins</title></rect><rect fill="#4aeaff" height="2.6" width="2.6" x="45.0" y="56.0"><title>2019-03-14 36 mins</title></rect><rect fill="#ffe400" height="2.6" width="2.6" x="45.0" y="59.5"><title>2019-03-15 89 mins</title></rect><rect fill="#4aecff" height="2.6" width="2.6" x="45.0" y="63.0"><title>2019-03-16 38 mins</title></rect><rect fill="#ffe400" height="2.6" width="2.6" x="45.0" y="66.5"><title>2019-03-17 88 mins</title></rect><rect fill="#49ecff" height="2.6" width="2.6" x="48.5" y="45.5"><title>2019-03-18 39 mins</title></rect><rect fill="#4ae7ff" height="2.6" width="2.6" x="48.5" y="49.0"><title>2019-03-19 32 mins</title></rect><rect fill="#4ae9ff" height="2.6" width="2.6" x="48.5" y="52.5"><title>2019-03-20 34 mins</title></rect><rect fill="#4ae5ff" height="2.6" width="2.6" x="48.5" y="56.0"><title>2019-03-21 28 mins</title></rect><rect fill="#ffe300" height="2.6" width="2.6" x="48.5" y="59.5"><title>2019-03-22 93 mins</title></rect><rect fill="#4be0ff" height="2.6" width="2.6" x="48.5" y="63.0"><title>2019-03-23 21 mins</title></rect><rect fill="#49f1ff" height="2.6" width="2.6" x="48.5" y="66.5"><title>2019-03-24 45 mins</title></rect><rect fill="#47feff" height="2.6" width="2.6" x="52.0" y="45.5"><title>2019-03-25 64 mins</title></rect><rect fill="#4ae7ff" height="2.6" width="2.6" x="52.0" y="49.0"><title>2019-03-26 31 mins</title></rect><rect fill="#46fff4" height="2.6" width="2.6" x="52.0" y="52.5"><title>2019-03-27 80 mins</title></rect><rect fill="#4ae7ff" height="2.6" width="2.6" x="52.0" y="56.0"><title>2019-03-28 31 mins</title></rect><rect fill="#4bdfff" height="2.6" width="2.6" x="52.0" y="59.5"><title>2019-03-29 20 mins</title></rect><rect fill="#ffd600" height="2.6" width="2.6" x="52.0" y="63.0"><title>2019-03-30 135 mins</title></rect><rect fill="#ffdd00" height="2.6" width="2.6" x="52.0" y="66.5"><title>2019-03-31 111 mins</title></rect><rect fill="#ffda00" height="2.6" width="2.6" x="55.5" y="45.5"><title>2019-04-01 120 mins</title></rect><rect fill="#4bdeff" height="2.6" width="2.6" x="55.5" y="49.0"><title>2019-04-02 18 mins</title></rect><rect fill="#46fffb" height="2.6" width="2.6" x="55.5" y="52.5"><title>2019-04-03 71 mins</title></rect><rect fill="#4aebff" height="2.6" width="2.6" x="55.5" y="56.0"><title>2019-04-04 37 mins</title></rect><rect fill="#4ae8ff" height="2.6" width="2.6" x="55.5" y="59.5"><title>2019-04-05 33 mins</title></rect><rect fill="#46fffa" height="2.6" width="2.6" x="55.5" y="63.0"><title>2019-04-06 72 mins</title></rect><rect fill="#4be2ff" height="2.6" width="2.6" x="55.5" y="66.5"><title>2019-04-07 25 mins</title></rect><rect fill="#49efff" height="2.6" width="2.6" x="59.0" y="45.5"><title>2019-04-08 43 mins</title></rect><rect fill="#49f1ff" height="2.6" width="2.6" x="59.0" y="49.0"><title>2019-04-09 46 mins</title></rect><rect fill="#4ae5ff" height="2.6" width="2.6" x="59.0" y="52.5"><title>2019-04-10 29 mins</title></rect><rect fill="#4ae7ff" height="2.6" width="2.6" x="59.0" y="56.0"><title>2019-04-11 32 mins</title></rect><rect fill="#48f8ff" height="2.6" width="2.6" x="59.0" y="59.5"><title>2019-04-12 56 mins</title></rect><rect fill="#48f8ff" height="2.6" width="2.6" x="59.0" y="63.0"><title>2019-04-13 56 mins</title></rect><rect fill="#46fffb" height="2.6" width="2.6" x="59.0" y="66.5"><title>2019-04-14 71 mins</title></rect><rect fill="#ffdb00" height="2.6" width="2.6" x="62.5" y="45.5"><title>2019-04-15 117 mins</title></rect><rect fill="#48fbff" height="2.6" width="2.6" x="62.5" y="49.0"><title>2019-04-16 59 mins</title></rect><rect fill="#48f6ff" height="2.6" width="2.6" x="62.5" y="52.5"><title>2019-04-17 52 mins</title></rect><rect fill="#48fbff" height="2.6" width="2.6" x="62.5" y="56.0"><title>2019-04-18 59 mins</title></rect><rect fill="#48f6ff" height="2.6" width="2.6" x="62.5" y="59.5"><title>2019-04-19 52 mins</title></rect><rect fill="#4aebff" height="2.6" width="2.6" x="62.5" y="63.0"><title>2019-04-20 37 mins</title></rect><rect fill="#4cdaff" height="2.6" width="2.6" x="62.5" y="66.5"><title>2019-04-21 12 mins</title></rect><rect fill="#4ae7ff" height="2.6" width="2.6" x="66.0" y="45.5"><title>2019-04-22 32 mins</title></rect><rect fill="#48f8ff" height="2.6" width="2.6" x="66.0" y="49.0"><title>2019-04-23 56 mins</title></rect><rect fill="#49eeff" height="2.6" width="2.6" x="66.0" y="52.5"><title>2019-04-24 42 mins</title></rect><rect fill="#48f4ff" height="2.6" width="2.6" x="66.0" y="56.0"><title>2019-04-25 50 mins</title></rect><rect fill="#47fffd" height="2.6" width="2.6" x="66.0" y="59.5"><title>2019-04-26 68 mins</title></rect><rect fill="#4cd9ff" height="2.6" width="2.6" x="66.0" y="63.0"><title>2019-04-27 11 mins</title></rect><rect fill="#4ae9ff" height="2.6" width="2.6" x="66.0" y="66.5"><title>2019-04-28 34 mins</title></rect><rect fill="#49eeff" height="2.6" width="2.6" x="69.5" y="45.5"><title>2019-04-29 41 mins</title></rect><rect fill="#ffe500" height="2.6" width="2.6" x="69.5" y="49.0"><title>2019-04-30 85 mins</title></rect><rect fill="#49eeff" height="2.6" width="2.6" x="69.5" y="52.5"><title>2019-05-01 41 mins</title></rect><rect fill="#47fdff" height="2.6" width="2.6" x="69.5" y="56.0"><title>2019-05-02 62 mins</title></rect><rect fill="#46fff8" height="2.6" width="2.6" x="69.5" y="59.5"><title>2019-05-03 75 mins</title></rect><rect fill="#49edff" height="2.6" width="2.6" x="69.5" y="63.0"><title>2019-05-04 40 mins</title></rect><rect fill="#46fff7" height="2.6" width="2.6" x="69.5" y="66.5"><title>2019-05-05 76 mins</title></rect><rect fill="#45fff1" height="2.6" width="2.6" x="73.0" y="45.5"><title>2019-05-06 84 mins</title></rect><rect fill="#48f6ff" height="2.6" width="2.6" x="73.0" y="49.0"><title>2019-05-07 53 mins</title></rect><rect fill="#47ffff" height="2.6" width="2.6" x="73.0" y="52.5"><title>2019-05-08 65 mins</title></rect><rect fill="#49eeff" height="2.6" width="2.6" x="73.0" y="56.0"><title>2019-05-09 42 mins</title></rect><rect fill="#4cdaff" height="2.6" width="2.6" x="73.0" y="59.5"><title>2019-05-10 12 mins</title></rect><rect fill="#48f9ff" height="2.6" width="2.6" x="73.0" y="63.0"><title>2019-05-11 57 mins</title></rect><rect fill="#49f1ff" height="2.6" width="2.6" x="73.0" y="66.5"><title>2019-05-12 46 mins</title></rect><rect fill="#49f3ff" height="2.6" width="2.6" x="76.5" y="45.5"><title>2019-05-13 49 mins</title></rect><rect fill="#4ae8ff" height="2.6" width="2.6" x="76.5" y="49.0"><title>2019-05-14 33 mins</title></rect><rect fill="#4be3ff" height="2.6" width="2.6" x="76.5" y="52.5"><title>2019-05-15 26 mins</title></rect><rect fill="#47fffe" height="2.6" width="2.6" x="76.5" y="56.0"><title>2019-05-16 67 mins</title></rect><rect fill="#4be2ff" height="2.6" width="2.6" x="76.5" y="59.5"><title>2019-05-17 25 mins</title></rect><rect fill="#4cdcff" height="2.6" width="2.6" x="76.5" y="63.0"><title>2019-05-18 15 mins</title></rect><rect fill="#4ae7ff" height="2.6" width="2.6" x="76.5" y="66.5"><title>2019-05-19 31 mins</title></rect><rect fill="#4aecff" height="2.6" width="2.6" x="80.0" y="45.5"><title>2019-05-20 38 mins</title></rect><rect fill="#4be2ff" height="2.6" width="2.6" x="80.0" y="49.0"><title>2019-05-21 24 mins</title></rect><rect fill="#46fff4" height="2.6" width="2.6" x="80.0" y="52.5"><title>2019-05-22 80 mins</title></rect><rect fill="#48f6ff" height="2.6" width="2.6" x="80.0" y="56.0"><title>2019-05-23 53 mins</title></rect><rect fill="#47fffd" height="2.6" width="2.6" x="80.0" y="59.5"><title>2019-05-24 68 mins</title></rect><rect fill="#48f9ff" height="2.6" width="2.6" x="80.0" y="63.0"><title>2019-05-25 57 mins</title></rect><rect fill="red" height="2.6" width="2.6" x="80.0" y="66.5"><title>2019-05-26 204 mins</title></rect><rect fill="#4cdcff" height="2.6" width="2.6" x="83.5" y="45.5"><title>2019-05-27 15 mins</title></rect><rect fill="#4aecff" height="2.6" width="2.6" x="83.5" y="49.0"><title>2019-05-28 38 mins</title></rect><rect fill="#4be1ff" height="2.6" width="2.6" x="83.5" y="52.5"><title>2019-05-29 23 mins</title></rect><rect fill="#4aeaff" height="2.6" width="2.6" x="83.5" y="56.0"><title>2019-05-30 36 mins</title></rect><rect fill="#4be2ff" height="2.6" width="2.6" x="83.5" y="59.5"><title>2019-05-31 24 mins</title></rect><rect fill="#4bdeff" height="2.6" width="2.6" x="83.5" y="63.0"><title>2019-06-01 18 mins</title></rect><rect fill="#48f7ff" height="2.6" width="2.6" x="83.5" y="66.5"><title>2019-06-02 54 mins</title></rect><rect fill="#49f1ff" height="2.6" width="2.6" x="87.0" y="45.5"><title>2019-06-03 46 mins</title></rect><rect fill="#48f8ff" height="2.6" width="2.6" x="87.0" y="49.0"><title>2019-06-04 55 mins</title></rect><rect fill="#49f3ff" height="2.6" width="2.6" x="87.0" y="52.5"><title>2019-06-05 49 mins</title></rect><rect fill="#49efff" height="2.6" width="2.6" x="87.0" y="56.0"><title>2019-06-06 43 mins</title></rect><rect fill="#47fffc" height="2.6" width="2.6" x="87.0" y="59.5"><title>2019-06-07 69 mins</title></rect><rect fill="#49f1ff" height="2.6" width="2.6" x="87.0" y="63.0"><title>2019-06-08 45 mins</title></rect><rect fill="#444444" height="2.6" width="2.6" x="87.0" y="66.5"><title>2019-06-09</title></rect><rect fill="#49f1ff" height="2.6" width="2.6" x="90.5" y="45.5"><title>2019-06-10 46 mins</title></rect><rect fill="#4ae7ff" height="2.6" width="2.6" x="90.5" y="49.0"><title>2019-06-11 32 mins</title></rect><rect fill="#49edff" height="2.6" width="2.6" x="90.5" y="52.5"><title>2019-06-12 40 mins</title></rect><rect fill="#4aecff" height="2.6" width="2.6" x="90.5" y="56.0"><title>2019-06-13 38 mins</title></rect><rect fill="#49efff" height="2.6" width="2.6" x="90.5" y="59.5"><title>2019-06-14 43 mins</title></rect><rect fill="#4aeaff" height="2.6" width="2.6" x="90.5" y="63.0"><title>2019-06-15 36 mins</title></rect><rect fill="#4ae7ff" height="2.6" width="2.6" x="90.5" y="66.5"><title>2019-06-16 31 mins</title></rect><rect fill="#48f6ff" height="2.6" width="2.6" x="94.0" y="45.5"><title>2019-06-17 53 mins</title></rect><rect fill="#49f1ff" height="2.6" width="2.6" x="94.0" y="49.0"><title>2019-06-18 45 mins</title></rect><rect fill="#49f0ff" height="2.6" width="2.6" x="94.0" y="52.5"><title>2019-06-19 44 mins</title></rect><rect fill="#4ae7ff" height="2.6" width="2.6" x="94.0" y="56.0"><title>2019-06-20 31 mins</title></rect><rect fill="#4ae7ff" height="2.6" width="2.6" x="94.0" y="59.5"><title>2019-06-21 31 mins</title></rect><rect fill="#49f1ff" height="2.6" width="2.6" x="94.0" y="63.0"><title>2019-06-22 46 mins</title></rect><rect fill="#4bdfff" height="2.6" width="2.6" x="94.0" y="66.5"><title>2019-06-23 20 mins</title></rect><rect fill="#4ae9ff" height="2.6" width="2.6" x="97.5" y="45.5"><title>2019-06-24 35 mins</title></rect><rect fill="#4cdcff" height="2.6" width="2.6" x="97.5" y="49.0"><title>2019-06-25 16 mins</title></rect><rect fill="#4cddff" height="2.6" width="2.6" x="97.5" y="52.5"><title>2019-06-26 17 mins</title></rect><rect fill="#49eeff" height="2.6" width="2.6" x="97.5" y="56.0"><title>2019-06-27 42 mins</title></rect><rect fill="#4cdcff" height="2.6" width="2.6" x="97.5" y="59.5"><title>2019-06-28 15 mins</title></rect><rect fill="#4aecff" height="2.6" width="2.6" x="97.5" y="63.0"><title>2019-06-29 38 mins</title></rect><rect fill="#49ecff" height="2.6" width="2.6" x="97.5" y="66.5"><title>2019-06-30 39 mins</title></rect><rect fill="#4be1ff" height="2.6" width="2.6" x="101.0" y="45.5"><title>2019-07-01 23 mins</title></rect><rect fill="#4ae7ff" height="2.6" width="2.6" x="101.0" y="49.0"><title>2019-07-02 32 mins</title></rect><rect fill="#4be2ff" height="2.6" width="2.6" x="101.0" y="52.5"><title>2019-07-03 25 mins</title></rect><rect fill="#49f3ff" height="2.6" width="2.6" x="101.0" y="56.0"><title>2019-07-04 48 mins</title></rect><rect fill="#4be2ff" height="2.6" width="2.6" x="101.0" y="59.5"><title>2019-07-05 25 mins</title></rect><rect fill="#ffe500" height="2.6" width="2.6" x="101.0" y="63.0"><title>2019-07-06 85 mins</title></rect><rect fill="#4ae5ff" height="2.6" width="2.6" x="101.0" y="66.5"><title>2019-07-07 29 mins</title></rect><rect fill="#4ae5ff" height="2.6" width="2.6" x="104.5" y="45.5"><title>2019-07-08 28 mins</title></rect><rect fill="#4be0ff" height="2.6" width="2.6" x="104.5" y="49.0"><title>2019-07-09 21 mins</title></rect><rect fill="#4be3ff" height="2.6" width="2.6" x="104.5" y="52.5"><title>2019-07-10 26 mins</title></rect><rect fill="#4ae6ff" height="2.6" width="2.6" x="104.5" y="56.0"><title>2019-07-11 30 mins</title></rect><rect fill="#4be0ff" height="2.6" width="2.6" x="104.5" y="59.5"><title>2019-07-12 22 mins</title></rect><rect fill="#49edff" height="2.6" width="2.6" x="104.5" y="63.0"><title>2019-07-13 40 mins</title></rect><rect fill="#4cddff" height="2.6" width="2.6" x="104.5" y="66.5"><title>2019-07-14 17 mins</title></rect><rect fill="#4be3ff" height="2.6" width="2.6" x="108.0" y="45.5"><title>2019-07-15 26 mins</title></rect><rect fill="#4be0ff" height="2.6" width="2.6" x="108.0" y="49.0"><title>2019-07-16 22 mins</title></rect><rect fill="#4be2ff" height="2.6" width="2.6" x="108.0" y="52.5"><title>2019-07-17 25 mins</title></rect><rect fill="#49efff" height="2.6" width="2.6" x="108.0" y="56.0"><title>2019-07-18 43 mins</title></rect><rect fill="#4be4ff" height="2.6" width="2.6" x="108.0" y="59.5"><title>2019-07-19 27 mins</title></rect><rect fill="#49f0ff" height="2.6" width="2.6" x="108.0" y="63.0"><title>2019-07-20 44 mins</title></rect><rect fill="#4be2ff" height="2.6" width="2.6" x="108.0" y="66.5"><title>2019-07-21 25 mins</title></rect><rect fill="#49f1ff" height="2.6" width="2.6" x="111.5" y="45.5"><title>2019-07-22 46 mins</title></rect><rect fill="#47fdff" height="2.6" width="2.6" x="111.5" y="49.0"><title>2019-07-23 63 mins</title></rect><rect fill="#4be4ff" height="2.6" width="2.6" x="111.5" y="52.5"><title>2019-07-24 27 mins</title></rect><rect fill="#4ae5ff" height="2.6" width="2.6" x="111.5" y="56.0"><title>2019-07-25 28 mins</title></rect><rect fill="#4bdeff" height="2.6" width="2.6" x="111.5" y="59.5"><title>2019-07-26 19 mins</title></rect><rect fill="#49f1ff" height="2.6" width="2.6" x="111.5" y="63.0"><title>2019-07-27 45 mins</title></rect><rect fill="#48f6ff" height="2.6" width="2.6" x="111.5" y="66.5"><title>2019-07-28 52 mins</title></rect><rect fill="#4be0ff" height="2.6" width="2.6" x="115.0" y="45.5"><title>2019-07-29 21 mins</title></rect><rect fill="#4ae8ff" height="2.6" width="2.6" x="115.0" y="49.0"><title>2019-07-30 33 mins</title></rect><rect fill="#4ae9ff" height="2.6" width="2.6" x="115.0" y="52.5"><title>2019-07-31 35 mins</title></rect><rect fill="#49edff" height="2.6" width="2.6" x="115.0" y="56.0"><title>2019-08-01 40 mins</title></rect><rect fill="#4be0ff" height="2.6" width="2.6" x="115.0" y="59.5"><title>2019-08-02 22 mins</title></rect><rect fill="#49eeff" height="2.6" width="2.6" x="115.0" y="63.0"><title>2019-08-03 42 mins</title></rect><rect fill="#48f7ff" height="2.6" width="2.6" x="115.0" y="66.5"><title>2019-08-04 54 mins</title></rect><rect fill="#49efff" height="2.6" width="2.6" x="118.5" y="45.5"><title>2019-08-05 43 mins</title></rect><rect fill="#48f5ff" height="2.6" width="2.6" x="118.5" y="49.0"><title>2019-08-06 51 mins</title></rect><rect fill="#46fff8" height="2.6" width="2.6" x="118.5" y="52.5"><title>2019-08-07 75 mins</title></rect><rect fill="#4be2ff" height="2.6" width="2.6" x="118.5" y="56.0"><title>2019-08-08 25 mins</title></rect><rect fill="#4aeaff" height="2.6" width="2.6" x="118.5" y="59.5"><title>2019-08-09 36 mins</title></rect><rect fill="#ffd700" height="2.6" width="2.6" x="118.5" y="63.0"><title>2019-08-10 131 mins</title></rect><rect fill="#4be0ff" height="2.6" width="2.6" x="118.5" y="66.5"><title>2019-08-11 22 mins</title></rect><rect fill="#4ae5ff" height="2.6" width="2.6" x="122.0" y="45.5"><title>2019-08-12 28 mins</title></rect><rect fill="#49efff" height="2.6" width="2.6" x="122.0" y="49.0"><title>2019-08-13 43 mins</title></rect><rect fill="#4ae7ff" height="2.6" width="2.6" x="122.0" y="52.5"><title>2019-08-14 32 mins</title></rect><rect fill="#49eeff" height="2.6" width="2.6" x="122.0" y="56.0"><title>2019-08-15 41 mins</title></rect><rect fill="#4be0ff" height="2.6" width="2.6" x="122.0" y="59.5"><title>2019-08-16 22 mins</title></rect><rect fill="#49f2ff" height="2.6" width="2.6" x="122.0" y="63.0"><title>2019-08-17 47 mins</title></rect><rect fill="#49eeff" height="2.6" width="2.6" x="122.0" y="66.5"><title>2019-08-18 41 mins</title></rect><rect fill="#4ae8ff" height="2.6" width="2.6" x="125.5" y="45.5"><title>2019-08-19 33 mins</title></rect><rect fill="#4ae5ff" height="2.6" width="2.6" x="125.5" y="49.0"><title>2019-08-20 28 mins</title></rect><rect fill="#4ae5ff" height="2.6" width="2.6" x="125.5" y="52.5"><title>2019-08-21 28 mins</title></rect><rect fill="#4be1ff" height="2.6" width="2.6" x="125.5" y="56.0"><title>2019-08-22 23 mins</title></rect><rect fill="#4ae5ff" height="2.6" width="2.6" x="125.5" y="59.5"><title>2019-08-23 28 mins</title></rect><rect fill="#4dd5ff" height="2.6" width="2.6" x="125.5" y="63.0"><title>2019-08-24 6 mins</title></rect><rect fill="#4ae8ff" height="2.6" width="2.6" x="125.5" y="66.5"><title>2019-08-25 33 mins</title></rect><rect fill="#49eeff" height="2.6" width="2.6" x="129.0" y="45.5"><title>2019-08-26 42 mins</title></rect><rect fill="#47ffff" height="2.6" width="2.6" x="129.0" y="49.0"><title>2019-08-27 65 mins</title></rect><rect fill="#4ae8ff" height="2.6" width="2.6" x="129.0" y="52.5"><title>2019-08-28 33 mins</title></rect><rect fill="#4aecff" height="2.6" width="2.6" x="129.0" y="56.0"><title>2019-08-29 38 mins</title></rect><rect fill="#49f1ff" height="2.6" width="2.6" x="129.0" y="59.5"><title>2019-08-30 46 mins</title></rect><rect fill="#4aebff" height="2.6" width="2.6" x="129.0" y="63.0"><title>2019-08-31 37 mins</title></rect><rect fill="#4cdcff" height="2.6" width="2.6" x="129.0" y="66.5"><title>2019-09-01 15 mins</title></rect><rect fill="#4cd8ff" height="2.6" width="2.6" x="132.5" y="45.5"><title>2019-09-02 10 mins</title></rect><rect fill="#4dd5ff" height="2.6" width="2.6" x="132.5" y="49.0"><title>2019-09-03 6 mins</title></rect><rect fill="#4cdbff" height="2.6" width="2.6" x="132.5" y="52.5"><title>2019-09-04 14 mins</title></rect><rect fill="#4be1ff" height="2.6" width="2.6" x="132.5" y="56.0"><title>2019-09-05 23 mins</title></rect><rect fill="#4ae7ff" height="2.6" width="2.6" x="132.5" y="59.5"><title>2019-09-06 31 mins</title></rect><rect fill="#4bdeff" height="2.6" width="2.6" x="132.5" y="63.0"><title>2019-09-07 19 mins</title></rect><rect fill="#4aebff" height="2.6" width="2.6" x="132.5" y="66.5"><title>2019-09-08 37 mins</title></rect><rect fill="#4be4ff" height="2.6" width="2.6" x="136.0" y="45.5"><title>2019-09-09 27 mins</title></rect><rect fill="#4be1ff" height="2.6" width="2.6" x="136.0" y="49.0"><title>2019-09-10 23 mins</title></rect><rect fill="#4ae9ff" height="2.6" width="2.6" x="136.0" y="52.5"><title>2019-09-11 35 mins</title></rect><rect fill="#4ae8ff" height="2.6" width="2.6" x="136.0" y="56.0"><title>2019-09-12 33 mins</title></rect><rect fill="#4cddff" height="2.6" width="2.6" x="136.0" y="59.5"><title>2019-09-13 17 mins</title></rect><rect fill="#49f2ff" height="2.6" width="2.6" x="136.0" y="63.0"><title>2019-09-14 47 mins</title></rect><rect fill="#4be1ff" height="2.6" width="2.6" x="136.0" y="66.5"><title>2019-09-15 23 mins</title></rect><rect fill="#4cd9ff" height="2.6" width="2.6" x="139.5" y="45.5"><title>2019-09-16 11 mins</title></rect><rect fill="#ffe000" height="2.6" width="2.6" x="139.5" y="49.0"><title>2019-09-17 100 mins</title></rect><rect fill="#4dd3ff" height="2.6" width="2.6" x="139.5" y="52.5"><title>2019-09-18 3 mins</title></rect><rect fill="#4be1ff" height="2.6" width="2.6" x="139.5" y="56.0"><title>2019-09-19 23 mins</title></rect><rect fill="#4bdeff" height="2.6" width="2.6" x="139.5" y="59.5"><title>2019-09-20 18 mins</title></rect><rect fill="#47ffff" height="2.6" width="2.6" x="139.5" y="63.0"><title>2019-09-21 65 mins</title></rect><rect fill="#47fffb" height="2.6" width="2.6" x="139.5" y="66.5"><title>2019-09-22 70 mins</title></rect><rect fill="#48f6ff" height="2.6" width="2.6" x="143.0" y="45.5"><title>2019-09-23 52 mins</title></rect><rect fill="#45fff1" height="2.6" width="2.6" x="143.0" y="49.0"><title>2019-09-24 84 mins</title></rect><rect fill="#47fffd" height="2.6" width="2.6" x="143.0" y="52.5"><title>2019-09-25 68 mins</title></rect><rect fill="#49efff" height="2.6" width="2.6" x="143.0" y="56.0"><title>2019-09-26 43 mins</title></rect><rect fill="#47fdff" height="2.6" width="2.6" x="143.0" y="59.5"><title>2019-09-27 62 mins</title></rect><rect fill="#ffe100" height="2.6" width="2.6" x="143.0" y="63.0"><title>2019-09-28 97 mins</title></rect><rect fill="#4cdaff" height="2.6" width="2.6" x="143.0" y="66.5"><title>2019-09-29 13 mins</title></rect><rect fill="#47fffe" height="2.6" width="2.6" x="146.5" y="45.5"><title>2019-09-30 67 mins</title></rect><rect fill="#4aebff" height="2.6" width="2.6" x="146.5" y="49.0"><title>2019-10-01 37 mins</title></rect><rect fill="#48f8ff" height="2.6" width="2.6" x="146.5" y="52.5"><title>2019-10-02 56 mins</title></rect><rect fill="#49f0ff" height="2.6" width="2.6" x="146.5" y="56.0"><title>2019-10-03 44 mins</title></rect><rect fill="#46fff9" height="2.6" width="2.6" x="146.5" y="59.5"><title>2019-10-04 74 mins</title></rect><rect fill="#49f1ff" height="2.6" width="2.6" x="146.5" y="63.0"><title>2019-10-05 45 mins</title></rect><rect fill="#47fbff" height="2.6" width="2.6" x="146.5" y="66.5"><title>2019-10-06 60 mins</title></rect><rect fill="#4cd7ff" height="2.6" width="2.6" x="150.0" y="45.5"><title>2019-10-07 9 mins</title></rect><rect fill="#47fffe" height="2.6" width="2.6" x="150.0" y="49.0"><title>2019-10-08 67 mins</title></rect><rect fill="#49f3ff" height="2.6" width="2.6" x="150.0" y="52.5"><title>2019-10-09 48 mins</title></rect><rect fill="#4ae9ff" height="2.6" width="2.6" x="150.0" y="56.0"><title>2019-10-10 35 mins</title></rect><rect fill="#4aeaff" height="2.6" width="2.6" x="150.0" y="59.5"><title>2019-10-11 36 mins</title></rect><rect fill="#47fffd" height="2.6" width="2.6" x="150.0" y="63.0"><title>2019-10-12 68 mins</title></rect><rect fill="#4cdcff" height="2.6" width="2.6" x="150.0" y="66.5"><title>2019-10-13 16 mins</title></rect><rect fill="#49edff" height="2.6" width="2.6" x="153.5" y="45.5"><title>2019-10-14 40 mins</title></rect><rect fill="#45fff3" height="2.6" width="2.6" x="153.5" y="49.0"><title>2019-10-15 82 mins</title></rect><rect fill="#49eeff" height="2.6" width="2.6" x="153.5" y="52.5"><title>2019-10-16 42 mins</title></rect><rect fill="#48f7ff" height="2.6" width="2.6" x="153.5" y="56.0"><title>2019-10-17 54 mins</title></rect><rect fill="#48fbff" height="2.6" width="2.6" x="153.5" y="59.5"><title>2019-10-18 59 mins</title></rect><rect fill="#ffe300" height="2.6" width="2.6" x="153.5" y="63.0"><title>2019-10-19 93 mins</title></rect><rect fill="#4dd4ff" height="2.6" width="2.6" x="153.5" y="66.5"><title>2019-10-20 4 mins</title></rect><rect fill="#47fbff" height="2.6" width="2.6" x="157.0" y="45.5"><title>2019-10-21 60 mins</title></rect><rect fill="#ffdf00" height="2.6" width="2.6" x="157.0" y="49.0"><title>2019-10-22 104 mins</title></rect><rect fill="#49ecff" height="2.6" width="2.6" x="157.0" y="52.5"><title>2019-10-23 39 mins</title></rect><rect fill="#48f7ff" height="2.6" width="2.6" x="157.0" y="56.0"><title>2019-10-24 54 mins</title></rect><rect fill="#ffe100" height="2.6" width="2.6" x="157.0" y="59.5"><title>2019-10-25 98 mins</title></rect><rect fill="#ffe500" height="2.6" width="2.6" x="157.0" y="63.0"><title>2019-10-26 86 mins</title></rect><rect fill="#4cd6ff" height="2.6" width="2.6" x="157.0" y="66.5"><title>2019-10-27 7 mins</title></rect><rect fill="#4ae6ff" height="2.6" width="2.6" x="160.5" y="45.5"><title>2019-10-28 30 mins</title></rect><rect fill="#49f1ff" height="2.6" width="2.6" x="160.5" y="49.0"><title>2019-10-29 45 mins</title></rect><rect fill="#45fff2" height="2.6" width="2.6" x="160.5" y="52.5"><title>2019-10-30 83 mins</title></rect><rect fill="#49edff" height="2.6" width="2.6" x="160.5" y="56.0"><title>2019-10-31 40 mins</title></rect><rect fill="#4ae8ff" height="2.6" width="2.6" x="160.5" y="59.5"><title>2019-11-01 33 mins</title></rect><rect fill="#47fffe" height="2.6" width="2.6" x="160.5" y="63.0"><title>2019-11-02 67 mins</title></rect><rect fill="#46fff9" height="2.6" width="2.6" x="160.5" y="66.5"><title>2019-11-03 73 mins</title></rect><rect fill="#49f1ff" height="2.6" width="2.6" x="164.0" y="45.5"><title>2019-11-04 46 mins</title></rect><rect fill="#4ae6ff" height="2.6" width="2.6" x="164.0" y="49.0"><title>2019-11-05 30 mins</title></rect><rect fill="#48fbff" height="2.6" width="2.6" x="164.0" y="52.5"><title>2019-11-06 59 mins</title></rect><rect fill="#46fffa" height="2.6" width="2.6" x="164.0" y="56.0"><title>2019-11-07 72 mins</title></rect><rect fill="#47fbff" height="2.6" width="2.6" x="164.0" y="59.5"><title>2019-11-08 60 mins</title></rect><rect fill="#4cd7ff" height="2.6" width="2.6" x="164.0" y="63.0"><title>2019-11-09 9 mins</title></rect><rect fill="#4cddff" height="2.6" width="2.6" x="164.0" y="66.5"><title>2019-11-10 17 mins</title></rect><rect fill="#4cd8ff" height="2.6" width="2.6" x="167.5" y="45.5"><title>2019-11-11 10 mins</title></rect><rect fill="#49f3ff" height="2.6" width="2.6" x="167.5" y="49.0"><title>2019-11-12 49 mins</title></rect><rect fill="#48f7ff" height="2.6" width="2.6" x="167.5" y="52.5"><title>2019-11-13 54 mins</title></rect><rect fill="#49f3ff" height="2.6" width="2.6" x="167.5" y="56.0"><title>2019-11-14 48 mins</title></rect><rect fill="#49f1ff" height="2.6" width="2.6" x="167.5" y="59.5"><title>2019-11-15 46 mins</title></rect><rect fill="#4cd8ff" height="2.6" width="2.6" x="167.5" y="63.0"><title>2019-11-16 10 mins</title></rect><rect fill="#4ae5ff" height="2.6" width="2.6" x="167.5" y="66.5"><title>2019-11-17 29 mins</title></rect><rect fill="#4aecff" height="2.6" width="2.6" x="171.0" y="45.5"><title>2019-11-18 38 mins</title></rect><rect fill="#4aecff" height="2.6" width="2.6" x="171.0" y="49.0"><title>2019-11-19 38 mins</title></rect><rect fill="#49eeff" height="2.6" width="2.6" x="171.0" y="52.5"><title>2019-11-20 41 mins</title></rect><rect fill="#49f0ff" height="2.6" width="2.6" x="171.0" y="56.0"><title>2019-11-21 44 mins</title></rect><rect fill="#47fffe" height="2.6" width="2.6" x="171.0" y="59.5"><title>2019-11-22 66 mins</title></rect><rect fill="#4be1ff" height="2.6" width="2.6" x="171.0" y="63.0"><title>2019-11-23 23 mins</title></rect><rect fill="#49eeff" height="2.6" width="2.6" x="171.0" y="66.5"><title>2019-11-24 42 mins</title></rect><rect fill="#47ffff" height="2.6" width="2.6" x="174.5" y="45.5"><title>2019-11-25 65 mins</title></rect><rect fill="#4aecff" height="2.6" width="2.6" x="174.5" y="49.0"><title>2019-11-26 38 mins</title></rect><rect fill="#45fff3" height="2.6" width="2.6" x="174.5" y="52.5"><title>2019-11-27 82 mins</title></rect><rect fill="#4cddff" height="2.6" width="2.6" x="174.5" y="56.0"><title>2019-11-28 17 mins</title></rect><rect fill="#47fdff" height="2.6" width="2.6" x="174.5" y="59.5"><title>2019-11-29 62 mins</title></rect><rect fill="#4aeaff" height="2.6" width="2.6" x="174.5" y="63.0"><title>2019-11-30 36 mins</title></rect><rect fill="#4dd3ff" height="2.6" width="2.6" x="174.5" y="66.5"><title>2019-12-01 2 mins</title></rect><rect fill="#48fbff" height="2.6" width="2.6" x="178.0" y="45.5"><title>2019-12-02 59 mins</title></rect><rect fill="#4aecff" height="2.6" width="2.6" x="178.0" y="49.0"><title>2019-12-03 38 mins</title></rect><rect fill="#49eeff" height="2.6" width="2.6" x="178.0" y="52.5"><title>2019-12-04 42 mins</title></rect><rect fill="#47feff" height="2.6" width="2.6" x="178.0" y="56.0"><title>2019-12-05 64 mins</title></rect><rect fill="#48f6ff" height="2.6" width="2.6" x="178.0" y="59.5"><title>2019-12-06 53 mins</title></rect><rect fill="#4cd7ff" height="2.6" width="2.6" x="178.0" y="63.0"><title>2019-12-07 8 mins</title></rect><rect fill="#4aecff" height="2.6" width="2.6" x="178.0" y="66.5"><title>2019-12-08 38 mins</title></rect><rect fill="#4cdcff" height="2.6" width="2.6" x="181.5" y="45.5"><title>2019-12-09 16 mins</title></rect><rect fill="#ffe000" height="2.6" width="2.6" x="181.5" y="49.0"><title>2019-12-10 102 mins</title></rect><rect fill="#ffe000" height="2.6" width="2.6" x="181.5" y="52.5"><title>2019-12-11 100 mins</title></rect><rect fill="#ffdf00" height="2.6" width="2.6" x="181.5" y="56.0"><title>2019-12-12 104 mins</title></rect><rect fill="red" height="2.6" width="2.6" x="181.5" y="59.5"><title>2019-12-13 176 mins</title></rect><rect fill="#ffd800" height="2.6" width="2.6" x="181.5" y="63.0"><title>2019-12-14 128 mins</title></rect><rect fill="#49edff" height="2.6" width="2.6" x="181.5" y="66.5"><title>2019-12-15 40 mins</title></rect><rect fill="#46fffb" height="2.6" width="2.6" x="185.0" y="45.5"><title>2019-12-16 71 mins</title></rect><rect fill="#48f7ff" height="2.6" width="2.6" x="185.0" y="49.0"><title>2019-12-17 54 mins</title></rect><rect fill="#4cd7ff" height="2.6" width="2.6" x="185.0" y="52.5"><title>2019-12-18 9 mins</title></rect><rect fill="#48fbff" height="2.6" width="2.6" x="185.0" y="56.0"><title>2019-12-19 59 mins</title></rect><rect fill="#49edff" height="2.6" width="2.6" x="185.0" y="59.5"><title>2019-12-20 40 mins</title></rect><rect fill="#47fffd" height="2.6" width="2.6" x="185.0" y="63.0"><title>2019-12-21 68 mins</title></rect><rect fill="#48f9ff" height="2.6" width="2.6" x="185.0" y="66.5"><title>2019-12-22 57 mins</title></rect><rect fill="#ffd900" height="2.6" width="2.6" x="188.5" y="45.5"><title>2019-12-23 123 mins</title></rect><rect fill="#49ecff" height="2.6" width="2.6" x="188.5" y="49.0"><title>2019-12-24 39 mins</title></rect><rect fill="#ffdf00" height="2.6" width="2.6" x="188.5" y="52.5"><title>2019-12-25 106 mins</title></rect><rect fill="#49f0ff" height="2.6" width="2.6" x="188.5" y="56.0"><title>2019-12-26 44 mins</title></rect><rect fill="#4ae5ff" height="2.6" width="2.6" x="188.5" y="59.5"><title>2019-12-27 29 mins</title></rect><rect fill="#4bdfff" height="2.6" width="2.6" x="188.5" y="63.0"><title>2019-12-28 20 mins</title></rect><rect fill="#4be4ff" height="2.6" width="2.6" x="188.5" y="66.5"><title>2019-12-29 27 mins</title></rect><rect fill="#49f2ff" height="2.6" width="2.6" x="192.0" y="45.5"><title>2019-12-30 47 mins</title></rect><rect fill="#4be2ff" height="2.6" width="2.6" x="192.0" y="49.0"><title>2019-12-31 24 mins</title></rect></svg>