<?xml version="1.0" encoding="utf-8" ?>
<svg baseProfile="full" height="78mm" version="1.1" viewBox="0,0,200,78" width="200mm" xmlns="http://www.w3.org/2000/svg" xmlns:ev="http://www.w3.org/2001/xml-events" xmlns:xlink="http://www.w3.org/1999/xlink"><defs /><rect fill="#222222" height="78" width="200" x="0" y="0" /><text fill="#FFFFFF" style="font-size:12px; font-family:Arial; font-weight:bold;" x="10" y="20">rip-tyang apple_health</text><text dominant-baseline="hanging" fill="#FFFFFF" style="font-size:10.0px; font-family:Arial;" x="10" y="30">2022</text><text dominant-baseline="hanging" fill="#FFFFFF" style="font-size:4.125px; font-family:Arial;" x="175" y="35">7511 hours</text><text fill="#FFFFFF" style="font-size:2.5px; font-family:Arial" x="10.0" y="44">Jan</text><text fill="#FFFFFF" style="font-size:2.5px; font-family:Arial" x="25.5" y="44">Feb</text><text fill="#FFFFFF" style="font-size:2.5px; font-family:Arial" x="41.0" y="44">Mar</text><text fill="#FFFFFF" style="font-size:2.5px; font-family:Arial" x="56.5" y="44">Apr</text><text fill="#FFFFFF" style="font-size:2.5px; font-family:Arial" x="72.0" y="44">May</text><text fill="#FFFFFF" style="font-size:2.5px; font-family:Arial" x="87.5" y="44">Jun</text><text fill="#FFFFFF" style="font-size:2.5px; font-family:Arial" x="103.0" y="44">Jul</text><text fill="#FFFFFF" style="font-size:2.5px; font-family:Arial" x="118.5" y="44">Aug</text><text fill="#FFFFFF" style="font-size:2.5px; font-family:Arial" x="134.0" y="44">Sep</text><text fill="#FFFFFF" style="font-size:2.5px; font-family:Arial" x="149.5" y="44">Oct</text><text fill="#FFFFFF" style="font-size:2.5px; font-family:Arial" x="165.0" y="44">Nov</text><text fill="#FFFFFF" style="font-size:2.5px; font-family:Arial" x="180.5" y="44">Dec</text><rect fill="#444444" height="2.6" width="2.6" x="10.0" y="45.5"><title>2021-12-27</title></rect><rect fill="#444444" height="2.6" width="2.6" x="10.0" y="49.0"><title>2021-12-28</title></rect><rect fill="#444444" height="2.6" width="2.6" x="10.0" y="52.5"><title>2021-12-29</title></rect><rect fill="#444444" height="2.6" width="2.6" x="10.0" y="56.0"><title>2021-12-30</title></rect><rect fill="#444444" height="2.6" width="2.6" x="10.0" y="59.5"><title>2021-12-31</title></rect><rect fill="#ff6300" height="2.6" width="2.6" x="10.0" y="63.0"><title>2022-01-01 23 hours</title></rect><rect fill="#ff6300" height="2.6" width="2.6" x="10.0" y="66.5"><title>2022-01-02 23 hours</title></rect><rect fill="#49f2ff" height="2.6" width="2.6" x="13.5" y="45.5"><title>2022-01-03 3 hours</title></rect><rect fill="#ff6a00" height="2.6" width="2.6" x="13.5" y="49.0"><title>2022-01-04 22 hours</title></rect><rect fill="#ff8700" height="2.6" width="2.6" x="13.5" y="52.5"><title>2022-01-05 18 hours</title></rect><rect fill="#ff7100" height="2.6" width="2.6" x="13.5" y="56.0"><title>2022-01-06 21 hours</title></rect><rect fill="#ff6300" height="2.6" width="2.6" x="13.5" y="59.5"><title>2022-01-07 23 hours</title></rect><rect fill="#ff8700" height="2.6" width="2.6" x="13.5" y="63.0"><title>2022-01-08 18 hours</title></rect><rect fill="#ff7100" height="2.6" width="2.6" x="13.5" y="66.5"><title>2022-01-09 21 hours</title></rect><rect fill="#54ff2b" height="2.6" width="2.6" x="17.0" y="45.5"><title>2022-01-10 17 hours</title></rect><rect fill="#ff6300" height="2.6" width="2.6" x="17.0" y="49.0"><title>2022-01-11 23 hours</title></rect><rect fill="#ff6300" height="2.6" width="2.6" x="17.0" y="52.5"><title>2022-01-12 23 hours</title></rect><rect fill="#ff7100" height="2.6" width="2.6" x="17.0" y="56.0"><title>2022-01-13 21 hours</title></rect><rect fill="#ff6a00" height="2.6" width="2.6" x="17.0" y="59.5"><title>2022-01-14 22 hours</title></rect><rect fill="#32ff2f" height="2.6" width="2.6" x="17.0" y="63.0"><title>2022-01-15 15 hours</title></rect><rect fill="#ff7100" height="2.6" width="2.6" x="17.0" y="66.5"><title>2022-01-16 21 hours</title></rect><rect fill="#ff6a00" height="2.6" width="2.6" x="20.5" y="45.5"><title>2022-01-17 22 hours</title></rect><rect fill="#ff7800" height="2.6" width="2.6" x="20.5" y="49.0"><title>2022-01-18 20 hours</title></rect><rect fill="#ff6300" height="2.6" width="2.6" x="20.5" y="52.5"><title>2022-01-19 23 hours</title></rect><rect fill="#33ff56" height="2.6" width="2.6" x="20.5" y="56.0"><title>2022-01-20 13 hours</title></rect><rect fill="#ff7800" height="2.6" width="2.6" x="20.5" y="59.5"><title>2022-01-21 20 hours</title></rect><rect fill="#ff6a00" height="2.6" width="2.6" x="20.5" y="63.0"><title>2022-01-22 22 hours</title></rect><rect fill="#ff7800" height="2.6" width="2.6" x="20.5" y="66.5"><title>2022-01-23 20 hours</title></rect><rect fill="#ff6a00" height="2.6" width="2.6" x="24.0" y="45.5"><title>2022-01-24 22 hours</title></rect><rect fill="#ff7100" height="2.6" width="2.6" x="24.0" y="49.0"><title>2022-01-25 21 hours</title></rect><rect fill="#ff6a00" height="2.6" width="2.6" x="24.0" y="52.5"><title>2022-01-26 22 hours</title></rect><rect fill="#ff7800" height="2.6" width="2.6" x="24.0" y="56.0"><title>2022-01-27 20 hours</title></rect><rect fill="#ff6300" height="2.6" width="2.6" x="24.0" y="59.5"><title>2022-01-28 23 hours</title></rect><rect fill="#ff6a00" height="2.6" width="2.6" x="24.0" y="63.0"><title>2022-01-29 22 hours</title></rect><rect fill="#ff7100" height="2.6" width="2.6" x="24.0" y="66.5"><title>2022-01-30 21 hours</title></rect><rect fill="#54ff2b" height="2.6" width="2.6" x="27.5" y="45.5"><title>2022-01-31 17 hours</title></rect><rect fill="#ff6300" height="2.6" width="2.6" x="27.5" y="49.0"><title>2022-02-01 23 hours</title></rect><rect fill="#ff8700" height="2.6" width="2.6" x="27.5" y="52.5"><title>2022-02-02 18 hours</title></rect><rect fill="#42ff2d" height="2.6" width="2.6" x="27.5" y="56.0"><title>2022-02-03 16 hours</title></rect><rect fill="#ff6300" height="2.6" width="2.6" x="27.5" y="59.5"><title>2022-02-04 23 hours</title></rect><rect fill="#4dd2ff" height="2.6" width="2.6" x="27.5" y="63.0"><title>2022-02-05 1 hours</title></rect><rect fill="#ff6a00" height="2.6" width="2.6" x="27.5" y="66.5"><title>2022-02-06 22 hours</title></rect><rect fill="#42ffd9" height="2.6" width="2.6" x="31.0" y="45.5"><title>2022-02-07 6 hours</title></rect><rect fill="#ff6a00" height="2.6" width="2.6" x="31.0" y="49.0"><title>2022-02-08 22 hours</title></rect><rect fill="#ff6a00" height="2.6" width="2.6" x="31.0" y="52.5"><title>2022-02-09 22 hours</title></rect><rect fill="#35ff6a" height="2.6" width="2.6" x="31.0" y="56.0"><title>2022-02-10 12 hours</title></rect><rect fill="#ff6a00" height="2.6" width="2.6" x="31.0" y="59.5"><title>2022-02-11 22 hours</title></rect><rect fill="#ff8700" height="2.6" width="2.6" x="31.0" y="63.0"><title>2022-02-12 18 hours</title></rect><rect fill="#ff6300" height="2.6" width="2.6" x="31.0" y="66.5"><title>2022-02-13 23 hours</title></rect><rect fill="#ff7800" height="2.6" width="2.6" x="34.5" y="45.5"><title>2022-02-14 20 hours</title></rect><rect fill="#3cffa3" height="2.6" width="2.6" x="34.5" y="49.0"><title>2022-02-15 9 hours</title></rect><rect fill="#ff6a00" height="2.6" width="2.6" x="34.5" y="52.5"><title>2022-02-16 22 hours</title></rect><rect fill="#32ff2f" height="2.6" width="2.6" x="34.5" y="56.0"><title>2022-02-17 15 hours</title></rect><rect fill="#ff5c00" height="2.6" width="2.6" x="34.5" y="59.5"><title>2022-02-18 24 hours</title></rect><rect fill="#ff7800" height="2.6" width="2.6" x="34.5" y="63.0"><title>2022-02-19 20 hours</title></rect><rect fill="red" height="2.6" width="2.6" x="34.5" y="66.5"><title>2022-02-20 29 hours</title></rect><rect fill="#ff8700" height="2.6" width="2.6" x="38.0" y="45.5"><title>2022-02-21 18 hours</title></rect><rect fill="#42ff2d" height="2.6" width="2.6" x="38.0" y="49.0"><title>2022-02-22 16 hours</title></rect><rect fill="#ff7f00" height="2.6" width="2.6" x="38.0" y="52.5"><title>2022-02-23 19 hours</title></rect><rect fill="#ff6300" height="2.6" width="2.6" x="38.0" y="56.0"><title>2022-02-24 23 hours</title></rect><rect fill="#42ff2d" height="2.6" width="2.6" x="38.0" y="59.5"><title>2022-02-25 16 hours</title></rect><rect fill="red" height="2.6" width="2.6" x="38.0" y="63.0"><title>2022-02-26 37 hours</title></rect><rect fill="#ff5c00" height="2.6" width="2.6" x="38.0" y="66.5"><title>2022-02-27 24 hours</title></rect><rect fill="red" height="2.6" width="2.6" x="41.5" y="45.5"><title>2022-02-28 26 hours</title></rect><rect fill="red" height="2.6" width="2.6" x="41.5" y="49.0"><title>2022-03-01 25 hours</title></rect><rect fill="#ff6300" height="2.6" width="2.6" x="41.5" y="52.5"><title>2022-03-02 23 hours</title></rect><rect fill="#ff6a00" height="2.6" width="2.6" x="41.5" y="56.0"><title>2022-03-03 22 hours</title></rect><rect fill="#32ff2f" height="2.6" width="2.6" x="41.5" y="59.5"><title>2022-03-04 15 hours</title></rect><rect fill="#ff8700" height="2.6" width="2.6" x="41.5" y="63.0"><title>2022-03-05 18 hours</title></rect><rect fill="#54ff2b" height="2.6" width="2.6" x="41.5" y="66.5"><title>2022-03-06 17 hours</title></rect><rect fill="#31ff41" height="2.6" width="2.6" x="45.0" y="45.5"><title>2022-03-07 14 hours</title></rect><rect fill="#33ff56" height="2.6" width="2.6" x="45.0" y="49.0"><title>2022-03-08 13 hours</title></rect><rect fill="#ff6a00" height="2.6" width="2.6" x="45.0" y="52.5"><title>2022-03-09 22 hours</title></rect><rect fill="#38ff7d" height="2.6" width="2.6" x="45.0" y="56.0"><title>2022-03-10 11 hours</title></rect><rect fill="#ff6300" height="2.6" width="2.6" x="45.0" y="59.5"><title>2022-03-11 23 hours</title></rect><rect fill="#ff6a00" height="2.6" width="2.6" x="45.0" y="63.0"><title>2022-03-12 22 hours</title></rect><rect fill="#31ff41" height="2.6" width="2.6" x="45.0" y="66.5"><title>2022-03-13 14 hours</title></rect><rect fill="#31ff41" height="2.6" width="2.6" x="48.5" y="45.5"><title>2022-03-14 14 hours</title></rect><rect fill="#ff6300" height="2.6" width="2.6" x="48.5" y="49.0"><title>2022-03-15 23 hours</title></rect><rect fill="#ff7800" height="2.6" width="2.6" x="48.5" y="52.5"><title>2022-03-16 20 hours</title></rect><rect fill="#ff6a00" height="2.6" width="2.6" x="48.5" y="56.0"><title>2022-03-17 22 hours</title></rect><rect fill="red" height="2.6" width="2.6" x="48.5" y="59.5"><title>2022-03-18 25 hours</title></rect><rect fill="#ff6a00" height="2.6" width="2.6" x="48.5" y="63.0"><title>2022-03-19 22 hours</title></rect><rect fill="#ff8700" height="2.6" width="2.6" x="48.5" y="66.5"><title>2022-03-20 18 hours</title></rect><rect fill="#ff6300" height="2.6" width="2.6" x="52.0" y="45.5"><title>2022-03-21 23 hours</title></rect><rect fill="#54ff2b" height="2.6" width="2.6" x="52.0" y="49.0"><title>2022-03-22 17 hours</title></rect><rect fill="#ff6300" height="2.6" width="2.6" x="52.0" y="52.5"><title>2022-03-23 23 hours</title></rect><rect fill="#3aff90" height="2.6" width="2.6" x="52.0" y="56.0"><title>2022-03-24 10 hours</title></rect><rect fill="#ff6300" height="2.6" width="2.6" x="52.0" y="59.5"><title>2022-03-25 23 hours</title></rect><rect fill="#3aff90" height="2.6" width="2.6" x="52.0" y="63.0"><title>2022-03-26 10 hours</title></rect><rect fill="#ff7100" height="2.6" width="2.6" x="52.0" y="66.5"><title>2022-03-27 21 hours</title></rect><rect fill="red" height="2.6" width="2.6" x="55.5" y="45.5"><title>2022-03-28 25 hours</title></rect><rect fill="#32ff2f" height="2.6" width="2.6" x="55.5" y="49.0"><title>2022-03-29 15 hours</title></rect><rect fill="#38ff7d" height="2.6" width="2.6" x="55.5" y="52.5"><title>2022-03-30 11 hours</title></rect><rect fill="#ff5c00" height="2.6" width="2.6" x="55.5" y="56.0"><title>2022-03-31 24 hours</title></rect><rect fill="#42ff2d" height="2.6" width="2.6" x="55.5" y="59.5"><title>2022-04-01 16 hours</title></rect><rect fill="#54ff2b" height="2.6" width="2.6" x="55.5" y="63.0"><title>2022-04-02 17 hours</title></rect><rect fill="#ff6a00" height="2.6" width="2.6" x="55.5" y="66.5"><title>2022-04-03 22 hours</title></rect><rect fill="#38ff7d" height="2.6" width="2.6" x="59.0" y="45.5"><title>2022-04-04 11 hours</title></rect><rect fill="red" height="2.6" width="2.6" x="59.0" y="49.0"><title>2022-04-05 25 hours</title></rect><rect fill="#42ffd9" height="2.6" width="2.6" x="59.0" y="52.5"><title>2022-04-06 6 hours</title></rect><rect fill="#ff6a00" height="2.6" width="2.6" x="59.0" y="56.0"><title>2022-04-07 22 hours</title></rect><rect fill="#ff6a00" height="2.6" width="2.6" x="59.0" y="59.5"><title>2022-04-08 22 hours</title></rect><rect fill="#49f2ff" height="2.6" width="2.6" x="59.0" y="63.0"><title>2022-04-09 3 hours</title></rect><rect fill="#ff6a00" height="2.6" width="2.6" x="59.0" y="66.5"><title>2022-04-10 22 hours</title></rect><rect fill="#ff7100" height="2.6" width="2.6" x="62.5" y="45.5"><title>2022-04-11 21 hours</title></rect><rect fill="#ff6300" height="2.6" width="2.6" x="62.5" y="49.0"><title>2022-04-12 23 hours</title></rect><rect fill="#ff6a00" height="2.6" width="2.6" x="62.5" y="52.5"><title>2022-04-13 22 hours</title></rect><rect fill="#ff7f00" height="2.6" width="2.6" x="62.5" y="56.0"><title>2022-04-14 19 hours</title></rect><rect fill="#ff6300" height="2.6" width="2.6" x="62.5" y="59.5"><title>2022-04-15 23 hours</title></rect><rect fill="#ff7800" height="2.6" width="2.6" x="62.5" y="63.0"><title>2022-04-16 20 hours</title></rect><rect fill="#31ff41" height="2.6" width="2.6" x="62.5" y="66.5"><title>2022-04-17 14 hours</title></rect><rect fill="#54ff2b" height="2.6" width="2.6" x="66.0" y="45.5"><title>2022-04-18 17 hours</title></rect><rect fill="#54ff2b" height="2.6" width="2.6" x="66.0" y="49.0"><title>2022-04-19 17 hours</title></rect><rect fill="#ff7100" height="2.6" width="2.6" x="66.0" y="52.5"><title>2022-04-20 21 hours</title></rect><rect fill="#ff7100" height="2.6" width="2.6" x="66.0" y="56.0"><title>2022-04-21 21 hours</title></rect><rect fill="#31ff41" height="2.6" width="2.6" x="66.0" y="59.5"><title>2022-04-22 14 hours</title></rect><rect fill="#ff6a00" height="2.6" width="2.6" x="66.0" y="63.0"><title>2022-04-23 22 hours</title></rect><rect fill="#32ff2f" height="2.6" width="2.6" x="66.0" y="66.5"><title>2022-04-24 15 hours</title></rect><rect fill="#ff6a00" height="2.6" width="2.6" x="69.5" y="45.5"><title>2022-04-25 22 hours</title></rect><rect fill="#35ff6a" height="2.6" width="2.6" x="69.5" y="49.0"><title>2022-04-26 12 hours</title></rect><rect fill="#ff5c00" height="2.6" width="2.6" x="69.5" y="52.5"><title>2022-04-27 24 hours</title></rect><rect fill="#ff8700" height="2.6" width="2.6" x="69.5" y="56.0"><title>2022-04-28 18 hours</title></rect><rect fill="#ff6a00" height="2.6" width="2.6" x="69.5" y="59.5"><title>2022-04-29 22 hours</title></rect><rect fill="#ff7100" height="2.6" width="2.6" x="69.5" y="63.0"><title>2022-04-30 21 hours</title></rect><rect fill="#3aff90" height="2.6" width="2.6" x="69.5" y="66.5"><title>2022-05-01 10 hours</title></rect><rect fill="#ff6a00" height="2.6" width="2.6" x="73.0" y="45.5"><title>2022-05-02 22 hours</title></rect><rect fill="#3cffa3" height="2.6" width="2.6" x="73.0" y="49.0"><title>2022-05-03 9 hours</title></rect><rect fill="#ff6300" height="2.6" width="2.6" x="73.0" y="52.5"><title>2022-05-04 23 hours</title></rect><rect fill="#ff5c00" height="2.6" width="2.6" x="73.0" y="56.0"><title>2022-05-05 24 hours</title></rect><rect fill="#ff6300" height="2.6" width="2.6" x="73.0" y="59.5"><title>2022-05-06 23 hours</title></rect><rect fill="#54ff2b" height="2.6" width="2.6" x="73.0" y="63.0"><title>2022-05-07 17 hours</title></rect><rect fill="#3effb6" height="2.6" width="2.6" x="73.0" y="66.5"><title>2022-05-08 8 hours</title></rect><rect fill="#ff5c00" height="2.6" width="2.6" x="76.5" y="45.5"><title>2022-05-09 24 hours</title></rect><rect fill="#ff8700" height="2.6" width="2.6" x="76.5" y="49.0"><title>2022-05-10 18 hours</title></rect><rect fill="#ff7100" height="2.6" width="2.6" x="76.5" y="52.5"><title>2022-05-11 21 hours</title></rect><rect fill="#ff6300" height="2.6" width="2.6" x="76.5" y="56.0"><title>2022-05-12 23 hours</title></rect><rect fill="#54ff2b" height="2.6" width="2.6" x="76.5" y="59.5"><title>2022-05-13 17 hours</title></rect><rect fill="#ff6a00" height="2.6" width="2.6" x="76.5" y="63.0"><title>2022-05-14 22 hours</title></rect><rect fill="#ff6300" height="2.6" width="2.6" x="76.5" y="66.5"><title>2022-05-15 23 hours</title></rect><rect fill="#ff6300" height="2.6" width="2.6" x="80.0" y="45.5"><title>2022-05-16 23 hours</title></rect><rect fill="#54ff2b" height="2.6" width="2.6" x="80.0" y="49.0"><title>2022-05-17 17 hours</title></rect><rect fill="#ff5c00" height="2.6" width="2.6" x="80.0" y="52.5"><title>2022-05-18 24 hours</title></rect><rect fill="#42ff2d" height="2.6" width="2.6" x="80.0" y="56.0"><title>2022-05-19 16 hours</title></rect><rect fill="#ff8700" height="2.6" width="2.6" x="80.0" y="59.5"><title>2022-05-20 18 hours</title></rect><rect fill="#42ff2d" height="2.6" width="2.6" x="80.0" y="63.0"><title>2022-05-21 16 hours</title></rect><rect fill="#35ff6a" height="2.6" width="2.6" x="80.0" y="66.5"><title>2022-05-22 12 hours</title></rect><rect fill="#ff6a00" height="2.6" width="2.6" x="83.5" y="45.5"><title>2022-05-23 22 hours</title></rect><rect fill="#ff6300" height="2.6" width="2.6" x="83.5" y="49.0"><title>2022-05-24 23 hours</title></rect><rect fill="#ff6300" height="2.6" width="2.6" x="83.5" y="52.5"><title>2022-05-25 23 hours</title></rect><rect fill="#ff5c00" height="2.6" width="2.6" x="83.5" y="56.0"><title>2022-05-26 24 hours</title></rect><rect fill="#54ff2b" height="2.6" width="2.6" x="83.5" y="59.5"><title>2022-05-27 17 hours</title></rect><rect fill="#ff7100" height="2.6" width="2.6" x="83.5" y="63.0"><title>2022-05-28 21 hours</title></rect><rect fill="#38ff7d" height="2.6" width="2.6" x="83.5" y="66.5"><title>2022-05-29 11 hours</title></rect><rect fill="#ff7f00" height="2.6" width="2.6" x="87.0" y="45.5"><title>2022-05-30 19 hours</title></rect><rect fill="red" height="2.6" width="2.6" x="87.0" y="49.0"><title>2022-05-31 25 hours</title></rect><rect fill="#40ffc8" height="2.6" width="2.6" x="87.0" y="52.5"><title>2022-06-01 7 hours</title></rect><rect fill="#ff7100" height="2.6" width="2.6" x="87.0" y="56.0"><title>2022-06-02 21 hours</title></rect><rect fill="#ff6300" height="2.6" width="2.6" x="87.0" y="59.5"><title>2022-06-03 23 hours</title></rect><rect fill="#54ff2b" height="2.6" width="2.6" x="87.0" y="63.0"><title>2022-06-04 17 hours</title></rect><rect fill="#ff7f00" height="2.6" width="2.6" x="87.0" y="66.5"><title>2022-06-05 19 hours</title></rect><rect fill="#ff5c00" height="2.6" width="2.6" x="90.5" y="45.5"><title>2022-06-06 24 hours</title></rect><rect fill="#ff8700" height="2.6" width="2.6" x="90.5" y="49.0"><title>2022-06-07 18 hours</title></rect><rect fill="red" height="2.6" width="2.6" x="90.5" y="52.5"><title>2022-06-08 26 hours</title></rect><rect fill="#ff6300" height="2.6" width="2.6" x="90.5" y="56.0"><title>2022-06-09 23 hours</title></rect><rect fill="#33ff56" height="2.6" width="2.6" x="90.5" y="59.5"><title>2022-06-10 13 hours</title></rect><rect fill="#ff6a00" height="2.6" width="2.6" x="90.5" y="63.0"><title>2022-06-11 22 hours</title></rect><rect fill="#ff6300" height="2.6" width="2.6" x="90.5" y="66.5"><title>2022-06-12 23 hours</title></rect><rect fill="#ff8700" height="2.6" width="2.6" x="94.0" y="45.5"><title>2022-06-13 18 hours</title></rect><rect fill="#ff5c00" height="2.6" width="2.6" x="94.0" y="49.0"><title>2022-06-14 24 hours</title></rect><rect fill="#42ff2d" height="2.6" width="2.6" x="94.0" y="52.5"><title>2022-06-15 16 hours</title></rect><rect fill="#ff5c00" height="2.6" width="2.6" x="94.0" y="56.0"><title>2022-06-16 24 hours</title></rect><rect fill="#ff6300" height="2.6" width="2.6" x="94.0" y="59.5"><title>2022-06-17 23 hours</title></rect><rect fill="#35ff6a" height="2.6" width="2.6" x="94.0" y="63.0"><title>2022-06-18 12 hours</title></rect><rect fill="#ff7f00" height="2.6" width="2.6" x="94.0" y="66.5"><title>2022-06-19 19 hours</title></rect><rect fill="#ff7f00" height="2.6" width="2.6" x="97.5" y="45.5"><title>2022-06-20 19 hours</title></rect><rect fill="#42ff2d" height="2.6" width="2.6" x="97.5" y="49.0"><title>2022-06-21 16 hours</title></rect><rect fill="#ff5c00" height="2.6" width="2.6" x="97.5" y="52.5"><title>2022-06-22 24 hours</title></rect><rect fill="red" height="2.6" width="2.6" x="97.5" y="56.0"><title>2022-06-23 26 hours</title></rect><rect fill="#ff6300" height="2.6" width="2.6" x="97.5" y="59.5"><title>2022-06-24 23 hours</title></rect><rect fill="#54ff2b" height="2.6" width="2.6" x="97.5" y="63.0"><title>2022-06-25 17 hours</title></rect><rect fill="#ff7100" height="2.6" width="2.6" x="97.5" y="66.5"><title>2022-06-26 21 hours</title></rect><rect fill="#38ff7d" height="2.6" width="2.6" x="101.0" y="45.5"><title>2022-06-27 11 hours</title></rect><rect fill="red" height="2.6" width="2.6" x="101.0" y="49.0"><title>2022-06-28 25 hours</title></rect><rect fill="#31ff41" height="2.6" width="2.6" x="101.0" y="52.5"><title>2022-06-29 14 hours</title></rect><rect fill="#ff5c00" height="2.6" width="2.6" x="101.0" y="56.0"><title>2022-06-30 24 hours</title></rect><rect fill="#ff7100" height="2.6" width="2.6" x="101.0" y="59.5"><title>2022-07-01 21 hours</title></rect><rect fill="red" height="2.6" width="2.6" x="101.0" y="63.0"><title>2022-07-02 27 hours</title></rect><rect fill="#ff6300" height="2.6" width="2.6" x="101.0" y="66.5"><title>2022-07-03 23 hours</title></rect><rect fill="red" height="2.6" width="2.6" x="104.5" y="45.5"><title>2022-07-04 25 hours</title></rect><rect fill="#ff6a00" height="2.6" width="2.6" x="104.5" y="49.0"><title>2022-07-05 22 hours</title></rect><rect fill="#ff5c00" height="2.6" width="2.6" x="104.5" y="52.5"><title>2022-07-06 24 hours</title></rect><rect fill="#ff6a00" height="2.6" width="2.6" x="104.5" y="56.0"><title>2022-07-07 22 hours</title></rect><rect fill="#ff6300" height="2.6" width="2.6" x="104.5" y="59.5"><title>2022-07-08 23 hours</title></rect><rect fill="#42ff2d" height="2.6" width="2.6" x="104.5" y="63.0"><title>2022-07-09 16 hours</title></rect><rect fill="#ff5c00" height="2.6" width="2.6" x="104.5" y="66.5"><title>2022-07-10 24 hours</title></rect><rect fill="#32ff2f" height="2.6" width="2.6" x="108.0" y="45.5"><title>2022-07-11 15 hours</title></rect><rect fill="#ff7f00" height="2.6" width="2.6" x="108.0" y="49.0"><title>2022-07-12 19 hours</title></rect><rect fill="#ff7800" height="2.6" width="2.6" x="108.0" y="52.5"><title>2022-07-13 20 hours</title></rect><rect fill="#ff6300" height="2.6" width="2.6" x="108.0" y="56.0"><title>2022-07-14 23 hours</title></rect><rect fill="#42ff2d" height="2.6" width="2.6" x="108.0" y="59.5"><title>2022-07-15 16 hours</title></rect><rect fill="#ff7100" height="2.6" width="2.6" x="108.0" y="63.0"><title>2022-07-16 21 hours</title></rect><rect fill="#ff5c00" height="2.6" width="2.6" x="108.0" y="66.5"><title>2022-07-17 24 hours</title></rect><rect fill="#ff6a00" height="2.6" width="2.6" x="111.5" y="45.5"><title>2022-07-18 22 hours</title></rect><rect fill="#ff5c00" height="2.6" width="2.6" x="111.5" y="49.0"><title>2022-07-19 24 hours</title></rect><rect fill="#42ff2d" height="2.6" width="2.6" x="111.5" y="52.5"><title>2022-07-20 16 hours</title></rect><rect fill="#ff6a00" height="2.6" width="2.6" x="111.5" y="56.0"><title>2022-07-21 22 hours</title></rect><rect fill="#ff7800" height="2.6" width="2.6" x="111.5" y="59.5"><title>2022-07-22 20 hours</title></rect><rect fill="#ff5c00" height="2.6" width="2.6" x="111.5" y="63.0"><title>2022-07-23 24 hours</title></rect><rect fill="#42ff2d" height="2.6" width="2.6" x="111.5" y="66.5"><title>2022-07-24 16 hours</title></rect><rect fill="#33ff56" height="2.6" width="2.6" x="115.0" y="45.5"><title>2022-07-25 13 hours</title></rect><rect fill="#ff5c00" height="2.6" width="2.6" x="115.0" y="49.0"><title>2022-07-26 24 hours</title></rect><rect fill="#ff7800" height="2.6" width="2.6" x="115.0" y="52.5"><title>2022-07-27 20 hours</title></rect><rect fill="#32ff2f" height="2.6" width="2.6" x="115.0" y="56.0"><title>2022-07-28 15 hours</title></rect><rect fill="red" height="2.6" width="2.6" x="115.0" y="59.5"><title>2022-07-29 25 hours</title></rect><rect fill="#42ff2d" height="2.6" width="2.6" x="115.0" y="63.0"><title>2022-07-30 16 hours</title></rect><rect fill="#31ff41" height="2.6" width="2.6" x="115.0" y="66.5"><title>2022-07-31 14 hours</title></rect><rect fill="#54ff2b" height="2.6" width="2.6" x="118.5" y="45.5"><title>2022-08-01 17 hours</title></rect><rect fill="#42ff2d" height="2.6" width="2.6" x="118.5" y="49.0"><title>2022-08-02 16 hours</title></rect><rect fill="#ff8700" height="2.6" width="2.6" x="118.5" y="52.5"><title>2022-08-03 18 hours</title></rect><rect fill="#ff6a00" height="2.6" width="2.6" x="118.5" y="56.0"><title>2022-08-04 22 hours</title></rect><rect fill="#ff6a00" height="2.6" width="2.6" x="118.5" y="59.5"><title>2022-08-05 22 hours</title></rect><rect fill="#ff6300" height="2.6" width="2.6" x="118.5" y="63.0"><title>2022-08-06 23 hours</title></rect><rect fill="#31ff41" height="2.6" width="2.6" x="118.5" y="66.5"><title>2022-08-07 14 hours</title></rect><rect fill="#ff6a00" height="2.6" width="2.6" x="122.0" y="45.5"><title>2022-08-08 22 hours</title></rect><rect fill="#ff6a00" height="2.6" width="2.6" x="122.0" y="49.0"><title>2022-08-09 22 hours</title></rect><rect fill="#ff5c00" height="2.6" width="2.6" x="122.0" y="52.5"><title>2022-08-10 24 hours</title></rect><rect fill="#42ff2d" height="2.6" width="2.6" x="122.0" y="56.0"><title>2022-08-11 16 hours</title></rect><rect fill="#ff6a00" height="2.6" width="2.6" x="122.0" y="59.5"><title>2022-08-12 22 hours</title></rect><rect fill="#54ff2b" height="2.6" width="2.6" x="122.0" y="63.0"><title>2022-08-13 17 hours</title></rect><rect fill="#33ff56" height="2.6" width="2.6" x="122.0" y="66.5"><title>2022-08-14 13 hours</title></rect><rect fill="#ff6300" height="2.6" width="2.6" x="125.5" y="45.5"><title>2022-08-15 23 hours</title></rect><rect fill="#42ff2d" height="2.6" width="2.6" x="125.5" y="49.0"><title>2022-08-16 16 hours</title></rect><rect fill="#ff7100" height="2.6" width="2.6" x="125.5" y="52.5"><title>2022-08-17 21 hours</title></rect><rect fill="red" height="2.6" width="2.6" x="125.5" y="56.0"><title>2022-08-18 25 hours</title></rect><rect fill="#4dd2ff" height="2.6" width="2.6" x="125.5" y="59.5"><title>2022-08-19 1 hours</title></rect><rect fill="#ff6a00" height="2.6" width="2.6" x="125.5" y="63.0"><title>2022-08-20 22 hours</title></rect><rect fill="#ff6a00" height="2.6" width="2.6" x="125.5" y="66.5"><title>2022-08-21 22 hours</title></rect><rect fill="#ff5c00" height="2.6" width="2.6" x="129.0" y="45.5"><title>2022-08-22 24 hours</title></rect><rect fill="#31ff41" height="2.6" width="2.6" x="129.0" y="49.0"><title>2022-08-23 14 hours</title></rect><rect fill="#ff6300" height="2.6" width="2.6" x="129.0" y="52.5"><title>2022-08-24 23 hours</title></rect><rect fill="#ff7100" height="2.6" width="2.6" x="129.0" y="56.0"><title>2022-08-25 21 hours</title></rect><rect fill="#ff7100" height="2.6" width="2.6" x="129.0" y="59.5"><title>2022-08-26 21 hours</title></rect><rect fill="#ff8700" height="2.6" width="2.6" x="129.0" y="63.0"><title>2022-08-27 18 hours</title></rect><rect fill="#31ff41" height="2.6" width="2.6" x="129.0" y="66.5"><title>2022-08-28 14 hours</title></rect><rect fill="#ff5c00" height="2.6" width="2.6" x="132.5" y="45.5"><title>2022-08-29 24 hours</title></rect><rect fill="#ff7f00" height="2.6" width="2.6" x="132.5" y="49.0"><title>2022-08-30 19 hours</title></rect><rect fill="red" height="2.6" width="2.6" x="132.5" y="52.5"><title>2022-08-31 25 hours</title></rect><rect fill="#33ff56" height="2.6" width="2.6" x="132.5" y="56.0"><title>2022-09-01 13 hours</title></rect><rect fill="#ff6a00" height="2.6" width="2.6" x="132.5" y="59.5"><title>2022-09-02 22 hours</title></rect><rect fill="#ff7100" height="2.6" width="2.6" x="132.5" y="63.0"><title>2022-09-03 21 hours</title></rect><rect fill="#42ff2d" height="2.6" width="2.6" x="132.5" y="66.5"><title>2022-09-04 16 hours</title></rect><rect fill="#ff7800" height="2.6" width="2.6" x="136.0" y="45.5"><title>2022-09-05 20 hours</title></rect><rect fill="#ff7800" height="2.6" width="2.6" x="136.0" y="49.0"><title>2022-09-06 20 hours</title></rect><rect fill="#ff6300" height="2.6" width="2.6" x="136.0" y="52.5"><title>2022-09-07 23 hours</title></rect><rect fill="#ff6a00" height="2.6" width="2.6" x="136.0" y="56.0"><title>2022-09-08 22 hours</title></rect><rect fill="#ff6300" height="2.6" width="2.6" x="136.0" y="59.5"><title>2022-09-09 23 hours</title></rect><rect fill="#ff7100" height="2.6" width="2.6" x="136.0" y="63.0"><title>2022-09-10 21 hours</title></rect><rect fill="#ff7f00" height="2.6" width="2.6" x="136.0" y="66.5"><title>2022-09-11 19 hours</title></rect><rect fill="#ff6300" height="2.6" width="2.6" x="139.5" y="45.5"><title>2022-09-12 23 hours</title></rect><rect fill="#ff7800" height="2.6" width="2.6" x="139.5" y="49.0"><title>2022-09-13 20 hours</title></rect><rect fill="red" height="2.6" width="2.6" x="139.5" y="52.5"><title>2022-09-14 25 hours</title></rect><rect fill="#ff6a00" height="2.6" width="2.6" x="139.5" y="56.0"><title>2022-09-15 22 hours</title></rect><rect fill="#ff6300" height="2.6" width="2.6" x="139.5" y="59.5"><title>2022-09-16 23 hours</title></rect><rect fill="#ff6a00" height="2.6" width="2.6" x="139.5" y="63.0"><title>2022-09-17 22 hours</title></rect><rect fill="#ff6300" height="2.6" width="2.6" x="139.5" y="66.5"><title>2022-09-18 23 hours</title></rect><rect fill="#ff7f00" height="2.6" width="2.6" x="143.0" y="45.5"><title>2022-09-19 19 hours</title></rect><rect fill="red" height="2.6" width="2.6" x="143.0" y="49.0"><title>2022-09-20 25 hours</title></rect><rect fill="#ff7f00" height="2.6" width="2.6" x="143.0" y="52.5"><title>2022-09-21 19 hours</title></rect><rect fill="#ff6a00" height="2.6" width="2.6" x="143.0" y="56.0"><title>2022-09-22 22 hours</title></rect><rect fill="#ff6300" height="2.6" width="2.6" x="143.0" y="59.5"><title>2022-09-23 23 hours</title></rect><rect fill="#42ff2d" height="2.6" width="2.6" x="143.0" y="63.0"><title>2022-09-24 16 hours</title></rect><rect fill="#ff6300" height="2.6" width="2.6" x="143.0" y="66.5"><title>2022-09-25 23 hours</title></rect><rect fill="#31ff41" height="2.6" width="2.6" x="146.5" y="45.5"><title>2022-09-26 14 hours</title></rect><rect fill="red" height="2.6" width="2.6" x="146.5" y="49.0"><title>2022-09-27 25 hours</title></rect><rect fill="#ff5c00" height="2.6" width="2.6" x="146.5" y="52.5"><title>2022-09-28 24 hours</title></rect><rect fill="#ff6300" height="2.6" width="2.6" x="146.5" y="56.0"><title>2022-09-29 23 hours</title></rect><rect fill="#ff6300" height="2.6" width="2.6" x="146.5" y="59.5"><title>2022-09-30 23 hours</title></rect><rect fill="#ff6300" height="2.6" width="2.6" x="146.5" y="63.0"><title>2022-10-01 23 hours</title></rect><rect fill="#ff6300" height="2.6" width="2.6" x="146.5" y="66.5"><title>2022-10-02 23 hours</title></rect><rect fill="#ff5c00" height="2.6" width="2.6" x="150.0" y="45.5"><title>2022-10-03 24 hours</title></rect><rect fill="#ff5c00" height="2.6" width="2.6" x="150.0" y="49.0"><title>2022-10-04 24 hours</title></rect><rect fill="#ff7100" height="2.6" width="2.6" x="150.0" y="52.5"><title>2022-10-05 21 hours</title></rect><rect fill="#ff5c00" height="2.6" width="2.6" x="150.0" y="56.0"><title>2022-10-06 24 hours</title></rect><rect fill="#ff6a00" height="2.6" width="2.6" x="150.0" y="59.5"><title>2022-10-07 22 hours</title></rect><rect fill="#ff5c00" height="2.6" width="2.6" x="150.0" y="63.0"><title>2022-10-08 24 hours</title></rect><rect fill="#ff7800" height="2.6" width="2.6" x="150.0" y="66.5"><title>2022-10-09 20 hours</title></rect><rect fill="#ff6300" height="2.6" width="2.6" x="153.5" y="45.5"><title>2022-10-10 23 hours</title></rect><rect fill="red" height="2.6" width="2.6" x="153.5" y="49.0"><title>2022-10-11 27 hours</title></rect><rect fill="#ff5c00" height="2.6" width="2.6" x="153.5" y="52.5"><title>2022-10-12 24 hours</title></rect><rect fill="#ff5c00" height="2.6" width="2.6" x="153.5" y="56.0"><title>2022-10-13 24 hours</title></rect><rect fill="#ff6300" height="2.6" width="2.6" x="153.5" y="59.5"><title>2022-10-14 23 hours</title></rect><rect fill="#ff5c00" height="2.6" width="2.6" x="153.5" y="63.0"><title>2022-10-15 24 hours</title></rect><rect fill="#ff6300" height="2.6" width="2.6" x="153.5" y="66.5"><title>2022-10-16 23 hours</title></rect><rect fill="#ff5c00" height="2.6" width="2.6" x="157.0" y="45.5"><title>2022-10-17 24 hours</title></rect><rect fill="#ff6300" height="2.6" width="2.6" x="157.0" y="49.0"><title>2022-10-18 23 hours</title></rect><rect fill="#ff6300" height="2.6" width="2.6" x="157.0" y="52.5"><title>2022-10-19 23 hours</title></rect><rect fill="#ff6a00" height="2.6" width="2.6" x="157.0" y="56.0"><title>2022-10-20 22 hours</title></rect><rect fill="#ff5c00" height="2.6" width="2.6" x="157.0" y="59.5"><title>2022-10-21 24 hours</title></rect><rect fill="#ff6a00" height="2.6" width="2.6" x="157.0" y="63.0"><title>2022-10-22 22 hours</title></rect><rect fill="#ff6a00" height="2.6" width="2.6" x="157.0" y="66.5"><title>2022-10-23 22 hours</title></rect><rect fill="#ff6300" height="2.6" width="2.6" x="160.5" y="45.5"><title>2022-10-24 23 hours</title></rect><rect fill="#ff6300" height="2.6" width="2.6" x="160.5" y="49.0"><title>2022-10-25 23 hours</title></rect><rect fill="red" height="2.6" width="2.6" x="160.5" y="52.5"><title>2022-10-26 25 hours</title></rect><rect fill="#ff6a00" height="2.6" width="2.6" x="160.5" y="56.0"><title>2022-10-27 22 hours</title></rect><rect fill="red" height="2.6" width="2.6" x="160.5" y="59.5"><title>2022-10-28 25 hours</title></rect><rect fill="#ff5c00" height="2.6" width="2.6" x="160.5" y="63.0"><title>2022-10-29 24 hours</title></rect><rect fill="#ff6300" height="2.6" width="2.6" x="160.5" y="66.5"><title>2022-10-30 23 hours</title></rect><rect fill="#ff6a00" height="2.6" width="2.6" x="164.0" y="45.5"><title>2022-10-31 22 hours</title></rect><rect fill="red" height="2.6" width="2.6" x="164.0" y="49.0"><title>2022-11-01 25 hours</title></rect><rect fill="#ff5c00" height="2.6" width="2.6" x="164.0" y="52.5"><title>2022-11-02 24 hours</title></rect><rect fill="#ff5c00" height="2.6" width="2.6" x="164.0" y="56.0"><title>2022-11-03 24 hours</title></rect><rect fill="#ff6300" height="2.6" width="2.6" x="164.0" y="59.5"><title>2022-11-04 23 hours</title></rect><rect fill="#ff6300" height="2.6" width="2.6" x="164.0" y="63.0"><title>2022-11-05 23 hours</title></rect><rect fill="#ff6300" height="2.6" width="2.6" x="164.0" y="66.5"><title>2022-11-06 23 hours</title></rect><rect fill="#ff5c00" height="2.6" width="2.6" x="167.5" y="45.5"><title>2022-11-07 24 hours</title></rect><rect fill="red" height="2.6" width="2.6" x="167.5" y="49.0"><title>2022-11-08 27 hours</title></rect><rect fill="#ff5c00" height="2.6" width="2.6" x="167.5" y="52.5"><title>2022-11-09 24 hours</title></rect><rect fill="#ff6300" height="2.6" width="2.6" x="167.5" y="56.0"><title>2022-11-10 23 hours</title></rect><rect fill="#ff5c00" height="2.6" width="2.6" x="167.5" y="59.5"><title>2022-11-11 24 hours</title></rect><rect fill="#ff6300" height="2.6" width="2.6" x="167.5" y="63.0"><title>2022-11-12 23 hours</title></rect><rect fill="red" height="2.6" width="2.6" x="167.5" y="66.5"><title>2022-11-13 25 hours</title></rect><rect fill="#ff6300" height="2.6" width="2.6" x="171.0" y="45.5"><title>2022-11-14 23 hours</title></rect><rect fill="#ff7100" height="2.6" width="2.6" x="171.0" y="49.0"><title>2022-11-15 21 hours</title></rect><rect fill="#ff5c00" height="2.6" width="2.6" x="171.0" y="52.5"><title>2022-11-16 24 hours</title></rect><rect fill="#ff5c00" height="2.6" width="2.6" x="171.0" y="56.0"><title>2022-11-17 24 hours</title></rect><rect fill="#ff5c00" height="2.6" width="2.6" x="171.0" y="59.5"><title>2022-11-18 24 hours</title></rect><rect fill="#ff5c00" height="2.6" width="2.6" x="171.0" y="63.0"><title>2022-11-19 24 hours</title></rect><rect fill="#ff5c00" height="2.6" width="2.6" x="171.0" y="66.5"><title>2022-11-20 24 hours</title></rect><rect fill="#ff6300" height="2.6" width="2.6" x="174.5" y="45.5"><title>2022-11-21 23 hours</title></rect><rect fill="#ff6300" height="2.6" width="2.6" x="174.5" y="49.0"><title>2022-11-22 23 hours</title></rect><rect fill="#ff6300" height="2.6" width="2.6" x="174.5" y="52.5"><title>2022-11-23 23 hours</title></rect><rect fill="#ff5c00" height="2.6" width="2.6" x="174.5" y="56.0"><title>2022-11-24 24 hours</title></rect><rect fill="#ff6a00" height="2.6" width="2.6" x="174.5" y="59.5"><title>2022-11-25 22 hours</title></rect><rect fill="#ff5c00" height="2.6" width="2.6" x="174.5" y="63.0"><title>2022-11-26 24 hours</title></rect><rect fill="#ff6300" height="2.6" width="2.6" x="174.5" y="66.5"><title>2022-11-27 23 hours</title></rect><rect fill="#ff5c00" height="2.6" width="2.6" x="178.0" y="45.5"><title>2022-11-28 24 hours</title></rect><rect fill="red" height="2.6" width="2.6" x="178.0" y="49.0"><title>2022-11-29 25 hours</title></rect><rect fill="#ff6a00" height="2.6" width="2.6" x="178.0" y="52.5"><title>2022-11-30 22 hours</title></rect><rect fill="#ff6a00" height="2.6" width="2.6" x="178.0" y="56.0"><title>2022-12-01 22 hours</title></rect><rect fill="#ff5c00" height="2.6" width="2.6" x="178.0" y="59.5"><title>2022-12-02 24 hours</title></rect><rect fill="#ff5c00" height="2.6" width="2.6" x="178.0" y="63.0"><title>2022-12-03 24 hours</title></rect><rect fill="#ff6300" height="2.6" width="2.6" x="178.0" y="66.5"><title>2022-12-04 23 hours</title></rect><rect fill="#ff7800" height="2.6" width="2.6" x="181.5" y="45.5"><title>2022-12-05 20 hours</title></rect><rect fill="#ff5c00" height="2.6" width="2.6" x="181.5" y="49.0"><title>2022-12-06 24 hours</title></rect><rect fill="#ff5c00" height="2.6" width="2.6" x="181.5" y="52.5"><title>2022-12-07 24 hours</title></rect><rect fill="#ff5c00" height="2.6" width="2.6" x="181.5" y="56.0"><title>2022-12-08 24 hours</title></rect><rect fill="#ff7100" height="2.6" width="2.6" x="181.5" y="59.5"><title>2022-12-09 21 hours</title></rect><rect fill="#ff5c00" height="2.6" width="2.6" x="181.5" y="63.0"><title>2022-12-10 24 hours</title></rect><rect fill="#ff6300" height="2.6" width="2.6" x="181.5" y="66.5"><title>2022-12-11 23 hours</title></rect><rect fill="#ff5c00" height="2.6" width="2.6" x="185.0" y="45.5"><title>2022-12-12 24 hours</title></rect><rect fill="#ff6300" height="2.6" width="2.6" x="185.0" y="49.0"><title>2022-12-13 23 hours</title></rect><rect fill="#ff5c00" height="2.6" width="2.6" x="185.0" y="52.5"><title>2022-12-14 24 hours</title></rect><rect fill="#ff6300" height="2.6" width="2.6" x="185.0" y="56.0"><title>2022-12-15 23 hours</title></rect><rect fill="#ff7f00" height="2.6" width="2.6" x="185.0" y="59.5"><title>2022-12-16 19 hours</title></rect><rect fill="#ff5c00" height="2.6" width="2.6" x="185.0" y="63.0"><title>2022-12-17 24 hours</title></rect><rect fill="#ff6a00" height="2.6" width="2.6" x="185.0" y="66.5"><title>2022-12-18 22 hours</title></rect><rect fill="#ff5c00" height="2.6" width="2.6" x="188.5" y="45.5"><title>2022-12-19 24 hours</title></rect><rect fill="#ff5c00" height="2.6" width="2.6" x="188.5" y="49.0"><title>2022-12-20 24 hours</title></rect><rect fill="#ff5c00" height="2.6" width="2.6" x="188.5" y="52.5"><title>2022-12-21 24 hours</title></rect><rect fill="#ff7100" height="2.6" width="2.6" x="188.5" y="56.0"><title>2022-12-22 21 hours</title></rect><rect fill="#ff5c00" height="2.6" width="2.6" x="188.5" y="59.5"><title>2022-12-23 24 hours</title></rect><rect fill="#ff6300" height="2.6" width="2.6" x="188.5" y="63.0"><title>2022-12-24 23 hours</title></rect><rect fill="#ff5c00" height="2.6" width="2.6" x="188.5" y="66.5"><title>2022-12-25 24 hours</title></rect><rect fill="#ff6300" height="2.6" width="2.6" x="192.0" y="45.5"><title>2022-12-26 23 hours</title></rect><rect fill="red" height="2.6" width="2.6" x="192.0" y="49.0"><title>2022-12-27 25 hours</title></rect><rect fill="#ff6300" height="2.6" width="2.6" x="192.0" y="52.5"><title>2022-12-28 23 hours</title></rect><rect fill="#ff5c00" height="2.6" width="2.6" x="192.0" y="56.0"><title>2022-12-29 24 hours</title></rect><rect fill="#ff5c00" height="2.6" width="2.6" x="192.0" y="59.5"><title>2022-12-30 24 hours</title></rect><rect fill="#ff6a00" height="2.6" width="2.6" x="192.0" y="63.0"><title>2022-12-31 22 hours</title></rect></svg>