<?xml version="1.0" encoding="utf-8" ?>
<svg baseProfile="full" height="78mm" version="1.1" viewBox="0,0,200,78" width="200mm" xmlns="http://www.w3.org/2000/svg" xmlns:ev="http://www.w3.org/2001/xml-events" xmlns:xlink="http://www.w3.org/1999/xlink"><defs /><rect fill="#222222" height="78" width="200" x="0" y="0" /><text fill="#FFFFFF" style="font-size:12px; font-family:Arial; font-weight:bold;" x="10" y="20">rip-tyang bilibili</text><text dominant-baseline="hanging" fill="#FFFFFF" style="font-size:10.0px; font-family:Arial;" x="10" y="30">2023</text><text dominant-baseline="hanging" fill="#FFFFFF" style="font-size:4.125px; font-family:Arial;" x="175" y="35">9475 videos</text><text fill="#FFFFFF" style="font-size:2.5px; font-family:Arial" x="10.0" y="44">Jan</text><text fill="#FFFFFF" style="font-size:2.5px; font-family:Arial" x="25.5" y="44">Feb</text><text fill="#FFFFFF" style="font-size:2.5px; font-family:Arial" x="41.0" y="44">Mar</text><text fill="#FFFFFF" style="font-size:2.5px; font-family:Arial" x="56.5" y="44">Apr</text><text fill="#FFFFFF" style="font-size:2.5px; font-family:Arial" x="72.0" y="44">May</text><text fill="#FFFFFF" style="font-size:2.5px; font-family:Arial" x="87.5" y="44">Jun</text><text fill="#FFFFFF" style="font-size:2.5px; font-family:Arial" x="103.0" y="44">Jul</text><text fill="#FFFFFF" style="font-size:2.5px; font-family:Arial" x="118.5" y="44">Aug</text><text fill="#FFFFFF" style="font-size:2.5px; font-family:Arial" x="134.0" y="44">Sep</text><text fill="#FFFFFF" style="font-size:2.5px; font-family:Arial" x="149.5" y="44">Oct</text><text fill="#FFFFFF" style="font-size:2.5px; font-family:Arial" x="165.0" y="44">Nov</text><text fill="#FFFFFF" style="font-size:2.5px; font-family:Arial" x="180.5" y="44">Dec</text><rect fill="#4dd2ff" height="2.6" width="2.6" x="10.0" y="45.5"><title>2022-12-26 1 videos</title></rect><rect fill="#4dd2ff" height="2.6" width="2.6" x="10.0" y="49.0"><title>2022-12-27 1 videos</title></rect><rect fill="#444444" height="2.6" width="2.6" x="10.0" y="52.5"><title>2022-12-28</title></rect><rect fill="#4dd5ff" height="2.6" width="2.6" x="10.0" y="56.0"><title>2022-12-29 2 videos</title></rect><rect fill="#4dd2ff" height="2.6" width="2.6" x="10.0" y="59.5"><title>2022-12-30 1 videos</title></rect><rect fill="#4dd5ff" height="2.6" width="2.6" x="10.0" y="63.0"><title>2022-12-31 2 videos</title></rect><rect fill="#444444" height="2.6" width="2.6" x="10.0" y="66.5"><title>2023-01-01</title></rect><rect fill="#444444" height="2.6" width="2.6" x="13.5" y="45.5"><title>2023-01-02</title></rect><rect fill="#444444" height="2.6" width="2.6" x="13.5" y="49.0"><title>2023-01-03</title></rect><rect fill="#4cddff" height="2.6" width="2.6" x="13.5" y="52.5"><title>2023-01-04 5 videos</title></rect><rect fill="#444444" height="2.6" width="2.6" x="13.5" y="56.0"><title>2023-01-05</title></rect><rect fill="#444444" height="2.6" width="2.6" x="13.5" y="59.5"><title>2023-01-06</title></rect><rect fill="#444444" height="2.6" width="2.6" x="13.5" y="63.0"><title>2023-01-07</title></rect><rect fill="#444444" height="2.6" width="2.6" x="13.5" y="66.5"><title>2023-01-08</title></rect><rect fill="#444444" height="2.6" width="2.6" x="17.0" y="45.5"><title>2023-01-09</title></rect><rect fill="#444444" height="2.6" width="2.6" x="17.0" y="49.0"><title>2023-01-10</title></rect><rect fill="#444444" height="2.6" width="2.6" x="17.0" y="52.5"><title>2023-01-11</title></rect><rect fill="#444444" height="2.6" width="2.6" x="17.0" y="56.0"><title>2023-01-12</title></rect><rect fill="#444444" height="2.6" width="2.6" x="17.0" y="59.5"><title>2023-01-13</title></rect><rect fill="#444444" height="2.6" width="2.6" x="17.0" y="63.0"><title>2023-01-14</title></rect><rect fill="#4dd2ff" height="2.6" width="2.6" x="17.0" y="66.5"><title>2023-01-15 1 videos</title></rect><rect fill="#444444" height="2.6" width="2.6" x="20.5" y="45.5"><title>2023-01-16</title></rect><rect fill="#4cdaff" height="2.6" width="2.6" x="20.5" y="49.0"><title>2023-01-17 4 videos</title></rect><rect fill="#444444" height="2.6" width="2.6" x="20.5" y="52.5"><title>2023-01-18</title></rect><rect fill="#444444" height="2.6" width="2.6" x="20.5" y="56.0"><title>2023-01-19</title></rect><rect fill="#444444" height="2.6" width="2.6" x="20.5" y="59.5"><title>2023-01-20</title></rect><rect fill="#4dd2ff" height="2.6" width="2.6" x="20.5" y="63.0"><title>2023-01-21 1 videos</title></rect><rect fill="#444444" height="2.6" width="2.6" x="20.5" y="66.5"><title>2023-01-22</title></rect><rect fill="#444444" height="2.6" width="2.6" x="24.0" y="45.5"><title>2023-01-23</title></rect><rect fill="#4dd2ff" height="2.6" width="2.6" x="24.0" y="49.0"><title>2023-01-24 1 videos</title></rect><rect fill="#444444" height="2.6" width="2.6" x="24.0" y="52.5"><title>2023-01-25</title></rect><rect fill="#444444" height="2.6" width="2.6" x="24.0" y="56.0"><title>2023-01-26</title></rect><rect fill="#444444" height="2.6" width="2.6" x="24.0" y="59.5"><title>2023-01-27</title></rect><rect fill="#444444" height="2.6" width="2.6" x="24.0" y="63.0"><title>2023-01-28</title></rect><rect fill="#4dd5ff" height="2.6" width="2.6" x="24.0" y="66.5"><title>2023-01-29 2 videos</title></rect><rect fill="#444444" height="2.6" width="2.6" x="27.5" y="45.5"><title>2023-01-30</title></rect><rect fill="#444444" height="2.6" width="2.6" x="27.5" y="49.0"><title>2023-01-31</title></rect><rect fill="#4dd5ff" height="2.6" width="2.6" x="27.5" y="52.5"><title>2023-02-01 2 videos</title></rect><rect fill="#4cddff" height="2.6" width="2.6" x="27.5" y="56.0"><title>2023-02-02 5 videos</title></rect><rect fill="#4dd2ff" height="2.6" width="2.6" x="27.5" y="59.5"><title>2023-02-03 1 videos</title></rect><rect fill="#444444" height="2.6" width="2.6" x="27.5" y="63.0"><title>2023-02-04</title></rect><rect fill="#444444" height="2.6" width="2.6" x="27.5" y="66.5"><title>2023-02-05</title></rect><rect fill="#444444" height="2.6" width="2.6" x="31.0" y="45.5"><title>2023-02-06</title></rect><rect fill="#444444" height="2.6" width="2.6" x="31.0" y="49.0"><title>2023-02-07</title></rect><rect fill="#444444" height="2.6" width="2.6" x="31.0" y="52.5"><title>2023-02-08</title></rect><rect fill="#4cd7ff" height="2.6" width="2.6" x="31.0" y="56.0"><title>2023-02-09 3 videos</title></rect><rect fill="#444444" height="2.6" width="2.6" x="31.0" y="59.5"><title>2023-02-10</title></rect><rect fill="#444444" height="2.6" width="2.6" x="31.0" y="63.0"><title>2023-02-11</title></rect><rect fill="#4dd5ff" height="2.6" width="2.6" x="31.0" y="66.5"><title>2023-02-12 2 videos</title></rect><rect fill="#444444" height="2.6" width="2.6" x="34.5" y="45.5"><title>2023-02-13</title></rect><rect fill="#444444" height="2.6" width="2.6" x="34.5" y="49.0"><title>2023-02-14</title></rect><rect fill="#4dd5ff" height="2.6" width="2.6" x="34.5" y="52.5"><title>2023-02-15 2 videos</title></rect><rect fill="#444444" height="2.6" width="2.6" x="34.5" y="56.0"><title>2023-02-16</title></rect><rect fill="#4dd5ff" height="2.6" width="2.6" x="34.5" y="59.5"><title>2023-02-17 2 videos</title></rect><rect fill="#4dd5ff" height="2.6" width="2.6" x="34.5" y="63.0"><title>2023-02-18 2 videos</title></rect><rect fill="#ffbd00" height="2.6" width="2.6" x="34.5" y="66.5"><title>2023-02-19 56 videos</title></rect><rect fill="#40ffc9" height="2.6" width="2.6" x="38.0" y="45.5"><title>2023-02-20 36 videos</title></rect><rect fill="#48fbff" height="2.6" width="2.6" x="38.0" y="49.0"><title>2023-02-21 16 videos</title></rect><rect fill="#ffac00" height="2.6" width="2.6" x="38.0" y="52.5"><title>2023-02-22 70 videos</title></rect><rect fill="#41ffd2" height="2.6" width="2.6" x="38.0" y="56.0"><title>2023-02-23 33 videos</title></rect><rect fill="#ffc400" height="2.6" width="2.6" x="38.0" y="59.5"><title>2023-02-24 50 videos</title></rect><rect fill="#4cd7ff" height="2.6" width="2.6" x="38.0" y="63.0"><title>2023-02-25 3 videos</title></rect><rect fill="#444444" height="2.6" width="2.6" x="38.0" y="66.5"><title>2023-02-26</title></rect><rect fill="#42ffd8" height="2.6" width="2.6" x="41.5" y="45.5"><title>2023-02-27 31 videos</title></rect><rect fill="#3effb7" height="2.6" width="2.6" x="41.5" y="49.0"><title>2023-02-28 42 videos</title></rect><rect fill="red" height="2.6" width="2.6" x="41.5" y="52.5"><title>2023-03-01 104 videos</title></rect><rect fill="#44ffea" height="2.6" width="2.6" x="41.5" y="56.0"><title>2023-03-02 25 videos</title></rect><rect fill="#47fffe" height="2.6" width="2.6" x="41.5" y="59.5"><title>2023-03-03 18 videos</title></rect><rect fill="#44ffea" height="2.6" width="2.6" x="41.5" y="63.0"><title>2023-03-04 25 videos</title></rect><rect fill="#3fffbd" height="2.6" width="2.6" x="41.5" y="66.5"><title>2023-03-05 40 videos</title></rect><rect fill="#ffae00" height="2.6" width="2.6" x="45.0" y="45.5"><title>2023-03-06 69 videos</title></rect><rect fill="#4aeaff" height="2.6" width="2.6" x="45.0" y="49.0"><title>2023-03-07 10 videos</title></rect><rect fill="#ffc300" height="2.6" width="2.6" x="45.0" y="52.5"><title>2023-03-08 51 videos</title></rect><rect fill="#48fbff" height="2.6" width="2.6" x="45.0" y="56.0"><title>2023-03-09 16 videos</title></rect><rect fill="#ffae00" height="2.6" width="2.6" x="45.0" y="59.5"><title>2023-03-10 69 videos</title></rect><rect fill="#46fff8" height="2.6" width="2.6" x="45.0" y="63.0"><title>2023-03-11 20 videos</title></rect><rect fill="#3effb4" height="2.6" width="2.6" x="45.0" y="66.5"><title>2023-03-12 43 videos</title></rect><rect fill="#41ffcc" height="2.6" width="2.6" x="48.5" y="45.5"><title>2023-03-13 35 videos</title></rect><rect fill="#3effb4" height="2.6" width="2.6" x="48.5" y="49.0"><title>2023-03-14 43 videos</title></rect><rect fill="red" height="2.6" width="2.6" x="48.5" y="52.5"><title>2023-03-15 138 videos</title></rect><rect fill="#40ffc3" height="2.6" width="2.6" x="48.5" y="56.0"><title>2023-03-16 38 videos</title></rect><rect fill="#ffc300" height="2.6" width="2.6" x="48.5" y="59.5"><title>2023-03-17 51 videos</title></rect><rect fill="#44ffe7" height="2.6" width="2.6" x="48.5" y="63.0"><title>2023-03-18 26 videos</title></rect><rect fill="#43ffdb" height="2.6" width="2.6" x="48.5" y="66.5"><title>2023-03-19 30 videos</title></rect><rect fill="#4cdaff" height="2.6" width="2.6" x="52.0" y="45.5"><title>2023-03-20 4 videos</title></rect><rect fill="#3fffba" height="2.6" width="2.6" x="52.0" y="49.0"><title>2023-03-21 41 videos</title></rect><rect fill="#44ffe7" height="2.6" width="2.6" x="52.0" y="52.5"><title>2023-03-22 26 videos</title></rect><rect fill="#4aeaff" height="2.6" width="2.6" x="52.0" y="56.0"><title>2023-03-23 10 videos</title></rect><rect fill="#45fff2" height="2.6" width="2.6" x="52.0" y="59.5"><title>2023-03-24 22 videos</title></rect><rect fill="#40ffc3" height="2.6" width="2.6" x="52.0" y="63.0"><title>2023-03-25 38 videos</title></rect><rect fill="#48f8ff" height="2.6" width="2.6" x="52.0" y="66.5"><title>2023-03-26 15 videos</title></rect><rect fill="#45fff0" height="2.6" width="2.6" x="55.5" y="45.5"><title>2023-03-27 23 videos</title></rect><rect fill="#41ffd2" height="2.6" width="2.6" x="55.5" y="49.0"><title>2023-03-28 33 videos</title></rect><rect fill="#43ffdb" height="2.6" width="2.6" x="55.5" y="52.5"><title>2023-03-29 30 videos</title></rect><rect fill="#ffba00" height="2.6" width="2.6" x="55.5" y="56.0"><title>2023-03-30 59 videos</title></rect><rect fill="#ffc000" height="2.6" width="2.6" x="55.5" y="59.5"><title>2023-03-31 54 videos</title></rect><rect fill="#43ffe1" height="2.6" width="2.6" x="55.5" y="63.0"><title>2023-04-01 28 videos</title></rect><rect fill="#46fff5" height="2.6" width="2.6" x="55.5" y="66.5"><title>2023-04-02 21 videos</title></rect><rect fill="#46fff8" height="2.6" width="2.6" x="59.0" y="45.5"><title>2023-04-03 20 videos</title></rect><rect fill="#43ffde" height="2.6" width="2.6" x="59.0" y="49.0"><title>2023-04-04 29 videos</title></rect><rect fill="#48f5ff" height="2.6" width="2.6" x="59.0" y="52.5"><title>2023-04-05 14 videos</title></rect><rect fill="#43ffe1" height="2.6" width="2.6" x="59.0" y="56.0"><title>2023-04-06 28 videos</title></rect><rect fill="#4cd7ff" height="2.6" width="2.6" x="59.0" y="59.5"><title>2023-04-07 3 videos</title></rect><rect fill="#42ffd8" height="2.6" width="2.6" x="59.0" y="63.0"><title>2023-04-08 31 videos</title></rect><rect fill="#44ffe4" height="2.6" width="2.6" x="59.0" y="66.5"><title>2023-04-09 27 videos</title></rect><rect fill="#3fffba" height="2.6" width="2.6" x="62.5" y="45.5"><title>2023-04-10 41 videos</title></rect><rect fill="#48f8ff" height="2.6" width="2.6" x="62.5" y="49.0"><title>2023-04-11 15 videos</title></rect><rect fill="#49f2ff" height="2.6" width="2.6" x="62.5" y="52.5"><title>2023-04-12 13 videos</title></rect><rect fill="#4cddff" height="2.6" width="2.6" x="62.5" y="56.0"><title>2023-04-13 5 videos</title></rect><rect fill="#45ffed" height="2.6" width="2.6" x="62.5" y="59.5"><title>2023-04-14 24 videos</title></rect><rect fill="#45fff0" height="2.6" width="2.6" x="62.5" y="63.0"><title>2023-04-15 23 videos</title></rect><rect fill="#4cd7ff" height="2.6" width="2.6" x="62.5" y="66.5"><title>2023-04-16 3 videos</title></rect><rect fill="#44ffea" height="2.6" width="2.6" x="66.0" y="45.5"><title>2023-04-17 25 videos</title></rect><rect fill="#ffc900" height="2.6" width="2.6" x="66.0" y="49.0"><title>2023-04-18 46 videos</title></rect><rect fill="#40ffc6" height="2.6" width="2.6" x="66.0" y="52.5"><title>2023-04-19 37 videos</title></rect><rect fill="#3fffc0" height="2.6" width="2.6" x="66.0" y="56.0"><title>2023-04-20 39 videos</title></rect><rect fill="#45fff2" height="2.6" width="2.6" x="66.0" y="59.5"><title>2023-04-21 22 videos</title></rect><rect fill="#45ffed" height="2.6" width="2.6" x="66.0" y="63.0"><title>2023-04-22 24 videos</title></rect><rect fill="#ffb000" height="2.6" width="2.6" x="66.0" y="66.5"><title>2023-04-23 67 videos</title></rect><rect fill="#4bdfff" height="2.6" width="2.6" x="69.5" y="45.5"><title>2023-04-24 6 videos</title></rect><rect fill="#ffa900" height="2.6" width="2.6" x="69.5" y="49.0"><title>2023-04-25 73 videos</title></rect><rect fill="#ffb700" height="2.6" width="2.6" x="69.5" y="52.5"><title>2023-04-26 61 videos</title></rect><rect fill="#4ae7ff" height="2.6" width="2.6" x="69.5" y="56.0"><title>2023-04-27 9 videos</title></rect><rect fill="#ffc800" height="2.6" width="2.6" x="69.5" y="59.5"><title>2023-04-28 47 videos</title></rect><rect fill="#ffbc00" height="2.6" width="2.6" x="69.5" y="63.0"><title>2023-04-29 57 videos</title></rect><rect fill="#48f8ff" height="2.6" width="2.6" x="69.5" y="66.5"><title>2023-04-30 15 videos</title></rect><rect fill="#4ae7ff" height="2.6" width="2.6" x="73.0" y="45.5"><title>2023-05-01 9 videos</title></rect><rect fill="#4be2ff" height="2.6" width="2.6" x="73.0" y="49.0"><title>2023-05-02 7 videos</title></rect><rect fill="#4cdaff" height="2.6" width="2.6" x="73.0" y="52.5"><title>2023-05-03 4 videos</title></rect><rect fill="#ffb100" height="2.6" width="2.6" x="73.0" y="56.0"><title>2023-05-04 66 videos</title></rect><rect fill="#48fbff" height="2.6" width="2.6" x="73.0" y="59.5"><title>2023-05-05 16 videos</title></rect><rect fill="#ffc200" height="2.6" width="2.6" x="73.0" y="63.0"><title>2023-05-06 52 videos</title></rect><rect fill="#ffb600" height="2.6" width="2.6" x="73.0" y="66.5"><title>2023-05-07 62 videos</title></rect><rect fill="#42ffd5" height="2.6" width="2.6" x="76.5" y="45.5"><title>2023-05-08 32 videos</title></rect><rect fill="#42ffd8" height="2.6" width="2.6" x="76.5" y="49.0"><title>2023-05-09 31 videos</title></rect><rect fill="#ffb600" height="2.6" width="2.6" x="76.5" y="52.5"><title>2023-05-10 62 videos</title></rect><rect fill="#43ffdb" height="2.6" width="2.6" x="76.5" y="56.0"><title>2023-05-11 30 videos</title></rect><rect fill="#ffc600" height="2.6" width="2.6" x="76.5" y="59.5"><title>2023-05-12 49 videos</title></rect><rect fill="#4ae7ff" height="2.6" width="2.6" x="76.5" y="63.0"><title>2023-05-13 9 videos</title></rect><rect fill="#48fbff" height="2.6" width="2.6" x="76.5" y="66.5"><title>2023-05-14 16 videos</title></rect><rect fill="#ffc900" height="2.6" width="2.6" x="80.0" y="45.5"><title>2023-05-15 46 videos</title></rect><rect fill="#ffbb00" height="2.6" width="2.6" x="80.0" y="49.0"><title>2023-05-16 58 videos</title></rect><rect fill="#40ffc9" height="2.6" width="2.6" x="80.0" y="52.5"><title>2023-05-17 36 videos</title></rect><rect fill="#ffaf00" height="2.6" width="2.6" x="80.0" y="56.0"><title>2023-05-18 68 videos</title></rect><rect fill="#46fff5" height="2.6" width="2.6" x="80.0" y="59.5"><title>2023-05-19 21 videos</title></rect><rect fill="#47fffe" height="2.6" width="2.6" x="80.0" y="63.0"><title>2023-05-20 18 videos</title></rect><rect fill="#49f0ff" height="2.6" width="2.6" x="80.0" y="66.5"><title>2023-05-21 12 videos</title></rect><rect fill="#40ffc6" height="2.6" width="2.6" x="83.5" y="45.5"><title>2023-05-22 37 videos</title></rect><rect fill="#ffc400" height="2.6" width="2.6" x="83.5" y="49.0"><title>2023-05-23 50 videos</title></rect><rect fill="#46fffb" height="2.6" width="2.6" x="83.5" y="52.5"><title>2023-05-24 19 videos</title></rect><rect fill="#ffbe00" height="2.6" width="2.6" x="83.5" y="56.0"><title>2023-05-25 55 videos</title></rect><rect fill="#3fffbd" height="2.6" width="2.6" x="83.5" y="59.5"><title>2023-05-26 40 videos</title></rect><rect fill="#3fffba" height="2.6" width="2.6" x="83.5" y="63.0"><title>2023-05-27 41 videos</title></rect><rect fill="#49f0ff" height="2.6" width="2.6" x="83.5" y="66.5"><title>2023-05-28 12 videos</title></rect><rect fill="#46fff5" height="2.6" width="2.6" x="87.0" y="45.5"><title>2023-05-29 21 videos</title></rect><rect fill="#3fffba" height="2.6" width="2.6" x="87.0" y="49.0"><title>2023-05-30 41 videos</title></rect><rect fill="#ffc600" height="2.6" width="2.6" x="87.0" y="52.5"><title>2023-05-31 49 videos</title></rect><rect fill="#49edff" height="2.6" width="2.6" x="87.0" y="56.0"><title>2023-06-01 11 videos</title></rect><rect fill="#48f5ff" height="2.6" width="2.6" x="87.0" y="59.5"><title>2023-06-02 14 videos</title></rect><rect fill="#46fff8" height="2.6" width="2.6" x="87.0" y="63.0"><title>2023-06-03 20 videos</title></rect><rect fill="#ffbc00" height="2.6" width="2.6" x="87.0" y="66.5"><title>2023-06-04 57 videos</title></rect><rect fill="#46fff8" height="2.6" width="2.6" x="90.5" y="45.5"><title>2023-06-05 20 videos</title></rect><rect fill="#44ffe4" height="2.6" width="2.6" x="90.5" y="49.0"><title>2023-06-06 27 videos</title></rect><rect fill="red" height="2.6" width="2.6" x="90.5" y="52.5"><title>2023-06-07 77 videos</title></rect><rect fill="#ffc800" height="2.6" width="2.6" x="90.5" y="56.0"><title>2023-06-08 47 videos</title></rect><rect fill="#ffb500" height="2.6" width="2.6" x="90.5" y="59.5"><title>2023-06-09 63 videos</title></rect><rect fill="#ffb000" height="2.6" width="2.6" x="90.5" y="63.0"><title>2023-06-10 67 videos</title></rect><rect fill="red" height="2.6" width="2.6" x="90.5" y="66.5"><title>2023-06-11 77 videos</title></rect><rect fill="red" height="2.6" width="2.6" x="94.0" y="45.5"><title>2023-06-12 91 videos</title></rect><rect fill="#3fffbd" height="2.6" width="2.6" x="94.0" y="49.0"><title>2023-06-13 40 videos</title></rect><rect fill="#4aeaff" height="2.6" width="2.6" x="94.0" y="52.5"><title>2023-06-14 10 videos</title></rect><rect fill="#40ffc9" height="2.6" width="2.6" x="94.0" y="56.0"><title>2023-06-15 36 videos</title></rect><rect fill="#49f2ff" height="2.6" width="2.6" x="94.0" y="59.5"><title>2023-06-16 13 videos</title></rect><rect fill="#40ffc6" height="2.6" width="2.6" x="94.0" y="63.0"><title>2023-06-17 37 videos</title></rect><rect fill="#43ffde" height="2.6" width="2.6" x="94.0" y="66.5"><title>2023-06-18 29 videos</title></rect><rect fill="#ffbe00" height="2.6" width="2.6" x="97.5" y="45.5"><title>2023-06-19 55 videos</title></rect><rect fill="#ffc300" height="2.6" width="2.6" x="97.5" y="49.0"><title>2023-06-20 51 videos</title></rect><rect fill="#3dffb1" height="2.6" width="2.6" x="97.5" y="52.5"><title>2023-06-21 44 videos</title></rect><rect fill="#40ffc6" height="2.6" width="2.6" x="97.5" y="56.0"><title>2023-06-22 37 videos</title></rect><rect fill="red" height="2.6" width="2.6" x="97.5" y="59.5"><title>2023-06-23 98 videos</title></rect><rect fill="#ffc400" height="2.6" width="2.6" x="97.5" y="63.0"><title>2023-06-24 50 videos</title></rect><rect fill="#40ffc6" height="2.6" width="2.6" x="97.5" y="66.5"><title>2023-06-25 37 videos</title></rect><rect fill="#ffac00" height="2.6" width="2.6" x="101.0" y="45.5"><title>2023-06-26 70 videos</title></rect><rect fill="#ffc000" height="2.6" width="2.6" x="101.0" y="49.0"><title>2023-06-27 54 videos</title></rect><rect fill="#ffc600" height="2.6" width="2.6" x="101.0" y="52.5"><title>2023-06-28 49 videos</title></rect><rect fill="#46fff8" height="2.6" width="2.6" x="101.0" y="56.0"><title>2023-06-29 20 videos</title></rect><rect fill="#ffaa00" height="2.6" width="2.6" x="101.0" y="59.5"><title>2023-06-30 72 videos</title></rect><rect fill="#ffc700" height="2.6" width="2.6" x="101.0" y="63.0"><title>2023-07-01 48 videos</title></rect><rect fill="#47fffe" height="2.6" width="2.6" x="101.0" y="66.5"><title>2023-07-02 18 videos</title></rect><rect fill="#43ffdb" height="2.6" width="2.6" x="104.5" y="45.5"><title>2023-07-03 30 videos</title></rect><rect fill="#3fffc0" height="2.6" width="2.6" x="104.5" y="49.0"><title>2023-07-04 39 videos</title></rect><rect fill="red" height="2.6" width="2.6" x="104.5" y="52.5"><title>2023-07-05 132 videos</title></rect><rect fill="#ffc700" height="2.6" width="2.6" x="104.5" y="56.0"><title>2023-07-06 48 videos</title></rect><rect fill="#40ffc6" height="2.6" width="2.6" x="104.5" y="59.5"><title>2023-07-07 37 videos</title></rect><rect fill="red" height="2.6" width="2.6" x="104.5" y="63.0"><title>2023-07-08 93 videos</title></rect><rect fill="#3fffba" height="2.6" width="2.6" x="104.5" y="66.5"><title>2023-07-09 41 videos</title></rect><rect fill="#ffba00" height="2.6" width="2.6" x="108.0" y="45.5"><title>2023-07-10 59 videos</title></rect><rect fill="#4ae7ff" height="2.6" width="2.6" x="108.0" y="49.0"><title>2023-07-11 9 videos</title></rect><rect fill="#4cdaff" height="2.6" width="2.6" x="108.0" y="52.5"><title>2023-07-12 4 videos</title></rect><rect fill="#4ae7ff" height="2.6" width="2.6" x="108.0" y="56.0"><title>2023-07-13 9 videos</title></rect><rect fill="#4dd2ff" height="2.6" width="2.6" x="108.0" y="59.5"><title>2023-07-14 1 videos</title></rect><rect fill="#45fff0" height="2.6" width="2.6" x="108.0" y="63.0"><title>2023-07-15 23 videos</title></rect><rect fill="red" height="2.6" width="2.6" x="108.0" y="66.5"><title>2023-07-16 214 videos</title></rect><rect fill="red" height="2.6" width="2.6" x="111.5" y="45.5"><title>2023-07-17 162 videos</title></rect><rect fill="red" height="2.6" width="2.6" x="111.5" y="49.0"><title>2023-07-18 196 videos</title></rect><rect fill="red" height="2.6" width="2.6" x="111.5" y="52.5"><title>2023-07-19 188 videos</title></rect><rect fill="red" height="2.6" width="2.6" x="111.5" y="56.0"><title>2023-07-20 102 videos</title></rect><rect fill="#46fff8" height="2.6" width="2.6" x="111.5" y="59.5"><title>2023-07-21 20 videos</title></rect><rect fill="#44ffe4" height="2.6" width="2.6" x="111.5" y="63.0"><title>2023-07-22 27 videos</title></rect><rect fill="#3dffae" height="2.6" width="2.6" x="111.5" y="66.5"><title>2023-07-23 45 videos</title></rect><rect fill="#ffc800" height="2.6" width="2.6" x="115.0" y="45.5"><title>2023-07-24 47 videos</title></rect><rect fill="#ffaa00" height="2.6" width="2.6" x="115.0" y="49.0"><title>2023-07-25 72 videos</title></rect><rect fill="#3effb4" height="2.6" width="2.6" x="115.0" y="52.5"><title>2023-07-26 43 videos</title></rect><rect fill="#49edff" height="2.6" width="2.6" x="115.0" y="56.0"><title>2023-07-27 11 videos</title></rect><rect fill="#ffb000" height="2.6" width="2.6" x="115.0" y="59.5"><title>2023-07-28 67 videos</title></rect><rect fill="#3fffc0" height="2.6" width="2.6" x="115.0" y="63.0"><title>2023-07-29 39 videos</title></rect><rect fill="#48f8ff" height="2.6" width="2.6" x="115.0" y="66.5"><title>2023-07-30 15 videos</title></rect><rect fill="#ffbd00" height="2.6" width="2.6" x="118.5" y="45.5"><title>2023-07-31 56 videos</title></rect><rect fill="#ffb700" height="2.6" width="2.6" x="118.5" y="49.0"><title>2023-08-01 61 videos</title></rect><rect fill="#41ffcc" height="2.6" width="2.6" x="118.5" y="52.5"><title>2023-08-02 35 videos</title></rect><rect fill="#43ffdb" height="2.6" width="2.6" x="118.5" y="56.0"><title>2023-08-03 30 videos</title></rect><rect fill="#49f2ff" height="2.6" width="2.6" x="118.5" y="59.5"><title>2023-08-04 13 videos</title></rect><rect fill="#ffba00" height="2.6" width="2.6" x="118.5" y="63.0"><title>2023-08-05 59 videos</title></rect><rect fill="#4ae7ff" height="2.6" width="2.6" x="118.5" y="66.5"><title>2023-08-06 9 videos</title></rect><rect fill="#3fffbd" height="2.6" width="2.6" x="122.0" y="45.5"><title>2023-08-07 40 videos</title></rect><rect fill="red" height="2.6" width="2.6" x="122.0" y="49.0"><title>2023-08-08 78 videos</title></rect><rect fill="#41ffd2" height="2.6" width="2.6" x="122.0" y="52.5"><title>2023-08-09 33 videos</title></rect><rect fill="#4cd7ff" height="2.6" width="2.6" x="122.0" y="56.0"><title>2023-08-10 3 videos</title></rect><rect fill="#4cddff" height="2.6" width="2.6" x="122.0" y="59.5"><title>2023-08-11 5 videos</title></rect><rect fill="#44ffe4" height="2.6" width="2.6" x="122.0" y="63.0"><title>2023-08-12 27 videos</title></rect><rect fill="#ffc600" height="2.6" width="2.6" x="122.0" y="66.5"><title>2023-08-13 49 videos</title></rect><rect fill="#ffc800" height="2.6" width="2.6" x="125.5" y="45.5"><title>2023-08-14 47 videos</title></rect><rect fill="#4bdfff" height="2.6" width="2.6" x="125.5" y="49.0"><title>2023-08-15 6 videos</title></rect><rect fill="#46fff5" height="2.6" width="2.6" x="125.5" y="52.5"><title>2023-08-16 21 videos</title></rect><rect fill="#49f2ff" height="2.6" width="2.6" x="125.5" y="56.0"><title>2023-08-17 13 videos</title></rect><rect fill="#48f5ff" height="2.6" width="2.6" x="125.5" y="59.5"><title>2023-08-18 14 videos</title></rect><rect fill="#44ffea" height="2.6" width="2.6" x="125.5" y="63.0"><title>2023-08-19 25 videos</title></rect><rect fill="#4ae7ff" height="2.6" width="2.6" x="125.5" y="66.5"><title>2023-08-20 9 videos</title></rect><rect fill="#3effb7" height="2.6" width="2.6" x="129.0" y="45.5"><title>2023-08-21 42 videos</title></rect><rect fill="#44ffe4" height="2.6" width="2.6" x="129.0" y="49.0"><title>2023-08-22 27 videos</title></rect><rect fill="#ffc000" height="2.6" width="2.6" x="129.0" y="52.5"><title>2023-08-23 54 videos</title></rect><rect fill="#ffc000" height="2.6" width="2.6" x="129.0" y="56.0"><title>2023-08-24 54 videos</title></rect><rect fill="#44ffea" height="2.6" width="2.6" x="129.0" y="59.5"><title>2023-08-25 25 videos</title></rect><rect fill="#4cdaff" height="2.6" width="2.6" x="129.0" y="63.0"><title>2023-08-26 4 videos</title></rect><rect fill="#44ffe4" height="2.6" width="2.6" x="129.0" y="66.5"><title>2023-08-27 27 videos</title></rect><rect fill="#3fffc0" height="2.6" width="2.6" x="132.5" y="45.5"><title>2023-08-28 39 videos</title></rect><rect fill="#48fbff" height="2.6" width="2.6" x="132.5" y="49.0"><title>2023-08-29 16 videos</title></rect><rect fill="#46fff8" height="2.6" width="2.6" x="132.5" y="52.5"><title>2023-08-30 20 videos</title></rect><rect fill="#46fff5" height="2.6" width="2.6" x="132.5" y="56.0"><title>2023-08-31 21 videos</title></rect><rect fill="#46fffb" height="2.6" width="2.6" x="132.5" y="59.5"><title>2023-09-01 19 videos</title></rect><rect fill="#ffc000" height="2.6" width="2.6" x="132.5" y="63.0"><title>2023-09-02 54 videos</title></rect><rect fill="#4ae7ff" height="2.6" width="2.6" x="132.5" y="66.5"><title>2023-09-03 9 videos</title></rect><rect fill="#45fff0" height="2.6" width="2.6" x="136.0" y="45.5"><title>2023-09-04 23 videos</title></rect><rect fill="#44ffe4" height="2.6" width="2.6" x="136.0" y="49.0"><title>2023-09-05 27 videos</title></rect><rect fill="#43ffdb" height="2.6" width="2.6" x="136.0" y="52.5"><title>2023-09-06 30 videos</title></rect><rect fill="#48f8ff" height="2.6" width="2.6" x="136.0" y="56.0"><title>2023-09-07 15 videos</title></rect><rect fill="#444444" height="2.6" width="2.6" x="136.0" y="59.5"><title>2023-09-08</title></rect><rect fill="#4cdaff" height="2.6" width="2.6" x="136.0" y="63.0"><title>2023-09-09 4 videos</title></rect><rect fill="#4cddff" height="2.6" width="2.6" x="136.0" y="66.5"><title>2023-09-10 5 videos</title></rect><rect fill="#44ffe7" height="2.6" width="2.6" x="139.5" y="45.5"><title>2023-09-11 26 videos</title></rect><rect fill="#46fff5" height="2.6" width="2.6" x="139.5" y="49.0"><title>2023-09-12 21 videos</title></rect><rect fill="#43ffde" height="2.6" width="2.6" x="139.5" y="52.5"><title>2023-09-13 29 videos</title></rect><rect fill="#4dd2ff" height="2.6" width="2.6" x="139.5" y="56.0"><title>2023-09-14 1 videos</title></rect><rect fill="#ffbd00" height="2.6" width="2.6" x="139.5" y="59.5"><title>2023-09-15 56 videos</title></rect><rect fill="#4be2ff" height="2.6" width="2.6" x="139.5" y="63.0"><title>2023-09-16 7 videos</title></rect><rect fill="red" height="2.6" width="2.6" x="139.5" y="66.5"><title>2023-09-17 75 videos</title></rect><rect fill="#45ffed" height="2.6" width="2.6" x="143.0" y="45.5"><title>2023-09-18 24 videos</title></rect><rect fill="#444444" height="2.6" width="2.6" x="143.0" y="49.0"><title>2023-09-19</title></rect><rect fill="#49f0ff" height="2.6" width="2.6" x="143.0" y="52.5"><title>2023-09-20 12 videos</title></rect><rect fill="#4ae7ff" height="2.6" width="2.6" x="143.0" y="56.0"><title>2023-09-21 9 videos</title></rect><rect fill="#4dd5ff" height="2.6" width="2.6" x="143.0" y="59.5"><title>2023-09-22 2 videos</title></rect><rect fill="#444444" height="2.6" width="2.6" x="143.0" y="63.0"><title>2023-09-23</title></rect><rect fill="#4dd5ff" height="2.6" width="2.6" x="143.0" y="66.5"><title>2023-09-24 2 videos</title></rect><rect fill="#4dd5ff" height="2.6" width="2.6" x="146.5" y="45.5"><title>2023-09-25 2 videos</title></rect><rect fill="#47fffe" height="2.6" width="2.6" x="146.5" y="49.0"><title>2023-09-26 18 videos</title></rect><rect fill="#49f0ff" height="2.6" width="2.6" x="146.5" y="52.5"><title>2023-09-27 12 videos</title></rect><rect fill="#ffba00" height="2.6" width="2.6" x="146.5" y="56.0"><title>2023-09-28 59 videos</title></rect><rect fill="#ffab00" height="2.6" width="2.6" x="146.5" y="59.5"><title>2023-09-29 71 videos</title></rect><rect fill="red" height="2.6" width="2.6" x="146.5" y="63.0"><title>2023-09-30 92 videos</title></rect><rect fill="#47fffe" height="2.6" width="2.6" x="146.5" y="66.5"><title>2023-10-01 18 videos</title></rect><rect fill="#46fffb" height="2.6" width="2.6" x="150.0" y="45.5"><title>2023-10-02 19 videos</title></rect><rect fill="red" height="2.6" width="2.6" x="150.0" y="49.0"><title>2023-10-03 83 videos</title></rect><rect fill="#42ffd5" height="2.6" width="2.6" x="150.0" y="52.5"><title>2023-10-04 32 videos</title></rect><rect fill="red" height="2.6" width="2.6" x="150.0" y="56.0"><title>2023-10-05 74 videos</title></rect><rect fill="#42ffd8" height="2.6" width="2.6" x="150.0" y="59.5"><title>2023-10-06 31 videos</title></rect><rect fill="#46fff8" height="2.6" width="2.6" x="150.0" y="63.0"><title>2023-10-07 20 videos</title></rect><rect fill="#4ae5ff" height="2.6" width="2.6" x="150.0" y="66.5"><title>2023-10-08 8 videos</title></rect><rect fill="#3effb4" height="2.6" width="2.6" x="153.5" y="45.5"><title>2023-10-09 43 videos</title></rect><rect fill="#ffbc00" height="2.6" width="2.6" x="153.5" y="49.0"><title>2023-10-10 57 videos</title></rect><rect fill="#4aeaff" height="2.6" width="2.6" x="153.5" y="52.5"><title>2023-10-11 10 videos</title></rect><rect fill="#43ffe1" height="2.6" width="2.6" x="153.5" y="56.0"><title>2023-10-12 28 videos</title></rect><rect fill="#ffb700" height="2.6" width="2.6" x="153.5" y="59.5"><title>2023-10-13 61 videos</title></rect><rect fill="#44ffe4" height="2.6" width="2.6" x="153.5" y="63.0"><title>2023-10-14 27 videos</title></rect><rect fill="#47fdff" height="2.6" width="2.6" x="153.5" y="66.5"><title>2023-10-15 17 videos</title></rect><rect fill="#ffc400" height="2.6" width="2.6" x="157.0" y="45.5"><title>2023-10-16 50 videos</title></rect><rect fill="#ffc800" height="2.6" width="2.6" x="157.0" y="49.0"><title>2023-10-17 47 videos</title></rect><rect fill="#48fbff" height="2.6" width="2.6" x="157.0" y="52.5"><title>2023-10-18 16 videos</title></rect><rect fill="#ffbc00" height="2.6" width="2.6" x="157.0" y="56.0"><title>2023-10-19 57 videos</title></rect><rect fill="#43ffde" height="2.6" width="2.6" x="157.0" y="59.5"><title>2023-10-20 29 videos</title></rect><rect fill="#3dffb1" height="2.6" width="2.6" x="157.0" y="63.0"><title>2023-10-21 44 videos</title></rect><rect fill="#ffac00" height="2.6" width="2.6" x="157.0" y="66.5"><title>2023-10-22 70 videos</title></rect><rect fill="#46fff8" height="2.6" width="2.6" x="160.5" y="45.5"><title>2023-10-23 20 videos</title></rect><rect fill="#41ffd2" height="2.6" width="2.6" x="160.5" y="49.0"><title>2023-10-24 33 videos</title></rect><rect fill="#ffc400" height="2.6" width="2.6" x="160.5" y="52.5"><title>2023-10-25 50 videos</title></rect><rect fill="#ffb500" height="2.6" width="2.6" x="160.5" y="56.0"><title>2023-10-26 63 videos</title></rect><rect fill="#4aeaff" height="2.6" width="2.6" x="160.5" y="59.5"><title>2023-10-27 10 videos</title></rect><rect fill="#49edff" height="2.6" width="2.6" x="160.5" y="63.0"><title>2023-10-28 11 videos</title></rect><rect fill="#46fff5" height="2.6" width="2.6" x="160.5" y="66.5"><title>2023-10-29 21 videos</title></rect><rect fill="#44ffe4" height="2.6" width="2.6" x="164.0" y="45.5"><title>2023-10-30 27 videos</title></rect><rect fill="#45fff2" height="2.6" width="2.6" x="164.0" y="49.0"><title>2023-10-31 22 videos</title></rect><rect fill="#4dd2ff" height="2.6" width="2.6" x="164.0" y="52.5"><title>2023-11-01 1 videos</title></rect><rect fill="#444444" height="2.6" width="2.6" x="164.0" y="56.0"><title>2023-11-02</title></rect><rect fill="#444444" height="2.6" width="2.6" x="164.0" y="59.5"><title>2023-11-03</title></rect><rect fill="#444444" height="2.6" width="2.6" x="164.0" y="63.0"><title>2023-11-04</title></rect><rect fill="#444444" height="2.6" width="2.6" x="164.0" y="66.5"><title>2023-11-05</title></rect><rect fill="#444444" height="2.6" width="2.6" x="167.5" y="45.5"><title>2023-11-06</title></rect><rect fill="#444444" height="2.6" width="2.6" x="167.5" y="49.0"><title>2023-11-07</title></rect><rect fill="#444444" height="2.6" width="2.6" x="167.5" y="52.5"><title>2023-11-08</title></rect><rect fill="#444444" height="2.6" width="2.6" x="167.5" y="56.0"><title>2023-11-09</title></rect><rect fill="#444444" height="2.6" width="2.6" x="167.5" y="59.5"><title>2023-11-10</title></rect><rect fill="#444444" height="2.6" width="2.6" x="167.5" y="63.0"><title>2023-11-11</title></rect><rect fill="#444444" height="2.6" width="2.6" x="167.5" y="66.5"><title>2023-11-12</title></rect><rect fill="#444444" height="2.6" width="2.6" x="171.0" y="45.5"><title>2023-11-13</title></rect><rect fill="#444444" height="2.6" width="2.6" x="171.0" y="49.0"><title>2023-11-14</title></rect><rect fill="#444444" height="2.6" width="2.6" x="171.0" y="52.5"><title>2023-11-15</title></rect><rect fill="#444444" height="2.6" width="2.6" x="171.0" y="56.0"><title>2023-11-16</title></rect><rect fill="#444444" height="2.6" width="2.6" x="171.0" y="59.5"><title>2023-11-17</title></rect><rect fill="#444444" height="2.6" width="2.6" x="171.0" y="63.0"><title>2023-11-18</title></rect><rect fill="#444444" height="2.6" width="2.6" x="171.0" y="66.5"><title>2023-11-19</title></rect><rect fill="#444444" height="2.6" width="2.6" x="174.5" y="45.5"><title>2023-11-20</title></rect><rect fill="#444444" height="2.6" width="2.6" x="174.5" y="49.0"><title>2023-11-21</title></rect><rect fill="#444444" height="2.6" width="2.6" x="174.5" y="52.5"><title>2023-11-22</title></rect><rect fill="#444444" height="2.6" width="2.6" x="174.5" y="56.0"><title>2023-11-23</title></rect><rect fill="#444444" height="2.6" width="2.6" x="174.5" y="59.5"><title>2023-11-24</title></rect><rect fill="#444444" height="2.6" width="2.6" x="174.5" y="63.0"><title>2023-11-25</title></rect><rect fill="#444444" height="2.6" width="2.6" x="174.5" y="66.5"><title>2023-11-26</title></rect><rect fill="#444444" height="2.6" width="2.6" x="178.0" y="45.5"><title>2023-11-27</title></rect><rect fill="#444444" height="2.6" width="2.6" x="178.0" y="49.0"><title>2023-11-28</title></rect><rect fill="#444444" height="2.6" width="2.6" x="178.0" y="52.5"><title>2023-11-29</title></rect><rect fill="#444444" height="2.6" width="2.6" x="178.0" y="56.0"><title>2023-11-30</title></rect><rect fill="#444444" height="2.6" width="2.6" x="178.0" y="59.5"><title>2023-12-01</title></rect><rect fill="#444444" height="2.6" width="2.6" x="178.0" y="63.0"><title>2023-12-02</title></rect><rect fill="#444444" height="2.6" width="2.6" x="178.0" y="66.5"><title>2023-12-03</title></rect><rect fill="#444444" height="2.6" width="2.6" x="181.5" y="45.5"><title>2023-12-04</title></rect><rect fill="#444444" height="2.6" width="2.6" x="181.5" y="49.0"><title>2023-12-05</title></rect><rect fill="#444444" height="2.6" width="2.6" x="181.5" y="52.5"><title>2023-12-06</title></rect><rect fill="#444444" height="2.6" width="2.6" x="181.5" y="56.0"><title>2023-12-07</title></rect><rect fill="#444444" height="2.6" width="2.6" x="181.5" y="59.5"><title>2023-12-08</title></rect><rect fill="#444444" height="2.6" width="2.6" x="181.5" y="63.0"><title>2023-12-09</title></rect><rect fill="#444444" height="2.6" width="2.6" x="181.5" y="66.5"><title>2023-12-10</title></rect><rect fill="#444444" height="2.6" width="2.6" x="185.0" y="45.5"><title>2023-12-11</title></rect><rect fill="#444444" height="2.6" width="2.6" x="185.0" y="49.0"><title>2023-12-12</title></rect><rect fill="#444444" height="2.6" width="2.6" x="185.0" y="52.5"><title>2023-12-13</title></rect><rect fill="#444444" height="2.6" width="2.6" x="185.0" y="56.0"><title>2023-12-14</title></rect><rect fill="#444444" height="2.6" width="2.6" x="185.0" y="59.5"><title>2023-12-15</title></rect><rect fill="#444444" height="2.6" width="2.6" x="185.0" y="63.0"><title>2023-12-16</title></rect><rect fill="#444444" height="2.6" width="2.6" x="185.0" y="66.5"><title>2023-12-17</title></rect><rect fill="#444444" height="2.6" width="2.6" x="188.5" y="45.5"><title>2023-12-18</title></rect><rect fill="#444444" height="2.6" width="2.6" x="188.5" y="49.0"><title>2023-12-19</title></rect><rect fill="#444444" height="2.6" width="2.6" x="188.5" y="52.5"><title>2023-12-20</title></rect><rect fill="#444444" height="2.6" width="2.6" x="188.5" y="56.0"><title>2023-12-21</title></rect><rect fill="#444444" height="2.6" width="2.6" x="188.5" y="59.5"><title>2023-12-22</title></rect><rect fill="#444444" height="2.6" width="2.6" x="188.5" y="63.0"><title>2023-12-23</title></rect><rect fill="#444444" height="2.6" width="2.6" x="188.5" y="66.5"><title>2023-12-24</title></rect><rect fill="#444444" height="2.6" width="2.6" x="192.0" y="45.5"><title>2023-12-25</title></rect><rect fill="#444444" height="2.6" width="2.6" x="192.0" y="49.0"><title>2023-12-26</title></rect><rect fill="#444444" height="2.6" width="2.6" x="192.0" y="52.5"><title>2023-12-27</title></rect><rect fill="#444444" height="2.6" width="2.6" x="192.0" y="56.0"><title>2023-12-28</title></rect><rect fill="#444444" height="2.6" width="2.6" x="192.0" y="59.5"><title>2023-12-29</title></rect><rect fill="#444444" height="2.6" width="2.6" x="192.0" y="63.0"><title>2023-12-30</title></rect><rect fill="#444444" height="2.6" width="2.6" x="192.0" y="66.5"><title>2023-12-31</title></rect></svg>