<?xml version="1.0" encoding="utf-8" ?>
<svg baseProfile="full" height="78mm" version="1.1" viewBox="0,0,200,78" width="200mm" xmlns="http://www.w3.org/2000/svg" xmlns:ev="http://www.w3.org/2001/xml-events" xmlns:xlink="http://www.w3.org/1999/xlink"><defs /><rect fill="#222222" height="78" width="200" x="0" y="0" /><text fill="#FFFFFF" style="font-size:12px; font-family:Arial; font-weight:bold;" x="10" y="20">rip-tyang bilibili</text><text dominant-baseline="hanging" fill="#FFFFFF" style="font-size:10.0px; font-family:Arial;" x="10" y="30">2024</text><text dominant-baseline="hanging" fill="#FFFFFF" style="font-size:4.125px; font-family:Arial;" x="175" y="35">7655 videos</text><text fill="#FFFFFF" style="font-size:2.5px; font-family:Arial" x="10.0" y="44">Jan</text><text fill="#FFFFFF" style="font-size:2.5px; font-family:Arial" x="25.5" y="44">Feb</text><text fill="#FFFFFF" style="font-size:2.5px; font-family:Arial" x="41.0" y="44">Mar</text><text fill="#FFFFFF" style="font-size:2.5px; font-family:Arial" x="56.5" y="44">Apr</text><text fill="#FFFFFF" style="font-size:2.5px; font-family:Arial" x="72.0" y="44">May</text><text fill="#FFFFFF" style="font-size:2.5px; font-family:Arial" x="87.5" y="44">Jun</text><text fill="#FFFFFF" style="font-size:2.5px; font-family:Arial" x="103.0" y="44">Jul</text><text fill="#FFFFFF" style="font-size:2.5px; font-family:Arial" x="118.5" y="44">Aug</text><text fill="#FFFFFF" style="font-size:2.5px; font-family:Arial" x="134.0" y="44">Sep</text><text fill="#FFFFFF" style="font-size:2.5px; font-family:Arial" x="149.5" y="44">Oct</text><text fill="#FFFFFF" style="font-size:2.5px; font-family:Arial" x="165.0" y="44">Nov</text><text fill="#FFFFFF" style="font-size:2.5px; font-family:Arial" x="180.5" y="44">Dec</text><rect fill="#4cdaff" height="2.6" width="2.6" x="10.0" y="45.5"><title>2024-01-01 4 videos</title></rect><rect fill="#3bff98" height="2.6" width="2.6" x="10.0" y="49.0"><title>2024-01-02 52 videos</title></rect><rect fill="#46fff5" height="2.6" width="2.6" x="10.0" y="52.5"><title>2024-01-03 21 videos</title></rect><rect fill="#ff8700" height="2.6" width="2.6" x="10.0" y="56.0"><title>2024-01-04 101 videos</title></rect><rect fill="#3fffc0" height="2.6" width="2.6" x="10.0" y="59.5"><title>2024-01-05 39 videos</title></rect><rect fill="#40ffc3" height="2.6" width="2.6" x="10.0" y="63.0"><title>2024-01-06 38 videos</title></rect><rect fill="#ff9800" height="2.6" width="2.6" x="10.0" y="66.5"><title>2024-01-07 87 videos</title></rect><rect fill="#3bff9b" height="2.6" width="2.6" x="13.5" y="45.5"><title>2024-01-08 51 videos</title></rect><rect fill="#ffa300" height="2.6" width="2.6" x="13.5" y="49.0"><title>2024-01-09 78 videos</title></rect><rect fill="#4ae7ff" height="2.6" width="2.6" x="13.5" y="52.5"><title>2024-01-10 9 videos</title></rect><rect fill="#ff9600" height="2.6" width="2.6" x="13.5" y="56.0"><title>2024-01-11 89 videos</title></rect><rect fill="#ffb100" height="2.6" width="2.6" x="13.5" y="59.5"><title>2024-01-12 66 videos</title></rect><rect fill="#41ffd2" height="2.6" width="2.6" x="13.5" y="63.0"><title>2024-01-13 33 videos</title></rect><rect fill="#4dd2ff" height="2.6" width="2.6" x="13.5" y="66.5"><title>2024-01-14 1 videos</title></rect><rect fill="#46fff8" height="2.6" width="2.6" x="17.0" y="45.5"><title>2024-01-15 20 videos</title></rect><rect fill="#48f8ff" height="2.6" width="2.6" x="17.0" y="49.0"><title>2024-01-16 15 videos</title></rect><rect fill="#4dd2ff" height="2.6" width="2.6" x="17.0" y="52.5"><title>2024-01-17 1 videos</title></rect><rect fill="#42ffd8" height="2.6" width="2.6" x="17.0" y="56.0"><title>2024-01-18 31 videos</title></rect><rect fill="#47fdff" height="2.6" width="2.6" x="17.0" y="59.5"><title>2024-01-19 17 videos</title></rect><rect fill="#43ffde" height="2.6" width="2.6" x="17.0" y="63.0"><title>2024-01-20 29 videos</title></rect><rect fill="#43ffe1" height="2.6" width="2.6" x="17.0" y="66.5"><title>2024-01-21 28 videos</title></rect><rect fill="#39ff8e" height="2.6" width="2.6" x="20.5" y="45.5"><title>2024-01-22 55 videos</title></rect><rect fill="red" height="2.6" width="2.6" x="20.5" y="49.0"><title>2024-01-23 122 videos</title></rect><rect fill="#ffb100" height="2.6" width="2.6" x="20.5" y="52.5"><title>2024-01-24 66 videos</title></rect><rect fill="#ff9300" height="2.6" width="2.6" x="20.5" y="56.0"><title>2024-01-25 91 videos</title></rect><rect fill="red" height="2.6" width="2.6" x="20.5" y="59.5"><title>2024-01-26 104 videos</title></rect><rect fill="red" height="2.6" width="2.6" x="20.5" y="63.0"><title>2024-01-27 126 videos</title></rect><rect fill="#38ff7e" height="2.6" width="2.6" x="20.5" y="66.5"><title>2024-01-28 60 videos</title></rect><rect fill="red" height="2.6" width="2.6" x="24.0" y="45.5"><title>2024-01-29 162 videos</title></rect><rect fill="red" height="2.6" width="2.6" x="24.0" y="49.0"><title>2024-01-30 104 videos</title></rect><rect fill="#ff9a00" height="2.6" width="2.6" x="24.0" y="52.5"><title>2024-01-31 85 videos</title></rect><rect fill="#3aff94" height="2.6" width="2.6" x="24.0" y="56.0"><title>2024-02-01 53 videos</title></rect><rect fill="red" height="2.6" width="2.6" x="24.0" y="59.5"><title>2024-02-02 138 videos</title></rect><rect fill="red" height="2.6" width="2.6" x="24.0" y="63.0"><title>2024-02-03 114 videos</title></rect><rect fill="red" height="2.6" width="2.6" x="24.0" y="66.5"><title>2024-02-04 121 videos</title></rect><rect fill="#45fff0" height="2.6" width="2.6" x="27.5" y="45.5"><title>2024-02-05 23 videos</title></rect><rect fill="red" height="2.6" width="2.6" x="27.5" y="49.0"><title>2024-02-06 108 videos</title></rect><rect fill="#41ffd2" height="2.6" width="2.6" x="27.5" y="52.5"><title>2024-02-07 33 videos</title></rect><rect fill="#ffa900" height="2.6" width="2.6" x="27.5" y="56.0"><title>2024-02-08 73 videos</title></rect><rect fill="#38ff84" height="2.6" width="2.6" x="27.5" y="59.5"><title>2024-02-09 58 videos</title></rect><rect fill="#46fff8" height="2.6" width="2.6" x="27.5" y="63.0"><title>2024-02-10 20 videos</title></rect><rect fill="#38ff84" height="2.6" width="2.6" x="27.5" y="66.5"><title>2024-02-11 58 videos</title></rect><rect fill="#ff8b00" height="2.6" width="2.6" x="31.0" y="45.5"><title>2024-02-12 98 videos</title></rect><rect fill="#44ffea" height="2.6" width="2.6" x="31.0" y="49.0"><title>2024-02-13 25 videos</title></rect><rect fill="#444444" height="2.6" width="2.6" x="31.0" y="52.5"><title>2024-02-14</title></rect><rect fill="#48f8ff" height="2.6" width="2.6" x="31.0" y="56.0"><title>2024-02-15 15 videos</title></rect><rect fill="#43ffe1" height="2.6" width="2.6" x="31.0" y="59.5"><title>2024-02-16 28 videos</title></rect><rect fill="#4aeaff" height="2.6" width="2.6" x="31.0" y="63.0"><title>2024-02-17 10 videos</title></rect><rect fill="#48f5ff" height="2.6" width="2.6" x="31.0" y="66.5"><title>2024-02-18 14 videos</title></rect><rect fill="#42ffd8" height="2.6" width="2.6" x="34.5" y="45.5"><title>2024-02-19 31 videos</title></rect><rect fill="#43ffe1" height="2.6" width="2.6" x="34.5" y="49.0"><title>2024-02-20 28 videos</title></rect><rect fill="#ff9900" height="2.6" width="2.6" x="34.5" y="52.5"><title>2024-02-21 86 videos</title></rect><rect fill="#43ffde" height="2.6" width="2.6" x="34.5" y="56.0"><title>2024-02-22 29 videos</title></rect><rect fill="#4ae7ff" height="2.6" width="2.6" x="34.5" y="59.5"><title>2024-02-23 9 videos</title></rect><rect fill="#43ffde" height="2.6" width="2.6" x="34.5" y="63.0"><title>2024-02-24 29 videos</title></rect><rect fill="#ffab00" height="2.6" width="2.6" x="34.5" y="66.5"><title>2024-02-25 71 videos</title></rect><rect fill="#ffac00" height="2.6" width="2.6" x="38.0" y="45.5"><title>2024-02-26 70 videos</title></rect><rect fill="#39ff8b" height="2.6" width="2.6" x="38.0" y="49.0"><title>2024-02-27 56 videos</title></rect><rect fill="#3effb4" height="2.6" width="2.6" x="38.0" y="52.5"><title>2024-02-28 43 videos</title></rect><rect fill="red" height="2.6" width="2.6" x="38.0" y="56.0"><title>2024-02-29 109 videos</title></rect><rect fill="#45fff2" height="2.6" width="2.6" x="38.0" y="59.5"><title>2024-03-01 22 videos</title></rect><rect fill="#ffae00" height="2.6" width="2.6" x="38.0" y="63.0"><title>2024-03-02 69 videos</title></rect><rect fill="#ffa900" height="2.6" width="2.6" x="38.0" y="66.5"><title>2024-03-03 73 videos</title></rect><rect fill="red" height="2.6" width="2.6" x="41.5" y="45.5"><title>2024-03-04 112 videos</title></rect><rect fill="#43ffde" height="2.6" width="2.6" x="41.5" y="49.0"><title>2024-03-05 29 videos</title></rect><rect fill="#43ffde" height="2.6" width="2.6" x="41.5" y="52.5"><title>2024-03-06 29 videos</title></rect><rect fill="#3fffba" height="2.6" width="2.6" x="41.5" y="56.0"><title>2024-03-07 41 videos</title></rect><rect fill="#43ffdb" height="2.6" width="2.6" x="41.5" y="59.5"><title>2024-03-08 30 videos</title></rect><rect fill="#46fff8" height="2.6" width="2.6" x="41.5" y="63.0"><title>2024-03-09 20 videos</title></rect><rect fill="#4dd2ff" height="2.6" width="2.6" x="41.5" y="66.5"><title>2024-03-10 1 videos</title></rect><rect fill="#ffaf00" height="2.6" width="2.6" x="45.0" y="45.5"><title>2024-03-11 68 videos</title></rect><rect fill="#3cffa4" height="2.6" width="2.6" x="45.0" y="49.0"><title>2024-03-12 48 videos</title></rect><rect fill="#ffa500" height="2.6" width="2.6" x="45.0" y="52.5"><title>2024-03-13 76 videos</title></rect><rect fill="#ff9a00" height="2.6" width="2.6" x="45.0" y="56.0"><title>2024-03-14 85 videos</title></rect><rect fill="#ffa400" height="2.6" width="2.6" x="45.0" y="59.5"><title>2024-03-15 77 videos</title></rect><rect fill="#38ff81" height="2.6" width="2.6" x="45.0" y="63.0"><title>2024-03-16 59 videos</title></rect><rect fill="#3fffba" height="2.6" width="2.6" x="45.0" y="66.5"><title>2024-03-17 41 videos</title></rect><rect fill="#3cffa4" height="2.6" width="2.6" x="48.5" y="45.5"><title>2024-03-18 48 videos</title></rect><rect fill="#ff8a00" height="2.6" width="2.6" x="48.5" y="49.0"><title>2024-03-19 99 videos</title></rect><rect fill="#4cdaff" height="2.6" width="2.6" x="48.5" y="52.5"><title>2024-03-20 4 videos</title></rect><rect fill="#40ffc9" height="2.6" width="2.6" x="48.5" y="56.0"><title>2024-03-21 36 videos</title></rect><rect fill="#ff8a00" height="2.6" width="2.6" x="48.5" y="59.5"><title>2024-03-22 99 videos</title></rect><rect fill="#ffb100" height="2.6" width="2.6" x="48.5" y="63.0"><title>2024-03-23 66 videos</title></rect><rect fill="#48f8ff" height="2.6" width="2.6" x="48.5" y="66.5"><title>2024-03-24 15 videos</title></rect><rect fill="#38ff81" height="2.6" width="2.6" x="52.0" y="45.5"><title>2024-03-25 59 videos</title></rect><rect fill="#43ffde" height="2.6" width="2.6" x="52.0" y="49.0"><title>2024-03-26 29 videos</title></rect><rect fill="#3fffc0" height="2.6" width="2.6" x="52.0" y="52.5"><title>2024-03-27 39 videos</title></rect><rect fill="#41ffcc" height="2.6" width="2.6" x="52.0" y="56.0"><title>2024-03-28 35 videos</title></rect><rect fill="#45ffed" height="2.6" width="2.6" x="52.0" y="59.5"><title>2024-03-29 24 videos</title></rect><rect fill="#40ffc6" height="2.6" width="2.6" x="52.0" y="63.0"><title>2024-03-30 37 videos</title></rect><rect fill="#ffae00" height="2.6" width="2.6" x="52.0" y="66.5"><title>2024-03-31 69 videos</title></rect><rect fill="#ffb700" height="2.6" width="2.6" x="55.5" y="45.5"><title>2024-04-01 61 videos</title></rect><rect fill="#3effb4" height="2.6" width="2.6" x="55.5" y="49.0"><title>2024-04-02 43 videos</title></rect><rect fill="#3effb4" height="2.6" width="2.6" x="55.5" y="52.5"><title>2024-04-03 43 videos</title></rect><rect fill="#47fdff" height="2.6" width="2.6" x="55.5" y="56.0"><title>2024-04-04 17 videos</title></rect><rect fill="#3fffba" height="2.6" width="2.6" x="55.5" y="59.5"><title>2024-04-05 41 videos</title></rect><rect fill="#4bdfff" height="2.6" width="2.6" x="55.5" y="63.0"><title>2024-04-06 6 videos</title></rect><rect fill="#40ffc3" height="2.6" width="2.6" x="55.5" y="66.5"><title>2024-04-07 38 videos</title></rect><rect fill="#40ffc9" height="2.6" width="2.6" x="59.0" y="45.5"><title>2024-04-08 36 videos</title></rect><rect fill="#4be2ff" height="2.6" width="2.6" x="59.0" y="49.0"><title>2024-04-09 7 videos</title></rect><rect fill="#45fff2" height="2.6" width="2.6" x="59.0" y="52.5"><title>2024-04-10 22 videos</title></rect><rect fill="#ffae00" height="2.6" width="2.6" x="59.0" y="56.0"><title>2024-04-11 69 videos</title></rect><rect fill="red" height="2.6" width="2.6" x="59.0" y="59.5"><title>2024-04-12 121 videos</title></rect><rect fill="#3fffbd" height="2.6" width="2.6" x="59.0" y="63.0"><title>2024-04-13 40 videos</title></rect><rect fill="#3dffab" height="2.6" width="2.6" x="59.0" y="66.5"><title>2024-04-14 46 videos</title></rect><rect fill="#3bff9b" height="2.6" width="2.6" x="62.5" y="45.5"><title>2024-04-15 51 videos</title></rect><rect fill="#3effb4" height="2.6" width="2.6" x="62.5" y="49.0"><title>2024-04-16 43 videos</title></rect><rect fill="#3dffab" height="2.6" width="2.6" x="62.5" y="52.5"><title>2024-04-17 46 videos</title></rect><rect fill="#44ffea" height="2.6" width="2.6" x="62.5" y="56.0"><title>2024-04-18 25 videos</title></rect><rect fill="#3cffa1" height="2.6" width="2.6" x="62.5" y="59.5"><title>2024-04-19 49 videos</title></rect><rect fill="red" height="2.6" width="2.6" x="62.5" y="63.0"><title>2024-04-20 147 videos</title></rect><rect fill="red" height="2.6" width="2.6" x="62.5" y="66.5"><title>2024-04-21 103 videos</title></rect><rect fill="#ff9900" height="2.6" width="2.6" x="66.0" y="45.5"><title>2024-04-22 86 videos</title></rect><rect fill="#3cffa1" height="2.6" width="2.6" x="66.0" y="49.0"><title>2024-04-23 49 videos</title></rect><rect fill="#46fff8" height="2.6" width="2.6" x="66.0" y="52.5"><title>2024-04-24 20 videos</title></rect><rect fill="#41ffd2" height="2.6" width="2.6" x="66.0" y="56.0"><title>2024-04-25 33 videos</title></rect><rect fill="red" height="2.6" width="2.6" x="66.0" y="59.5"><title>2024-04-26 208 videos</title></rect><rect fill="#ff9900" height="2.6" width="2.6" x="66.0" y="63.0"><title>2024-04-27 86 videos</title></rect><rect fill="#41ffd2" height="2.6" width="2.6" x="66.0" y="66.5"><title>2024-04-28 33 videos</title></rect><rect fill="#ff9c00" height="2.6" width="2.6" x="69.5" y="45.5"><title>2024-04-29 84 videos</title></rect><rect fill="#44ffe7" height="2.6" width="2.6" x="69.5" y="49.0"><title>2024-04-30 26 videos</title></rect><rect fill="red" height="2.6" width="2.6" x="69.5" y="52.5"><title>2024-05-01 120 videos</title></rect><rect fill="#3fffbd" height="2.6" width="2.6" x="69.5" y="56.0"><title>2024-05-02 40 videos</title></rect><rect fill="#ffb400" height="2.6" width="2.6" x="69.5" y="59.5"><title>2024-05-03 64 videos</title></rect><rect fill="red" height="2.6" width="2.6" x="69.5" y="63.0"><title>2024-05-04 114 videos</title></rect><rect fill="#ffb400" height="2.6" width="2.6" x="69.5" y="66.5"><title>2024-05-05 64 videos</title></rect><rect fill="#ff9800" height="2.6" width="2.6" x="73.0" y="45.5"><title>2024-05-06 87 videos</title></rect><rect fill="#ffa200" height="2.6" width="2.6" x="73.0" y="49.0"><title>2024-05-07 79 videos</title></rect><rect fill="red" height="2.6" width="2.6" x="73.0" y="52.5"><title>2024-05-08 153 videos</title></rect><rect fill="red" height="2.6" width="2.6" x="73.0" y="56.0"><title>2024-05-09 116 videos</title></rect><rect fill="#ff9100" height="2.6" width="2.6" x="73.0" y="59.5"><title>2024-05-10 93 videos</title></rect><rect fill="red" height="2.6" width="2.6" x="73.0" y="63.0"><title>2024-05-11 127 videos</title></rect><rect fill="#3dffae" height="2.6" width="2.6" x="73.0" y="66.5"><title>2024-05-12 45 videos</title></rect><rect fill="#444444" height="2.6" width="2.6" x="76.5" y="45.5"><title>2024-05-13</title></rect><rect fill="#444444" height="2.6" width="2.6" x="76.5" y="49.0"><title>2024-05-14</title></rect><rect fill="#444444" height="2.6" width="2.6" x="76.5" y="52.5"><title>2024-05-15</title></rect><rect fill="#444444" height="2.6" width="2.6" x="76.5" y="56.0"><title>2024-05-16</title></rect><rect fill="#444444" height="2.6" width="2.6" x="76.5" y="59.5"><title>2024-05-17</title></rect><rect fill="#444444" height="2.6" width="2.6" x="76.5" y="63.0"><title>2024-05-18</title></rect><rect fill="#444444" height="2.6" width="2.6" x="76.5" y="66.5"><title>2024-05-19</title></rect><rect fill="#444444" height="2.6" width="2.6" x="80.0" y="45.5"><title>2024-05-20</title></rect><rect fill="#444444" height="2.6" width="2.6" x="80.0" y="49.0"><title>2024-05-21</title></rect><rect fill="#444444" height="2.6" width="2.6" x="80.0" y="52.5"><title>2024-05-22</title></rect><rect fill="#444444" height="2.6" width="2.6" x="80.0" y="56.0"><title>2024-05-23</title></rect><rect fill="#444444" height="2.6" width="2.6" x="80.0" y="59.5"><title>2024-05-24</title></rect><rect fill="#444444" height="2.6" width="2.6" x="80.0" y="63.0"><title>2024-05-25</title></rect><rect fill="#444444" height="2.6" width="2.6" x="80.0" y="66.5"><title>2024-05-26</title></rect><rect fill="#444444" height="2.6" width="2.6" x="83.5" y="45.5"><title>2024-05-27</title></rect><rect fill="#444444" height="2.6" width="2.6" x="83.5" y="49.0"><title>2024-05-28</title></rect><rect fill="#444444" height="2.6" width="2.6" x="83.5" y="52.5"><title>2024-05-29</title></rect><rect fill="#444444" height="2.6" width="2.6" x="83.5" y="56.0"><title>2024-05-30</title></rect><rect fill="#444444" height="2.6" width="2.6" x="83.5" y="59.5"><title>2024-05-31</title></rect><rect fill="#444444" height="2.6" width="2.6" x="83.5" y="63.0"><title>2024-06-01</title></rect><rect fill="#444444" height="2.6" width="2.6" x="83.5" y="66.5"><title>2024-06-02</title></rect><rect fill="#444444" height="2.6" width="2.6" x="87.0" y="45.5"><title>2024-06-03</title></rect><rect fill="#444444" height="2.6" width="2.6" x="87.0" y="49.0"><title>2024-06-04</title></rect><rect fill="#444444" height="2.6" width="2.6" x="87.0" y="52.5"><title>2024-06-05</title></rect><rect fill="#444444" height="2.6" width="2.6" x="87.0" y="56.0"><title>2024-06-06</title></rect><rect fill="#444444" height="2.6" width="2.6" x="87.0" y="59.5"><title>2024-06-07</title></rect><rect fill="#444444" height="2.6" width="2.6" x="87.0" y="63.0"><title>2024-06-08</title></rect><rect fill="#444444" height="2.6" width="2.6" x="87.0" y="66.5"><title>2024-06-09</title></rect><rect fill="#444444" height="2.6" width="2.6" x="90.5" y="45.5"><title>2024-06-10</title></rect><rect fill="#444444" height="2.6" width="2.6" x="90.5" y="49.0"><title>2024-06-11</title></rect><rect fill="#444444" height="2.6" width="2.6" x="90.5" y="52.5"><title>2024-06-12</title></rect><rect fill="#444444" height="2.6" width="2.6" x="90.5" y="56.0"><title>2024-06-13</title></rect><rect fill="#444444" height="2.6" width="2.6" x="90.5" y="59.5"><title>2024-06-14</title></rect><rect fill="#444444" height="2.6" width="2.6" x="90.5" y="63.0"><title>2024-06-15</title></rect><rect fill="#444444" height="2.6" width="2.6" x="90.5" y="66.5"><title>2024-06-16</title></rect><rect fill="#444444" height="2.6" width="2.6" x="94.0" y="45.5"><title>2024-06-17</title></rect><rect fill="#444444" height="2.6" width="2.6" x="94.0" y="49.0"><title>2024-06-18</title></rect><rect fill="#444444" height="2.6" width="2.6" x="94.0" y="52.5"><title>2024-06-19</title></rect><rect fill="#444444" height="2.6" width="2.6" x="94.0" y="56.0"><title>2024-06-20</title></rect><rect fill="#444444" height="2.6" width="2.6" x="94.0" y="59.5"><title>2024-06-21</title></rect><rect fill="#444444" height="2.6" width="2.6" x="94.0" y="63.0"><title>2024-06-22</title></rect><rect fill="#444444" height="2.6" width="2.6" x="94.0" y="66.5"><title>2024-06-23</title></rect><rect fill="#444444" height="2.6" width="2.6" x="97.5" y="45.5"><title>2024-06-24</title></rect><rect fill="#444444" height="2.6" width="2.6" x="97.5" y="49.0"><title>2024-06-25</title></rect><rect fill="#444444" height="2.6" width="2.6" x="97.5" y="52.5"><title>2024-06-26</title></rect><rect fill="#444444" height="2.6" width="2.6" x="97.5" y="56.0"><title>2024-06-27</title></rect><rect fill="#444444" height="2.6" width="2.6" x="97.5" y="59.5"><title>2024-06-28</title></rect><rect fill="#444444" height="2.6" width="2.6" x="97.5" y="63.0"><title>2024-06-29</title></rect><rect fill="#444444" height="2.6" width="2.6" x="97.5" y="66.5"><title>2024-06-30</title></rect><rect fill="#444444" height="2.6" width="2.6" x="101.0" y="45.5"><title>2024-07-01</title></rect><rect fill="#444444" height="2.6" width="2.6" x="101.0" y="49.0"><title>2024-07-02</title></rect><rect fill="#444444" height="2.6" width="2.6" x="101.0" y="52.5"><title>2024-07-03</title></rect><rect fill="#444444" height="2.6" width="2.6" x="101.0" y="56.0"><title>2024-07-04</title></rect><rect fill="#444444" height="2.6" width="2.6" x="101.0" y="59.5"><title>2024-07-05</title></rect><rect fill="#444444" height="2.6" width="2.6" x="101.0" y="63.0"><title>2024-07-06</title></rect><rect fill="#444444" height="2.6" width="2.6" x="101.0" y="66.5"><title>2024-07-07</title></rect><rect fill="#444444" height="2.6" width="2.6" x="104.5" y="45.5"><title>2024-07-08</title></rect><rect fill="#444444" height="2.6" width="2.6" x="104.5" y="49.0"><title>2024-07-09</title></rect><rect fill="#444444" height="2.6" width="2.6" x="104.5" y="52.5"><title>2024-07-10</title></rect><rect fill="#444444" height="2.6" width="2.6" x="104.5" y="56.0"><title>2024-07-11</title></rect><rect fill="#444444" height="2.6" width="2.6" x="104.5" y="59.5"><title>2024-07-12</title></rect><rect fill="#444444" height="2.6" width="2.6" x="104.5" y="63.0"><title>2024-07-13</title></rect><rect fill="#444444" height="2.6" width="2.6" x="104.5" y="66.5"><title>2024-07-14</title></rect><rect fill="#444444" height="2.6" width="2.6" x="108.0" y="45.5"><title>2024-07-15</title></rect><rect fill="#444444" height="2.6" width="2.6" x="108.0" y="49.0"><title>2024-07-16</title></rect><rect fill="#444444" height="2.6" width="2.6" x="108.0" y="52.5"><title>2024-07-17</title></rect><rect fill="#444444" height="2.6" width="2.6" x="108.0" y="56.0"><title>2024-07-18</title></rect><rect fill="#444444" height="2.6" width="2.6" x="108.0" y="59.5"><title>2024-07-19</title></rect><rect fill="#444444" height="2.6" width="2.6" x="108.0" y="63.0"><title>2024-07-20</title></rect><rect fill="#444444" height="2.6" width="2.6" x="108.0" y="66.5"><title>2024-07-21</title></rect><rect fill="#444444" height="2.6" width="2.6" x="111.5" y="45.5"><title>2024-07-22</title></rect><rect fill="#444444" height="2.6" width="2.6" x="111.5" y="49.0"><title>2024-07-23</title></rect><rect fill="#444444" height="2.6" width="2.6" x="111.5" y="52.5"><title>2024-07-24</title></rect><rect fill="#444444" height="2.6" width="2.6" x="111.5" y="56.0"><title>2024-07-25</title></rect><rect fill="#444444" height="2.6" width="2.6" x="111.5" y="59.5"><title>2024-07-26</title></rect><rect fill="#444444" height="2.6" width="2.6" x="111.5" y="63.0"><title>2024-07-27</title></rect><rect fill="#444444" height="2.6" width="2.6" x="111.5" y="66.5"><title>2024-07-28</title></rect><rect fill="#444444" height="2.6" width="2.6" x="115.0" y="45.5"><title>2024-07-29</title></rect><rect fill="#444444" height="2.6" width="2.6" x="115.0" y="49.0"><title>2024-07-30</title></rect><rect fill="#444444" height="2.6" width="2.6" x="115.0" y="52.5"><title>2024-07-31</title></rect><rect fill="#444444" height="2.6" width="2.6" x="115.0" y="56.0"><title>2024-08-01</title></rect><rect fill="#444444" height="2.6" width="2.6" x="115.0" y="59.5"><title>2024-08-02</title></rect><rect fill="#444444" height="2.6" width="2.6" x="115.0" y="63.0"><title>2024-08-03</title></rect><rect fill="#444444" height="2.6" width="2.6" x="115.0" y="66.5"><title>2024-08-04</title></rect><rect fill="#444444" height="2.6" width="2.6" x="118.5" y="45.5"><title>2024-08-05</title></rect><rect fill="#444444" height="2.6" width="2.6" x="118.5" y="49.0"><title>2024-08-06</title></rect><rect fill="#444444" height="2.6" width="2.6" x="118.5" y="52.5"><title>2024-08-07</title></rect><rect fill="#444444" height="2.6" width="2.6" x="118.5" y="56.0"><title>2024-08-08</title></rect><rect fill="#444444" height="2.6" width="2.6" x="118.5" y="59.5"><title>2024-08-09</title></rect><rect fill="#444444" height="2.6" width="2.6" x="118.5" y="63.0"><title>2024-08-10</title></rect><rect fill="#444444" height="2.6" width="2.6" x="118.5" y="66.5"><title>2024-08-11</title></rect><rect fill="#444444" height="2.6" width="2.6" x="122.0" y="45.5"><title>2024-08-12</title></rect><rect fill="#444444" height="2.6" width="2.6" x="122.0" y="49.0"><title>2024-08-13</title></rect><rect fill="#444444" height="2.6" width="2.6" x="122.0" y="52.5"><title>2024-08-14</title></rect><rect fill="#444444" height="2.6" width="2.6" x="122.0" y="56.0"><title>2024-08-15</title></rect><rect fill="#444444" height="2.6" width="2.6" x="122.0" y="59.5"><title>2024-08-16</title></rect><rect fill="#444444" height="2.6" width="2.6" x="122.0" y="63.0"><title>2024-08-17</title></rect><rect fill="#444444" height="2.6" width="2.6" x="122.0" y="66.5"><title>2024-08-18</title></rect><rect fill="#444444" height="2.6" width="2.6" x="125.5" y="45.5"><title>2024-08-19</title></rect><rect fill="#444444" height="2.6" width="2.6" x="125.5" y="49.0"><title>2024-08-20</title></rect><rect fill="#444444" height="2.6" width="2.6" x="125.5" y="52.5"><title>2024-08-21</title></rect><rect fill="#444444" height="2.6" width="2.6" x="125.5" y="56.0"><title>2024-08-22</title></rect><rect fill="#444444" height="2.6" width="2.6" x="125.5" y="59.5"><title>2024-08-23</title></rect><rect fill="#444444" height="2.6" width="2.6" x="125.5" y="63.0"><title>2024-08-24</title></rect><rect fill="#444444" height="2.6" width="2.6" x="125.5" y="66.5"><title>2024-08-25</title></rect><rect fill="#444444" height="2.6" width="2.6" x="129.0" y="45.5"><title>2024-08-26</title></rect><rect fill="#444444" height="2.6" width="2.6" x="129.0" y="49.0"><title>2024-08-27</title></rect><rect fill="#444444" height="2.6" width="2.6" x="129.0" y="52.5"><title>2024-08-28</title></rect><rect fill="#444444" height="2.6" width="2.6" x="129.0" y="56.0"><title>2024-08-29</title></rect><rect fill="#444444" height="2.6" width="2.6" x="129.0" y="59.5"><title>2024-08-30</title></rect><rect fill="#444444" height="2.6" width="2.6" x="129.0" y="63.0"><title>2024-08-31</title></rect><rect fill="#444444" height="2.6" width="2.6" x="129.0" y="66.5"><title>2024-09-01</title></rect><rect fill="#444444" height="2.6" width="2.6" x="132.5" y="45.5"><title>2024-09-02</title></rect><rect fill="#444444" height="2.6" width="2.6" x="132.5" y="49.0"><title>2024-09-03</title></rect><rect fill="#444444" height="2.6" width="2.6" x="132.5" y="52.5"><title>2024-09-04</title></rect><rect fill="#444444" height="2.6" width="2.6" x="132.5" y="56.0"><title>2024-09-05</title></rect><rect fill="#444444" height="2.6" width="2.6" x="132.5" y="59.5"><title>2024-09-06</title></rect><rect fill="#444444" height="2.6" width="2.6" x="132.5" y="63.0"><title>2024-09-07</title></rect><rect fill="#444444" height="2.6" width="2.6" x="132.5" y="66.5"><title>2024-09-08</title></rect><rect fill="#444444" height="2.6" width="2.6" x="136.0" y="45.5"><title>2024-09-09</title></rect><rect fill="#444444" height="2.6" width="2.6" x="136.0" y="49.0"><title>2024-09-10</title></rect><rect fill="#444444" height="2.6" width="2.6" x="136.0" y="52.5"><title>2024-09-11</title></rect><rect fill="#444444" height="2.6" width="2.6" x="136.0" y="56.0"><title>2024-09-12</title></rect><rect fill="#444444" height="2.6" width="2.6" x="136.0" y="59.5"><title>2024-09-13</title></rect><rect fill="#444444" height="2.6" width="2.6" x="136.0" y="63.0"><title>2024-09-14</title></rect><rect fill="#444444" height="2.6" width="2.6" x="136.0" y="66.5"><title>2024-09-15</title></rect><rect fill="#444444" height="2.6" width="2.6" x="139.5" y="45.5"><title>2024-09-16</title></rect><rect fill="#444444" height="2.6" width="2.6" x="139.5" y="49.0"><title>2024-09-17</title></rect><rect fill="#444444" height="2.6" width="2.6" x="139.5" y="52.5"><title>2024-09-18</title></rect><rect fill="#444444" height="2.6" width="2.6" x="139.5" y="56.0"><title>2024-09-19</title></rect><rect fill="#444444" height="2.6" width="2.6" x="139.5" y="59.5"><title>2024-09-20</title></rect><rect fill="#444444" height="2.6" width="2.6" x="139.5" y="63.0"><title>2024-09-21</title></rect><rect fill="#444444" height="2.6" width="2.6" x="139.5" y="66.5"><title>2024-09-22</title></rect><rect fill="#444444" height="2.6" width="2.6" x="143.0" y="45.5"><title>2024-09-23</title></rect><rect fill="#444444" height="2.6" width="2.6" x="143.0" y="49.0"><title>2024-09-24</title></rect><rect fill="#444444" height="2.6" width="2.6" x="143.0" y="52.5"><title>2024-09-25</title></rect><rect fill="#444444" height="2.6" width="2.6" x="143.0" y="56.0"><title>2024-09-26</title></rect><rect fill="#444444" height="2.6" width="2.6" x="143.0" y="59.5"><title>2024-09-27</title></rect><rect fill="#444444" height="2.6" width="2.6" x="143.0" y="63.0"><title>2024-09-28</title></rect><rect fill="#444444" height="2.6" width="2.6" x="143.0" y="66.5"><title>2024-09-29</title></rect><rect fill="#444444" height="2.6" width="2.6" x="146.5" y="45.5"><title>2024-09-30</title></rect><rect fill="#444444" height="2.6" width="2.6" x="146.5" y="49.0"><title>2024-10-01</title></rect><rect fill="#444444" height="2.6" width="2.6" x="146.5" y="52.5"><title>2024-10-02</title></rect><rect fill="#444444" height="2.6" width="2.6" x="146.5" y="56.0"><title>2024-10-03</title></rect><rect fill="#444444" height="2.6" width="2.6" x="146.5" y="59.5"><title>2024-10-04</title></rect><rect fill="#444444" height="2.6" width="2.6" x="146.5" y="63.0"><title>2024-10-05</title></rect><rect fill="#444444" height="2.6" width="2.6" x="146.5" y="66.5"><title>2024-10-06</title></rect><rect fill="#444444" height="2.6" width="2.6" x="150.0" y="45.5"><title>2024-10-07</title></rect><rect fill="#444444" height="2.6" width="2.6" x="150.0" y="49.0"><title>2024-10-08</title></rect><rect fill="#444444" height="2.6" width="2.6" x="150.0" y="52.5"><title>2024-10-09</title></rect><rect fill="#444444" height="2.6" width="2.6" x="150.0" y="56.0"><title>2024-10-10</title></rect><rect fill="#444444" height="2.6" width="2.6" x="150.0" y="59.5"><title>2024-10-11</title></rect><rect fill="#444444" height="2.6" width="2.6" x="150.0" y="63.0"><title>2024-10-12</title></rect><rect fill="#444444" height="2.6" width="2.6" x="150.0" y="66.5"><title>2024-10-13</title></rect><rect fill="#444444" height="2.6" width="2.6" x="153.5" y="45.5"><title>2024-10-14</title></rect><rect fill="#444444" height="2.6" width="2.6" x="153.5" y="49.0"><title>2024-10-15</title></rect><rect fill="#444444" height="2.6" width="2.6" x="153.5" y="52.5"><title>2024-10-16</title></rect><rect fill="#444444" height="2.6" width="2.6" x="153.5" y="56.0"><title>2024-10-17</title></rect><rect fill="#444444" height="2.6" width="2.6" x="153.5" y="59.5"><title>2024-10-18</title></rect><rect fill="#444444" height="2.6" width="2.6" x="153.5" y="63.0"><title>2024-10-19</title></rect><rect fill="#444444" height="2.6" width="2.6" x="153.5" y="66.5"><title>2024-10-20</title></rect><rect fill="#444444" height="2.6" width="2.6" x="157.0" y="45.5"><title>2024-10-21</title></rect><rect fill="#444444" height="2.6" width="2.6" x="157.0" y="49.0"><title>2024-10-22</title></rect><rect fill="#444444" height="2.6" width="2.6" x="157.0" y="52.5"><title>2024-10-23</title></rect><rect fill="#444444" height="2.6" width="2.6" x="157.0" y="56.0"><title>2024-10-24</title></rect><rect fill="#444444" height="2.6" width="2.6" x="157.0" y="59.5"><title>2024-10-25</title></rect><rect fill="#444444" height="2.6" width="2.6" x="157.0" y="63.0"><title>2024-10-26</title></rect><rect fill="#444444" height="2.6" width="2.6" x="157.0" y="66.5"><title>2024-10-27</title></rect><rect fill="#444444" height="2.6" width="2.6" x="160.5" y="45.5"><title>2024-10-28</title></rect><rect fill="#444444" height="2.6" width="2.6" x="160.5" y="49.0"><title>2024-10-29</title></rect><rect fill="#444444" height="2.6" width="2.6" x="160.5" y="52.5"><title>2024-10-30</title></rect><rect fill="#444444" height="2.6" width="2.6" x="160.5" y="56.0"><title>2024-10-31</title></rect><rect fill="#444444" height="2.6" width="2.6" x="160.5" y="59.5"><title>2024-11-01</title></rect><rect fill="#444444" height="2.6" width="2.6" x="160.5" y="63.0"><title>2024-11-02</title></rect><rect fill="#444444" height="2.6" width="2.6" x="160.5" y="66.5"><title>2024-11-03</title></rect><rect fill="#444444" height="2.6" width="2.6" x="164.0" y="45.5"><title>2024-11-04</title></rect><rect fill="#444444" height="2.6" width="2.6" x="164.0" y="49.0"><title>2024-11-05</title></rect><rect fill="#444444" height="2.6" width="2.6" x="164.0" y="52.5"><title>2024-11-06</title></rect><rect fill="#444444" height="2.6" width="2.6" x="164.0" y="56.0"><title>2024-11-07</title></rect><rect fill="#444444" height="2.6" width="2.6" x="164.0" y="59.5"><title>2024-11-08</title></rect><rect fill="#444444" height="2.6" width="2.6" x="164.0" y="63.0"><title>2024-11-09</title></rect><rect fill="#444444" height="2.6" width="2.6" x="164.0" y="66.5"><title>2024-11-10</title></rect><rect fill="#444444" height="2.6" width="2.6" x="167.5" y="45.5"><title>2024-11-11</title></rect><rect fill="#444444" height="2.6" width="2.6" x="167.5" y="49.0"><title>2024-11-12</title></rect><rect fill="#444444" height="2.6" width="2.6" x="167.5" y="52.5"><title>2024-11-13</title></rect><rect fill="#444444" height="2.6" width="2.6" x="167.5" y="56.0"><title>2024-11-14</title></rect><rect fill="#444444" height="2.6" width="2.6" x="167.5" y="59.5"><title>2024-11-15</title></rect><rect fill="#444444" height="2.6" width="2.6" x="167.5" y="63.0"><title>2024-11-16</title></rect><rect fill="#444444" height="2.6" width="2.6" x="167.5" y="66.5"><title>2024-11-17</title></rect><rect fill="#444444" height="2.6" width="2.6" x="171.0" y="45.5"><title>2024-11-18</title></rect><rect fill="#444444" height="2.6" width="2.6" x="171.0" y="49.0"><title>2024-11-19</title></rect><rect fill="#444444" height="2.6" width="2.6" x="171.0" y="52.5"><title>2024-11-20</title></rect><rect fill="#444444" height="2.6" width="2.6" x="171.0" y="56.0"><title>2024-11-21</title></rect><rect fill="#444444" height="2.6" width="2.6" x="171.0" y="59.5"><title>2024-11-22</title></rect><rect fill="#444444" height="2.6" width="2.6" x="171.0" y="63.0"><title>2024-11-23</title></rect><rect fill="#444444" height="2.6" width="2.6" x="171.0" y="66.5"><title>2024-11-24</title></rect><rect fill="#444444" height="2.6" width="2.6" x="174.5" y="45.5"><title>2024-11-25</title></rect><rect fill="#444444" height="2.6" width="2.6" x="174.5" y="49.0"><title>2024-11-26</title></rect><rect fill="#444444" height="2.6" width="2.6" x="174.5" y="52.5"><title>2024-11-27</title></rect><rect fill="#444444" height="2.6" width="2.6" x="174.5" y="56.0"><title>2024-11-28</title></rect><rect fill="#444444" height="2.6" width="2.6" x="174.5" y="59.5"><title>2024-11-29</title></rect><rect fill="#444444" height="2.6" width="2.6" x="174.5" y="63.0"><title>2024-11-30</title></rect><rect fill="#444444" height="2.6" width="2.6" x="174.5" y="66.5"><title>2024-12-01</title></rect><rect fill="#444444" height="2.6" width="2.6" x="178.0" y="45.5"><title>2024-12-02</title></rect><rect fill="#444444" height="2.6" width="2.6" x="178.0" y="49.0"><title>2024-12-03</title></rect><rect fill="#444444" height="2.6" width="2.6" x="178.0" y="52.5"><title>2024-12-04</title></rect><rect fill="#444444" height="2.6" width="2.6" x="178.0" y="56.0"><title>2024-12-05</title></rect><rect fill="#444444" height="2.6" width="2.6" x="178.0" y="59.5"><title>2024-12-06</title></rect><rect fill="#444444" height="2.6" width="2.6" x="178.0" y="63.0"><title>2024-12-07</title></rect><rect fill="#444444" height="2.6" width="2.6" x="178.0" y="66.5"><title>2024-12-08</title></rect><rect fill="#444444" height="2.6" width="2.6" x="181.5" y="45.5"><title>2024-12-09</title></rect><rect fill="#444444" height="2.6" width="2.6" x="181.5" y="49.0"><title>2024-12-10</title></rect><rect fill="#444444" height="2.6" width="2.6" x="181.5" y="52.5"><title>2024-12-11</title></rect><rect fill="#444444" height="2.6" width="2.6" x="181.5" y="56.0"><title>2024-12-12</title></rect><rect fill="#444444" height="2.6" width="2.6" x="181.5" y="59.5"><title>2024-12-13</title></rect><rect fill="#444444" height="2.6" width="2.6" x="181.5" y="63.0"><title>2024-12-14</title></rect><rect fill="#444444" height="2.6" width="2.6" x="181.5" y="66.5"><title>2024-12-15</title></rect><rect fill="#444444" height="2.6" width="2.6" x="185.0" y="45.5"><title>2024-12-16</title></rect><rect fill="#444444" height="2.6" width="2.6" x="185.0" y="49.0"><title>2024-12-17</title></rect><rect fill="#444444" height="2.6" width="2.6" x="185.0" y="52.5"><title>2024-12-18</title></rect><rect fill="#444444" height="2.6" width="2.6" x="185.0" y="56.0"><title>2024-12-19</title></rect><rect fill="#444444" height="2.6" width="2.6" x="185.0" y="59.5"><title>2024-12-20</title></rect><rect fill="#444444" height="2.6" width="2.6" x="185.0" y="63.0"><title>2024-12-21</title></rect><rect fill="#444444" height="2.6" width="2.6" x="185.0" y="66.5"><title>2024-12-22</title></rect><rect fill="#444444" height="2.6" width="2.6" x="188.5" y="45.5"><title>2024-12-23</title></rect><rect fill="#444444" height="2.6" width="2.6" x="188.5" y="49.0"><title>2024-12-24</title></rect><rect fill="#444444" height="2.6" width="2.6" x="188.5" y="52.5"><title>2024-12-25</title></rect><rect fill="#444444" height="2.6" width="2.6" x="188.5" y="56.0"><title>2024-12-26</title></rect><rect fill="#444444" height="2.6" width="2.6" x="188.5" y="59.5"><title>2024-12-27</title></rect><rect fill="#444444" height="2.6" width="2.6" x="188.5" y="63.0"><title>2024-12-28</title></rect><rect fill="#444444" height="2.6" width="2.6" x="188.5" y="66.5"><title>2024-12-29</title></rect><rect fill="#444444" height="2.6" width="2.6" x="192.0" y="45.5"><title>2024-12-30</title></rect><rect fill="#444444" height="2.6" width="2.6" x="192.0" y="49.0"><title>2024-12-31</title></rect></svg>