<?xml version="1.0" encoding="utf-8" ?>
<svg baseProfile="full" height="78mm" version="1.1" viewBox="0,0,200,78" width="200mm" xmlns="http://www.w3.org/2000/svg" xmlns:ev="http://www.w3.org/2001/xml-events" xmlns:xlink="http://www.w3.org/1999/xlink"><defs /><rect fill="#222222" height="78" width="200" x="0" y="0" /><text fill="#FFFFFF" style="font-size:12px; font-family:Arial; font-weight:bold;" x="10" y="20">rip-tyang bilibili</text><text dominant-baseline="hanging" fill="#FFFFFF" style="font-size:10.0px; font-family:Arial;" x="10" y="30">2024</text><text dominant-baseline="hanging" fill="#FFFFFF" style="font-size:4.125px; font-family:Arial;" x="175" y="35">13119 videos</text><text fill="#FFFFFF" style="font-size:2.5px; font-family:Arial" x="10.0" y="44">Jan</text><text fill="#FFFFFF" style="font-size:2.5px; font-family:Arial" x="25.5" y="44">Feb</text><text fill="#FFFFFF" style="font-size:2.5px; font-family:Arial" x="41.0" y="44">Mar</text><text fill="#FFFFFF" style="font-size:2.5px; font-family:Arial" x="56.5" y="44">Apr</text><text fill="#FFFFFF" style="font-size:2.5px; font-family:Arial" x="72.0" y="44">May</text><text fill="#FFFFFF" style="font-size:2.5px; font-family:Arial" x="87.5" y="44">Jun</text><text fill="#FFFFFF" style="font-size:2.5px; font-family:Arial" x="103.0" y="44">Jul</text><text fill="#FFFFFF" style="font-size:2.5px; font-family:Arial" x="118.5" y="44">Aug</text><text fill="#FFFFFF" style="font-size:2.5px; font-family:Arial" x="134.0" y="44">Sep</text><text fill="#FFFFFF" style="font-size:2.5px; font-family:Arial" x="149.5" y="44">Oct</text><text fill="#FFFFFF" style="font-size:2.5px; font-family:Arial" x="165.0" y="44">Nov</text><text fill="#FFFFFF" style="font-size:2.5px; font-family:Arial" x="180.5" y="44">Dec</text><rect fill="#4cd6ff" height="2.6" width="2.6" x="10.0" y="45.5"><title>2024-01-01 4 videos</title></rect><rect fill="#43ffdb" height="2.6" width="2.6" x="10.0" y="49.0"><title>2024-01-02 52 videos</title></rect><rect fill="#49f0ff" height="2.6" width="2.6" x="10.0" y="52.5"><title>2024-01-03 21 videos</title></rect><rect fill="#ffbb00" height="2.6" width="2.6" x="10.0" y="56.0"><title>2024-01-04 101 videos</title></rect><rect fill="#45fff1" height="2.6" width="2.6" x="10.0" y="59.5"><title>2024-01-05 39 videos</title></rect><rect fill="#45fff3" height="2.6" width="2.6" x="10.0" y="63.0"><title>2024-01-06 38 videos</title></rect><rect fill="#ffc500" height="2.6" width="2.6" x="10.0" y="66.5"><title>2024-01-07 87 videos</title></rect><rect fill="#43ffdd" height="2.6" width="2.6" x="13.5" y="45.5"><title>2024-01-08 51 videos</title></rect><rect fill="#ffcb00" height="2.6" width="2.6" x="13.5" y="49.0"><title>2024-01-09 78 videos</title></rect><rect fill="#4bdeff" height="2.6" width="2.6" x="13.5" y="52.5"><title>2024-01-10 9 videos</title></rect><rect fill="#ffc300" height="2.6" width="2.6" x="13.5" y="56.0"><title>2024-01-11 89 videos</title></rect><rect fill="#40ffc4" height="2.6" width="2.6" x="13.5" y="59.5"><title>2024-01-12 66 videos</title></rect><rect fill="#46fffb" height="2.6" width="2.6" x="13.5" y="63.0"><title>2024-01-13 33 videos</title></rect><rect fill="#4dd2ff" height="2.6" width="2.6" x="13.5" y="66.5"><title>2024-01-14 1 videos</title></rect><rect fill="#49efff" height="2.6" width="2.6" x="17.0" y="45.5"><title>2024-01-15 20 videos</title></rect><rect fill="#4ae7ff" height="2.6" width="2.6" x="17.0" y="49.0"><title>2024-01-16 15 videos</title></rect><rect fill="#4dd2ff" height="2.6" width="2.6" x="17.0" y="52.5"><title>2024-01-17 1 videos</title></rect><rect fill="#47fffe" height="2.6" width="2.6" x="17.0" y="56.0"><title>2024-01-18 31 videos</title></rect><rect fill="#4aeaff" height="2.6" width="2.6" x="17.0" y="59.5"><title>2024-01-19 17 videos</title></rect><rect fill="#47fdff" height="2.6" width="2.6" x="17.0" y="63.0"><title>2024-01-20 29 videos</title></rect><rect fill="#47fbff" height="2.6" width="2.6" x="17.0" y="66.5"><title>2024-01-21 28 videos</title></rect><rect fill="#42ffd6" height="2.6" width="2.6" x="20.5" y="45.5"><title>2024-01-22 55 videos</title></rect><rect fill="red" height="2.6" width="2.6" x="20.5" y="49.0"><title>2024-01-23 122 videos</title></rect><rect fill="#40ffc4" height="2.6" width="2.6" x="20.5" y="52.5"><title>2024-01-24 66 videos</title></rect><rect fill="#ffc200" height="2.6" width="2.6" x="20.5" y="56.0"><title>2024-01-25 91 videos</title></rect><rect fill="#ffb900" height="2.6" width="2.6" x="20.5" y="59.5"><title>2024-01-26 104 videos</title></rect><rect fill="red" height="2.6" width="2.6" x="20.5" y="63.0"><title>2024-01-27 126 videos</title></rect><rect fill="#41ffce" height="2.6" width="2.6" x="20.5" y="66.5"><title>2024-01-28 60 videos</title></rect><rect fill="red" height="2.6" width="2.6" x="24.0" y="45.5"><title>2024-01-29 162 videos</title></rect><rect fill="#ffb900" height="2.6" width="2.6" x="24.0" y="49.0"><title>2024-01-30 104 videos</title></rect><rect fill="#ffc600" height="2.6" width="2.6" x="24.0" y="52.5"><title>2024-01-31 85 videos</title></rect><rect fill="#42ffda" height="2.6" width="2.6" x="24.0" y="56.0"><title>2024-02-01 53 videos</title></rect><rect fill="red" height="2.6" width="2.6" x="24.0" y="59.5"><title>2024-02-02 138 videos</title></rect><rect fill="#ffb200" height="2.6" width="2.6" x="24.0" y="63.0"><title>2024-02-03 114 videos</title></rect><rect fill="red" height="2.6" width="2.6" x="24.0" y="66.5"><title>2024-02-04 121 videos</title></rect><rect fill="#48f4ff" height="2.6" width="2.6" x="27.5" y="45.5"><title>2024-02-05 23 videos</title></rect><rect fill="#ffb600" height="2.6" width="2.6" x="27.5" y="49.0"><title>2024-02-06 108 videos</title></rect><rect fill="#46fffb" height="2.6" width="2.6" x="27.5" y="52.5"><title>2024-02-07 33 videos</title></rect><rect fill="#ffce00" height="2.6" width="2.6" x="27.5" y="56.0"><title>2024-02-08 73 videos</title></rect><rect fill="#41ffd1" height="2.6" width="2.6" x="27.5" y="59.5"><title>2024-02-09 58 videos</title></rect><rect fill="#49efff" height="2.6" width="2.6" x="27.5" y="63.0"><title>2024-02-10 20 videos</title></rect><rect fill="#41ffd1" height="2.6" width="2.6" x="27.5" y="66.5"><title>2024-02-11 58 videos</title></rect><rect fill="#ffbd00" height="2.6" width="2.6" x="31.0" y="45.5"><title>2024-02-12 98 videos</title></rect><rect fill="#48f7ff" height="2.6" width="2.6" x="31.0" y="49.0"><title>2024-02-13 25 videos</title></rect><rect fill="#444444" height="2.6" width="2.6" x="31.0" y="52.5"><title>2024-02-14</title></rect><rect fill="#4ae7ff" height="2.6" width="2.6" x="31.0" y="56.0"><title>2024-02-15 15 videos</title></rect><rect fill="#47fbff" height="2.6" width="2.6" x="31.0" y="59.5"><title>2024-02-16 28 videos</title></rect><rect fill="#4be0ff" height="2.6" width="2.6" x="31.0" y="63.0"><title>2024-02-17 10 videos</title></rect><rect fill="#4ae6ff" height="2.6" width="2.6" x="31.0" y="66.5"><title>2024-02-18 14 videos</title></rect><rect fill="#47fffe" height="2.6" width="2.6" x="34.5" y="45.5"><title>2024-02-19 31 videos</title></rect><rect fill="#47fbff" height="2.6" width="2.6" x="34.5" y="49.0"><title>2024-02-20 28 videos</title></rect><rect fill="#ffc500" height="2.6" width="2.6" x="34.5" y="52.5"><title>2024-02-21 86 videos</title></rect><rect fill="#47fdff" height="2.6" width="2.6" x="34.5" y="56.0"><title>2024-02-22 29 videos</title></rect><rect fill="#4bdeff" height="2.6" width="2.6" x="34.5" y="59.5"><title>2024-02-23 9 videos</title></rect><rect fill="#47fdff" height="2.6" width="2.6" x="34.5" y="63.0"><title>2024-02-24 29 videos</title></rect><rect fill="#ffd000" height="2.6" width="2.6" x="34.5" y="66.5"><title>2024-02-25 71 videos</title></rect><rect fill="#ffd000" height="2.6" width="2.6" x="38.0" y="45.5"><title>2024-02-26 70 videos</title></rect><rect fill="#42ffd5" height="2.6" width="2.6" x="38.0" y="49.0"><title>2024-02-27 56 videos</title></rect><rect fill="#44ffea" height="2.6" width="2.6" x="38.0" y="52.5"><title>2024-02-28 43 videos</title></rect><rect fill="#ffb600" height="2.6" width="2.6" x="38.0" y="56.0"><title>2024-02-29 109 videos</title></rect><rect fill="#49f2ff" height="2.6" width="2.6" x="38.0" y="59.5"><title>2024-03-01 22 videos</title></rect><rect fill="#ffd100" height="2.6" width="2.6" x="38.0" y="63.0"><title>2024-03-02 69 videos</title></rect><rect fill="#ffce00" height="2.6" width="2.6" x="38.0" y="66.5"><title>2024-03-03 73 videos</title></rect><rect fill="#ffb400" height="2.6" width="2.6" x="41.5" y="45.5"><title>2024-03-04 112 videos</title></rect><rect fill="#47fdff" height="2.6" width="2.6" x="41.5" y="49.0"><title>2024-03-05 29 videos</title></rect><rect fill="#47fdff" height="2.6" width="2.6" x="41.5" y="52.5"><title>2024-03-06 29 videos</title></rect><rect fill="#45ffee" height="2.6" width="2.6" x="41.5" y="56.0"><title>2024-03-07 41 videos</title></rect><rect fill="#47ffff" height="2.6" width="2.6" x="41.5" y="59.5"><title>2024-03-08 30 videos</title></rect><rect fill="#49efff" height="2.6" width="2.6" x="41.5" y="63.0"><title>2024-03-09 20 videos</title></rect><rect fill="#4dd2ff" height="2.6" width="2.6" x="41.5" y="66.5"><title>2024-03-10 1 videos</title></rect><rect fill="#ffd200" height="2.6" width="2.6" x="45.0" y="45.5"><title>2024-03-11 68 videos</title></rect><rect fill="#43ffe2" height="2.6" width="2.6" x="45.0" y="49.0"><title>2024-03-12 48 videos</title></rect><rect fill="#ffcc00" height="2.6" width="2.6" x="45.0" y="52.5"><title>2024-03-13 76 videos</title></rect><rect fill="#ffc600" height="2.6" width="2.6" x="45.0" y="56.0"><title>2024-03-14 85 videos</title></rect><rect fill="#ffcb00" height="2.6" width="2.6" x="45.0" y="59.5"><title>2024-03-15 77 videos</title></rect><rect fill="#41ffd0" height="2.6" width="2.6" x="45.0" y="63.0"><title>2024-03-16 59 videos</title></rect><rect fill="#45ffee" height="2.6" width="2.6" x="45.0" y="66.5"><title>2024-03-17 41 videos</title></rect><rect fill="#43ffe2" height="2.6" width="2.6" x="48.5" y="45.5"><title>2024-03-18 48 videos</title></rect><rect fill="#ffbd00" height="2.6" width="2.6" x="48.5" y="49.0"><title>2024-03-19 99 videos</title></rect><rect fill="#4cd6ff" height="2.6" width="2.6" x="48.5" y="52.5"><title>2024-03-20 4 videos</title></rect><rect fill="#46fff6" height="2.6" width="2.6" x="48.5" y="56.0"><title>2024-03-21 36 videos</title></rect><rect fill="#ffbd00" height="2.6" width="2.6" x="48.5" y="59.5"><title>2024-03-22 99 videos</title></rect><rect fill="#40ffc4" height="2.6" width="2.6" x="48.5" y="63.0"><title>2024-03-23 66 videos</title></rect><rect fill="#4ae7ff" height="2.6" width="2.6" x="48.5" y="66.5"><title>2024-03-24 15 videos</title></rect><rect fill="#41ffd0" height="2.6" width="2.6" x="52.0" y="45.5"><title>2024-03-25 59 videos</title></rect><rect fill="#47fdff" height="2.6" width="2.6" x="52.0" y="49.0"><title>2024-03-26 29 videos</title></rect><rect fill="#45fff1" height="2.6" width="2.6" x="52.0" y="52.5"><title>2024-03-27 39 videos</title></rect><rect fill="#46fff7" height="2.6" width="2.6" x="52.0" y="56.0"><title>2024-03-28 35 videos</title></rect><rect fill="#48f5ff" height="2.6" width="2.6" x="52.0" y="59.5"><title>2024-03-29 24 videos</title></rect><rect fill="#46fff4" height="2.6" width="2.6" x="52.0" y="63.0"><title>2024-03-30 37 videos</title></rect><rect fill="#ffd100" height="2.6" width="2.6" x="52.0" y="66.5"><title>2024-03-31 69 videos</title></rect><rect fill="#41ffcc" height="2.6" width="2.6" x="55.5" y="45.5"><title>2024-04-01 61 videos</title></rect><rect fill="#44ffea" height="2.6" width="2.6" x="55.5" y="49.0"><title>2024-04-02 43 videos</title></rect><rect fill="#44ffea" height="2.6" width="2.6" x="55.5" y="52.5"><title>2024-04-03 43 videos</title></rect><rect fill="#4aeaff" height="2.6" width="2.6" x="55.5" y="56.0"><title>2024-04-04 17 videos</title></rect><rect fill="#45ffee" height="2.6" width="2.6" x="55.5" y="59.5"><title>2024-04-05 41 videos</title></rect><rect fill="#4cd9ff" height="2.6" width="2.6" x="55.5" y="63.0"><title>2024-04-06 6 videos</title></rect><rect fill="#45fff3" height="2.6" width="2.6" x="55.5" y="66.5"><title>2024-04-07 38 videos</title></rect><rect fill="#46fff6" height="2.6" width="2.6" x="59.0" y="45.5"><title>2024-04-08 36 videos</title></rect><rect fill="#4cdbff" height="2.6" width="2.6" x="59.0" y="49.0"><title>2024-04-09 7 videos</title></rect><rect fill="#49f2ff" height="2.6" width="2.6" x="59.0" y="52.5"><title>2024-04-10 22 videos</title></rect><rect fill="#ffd100" height="2.6" width="2.6" x="59.0" y="56.0"><title>2024-04-11 69 videos</title></rect><rect fill="red" height="2.6" width="2.6" x="59.0" y="59.5"><title>2024-04-12 121 videos</title></rect><rect fill="#45ffef" height="2.6" width="2.6" x="59.0" y="63.0"><title>2024-04-13 40 videos</title></rect><rect fill="#44ffe5" height="2.6" width="2.6" x="59.0" y="66.5"><title>2024-04-14 46 videos</title></rect><rect fill="#43ffdd" height="2.6" width="2.6" x="62.5" y="45.5"><title>2024-04-15 51 videos</title></rect><rect fill="#44ffea" height="2.6" width="2.6" x="62.5" y="49.0"><title>2024-04-16 43 videos</title></rect><rect fill="#44ffe5" height="2.6" width="2.6" x="62.5" y="52.5"><title>2024-04-17 46 videos</title></rect><rect fill="#48f7ff" height="2.6" width="2.6" x="62.5" y="56.0"><title>2024-04-18 25 videos</title></rect><rect fill="#43ffe0" height="2.6" width="2.6" x="62.5" y="59.5"><title>2024-04-19 49 videos</title></rect><rect fill="red" height="2.6" width="2.6" x="62.5" y="63.0"><title>2024-04-20 147 videos</title></rect><rect fill="#ffba00" height="2.6" width="2.6" x="62.5" y="66.5"><title>2024-04-21 103 videos</title></rect><rect fill="#ffc500" height="2.6" width="2.6" x="66.0" y="45.5"><title>2024-04-22 86 videos</title></rect><rect fill="#43ffe0" height="2.6" width="2.6" x="66.0" y="49.0"><title>2024-04-23 49 videos</title></rect><rect fill="#49efff" height="2.6" width="2.6" x="66.0" y="52.5"><title>2024-04-24 20 videos</title></rect><rect fill="#46fffb" height="2.6" width="2.6" x="66.0" y="56.0"><title>2024-04-25 33 videos</title></rect><rect fill="red" height="2.6" width="2.6" x="66.0" y="59.5"><title>2024-04-26 208 videos</title></rect><rect fill="#ffc500" height="2.6" width="2.6" x="66.0" y="63.0"><title>2024-04-27 86 videos</title></rect><rect fill="#46fffb" height="2.6" width="2.6" x="66.0" y="66.5"><title>2024-04-28 33 videos</title></rect><rect fill="#ffc700" height="2.6" width="2.6" x="69.5" y="45.5"><title>2024-04-29 84 videos</title></rect><rect fill="#48f8ff" height="2.6" width="2.6" x="69.5" y="49.0"><title>2024-04-30 26 videos</title></rect><rect fill="red" height="2.6" width="2.6" x="69.5" y="52.5"><title>2024-05-01 120 videos</title></rect><rect fill="#45ffef" height="2.6" width="2.6" x="69.5" y="56.0"><title>2024-05-02 40 videos</title></rect><rect fill="#40ffc7" height="2.6" width="2.6" x="69.5" y="59.5"><title>2024-05-03 64 videos</title></rect><rect fill="#ffb200" height="2.6" width="2.6" x="69.5" y="63.0"><title>2024-05-04 114 videos</title></rect><rect fill="#40ffc7" height="2.6" width="2.6" x="69.5" y="66.5"><title>2024-05-05 64 videos</title></rect><rect fill="#ffc500" height="2.6" width="2.6" x="73.0" y="45.5"><title>2024-05-06 87 videos</title></rect><rect fill="#ffca00" height="2.6" width="2.6" x="73.0" y="49.0"><title>2024-05-07 79 videos</title></rect><rect fill="red" height="2.6" width="2.6" x="73.0" y="52.5"><title>2024-05-08 153 videos</title></rect><rect fill="#ffb100" height="2.6" width="2.6" x="73.0" y="56.0"><title>2024-05-09 116 videos</title></rect><rect fill="#ffc100" height="2.6" width="2.6" x="73.0" y="59.5"><title>2024-05-10 93 videos</title></rect><rect fill="red" height="2.6" width="2.6" x="73.0" y="63.0"><title>2024-05-11 127 videos</title></rect><rect fill="#41ffce" height="2.6" width="2.6" x="73.0" y="66.5"><title>2024-05-12 60 videos</title></rect><rect fill="#ffba00" height="2.6" width="2.6" x="76.5" y="45.5"><title>2024-05-13 103 videos</title></rect><rect fill="#ffbe00" height="2.6" width="2.6" x="76.5" y="49.0"><title>2024-05-14 97 videos</title></rect><rect fill="red" height="2.6" width="2.6" x="76.5" y="52.5"><title>2024-05-15 152 videos</title></rect><rect fill="red" height="2.6" width="2.6" x="76.5" y="56.0"><title>2024-05-16 129 videos</title></rect><rect fill="#ffd100" height="2.6" width="2.6" x="76.5" y="59.5"><title>2024-05-17 69 videos</title></rect><rect fill="#43ffdb" height="2.6" width="2.6" x="76.5" y="63.0"><title>2024-05-18 52 videos</title></rect><rect fill="red" height="2.6" width="2.6" x="76.5" y="66.5"><title>2024-05-19 154 videos</title></rect><rect fill="red" height="2.6" width="2.6" x="80.0" y="45.5"><title>2024-05-20 377 videos</title></rect><rect fill="#ffce00" height="2.6" width="2.6" x="80.0" y="49.0"><title>2024-05-21 73 videos</title></rect><rect fill="#ffb800" height="2.6" width="2.6" x="80.0" y="52.5"><title>2024-05-22 105 videos</title></rect><rect fill="#40ffc4" height="2.6" width="2.6" x="80.0" y="56.0"><title>2024-05-23 66 videos</title></rect><rect fill="#42ffd5" height="2.6" width="2.6" x="80.0" y="59.5"><title>2024-05-24 56 videos</title></rect><rect fill="#44ffe7" height="2.6" width="2.6" x="80.0" y="63.0"><title>2024-05-25 45 videos</title></rect><rect fill="#49f2ff" height="2.6" width="2.6" x="80.0" y="66.5"><title>2024-05-26 22 videos</title></rect><rect fill="#47ffff" height="2.6" width="2.6" x="83.5" y="45.5"><title>2024-05-27 30 videos</title></rect><rect fill="#4aecff" height="2.6" width="2.6" x="83.5" y="49.0"><title>2024-05-28 18 videos</title></rect><rect fill="#44ffe4" height="2.6" width="2.6" x="83.5" y="52.5"><title>2024-05-29 47 videos</title></rect><rect fill="#ffc800" height="2.6" width="2.6" x="83.5" y="56.0"><title>2024-05-30 82 videos</title></rect><rect fill="#48f7ff" height="2.6" width="2.6" x="83.5" y="59.5"><title>2024-05-31 25 videos</title></rect><rect fill="red" height="2.6" width="2.6" x="83.5" y="63.0"><title>2024-06-01 280 videos</title></rect><rect fill="#48faff" height="2.6" width="2.6" x="83.5" y="66.5"><title>2024-06-02 27 videos</title></rect><rect fill="#ffcf00" height="2.6" width="2.6" x="87.0" y="45.5"><title>2024-06-03 72 videos</title></rect><rect fill="#49f0ff" height="2.6" width="2.6" x="87.0" y="49.0"><title>2024-06-04 21 videos</title></rect><rect fill="#ffc100" height="2.6" width="2.6" x="87.0" y="52.5"><title>2024-06-05 93 videos</title></rect><rect fill="#ffd100" height="2.6" width="2.6" x="87.0" y="56.0"><title>2024-06-06 69 videos</title></rect><rect fill="red" height="2.6" width="2.6" x="87.0" y="59.5"><title>2024-06-07 192 videos</title></rect><rect fill="red" height="2.6" width="2.6" x="87.0" y="63.0"><title>2024-06-08 123 videos</title></rect><rect fill="red" height="2.6" width="2.6" x="87.0" y="66.5"><title>2024-06-09 144 videos</title></rect><rect fill="#ffb100" height="2.6" width="2.6" x="90.5" y="45.5"><title>2024-06-10 116 videos</title></rect><rect fill="#46fff7" height="2.6" width="2.6" x="90.5" y="49.0"><title>2024-06-11 35 videos</title></rect><rect fill="#ffd200" height="2.6" width="2.6" x="90.5" y="52.5"><title>2024-06-12 68 videos</title></rect><rect fill="red" height="2.6" width="2.6" x="90.5" y="56.0"><title>2024-06-13 120 videos</title></rect><rect fill="#41ffd1" height="2.6" width="2.6" x="90.5" y="59.5"><title>2024-06-14 58 videos</title></rect><rect fill="#44ffe9" height="2.6" width="2.6" x="90.5" y="63.0"><title>2024-06-15 44 videos</title></rect><rect fill="#45ffef" height="2.6" width="2.6" x="90.5" y="66.5"><title>2024-06-16 40 videos</title></rect><rect fill="#46fff6" height="2.6" width="2.6" x="94.0" y="45.5"><title>2024-06-17 36 videos</title></rect><rect fill="#ffcc00" height="2.6" width="2.6" x="94.0" y="49.0"><title>2024-06-18 76 videos</title></rect><rect fill="#45ffee" height="2.6" width="2.6" x="94.0" y="52.5"><title>2024-06-19 41 videos</title></rect><rect fill="#42ffd6" height="2.6" width="2.6" x="94.0" y="56.0"><title>2024-06-20 55 videos</title></rect><rect fill="red" height="2.6" width="2.6" x="94.0" y="59.5"><title>2024-06-21 177 videos</title></rect><rect fill="#ffb800" height="2.6" width="2.6" x="94.0" y="63.0"><title>2024-06-22 105 videos</title></rect><rect fill="#4dd2ff" height="2.6" width="2.6" x="94.0" y="66.5"><title>2024-06-23 1 videos</title></rect><rect fill="#41ffd0" height="2.6" width="2.6" x="97.5" y="45.5"><title>2024-06-24 59 videos</title></rect><rect fill="red" height="2.6" width="2.6" x="97.5" y="49.0"><title>2024-06-25 142 videos</title></rect><rect fill="#41ffd0" height="2.6" width="2.6" x="97.5" y="52.5"><title>2024-06-26 59 videos</title></rect><rect fill="#45ffee" height="2.6" width="2.6" x="97.5" y="56.0"><title>2024-06-27 41 videos</title></rect><rect fill="#45ffee" height="2.6" width="2.6" x="97.5" y="59.5"><title>2024-06-28 41 videos</title></rect><rect fill="#45ffee" height="2.6" width="2.6" x="97.5" y="63.0"><title>2024-06-29 41 videos</title></rect><rect fill="#47fffc" height="2.6" width="2.6" x="97.5" y="66.5"><title>2024-06-30 32 videos</title></rect><rect fill="#3fffc2" height="2.6" width="2.6" x="101.0" y="45.5"><title>2024-07-01 67 videos</title></rect><rect fill="#ffb900" height="2.6" width="2.6" x="101.0" y="49.0"><title>2024-07-02 104 videos</title></rect><rect fill="#47ffff" height="2.6" width="2.6" x="101.0" y="52.5"><title>2024-07-03 30 videos</title></rect><rect fill="#4cdbff" height="2.6" width="2.6" x="101.0" y="56.0"><title>2024-07-04 7 videos</title></rect><rect fill="#4aecff" height="2.6" width="2.6" x="101.0" y="59.5"><title>2024-07-05 18 videos</title></rect><rect fill="#4aeaff" height="2.6" width="2.6" x="101.0" y="63.0"><title>2024-07-06 17 videos</title></rect><rect fill="#41ffd1" height="2.6" width="2.6" x="101.0" y="66.5"><title>2024-07-07 58 videos</title></rect><rect fill="red" height="2.6" width="2.6" x="104.5" y="45.5"><title>2024-07-08 151 videos</title></rect><rect fill="#46fff7" height="2.6" width="2.6" x="104.5" y="49.0"><title>2024-07-09 35 videos</title></rect><rect fill="#41ffcc" height="2.6" width="2.6" x="104.5" y="52.5"><title>2024-07-10 61 videos</title></rect><rect fill="#46fff9" height="2.6" width="2.6" x="104.5" y="56.0"><title>2024-07-11 34 videos</title></rect><rect fill="#ffcb00" height="2.6" width="2.6" x="104.5" y="59.5"><title>2024-07-12 78 videos</title></rect><rect fill="#4cd8ff" height="2.6" width="2.6" x="104.5" y="63.0"><title>2024-07-13 5 videos</title></rect><rect fill="#48f5ff" height="2.6" width="2.6" x="104.5" y="66.5"><title>2024-07-14 24 videos</title></rect><rect fill="#ffca00" height="2.6" width="2.6" x="108.0" y="45.5"><title>2024-07-15 79 videos</title></rect><rect fill="#42ffd6" height="2.6" width="2.6" x="108.0" y="49.0"><title>2024-07-16 55 videos</title></rect><rect fill="#ffd200" height="2.6" width="2.6" x="108.0" y="52.5"><title>2024-07-17 68 videos</title></rect><rect fill="red" height="2.6" width="2.6" x="108.0" y="56.0"><title>2024-07-18 129 videos</title></rect><rect fill="red" height="2.6" width="2.6" x="108.0" y="59.5"><title>2024-07-19 234 videos</title></rect><rect fill="#ffc600" height="2.6" width="2.6" x="108.0" y="63.0"><title>2024-07-20 85 videos</title></rect><rect fill="#444444" height="2.6" width="2.6" x="108.0" y="66.5"><title>2024-07-21</title></rect><rect fill="#444444" height="2.6" width="2.6" x="111.5" y="45.5"><title>2024-07-22</title></rect><rect fill="#444444" height="2.6" width="2.6" x="111.5" y="49.0"><title>2024-07-23</title></rect><rect fill="#444444" height="2.6" width="2.6" x="111.5" y="52.5"><title>2024-07-24</title></rect><rect fill="#444444" height="2.6" width="2.6" x="111.5" y="56.0"><title>2024-07-25</title></rect><rect fill="#444444" height="2.6" width="2.6" x="111.5" y="59.5"><title>2024-07-26</title></rect><rect fill="#444444" height="2.6" width="2.6" x="111.5" y="63.0"><title>2024-07-27</title></rect><rect fill="#444444" height="2.6" width="2.6" x="111.5" y="66.5"><title>2024-07-28</title></rect><rect fill="#444444" height="2.6" width="2.6" x="115.0" y="45.5"><title>2024-07-29</title></rect><rect fill="#444444" height="2.6" width="2.6" x="115.0" y="49.0"><title>2024-07-30</title></rect><rect fill="#444444" height="2.6" width="2.6" x="115.0" y="52.5"><title>2024-07-31</title></rect><rect fill="#444444" height="2.6" width="2.6" x="115.0" y="56.0"><title>2024-08-01</title></rect><rect fill="#444444" height="2.6" width="2.6" x="115.0" y="59.5"><title>2024-08-02</title></rect><rect fill="#444444" height="2.6" width="2.6" x="115.0" y="63.0"><title>2024-08-03</title></rect><rect fill="#444444" height="2.6" width="2.6" x="115.0" y="66.5"><title>2024-08-04</title></rect><rect fill="#444444" height="2.6" width="2.6" x="118.5" y="45.5"><title>2024-08-05</title></rect><rect fill="#444444" height="2.6" width="2.6" x="118.5" y="49.0"><title>2024-08-06</title></rect><rect fill="#444444" height="2.6" width="2.6" x="118.5" y="52.5"><title>2024-08-07</title></rect><rect fill="#444444" height="2.6" width="2.6" x="118.5" y="56.0"><title>2024-08-08</title></rect><rect fill="#444444" height="2.6" width="2.6" x="118.5" y="59.5"><title>2024-08-09</title></rect><rect fill="#444444" height="2.6" width="2.6" x="118.5" y="63.0"><title>2024-08-10</title></rect><rect fill="#444444" height="2.6" width="2.6" x="118.5" y="66.5"><title>2024-08-11</title></rect><rect fill="#444444" height="2.6" width="2.6" x="122.0" y="45.5"><title>2024-08-12</title></rect><rect fill="#444444" height="2.6" width="2.6" x="122.0" y="49.0"><title>2024-08-13</title></rect><rect fill="#444444" height="2.6" width="2.6" x="122.0" y="52.5"><title>2024-08-14</title></rect><rect fill="#444444" height="2.6" width="2.6" x="122.0" y="56.0"><title>2024-08-15</title></rect><rect fill="#444444" height="2.6" width="2.6" x="122.0" y="59.5"><title>2024-08-16</title></rect><rect fill="#444444" height="2.6" width="2.6" x="122.0" y="63.0"><title>2024-08-17</title></rect><rect fill="#444444" height="2.6" width="2.6" x="122.0" y="66.5"><title>2024-08-18</title></rect><rect fill="#444444" height="2.6" width="2.6" x="125.5" y="45.5"><title>2024-08-19</title></rect><rect fill="#444444" height="2.6" width="2.6" x="125.5" y="49.0"><title>2024-08-20</title></rect><rect fill="#444444" height="2.6" width="2.6" x="125.5" y="52.5"><title>2024-08-21</title></rect><rect fill="#444444" height="2.6" width="2.6" x="125.5" y="56.0"><title>2024-08-22</title></rect><rect fill="#444444" height="2.6" width="2.6" x="125.5" y="59.5"><title>2024-08-23</title></rect><rect fill="#444444" height="2.6" width="2.6" x="125.5" y="63.0"><title>2024-08-24</title></rect><rect fill="#444444" height="2.6" width="2.6" x="125.5" y="66.5"><title>2024-08-25</title></rect><rect fill="#444444" height="2.6" width="2.6" x="129.0" y="45.5"><title>2024-08-26</title></rect><rect fill="#444444" height="2.6" width="2.6" x="129.0" y="49.0"><title>2024-08-27</title></rect><rect fill="#444444" height="2.6" width="2.6" x="129.0" y="52.5"><title>2024-08-28</title></rect><rect fill="#444444" height="2.6" width="2.6" x="129.0" y="56.0"><title>2024-08-29</title></rect><rect fill="#444444" height="2.6" width="2.6" x="129.0" y="59.5"><title>2024-08-30</title></rect><rect fill="#444444" height="2.6" width="2.6" x="129.0" y="63.0"><title>2024-08-31</title></rect><rect fill="#444444" height="2.6" width="2.6" x="129.0" y="66.5"><title>2024-09-01</title></rect><rect fill="#444444" height="2.6" width="2.6" x="132.5" y="45.5"><title>2024-09-02</title></rect><rect fill="#444444" height="2.6" width="2.6" x="132.5" y="49.0"><title>2024-09-03</title></rect><rect fill="#444444" height="2.6" width="2.6" x="132.5" y="52.5"><title>2024-09-04</title></rect><rect fill="#444444" height="2.6" width="2.6" x="132.5" y="56.0"><title>2024-09-05</title></rect><rect fill="#444444" height="2.6" width="2.6" x="132.5" y="59.5"><title>2024-09-06</title></rect><rect fill="#444444" height="2.6" width="2.6" x="132.5" y="63.0"><title>2024-09-07</title></rect><rect fill="#444444" height="2.6" width="2.6" x="132.5" y="66.5"><title>2024-09-08</title></rect><rect fill="#444444" height="2.6" width="2.6" x="136.0" y="45.5"><title>2024-09-09</title></rect><rect fill="#444444" height="2.6" width="2.6" x="136.0" y="49.0"><title>2024-09-10</title></rect><rect fill="#444444" height="2.6" width="2.6" x="136.0" y="52.5"><title>2024-09-11</title></rect><rect fill="#444444" height="2.6" width="2.6" x="136.0" y="56.0"><title>2024-09-12</title></rect><rect fill="#444444" height="2.6" width="2.6" x="136.0" y="59.5"><title>2024-09-13</title></rect><rect fill="#444444" height="2.6" width="2.6" x="136.0" y="63.0"><title>2024-09-14</title></rect><rect fill="#444444" height="2.6" width="2.6" x="136.0" y="66.5"><title>2024-09-15</title></rect><rect fill="#444444" height="2.6" width="2.6" x="139.5" y="45.5"><title>2024-09-16</title></rect><rect fill="#444444" height="2.6" width="2.6" x="139.5" y="49.0"><title>2024-09-17</title></rect><rect fill="#444444" height="2.6" width="2.6" x="139.5" y="52.5"><title>2024-09-18</title></rect><rect fill="#444444" height="2.6" width="2.6" x="139.5" y="56.0"><title>2024-09-19</title></rect><rect fill="#444444" height="2.6" width="2.6" x="139.5" y="59.5"><title>2024-09-20</title></rect><rect fill="#444444" height="2.6" width="2.6" x="139.5" y="63.0"><title>2024-09-21</title></rect><rect fill="#444444" height="2.6" width="2.6" x="139.5" y="66.5"><title>2024-09-22</title></rect><rect fill="#444444" height="2.6" width="2.6" x="143.0" y="45.5"><title>2024-09-23</title></rect><rect fill="#444444" height="2.6" width="2.6" x="143.0" y="49.0"><title>2024-09-24</title></rect><rect fill="#444444" height="2.6" width="2.6" x="143.0" y="52.5"><title>2024-09-25</title></rect><rect fill="#444444" height="2.6" width="2.6" x="143.0" y="56.0"><title>2024-09-26</title></rect><rect fill="#444444" height="2.6" width="2.6" x="143.0" y="59.5"><title>2024-09-27</title></rect><rect fill="#444444" height="2.6" width="2.6" x="143.0" y="63.0"><title>2024-09-28</title></rect><rect fill="#444444" height="2.6" width="2.6" x="143.0" y="66.5"><title>2024-09-29</title></rect><rect fill="#444444" height="2.6" width="2.6" x="146.5" y="45.5"><title>2024-09-30</title></rect><rect fill="#444444" height="2.6" width="2.6" x="146.5" y="49.0"><title>2024-10-01</title></rect><rect fill="#444444" height="2.6" width="2.6" x="146.5" y="52.5"><title>2024-10-02</title></rect><rect fill="#444444" height="2.6" width="2.6" x="146.5" y="56.0"><title>2024-10-03</title></rect><rect fill="#444444" height="2.6" width="2.6" x="146.5" y="59.5"><title>2024-10-04</title></rect><rect fill="#444444" height="2.6" width="2.6" x="146.5" y="63.0"><title>2024-10-05</title></rect><rect fill="#444444" height="2.6" width="2.6" x="146.5" y="66.5"><title>2024-10-06</title></rect><rect fill="#444444" height="2.6" width="2.6" x="150.0" y="45.5"><title>2024-10-07</title></rect><rect fill="#444444" height="2.6" width="2.6" x="150.0" y="49.0"><title>2024-10-08</title></rect><rect fill="#444444" height="2.6" width="2.6" x="150.0" y="52.5"><title>2024-10-09</title></rect><rect fill="#444444" height="2.6" width="2.6" x="150.0" y="56.0"><title>2024-10-10</title></rect><rect fill="#444444" height="2.6" width="2.6" x="150.0" y="59.5"><title>2024-10-11</title></rect><rect fill="#444444" height="2.6" width="2.6" x="150.0" y="63.0"><title>2024-10-12</title></rect><rect fill="#444444" height="2.6" width="2.6" x="150.0" y="66.5"><title>2024-10-13</title></rect><rect fill="#444444" height="2.6" width="2.6" x="153.5" y="45.5"><title>2024-10-14</title></rect><rect fill="#444444" height="2.6" width="2.6" x="153.5" y="49.0"><title>2024-10-15</title></rect><rect fill="#444444" height="2.6" width="2.6" x="153.5" y="52.5"><title>2024-10-16</title></rect><rect fill="#444444" height="2.6" width="2.6" x="153.5" y="56.0"><title>2024-10-17</title></rect><rect fill="#444444" height="2.6" width="2.6" x="153.5" y="59.5"><title>2024-10-18</title></rect><rect fill="#444444" height="2.6" width="2.6" x="153.5" y="63.0"><title>2024-10-19</title></rect><rect fill="#444444" height="2.6" width="2.6" x="153.5" y="66.5"><title>2024-10-20</title></rect><rect fill="#444444" height="2.6" width="2.6" x="157.0" y="45.5"><title>2024-10-21</title></rect><rect fill="#444444" height="2.6" width="2.6" x="157.0" y="49.0"><title>2024-10-22</title></rect><rect fill="#444444" height="2.6" width="2.6" x="157.0" y="52.5"><title>2024-10-23</title></rect><rect fill="#444444" height="2.6" width="2.6" x="157.0" y="56.0"><title>2024-10-24</title></rect><rect fill="#444444" height="2.6" width="2.6" x="157.0" y="59.5"><title>2024-10-25</title></rect><rect fill="#444444" height="2.6" width="2.6" x="157.0" y="63.0"><title>2024-10-26</title></rect><rect fill="#444444" height="2.6" width="2.6" x="157.0" y="66.5"><title>2024-10-27</title></rect><rect fill="#444444" height="2.6" width="2.6" x="160.5" y="45.5"><title>2024-10-28</title></rect><rect fill="#444444" height="2.6" width="2.6" x="160.5" y="49.0"><title>2024-10-29</title></rect><rect fill="#444444" height="2.6" width="2.6" x="160.5" y="52.5"><title>2024-10-30</title></rect><rect fill="#444444" height="2.6" width="2.6" x="160.5" y="56.0"><title>2024-10-31</title></rect><rect fill="#444444" height="2.6" width="2.6" x="160.5" y="59.5"><title>2024-11-01</title></rect><rect fill="#444444" height="2.6" width="2.6" x="160.5" y="63.0"><title>2024-11-02</title></rect><rect fill="#444444" height="2.6" width="2.6" x="160.5" y="66.5"><title>2024-11-03</title></rect><rect fill="#444444" height="2.6" width="2.6" x="164.0" y="45.5"><title>2024-11-04</title></rect><rect fill="#444444" height="2.6" width="2.6" x="164.0" y="49.0"><title>2024-11-05</title></rect><rect fill="#444444" height="2.6" width="2.6" x="164.0" y="52.5"><title>2024-11-06</title></rect><rect fill="#444444" height="2.6" width="2.6" x="164.0" y="56.0"><title>2024-11-07</title></rect><rect fill="#444444" height="2.6" width="2.6" x="164.0" y="59.5"><title>2024-11-08</title></rect><rect fill="#444444" height="2.6" width="2.6" x="164.0" y="63.0"><title>2024-11-09</title></rect><rect fill="#444444" height="2.6" width="2.6" x="164.0" y="66.5"><title>2024-11-10</title></rect><rect fill="#444444" height="2.6" width="2.6" x="167.5" y="45.5"><title>2024-11-11</title></rect><rect fill="#444444" height="2.6" width="2.6" x="167.5" y="49.0"><title>2024-11-12</title></rect><rect fill="#444444" height="2.6" width="2.6" x="167.5" y="52.5"><title>2024-11-13</title></rect><rect fill="#444444" height="2.6" width="2.6" x="167.5" y="56.0"><title>2024-11-14</title></rect><rect fill="#444444" height="2.6" width="2.6" x="167.5" y="59.5"><title>2024-11-15</title></rect><rect fill="#444444" height="2.6" width="2.6" x="167.5" y="63.0"><title>2024-11-16</title></rect><rect fill="#444444" height="2.6" width="2.6" x="167.5" y="66.5"><title>2024-11-17</title></rect><rect fill="#444444" height="2.6" width="2.6" x="171.0" y="45.5"><title>2024-11-18</title></rect><rect fill="#444444" height="2.6" width="2.6" x="171.0" y="49.0"><title>2024-11-19</title></rect><rect fill="#444444" height="2.6" width="2.6" x="171.0" y="52.5"><title>2024-11-20</title></rect><rect fill="#444444" height="2.6" width="2.6" x="171.0" y="56.0"><title>2024-11-21</title></rect><rect fill="#444444" height="2.6" width="2.6" x="171.0" y="59.5"><title>2024-11-22</title></rect><rect fill="#444444" height="2.6" width="2.6" x="171.0" y="63.0"><title>2024-11-23</title></rect><rect fill="#444444" height="2.6" width="2.6" x="171.0" y="66.5"><title>2024-11-24</title></rect><rect fill="#444444" height="2.6" width="2.6" x="174.5" y="45.5"><title>2024-11-25</title></rect><rect fill="#444444" height="2.6" width="2.6" x="174.5" y="49.0"><title>2024-11-26</title></rect><rect fill="#444444" height="2.6" width="2.6" x="174.5" y="52.5"><title>2024-11-27</title></rect><rect fill="#444444" height="2.6" width="2.6" x="174.5" y="56.0"><title>2024-11-28</title></rect><rect fill="#444444" height="2.6" width="2.6" x="174.5" y="59.5"><title>2024-11-29</title></rect><rect fill="#444444" height="2.6" width="2.6" x="174.5" y="63.0"><title>2024-11-30</title></rect><rect fill="#444444" height="2.6" width="2.6" x="174.5" y="66.5"><title>2024-12-01</title></rect><rect fill="#444444" height="2.6" width="2.6" x="178.0" y="45.5"><title>2024-12-02</title></rect><rect fill="#444444" height="2.6" width="2.6" x="178.0" y="49.0"><title>2024-12-03</title></rect><rect fill="#444444" height="2.6" width="2.6" x="178.0" y="52.5"><title>2024-12-04</title></rect><rect fill="#444444" height="2.6" width="2.6" x="178.0" y="56.0"><title>2024-12-05</title></rect><rect fill="#444444" height="2.6" width="2.6" x="178.0" y="59.5"><title>2024-12-06</title></rect><rect fill="#444444" height="2.6" width="2.6" x="178.0" y="63.0"><title>2024-12-07</title></rect><rect fill="#444444" height="2.6" width="2.6" x="178.0" y="66.5"><title>2024-12-08</title></rect><rect fill="#444444" height="2.6" width="2.6" x="181.5" y="45.5"><title>2024-12-09</title></rect><rect fill="#444444" height="2.6" width="2.6" x="181.5" y="49.0"><title>2024-12-10</title></rect><rect fill="#444444" height="2.6" width="2.6" x="181.5" y="52.5"><title>2024-12-11</title></rect><rect fill="#444444" height="2.6" width="2.6" x="181.5" y="56.0"><title>2024-12-12</title></rect><rect fill="#444444" height="2.6" width="2.6" x="181.5" y="59.5"><title>2024-12-13</title></rect><rect fill="#444444" height="2.6" width="2.6" x="181.5" y="63.0"><title>2024-12-14</title></rect><rect fill="#444444" height="2.6" width="2.6" x="181.5" y="66.5"><title>2024-12-15</title></rect><rect fill="#444444" height="2.6" width="2.6" x="185.0" y="45.5"><title>2024-12-16</title></rect><rect fill="#444444" height="2.6" width="2.6" x="185.0" y="49.0"><title>2024-12-17</title></rect><rect fill="#444444" height="2.6" width="2.6" x="185.0" y="52.5"><title>2024-12-18</title></rect><rect fill="#444444" height="2.6" width="2.6" x="185.0" y="56.0"><title>2024-12-19</title></rect><rect fill="#444444" height="2.6" width="2.6" x="185.0" y="59.5"><title>2024-12-20</title></rect><rect fill="#444444" height="2.6" width="2.6" x="185.0" y="63.0"><title>2024-12-21</title></rect><rect fill="#444444" height="2.6" width="2.6" x="185.0" y="66.5"><title>2024-12-22</title></rect><rect fill="#444444" height="2.6" width="2.6" x="188.5" y="45.5"><title>2024-12-23</title></rect><rect fill="#444444" height="2.6" width="2.6" x="188.5" y="49.0"><title>2024-12-24</title></rect><rect fill="#444444" height="2.6" width="2.6" x="188.5" y="52.5"><title>2024-12-25</title></rect><rect fill="#444444" height="2.6" width="2.6" x="188.5" y="56.0"><title>2024-12-26</title></rect><rect fill="#444444" height="2.6" width="2.6" x="188.5" y="59.5"><title>2024-12-27</title></rect><rect fill="#444444" height="2.6" width="2.6" x="188.5" y="63.0"><title>2024-12-28</title></rect><rect fill="#444444" height="2.6" width="2.6" x="188.5" y="66.5"><title>2024-12-29</title></rect><rect fill="#444444" height="2.6" width="2.6" x="192.0" y="45.5"><title>2024-12-30</title></rect><rect fill="#444444" height="2.6" width="2.6" x="192.0" y="49.0"><title>2024-12-31</title></rect></svg>