<?xml version="1.0" encoding="utf-8" ?>
<svg baseProfile="full" height="78mm" version="1.1" viewBox="0,0,200,78" width="200mm" xmlns="http://www.w3.org/2000/svg" xmlns:ev="http://www.w3.org/2001/xml-events" xmlns:xlink="http://www.w3.org/1999/xlink"><defs /><rect fill="#222222" height="78" width="200" x="0" y="0" /><text fill="#FFFFFF" style="font-size:12px; font-family:Arial; font-weight:bold;" x="10" y="20">rip-tyang bilibili</text><text dominant-baseline="hanging" fill="#FFFFFF" style="font-size:10.0px; font-family:Arial;" x="10" y="30">2025</text><text dominant-baseline="hanging" fill="#FFFFFF" style="font-size:4.125px; font-family:Arial;" x="175" y="35">21434 videos</text><text fill="#FFFFFF" style="font-size:2.5px; font-family:Arial" x="10.0" y="44">Jan</text><text fill="#FFFFFF" style="font-size:2.5px; font-family:Arial" x="25.5" y="44">Feb</text><text fill="#FFFFFF" style="font-size:2.5px; font-family:Arial" x="41.0" y="44">Mar</text><text fill="#FFFFFF" style="font-size:2.5px; font-family:Arial" x="56.5" y="44">Apr</text><text fill="#FFFFFF" style="font-size:2.5px; font-family:Arial" x="72.0" y="44">May</text><text fill="#FFFFFF" style="font-size:2.5px; font-family:Arial" x="87.5" y="44">Jun</text><text fill="#FFFFFF" style="font-size:2.5px; font-family:Arial" x="103.0" y="44">Jul</text><text fill="#FFFFFF" style="font-size:2.5px; font-family:Arial" x="118.5" y="44">Aug</text><text fill="#FFFFFF" style="font-size:2.5px; font-family:Arial" x="134.0" y="44">Sep</text><text fill="#FFFFFF" style="font-size:2.5px; font-family:Arial" x="149.5" y="44">Oct</text><text fill="#FFFFFF" style="font-size:2.5px; font-family:Arial" x="165.0" y="44">Nov</text><text fill="#FFFFFF" style="font-size:2.5px; font-family:Arial" x="180.5" y="44">Dec</text><rect fill="#3dffb1" height="2.6" width="2.6" x="10.0" y="45.5"><title>2024-12-30 81 videos</title></rect><rect fill="red" height="2.6" width="2.6" x="10.0" y="49.0"><title>2024-12-31 198 videos</title></rect><rect fill="#4be0ff" height="2.6" width="2.6" x="10.0" y="52.5"><title>2025-01-01 11 videos</title></rect><rect fill="#40ffc8" height="2.6" width="2.6" x="10.0" y="56.0"><title>2025-01-02 67 videos</title></rect><rect fill="#4cd9ff" height="2.6" width="2.6" x="10.0" y="59.5"><title>2025-01-03 6 videos</title></rect><rect fill="#444444" height="2.6" width="2.6" x="10.0" y="63.0"><title>2025-01-04</title></rect><rect fill="#444444" height="2.6" width="2.6" x="10.0" y="66.5"><title>2025-01-05</title></rect><rect fill="#3dffac" height="2.6" width="2.6" x="13.5" y="45.5"><title>2025-01-06 84 videos</title></rect><rect fill="#444444" height="2.6" width="2.6" x="13.5" y="49.0"><title>2025-01-07</title></rect><rect fill="#47feff" height="2.6" width="2.6" x="13.5" y="52.5"><title>2025-01-08 31 videos</title></rect><rect fill="red" height="2.6" width="2.6" x="13.5" y="56.0"><title>2025-01-09 174 videos</title></rect><rect fill="#49ecff" height="2.6" width="2.6" x="13.5" y="59.5"><title>2025-01-10 19 videos</title></rect><rect fill="#4dd5ff" height="2.6" width="2.6" x="13.5" y="63.0"><title>2025-01-11 3 videos</title></rect><rect fill="#444444" height="2.6" width="2.6" x="13.5" y="66.5"><title>2025-01-12</title></rect><rect fill="#4cd6ff" height="2.6" width="2.6" x="17.0" y="45.5"><title>2025-01-13 4 videos</title></rect><rect fill="#444444" height="2.6" width="2.6" x="17.0" y="49.0"><title>2025-01-14</title></rect><rect fill="#48f9ff" height="2.6" width="2.6" x="17.0" y="52.5"><title>2025-01-15 28 videos</title></rect><rect fill="#4ae9ff" height="2.6" width="2.6" x="17.0" y="56.0"><title>2025-01-16 17 videos</title></rect><rect fill="#48f9ff" height="2.6" width="2.6" x="17.0" y="59.5"><title>2025-01-17 28 videos</title></rect><rect fill="#4ae9ff" height="2.6" width="2.6" x="17.0" y="63.0"><title>2025-01-18 17 videos</title></rect><rect fill="#45fff2" height="2.6" width="2.6" x="17.0" y="66.5"><title>2025-01-19 40 videos</title></rect><rect fill="#47feff" height="2.6" width="2.6" x="20.5" y="45.5"><title>2025-01-20 31 videos</title></rect><rect fill="#43ffdd" height="2.6" width="2.6" x="20.5" y="49.0"><title>2025-01-21 54 videos</title></rect><rect fill="#ffbb00" height="2.6" width="2.6" x="20.5" y="52.5"><title>2025-01-22 106 videos</title></rect><rect fill="#44ffe4" height="2.6" width="2.6" x="20.5" y="56.0"><title>2025-01-23 49 videos</title></rect><rect fill="#ffb100" height="2.6" width="2.6" x="20.5" y="59.5"><title>2025-01-24 122 videos</title></rect><rect fill="#ffa400" height="2.6" width="2.6" x="20.5" y="63.0"><title>2025-01-25 143 videos</title></rect><rect fill="#44ffeb" height="2.6" width="2.6" x="20.5" y="66.5"><title>2025-01-26 45 videos</title></rect><rect fill="#ff9700" height="2.6" width="2.6" x="24.0" y="45.5"><title>2025-01-27 163 videos</title></rect><rect fill="#ff9700" height="2.6" width="2.6" x="24.0" y="49.0"><title>2025-01-28 163 videos</title></rect><rect fill="#3fffc1" height="2.6" width="2.6" x="24.0" y="52.5"><title>2025-01-29 71 videos</title></rect><rect fill="#ffbb00" height="2.6" width="2.6" x="24.0" y="56.0"><title>2025-01-30 107 videos</title></rect><rect fill="#ff9f00" height="2.6" width="2.6" x="24.0" y="59.5"><title>2025-01-31 150 videos</title></rect><rect fill="#3aff8f" height="2.6" width="2.6" x="24.0" y="63.0"><title>2025-02-01 101 videos</title></rect><rect fill="#3fffbc" height="2.6" width="2.6" x="24.0" y="66.5"><title>2025-02-02 74 videos</title></rect><rect fill="#44ffe4" height="2.6" width="2.6" x="27.5" y="45.5"><title>2025-02-03 49 videos</title></rect><rect fill="#ffa000" height="2.6" width="2.6" x="27.5" y="49.0"><title>2025-02-04 148 videos</title></rect><rect fill="#ffaf00" height="2.6" width="2.6" x="27.5" y="52.5"><title>2025-02-05 125 videos</title></rect><rect fill="red" height="2.6" width="2.6" x="27.5" y="56.0"><title>2025-02-06 232 videos</title></rect><rect fill="#ff9a00" height="2.6" width="2.6" x="27.5" y="59.5"><title>2025-02-07 158 videos</title></rect><rect fill="#48f6ff" height="2.6" width="2.6" x="27.5" y="63.0"><title>2025-02-08 26 videos</title></rect><rect fill="#43ffdd" height="2.6" width="2.6" x="27.5" y="66.5"><title>2025-02-09 54 videos</title></rect><rect fill="#3dffb1" height="2.6" width="2.6" x="31.0" y="45.5"><title>2025-02-10 81 videos</title></rect><rect fill="#ffaa00" height="2.6" width="2.6" x="31.0" y="49.0"><title>2025-02-11 133 videos</title></rect><rect fill="red" height="2.6" width="2.6" x="31.0" y="52.5"><title>2025-02-12 230 videos</title></rect><rect fill="red" height="2.6" width="2.6" x="31.0" y="56.0"><title>2025-02-13 397 videos</title></rect><rect fill="#45ffee" height="2.6" width="2.6" x="31.0" y="59.5"><title>2025-02-14 43 videos</title></rect><rect fill="#3bff9c" height="2.6" width="2.6" x="31.0" y="63.0"><title>2025-02-15 93 videos</title></rect><rect fill="red" height="2.6" width="2.6" x="31.0" y="66.5"><title>2025-02-16 276 videos</title></rect><rect fill="#3cffa3" height="2.6" width="2.6" x="34.5" y="45.5"><title>2025-02-17 89 videos</title></rect><rect fill="#41ffce" height="2.6" width="2.6" x="34.5" y="49.0"><title>2025-02-18 63 videos</title></rect><rect fill="#40ffc3" height="2.6" width="2.6" x="34.5" y="52.5"><title>2025-02-19 70 videos</title></rect><rect fill="#3effb6" height="2.6" width="2.6" x="34.5" y="56.0"><title>2025-02-20 78 videos</title></rect><rect fill="#ffa500" height="2.6" width="2.6" x="34.5" y="59.5"><title>2025-02-21 141 videos</title></rect><rect fill="#ff9e00" height="2.6" width="2.6" x="34.5" y="63.0"><title>2025-02-22 151 videos</title></rect><rect fill="#43ffe3" height="2.6" width="2.6" x="34.5" y="66.5"><title>2025-02-23 50 videos</title></rect><rect fill="#3fffbb" height="2.6" width="2.6" x="38.0" y="45.5"><title>2025-02-24 75 videos</title></rect><rect fill="red" height="2.6" width="2.6" x="38.0" y="49.0"><title>2025-02-25 260 videos</title></rect><rect fill="#3fffbb" height="2.6" width="2.6" x="38.0" y="52.5"><title>2025-02-26 75 videos</title></rect><rect fill="#43ffe1" height="2.6" width="2.6" x="38.0" y="56.0"><title>2025-02-27 51 videos</title></rect><rect fill="#ffab00" height="2.6" width="2.6" x="38.0" y="59.5"><title>2025-02-28 132 videos</title></rect><rect fill="#4dd3ff" height="2.6" width="2.6" x="38.0" y="63.0"><title>2025-03-01 2 videos</title></rect><rect fill="#45ffee" height="2.6" width="2.6" x="38.0" y="66.5"><title>2025-03-02 43 videos</title></rect><rect fill="#4cdcff" height="2.6" width="2.6" x="41.5" y="45.5"><title>2025-03-03 8 videos</title></rect><rect fill="#42ffd9" height="2.6" width="2.6" x="41.5" y="49.0"><title>2025-03-04 56 videos</title></rect><rect fill="#3dffac" height="2.6" width="2.6" x="41.5" y="52.5"><title>2025-03-05 84 videos</title></rect><rect fill="#3bff9b" height="2.6" width="2.6" x="41.5" y="56.0"><title>2025-03-06 94 videos</title></rect><rect fill="#ffbb00" height="2.6" width="2.6" x="41.5" y="59.5"><title>2025-03-07 106 videos</title></rect><rect fill="#ffa400" height="2.6" width="2.6" x="41.5" y="63.0"><title>2025-03-08 143 videos</title></rect><rect fill="#4aeaff" height="2.6" width="2.6" x="41.5" y="66.5"><title>2025-03-09 18 videos</title></rect><rect fill="#45ffee" height="2.6" width="2.6" x="45.0" y="45.5"><title>2025-03-10 43 videos</title></rect><rect fill="#43ffe3" height="2.6" width="2.6" x="45.0" y="49.0"><title>2025-03-11 50 videos</title></rect><rect fill="#43ffdd" height="2.6" width="2.6" x="45.0" y="52.5"><title>2025-03-12 54 videos</title></rect><rect fill="#3bff99" height="2.6" width="2.6" x="45.0" y="56.0"><title>2025-03-13 95 videos</title></rect><rect fill="#3effb9" height="2.6" width="2.6" x="45.0" y="59.5"><title>2025-03-14 76 videos</title></rect><rect fill="#45ffee" height="2.6" width="2.6" x="45.0" y="63.0"><title>2025-03-15 43 videos</title></rect><rect fill="#4be3ff" height="2.6" width="2.6" x="45.0" y="66.5"><title>2025-03-16 13 videos</title></rect><rect fill="#46fff6" height="2.6" width="2.6" x="48.5" y="45.5"><title>2025-03-17 38 videos</title></rect><rect fill="#ffa300" height="2.6" width="2.6" x="48.5" y="49.0"><title>2025-03-18 144 videos</title></rect><rect fill="#3dffaf" height="2.6" width="2.6" x="48.5" y="52.5"><title>2025-03-19 82 videos</title></rect><rect fill="#ffaf00" height="2.6" width="2.6" x="48.5" y="56.0"><title>2025-03-20 126 videos</title></rect><rect fill="#4cd9ff" height="2.6" width="2.6" x="48.5" y="59.5"><title>2025-03-21 6 videos</title></rect><rect fill="#444444" height="2.6" width="2.6" x="48.5" y="63.0"><title>2025-03-22</title></rect><rect fill="#444444" height="2.6" width="2.6" x="48.5" y="66.5"><title>2025-03-23</title></rect><rect fill="#444444" height="2.6" width="2.6" x="52.0" y="45.5"><title>2025-03-24</title></rect><rect fill="#4dd3ff" height="2.6" width="2.6" x="52.0" y="49.0"><title>2025-03-25 2 videos</title></rect><rect fill="#4dd2ff" height="2.6" width="2.6" x="52.0" y="52.5"><title>2025-03-26 1 videos</title></rect><rect fill="#444444" height="2.6" width="2.6" x="52.0" y="56.0"><title>2025-03-27</title></rect><rect fill="#4dd5ff" height="2.6" width="2.6" x="52.0" y="59.5"><title>2025-03-28 3 videos</title></rect><rect fill="#444444" height="2.6" width="2.6" x="52.0" y="63.0"><title>2025-03-29</title></rect><rect fill="#444444" height="2.6" width="2.6" x="52.0" y="66.5"><title>2025-03-30</title></rect><rect fill="#4dd3ff" height="2.6" width="2.6" x="55.5" y="45.5"><title>2025-03-31 2 videos</title></rect><rect fill="#4dd3ff" height="2.6" width="2.6" x="55.5" y="49.0"><title>2025-04-01 2 videos</title></rect><rect fill="#4dd5ff" height="2.6" width="2.6" x="55.5" y="52.5"><title>2025-04-02 3 videos</title></rect><rect fill="#4dd5ff" height="2.6" width="2.6" x="55.5" y="56.0"><title>2025-04-03 3 videos</title></rect><rect fill="#444444" height="2.6" width="2.6" x="55.5" y="59.5"><title>2025-04-04</title></rect><rect fill="#444444" height="2.6" width="2.6" x="55.5" y="63.0"><title>2025-04-05</title></rect><rect fill="#444444" height="2.6" width="2.6" x="55.5" y="66.5"><title>2025-04-06</title></rect><rect fill="#444444" height="2.6" width="2.6" x="59.0" y="45.5"><title>2025-04-07</title></rect><rect fill="#4dd2ff" height="2.6" width="2.6" x="59.0" y="49.0"><title>2025-04-08 1 videos</title></rect><rect fill="#444444" height="2.6" width="2.6" x="59.0" y="52.5"><title>2025-04-09</title></rect><rect fill="#4dd3ff" height="2.6" width="2.6" x="59.0" y="56.0"><title>2025-04-10 2 videos</title></rect><rect fill="red" height="2.6" width="2.6" x="59.0" y="59.5"><title>2025-04-11 175 videos</title></rect><rect fill="#41ffd0" height="2.6" width="2.6" x="59.0" y="63.0"><title>2025-04-12 62 videos</title></rect><rect fill="#444444" height="2.6" width="2.6" x="59.0" y="66.5"><title>2025-04-13</title></rect><rect fill="#47fcff" height="2.6" width="2.6" x="62.5" y="45.5"><title>2025-04-14 30 videos</title></rect><rect fill="#ffb900" height="2.6" width="2.6" x="62.5" y="49.0"><title>2025-04-15 110 videos</title></rect><rect fill="#3effb4" height="2.6" width="2.6" x="62.5" y="52.5"><title>2025-04-16 79 videos</title></rect><rect fill="#ff9400" height="2.6" width="2.6" x="62.5" y="56.0"><title>2025-04-17 167 videos</title></rect><rect fill="#48f9ff" height="2.6" width="2.6" x="62.5" y="59.5"><title>2025-04-18 28 videos</title></rect><rect fill="#44ffe6" height="2.6" width="2.6" x="62.5" y="63.0"><title>2025-04-19 48 videos</title></rect><rect fill="#3fffbc" height="2.6" width="2.6" x="62.5" y="66.5"><title>2025-04-20 74 videos</title></rect><rect fill="#4be2ff" height="2.6" width="2.6" x="66.0" y="45.5"><title>2025-04-21 12 videos</title></rect><rect fill="#ffb400" height="2.6" width="2.6" x="66.0" y="49.0"><title>2025-04-22 118 videos</title></rect><rect fill="#ffa100" height="2.6" width="2.6" x="66.0" y="52.5"><title>2025-04-23 147 videos</title></rect><rect fill="red" height="2.6" width="2.6" x="66.0" y="56.0"><title>2025-04-24 256 videos</title></rect><rect fill="red" height="2.6" width="2.6" x="66.0" y="59.5"><title>2025-04-25 215 videos</title></rect><rect fill="#49f3ff" height="2.6" width="2.6" x="66.0" y="63.0"><title>2025-04-26 24 videos</title></rect><rect fill="#ffad00" height="2.6" width="2.6" x="66.0" y="66.5"><title>2025-04-27 128 videos</title></rect><rect fill="#ffb800" height="2.6" width="2.6" x="69.5" y="45.5"><title>2025-04-28 111 videos</title></rect><rect fill="#3dffaf" height="2.6" width="2.6" x="69.5" y="49.0"><title>2025-04-29 82 videos</title></rect><rect fill="#3effb9" height="2.6" width="2.6" x="69.5" y="52.5"><title>2025-04-30 76 videos</title></rect><rect fill="#ffa000" height="2.6" width="2.6" x="69.5" y="56.0"><title>2025-05-01 148 videos</title></rect><rect fill="#42ffd5" height="2.6" width="2.6" x="69.5" y="59.5"><title>2025-05-02 59 videos</title></rect><rect fill="#3dffac" height="2.6" width="2.6" x="69.5" y="63.0"><title>2025-05-03 84 videos</title></rect><rect fill="#ffb500" height="2.6" width="2.6" x="69.5" y="66.5"><title>2025-05-04 116 videos</title></rect><rect fill="#44ffe4" height="2.6" width="2.6" x="73.0" y="45.5"><title>2025-05-05 49 videos</title></rect><rect fill="#ffa400" height="2.6" width="2.6" x="73.0" y="49.0"><title>2025-05-06 143 videos</title></rect><rect fill="#ffb000" height="2.6" width="2.6" x="73.0" y="52.5"><title>2025-05-07 123 videos</title></rect><rect fill="red" height="2.6" width="2.6" x="73.0" y="56.0"><title>2025-05-08 202 videos</title></rect><rect fill="#40ffc5" height="2.6" width="2.6" x="73.0" y="59.5"><title>2025-05-09 69 videos</title></rect><rect fill="#43ffe1" height="2.6" width="2.6" x="73.0" y="63.0"><title>2025-05-10 51 videos</title></rect><rect fill="#48f8ff" height="2.6" width="2.6" x="73.0" y="66.5"><title>2025-05-11 27 videos</title></rect><rect fill="#3dffb1" height="2.6" width="2.6" x="76.5" y="45.5"><title>2025-05-12 81 videos</title></rect><rect fill="#3dffac" height="2.6" width="2.6" x="76.5" y="49.0"><title>2025-05-13 84 videos</title></rect><rect fill="#ffae00" height="2.6" width="2.6" x="76.5" y="52.5"><title>2025-05-14 127 videos</title></rect><rect fill="#3bffa0" height="2.6" width="2.6" x="76.5" y="56.0"><title>2025-05-15 91 videos</title></rect><rect fill="#ff9500" height="2.6" width="2.6" x="76.5" y="59.5"><title>2025-05-16 165 videos</title></rect><rect fill="#46fff7" height="2.6" width="2.6" x="76.5" y="63.0"><title>2025-05-17 37 videos</title></rect><rect fill="#43ffe1" height="2.6" width="2.6" x="76.5" y="66.5"><title>2025-05-18 51 videos</title></rect><rect fill="#ffb200" height="2.6" width="2.6" x="80.0" y="45.5"><title>2025-05-19 120 videos</title></rect><rect fill="#ffa900" height="2.6" width="2.6" x="80.0" y="49.0"><title>2025-05-20 135 videos</title></rect><rect fill="#42ffd5" height="2.6" width="2.6" x="80.0" y="52.5"><title>2025-05-21 59 videos</title></rect><rect fill="#3dffac" height="2.6" width="2.6" x="80.0" y="56.0"><title>2025-05-22 84 videos</title></rect><rect fill="#ff9500" height="2.6" width="2.6" x="80.0" y="59.5"><title>2025-05-23 165 videos</title></rect><rect fill="#47fffc" height="2.6" width="2.6" x="80.0" y="63.0"><title>2025-05-24 34 videos</title></rect><rect fill="#4dd5ff" height="2.6" width="2.6" x="80.0" y="66.5"><title>2025-05-25 3 videos</title></rect><rect fill="#4ae5ff" height="2.6" width="2.6" x="83.5" y="45.5"><title>2025-05-26 14 videos</title></rect><rect fill="#48f5ff" height="2.6" width="2.6" x="83.5" y="49.0"><title>2025-05-27 25 videos</title></rect><rect fill="#46fffa" height="2.6" width="2.6" x="83.5" y="52.5"><title>2025-05-28 35 videos</title></rect><rect fill="#44ffe8" height="2.6" width="2.6" x="83.5" y="56.0"><title>2025-05-29 47 videos</title></rect><rect fill="#41ffcd" height="2.6" width="2.6" x="83.5" y="59.5"><title>2025-05-30 64 videos</title></rect><rect fill="#42ffdb" height="2.6" width="2.6" x="83.5" y="63.0"><title>2025-05-31 55 videos</title></rect><rect fill="#47fffc" height="2.6" width="2.6" x="83.5" y="66.5"><title>2025-06-01 34 videos</title></rect><rect fill="#42ffd8" height="2.6" width="2.6" x="87.0" y="45.5"><title>2025-06-02 57 videos</title></rect><rect fill="#41ffd1" height="2.6" width="2.6" x="87.0" y="49.0"><title>2025-06-03 61 videos</title></rect><rect fill="#39ff8d" height="2.6" width="2.6" x="87.0" y="52.5"><title>2025-06-04 102 videos</title></rect><rect fill="#40ffc6" height="2.6" width="2.6" x="87.0" y="56.0"><title>2025-06-05 68 videos</title></rect><rect fill="#3aff96" height="2.6" width="2.6" x="87.0" y="59.5"><title>2025-06-06 97 videos</title></rect><rect fill="#3aff94" height="2.6" width="2.6" x="87.0" y="63.0"><title>2025-06-07 98 videos</title></rect><rect fill="#46fff7" height="2.6" width="2.6" x="87.0" y="66.5"><title>2025-06-08 37 videos</title></rect><rect fill="#44ffe8" height="2.6" width="2.6" x="90.5" y="45.5"><title>2025-06-09 47 videos</title></rect><rect fill="#42ffdb" height="2.6" width="2.6" x="90.5" y="49.0"><title>2025-06-10 55 videos</title></rect><rect fill="#ffab00" height="2.6" width="2.6" x="90.5" y="52.5"><title>2025-06-11 131 videos</title></rect><rect fill="#3effb7" height="2.6" width="2.6" x="90.5" y="56.0"><title>2025-06-12 77 videos</title></rect><rect fill="#46fff4" height="2.6" width="2.6" x="90.5" y="59.5"><title>2025-06-13 39 videos</title></rect><rect fill="#46fff9" height="2.6" width="2.6" x="90.5" y="63.0"><title>2025-06-14 36 videos</title></rect><rect fill="#48fbff" height="2.6" width="2.6" x="90.5" y="66.5"><title>2025-06-15 29 videos</title></rect><rect fill="red" height="2.6" width="2.6" x="94.0" y="45.5"><title>2025-06-16 283 videos</title></rect><rect fill="#46fff9" height="2.6" width="2.6" x="94.0" y="49.0"><title>2025-06-17 36 videos</title></rect><rect fill="red" height="2.6" width="2.6" x="94.0" y="52.5"><title>2025-06-18 174 videos</title></rect><rect fill="#43ffe1" height="2.6" width="2.6" x="94.0" y="56.0"><title>2025-06-19 51 videos</title></rect><rect fill="#44ffe8" height="2.6" width="2.6" x="94.0" y="59.5"><title>2025-06-20 47 videos</title></rect><rect fill="#3bff99" height="2.6" width="2.6" x="94.0" y="63.0"><title>2025-06-21 95 videos</title></rect><rect fill="#3dffb1" height="2.6" width="2.6" x="94.0" y="66.5"><title>2025-06-22 81 videos</title></rect><rect fill="#48f6ff" height="2.6" width="2.6" x="97.5" y="45.5"><title>2025-06-23 26 videos</title></rect><rect fill="#ff9500" height="2.6" width="2.6" x="97.5" y="49.0"><title>2025-06-24 166 videos</title></rect><rect fill="#ffb700" height="2.6" width="2.6" x="97.5" y="52.5"><title>2025-06-25 113 videos</title></rect><rect fill="#3aff94" height="2.6" width="2.6" x="97.5" y="56.0"><title>2025-06-26 98 videos</title></rect><rect fill="#ffb000" height="2.6" width="2.6" x="97.5" y="59.5"><title>2025-06-27 123 videos</title></rect><rect fill="#ff9c00" height="2.6" width="2.6" x="97.5" y="63.0"><title>2025-06-28 154 videos</title></rect><rect fill="#3cffa2" height="2.6" width="2.6" x="97.5" y="66.5"><title>2025-06-29 90 videos</title></rect><rect fill="#42ffd9" height="2.6" width="2.6" x="101.0" y="45.5"><title>2025-06-30 56 videos</title></rect><rect fill="red" height="2.6" width="2.6" x="101.0" y="49.0"><title>2025-07-01 215 videos</title></rect><rect fill="#444444" height="2.6" width="2.6" x="101.0" y="52.5"><title>2025-07-02</title></rect><rect fill="#444444" height="2.6" width="2.6" x="101.0" y="56.0"><title>2025-07-03</title></rect><rect fill="#4cd8ff" height="2.6" width="2.6" x="101.0" y="59.5"><title>2025-07-04 5 videos</title></rect><rect fill="#49edff" height="2.6" width="2.6" x="101.0" y="63.0"><title>2025-07-05 20 videos</title></rect><rect fill="#ffba00" height="2.6" width="2.6" x="101.0" y="66.5"><title>2025-07-06 108 videos</title></rect><rect fill="#ff9200" height="2.6" width="2.6" x="104.5" y="45.5"><title>2025-07-07 170 videos</title></rect><rect fill="#3bff97" height="2.6" width="2.6" x="104.5" y="49.0"><title>2025-07-08 96 videos</title></rect><rect fill="#3effb6" height="2.6" width="2.6" x="104.5" y="52.5"><title>2025-07-09 78 videos</title></rect><rect fill="red" height="2.6" width="2.6" x="104.5" y="56.0"><title>2025-07-10 300 videos</title></rect><rect fill="red" height="2.6" width="2.6" x="104.5" y="59.5"><title>2025-07-11 385 videos</title></rect><rect fill="#44ffe6" height="2.6" width="2.6" x="104.5" y="63.0"><title>2025-07-12 48 videos</title></rect><rect fill="#49edff" height="2.6" width="2.6" x="104.5" y="66.5"><title>2025-07-13 20 videos</title></rect><rect fill="#41ffd0" height="2.6" width="2.6" x="108.0" y="45.5"><title>2025-07-14 62 videos</title></rect><rect fill="#ffbc00" height="2.6" width="2.6" x="108.0" y="49.0"><title>2025-07-15 105 videos</title></rect><rect fill="#45ffec" height="2.6" width="2.6" x="108.0" y="52.5"><title>2025-07-16 44 videos</title></rect><rect fill="#49efff" height="2.6" width="2.6" x="108.0" y="56.0"><title>2025-07-17 21 videos</title></rect><rect fill="#49f2ff" height="2.6" width="2.6" x="108.0" y="59.5"><title>2025-07-18 23 videos</title></rect><rect fill="#ffa000" height="2.6" width="2.6" x="108.0" y="63.0"><title>2025-07-19 149 videos</title></rect><rect fill="#40ffc8" height="2.6" width="2.6" x="108.0" y="66.5"><title>2025-07-20 67 videos</title></rect><rect fill="#ffb100" height="2.6" width="2.6" x="111.5" y="45.5"><title>2025-07-21 122 videos</title></rect><rect fill="#ffb000" height="2.6" width="2.6" x="111.5" y="49.0"><title>2025-07-22 123 videos</title></rect><rect fill="red" height="2.6" width="2.6" x="111.5" y="52.5"><title>2025-07-23 204 videos</title></rect><rect fill="#ffb100" height="2.6" width="2.6" x="111.5" y="56.0"><title>2025-07-24 122 videos</title></rect><rect fill="#3bff99" height="2.6" width="2.6" x="111.5" y="59.5"><title>2025-07-25 95 videos</title></rect><rect fill="#49f3ff" height="2.6" width="2.6" x="111.5" y="63.0"><title>2025-07-26 24 videos</title></rect><rect fill="#ff9c00" height="2.6" width="2.6" x="111.5" y="66.5"><title>2025-07-27 154 videos</title></rect><rect fill="#4aeaff" height="2.6" width="2.6" x="115.0" y="45.5"><title>2025-07-28 18 videos</title></rect><rect fill="#3effb2" height="2.6" width="2.6" x="115.0" y="49.0"><title>2025-07-29 80 videos</title></rect><rect fill="#43ffde" height="2.6" width="2.6" x="115.0" y="52.5"><title>2025-07-30 53 videos</title></rect><rect fill="#48f6ff" height="2.6" width="2.6" x="115.0" y="56.0"><title>2025-07-31 26 videos</title></rect><rect fill="#41ffce" height="2.6" width="2.6" x="115.0" y="59.5"><title>2025-08-01 63 videos</title></rect><rect fill="#3fffbb" height="2.6" width="2.6" x="115.0" y="63.0"><title>2025-08-02 75 videos</title></rect><rect fill="#41ffd0" height="2.6" width="2.6" x="115.0" y="66.5"><title>2025-08-03 62 videos</title></rect><rect fill="#41ffcd" height="2.6" width="2.6" x="118.5" y="45.5"><title>2025-08-04 64 videos</title></rect><rect fill="#ffaa00" height="2.6" width="2.6" x="118.5" y="49.0"><title>2025-08-05 133 videos</title></rect><rect fill="#3aff8f" height="2.6" width="2.6" x="118.5" y="52.5"><title>2025-08-06 101 videos</title></rect><rect fill="#ffb900" height="2.6" width="2.6" x="118.5" y="56.0"><title>2025-08-07 109 videos</title></rect><rect fill="red" height="2.6" width="2.6" x="118.5" y="59.5"><title>2025-08-08 181 videos</title></rect><rect fill="#45ffee" height="2.6" width="2.6" x="118.5" y="63.0"><title>2025-08-09 43 videos</title></rect><rect fill="#3fffc1" height="2.6" width="2.6" x="118.5" y="66.5"><title>2025-08-10 71 videos</title></rect><rect fill="#45ffef" height="2.6" width="2.6" x="122.0" y="45.5"><title>2025-08-11 42 videos</title></rect><rect fill="#ffaf00" height="2.6" width="2.6" x="122.0" y="49.0"><title>2025-08-12 125 videos</title></rect><rect fill="#45ffec" height="2.6" width="2.6" x="122.0" y="52.5"><title>2025-08-13 44 videos</title></rect><rect fill="#ff9a00" height="2.6" width="2.6" x="122.0" y="56.0"><title>2025-08-14 158 videos</title></rect><rect fill="#ffaf00" height="2.6" width="2.6" x="122.0" y="59.5"><title>2025-08-15 125 videos</title></rect><rect fill="#41ffd1" height="2.6" width="2.6" x="122.0" y="63.0"><title>2025-08-16 61 videos</title></rect><rect fill="#ffa800" height="2.6" width="2.6" x="122.0" y="66.5"><title>2025-08-17 136 videos</title></rect><rect fill="#3cffa7" height="2.6" width="2.6" x="125.5" y="45.5"><title>2025-08-18 87 videos</title></rect><rect fill="#ff9300" height="2.6" width="2.6" x="125.5" y="49.0"><title>2025-08-19 169 videos</title></rect><rect fill="#45ffec" height="2.6" width="2.6" x="125.5" y="52.5"><title>2025-08-20 44 videos</title></rect><rect fill="#47ffff" height="2.6" width="2.6" x="125.5" y="56.0"><title>2025-08-21 32 videos</title></rect><rect fill="#47feff" height="2.6" width="2.6" x="125.5" y="59.5"><title>2025-08-22 31 videos</title></rect><rect fill="#43ffe3" height="2.6" width="2.6" x="125.5" y="63.0"><title>2025-08-23 50 videos</title></rect><rect fill="#46fffa" height="2.6" width="2.6" x="125.5" y="66.5"><title>2025-08-24 35 videos</title></rect><rect fill="#3fffc1" height="2.6" width="2.6" x="129.0" y="45.5"><title>2025-08-25 71 videos</title></rect><rect fill="#42ffd8" height="2.6" width="2.6" x="129.0" y="49.0"><title>2025-08-26 57 videos</title></rect><rect fill="#3dffb1" height="2.6" width="2.6" x="129.0" y="52.5"><title>2025-08-27 81 videos</title></rect><rect fill="#ffaa00" height="2.6" width="2.6" x="129.0" y="56.0"><title>2025-08-28 133 videos</title></rect><rect fill="#45fff1" height="2.6" width="2.6" x="129.0" y="59.5"><title>2025-08-29 41 videos</title></rect><rect fill="#ffad00" height="2.6" width="2.6" x="129.0" y="63.0"><title>2025-08-30 129 videos</title></rect><rect fill="#46fff4" height="2.6" width="2.6" x="129.0" y="66.5"><title>2025-08-31 39 videos</title></rect><rect fill="#ffbb00" height="2.6" width="2.6" x="132.5" y="45.5"><title>2025-09-01 106 videos</title></rect><rect fill="#ffb700" height="2.6" width="2.6" x="132.5" y="49.0"><title>2025-09-02 113 videos</title></rect><rect fill="#42ffd5" height="2.6" width="2.6" x="132.5" y="52.5"><title>2025-09-03 59 videos</title></rect><rect fill="#42ffdb" height="2.6" width="2.6" x="132.5" y="56.0"><title>2025-09-04 55 videos</title></rect><rect fill="#4ae5ff" height="2.6" width="2.6" x="132.5" y="59.5"><title>2025-09-05 14 videos</title></rect><rect fill="#3bff9b" height="2.6" width="2.6" x="132.5" y="63.0"><title>2025-09-06 94 videos</title></rect><rect fill="#49edff" height="2.6" width="2.6" x="132.5" y="66.5"><title>2025-09-07 20 videos</title></rect><rect fill="#46fff9" height="2.6" width="2.6" x="136.0" y="45.5"><title>2025-09-08 36 videos</title></rect><rect fill="#43ffdd" height="2.6" width="2.6" x="136.0" y="49.0"><title>2025-09-09 54 videos</title></rect><rect fill="#42ffd5" height="2.6" width="2.6" x="136.0" y="52.5"><title>2025-09-10 59 videos</title></rect><rect fill="#3fffbe" height="2.6" width="2.6" x="136.0" y="56.0"><title>2025-09-11 73 videos</title></rect><rect fill="#3fffbc" height="2.6" width="2.6" x="136.0" y="59.5"><title>2025-09-12 74 videos</title></rect><rect fill="#44ffe8" height="2.6" width="2.6" x="136.0" y="63.0"><title>2025-09-13 47 videos</title></rect><rect fill="#ffb600" height="2.6" width="2.6" x="136.0" y="66.5"><title>2025-09-14 114 videos</title></rect><rect fill="#40ffc3" height="2.6" width="2.6" x="139.5" y="45.5"><title>2025-09-15 70 videos</title></rect><rect fill="red" height="2.6" width="2.6" x="139.5" y="49.0"><title>2025-09-16 229 videos</title></rect><rect fill="#39ff8d" height="2.6" width="2.6" x="139.5" y="52.5"><title>2025-09-17 102 videos</title></rect><rect fill="red" height="2.6" width="2.6" x="139.5" y="56.0"><title>2025-09-18 223 videos</title></rect><rect fill="red" height="2.6" width="2.6" x="139.5" y="59.5"><title>2025-09-19 230 videos</title></rect><rect fill="#ffa400" height="2.6" width="2.6" x="139.5" y="63.0"><title>2025-09-20 142 videos</title></rect><rect fill="red" height="2.6" width="2.6" x="139.5" y="66.5"><title>2025-09-21 187 videos</title></rect><rect fill="#3cffa3" height="2.6" width="2.6" x="143.0" y="45.5"><title>2025-09-22 89 videos</title></rect><rect fill="#42ffd6" height="2.6" width="2.6" x="143.0" y="49.0"><title>2025-09-23 58 videos</title></rect><rect fill="#3fffbb" height="2.6" width="2.6" x="143.0" y="52.5"><title>2025-09-24 75 videos</title></rect><rect fill="#4dd2ff" height="2.6" width="2.6" x="143.0" y="56.0"><title>2025-09-25 1 videos</title></rect><rect fill="#444444" height="2.6" width="2.6" x="143.0" y="59.5"><title>2025-09-26</title></rect><rect fill="#444444" height="2.6" width="2.6" x="143.0" y="63.0"><title>2025-09-27</title></rect><rect fill="#444444" height="2.6" width="2.6" x="143.0" y="66.5"><title>2025-09-28</title></rect><rect fill="#444444" height="2.6" width="2.6" x="146.5" y="45.5"><title>2025-09-29</title></rect><rect fill="#444444" height="2.6" width="2.6" x="146.5" y="49.0"><title>2025-09-30</title></rect><rect fill="#444444" height="2.6" width="2.6" x="146.5" y="52.5"><title>2025-10-01</title></rect><rect fill="#444444" height="2.6" width="2.6" x="146.5" y="56.0"><title>2025-10-02</title></rect><rect fill="#444444" height="2.6" width="2.6" x="146.5" y="59.5"><title>2025-10-03</title></rect><rect fill="#444444" height="2.6" width="2.6" x="146.5" y="63.0"><title>2025-10-04</title></rect><rect fill="#444444" height="2.6" width="2.6" x="146.5" y="66.5"><title>2025-10-05</title></rect><rect fill="#444444" height="2.6" width="2.6" x="150.0" y="45.5"><title>2025-10-06</title></rect><rect fill="#444444" height="2.6" width="2.6" x="150.0" y="49.0"><title>2025-10-07</title></rect><rect fill="#444444" height="2.6" width="2.6" x="150.0" y="52.5"><title>2025-10-08</title></rect><rect fill="#444444" height="2.6" width="2.6" x="150.0" y="56.0"><title>2025-10-09</title></rect><rect fill="#444444" height="2.6" width="2.6" x="150.0" y="59.5"><title>2025-10-10</title></rect><rect fill="#444444" height="2.6" width="2.6" x="150.0" y="63.0"><title>2025-10-11</title></rect><rect fill="#444444" height="2.6" width="2.6" x="150.0" y="66.5"><title>2025-10-12</title></rect><rect fill="#444444" height="2.6" width="2.6" x="153.5" y="45.5"><title>2025-10-13</title></rect><rect fill="#444444" height="2.6" width="2.6" x="153.5" y="49.0"><title>2025-10-14</title></rect><rect fill="#444444" height="2.6" width="2.6" x="153.5" y="52.5"><title>2025-10-15</title></rect><rect fill="#444444" height="2.6" width="2.6" x="153.5" y="56.0"><title>2025-10-16</title></rect><rect fill="#444444" height="2.6" width="2.6" x="153.5" y="59.5"><title>2025-10-17</title></rect><rect fill="#444444" height="2.6" width="2.6" x="153.5" y="63.0"><title>2025-10-18</title></rect><rect fill="#444444" height="2.6" width="2.6" x="153.5" y="66.5"><title>2025-10-19</title></rect><rect fill="#444444" height="2.6" width="2.6" x="157.0" y="45.5"><title>2025-10-20</title></rect><rect fill="#444444" height="2.6" width="2.6" x="157.0" y="49.0"><title>2025-10-21</title></rect><rect fill="#444444" height="2.6" width="2.6" x="157.0" y="52.5"><title>2025-10-22</title></rect><rect fill="#444444" height="2.6" width="2.6" x="157.0" y="56.0"><title>2025-10-23</title></rect><rect fill="#444444" height="2.6" width="2.6" x="157.0" y="59.5"><title>2025-10-24</title></rect><rect fill="#444444" height="2.6" width="2.6" x="157.0" y="63.0"><title>2025-10-25</title></rect><rect fill="#444444" height="2.6" width="2.6" x="157.0" y="66.5"><title>2025-10-26</title></rect><rect fill="#444444" height="2.6" width="2.6" x="160.5" y="45.5"><title>2025-10-27</title></rect><rect fill="#444444" height="2.6" width="2.6" x="160.5" y="49.0"><title>2025-10-28</title></rect><rect fill="#444444" height="2.6" width="2.6" x="160.5" y="52.5"><title>2025-10-29</title></rect><rect fill="#444444" height="2.6" width="2.6" x="160.5" y="56.0"><title>2025-10-30</title></rect><rect fill="#444444" height="2.6" width="2.6" x="160.5" y="59.5"><title>2025-10-31</title></rect><rect fill="#444444" height="2.6" width="2.6" x="160.5" y="63.0"><title>2025-11-01</title></rect><rect fill="#444444" height="2.6" width="2.6" x="160.5" y="66.5"><title>2025-11-02</title></rect><rect fill="#444444" height="2.6" width="2.6" x="164.0" y="45.5"><title>2025-11-03</title></rect><rect fill="#444444" height="2.6" width="2.6" x="164.0" y="49.0"><title>2025-11-04</title></rect><rect fill="#444444" height="2.6" width="2.6" x="164.0" y="52.5"><title>2025-11-05</title></rect><rect fill="#444444" height="2.6" width="2.6" x="164.0" y="56.0"><title>2025-11-06</title></rect><rect fill="#444444" height="2.6" width="2.6" x="164.0" y="59.5"><title>2025-11-07</title></rect><rect fill="#444444" height="2.6" width="2.6" x="164.0" y="63.0"><title>2025-11-08</title></rect><rect fill="#444444" height="2.6" width="2.6" x="164.0" y="66.5"><title>2025-11-09</title></rect><rect fill="#444444" height="2.6" width="2.6" x="167.5" y="45.5"><title>2025-11-10</title></rect><rect fill="#444444" height="2.6" width="2.6" x="167.5" y="49.0"><title>2025-11-11</title></rect><rect fill="#444444" height="2.6" width="2.6" x="167.5" y="52.5"><title>2025-11-12</title></rect><rect fill="#444444" height="2.6" width="2.6" x="167.5" y="56.0"><title>2025-11-13</title></rect><rect fill="#444444" height="2.6" width="2.6" x="167.5" y="59.5"><title>2025-11-14</title></rect><rect fill="#444444" height="2.6" width="2.6" x="167.5" y="63.0"><title>2025-11-15</title></rect><rect fill="#444444" height="2.6" width="2.6" x="167.5" y="66.5"><title>2025-11-16</title></rect><rect fill="#444444" height="2.6" width="2.6" x="171.0" y="45.5"><title>2025-11-17</title></rect><rect fill="#444444" height="2.6" width="2.6" x="171.0" y="49.0"><title>2025-11-18</title></rect><rect fill="#444444" height="2.6" width="2.6" x="171.0" y="52.5"><title>2025-11-19</title></rect><rect fill="#444444" height="2.6" width="2.6" x="171.0" y="56.0"><title>2025-11-20</title></rect><rect fill="#444444" height="2.6" width="2.6" x="171.0" y="59.5"><title>2025-11-21</title></rect><rect fill="#444444" height="2.6" width="2.6" x="171.0" y="63.0"><title>2025-11-22</title></rect><rect fill="#444444" height="2.6" width="2.6" x="171.0" y="66.5"><title>2025-11-23</title></rect><rect fill="#444444" height="2.6" width="2.6" x="174.5" y="45.5"><title>2025-11-24</title></rect><rect fill="#444444" height="2.6" width="2.6" x="174.5" y="49.0"><title>2025-11-25</title></rect><rect fill="#444444" height="2.6" width="2.6" x="174.5" y="52.5"><title>2025-11-26</title></rect><rect fill="#444444" height="2.6" width="2.6" x="174.5" y="56.0"><title>2025-11-27</title></rect><rect fill="#444444" height="2.6" width="2.6" x="174.5" y="59.5"><title>2025-11-28</title></rect><rect fill="#444444" height="2.6" width="2.6" x="174.5" y="63.0"><title>2025-11-29</title></rect><rect fill="#444444" height="2.6" width="2.6" x="174.5" y="66.5"><title>2025-11-30</title></rect><rect fill="#444444" height="2.6" width="2.6" x="178.0" y="45.5"><title>2025-12-01</title></rect><rect fill="#444444" height="2.6" width="2.6" x="178.0" y="49.0"><title>2025-12-02</title></rect><rect fill="#444444" height="2.6" width="2.6" x="178.0" y="52.5"><title>2025-12-03</title></rect><rect fill="#444444" height="2.6" width="2.6" x="178.0" y="56.0"><title>2025-12-04</title></rect><rect fill="#444444" height="2.6" width="2.6" x="178.0" y="59.5"><title>2025-12-05</title></rect><rect fill="#444444" height="2.6" width="2.6" x="178.0" y="63.0"><title>2025-12-06</title></rect><rect fill="#444444" height="2.6" width="2.6" x="178.0" y="66.5"><title>2025-12-07</title></rect><rect fill="#444444" height="2.6" width="2.6" x="181.5" y="45.5"><title>2025-12-08</title></rect><rect fill="#444444" height="2.6" width="2.6" x="181.5" y="49.0"><title>2025-12-09</title></rect><rect fill="#444444" height="2.6" width="2.6" x="181.5" y="52.5"><title>2025-12-10</title></rect><rect fill="#444444" height="2.6" width="2.6" x="181.5" y="56.0"><title>2025-12-11</title></rect><rect fill="#444444" height="2.6" width="2.6" x="181.5" y="59.5"><title>2025-12-12</title></rect><rect fill="#444444" height="2.6" width="2.6" x="181.5" y="63.0"><title>2025-12-13</title></rect><rect fill="#444444" height="2.6" width="2.6" x="181.5" y="66.5"><title>2025-12-14</title></rect><rect fill="#444444" height="2.6" width="2.6" x="185.0" y="45.5"><title>2025-12-15</title></rect><rect fill="#444444" height="2.6" width="2.6" x="185.0" y="49.0"><title>2025-12-16</title></rect><rect fill="#444444" height="2.6" width="2.6" x="185.0" y="52.5"><title>2025-12-17</title></rect><rect fill="#444444" height="2.6" width="2.6" x="185.0" y="56.0"><title>2025-12-18</title></rect><rect fill="#444444" height="2.6" width="2.6" x="185.0" y="59.5"><title>2025-12-19</title></rect><rect fill="#444444" height="2.6" width="2.6" x="185.0" y="63.0"><title>2025-12-20</title></rect><rect fill="#444444" height="2.6" width="2.6" x="185.0" y="66.5"><title>2025-12-21</title></rect><rect fill="#444444" height="2.6" width="2.6" x="188.5" y="45.5"><title>2025-12-22</title></rect><rect fill="#444444" height="2.6" width="2.6" x="188.5" y="49.0"><title>2025-12-23</title></rect><rect fill="#444444" height="2.6" width="2.6" x="188.5" y="52.5"><title>2025-12-24</title></rect><rect fill="#444444" height="2.6" width="2.6" x="188.5" y="56.0"><title>2025-12-25</title></rect><rect fill="#444444" height="2.6" width="2.6" x="188.5" y="59.5"><title>2025-12-26</title></rect><rect fill="#444444" height="2.6" width="2.6" x="188.5" y="63.0"><title>2025-12-27</title></rect><rect fill="#444444" height="2.6" width="2.6" x="188.5" y="66.5"><title>2025-12-28</title></rect><rect fill="#444444" height="2.6" width="2.6" x="192.0" y="45.5"><title>2025-12-29</title></rect><rect fill="#444444" height="2.6" width="2.6" x="192.0" y="49.0"><title>2025-12-30</title></rect><rect fill="#444444" height="2.6" width="2.6" x="192.0" y="52.5"><title>2025-12-31</title></rect></svg>